<svg width="25" height="25" viewBox="0 0 25 25" fill="none" xmlns="http://www.w3.org/2000/svg">
<g clip-path="url(#clip0_548_36626)">
<path d="M2.43066 12.2712V23.2712H12.9307H23.4307V12.2712V1.27118H12.9307H2.43066V12.2712ZM14.0507 8.53118C14.0973 9.5334 14.214 9.80229 14.564 9.90007C15.1707 10.0712 15.1707 10.5601 14.564 10.7312C14.144 10.8534 14.0973 11.0734 14.0973 12.6623C14.0973 14.3001 14.144 14.4712 14.564 14.4712C14.8673 14.4712 15.0307 14.6423 15.0307 14.9601C15.0307 15.3512 14.8673 15.449 14.214 15.449C13.164 15.449 12.9307 14.9601 12.9307 12.6623C12.9307 11.5867 12.8373 10.8045 12.6973 10.8045C12.5807 10.8045 12.464 10.5845 12.464 10.3156C12.464 10.0467 12.5807 9.82673 12.6973 9.82673C12.8373 9.82673 12.9307 9.28896 12.9307 8.6534C12.9307 7.35785 13.0707 7.08896 13.6307 7.18674C13.8873 7.23562 14.004 7.62673 14.0507 8.53118ZM9.19733 11.5623V15.449H8.49733H7.79733V12.369C7.79733 9.92451 7.72733 9.21562 7.44733 8.92229C7.23733 8.72674 7.12066 8.4334 7.16733 8.26229C7.26066 7.96896 8.754 7.38229 9.034 7.5534C9.12733 7.60229 9.19733 9.41118 9.19733 11.5623ZM11.764 11.5623V15.449H11.064H10.364V12.2712C10.364 10.3156 10.2707 9.0934 10.1307 9.0934C10.014 9.0934 9.89733 8.82451 9.89733 8.48229C9.89733 8.01785 10.0607 7.84674 10.6673 7.67562C11.064 7.5534 11.484 7.50451 11.6007 7.5534C11.694 7.60229 11.764 9.41118 11.764 11.5623ZM16.664 11.3423L16.9907 12.8823L17.2007 11.3423C17.364 10.0956 17.4807 9.82673 17.854 9.82673C18.1107 9.82673 18.2973 9.99785 18.2973 10.2423C18.2973 10.9512 17.3173 16.0601 17.084 16.5001C16.7807 17.1356 15.614 16.9645 15.614 16.3045C15.614 16.0356 15.7307 15.8156 15.894 15.8156C16.454 15.8156 16.454 15.449 15.8707 12.9801C15.124 9.87562 15.124 9.82673 15.824 9.82673C16.314 9.82673 16.4073 9.99785 16.664 11.3423Z" fill="black"/>
</g>
<defs>
<clipPath id="clip0_548_36626">
<rect width="21" height="22" fill="white" transform="translate(2.43066 1.27118)"/>
</clipPath>
</defs>
</svg>
