<svg width="24" height="25" viewBox="0 0 24 25" fill="none" xmlns="http://www.w3.org/2000/svg">
<g clip-path="url(#clip0_544_35456)">
<path d="M1 1.6769H23.0001V23.077H1V1.6769Z" fill="#261300"/>
<path d="M0 0.676769V24.0768H24V0.676769H0ZM1.00013 1.67689H23.0002V23.077H1.00013V1.67689ZM8.32987 13.9266L7.53975 16.9266C7.51988 17.0065 7.48987 17.0268 7.38975 17.0268H5.91975C5.81962 17.0268 5.79975 16.9968 5.81962 16.8768L8.6595 6.93665C8.70937 6.75665 8.73938 6.59652 8.75962 6.10677C8.75962 6.03664 8.78963 6.00664 8.8395 6.00664H10.9395C11.0096 6.00664 11.0396 6.02652 11.0595 6.10677L14.2395 16.8966C14.2594 16.9765 14.2395 17.0268 14.1596 17.0268H12.4995C12.4196 17.0268 12.3694 17.0069 12.3495 16.9368L11.5196 13.9266H8.32987ZM11.1097 12.3066L9.91987 7.60677H9.9C9.69 8.77677 9.16012 10.7568 8.74012 12.3066H11.1097ZM15.6097 6.74652C15.6097 6.10639 16.0597 5.72652 16.6297 5.72652C17.2399 5.72652 17.6497 6.13639 17.6497 6.74652C17.6497 7.40652 17.2196 7.76652 16.6099 7.76652C16.0297 7.76652 15.6097 7.40652 15.6097 6.74652ZM15.7297 9.01639C15.7297 8.93652 15.7597 8.89639 15.8497 8.89639H17.4199C17.4998 8.89639 17.5399 8.9264 17.5399 9.01639V16.9064C17.5399 16.9863 17.52 17.0264 17.4199 17.0264H15.87C15.7699 17.0264 15.7399 16.9765 15.7399 16.8963V9.01677L15.7297 9.01639Z" fill="#FF7C00"/>
</g>
<defs>
<clipPath id="clip0_544_35456">
<rect width="24" height="24" fill="white" transform="translate(0 0.37677)"/>
</clipPath>
</defs>
</svg>
