<svg width="26" height="26" viewBox="0 0 26 26" fill="none" xmlns="http://www.w3.org/2000/svg">
<g clip-path="url(#clip0_544_35452)">
<path d="M1.0835 1.3839H24.9168V24.2425H1.0835V1.3839Z" fill="#2E001E"/>
<path d="M0 0.315552V25.3104H26V0.315552H0ZM1.08333 1.38371H24.9167V24.2423H1.08333V1.38371Z" fill="#FF2BC2"/>
<path d="M18.8826 10.8157C18.7201 10.7409 18.5143 10.7089 18.2543 10.7089C16.8893 10.7089 15.9793 11.745 15.9793 13.4647C15.9793 15.4302 16.9109 16.2206 18.1243 16.2206C18.3843 16.2206 18.6659 16.1885 18.8718 16.1031V10.8157H18.8826ZM14.0293 13.5502C14.0293 11.0614 15.6543 9.11735 18.3193 9.11735C18.5468 9.11735 18.6659 9.11735 18.8826 9.13871V6.3615C18.8826 6.29741 18.9368 6.25468 18.9909 6.25468H20.7351C20.8218 6.25468 20.8434 6.28673 20.8434 6.34014V16.1031C20.8434 16.3915 20.8434 16.7547 20.8976 17.1499C20.8976 17.2247 20.8976 17.2353 20.8326 17.2674C19.9226 17.6946 18.9693 17.8869 18.0593 17.8869C15.7084 17.8869 14.0293 16.4556 14.0293 13.5502ZM10.3351 11.8198L13.3684 17.6199C13.4226 17.7053 13.3901 17.7908 13.3034 17.7908H11.4184C11.2993 17.7908 11.2451 17.7587 11.1909 17.6519C10.4976 16.242 9.79344 14.7786 9.0676 13.2618H9.04594C8.39594 14.6931 7.68094 16.2526 6.9876 17.6626C6.93344 17.7481 6.87927 17.7801 6.7926 17.7801H4.99427C4.88594 17.7801 4.8751 17.6946 4.92927 17.6306L7.8976 12.0014L5.02677 6.40423C4.96177 6.31877 5.02677 6.244 5.1026 6.244H6.96594C7.07427 6.244 7.12844 6.26537 7.16094 6.3615C7.84344 7.78215 8.53677 9.18143 9.18677 10.6128H9.20844C9.83677 9.2028 10.5301 7.78215 11.1909 6.38286C11.2451 6.29741 11.2776 6.244 11.3859 6.244H13.1301C13.2168 6.244 13.2493 6.30809 13.1951 6.40423L10.3351 11.8198Z" fill="#FF2BC2"/>
</g>
<defs>
<clipPath id="clip0_544_35452">
<rect width="26" height="25" fill="white" transform="translate(0 0.313171)"/>
</clipPath>
</defs>
</svg>
