<svg width="34" height="35" viewBox="0 0 34 35" fill="none" xmlns="http://www.w3.org/2000/svg">
<g clip-path="url(#clip0_531_23792)">
<path d="M10.1818 14.6672C10.1818 15.0937 10.2251 15.4396 10.3017 15.6926C10.3883 15.9458 10.4971 16.2225 10.649 16.5216C10.7023 16.6135 10.7245 16.7054 10.7245 16.7866C10.7245 16.9009 10.659 17.0163 10.5183 17.1314L9.83429 17.6154C9.73658 17.6837 9.63887 17.719 9.5525 17.719C9.44371 17.719 9.33491 17.6613 9.22611 17.5577C9.08011 17.3906 8.94925 17.2094 8.83527 17.0163C8.71448 16.7948 8.60232 16.5681 8.49908 16.3368C7.65294 17.3964 6.58869 17.9263 5.30736 17.9263C4.396 17.9263 3.66896 17.6496 3.13632 17.0972C2.60446 16.5441 2.3335 15.8071 2.3335 14.8862C2.3335 13.9079 2.65886 13.1132 3.32169 12.5152C3.98324 11.9159 4.86238 11.6167 5.98129 11.6167C6.34996 11.6167 6.72946 11.6509 7.13113 11.7086C7.53332 11.7663 7.94607 11.8582 8.38023 11.9618V11.1212C8.38023 10.2462 8.20595 9.63648 7.86976 9.27992C7.52171 8.92308 6.93571 8.75 6.09988 8.75C5.72012 8.75 5.32954 8.79594 4.92761 8.89957C4.52855 9.00041 4.1368 9.13136 3.75533 9.2914C3.58105 9.37152 3.45111 9.41746 3.37557 9.44097C3.29926 9.4634 3.24486 9.47515 3.20155 9.47515C3.04944 9.47515 2.9739 9.35976 2.9739 9.11859V8.55449C2.9739 8.36965 2.99504 8.23183 3.04944 8.1509C3.10358 8.07078 3.20155 7.99066 3.35366 7.90945C3.73316 7.70219 4.18949 7.52937 4.7211 7.39129C5.25296 7.24172 5.81783 7.17254 6.41493 7.17254C7.70605 7.17254 8.65068 7.48316 9.25911 8.10496C9.85621 8.72648 10.1594 9.67066 10.1594 10.9375V14.6672H10.1818ZM5.77478 16.418C6.13236 16.418 6.50181 16.3486 6.89265 16.2107C7.2835 16.0718 7.63077 15.8189 7.9239 15.4738C8.09715 15.2551 8.22812 15.0134 8.29257 14.7369C8.35806 14.4602 8.40137 14.1271 8.40137 13.7348V13.2521C8.07252 13.1665 7.73931 13.1008 7.40338 13.0555C7.06465 13.0102 6.72359 12.9874 6.38218 12.9872C5.65515 12.9872 5.12329 13.1368 4.76467 13.4477C4.40708 13.7583 4.23306 14.1952 4.23306 14.7711C4.23306 15.3125 4.363 15.7153 4.63473 15.9917C4.89564 16.2791 5.27539 16.418 5.77478 16.418ZM14.4912 17.6613C14.2957 17.6613 14.1658 17.6271 14.0792 17.5459C13.9915 17.4765 13.916 17.3162 13.8505 17.0975L11.2997 8.19765C11.2352 7.96715 11.2017 7.81758 11.2017 7.73636C11.2017 7.55261 11.2886 7.44926 11.4629 7.44926H12.5264C12.7326 7.44926 12.8736 7.48316 12.9502 7.56437C13.0368 7.63273 13.1023 7.79406 13.1668 8.01281L14.9905 15.6352L16.6844 8.01308C16.738 7.7834 16.8035 7.63301 16.8898 7.56465C16.9775 7.49492 17.1296 7.44898 17.325 7.44898H18.1931C18.3993 7.44898 18.5406 7.48316 18.6272 7.56437C18.7139 7.63273 18.7904 7.79406 18.8335 8.01281L20.5487 15.727L22.4269 8.01308C22.4913 7.7834 22.5679 7.63301 22.6434 7.56465C22.7301 7.49492 22.8721 7.44898 23.0673 7.44898H24.0764C24.2507 7.44898 24.3484 7.54086 24.3484 7.73636C24.3484 7.79379 24.3373 7.85176 24.3262 7.92121C24.3151 7.99066 24.294 8.08254 24.2507 8.20832L21.6344 17.109C21.5689 17.3387 21.4933 17.4882 21.4057 17.5574C21.3191 17.6271 21.178 17.6731 20.9937 17.6731H20.0604C19.8539 17.6731 19.7129 17.6375 19.6263 17.5577C19.5386 17.4765 19.4631 17.3269 19.4198 17.0972L17.737 9.67066L16.0651 17.0855C16.011 17.3162 15.9465 17.4658 15.8589 17.5459C15.772 17.6271 15.6201 17.6613 15.4247 17.6613H14.4912ZM28.4401 17.9722C27.8763 17.9722 27.3111 17.9028 26.7684 17.765C26.2255 17.6271 25.8027 17.4765 25.5206 17.3045C25.3464 17.2009 25.2275 17.0857 25.1842 16.9818C25.1414 16.8803 25.1191 16.7704 25.1187 16.6592V16.0718C25.1187 15.8307 25.2053 15.7153 25.3688 15.7153C25.4332 15.7153 25.4985 15.727 25.5639 15.7505C25.6284 15.773 25.7261 15.8189 25.8347 15.8648C26.2184 16.0436 26.6188 16.1789 27.0294 16.2684C27.4633 16.3603 27.8863 16.4062 28.3213 16.4062C29.0052 16.4062 29.5368 16.2791 29.9055 16.0262C30.275 15.773 30.4704 15.4044 30.4704 14.9324C30.4704 14.6098 30.3727 14.3459 30.1775 14.1269C29.9821 13.9081 29.6124 13.7123 29.0808 13.5278L27.5066 13.0096C26.7141 12.7446 26.1278 12.3539 25.7705 11.8357C25.4121 11.3285 25.2275 10.7644 25.2275 10.1664C25.2275 9.68242 25.3255 9.2564 25.5206 8.88781C25.7144 8.51743 25.9809 8.19545 26.3021 7.94363C26.6274 7.67976 26.9971 7.48316 27.4313 7.34535C27.8652 7.20754 28.3213 7.14984 28.7987 7.14984C29.0375 7.14984 29.287 7.1616 29.5258 7.19578C29.7756 7.22996 30.0032 7.2759 30.2316 7.32183C30.4482 7.37953 30.6547 7.43722 30.8501 7.50668C31.0456 7.57613 31.1977 7.64449 31.3065 7.71394C31.4586 7.80582 31.5671 7.89769 31.6316 8.00105C31.6971 8.09402 31.7293 8.22035 31.7293 8.3814V8.92281C31.7293 9.16453 31.6427 9.2914 31.4795 9.2914C31.3928 9.2914 31.2518 9.24465 31.0677 9.15277C30.4482 8.85363 29.7534 8.70406 28.9831 8.70406C28.3646 8.70406 27.8763 8.80769 27.5398 9.02672C27.2023 9.24465 27.0294 9.57906 27.0294 10.051C27.0294 10.3737 27.1379 10.6501 27.3545 10.868C27.5721 11.0868 27.974 11.3061 28.5489 11.5013L30.0906 12.0195C30.8723 12.2845 31.4364 12.6528 31.7726 13.125C32.109 13.5972 32.2722 14.1386 32.2722 14.7369C32.2722 15.2324 32.1743 15.6811 31.9902 16.0718C31.7948 16.4639 31.5339 16.809 31.1977 17.0855C30.8612 17.3728 30.4593 17.5801 29.9932 17.7308C29.5046 17.891 28.9941 17.9722 28.4401 17.9722Z" fill="#252F3E"/>
<path d="M31.2244 20.0561C30.0818 20.0733 28.7329 20.3437 27.7127 21.1039C27.3974 21.3453 27.4518 21.6677 27.7993 21.6218C28.9616 21.4722 31.5222 21.1498 31.9785 21.7714C32.4348 22.3811 31.469 24.9487 31.0341 26.0889C30.9042 26.4335 31.1862 26.5727 31.4791 26.3077C33.3895 24.6039 33.8891 21.0462 33.4983 20.528C33.3031 20.2751 32.367 20.0386 31.2244 20.0561ZM1.22274 20.7427C0.983752 20.7744 0.875471 21.0807 1.12787 21.3227C5.38384 25.3974 11.0173 27.8502 17.2703 27.8502C21.7317 27.8502 26.9202 26.3654 30.4912 23.5681C31.0772 23.1066 30.5677 22.4049 29.9704 22.692C25.9655 24.4885 21.6118 25.3635 17.65 25.3635C11.7776 25.3635 6.10004 23.6482 1.49731 20.8154C1.39677 20.7523 1.30267 20.7323 1.223 20.7427H1.22274Z" fill="#FF9900"/>
</g>
<defs>
<clipPath id="clip0_531_23792">
<rect width="33" height="35" fill="white" transform="translate(0.802734)"/>
</clipPath>
</defs>
</svg>
