<svg width="30" height="31" viewBox="0 0 30 31" fill="none" xmlns="http://www.w3.org/2000/svg">
<path d="M3.21049 25.7638H5.0965V29.8468H4.27807V26.5595L3.54775 26.5623H3.37221C2.96439 26.5623 2.73775 26.5794 2.69252 26.6134C2.449 26.6795 2.24322 26.8201 2.07518 27.0353C1.89424 27.294 1.80354 27.5516 1.80354 27.8082C1.80354 28.1253 1.92611 28.4171 2.1715 28.6832C2.3358 28.8397 2.47736 28.9342 2.59643 28.9663C2.71525 29.0268 2.9201 29.057 3.21072 29.057H3.78002V29.8471H3.09775C2.59174 29.8471 2.16424 29.7139 1.81479 29.4477C1.56189 29.2475 1.39291 29.0664 1.30807 28.9042C1.09666 28.5681 0.990723 28.2245 0.990723 27.8734V27.7546C0.990723 27.2638 1.17471 26.8135 1.54291 26.4039C1.76557 26.1868 1.94791 26.05 2.08924 25.9932C2.19143 25.9365 2.33182 25.8828 2.51135 25.832C2.67166 25.7863 2.90486 25.7638 3.21049 25.7638ZM9.21635 26.5792C9.29744 26.6886 9.35604 26.7821 9.3919 26.8595C9.44486 26.9521 9.49455 27.0765 9.54213 27.2333C9.59861 27.4222 9.62697 27.6789 9.62697 28.0035V29.8468H8.80854V27.9156C8.80854 27.2661 8.5151 26.8321 7.92799 26.6132C7.79393 26.5754 7.67604 26.5555 7.57385 26.5536C7.47189 26.5555 7.35494 26.5754 7.22275 26.6132C6.63564 26.8321 6.34221 27.2664 6.34221 27.9156V29.8468H5.52096V28.0035C5.52096 27.6789 5.54932 27.4222 5.6058 27.2333C5.65291 27.0768 5.70307 26.9521 5.75603 26.8595C5.79189 26.7803 5.85119 26.6868 5.93439 26.5792C6.37432 26.0392 6.92088 25.7692 7.57385 25.7692C8.22729 25.7692 8.77455 26.0392 9.21635 26.5792ZM11.5128 25.7666C12.0624 25.7666 12.3774 25.7788 12.4587 25.8034C12.6813 25.8299 12.9324 25.9234 13.2117 26.0837C13.3646 26.1782 13.5272 26.3225 13.6988 26.5168C14.0046 26.8963 14.1574 27.3275 14.1574 27.8108C14.159 28.0864 14.1032 28.3593 13.9934 28.6121C13.7782 29.101 13.4241 29.454 12.9317 29.6713C12.7031 29.7885 12.3521 29.8468 11.8784 29.8468H10.1426L10.0519 29.8297V29.0539H11.966C12.1699 29.0539 12.3274 29.0359 12.439 29.0003C12.7355 28.9002 12.9523 28.7511 13.0901 28.5528C13.2581 28.3018 13.3421 28.0574 13.3421 27.8195C13.3421 27.5797 13.2694 27.3437 13.1241 27.1114C13.0334 26.9774 12.9335 26.8757 12.8241 26.8056C12.6239 26.6413 12.338 26.5593 11.966 26.5593H10.0519V25.7664L11.5128 25.7666ZM14.5824 25.7666H17.2046C17.667 25.7666 18.0296 25.9053 18.2918 26.1828C18.409 26.2923 18.4901 26.398 18.5353 26.5C18.6375 26.7039 18.6881 26.9031 18.6881 27.0974V27.2134C18.6881 27.5118 18.5588 27.8033 18.3005 28.0883C18.1343 28.2468 17.9831 28.3487 17.8472 28.3942C18.1908 28.7605 18.3626 29.2445 18.3626 29.8468H17.5385V29.7845C17.5385 29.3389 17.3581 28.985 16.9976 28.7225C16.7918 28.5772 16.5228 28.5046 16.1906 28.5046H14.5824V27.7173H17.2554C17.5479 27.7173 17.7462 27.5729 17.85 27.2842C17.8613 27.2256 17.8688 27.1766 17.8725 27.137C17.8725 26.9764 17.8057 26.8311 17.6717 26.701C17.5566 26.6103 17.4338 26.5651 17.3037 26.5651C17.3037 26.5576 17.2641 26.5539 17.1846 26.5539H14.5824V25.7666ZM21.1545 25.7692H21.1826C21.8096 25.7692 22.3446 26.026 22.7883 26.5393C23.0754 26.9244 23.2186 27.3435 23.2186 27.7965V27.8249C23.2186 28.4516 22.9563 28.9839 22.4316 29.4217C22.0503 29.7048 21.6321 29.8466 21.1772 29.8466H21.1488C20.5259 29.8466 19.9924 29.5918 19.549 29.0821C19.3943 28.865 19.2858 28.6658 19.2232 28.4846C19.1517 28.27 19.1145 28.0455 19.1128 27.8193V27.7909C19.1128 27.1754 19.3667 26.6488 19.8746 26.2107C20.2181 25.9653 20.5315 25.8275 20.8146 25.7973C20.9013 25.7788 21.0146 25.7692 21.1545 25.7692ZM19.9282 27.8024C19.9282 28.1572 20.067 28.4687 20.3445 28.7368C20.5917 28.9482 20.8512 29.0539 21.1231 29.0539H21.2023C21.4214 29.0539 21.6441 28.9794 21.8707 28.8301C22.1046 28.6583 22.2633 28.4394 22.3463 28.1732C22.3725 28.1033 22.3915 27.9833 22.4028 27.8136C22.4028 27.4663 22.268 27.1595 21.9978 26.8932C21.7449 26.6687 21.4674 26.5562 21.1653 26.5562C20.8123 26.5562 20.4989 26.7034 20.2252 26.998C20.1101 27.1492 20.0372 27.2774 20.007 27.3831C19.9547 27.5305 19.9282 27.6702 19.9282 27.8024ZM23.6433 25.7692H24.4615V29.8466H23.6433V25.7692ZM26.3644 25.7666C26.9138 25.7666 27.2288 25.7788 27.3101 25.8034C27.5328 25.8299 27.7838 25.9234 28.0631 26.0837C28.216 26.1782 28.3786 26.3225 28.5502 26.5168C28.856 26.8963 29.0089 27.3275 29.0089 27.8108C29.0104 28.0864 28.9546 28.3593 28.8448 28.6121C28.6296 29.101 28.2755 29.454 27.7831 29.6713C27.5546 29.7885 27.2035 29.8468 26.7298 29.8468H24.994L24.9033 29.8297V29.0539H26.8174C27.0213 29.0539 27.1788 29.0359 27.2904 29.0003C27.5869 28.9002 27.8037 28.7511 27.9415 28.5528C28.1096 28.3018 28.1935 28.0574 28.1935 27.8195C28.1935 27.5797 28.1208 27.3437 27.9755 27.1114C27.8848 26.9774 27.7849 26.8757 27.6755 26.8056C27.4753 26.6413 27.1894 26.5593 26.8174 26.5593H24.9033V25.7664L26.3644 25.7666ZM6.84119 18.3083C5.79025 18.3088 4.93619 17.4538 4.93596 16.4028L4.93572 10.569C4.93549 9.51925 5.78932 8.66425 6.83908 8.66402C7.08952 8.66301 7.33766 8.71174 7.56912 8.80737C7.80058 8.903 8.01075 9.04364 8.18744 9.22113C8.36505 9.39761 8.50588 9.60758 8.60179 9.83887C8.6977 10.0702 8.74678 10.3182 8.74619 10.5685L8.74572 16.4026C8.74703 16.6527 8.69852 16.9005 8.60303 17.1317C8.50754 17.3628 8.36698 17.5726 8.18955 17.7489C8.01311 17.9268 7.80304 18.068 7.57156 18.164C7.34008 18.26 7.09181 18.3091 6.84119 18.3083ZM6.83979 9.17613C6.47037 9.17625 6.11611 9.32307 5.85492 9.58431C5.59372 9.84556 5.44696 10.1998 5.44689 10.5693L5.44783 16.4026C5.44782 16.5855 5.48383 16.7667 5.55382 16.9357C5.62381 17.1047 5.72641 17.2583 5.85575 17.3877C5.98509 17.517 6.13865 17.6196 6.30765 17.6897C6.47665 17.7597 6.65779 17.7957 6.84072 17.7957C7.02365 17.7958 7.2048 17.7597 7.37381 17.6897C7.54283 17.6198 7.6964 17.5172 7.82576 17.3878C7.95513 17.2585 8.05775 17.1049 8.12777 16.9359C8.19779 16.7669 8.23383 16.5858 8.23385 16.4028V10.5685C8.23347 10.1991 8.08643 9.84488 7.82503 9.58379C7.56362 9.32269 7.20925 9.17606 6.83979 9.17613Z" fill="white"/>
<path d="M21.7833 9.46513L21.271 9.46489L8.72254 9.46653L8.2102 9.46677L8.20996 8.95442C8.20879 6.85161 9.35442 4.89599 11.2308 3.74052L10.5014 2.4088C10.4564 2.3273 10.428 2.23765 10.4179 2.14507C10.4079 2.05249 10.4163 1.95884 10.4428 1.86955C10.4693 1.78027 10.5133 1.69716 10.5722 1.62504C10.6311 1.55292 10.7038 1.49325 10.786 1.4495C10.8882 1.39323 11.0031 1.36403 11.1197 1.36466C11.3782 1.36466 11.615 1.50505 11.7396 1.73145L12.5032 3.12247C13.2996 2.831 14.1413 2.68293 14.9893 2.68513C15.8632 2.68489 16.7018 2.83255 17.495 3.12364L18.2574 1.73052C18.3181 1.61936 18.4076 1.52663 18.5166 1.46212C18.6256 1.39761 18.75 1.36369 18.8766 1.36395C18.9929 1.36372 19.1086 1.39208 19.2108 1.44692C19.2937 1.49144 19.3668 1.5521 19.4258 1.62532C19.4849 1.69854 19.5287 1.78284 19.5546 1.87325C19.5808 1.96235 19.589 2.05577 19.5786 2.14806C19.5682 2.24034 19.5395 2.32963 19.4942 2.41067L18.7653 3.74145C20.6386 4.89927 21.7829 6.85372 21.7826 8.95278L21.7833 9.46513ZM18.0739 3.93763L19.0461 2.162C19.0598 2.1397 19.0689 2.11483 19.0728 2.0889C19.0766 2.06297 19.0752 2.03653 19.0685 2.01118C19.0618 1.98583 19.0501 1.9621 19.034 1.94144C19.0178 1.92077 18.9977 1.9036 18.9747 1.89097C18.9517 1.87834 18.9264 1.87051 18.9003 1.86796C18.8743 1.86541 18.8479 1.8682 18.8229 1.87614C18.798 1.88408 18.7749 1.89703 18.755 1.91418C18.7352 1.93133 18.7191 1.95233 18.7076 1.97591L17.7254 3.76934C16.8657 3.38923 15.9357 3.19422 14.9958 3.197C14.0581 3.19405 13.1303 3.38842 12.2726 3.76747L11.2896 1.97802C11.2776 1.95566 11.2613 1.93592 11.2416 1.91993C11.2219 1.90394 11.1992 1.89202 11.1748 1.88487C11.1505 1.87772 11.1249 1.87548 11.0997 1.87827C11.0745 1.88106 11.0501 1.88884 11.0279 1.90114C11.0055 1.91314 10.9857 1.92947 10.9697 1.94918C10.9537 1.9689 10.9418 1.9916 10.9347 2.01597C10.9275 2.04034 10.9253 2.06589 10.9282 2.09112C10.931 2.11635 10.9388 2.14077 10.9512 2.16294L11.9236 3.93692C10.0125 4.9227 8.72137 6.79958 8.72254 8.95466L21.2707 8.95325C21.2712 6.79864 19.9824 4.92575 18.0739 3.93763ZM12.1421 6.68145C12.0025 6.68136 11.8687 6.62584 11.7701 6.52709C11.6715 6.42835 11.6162 6.29448 11.6163 6.15493C11.6163 6.01538 11.6719 5.88158 11.7706 5.78297C11.8694 5.68436 12.0032 5.62902 12.1428 5.62911C12.2823 5.62942 12.4161 5.68501 12.5147 5.78372C12.6134 5.88242 12.6689 6.01619 12.6692 6.15575C12.6689 6.29532 12.6132 6.42907 12.5144 6.52763C12.4155 6.62619 12.2816 6.68152 12.1421 6.68145ZM17.8559 6.68028C17.7868 6.68044 17.7183 6.66694 17.6544 6.64057C17.5905 6.61419 17.5325 6.57546 17.4836 6.5266C17.4347 6.47773 17.3959 6.41969 17.3695 6.35581C17.3431 6.29193 17.3296 6.22347 17.3297 6.15435C17.3303 6.01486 17.3859 5.88122 17.4844 5.78248C17.5829 5.68374 17.7164 5.62786 17.8559 5.627C17.9952 5.62811 18.1284 5.6841 18.2267 5.78282C18.325 5.88155 18.3804 6.01504 18.3809 6.15435C18.381 6.22336 18.3675 6.29171 18.3411 6.3555C18.3148 6.4193 18.2762 6.47727 18.2274 6.52611C18.1786 6.57496 18.1207 6.61371 18.057 6.64017C17.9932 6.66662 17.9249 6.68025 17.8559 6.68028ZM12.6678 24.9575C11.6178 24.9573 10.7632 24.1033 10.763 23.0525L10.7625 20.4775L10.2619 20.4779C9.9993 20.4789 9.7391 20.4277 9.49645 20.3273C9.25379 20.2269 9.03351 20.0792 8.8484 19.8929C8.66191 19.7078 8.51412 19.4874 8.41365 19.2446C8.31317 19.0018 8.26202 18.7415 8.26317 18.4787L8.26129 9.43981V8.927H8.77363L21.2279 8.92513L21.7404 8.92489V9.43724L21.7418 18.4773C21.7418 19.5798 20.8451 20.477 19.7429 20.4768L19.2394 20.477L19.2399 23.0507C19.2399 24.1009 18.3854 24.9559 17.3358 24.9559C17.0855 24.957 16.8375 24.9083 16.6062 24.8127C16.3749 24.717 16.165 24.5762 15.9886 24.3986C15.8108 24.2223 15.6698 24.0125 15.5738 23.7813C15.4778 23.5501 15.4287 23.3022 15.4294 23.0518V20.477H14.5732V23.0516C14.5728 24.1021 13.7182 24.9578 12.6678 24.9575Z" fill="white"/>
<path d="M8.77602 18.479C8.77558 18.6743 8.81372 18.8678 8.88824 19.0484C8.96276 19.229 9.0722 19.393 9.21027 19.5312C9.34835 19.6694 9.51234 19.779 9.69286 19.8536C9.87337 19.9283 10.0668 19.9666 10.2622 19.9663H11.2742L11.2754 23.0528C11.2756 23.4221 11.4223 23.7762 11.6833 24.0374C11.9443 24.2987 12.2983 24.4457 12.6676 24.4462C12.8506 24.446 13.0318 24.4099 13.2008 24.3397C13.3698 24.2696 13.5233 24.1668 13.6526 24.0373C13.7819 23.9078 13.8845 23.7541 13.9544 23.585C14.0243 23.4159 14.0602 23.2346 14.06 23.0516V19.9661L15.9406 19.9656L15.9404 23.0519C15.9453 23.4183 16.0943 23.7681 16.3552 24.0254C16.6161 24.2828 16.9679 24.427 17.3343 24.4269C17.7008 24.4268 18.0525 24.2823 18.3132 24.0248C18.5739 23.7672 18.7227 23.4174 18.7273 23.0509L18.7264 19.9651L19.7422 19.9649C20.1365 19.9647 20.5147 19.8079 20.7934 19.529C21.0722 19.2501 21.2288 18.8719 21.2288 18.4776L21.2272 9.43701L8.77344 9.43912L8.77602 18.479ZM23.1601 18.306C22.1094 18.3062 21.2546 17.4524 21.2548 16.4015L21.2534 10.5679C21.2537 9.51694 22.107 8.66217 23.157 8.66217C24.2084 8.66194 25.0637 9.5167 25.0637 10.5672L25.0641 16.4005C25.0644 17.4508 24.2105 18.3062 23.1601 18.306ZM23.1584 9.17428C22.9755 9.17425 22.7943 9.21027 22.6253 9.2803C22.4563 9.35032 22.3028 9.45297 22.1734 9.58237C22.0441 9.71178 21.9416 9.8654 21.8717 10.0345C21.8018 10.2035 21.7659 10.3847 21.766 10.5676L21.7665 16.401C21.7664 16.584 21.8024 16.7652 21.8724 16.9343C21.9424 17.1033 22.045 17.2569 22.1744 17.3863C22.3038 17.5157 22.4575 17.6182 22.6266 17.6882C22.7956 17.7581 22.9769 17.794 23.1598 17.7939C23.3428 17.7939 23.524 17.7579 23.693 17.6878C23.862 17.6178 24.0156 17.5151 24.1449 17.3857C24.2742 17.2563 24.3768 17.1026 24.4467 16.9335C24.5166 16.7645 24.5525 16.5833 24.5523 16.4003L24.5509 10.5669C24.5509 10.3841 24.515 10.2029 24.445 10.034C24.375 9.86499 24.2725 9.71145 24.1432 9.58212C24.0139 9.4528 23.8604 9.35021 23.6914 9.28023C23.5224 9.21025 23.3413 9.17425 23.1584 9.17428Z" fill="white"/>
<path d="M6.84016 9.17613C6.47074 9.17626 6.11649 9.32308 5.85529 9.58432C5.59409 9.84556 5.44733 10.1998 5.44727 10.5693L5.4482 16.4026C5.44808 16.5856 5.48403 16.7669 5.55401 16.936C5.62399 17.1051 5.72661 17.2588 5.85602 17.3882C5.98543 17.5177 6.13908 17.6203 6.30818 17.6903C6.47729 17.7603 6.65854 17.7963 6.84156 17.7962C7.02456 17.7964 7.2058 17.7605 7.37489 17.6905C7.54398 17.6205 7.69761 17.5179 7.82698 17.3885C7.95635 17.259 8.05891 17.1054 8.12879 16.9362C8.19867 16.7671 8.2345 16.5858 8.23422 16.4028V10.5686C8.23385 10.1991 8.0868 9.84489 7.8254 9.58379C7.56399 9.3227 7.20962 9.17607 6.84016 9.17613ZM18.074 3.93762L19.0462 2.16199C19.0709 2.11693 19.0768 2.06392 19.0625 2.01454C19.0482 1.96517 19.015 1.92346 18.97 1.89855C18.9249 1.87416 18.8721 1.86861 18.8229 1.8831C18.7738 1.89759 18.7324 1.93096 18.7077 1.9759L17.7257 3.77004C16.8663 3.38919 15.9362 3.194 14.9962 3.19723C14.0585 3.1942 13.1306 3.38857 12.273 3.76769L11.29 1.97824C11.278 1.95594 11.2616 1.93625 11.2419 1.92029C11.2222 1.90433 11.1996 1.89243 11.1753 1.88526C11.151 1.87809 11.1255 1.87581 11.1003 1.87853C11.0751 1.88125 11.0507 1.88894 11.0284 1.90113C11.006 1.91311 10.9862 1.92942 10.9702 1.94913C10.9542 1.96884 10.9423 1.99154 10.9351 2.01591C10.9279 2.04028 10.9257 2.06583 10.9285 2.09108C10.9314 2.11632 10.9392 2.14074 10.9516 2.16293L11.924 3.93715C10.0129 4.92293 8.72172 6.7998 8.72289 8.95488L21.2711 8.95348C21.2713 6.79863 19.9825 4.92574 18.074 3.93762ZM12.1422 6.68144C12.0026 6.68135 11.8688 6.62583 11.7702 6.52708C11.6716 6.42834 11.6163 6.29447 11.6164 6.15492C11.6165 6.01537 11.672 5.88157 11.7707 5.78296C11.8695 5.68435 12.0033 5.62901 12.1429 5.6291C12.2824 5.62941 12.4162 5.685 12.5149 5.78371C12.6135 5.88241 12.669 6.01618 12.6693 6.15574C12.669 6.29531 12.6133 6.42906 12.5145 6.52762C12.4157 6.62618 12.2818 6.68151 12.1422 6.68144ZM17.856 6.68027C17.7869 6.68033 17.7185 6.66677 17.6546 6.64037C17.5908 6.61396 17.5328 6.57523 17.4839 6.52638C17.435 6.47753 17.3963 6.41953 17.3698 6.35569C17.3434 6.29185 17.3298 6.22343 17.3298 6.15434C17.3306 6.01492 17.3863 5.88143 17.4848 5.78274C17.5832 5.68405 17.7166 5.6281 17.856 5.62699C17.9953 5.6281 18.1286 5.68409 18.2268 5.78281C18.3251 5.88154 18.3805 6.01503 18.381 6.15434C18.3811 6.22336 18.3677 6.29173 18.3413 6.35553C18.315 6.41934 18.2763 6.47732 18.2276 6.52617C18.1788 6.57502 18.1209 6.61378 18.0571 6.64022C17.9934 6.66666 17.925 6.68027 17.856 6.68027ZM8.77398 9.4391L8.77586 18.4794C8.77564 18.6747 8.81395 18.868 8.88857 19.0485C8.9632 19.2289 9.07268 19.3928 9.21075 19.5309C9.34882 19.6689 9.51277 19.7784 9.6932 19.853C9.87364 19.9276 10.067 19.9658 10.2623 19.9656L11.2743 19.9658L11.2755 23.0523C11.2757 23.4216 11.4224 23.7757 11.6834 24.0369C11.9444 24.2982 12.2984 24.4452 12.6677 24.4457C13.0373 24.4454 13.3916 24.2983 13.6529 24.0369C13.9142 23.7754 14.061 23.421 14.061 23.0514L14.0603 19.9661L15.9409 19.9656L15.9416 23.0518C15.9416 23.8199 16.5667 24.4459 17.3343 24.4445C17.7039 24.4444 18.0583 24.2976 18.3196 24.0362C18.5809 23.7749 18.7277 23.4205 18.7277 23.0509L18.7267 19.9651L19.7425 19.9644C20.1369 19.9644 20.5151 19.8078 20.794 19.5289C21.0728 19.2501 21.2295 18.8719 21.2296 18.4775L21.228 9.43722L8.77398 9.4391ZM24.5514 10.5671C24.5515 10.3842 24.5155 10.2031 24.4455 10.034C24.3755 9.86502 24.2729 9.71144 24.1436 9.58209C24.0142 9.45273 23.8606 9.35014 23.6916 9.28016C23.5226 9.21018 23.3414 9.17419 23.1585 9.17426C22.9756 9.17423 22.7944 9.21025 22.6254 9.28027C22.4564 9.3503 22.3028 9.45295 22.1735 9.58235C22.0442 9.71175 21.9417 9.86538 21.8718 10.0344C21.8018 10.2035 21.7659 10.3847 21.7661 10.5676L21.7673 16.4012C21.7671 16.5841 21.803 16.7653 21.873 16.9343C21.9429 17.1034 22.0455 17.257 22.1748 17.3863C22.3042 17.5157 22.4578 17.6182 22.6268 17.6882C22.7958 17.7581 22.977 17.794 23.1599 17.7939C23.3429 17.7939 23.5241 17.7579 23.6931 17.6878C23.8621 17.6178 24.0157 17.5151 24.145 17.3857C24.2743 17.2563 24.3769 17.1026 24.4468 16.9335C24.5166 16.7644 24.5525 16.5832 24.5523 16.4003L24.5514 10.5671Z" fill="#A4C439"/>
</svg>
