<svg width="28" height="28" viewBox="0 0 28 28" fill="none" xmlns="http://www.w3.org/2000/svg">
<path d="M3.23864 16.9855L3.10039 17.3484L2.83526 17.2547L2.97351 16.8919L3.23864 16.9855ZM3.10039 17.3484L2.89476 17.8884L2.62483 17.7955L2.83045 17.2555L3.10039 17.3484ZM2.89476 17.8884L2.86151 17.9377L2.7622 17.8415L2.89476 17.8884ZM2.86151 17.9377L2.40958 18.3693L2.21095 18.1765L2.66289 17.7449L2.86151 17.9377ZM2.40958 18.3693L2.00883 18.7519L1.8102 18.5591L2.21095 18.1765L2.40958 18.3693ZM2.00883 18.7519L1.9082 18.8464L1.71264 18.6494L1.80889 18.5591L2.00883 18.7519ZM1.9082 18.8464C1.72751 19.0143 1.69164 19.0477 1.7437 19.3476L1.46545 19.3923C1.38889 18.9502 1.44226 18.9004 1.71308 18.6498L1.9082 18.8464ZM1.7437 19.3476C1.7883 19.6018 1.8747 19.8475 1.99964 20.0754L1.74895 20.2019C1.61044 19.9481 1.51474 19.6751 1.46545 19.3923L1.7437 19.3476ZM1.99964 20.0754C2.12083 20.2981 2.2827 20.5141 2.48876 20.7132L2.28883 20.9048C2.07329 20.6979 1.89129 20.461 1.74895 20.2019L1.99964 20.0754ZM2.49358 20.7132C2.75739 20.9685 3.18789 21.2844 3.63633 21.4486L3.53701 21.7034C3.04701 21.5241 2.57451 21.1811 2.29364 20.9052L2.49358 20.7132ZM3.63108 21.4486C3.94301 21.5625 4.26108 21.6021 4.5262 21.4886L4.63995 21.7418C4.29739 21.8881 3.9067 21.8443 3.53176 21.7067L3.63108 21.4486ZM4.5262 21.4886L4.7992 21.3722L4.71958 21.6494L4.58308 21.6131L4.5262 21.4886ZM4.71958 21.6494L4.59489 22.0265L4.33239 21.9337L4.45051 21.5764L4.71958 21.6494ZM4.59489 22.0265L4.44308 22.3851L4.18583 22.2721L4.32845 21.9337L4.59489 22.0265ZM4.44308 22.3851C4.2042 22.8901 4.45445 23.1563 4.84251 23.3267L4.72526 23.5748C4.20026 23.344 3.85026 22.977 4.18714 22.2742L4.44308 22.3851ZM4.84251 23.3267C5.09058 23.4356 5.3907 23.5111 5.67376 23.5811L5.60289 23.8444C5.30976 23.771 4.99039 23.6917 4.72964 23.5752L4.84251 23.3267ZM5.67376 23.5811L5.87064 23.6309L5.79889 23.8942L5.60376 23.8444L5.67376 23.5811ZM5.87064 23.6309C6.20751 23.7187 6.78808 23.884 7.31089 23.9115L7.29339 24.184C6.74564 24.1502 6.14626 23.9844 5.79889 23.8942L5.87064 23.6309ZM7.31089 23.9115C7.78339 23.9401 8.20426 23.8638 8.30183 23.5149L8.57483 23.5841C8.43045 24.1017 7.89145 24.2169 7.29339 24.184L7.31089 23.9115ZM8.30183 23.5149C8.34728 23.3632 8.37876 23.2079 8.39589 23.0508L8.67851 23.0732C8.66539 23.2268 8.63214 23.3841 8.57483 23.5891L8.30183 23.5149ZM8.39589 23.0508C8.40901 22.9087 8.40333 22.7707 8.38495 22.5952L8.66495 22.5699C8.68565 22.7369 8.69048 22.9054 8.67851 23.0732L8.39589 23.0508ZM8.38495 22.5952L8.39589 22.5269L8.52495 22.5817L8.38495 22.5952ZM8.39589 22.5269C8.5862 22.1176 8.66451 22.0067 8.80276 21.8114L9.03595 21.9649C8.90776 22.1455 8.83558 22.2476 8.65445 22.6378L8.39589 22.5269ZM8.80276 21.8114L8.86401 21.7236L9.09808 21.8755L9.03508 21.9599L8.80276 21.8114ZM8.86401 21.7236C8.97208 21.5692 9.02151 21.4705 9.0377 21.3595L9.3177 21.3967C9.29495 21.5494 9.23239 21.6848 9.09895 21.8759L8.86401 21.7236ZM9.0377 21.3595C9.05433 21.2473 9.0377 21.114 9.01233 20.9094L9.29233 20.8786C9.31989 21.103 9.33826 21.2499 9.31639 21.3975L9.0377 21.3595ZM9.01233 20.9094L8.9957 20.7807L9.2757 20.747L9.2932 20.879L9.01233 20.9094ZM8.9957 20.7807L8.97558 20.6457L9.25558 20.6065L9.2757 20.7457L8.9957 20.7807ZM8.97558 20.6457L8.94801 20.4643L9.13614 20.4917L9.11514 20.6267L8.97558 20.6457ZM9.13614 20.4913C9.52776 20.5482 9.92311 20.5779 10.3191 20.5803L10.3178 20.8529C9.90816 20.8503 9.49922 20.8194 9.09414 20.7605L9.13614 20.4913ZM10.3191 20.5757C10.7115 20.5777 11.1037 20.5549 11.493 20.5074L11.5262 20.7774C11.1215 20.8259 10.7203 20.8503 10.3178 20.8478L10.3191 20.5757ZM11.493 20.5074L11.5805 20.7605L11.5096 20.6424L11.493 20.5074ZM11.5805 20.7605L10.8336 21.1456L10.7046 20.9026L11.4396 20.5238L11.5805 20.7605ZM10.8336 21.1456L10.7689 21.1777L10.6398 20.9347L10.7046 20.9026L10.8336 21.1456ZM10.7689 21.1777C10.4701 21.3254 10.4626 21.6367 10.5729 21.9624L10.3034 22.0434C10.159 21.5975 10.1787 21.1638 10.6398 20.9347L10.7689 21.1777ZM10.5729 21.9624C10.6928 22.332 10.9469 22.7209 11.1066 22.958L10.8704 23.1057C10.7024 22.8559 10.4342 22.4454 10.3038 22.0426L10.5729 21.9624ZM11.1066 22.958C11.4405 23.4541 11.7555 23.8722 12.1129 24.0861L11.9659 24.3181C11.5568 24.0764 11.2195 23.6318 10.8656 23.1061L11.1066 22.958ZM12.1129 24.0861C12.4541 24.2886 12.854 24.3068 13.3834 24.0313L13.5173 24.2717C12.8846 24.6016 12.3951 24.5721 11.9663 24.3139L12.1129 24.0861ZM13.3834 24.0313C13.6336 23.9047 13.7176 23.7592 13.8305 23.5681L14.0768 23.7022C13.9403 23.933 13.8393 24.1043 13.5173 24.2717L13.3834 24.0313ZM13.8305 23.5681L13.9968 23.3048L14.2308 23.4558L14.0768 23.7022L13.8305 23.5681ZM13.9968 23.3048L14.0458 23.2605L14.1136 23.3803L13.9968 23.3048ZM14.0458 23.2605C14.1333 23.2166 14.4811 22.9357 14.8245 22.6627L15.0048 22.8724L14.1823 23.5001L14.0458 23.2605ZM14.8245 22.6627L15.2655 22.3126L15.4431 22.5256L15.0048 22.8724L14.8245 22.6627ZM15.2655 22.3126L15.374 22.2282L15.4633 22.3315L15.3539 22.4189L15.2655 22.3126ZM15.4633 22.3315C15.5201 22.3969 15.609 22.437 15.7258 22.4653L15.6601 22.7311C15.4795 22.6889 15.3408 22.6222 15.241 22.5075L15.4633 22.3315ZM15.7258 22.4653C15.8649 22.4973 16.0478 22.5129 16.2691 22.5286L16.249 22.8011C16.0171 22.7851 15.8229 22.7686 15.6601 22.7311L15.7258 22.4653ZM16.2691 22.5286C16.4428 22.5412 16.9976 22.5404 17.3559 22.5404V22.8129C16.9897 22.8129 16.4231 22.8133 16.249 22.8011L16.2691 22.5286ZM17.3559 22.5404L17.6206 22.5408L17.6193 22.8133L17.3559 22.8129V22.5404ZM17.6206 22.5408C17.9544 22.5429 18.2191 22.5281 18.3941 22.4328L18.5332 22.6703C18.3026 22.7969 17.9973 22.8154 17.6197 22.8137L17.621 22.5412L17.6206 22.5408ZM18.3941 22.4328C18.5538 22.3455 18.6496 22.1738 18.6741 21.8523L18.9567 21.8717C18.9252 22.2936 18.7795 22.5361 18.5336 22.6707L18.3941 22.4328ZM18.6741 21.8523C18.6863 21.6835 18.6894 21.5886 18.6697 21.5042L18.9453 21.4452C18.9725 21.5646 18.9703 21.6814 18.9563 21.8671L18.6741 21.8523ZM18.6697 21.5042C18.6505 21.4199 18.605 21.3321 18.521 21.1878L18.7686 21.0545C18.8648 21.2207 18.9182 21.3258 18.9453 21.4452L18.6697 21.5042ZM18.521 21.1878L18.5035 21.1246L18.6448 21.1212L18.521 21.1878ZM18.5035 21.1246L18.4873 20.5373L18.7699 20.531L18.7861 21.1182L18.5035 21.1246ZM18.4873 20.5373L18.4711 19.9467L18.7537 19.9404L18.7699 20.531L18.4873 20.5373ZM18.4711 19.9467C18.4686 19.7637 18.4442 19.5817 18.3985 19.4041L18.6723 19.3379C18.7232 19.5351 18.7505 19.7372 18.7537 19.9404L18.4711 19.9467ZM18.3985 19.4041C18.3547 19.2354 18.2904 19.0738 18.2029 18.8726L18.4636 18.7671L18.6723 19.3379L18.3985 19.4041ZM18.2029 18.8726L18.0366 18.4579L18.3018 18.3642L18.4636 18.7671L18.2029 18.8726ZM18.0362 18.4583L17.7619 17.8255L18.0148 17.6989C18.1355 17.9288 18.2173 18.1411 18.3013 18.3596L18.0362 18.4583ZM17.7619 17.8255L17.7488 17.7411L17.8879 17.7647L17.7619 17.8255ZM17.7488 17.7411L17.7838 17.5302L18.0638 17.5639L18.0288 17.7875L17.7488 17.7411ZM17.7838 17.5302L17.8083 17.3108L18.0909 17.3332L18.0633 17.5643L17.7838 17.5302ZM17.8083 17.3108L17.8345 17.0256L18.0476 17.2239L17.9496 17.3226L17.8083 17.3108ZM18.0471 17.2235L18.4628 17.6095L18.2672 17.8065L17.8516 17.4205L18.0471 17.2235ZM18.4628 17.6095L18.769 17.8981L18.5735 18.0951L18.2672 17.8065L18.4628 17.6095ZM18.769 17.8981C18.993 18.1065 19.1978 18.2955 19.4253 18.4254L19.2818 18.6608C19.0271 18.5161 18.8106 18.3157 18.573 18.0955L18.769 17.8981ZM19.4253 18.4254C19.6616 18.5619 19.9357 18.6252 20.2106 18.6068L20.2237 18.8793C19.8938 18.9006 19.565 18.8242 19.2813 18.6604L19.4253 18.4254ZM20.2106 18.6068C20.5606 18.5912 20.9294 18.4482 21.24 18.2271L21.408 18.4465C21.0545 18.6979 20.6201 18.8612 20.2237 18.8793L20.2106 18.6068ZM21.24 18.2271C21.5362 18.0162 21.7725 17.7369 21.8683 17.4327L22.1395 17.5116C22.0249 17.8744 21.7458 18.2035 21.4089 18.4465L21.24 18.2271ZM21.8683 17.4327L21.9676 17.1176L22.2388 17.1965L22.1395 17.5116L21.8683 17.4327ZM21.9676 17.1176L22.0831 16.7506L22.3543 16.8294L22.2388 17.1965L21.9676 17.1176ZM22.0831 16.7506L22.1198 16.6337L22.2441 16.6565L22.2178 16.7902L22.0831 16.7506ZM22.245 16.6565C22.8137 16.7607 23.4411 16.7974 24.04 16.7408L24.0676 17.0108C23.4411 17.0741 22.7901 17.0362 22.1929 16.9273L22.245 16.6565ZM24.04 16.7408C24.5663 16.6877 25.0743 16.5586 25.51 16.3342L25.6426 16.5746C25.1736 16.8159 24.6298 16.9543 24.0676 17.0113L24.04 16.7408ZM25.51 16.3342C26.1488 16.0051 26.63 15.5191 26.9756 14.942L27.2206 15.077C26.8488 15.6971 26.3321 16.216 25.6426 16.5746L25.51 16.3342ZM26.9756 14.942C27.3707 14.2822 27.5881 13.5072 27.6756 12.7056L27.9556 12.7309C27.8673 13.5717 27.635 14.3889 27.2198 15.082L26.9756 14.942ZM27.6756 12.7056C27.7443 12.0517 27.7063 11.1607 27.5645 10.2988L27.8428 10.2566C27.9885 11.1405 28.0265 12.0572 27.9565 12.7318L27.6756 12.7056ZM27.5645 10.2988C27.4394 9.5386 27.2338 8.80327 26.9494 8.27888L27.2001 8.15316C27.4976 8.70329 27.7128 9.46815 27.8432 10.2562L27.5645 10.2988ZM26.9498 8.2831C26.9215 8.23441 26.8855 8.19028 26.8431 8.15232L27.0408 7.95741C27.1043 8.01597 27.1582 8.08355 27.2005 8.1578L26.9498 8.2831ZM26.8431 8.15654C26.7035 8.02864 26.5372 7.93098 26.3553 7.87008L26.4428 7.61696C26.6642 7.69127 26.8666 7.81036 27.0365 7.96627L26.8431 8.15654ZM26.3553 7.87008C26.182 7.81271 26.0079 7.79626 25.8828 7.85912L25.7524 7.61738C25.9536 7.51613 26.2065 7.53216 26.4463 7.6119L26.3553 7.87008ZM25.8828 7.85912C25.856 7.87242 25.8316 7.8898 25.8106 7.91058L25.6085 7.7199C25.6522 7.67771 25.6955 7.64396 25.7524 7.61738L25.8828 7.85912ZM25.8106 7.91058C25.6951 8.02365 25.5936 8.16666 25.4912 8.30968L25.258 8.15612C25.3674 8.00129 25.4781 7.84688 25.6085 7.7199L25.8106 7.91058ZM25.4912 8.30968C25.3573 8.49826 25.223 8.68726 25.0537 8.83069L24.87 8.62313C25.017 8.50205 25.1399 8.32866 25.2624 8.15654L25.4912 8.30968ZM25.0537 8.83069C24.8406 9.00619 24.5943 9.10154 24.3646 9.19013L24.2596 8.93701C24.4683 8.85263 24.6967 8.76952 24.87 8.62313L25.0537 8.83069ZM24.3646 9.19013L24.2605 9.23063L24.1533 8.97835L24.2596 8.93701L24.3646 9.19013ZM24.2605 9.23063L24.1293 9.28421L24.0781 9.15132L24.2106 9.10913L24.2605 9.23063ZM24.0746 9.15132C23.9871 8.92395 23.8753 8.70594 23.7412 8.50079L23.981 8.35608C24.1254 8.57735 24.2456 8.81247 24.3397 9.05766L24.0746 9.15132ZM23.7412 8.50079C23.6076 8.29843 23.4595 8.10531 23.298 7.92282L23.5146 7.74816C23.6845 7.94012 23.8403 8.14325 23.981 8.35608L23.7412 8.50079ZM23.298 7.92282C23.1855 7.7924 23.0578 7.67491 22.9174 7.57266L23.0924 7.35624C23.2411 7.46508 23.3776 7.58658 23.5185 7.74858L23.298 7.92282ZM22.9174 7.57266C22.7853 7.47563 22.6356 7.38493 22.4606 7.27904L22.6107 7.04785L23.0885 7.35582L22.9174 7.57266ZM22.4606 7.27904C21.9676 6.98119 21.555 6.63188 21.1328 6.27498L21.3183 6.06952C21.7309 6.41883 22.1356 6.7614 22.6107 7.04827L22.4606 7.27904ZM21.1328 6.27498L20.5759 5.81429L20.7561 5.60335L21.3183 6.06952L21.1328 6.27498ZM20.5759 5.81429C19.6423 5.07179 18.7821 4.71193 17.8634 4.65624L17.8809 4.38371C18.8609 4.44277 19.7779 4.82246 20.7605 5.60715L20.5759 5.81429ZM17.863 4.65666C16.9376 4.60055 15.9485 4.85073 14.7742 5.33166L14.6648 5.08023C15.8785 4.58748 16.907 4.32929 17.8805 4.38835L17.863 4.65666ZM14.7742 5.33166C14.2208 5.5561 13.8117 5.82019 13.456 6.13323L13.2648 5.93283C13.6437 5.59533 14.0786 5.31394 14.6648 5.07643L14.7742 5.33166ZM13.456 6.13323C13.0981 6.45258 12.7901 6.82932 12.4498 7.27482L12.2231 7.11198C12.5766 6.65635 12.8934 6.26823 13.2731 5.93283L13.456 6.13323ZM12.4498 7.27482L12.406 7.32629L12.3404 7.32966L12.3334 7.1934L12.4498 7.27482ZM12.3439 7.32966C12.147 7.33937 11.9825 7.36257 11.8189 7.42543L11.7139 7.1723C11.9121 7.09637 12.1076 7.06852 12.3295 7.05713L12.3439 7.32966ZM11.8189 7.42543C11.6526 7.48955 11.4811 7.59671 11.272 7.77558L11.0852 7.57098C11.3215 7.36974 11.5227 7.2474 11.7143 7.17188L11.8189 7.42543ZM11.272 7.77558L10.8056 8.1924L10.6088 7.99622L11.0926 7.56507L11.272 7.77558ZM10.8056 8.1924L10.7072 8.09368L10.8056 8.19155V8.1924ZM10.8052 8.19282L10.3555 8.62946L10.1511 8.44088L10.6105 7.9958L10.8052 8.19282ZM10.3555 8.62946L10.2754 8.66954L10.2535 8.53538L10.3555 8.62946ZM10.2754 8.66954C9.17026 8.83955 8.2747 9.0256 7.47451 9.32471L7.37301 9.0699C8.19114 8.76446 9.10464 8.57419 10.2312 8.4008L10.2754 8.66954ZM7.47451 9.32471C6.68133 9.62087 5.98133 10.0292 5.26164 10.6452L5.07483 10.4364C5.82164 9.79805 6.54833 9.37407 7.37301 9.0661L7.47451 9.32471ZM5.24983 10.6389C4.96973 10.8774 4.71434 11.1416 4.48726 11.4278L4.26283 11.259C4.50107 10.9586 4.76906 10.6812 5.06301 10.4309L5.24983 10.6389ZM4.48726 11.4278C4.26764 11.7049 4.07908 11.9986 3.91326 12.3137L3.66126 12.1901C3.83374 11.8646 4.03501 11.5541 4.26283 11.262L4.48726 11.4278ZM3.91326 12.3137L3.89226 12.3432L3.78726 12.2521L3.91326 12.3137ZM3.89226 12.3432L3.3992 12.8377L3.2102 12.6343C3.37645 12.49 3.52958 12.3247 3.6827 12.1618L3.89226 12.3432ZM3.3992 12.8377C3.21895 12.9938 3.02295 13.1275 2.7972 13.2114L2.6957 12.9566C2.88383 12.8866 3.0527 12.771 3.21064 12.6339L3.3992 12.8377ZM2.7972 13.2114H2.79983L2.74951 13.084L2.7972 13.2114ZM2.7972 13.2114C2.61564 13.2789 2.52683 13.3127 2.4262 13.2713L2.53558 13.0199C2.53995 13.0216 2.58545 12.9976 2.6957 12.9566L2.7972 13.2114ZM2.42576 13.2709C2.31989 13.2275 2.29451 13.1435 2.22451 12.9748L2.48964 12.8799C2.52683 12.9756 2.52595 13.0165 2.53601 13.0203L2.42576 13.2709ZM2.22451 12.9748L2.18733 12.8799L2.2722 12.8183L2.35664 12.9279L2.22451 12.9748ZM2.26826 12.8187C2.52814 12.6305 2.55264 12.2555 2.57626 11.8906L2.85889 11.9074C2.83133 12.3293 2.80201 12.7681 2.43714 13.033L2.26826 12.8187ZM2.57626 11.8906L2.58501 11.7606L2.86764 11.78L2.85889 11.9074L2.57626 11.8906ZM2.58501 11.7606L2.59508 11.6277L2.73289 11.6341L2.72633 11.7703L2.58501 11.7606ZM2.73289 11.6341C2.96608 11.6446 3.07239 11.8028 3.18701 11.9745L2.94945 12.1222C2.87639 12.0125 2.80814 11.9112 2.71976 11.9112L2.73289 11.6341ZM3.18701 11.9745L3.28676 12.1137L3.06583 12.2825C3.02433 12.2305 2.98549 12.1766 2.94945 12.1209L3.18701 11.9745ZM3.31826 12.2276L3.25351 12.5061L3.06976 12.2825L3.18001 12.1981L3.31826 12.2276ZM3.04264 12.1686C3.08639 11.9627 3.12708 11.6927 3.07545 11.4716L3.35108 11.4126C3.41408 11.6826 3.37383 11.9939 3.31958 12.2276L3.04264 12.1686ZM3.07545 11.4716C3.04264 11.3311 2.9722 11.2101 2.84139 11.1451L2.97045 10.9021C3.18658 11.0101 3.30033 11.1974 3.3502 11.4083L3.07545 11.4716ZM2.84139 11.1451L2.72939 11.0894L2.77314 10.9763L2.9057 11.0236L2.84139 11.1451ZM2.77314 10.9763L2.86108 10.7709L3.12358 10.87L3.04351 11.0713L2.77314 10.9763ZM2.86108 10.7709L2.99058 10.4397L3.25308 10.5292L3.1192 10.87L2.86108 10.7709ZM3.10039 10.3503L3.33751 10.3106L3.25789 10.5292L3.12401 10.4844L3.10039 10.3503ZM3.14414 10.6186C2.87026 10.6608 2.26739 10.9907 1.82989 11.4286L1.62558 11.24C2.10683 10.762 2.78145 10.4026 3.09689 10.3541L3.14414 10.6186ZM1.82989 11.4286C1.67108 11.5872 1.53676 11.7589 1.45189 11.9336L1.19551 11.8197C1.29614 11.6138 1.44795 11.4176 1.62558 11.24L1.82989 11.4286ZM1.45233 11.934C1.37139 12.1006 1.3342 12.2715 1.36395 12.4369L1.0857 12.4791C1.04545 12.2546 1.09183 12.0306 1.19595 11.8167L1.45233 11.934ZM1.36395 12.4369C1.39108 12.5875 1.47464 12.7385 1.63258 12.8853L1.43701 13.0823C1.23226 12.8925 1.12289 12.69 1.0857 12.4833L1.36395 12.4369ZM1.63258 12.8853L1.67633 12.9511L1.53939 12.9836L1.63258 12.8853ZM1.67633 12.9511L1.77958 13.3182L1.51008 13.3992L1.40245 13.0195L1.67633 12.9511ZM1.77958 13.3182C1.81089 13.4165 1.84964 13.5126 1.89551 13.6055L1.64045 13.7228C1.58887 13.6181 1.54529 13.51 1.51008 13.3992L1.77958 13.3182ZM1.89551 13.6055C1.99701 13.8092 2.15801 13.9333 2.34351 13.9906L2.25733 14.2505C2.00095 14.1712 1.77914 14.0008 1.64483 13.7223L1.89551 13.6055ZM2.34351 13.9906C2.55964 14.0581 2.81164 14.0328 3.04658 13.9485L3.14939 14.2016C2.85539 14.3121 2.53689 14.3366 2.25689 14.2501L2.34351 13.9906ZM3.04658 13.9485L3.29158 13.8556L3.23558 14.1033L3.09733 14.0746L3.04658 13.9485ZM3.23601 14.1046C3.16951 14.399 3.12926 14.7078 3.1157 15.0567L2.83308 15.047C2.84419 14.7106 2.88665 14.3758 2.95995 14.0468L3.23601 14.1046ZM3.10608 15.0601C3.09295 15.409 3.10651 15.8005 3.1472 16.2603L2.86458 16.2827C2.82301 15.8165 2.80945 15.4149 2.82345 15.0508L3.10608 15.0601ZM3.1472 16.2603L3.18439 16.5839L2.90439 16.6202L2.8637 16.2827L3.1472 16.2603ZM3.18439 16.5839L3.24214 16.9214L2.96476 16.972L2.90483 16.6244L3.18439 16.5839ZM3.24214 16.9214L3.23601 16.994L3.10345 16.9518" fill="black"/>
<path fill-rule="evenodd" clip-rule="evenodd" d="M10.3189 8.74631L8.45733 9.04162L6.75852 9.75965L5.31564 10.6346L3.94277 12.2504L3.16708 13.0427L2.4172 13.3093L2.21902 12.8419L2.56595 12.3592L2.64383 11.6783L2.8757 11.6868L3.12945 11.9104L3.0612 11.2168L2.77989 11.0354L2.78864 10.7713L2.12233 11.135L1.51858 11.8218L1.39258 12.4356L1.65508 12.9271L1.8957 13.7624L2.3857 13.986L2.90064 13.9615L3.38889 13.6873L3.06252 15.2761L3.38845 17.0488L3.0297 17.8672L1.85502 19.0873L2.0637 19.8163L2.62502 20.6613L3.67414 21.3734L4.23064 21.4469L4.84927 21.4671L4.46339 22.9951L5.88264 23.5562L7.65102 23.7807L8.25608 23.3993L8.30245 22.367L8.97752 21.2899L9.02389 20.4377L10.6527 20.55L12.1651 20.4149L10.6527 21.2899L10.9086 22.3446L11.8624 23.7807L12.7934 24.162L13.538 23.8667L13.8443 23.2833L15.4035 22.1387L15.7098 22.3855L18.1532 22.4754L18.6419 22.094L18.6883 21.4207L18.5255 21.1254L18.4091 19.308L17.5945 17.7373L17.7345 17.0412L18.2232 17.288L19.5961 18.522L20.2707 18.5667L21.0153 18.2714L21.76 17.7331L22.1318 16.5662L24.3193 16.7012L25.6458 16.2076L26.7164 15.2428L27.4842 13.8514L27.6706 12.2133L27.5078 10.3064L27.0891 8.60118L26.6705 8.06245L26.0886 7.88273L25.0648 8.95978L24.1343 9.27408L23.3196 7.97259L22.505 7.25456L22.0675 6.9854L20.2991 5.57212L18.8799 4.83173L17.4606 4.71951L15.8086 4.98867L14.3658 5.50462L13.3652 6.29015L12.5742 7.20984L11.7596 7.43428L10.3189 8.74631Z" fill="#FEEB50" stroke="#1F1917" stroke-width="0.095" stroke-miterlimit="10"/>
<path fill-rule="evenodd" clip-rule="evenodd" d="M4.91946 12.7972C3.32477 14.5906 3.67477 16.7657 4.12102 18.8971L3.41358 17.1737L3.15283 15.5934L3.22721 13.9776L3.89746 12.4335L4.90371 10.997L6.46777 9.73984L8.18102 9.05683L10.1922 8.80539L8.33021 10.8523C6.83527 11.3198 5.95327 11.6349 4.92033 12.793" fill="#FDF7BA"/>
<path fill-rule="evenodd" clip-rule="evenodd" d="M12.4255 7.33263C11.3168 8.3755 10.7113 9.1623 10.0061 10.3828L8.40485 12.9588C8.13666 13.3945 8.11172 13.7603 8.03079 14.2632L7.24854 13.3654L7.62041 12.288L8.88653 10.0972L11.5684 7.54736L12.425 7.33642M17.9003 4.75033C17.0122 5.07096 15.5378 5.17727 15.4355 6.15939C15.3624 6.85717 15.4902 7.20775 15.9263 7.94603C14.8488 6.8711 14.5823 7.03731 12.5007 7.37144L13.3945 6.15053L14.9586 5.21692L16.9698 4.78577L17.9008 4.74991" fill="#FDF7BA"/>
<path fill-rule="evenodd" clip-rule="evenodd" d="M20.3502 18.0386C20.646 18.2145 20.639 18.3423 20.59 18.4625L21.29 18.1925L21.7432 17.6019L22.0801 16.7658L21.6505 16.4536L19.7718 16.6848L19.6318 17.0509L19.6756 17.5711L19.8506 17.8791L20.1306 18.0141L20.3507 18.0335M20.1757 14.9369C19.2342 15.1985 19.2412 15.2711 18.9638 16.1722C19.3313 15.6043 19.6025 15.3175 20.1757 14.9369ZM26.438 8.20043C26.2705 8.27511 26.1077 8.31097 26.0032 8.45862C25.7778 8.77629 25.5849 9.04376 25.2122 9.26693C25.024 9.37915 24.8307 9.45256 24.6316 9.51162C24.4667 9.56098 24.3673 9.51711 24.2269 9.61414L24.4763 9.65632H25.0275L25.707 9.25132L26.1068 8.84632L26.4376 8.19959M11.4375 10.2149C11.0669 11.1924 10.7432 12.0302 10.1818 12.9149C10.8296 12.262 11.3593 11.5091 11.749 10.6874C11.9091 10.3592 11.9393 9.9702 12.3847 10.1179C12.4048 10.4457 12.4722 10.773 12.4967 11.1008C12.7373 9.43653 13.4163 8.74043 14.9904 8.09454L13.6517 8.24853L12.3925 8.51853L11.7687 9.38168L11.4287 10.2102M14.4912 10.1765C14.8316 11.7214 15.3216 13.2039 15.5347 14.7732C15.6729 15.7929 15.6878 16.2827 15.1558 17.1627C14.5739 17.1265 14.2134 17.1897 13.6508 17.3674C11.4117 18.0753 10.1276 19.116 8.61865 17.0189L10.0637 17.6753L11.0936 17.48L12.9123 16.4591L14.3311 16.1891L14.7905 14.3391L14.4505 11.8914L14.4068 10.7355L14.4868 10.1765M18.3425 19.7349C18.1544 20.99 18.78 21.6646 18.5184 22.0114C18.4453 22.1097 18.3469 22.2805 18.2367 22.3278C17.8429 22.4952 17.3022 22.2965 17.2632 22.3944H15.9687L15.4489 22.1822L16.2482 21.2764L17.0278 19.6383L17.5275 17.9812H17.7873L18.3473 19.7349" fill="#EDD749"/>
<path fill-rule="evenodd" clip-rule="evenodd" d="M16.1683 16.0865C16.2733 16.6561 16.4571 16.7919 16.7349 17.3437C16.5498 18.2436 16.2528 19.3139 15.8949 20.1079C15.744 20.4428 15.6223 20.6268 15.3568 20.8862C14.9079 21.3233 14.4538 21.7046 13.9445 22.0835C13.5779 22.356 13.322 22.2193 12.87 22.1577C12.6775 22.494 12.625 22.6809 12.2706 22.8513C11.7264 23.1137 11.239 22.5476 10.8116 22.2155L11.7369 23.6094L12.3765 24.1874L12.916 24.2646L13.6352 23.8406L14.015 23.147L14.8143 22.5691L15.7934 21.7591L16.4129 20.9153L16.9729 19.9134L17.6926 17.8323L17.7525 17.0421L16.853 16.6565L16.1683 16.0912M8.99946 20.1007C10.0083 20.1007 11.0732 20.0467 11.9972 19.6383C12.2588 19.2599 12.5165 18.9506 12.8372 18.6174C12.5463 19.1477 12.4548 19.4472 12.3778 20.0433L12.0781 20.4673L9.80008 20.5251L9.05633 20.4479L8.97627 20.3707L8.99639 20.1007M8.85946 19.4223L8.78071 18.738C8.60833 19.7379 8.64946 20.4086 8.16821 21.3047C7.81164 21.703 7.37196 22.0658 6.86971 22.2598C6.91214 22.5054 6.92483 22.6589 6.90033 22.8391C6.81196 23.4871 5.46752 23.2006 4.91496 23.1749L7.57583 23.8355L8.17521 23.6044L8.37514 22.4864L8.93514 21.4844L9.03489 20.8676L8.85946 19.4223ZM7.36495 13.7797C7.33696 14.2661 7.30458 14.4686 7.52683 14.8985C7.80946 15.4444 8.15683 15.9532 8.46396 16.5017L8.5637 15.4225L7.36495 13.7844M3.25814 17.4538L2.99871 17.9867C3.23671 18.76 3.44846 19.2502 3.90171 19.9256C3.82296 20.1998 3.76346 20.3192 3.58233 20.5424C3.18333 20.4833 2.82896 20.4664 2.42471 20.4673L3.76346 21.4692L4.42277 21.3536L5.08208 20.7179L4.14277 19.3109L3.25814 17.4538ZM26.4395 7.9473C26.7108 9.12687 27.0621 10.2149 27.0293 11.4227C26.9855 12.9043 26.6898 14.7766 25.2661 15.6701C23.6715 16.6708 21.7998 16.1975 20.0503 15.7689L22.1888 16.6126L24.1873 16.7088L25.5461 16.3232L26.6049 15.4795L27.4042 13.8607L27.7039 11.9918L27.4641 10.1609L27.0245 8.34935L26.4382 7.94773M2.64477 11.4573C1.92508 11.9129 1.63633 12.1112 1.71596 12.9537L1.93252 13.7101L2.23877 13.9101L2.61764 14.0316L3.30321 13.8755L3.65496 12.8233L2.68108 13.2844H2.45577L2.20333 12.9107L2.50958 12.4761L2.67146 11.6501L2.87883 11.7109L3.13127 11.9024L3.09496 11.4679L2.92346 11.1894L2.75196 11.0502L2.64389 11.4594M18.8848 4.82458C19.527 5.40002 20.3154 5.90037 20.8295 6.60279C21.0285 6.8749 21.2495 7.01412 20.826 7.39844C21.2731 7.27526 21.4393 7.28876 21.7972 7.33094C22.4482 7.40688 23.0585 8.29957 23.0975 8.93913C23.0896 8.99904 22.9168 9.13488 22.4132 9.26819C22.4031 9.28676 22.1288 9.23191 22.1358 9.25005C22.1883 9.38801 22.2583 9.4091 22.3646 9.47365C22.3878 9.62721 22.4027 9.86388 22.5112 10.0318C22.8256 10.0283 23.1395 10.0576 23.4475 10.1191C23.5525 10.2862 23.5363 10.4532 23.5275 10.6203L23.8871 10.5625L23.7874 9.77233L24.1068 9.25216L23.6474 8.25021L22.7724 7.44021L22.6875 7.43599L21.6988 6.85085L20.0857 5.57848L18.8883 4.82458M19.9667 9.57152C19.933 9.62848 19.8818 9.72002 19.8162 9.7833C20.084 10.028 20.2156 10.1908 20.3106 10.5359L19.4032 10.9705L18.6354 11.6805C18.2985 11.5054 18.2145 11.3712 18.0513 11.038C17.8615 11.0865 17.6816 11.1329 17.525 11.0776C17.6243 11.0785 17.6856 11.0544 17.7849 10.9949L18.2736 10.5056L19.1368 9.87527L19.7055 9.69808C19.7773 9.6694 19.898 9.60105 19.9702 9.57152" fill="#EDD749"/>
<path fill-rule="evenodd" clip-rule="evenodd" d="M20.803 10.4423C19.8405 10.9426 18.9191 11.4489 18.4273 12.3939C18.4273 11.1894 19.6817 10.6591 20.8038 10.4427M18.2348 8.0726C17.5204 8.54257 17.0151 9.4901 17.0785 10.4149C16.8458 9.61455 16.928 8.85391 17.6473 8.30548L18.0091 8.13588L18.2392 8.0726" fill="#EDD749"/>
<path fill-rule="evenodd" clip-rule="evenodd" d="M19.5999 15.2056L20.1634 14.9441L19.5872 15.0474C19.1812 15.1137 19.1335 15.2078 19.071 15.5929L18.9704 16.181L19.2385 15.5415C19.3365 15.3305 19.3917 15.3149 19.5999 15.2056ZM12.0749 5.28315C12.3943 4.82204 12.578 4.67143 13.068 4.37949C12.4017 4.53432 12.2744 4.65371 12.0749 5.28315ZM11.9699 6.29565C12.5282 5.21396 12.9508 4.81909 14.1189 4.28415C12.7977 4.59634 12.4127 4.81866 11.9699 6.29565ZM0.0139192 11.9298C0.136419 11.3881 0.250169 11.1831 0.597107 10.7388C0.0349192 11.1177 -0.0381433 11.2734 0.0139192 11.9298ZM12.5234 20.9967L12.4726 20.6023C12.442 20.3639 12.4433 20.1707 12.463 19.9306L12.5199 19.2346C12.4499 19.4708 12.3099 19.7062 12.2399 19.942L12.1755 20.1834C11.1255 20.3892 10.0917 20.4027 9.04567 20.2222L8.82954 19.1801C8.80898 19.4923 8.82211 20.3563 8.82079 20.8398C8.81948 21.2144 8.80329 21.3427 8.60292 21.6616C8.41479 21.9599 8.34042 22.0278 8.07792 22.5319C8.09979 22.85 8.09979 23.0605 8.01229 23.3622C7.86661 23.8684 6.39617 23.4752 6.00854 23.3727C5.53079 23.2462 4.54292 23.0593 4.79142 22.4446C5.01017 21.9046 5.14842 21.3342 5.25517 20.5782C4.38017 19.3624 3.56642 17.6968 3.40979 16.2203C3.28861 15.074 3.36604 14.364 3.61848 13.6679C4.02623 12.5571 4.59629 11.5957 5.51111 10.8211C6.74486 9.77696 7.89898 9.3572 9.70498 9.09226C9.27054 9.55632 8.84092 10.0571 8.37236 10.5886C7.89811 11.127 7.61636 11.6703 7.31536 12.2593C6.89973 13.0722 6.90848 13.3815 7.45973 14.0957C7.93486 14.7108 8.19123 14.988 8.39904 15.5891C8.22754 15.9296 8.16542 16.2219 8.10767 16.6826C8.68954 17.2956 9.12179 17.7162 9.68267 17.8457C10.2365 17.9723 10.6994 17.9483 11.1951 17.704C12.2963 17.161 13.3148 16.4603 14.5569 16.4312C15.1313 15.0685 15.0731 13.9307 14.7975 12.6132C14.6094 11.7134 14.5337 10.8612 14.475 9.94276C14.2423 10.8878 14.1985 11.7146 14.3714 12.6596C14.5796 13.7987 14.7415 15.0474 14.1622 16.0443C13.0392 16.1274 12.0767 16.786 11.0647 17.2914C10.6579 17.4947 10.2344 17.515 9.78417 17.3952C9.36636 17.2846 9.08417 17.018 8.63354 16.5168C8.62654 16.014 8.74423 15.7819 8.98354 15.3271C9.36854 14.596 9.79292 13.9151 10.2589 13.1954C9.68836 13.8594 9.14761 14.4189 8.69829 15.0825C8.52679 14.6108 8.28136 14.3712 7.87448 13.8405C7.47723 13.3216 7.43567 13.0946 7.73273 12.4905C8.02979 11.8863 8.28398 11.3569 8.79279 10.8283C9.67086 9.91365 10.4754 8.89609 11.4353 7.99538C11.9568 7.50601 12.1685 7.52288 12.8602 7.42163C13.4859 7.33009 14.0957 7.2107 14.7327 7.07148C14.1202 7.12632 13.52 7.14741 12.9197 7.16176L12.9009 7.16218C13.4915 6.43487 13.8341 6.02945 14.7935 5.62782C17.1552 4.63895 18.6558 4.53179 20.5108 6.03535C20.992 6.42516 21.412 6.80316 21.899 7.13982C21.7166 7.15353 21.5376 7.19452 21.3683 7.26132C21.6133 7.21618 21.8968 7.2609 22.1558 7.30562C22.2282 7.35085 22.3015 7.39459 22.3759 7.43682C22.7197 7.63215 22.9153 7.74057 23.148 8.05276C23.3939 8.38309 23.5987 8.71341 23.7798 9.07791L23.4735 8.97666C23.3749 8.93278 23.2665 8.91321 23.1581 8.91968C23.0496 8.92616 22.9446 8.9585 22.8523 9.01379L22.8379 9.02012C22.6475 9.10956 22.3566 9.21123 22.1554 9.24245C22.256 9.2762 22.4791 9.28463 22.5841 9.24835C22.5981 9.24301 22.6124 9.23864 22.627 9.23527C22.5701 9.32776 22.5386 9.43269 22.5355 9.54016C22.5324 9.64763 22.5577 9.7541 22.609 9.84952L22.6095 9.85079C22.627 9.89129 22.6519 9.92841 22.6795 9.95541C22.586 9.98909 22.4935 10.0252 22.4021 10.0638C22.8422 9.99929 23.239 9.9879 23.6687 10.0427L23.7562 10.452L23.5965 10.4638L23.5834 10.465C23.3804 10.3089 23.1537 10.3385 22.8396 10.4026C21.899 10.6135 22.1199 11.1185 21.6872 11.8855C22.1365 11.3556 22.1029 10.8013 22.8357 10.6346C23.0107 10.5958 23.1227 10.5469 23.2382 10.5638C23.0304 10.665 22.8505 10.8316 22.7788 11.0257C22.5775 11.5729 22.7027 12.0382 22.4813 12.5453C22.7547 12.0884 22.7714 11.6425 23.0159 11.1616C23.1034 10.9928 23.4298 10.7123 23.6297 10.708L23.7942 10.7047C23.838 11.0084 23.8717 11.3109 23.8529 11.5611C23.8187 12.0184 23.6954 12.6968 23.6219 12.9562C23.8695 12.6491 23.9824 11.9986 24.0913 11.5408C24.205 11.0641 24.1762 10.492 24.0769 9.97988C23.9456 9.27704 24.6911 9.39137 25.1269 9.0602C25.4471 8.81677 25.6676 8.42738 25.9612 8.15232C26.2525 7.87937 26.711 8.28057 26.8257 8.54762C27.3227 9.70651 27.5489 11.5303 27.4176 12.6989C27.2702 14.0101 26.6135 15.4411 25.4139 16.0865C23.8852 16.9092 22.0827 16.4071 20.5642 15.9178C20.2404 15.8123 20.0147 15.6592 19.7299 15.4858C19.8073 15.8224 19.8427 16.1793 19.7395 16.5151C19.5754 17.0488 19.3107 17.9221 20.0632 18.0833C20.3494 18.1444 20.4789 18.1356 20.8827 17.9348C20.6486 17.9949 20.4029 17.9997 20.1665 17.9487C19.963 17.9124 19.855 17.7884 19.7981 17.6407C19.8694 17.6901 19.9854 17.7167 20.1831 17.7673C20.7405 17.8968 21.2712 17.6382 21.3749 17.261C21.4352 17.0433 21.4252 16.929 21.5534 16.6282C21.6684 16.662 21.7879 16.6936 21.9099 16.7223L21.703 17.3732C21.528 17.9364 20.8262 18.3908 20.2102 18.3803C19.6406 18.3706 19.2797 18.0267 18.8868 17.6892L18.0971 17.0142C17.3985 16.8177 16.7429 16.5 16.1625 16.0768C16.6306 16.6071 16.9482 16.9012 17.601 17.1653C17.506 18.0993 17.1696 18.7802 16.8826 19.6737C16.7527 20.0779 15.7276 21.697 15.4389 21.8548C15.2363 21.9675 13.9671 22.9939 13.7326 23.1339C13.555 23.3618 13.3988 23.6761 13.1315 23.8123C12.3169 24.2274 11.7936 23.4326 11.3552 22.7606C11.1557 22.4547 10.6014 21.5734 11.084 21.3262C11.5407 21.0929 11.7971 20.9263 12.2626 20.6314C12.3309 20.7516 12.4485 20.8676 12.5251 20.9879L12.5234 20.9967ZM15.3549 22.4206C14.9423 22.7412 14.2489 23.3065 14.1145 23.3816C13.8709 23.7317 13.8407 23.949 13.4504 24.1528C12.2884 24.759 11.672 24.0557 10.9842 23.034C10.6561 22.5471 9.93992 21.4308 10.6999 21.0583C11.0201 20.8997 11.2629 20.7799 11.5049 20.6449C10.7073 20.7402 9.92417 20.7419 9.11042 20.6238L9.14761 20.8913C9.20011 21.3203 9.21761 21.4515 8.97611 21.797C8.79979 22.0489 8.73198 22.1219 8.51936 22.58C8.56326 22.9061 8.53357 23.2376 8.43229 23.5516C8.19036 24.4177 6.51254 23.9431 5.82917 23.7647C5.00667 23.5503 3.83154 23.3504 4.31367 22.3303C4.42654 22.0915 4.51492 21.8468 4.58229 21.6139C3.86304 21.9211 2.86379 21.2697 2.38736 20.8094C1.93454 20.3715 1.68867 19.8632 1.60292 19.37C1.52986 18.9502 1.59679 18.9481 1.90742 18.6553L2.76054 17.8411L3.10486 16.9383C3.06023 16.7134 3.02698 16.489 3.00729 16.2633C2.91979 15.3373 2.95261 14.6779 3.08954 14.0712C2.58904 14.2594 2.01504 14.1712 1.75954 13.6591C1.66242 13.4641 1.60467 13.2659 1.53117 12.9781C0.414669 11.9403 2.50679 10.5819 3.11711 10.479C3.04711 10.6701 2.97098 10.8451 2.90361 11.019C3.31748 11.2299 3.26673 11.8142 3.17923 12.1935C3.03048 12.0121 2.94823 11.7716 2.72861 11.7653C2.69667 12.1939 2.70236 12.6681 2.35498 12.9191C2.45779 13.184 2.45254 13.184 2.74873 13.076C3.16348 12.922 3.47586 12.5791 3.78998 12.2441C4.12817 11.6083 4.56217 11.043 5.15936 10.533C6.62586 9.27915 8.01186 8.86909 10.244 8.5261C10.5424 8.22436 10.8539 7.93484 11.1776 7.65831C11.6239 7.27862 11.9139 7.19973 12.3361 7.17821C13.0348 6.27709 13.5847 5.64934 14.7235 5.18696C17.1114 4.21791 18.7573 4.17109 20.6735 5.6949C21.307 6.1982 21.8469 6.72849 22.543 7.14952C22.8952 7.36215 23.1467 7.51529 23.418 7.82199C23.754 8.20801 24.0283 8.59402 24.2186 9.09057C24.4654 8.9927 24.7467 8.90073 24.9737 8.71342C25.2669 8.47168 25.4537 8.06795 25.7254 7.80217C26.0859 7.4499 26.9084 7.87515 27.0904 8.21138C27.7099 9.35045 27.9632 11.4611 27.8315 12.7136C27.6687 14.2619 27.0068 15.7258 25.5915 16.4544C24.629 16.9493 23.3384 16.9952 22.2332 16.794L22.0145 17.4758C21.7957 18.1567 20.961 18.7131 20.2282 18.7464C19.5247 18.7785 19.1432 18.4284 18.682 17.9997L17.9558 17.3247C17.9422 17.4729 17.9219 17.6204 17.895 17.7669C18.0857 18.1297 18.1772 18.4486 18.3404 18.8228C18.5154 19.2346 18.6029 19.505 18.6195 19.9458L18.6519 21.1199C18.833 21.43 18.8487 21.5055 18.8269 21.8603C18.7713 22.6083 18.3439 22.6796 17.6325 22.6754C17.3954 22.6737 16.495 22.6796 16.2762 22.6636C15.8225 22.6319 15.5237 22.5986 15.3671 22.418L15.3549 22.4206ZM17.7554 18.3402C17.6124 18.8338 17.4199 19.2991 17.2435 19.8328C17.0773 20.3378 16.2242 21.805 15.7224 22.1603C15.8199 22.2303 15.9993 22.2573 16.3191 22.2843C16.5453 22.3033 17.4365 22.3071 17.66 22.3109C18.1527 22.3193 18.3395 22.2834 18.3894 21.7426C18.4139 21.4777 18.3924 21.4283 18.255 21.1963L18.2187 19.9539C18.2074 19.5615 18.129 19.3354 17.9694 18.9692C17.8731 18.7498 17.8215 18.5461 17.7559 18.3398L17.7554 18.3402ZM2.74917 11.5649C2.85986 11.5522 2.92417 11.6087 3.01386 11.6914C2.99811 11.4944 2.96048 11.3484 2.81698 11.2679C2.80678 11.3 2.7973 11.3324 2.78854 11.3649C2.77114 11.4312 2.75655 11.4982 2.74479 11.5657L2.74917 11.5649ZM3.44392 12.9879C3.36299 13.1905 3.28858 13.3955 3.22079 13.6025L3.18754 13.708C2.76667 13.8801 2.21367 13.9894 2.00629 13.5629C1.90348 13.3519 1.84529 13.1528 1.77004 12.8912C1.07704 12.1994 2.11304 11.2856 2.67698 10.9578C2.59517 11.1265 2.53698 11.2552 2.50198 11.3868C2.33048 11.9585 2.57942 12.4685 2.04173 12.8828C2.29461 13.3747 2.28236 13.5705 2.87123 13.3435C3.09873 13.2557 3.28511 13.1326 3.45223 12.9874L3.44392 12.9879ZM3.28204 17.6454C3.60142 18.7085 4.14392 19.7535 4.74592 20.6322V20.6474C4.70829 20.7984 4.66454 20.9457 4.57311 21.0638C4.14261 21.619 3.04842 20.8039 2.73561 20.4922C2.38911 20.1513 2.15723 19.7471 2.10211 19.3687C2.06186 19.0924 2.10079 19.0861 2.30073 18.8903L3.10923 18.1014L3.28642 17.6458L3.28204 17.6454ZM23.659 9.10998C23.7208 9.16874 23.7701 9.23852 23.8043 9.31543C23.8229 9.2986 23.8428 9.28309 23.8638 9.26902L23.7868 9.10702L23.6555 9.1104L23.659 9.10998ZM18.388 11.027C18.332 10.9131 18.3005 10.7937 18.304 10.6756C18.0975 10.8346 17.8731 10.9856 17.6399 11.0721C17.9615 10.7949 18.3985 10.1419 18.7153 9.93559C19.074 9.70145 19.5623 9.74701 19.9814 9.5559C19.8384 9.6812 19.655 9.78202 19.4682 9.87821C19.6739 9.95077 19.8515 10.0976 19.953 10.3026C19.9946 10.3867 20.0212 10.477 20.0317 10.5697C20.313 10.4853 20.5895 10.4431 20.8192 10.4414C19.988 10.6675 19.0955 11.2008 18.483 11.896C18.5501 11.7185 18.6448 11.5518 18.7639 11.4016C18.5979 11.3182 18.4646 11.1849 18.3841 11.0219L18.388 11.027ZM14.5153 8.11393C14.0811 8.27879 13.6365 8.41661 13.184 8.52652C12.7736 9.04627 12.5277 9.31543 12.4297 10.0124C12.3186 9.32682 12.2954 9.19984 12.6122 8.68768C12.5247 8.7324 12.4354 8.79441 12.3129 8.89524C11.8754 9.25974 11.2949 10.6924 11.0643 11.2037C11.2104 10.5878 11.668 9.04712 12.1388 8.59782C12.4485 8.30251 12.5194 8.30926 12.9556 8.2696L14.5153 8.11393ZM24.1403 9.60821C24.5144 9.64196 24.7283 9.69807 25.059 9.53818C25.6834 9.24034 26.1427 8.75349 26.4407 8.17215C26.2582 8.86613 25.8916 9.45591 25.1308 9.71748C24.7572 9.84573 24.5161 9.71326 24.1359 9.60779L24.1403 9.60821ZM16.9653 9.67571C17.1062 9.0737 17.3564 8.49446 18.3215 8.04516C17.0366 8.35524 16.796 8.87626 16.9653 9.67571ZM0.306169 12.9128C0.416419 11.7091 0.659232 11.1894 1.54604 10.2836C0.428669 11.0396 0.151294 11.3835 0.306169 12.9128Z" fill="black"/>
<path fill-rule="evenodd" clip-rule="evenodd" d="M18.5501 11.2177C18.5094 11.1342 18.5046 11.0387 18.5365 10.9518C18.5684 10.865 18.6346 10.7937 18.7207 10.7536C18.8073 10.714 18.9067 10.7091 18.9971 10.7399C19.0875 10.7708 19.1616 10.8348 19.2032 10.9181C19.2113 10.9343 19.218 10.9511 19.2234 10.9683C19.0514 11.0949 18.8939 11.2362 18.7618 11.4041C18.6695 11.37 18.5939 11.3031 18.5501 11.2177ZM22.5733 9.71747C22.5762 9.68359 22.586 9.6506 22.6021 9.62039C22.6183 9.59018 22.6405 9.56336 22.6675 9.54147C22.6944 9.51958 22.7256 9.50306 22.7592 9.49287C22.7929 9.48267 22.8283 9.479 22.8634 9.48207C22.8989 9.48534 22.9333 9.49533 22.9648 9.51147C22.9963 9.5276 23.0241 9.54955 23.0468 9.57608C23.0695 9.6026 23.0865 9.63318 23.0969 9.66605C23.1073 9.69893 23.1109 9.73346 23.1075 9.76768C23.1044 9.79735 23.0961 9.8263 23.083 9.85332C22.9423 9.87795 22.8042 9.91495 22.6704 9.96385C22.606 9.89706 22.5712 9.80866 22.5733 9.71747Z" fill="#EDD749"/>
</svg>
