<svg width="22" height="23" viewBox="0 0 22 23" fill="none" xmlns="http://www.w3.org/2000/svg">
<g clip-path="url(#clip0_526_23323)">
<path d="M19.0125 3.7631L8.18035 15.4714L21.7919 9.19429C21.3967 7.15882 20.433 5.27355 19.0125 3.7631ZM10.9765 0.282176C9.5237 0.280136 8.08495 0.566517 6.74367 1.12472L5.2902 13.3701L12.5542 0.396305C12.0328 0.320875 11.5033 0.282735 10.9765 0.282176ZM21.8993 9.86899L9.00275 17.086L21.1038 15.6493C21.6942 14.2762 21.9981 12.797 21.9966 11.3023C21.9971 10.8228 21.9635 10.3438 21.8959 9.86899H21.8993ZM17.1462 20.4326C18.5906 19.4535 19.7833 18.1469 20.6271 16.6194L9.28136 18.8684L17.1462 20.4326ZM13.2154 0.510434L6.90479 14.1925L18.6131 3.3603C17.1188 1.91941 15.2476 0.930309 13.2154 0.507077V0.510434ZM11.8962 22.2822C13.0883 22.1844 14.2563 21.8918 15.3537 21.4161L9.00275 20.6609L11.8962 22.2822ZM0.929814 6.77073C0.423192 7.89059 0.108855 9.08779 0 10.3121L1.67836 13.3331L0.929814 6.77073ZM5.787 1.57787C4.23532 2.40874 2.90397 3.5974 1.90327 5.04537L3.50107 13.0881L5.787 1.57787Z" fill="#C7402B"/>
</g>
<defs>
<clipPath id="clip0_526_23323">
<rect width="22" height="22" fill="white" transform="translate(0 0.280518)"/>
</clipPath>
</defs>
</svg>
