<svg width="33" height="34" viewBox="0 0 33 34" fill="none" xmlns="http://www.w3.org/2000/svg">
<g clip-path="url(#clip0_531_23905)">
<mask id="mask0_531_23905" style="mask-type:luminance" maskUnits="userSpaceOnUse" x="-6" y="-2" width="94" height="123">
<path d="M-5.95215 -1.17923H87.8311V120.187H-5.95215V-1.17923Z" fill="white"/>
</mask>
<g mask="url(#mask0_531_23905)">
<path d="M26.363 14.3773C26.6057 17.2049 22.1558 19.8961 16.4238 20.3879C10.6918 20.8796 5.85021 18.9857 5.60625 16.1581C5.36229 13.3305 9.81347 10.639 15.5454 10.1473C21.2774 9.65551 26.119 11.5494 26.363 14.3773Z" fill="#BBE6FB"/>
</g>
<mask id="mask1_531_23905" style="mask-type:luminance" maskUnits="userSpaceOnUse" x="-6" y="-2" width="94" height="123">
<path d="M-5.95215 -1.17923H87.8311V120.187H-5.95215V-1.17923Z" fill="white"/>
</mask>
<g mask="url(#mask1_531_23905)">
<mask id="mask2_531_23905" style="mask-type:luminance" maskUnits="userSpaceOnUse" x="8" y="10" width="15" height="11">
<path d="M8.76025 10.4778H22.2914V20.0057H8.76025V10.4778Z" fill="white"/>
</mask>
<g mask="url(#mask2_531_23905)">
<g opacity="0.35">
<path d="M15.7137 10.4789C13.5273 10.4433 10.9688 11.3114 9.06505 12.1244C8.86303 12.7057 8.76 13.3167 8.76025 13.9321C8.76025 17.2863 11.7889 20.0057 15.5251 20.0057C19.2612 20.0057 22.2899 17.2863 22.2899 13.9321C22.2899 12.8706 21.9858 11.8734 21.4527 11.0052C19.9295 10.7685 17.8362 10.5149 15.7139 10.479" fill="white"/>
</g>
</g>
</g>
<mask id="mask3_531_23905" style="mask-type:luminance" maskUnits="userSpaceOnUse" x="-6" y="-2" width="94" height="123">
<path d="M-5.95215 -1.17923H87.8311V120.187H-5.95215V-1.17923Z" fill="white"/>
</mask>
<g mask="url(#mask3_531_23905)">
<path d="M15.5249 10.4781C14.3143 10.4042 12.228 11.0359 10.4883 11.6657C10.2167 12.3055 10.0768 12.9935 10.0771 13.6886C10.0771 16.6275 12.7417 19.0099 15.5604 19.0099C18.3606 19.0099 20.838 16.6237 21.0437 13.6886C21.1105 12.7329 20.7832 11.8323 20.3247 11.056C18.521 10.7383 16.607 10.544 15.5249 10.4781Z" fill="white"/>
</g>
<mask id="mask4_531_23905" style="mask-type:luminance" maskUnits="userSpaceOnUse" x="-6" y="-2" width="94" height="123">
<path d="M-5.95215 -1.17923H87.8311V120.187H-5.95215V-1.17923Z" fill="white"/>
</mask>
<g mask="url(#mask4_531_23905)">
<path d="M12.4188 13.3028C12.5675 12.9739 12.7923 12.8129 13.0104 12.5372C12.9861 12.4719 12.9331 12.2583 12.9331 12.1844C12.9333 12.0257 12.9964 11.8736 13.1086 11.7614C13.2208 11.6492 13.373 11.5861 13.5317 11.5859C13.6073 11.586 13.6822 11.6004 13.7523 11.6285C14.743 10.8735 16.0473 10.5443 17.3581 10.8373C17.4768 10.8645 17.5944 10.8964 17.7106 10.9328C16.4152 10.7532 14.9553 11.212 13.962 12.0136C13.9923 12.0851 14.0765 12.2897 14.0765 12.3722C14.0765 12.7027 13.8625 12.7832 13.532 12.7832C13.4586 12.7831 13.3859 12.7696 13.3175 12.7433C13.0931 13.0446 12.8182 13.6168 12.6836 13.9772C13.2329 14.4685 13.7291 14.6466 14.3757 14.8882C14.3742 14.8576 14.398 14.8289 14.398 14.7975C14.398 13.801 15.2753 12.9911 16.2721 12.9911C17.1652 12.9911 17.9047 13.6405 18.0491 14.4926C18.4947 14.2091 18.9256 13.9918 19.254 13.5731C19.1774 13.4812 19.0946 13.215 19.0946 13.0847C19.0946 12.7848 19.338 12.5417 19.6379 12.5417C19.6803 12.5417 19.7211 12.5478 19.7608 12.557C19.9275 12.2143 20.0519 11.8512 20.1337 11.4766C18.5753 10.3227 15.56 10.4803 15.56 10.4803C15.56 10.4803 13.1605 10.3551 11.5362 11.1469C11.6445 11.9284 11.957 12.6747 12.4179 13.3045M19.866 12.8533C19.9538 12.9305 20.0275 13.0223 20.0836 13.1247C20.2292 13.3852 19.937 13.6266 19.6371 13.6266C19.6072 13.6261 19.5773 13.6231 19.5479 13.6176C19.21 14.1456 18.6182 14.8228 18.0924 15.1653C18.8985 15.2974 19.6589 15.6204 20.2639 16.1192C20.7044 15.33 21.0423 14.1884 21.0423 13.2219C21.0423 12.4863 20.717 11.9448 20.2258 11.5485C20.2001 11.9432 19.9894 12.4955 19.866 12.855M13.3233 17.8528C13.5919 17.1111 14.2527 16.5362 14.8777 16.0305C14.7863 15.9053 14.6491 15.5953 14.592 15.4485C13.8296 15.2166 13.155 14.7826 12.6305 14.2081L12.6179 14.2578C12.5222 14.6894 12.4994 15.134 12.5505 15.5732C12.7307 15.607 12.8935 15.7027 13.0106 15.8438C13.1277 15.9849 13.1918 16.1625 13.1918 16.3458C13.1918 16.5757 12.9918 16.9047 12.8366 17.0486C13.0051 17.4127 13.1204 17.5883 13.322 17.8528M13.2761 18.4754C12.9543 18.1567 12.7341 17.5214 12.5261 17.1223C12.4866 17.1287 12.4466 17.1321 12.4066 17.1324C11.972 17.1324 11.5167 16.7677 11.6197 16.3457C11.6767 16.1122 11.8379 15.9595 12.1004 15.8319C12.0391 15.3481 12.0244 14.6527 12.1367 14.1498C12.1674 14.0057 12.2371 13.9383 12.2823 13.8014C11.8027 13.0996 11.4931 12.1771 11.4931 11.265C11.4931 11.2316 11.4947 11.1987 11.4956 11.1654C10.6852 11.5718 10.0776 12.212 10.0776 13.2199C10.0776 15.4492 11.3618 17.6363 13.2721 18.4934L13.2762 18.4753M17.9735 15.3951C17.7283 16.0973 17.0591 16.6016 16.2725 16.6016C15.8685 16.6018 15.4761 16.4658 15.1589 16.2154C14.5265 16.708 13.9529 17.5732 13.6612 18.3237C13.792 18.4647 13.8834 18.5804 14.03 18.7068C14.4724 18.8221 15.0817 18.7068 15.5606 18.7068C17.4868 18.7068 19.1929 17.8499 20.171 16.3472C19.5206 15.8967 18.7535 15.4682 17.9735 15.3968" fill="#373535"/>
</g>
<mask id="mask5_531_23905" style="mask-type:luminance" maskUnits="userSpaceOnUse" x="-6" y="-2" width="94" height="123">
<path d="M-5.95215 -1.17923H87.8311V120.187H-5.95215V-1.17923Z" fill="white"/>
</mask>
<g mask="url(#mask5_531_23905)">
<path d="M12.3695 13.5634C12.5159 13.2391 12.7014 12.9339 12.9219 12.6546C12.8883 12.5641 12.877 12.4668 12.889 12.371C12.9011 12.2751 12.9361 12.1837 12.9911 12.1043C13.0461 12.025 13.1195 11.9601 13.205 11.9152C13.2905 11.8703 13.3856 11.8468 13.4822 11.8465C13.5578 11.8466 13.6327 11.8611 13.7028 11.8891C14.6936 11.1341 15.9978 10.805 17.3086 11.098C17.4273 11.1252 17.5449 11.157 17.6611 11.1934C16.3657 11.0138 15.0273 11.411 14.0342 12.2125C14.0645 12.2839 14.081 12.3626 14.081 12.4449C14.0809 12.6036 14.0178 12.7558 13.9056 12.868C13.7933 12.9802 13.6412 13.0433 13.4825 13.0435C13.4091 13.0434 13.3364 13.0299 13.268 13.0037C13.0436 13.3049 12.8603 13.6378 12.7255 13.9967C13.1972 14.505 13.7761 14.9069 14.4226 15.1486C14.4211 15.1179 14.418 15.0873 14.418 15.0559C14.418 14.0593 15.2256 13.2514 16.2224 13.2514C17.1155 13.2514 17.8551 13.9009 17.9994 14.7529C18.445 14.4694 18.841 14.1053 19.1692 13.6851C19.0894 13.5892 19.0455 13.4684 19.0451 13.3435C19.0451 13.0437 19.2885 12.8005 19.5884 12.8005C19.6308 12.8005 19.6716 12.8066 19.7113 12.8158C19.878 12.4731 20.0024 12.11 20.0843 11.7354C18.5258 10.5815 15.5105 10.7391 15.5105 10.7391C15.5105 10.7391 13.111 10.6139 11.4867 11.4057C11.595 12.1872 11.9075 12.9335 12.3684 13.5633M19.9503 12.9422C20.0607 13.0415 20.1311 13.1839 20.1311 13.3437C20.1311 13.6436 19.8878 13.8869 19.5879 13.8869C19.558 13.8864 19.5281 13.8834 19.4987 13.8779C19.1606 14.4061 18.7134 14.8559 18.1871 15.197C18.964 15.3188 19.694 15.647 20.3008 16.1472C20.7413 15.358 20.9931 14.4487 20.9931 13.4805C20.9931 12.745 20.6678 12.2034 20.1767 11.8072C20.1519 12.1938 20.0758 12.5756 19.9503 12.9422ZM13.4062 18.0296C13.6748 17.288 14.1417 16.6221 14.7666 16.1166C14.6744 15.9906 14.5991 15.853 14.5426 15.7074C13.7895 15.478 13.1123 15.0494 12.5825 14.4671L12.5699 14.5168C12.4741 14.9484 12.4512 15.393 12.5024 15.8322C12.8671 15.9002 13.1437 16.2199 13.1437 16.6048C13.1438 16.7133 13.1213 16.8207 13.0777 16.92C13.0342 17.0194 12.9704 17.1086 12.8905 17.1821C13.0323 17.4818 13.2051 17.7658 13.4062 18.0295M13.2739 18.4652C12.9521 18.1464 12.6846 17.7806 12.4768 17.3817C12.4372 17.3881 12.3973 17.3914 12.3572 17.3917C11.9227 17.3917 11.5704 17.0393 11.5704 16.605C11.5704 16.4573 11.6121 16.3126 11.6906 16.1875C11.7691 16.0624 11.8813 15.9619 12.0143 15.8976C11.9531 15.4009 11.9778 14.8974 12.0874 14.409C12.118 14.2653 12.1588 14.1249 12.2038 13.9876C11.7242 13.2861 11.4435 12.4379 11.4435 11.5241C11.4435 11.4907 11.445 11.4578 11.4458 11.4248C10.6354 11.8309 10.0278 12.4715 10.0278 13.4792C10.0278 15.7088 11.3592 17.6259 13.2696 18.4831L13.2738 18.465M17.9246 15.6527C17.6794 16.3549 17.0102 16.8592 16.2237 16.8592C15.8196 16.8594 15.4272 16.7234 15.1101 16.473C14.4776 16.9655 14.0003 17.6369 13.7088 18.3876C13.8395 18.5286 13.9793 18.6611 14.1261 18.786C14.5687 18.9013 15.0328 18.963 15.5117 18.963C17.4379 18.963 19.1312 17.967 20.1095 16.466C19.4592 16.0154 18.7046 15.7243 17.9246 15.653" fill="#1287B1"/>
</g>
<mask id="mask6_531_23905" style="mask-type:luminance" maskUnits="userSpaceOnUse" x="-6" y="-2" width="94" height="123">
<path d="M-5.95215 -1.17923H87.8311V120.187H-5.95215V-1.17923Z" fill="white"/>
</mask>
<g mask="url(#mask6_531_23905)">
<mask id="mask7_531_23905" style="mask-type:luminance" maskUnits="userSpaceOnUse" x="12" y="11" width="8" height="8">
<path d="M12.6211 11.6351H19.6548V18.6627H12.6211V11.6351Z" fill="white"/>
</mask>
<g mask="url(#mask7_531_23905)">
<path d="M17.9878 15.189L19.655 14.7913L17.9816 14.7059L19.3435 13.6651L17.7982 14.2191L18.8484 12.7638L17.3979 13.7292L17.9036 12.0256L16.9076 13.4298L16.8849 11.6552L16.2295 13.2358L15.683 11.6364L15.7126 13.5205L14.7682 11.8318L15.2792 13.625L13.7473 12.5109L14.9472 14.0188L13.047 13.3194L14.548 14.43L12.6233 14.4891L14.5912 14.9969L12.6216 15.423L14.5657 15.5639L12.9261 16.6136L14.6143 16.0016L13.443 17.485L14.9233 16.2897L14.3903 18.2818L15.533 16.6618L15.3729 18.5751L16.0215 16.8404L16.5737 18.6635L16.7079 16.8349L17.5274 18.3949L17.0432 16.6104L18.5439 17.7729L17.5751 16.2908L19.2215 16.9322L17.9626 15.6951L19.6507 15.8278L17.9878 15.189Z" fill="white"/>
</g>
</g>
<mask id="mask8_531_23905" style="mask-type:luminance" maskUnits="userSpaceOnUse" x="-6" y="-2" width="94" height="123">
<path d="M-5.95215 -1.17923H87.8311V120.187H-5.95215V-1.17923Z" fill="white"/>
</mask>
<g mask="url(#mask8_531_23905)">
<mask id="mask9_531_23905" style="mask-type:luminance" maskUnits="userSpaceOnUse" x="0" y="8" width="33" height="11">
<path d="M0.239258 8.90585H32.7879V18.3789H0.239258V8.90585Z" fill="white"/>
</mask>
<g mask="url(#mask9_531_23905)">
<g opacity="0.35">
<path d="M0.239229 18.3789C5.40957 13.2085 9.53894 11.6125 13.2866 10.8854C13.7825 10.7889 13.8763 9.70546 13.8763 9.70546C13.8763 9.70546 13.9457 10.5035 14.2928 10.6076C14.6399 10.7116 15.0907 9.35837 15.0907 9.35837C15.0907 9.35837 14.6743 10.573 15.0907 10.6425C15.5071 10.7121 16.2707 9.46257 16.2707 9.46257C16.2707 9.46257 15.9585 10.5383 16.1668 10.6076C16.375 10.6768 17.4157 9.04452 17.4157 9.04452C17.4157 9.04452 16.7911 10.1203 17.381 10.2245C17.971 10.3287 18.8318 9.48893 18.8318 9.48893C18.8318 9.48893 18.1551 10.2559 18.4566 10.3618C19.7408 10.8131 20.7798 9.14428 20.7798 9.14428C20.7798 9.14428 20.5392 9.87601 19.9144 10.6741C21.2675 11.021 22.2743 8.98231 22.2743 8.98231L21.2691 11.0209C21.7896 11.2987 23.8718 8.90431 23.8718 8.90431C23.8718 8.90431 22.7961 10.7781 22.1715 11.1597C22.5184 11.4374 23.7676 10.327 23.7676 10.327C23.7676 10.327 22.7613 11.5759 23.143 11.6455C23.6982 12.0966 25.7454 9.32082 25.7454 9.32082C25.7454 9.32082 24.9474 10.9516 23.7676 12.2355C24.7537 12.7289 27.203 9.56355 27.203 9.56355C27.203 9.56355 27.1336 10.5699 25.3638 12.166C26.6824 11.9926 28.3826 9.49414 28.3826 9.49414C28.3826 9.49414 27.758 11.368 26.2658 12.6864C27.5607 12.5516 29.6315 9.3553 29.6315 9.3553C29.6315 9.3553 28.8336 11.5761 27.2027 12.8599C29.0071 13.259 31.6096 10.5697 31.6096 10.5697C31.6096 10.5697 30.5859 12.4783 29.2497 13.2591C30.7419 13.8316 32.7892 11.472 32.7892 11.472C32.7892 11.472 30.7419 14.6298 27.4802 14.4909C26.41 14.4453 23.1741 11.244 16.2372 11.5066C7.07637 11.8539 5.13328 15.7385 0.23877 18.3773" fill="#373535"/>
</g>
</g>
<path d="M0.451392 17.9861C5.62173 12.8158 9.75095 11.2199 13.4986 10.4927C13.9946 10.3961 14.0886 9.3127 14.0886 9.3127C14.0886 9.3127 14.1578 10.1096 14.5051 10.2148C14.8523 10.3201 15.303 8.96592 15.303 8.96592C15.303 8.96592 14.8867 10.1805 15.303 10.2498C15.7194 10.319 16.483 9.06982 16.483 9.06982C16.483 9.06982 16.1708 10.1456 16.3788 10.2148C16.5867 10.2841 17.628 8.65178 17.628 8.65178C17.628 8.65178 17.0034 9.72753 17.5934 9.83173C18.1833 9.93594 19.0441 9.09618 19.0441 9.09618C19.0441 9.09618 18.3674 9.86315 18.6689 9.96904C19.9531 10.4202 20.9916 8.75154 20.9916 8.75154C20.9916 8.75154 20.751 9.48327 20.1266 10.2813C21.4797 10.6284 22.4865 8.58956 22.4865 8.58956L21.4782 10.6284C21.9987 10.9043 24.0806 8.51188 24.0806 8.51188C24.0806 8.51188 23.0052 10.3854 22.3806 10.7671C22.7275 11.0448 23.9767 9.9344 23.9767 9.9344C23.9767 9.9344 22.9704 11.1836 23.3521 11.2529C23.9073 11.7042 25.9545 8.92823 25.9545 8.92823C25.9545 8.92823 25.1576 10.5592 23.9767 11.8429C24.9628 12.3363 27.4121 9.17096 27.4121 9.17096C27.4121 9.17096 27.3427 10.1774 25.5729 11.7736C26.8915 11.6 28.5917 9.10154 28.5917 9.10154C28.5917 9.10154 27.9671 10.9754 26.4749 12.294C27.7698 12.1592 29.8406 8.96286 29.8406 8.96286C29.8406 8.96286 29.0427 11.1836 27.4118 12.4675C29.2162 12.8665 31.8187 10.1774 31.8187 10.1774C31.8187 10.1774 30.795 12.0858 29.4588 12.8665C30.951 13.439 32.9983 11.0794 32.9983 11.0794C32.9983 11.0794 30.951 14.2372 27.689 14.0983C26.6191 14.0526 23.3819 10.8496 16.4462 11.114C7.28547 11.461 5.34237 15.3473 0.449707 17.9844" fill="#373535"/>
</g>
<mask id="mask10_531_23905" style="mask-type:luminance" maskUnits="userSpaceOnUse" x="-6" y="-2" width="94" height="123">
<path d="M-5.95215 -1.17923H87.8311V120.187H-5.95215V-1.17923Z" fill="white"/>
</mask>
<g mask="url(#mask10_531_23905)">
<mask id="mask11_531_23905" style="mask-type:luminance" maskUnits="userSpaceOnUse" x="0" y="14" width="31" height="12">
<path d="M0.103516 14.6591H30.6566V25.971H0.103516V14.6591Z" fill="white"/>
</mask>
<g mask="url(#mask11_531_23905)">
<g opacity="0.35">
<path d="M0.103516 18.9443C2.8361 20.315 5.33469 18.7362 8.48363 19.6236C10.8777 20.2985 13.7927 21.1304 17.7483 20.5578C21.7039 19.9851 25.0874 18.2678 26.7012 15.1967C27.2043 13.8262 29.2514 15.5093 29.2514 15.5093C29.2514 15.5093 27.7595 14.8847 27.7956 15.1798C27.8318 15.4749 30.0337 16.4983 30.0337 16.4983C30.0337 16.4983 28.0385 15.8737 28.1599 16.342C28.2813 16.8103 30.658 18.6843 30.658 18.6843C30.658 18.6843 27.969 16.637 27.7434 16.9143C27.5178 17.1917 28.8884 18.3198 28.8884 18.3198C28.8884 18.3198 26.6155 16.9143 25.8175 17.3288C25.2434 17.6266 28.1774 19.5518 28.1774 19.5518C28.1774 19.5518 26.2687 18.0941 25.8175 18.476C25.3662 18.8579 27.969 21.9806 27.969 21.9806C27.969 21.9806 25.0174 18.788 24.7232 18.9443C24.4289 19.1006 25.5384 20.6273 25.5384 20.6273C25.5384 20.6273 24.0826 19.031 23.6822 19.3087C23.2818 19.5864 25.7641 23.7328 25.7641 23.7328C25.7641 23.7328 23.0747 19.4822 21.9645 20.1932C23.7084 24.019 23.0576 24.5656 23.0576 24.5656C23.0576 24.5656 22.8351 20.6626 20.6632 20.7659C19.5701 20.818 21.1836 23.6805 21.1836 23.6805C21.1836 23.6805 19.6972 21.0659 18.7095 21.118C20.5323 24.5659 19.8826 25.9707 19.8826 25.9707C19.8826 25.9707 20.184 23.0245 17.7118 21.385C18.6485 22.2175 17.124 25.9707 17.124 25.9707C17.124 25.9707 18.4651 20.4387 16.1348 21.4961C15.7665 21.6623 16.1087 24.2547 16.1087 24.2547C16.1087 24.2547 15.6403 21.2877 14.938 21.444C14.5284 21.5348 12.3353 25.5559 12.3353 25.5559C12.3353 25.5559 14.1313 21.2097 13.5847 21.3919C13.1866 21.5247 12.4395 23.3178 12.4395 23.3178C12.4395 23.3178 12.8038 21.5479 12.4395 21.444C12.0753 21.3401 10.0452 23.3178 10.0452 23.3178C10.0452 23.3178 11.5546 21.5479 11.2944 21.1836C10.8999 20.6315 10.4362 20.6056 9.88916 20.8194C9.09231 21.1304 8.01548 22.589 8.01548 22.589C8.01548 22.589 9.08756 21.1122 8.90014 20.559C8.59933 19.6702 5.51705 22.2753 5.51705 22.2753C5.51705 22.2753 7.33877 20.559 6.92227 20.1932C6.50576 19.8274 4.24515 19.9416 3.53902 19.9396C1.45709 19.9332 0.735633 19.4446 0.103669 18.9441" fill="#373535"/>
</g>
</g>
<path d="M-0.000488281 18.632C2.7321 20.0028 5.23054 18.4239 8.37948 19.3115C10.7736 19.9861 13.6887 20.8182 17.6444 20.2455C21.6002 19.6728 24.9846 17.9553 26.597 14.8845C27.1001 13.514 29.1473 15.1967 29.1473 15.1967C29.1473 15.1967 27.6553 14.5722 27.6915 14.8672C27.7276 15.1622 29.9296 16.1857 29.9296 16.1857C29.9296 16.1857 27.9344 15.5612 28.0557 16.0297C28.1771 16.4982 30.5542 18.3718 30.5542 18.3718C30.5542 18.3718 27.8648 16.3245 27.6395 16.6022C27.4143 16.8799 28.7847 18.0074 28.7847 18.0074C28.7847 18.0074 26.5117 16.6022 25.7138 17.0164C25.1396 17.3143 28.0734 19.2393 28.0734 19.2393C28.0734 19.2393 26.1647 17.7835 25.7138 18.1636C25.2628 18.5436 27.8653 21.6682 27.8653 21.6682C27.8653 21.6682 24.9154 18.4757 24.6205 18.6319C24.3257 18.788 25.4361 20.3148 25.4361 20.3148C25.4361 20.3148 23.9785 18.7186 23.5796 18.9963C23.1807 19.274 25.6615 23.4203 25.6615 23.4203C25.6615 23.4203 22.9721 19.1695 21.8619 19.8809C23.6058 23.7066 22.955 24.2532 22.955 24.2532C22.955 24.2532 22.7325 20.3502 20.5606 20.4536C19.4675 20.5057 21.081 23.3683 21.081 23.3683C21.081 23.3683 19.5945 20.7535 18.6071 20.8056C20.43 24.2554 19.78 25.6584 19.78 25.6584C19.78 25.6584 20.0814 22.7121 17.6092 21.0725C18.5459 21.9053 17.0213 25.6584 17.0213 25.6584C17.0213 25.6584 18.3628 20.1264 16.0325 21.1838C15.6642 21.3502 16.0064 23.9424 16.0064 23.9424C16.0064 23.9424 15.5375 20.9757 14.8354 21.1317C14.4256 21.2226 12.2326 25.2436 12.2326 25.2436C12.2326 25.2436 14.0285 20.8974 13.4819 21.0798C13.0838 21.2123 12.3368 23.0054 12.3368 23.0054C12.3368 23.0054 12.7012 21.2357 12.3368 21.1317C11.9724 21.0276 9.94253 23.0054 9.94253 23.0054C9.94253 23.0054 11.452 21.2358 11.1914 20.8713C10.797 20.3192 10.3333 20.2936 9.78623 20.5072C8.98938 20.8183 7.9124 22.2767 7.9124 22.2767C7.9124 22.2767 8.98447 20.7998 8.79721 20.2467C8.49625 19.3579 5.41412 21.963 5.41412 21.963C5.41412 21.963 7.23584 20.2467 6.81933 19.8811C6.40283 19.5155 4.14222 19.6295 3.43609 19.6273C1.35416 19.6207 0.632855 19.1324 0.000890712 18.6319" fill="#373535"/>
</g>
</g>
<defs>
<clipPath id="clip0_531_23905">
<rect width="33" height="33" fill="white" transform="translate(0 0.742371)"/>
</clipPath>
</defs>
</svg>
