<svg width="29" height="31" viewBox="0 0 29 31" fill="none" xmlns="http://www.w3.org/2000/svg">
<g clip-path="url(#clip0_526_23228)">
<g filter="url(#filter0_f_526_23228)">
<path fill-rule="evenodd" clip-rule="evenodd" d="M24.5158 28.1682L19.9341 21.4516H9.04301L4.48438 28.1673L24.5158 28.1682Z" fill="black" fill-opacity="0.57"/>
</g>
<path fill-rule="evenodd" clip-rule="evenodd" d="M22.561 22.4588L20.8688 26.1158L19.7043 21.562L22.561 22.4588ZM6.97949 22.4588L8.13156 26.1158L9.29608 21.562L6.97949 22.4588Z" fill="#7F8082"/>
<path fill-rule="evenodd" clip-rule="evenodd" d="M1.60195 10.3699L1.60107 10.3713L4.00335 26.1159H8.13212L7.79485 22.4588H9.91324L10.1831 26.1159H18.8327L19.1025 22.4588H21.2075L20.8702 26.1159H25.0258L27.3982 10.3699H1.60195Z" fill="url(#paint0_linear_526_23228)" stroke="#D6D6D6" stroke-width="0.161633" stroke-linejoin="round"/>
<path fill-rule="evenodd" clip-rule="evenodd" d="M7.50309 20.0487L8.74495 15.2354L8.65765 5.51468L6.32861 10.3707L7.50309 20.0487Z" fill="url(#paint1_radial_526_23228)"/>
<path fill-rule="evenodd" clip-rule="evenodd" d="M16.4216 4.56155H21.5682L21.4625 16.329H16.0241L16.4216 4.56155ZM12.699 4.56898L7.68604 4.57216L7.80483 16.2872H12.9085L12.699 4.56898Z" fill="#293441"/>
<path fill-rule="evenodd" clip-rule="evenodd" d="M8.20506 15.2345L7.50342 20.0479H21.5381L20.7031 15.2689L8.20506 15.2345Z" fill="#2D3948"/>
<path fill-rule="evenodd" clip-rule="evenodd" d="M21.5381 20.0487L20.3193 15.2696L20.3651 5.48294L22.7231 10.3695L21.5381 20.0487Z" fill="url(#paint2_linear_526_23228)"/>
<path fill-rule="evenodd" clip-rule="evenodd" d="M7.51381 20.0487L8.74424 15.2353L8.65694 5.51453L6.32812 10.3711L7.51381 20.0487Z" fill="url(#paint3_linear_526_23228)"/>
<path fill-rule="evenodd" clip-rule="evenodd" d="M12.1729 7.28122L12.6362 17.5005H16.2459L16.8274 7.28122H12.1729Z" fill="#2D3B48"/>
<path fill-rule="evenodd" clip-rule="evenodd" d="M27.3983 10.3699L21.4988 0.607941H7.47335L1.60205 10.3699H6.32897L8.64519 5.53271H12.4537L12.1728 7.28115H16.8272L16.5811 5.47975H20.3746L22.7227 10.3699H27.3983Z" fill="url(#paint4_linear_526_23228)" stroke="#D6D6D6" stroke-width="0.161633" stroke-linejoin="round"/>
<path opacity="0.45" fill-rule="evenodd" clip-rule="evenodd" d="M16.5813 5.47968L20.407 5.48293L22.7229 10.3698L21.5378 20.0486H12.6362L17.2373 10.3698L16.5813 5.47968Z" fill="#363F49"/>
<path opacity="0.3" fill-rule="evenodd" clip-rule="evenodd" d="M17.2375 10.3699L12.6364 20.0487H7.50351L6.3291 10.37L17.2375 10.3699Z" fill="url(#paint5_linear_526_23228)"/>
<path opacity="0.2" fill-rule="evenodd" clip-rule="evenodd" d="M8.64498 5.53271H12.4535L12.1726 7.28116H16.827L17.237 10.3699H6.32861L8.64498 5.53271Z" fill="url(#paint6_linear_526_23228)"/>
<g opacity="0.8" filter="url(#filter1_f_526_23228)">
<path d="M18.3276 16.8728C18.6894 16.8728 18.9828 15.7969 18.9828 14.4698C18.9828 13.1426 18.6894 12.0667 18.3276 12.0667C17.9657 12.0667 17.6724 13.1426 17.6724 14.4698C17.6724 15.7969 17.9657 16.8728 18.3276 16.8728Z" fill="#05F0FF"/>
</g>
<g filter="url(#filter2_f_526_23228)">
<path opacity="0.9" d="M18.3276 16.6329C18.6089 16.6329 18.8369 15.6804 18.8369 14.5053C18.8369 13.3303 18.6089 12.3778 18.3276 12.3778C18.0464 12.3778 17.8184 13.3303 17.8184 14.5053C17.8184 15.6804 18.0464 16.6329 18.3276 16.6329Z" fill="white" stroke="#06EFFE" stroke-width="0.161678"/>
<path opacity="0.9" d="M18.3276 16.4787C18.6089 16.4787 18.8369 15.5979 18.8369 14.5113C18.8369 13.4247 18.6089 12.5438 18.3276 12.5438C18.0464 12.5438 17.8184 13.4247 17.8184 14.5113C17.8184 15.5979 18.0464 16.4787 18.3276 16.4787Z" fill="#FEFFFF" stroke="#06EFFE" stroke-width="0.161573"/>
</g>
<g opacity="0.8" filter="url(#filter3_f_526_23228)">
<path d="M10.9164 17.2119C11.2783 17.2119 11.5716 16.1361 11.5716 14.8089C11.5716 13.4818 11.2783 12.4059 10.9164 12.4059C10.5546 12.4059 10.2612 13.4818 10.2612 14.8089C10.2612 16.1361 10.5546 17.2119 10.9164 17.2119Z" fill="#05F0FF"/>
</g>
<g filter="url(#filter4_f_526_23228)">
<path opacity="0.9" d="M10.9165 16.9721C11.1977 16.9721 11.4258 16.0195 11.4258 14.8445C11.4258 13.6695 11.1977 12.7169 10.9165 12.7169C10.6352 12.7169 10.4072 13.6695 10.4072 14.8445C10.4072 16.0195 10.6352 16.9721 10.9165 16.9721Z" fill="white" stroke="#06EFFE" stroke-width="0.161678"/>
<path opacity="0.9" d="M10.9165 16.8179C11.1977 16.8179 11.4258 15.937 11.4258 14.8504C11.4258 13.7638 11.1977 12.8829 10.9165 12.8829C10.6352 12.8829 10.4072 13.7638 10.4072 14.8504C10.4072 15.937 10.6352 16.8179 10.9165 16.8179Z" fill="#FEFFFF" stroke="#06EFFE" stroke-width="0.161573"/>
</g>
<path d="M8.64498 5.5327H12.4535L12.1726 7.28114H16.827L16.5809 5.47974L20.4066 5.48299L22.7225 10.3699L21.5374 20.0486H7.50302L6.32861 10.37L8.64498 5.5327Z" stroke="#D6D6D6" stroke-width="0.161633" stroke-linejoin="round"/>
<g opacity="0.343">
<path fill-rule="evenodd" clip-rule="evenodd" d="M22.6844 10.3699H6.31738H22.6844Z" fill="white"/>
<path d="M22.6844 10.3699H6.31738" stroke="white" stroke-width="0.161633"/>
</g>
</g>
<defs>
<filter id="filter0_f_526_23228" x="-0.0523653" y="16.9148" width="29.1047" height="15.7902" filterUnits="userSpaceOnUse" color-interpolation-filters="sRGB">
<feFlood flood-opacity="0" result="BackgroundImageFix"/>
<feBlend mode="normal" in="SourceGraphic" in2="BackgroundImageFix" result="shape"/>
<feGaussianBlur stdDeviation="2.26837" result="effect1_foregroundBlur_526_23228"/>
</filter>
<filter id="filter1_f_526_23228" x="16.6987" y="11.0931" width="3.25782" height="6.75334" filterUnits="userSpaceOnUse" color-interpolation-filters="sRGB">
<feFlood flood-opacity="0" result="BackgroundImageFix"/>
<feBlend mode="normal" in="SourceGraphic" in2="BackgroundImageFix" result="shape"/>
<feGaussianBlur stdDeviation="0.486819" result="effect1_foregroundBlur_526_23228"/>
</filter>
<filter id="filter2_f_526_23228" x="17.4007" y="11.9603" width="1.85337" height="5.09001" filterUnits="userSpaceOnUse" color-interpolation-filters="sRGB">
<feFlood flood-opacity="0" result="BackgroundImageFix"/>
<feBlend mode="normal" in="SourceGraphic" in2="BackgroundImageFix" result="shape"/>
<feGaussianBlur stdDeviation="0.1683" result="effect1_foregroundBlur_526_23228"/>
</filter>
<filter id="filter3_f_526_23228" x="9.28759" y="11.4322" width="3.25782" height="6.75334" filterUnits="userSpaceOnUse" color-interpolation-filters="sRGB">
<feFlood flood-opacity="0" result="BackgroundImageFix"/>
<feBlend mode="normal" in="SourceGraphic" in2="BackgroundImageFix" result="shape"/>
<feGaussianBlur stdDeviation="0.486819" result="effect1_foregroundBlur_526_23228"/>
</filter>
<filter id="filter4_f_526_23228" x="9.98957" y="12.2995" width="1.85337" height="5.09001" filterUnits="userSpaceOnUse" color-interpolation-filters="sRGB">
<feFlood flood-opacity="0" result="BackgroundImageFix"/>
<feBlend mode="normal" in="SourceGraphic" in2="BackgroundImageFix" result="shape"/>
<feGaussianBlur stdDeviation="0.1683" result="effect1_foregroundBlur_526_23228"/>
</filter>
<linearGradient id="paint0_linear_526_23228" x1="9593.55" y1="6179.45" x2="4126.85" y2="409.213" gradientUnits="userSpaceOnUse">
<stop stop-color="#ACACAC"/>
<stop offset="1" stop-color="#E9E9E9"/>
</linearGradient>
<radialGradient id="paint1_radial_526_23228" cx="0" cy="0" r="1" gradientUnits="userSpaceOnUse" gradientTransform="translate(28318.5 -7722.64) rotate(-85.5661) scale(468.84 1350.79)">
<stop stop-color="#25303B"/>
<stop offset="1" stop-color="#25303B" stop-opacity="0"/>
</radialGradient>
<linearGradient id="paint2_linear_526_23228" x1="806.785" y1="4538.9" x2="-292.542" y2="2383.91" gradientUnits="userSpaceOnUse">
<stop stop-color="#24303A"/>
<stop offset="1" stop-color="#394958"/>
</linearGradient>
<linearGradient id="paint3_linear_526_23228" x1="334.208" y1="4529.1" x2="1426.44" y2="2372.32" gradientUnits="userSpaceOnUse">
<stop stop-color="#24303A"/>
<stop offset="1" stop-color="#394958"/>
</linearGradient>
<linearGradient id="paint4_linear_526_23228" x1="9105.78" y1="1046.99" x2="2757.19" y2="2729.93" gradientUnits="userSpaceOnUse">
<stop stop-color="#E5E5E5"/>
<stop offset="1" stop-color="white"/>
</linearGradient>
<linearGradient id="paint5_linear_526_23228" x1="1994.14" y1="1851.21" x2="1994.14" y2="3087.64" gradientUnits="userSpaceOnUse">
<stop stop-color="white"/>
<stop offset="0.5" stop-color="white" stop-opacity="0.532"/>
<stop offset="1" stop-color="white" stop-opacity="0"/>
</linearGradient>
<linearGradient id="paint6_linear_526_23228" x1="2122.49" y1="925.536" x2="2122.49" y2="616.711" gradientUnits="userSpaceOnUse">
<stop stop-color="white"/>
<stop offset="1" stop-color="white" stop-opacity="0"/>
</linearGradient>
<clipPath id="clip0_526_23228">
<rect width="29" height="30" fill="white" transform="translate(0 0.570099)"/>
</clipPath>
</defs>
</svg>
