<svg width="28" height="29" viewBox="0 0 28 29" fill="none" xmlns="http://www.w3.org/2000/svg">
<g clip-path="url(#clip0_509_24962)">
<path d="M13.9614 28.3928C6.43861 28.3928 0.0589822 22.0386 0.00035715 14.4672C-0.012782 12.641 0.336732 10.8303 1.02863 9.14015C1.72054 7.45001 2.74106 5.91403 4.03104 4.62127C5.32952 3.29141 6.87928 2.2328 8.59031 1.50691C10.3013 0.781026 12.1396 0.402333 13.9982 0.392828C15.8232 0.391228 17.6305 0.750762 19.316 1.45072C21.0014 2.15067 22.5317 3.17722 23.8187 4.4712C25.1267 5.74708 26.1694 7.26898 26.887 8.94934C27.6045 10.6297 27.9828 12.4354 27.9999 14.2625C28.0349 22.0053 21.8128 28.3141 14.0752 28.3928H13.9614ZM14.0052 1.12564C12.2439 1.13591 10.5022 1.49592 8.88114 2.18477C7.26011 2.87362 5.79205 3.87758 4.56217 5.13839C3.33877 6.36157 2.37033 7.81541 1.71298 9.41565C1.05563 11.0159 0.72244 12.7307 0.732732 14.4606C0.787857 21.6356 6.83411 27.6526 13.9575 27.6526H14.0529C21.3897 27.5861 27.2951 21.6041 27.2667 14.2664C27.2334 10.7699 25.8063 7.43177 23.3016 4.99139C22.085 3.76386 20.6368 2.79004 19.041 2.12638C17.4451 1.46272 15.7335 1.12285 14.0052 1.12564ZM3.14117 18.4878V10.3088H5.13092V11.0416H4.07523V17.7695H5.13048V18.5023L3.14117 18.4878ZM9.89398 14.3176C9.89398 15.8051 8.98836 16.6591 7.76117 16.6591C6.53398 16.6591 5.71629 15.7027 5.71629 14.3946C5.71629 13.0278 6.57379 12.064 7.82679 12.064C9.07979 12.064 9.89355 13.0681 9.89355 14.3171L9.89398 14.3176ZM6.57423 14.3832C6.57423 15.2888 7.02923 16.002 7.8093 16.002C8.58936 16.002 9.03692 15.2691 9.03692 14.3456C9.03692 13.5065 8.62304 12.715 7.8093 12.715C6.99554 12.715 6.56242 13.4859 6.56242 14.4016L6.57423 14.3832ZM10.5874 12.2185C10.9771 12.1512 11.3719 12.1181 11.7674 12.1196C12.2114 12.0758 12.6581 12.1751 13.0427 12.4018C13.3358 12.5746 13.513 12.8931 13.5042 13.233C13.4991 13.4504 13.4255 13.6605 13.2939 13.8336C13.1623 14.0067 12.9795 14.1338 12.7714 14.1968C13.2942 14.3031 13.6696 14.763 13.6692 15.2963C13.6719 15.4715 13.6347 15.645 13.5604 15.8038C13.4861 15.9625 13.3767 16.1022 13.2404 16.2124C12.9254 16.4911 12.4013 16.6263 11.591 16.6263C11.2579 16.6279 10.925 16.6083 10.5944 16.5676L10.5874 12.2185ZM11.3937 13.9737H11.8076C12.3676 13.9737 12.6835 13.7099 12.6835 13.3323C12.6835 12.9548 12.3685 12.7198 11.8522 12.7198C11.6977 12.7145 11.5429 12.7255 11.3907 12.7526L11.3937 13.9737ZM11.3937 16.0186C11.5364 16.0335 11.6794 16.0396 11.8225 16.037C12.3475 16.037 12.8047 15.8392 12.8047 15.3041C12.8047 14.7691 12.3575 14.5713 11.7971 14.5713H11.3946L11.3937 16.0186ZM15.2656 12.1598H16.075V15.0473C16.075 16.275 15.4813 16.6853 14.6094 16.6853C14.3762 16.6834 14.1448 16.6438 13.9242 16.5681L14.0231 15.9118C14.1857 15.9626 14.3547 15.9897 14.5249 15.9923C14.9865 15.9923 15.2577 15.7797 15.2577 15.0101L15.2656 12.1598ZM18.3806 14.5674V15.1283H16.6949V14.5678L18.3806 14.5674ZM22.3124 16.4723C21.948 16.6175 21.5573 16.6849 21.1653 16.67C19.7544 16.67 18.8969 15.7863 18.8969 14.4388C18.8802 14.1237 18.9305 13.8088 19.0443 13.5145C19.158 13.2203 19.3328 12.9535 19.5571 12.7317C19.7813 12.5098 20.05 12.3379 20.3454 12.2273C20.6409 12.1167 20.9563 12.0698 21.2712 12.0898C21.6477 12.0744 22.023 12.1419 22.3706 12.2876L22.1956 12.9325C21.92 12.8153 21.6231 12.7566 21.3237 12.7601C20.418 12.7601 19.7662 13.328 19.7662 14.3981C19.7662 15.3728 20.3415 16.0037 21.3162 16.0037C21.6189 16.0084 21.9194 15.9523 22.2 15.8388L22.3124 16.4723ZM24.8552 10.2869V18.4878H22.8654V17.755H23.9207V11.0241H22.8654V10.2913L24.8552 10.2869Z" fill="#F1592A"/>
</g>
<defs>
<clipPath id="clip0_509_24962">
<rect width="28" height="28" fill="white" transform="translate(0 0.392822)"/>
</clipPath>
</defs>
</svg>
