<svg width="33" height="34" viewBox="0 0 33 34" fill="none" xmlns="http://www.w3.org/2000/svg">
<g clip-path="url(#clip0_531_24118)">
<path d="M11.7653 13.1063H11.2153L11.1153 13.5188C11.0653 13.725 10.9653 14.1375 10.9153 14.3953C10.8653 14.6532 10.7653 15.1172 10.6653 15.5297C10.5653 15.8907 10.4153 16.561 10.3153 16.9735C10.1153 17.85 9.91533 18.8297 9.71533 19.4485C9.66533 19.6547 9.66533 19.8094 9.71533 19.861C9.71533 19.9125 9.96533 19.9125 10.2153 19.9125C10.7153 19.9125 10.7153 19.9125 10.9653 18.9328C11.0153 18.7782 11.0153 18.6235 11.0653 18.4172C11.1153 18.1594 11.1653 17.85 11.2153 17.6438C11.3153 17.3344 11.4653 16.6641 11.5653 16.2C11.6653 15.736 11.8153 15.0657 11.9153 14.7047C12.1153 13.8282 12.2653 13.261 12.2653 13.1578C12.2653 13.1063 12.0153 13.1063 11.7653 13.1063ZM9.31533 15.8907C9.51533 15.6328 9.71533 15.375 9.71533 15.3235C9.71533 15.2719 9.41533 15.2203 9.06533 15.2203H8.41533L7.81533 15.9938L7.21533 16.6641L7.86533 17.386L8.51533 18.1078H9.11533C9.46533 18.1078 9.71533 18.0563 9.71533 18.0047C9.71533 17.9532 9.46533 17.6438 9.16533 17.2828C8.56533 16.6641 8.56533 16.7672 9.31533 15.8907ZM14.1153 15.9938L13.5153 15.2719H12.8653C12.5153 15.2719 12.2153 15.3235 12.2153 15.375C12.2153 15.4266 12.4153 15.6328 12.6153 15.9422C13.3653 16.7672 13.3653 16.6641 12.7153 17.3344C12.4153 17.6953 12.1653 17.9532 12.1653 18.0563C12.1653 18.1078 12.4153 18.1594 12.7653 18.1594H13.3653L13.8653 17.6438C14.1153 17.386 14.4153 17.025 14.5153 16.9219C14.7153 16.7157 14.7153 16.6641 14.1153 15.9938Z" fill="#F02E65"/>
<path d="M32.3154 16.8188C32.1654 10.8891 27.4654 6.09379 21.6654 6.09379C19.7154 6.09379 17.9154 6.66098 16.3154 7.5891C14.7654 6.66098 12.9154 6.09379 10.9654 6.09379C5.31543 6.09379 0.66543 10.6313 0.36543 16.4578C0.36543 16.4578 0.36543 16.5094 0.36543 16.561C0.31543 16.7157 0.31543 16.8703 0.31543 17.0766C0.31543 17.2829 0.31543 17.5407 0.36543 17.7469C0.71543 23.5219 5.31543 28.0594 11.0154 28.0594C12.9654 28.0594 14.7654 27.4922 16.3654 26.5641C17.9154 27.4922 19.7654 28.0594 21.7154 28.0594C27.5154 28.0594 32.2154 23.2641 32.3654 17.3344C32.3654 17.2313 32.3654 17.1282 32.3654 17.025C32.3654 16.9219 32.3154 16.9219 32.3154 16.8188ZM13.6654 24.3469C12.8154 24.7078 11.9154 24.8625 10.9654 24.8625C6.81543 24.8625 3.41543 21.3563 3.41543 17.0766C3.41543 12.7969 6.81543 9.29066 10.9654 9.29066C11.9154 9.29066 12.8154 9.44535 13.6654 9.80629C16.5154 10.9407 18.5154 13.7766 18.5154 17.0766C18.5154 20.3766 16.5154 23.2125 13.6654 24.3469Z" fill="#F02E65"/>
</g>
<defs>
<clipPath id="clip0_531_24118">
<rect width="32" height="33" fill="white" transform="translate(0.31543 0.576599)"/>
</clipPath>
</defs>
</svg>
