<svg width="25" height="25" viewBox="0 0 25 25" fill="none" xmlns="http://www.w3.org/2000/svg">
<path d="M24.3529 12.4441C24.3529 18.7821 19.1556 23.9199 12.7459 23.9199C6.33417 23.9199 1.13721 18.7821 1.13721 12.4441C1.13721 6.10754 6.33417 0.969391 12.7459 0.969391C19.1559 0.969408 24.3529 6.10754 24.3529 12.4441Z" fill="#00979D" stroke="#81C9CB" stroke-miterlimit="10"/>
<path d="M17.1789 16.5479C16.9604 16.5479 16.7366 16.5323 16.5165 16.4999C14.6714 16.2396 13.4376 14.9295 12.7465 13.9224C12.0533 14.9295 10.8196 16.2409 8.97535 16.5009C8.7559 16.5319 8.53449 16.5475 8.3128 16.5475C7.16567 16.5475 6.08878 16.1254 5.27876 15.359C4.46101 14.5863 4.00977 13.5494 4.00977 12.4437C4.00977 11.3366 4.46099 10.3012 5.27994 9.52703C6.08919 8.76054 7.16688 8.33969 8.31449 8.33969C8.5332 8.33969 8.75583 8.35522 8.97518 8.38627C10.8195 8.6463 12.0531 9.95653 12.7464 10.9638C13.4376 9.95653 14.6713 8.64669 16.5162 8.38627C16.7363 8.35509 16.9589 8.33969 17.1777 8.33969C18.3248 8.33969 19.4024 8.76163 20.2116 9.52703C21.0302 10.3012 21.4804 11.3366 21.4804 12.4437C21.4804 13.5494 21.0313 14.5863 20.2128 15.359C19.4021 16.1254 18.3261 16.5479 17.1789 16.5479ZM13.5635 12.4441C13.9239 13.1226 14.9868 14.8155 16.7244 15.0616C16.8765 15.0822 17.0296 15.0937 17.1788 15.0937C18.7396 15.0937 20.0101 13.9053 20.0101 12.4437C20.0101 10.9821 18.7399 9.79372 17.1777 9.79372C17.0285 9.79372 16.8754 9.80425 16.7247 9.82587C14.9869 10.0713 13.9239 11.7643 13.5635 12.4441ZM8.31447 9.79411C6.75161 9.79411 5.48091 10.9825 5.48091 12.4441C5.48091 13.9054 6.75109 15.0941 8.31252 15.0941C8.4624 15.0941 8.61554 15.0826 8.76761 15.062C10.5052 14.816 11.5679 13.124 11.9284 12.4445C11.5689 11.766 10.5052 10.0717 8.76761 9.82708C8.61731 9.80463 8.46379 9.79411 8.31447 9.79411Z" fill="white"/>
<path d="M7.12891 12.0428H9.71299V12.866H7.12891V12.0428ZM18.3391 12.0428H17.4643V11.1767H16.6288V12.0428H15.7543V12.866H16.6288V13.732H17.4643V12.866H18.3391V12.0428Z" fill="white"/>
</svg>
