<svg width="29" height="29" viewBox="0 0 29 29" fill="none" xmlns="http://www.w3.org/2000/svg">
<g clip-path="url(#clip0_509_24837)">
<path d="M25.7178 9.24963C25.6421 9.59491 25.5193 9.85047 25.3534 10.0208L25.2356 9.94517C25.3634 9.61892 25.425 9.42952 25.42 9.3824L25.387 9.33028C25.3444 9.33481 25.2873 9.4481 25.2166 9.67557L25.155 9.68009C25.1519 9.64189 25.1406 9.60481 25.1219 9.57135L25.0933 9.57588L23.7689 13.0527C23.6782 13.3608 23.594 13.5303 23.5228 13.5634C23.5273 13.5965 23.5464 13.6155 23.5844 13.6105C23.598 13.7618 23.5609 13.9086 23.4802 14.0546C23.2392 14.7406 23.0828 15.1194 23.0026 15.1851L23.0547 15.5114C23.0593 15.5444 23.0411 15.568 23.0026 15.568L22.946 15.5725C22.9369 15.4828 22.9034 15.4402 22.8463 15.4448L22.8178 15.4493C22.7466 15.5626 22.69 15.6953 22.6524 15.8467L22.709 15.8421C22.7847 15.795 22.8178 15.7379 22.8132 15.6672L22.9265 15.6582L22.9881 15.6817C22.936 15.7619 22.9125 15.8285 22.917 15.8757L22.9455 15.9278L22.8744 16.0982L22.8789 16.1267C22.9547 16.1236 23.0295 16.1452 23.0919 16.1883C23.153 16.1795 23.2112 16.1568 23.2623 16.1222C23.5019 16.1136 23.7416 16.1104 23.9814 16.1127L24.1898 16.0415L24.7055 16.0279L24.7952 16.0189L24.8423 15.9858L24.8468 16.0143C25.0734 15.9953 25.0929 16.0098 25.2728 16.0334L25.2773 16.0619L25.1495 16.071L25.1541 16.1231C25.1904 16.121 25.2252 16.1077 25.2537 16.085C25.2868 16.0805 25.3059 16.0986 25.3104 16.1371C25.2583 16.1417 25.2016 16.1562 25.1355 16.1752L25.0788 16.1562C24.9891 16.1797 25.0077 16.1847 24.9511 16.1892L24.8613 16.1702C24.8613 16.1838 24.8568 16.1938 24.8423 16.1988C24.8468 16.2318 24.8613 16.2509 24.8944 16.2459L25.0032 16.2368L24.956 16.2178C24.956 16.2314 24.9651 16.2413 24.9846 16.2413L25.4527 16.1988L25.6326 16.1607C25.6326 16.1743 25.6416 16.1842 25.6561 16.1842L25.7413 16.1512L25.9022 16.1376C26.03 16.1285 26.0245 16.1186 26.2946 16.076C26.2946 16.0624 26.2991 16.0524 26.3136 16.0524V16.076L26.8909 15.9581L26.8673 15.9015C26.7205 15.9346 26.7255 15.9151 26.6498 15.9251L26.2574 15.9441L26.2529 15.9156L26.4704 15.887L26.5506 15.8825L26.5932 15.8494L26.5977 15.8779C26.9058 15.8494 27.0146 15.93 28.4474 15.6274C28.523 15.6228 28.5185 15.5562 28.5652 15.4235C28.5386 15.4246 28.5123 15.418 28.4895 15.4044C28.3717 15.4515 28.3096 15.428 28.0826 15.4661C28.0636 15.4661 28.0495 15.4524 28.04 15.4139V15.3904L28.2575 15.3994C28.2956 15.3949 28.3799 15.3904 28.494 15.3238C28.5176 15.3374 28.475 15.3523 28.4986 15.3473L28.5366 15.3428C28.5602 15.3428 28.5697 15.3238 28.5697 15.2862L28.5462 15.2341C28.3993 15.2476 28.3287 15.2531 28.2108 15.3192L28.2063 15.2907L28.0264 15.3097C28.0219 15.2531 28.0074 15.2295 27.9838 15.2295L27.8932 15.2386C27.7845 15.2476 27.7323 15.2431 27.6802 15.2857C27.6802 15.2667 27.6712 15.2572 27.6612 15.2572L27.557 15.2662L27.4954 15.2993C27.4954 15.2803 27.4863 15.2708 27.4763 15.2708L27.4383 15.3038L27.4337 15.2753L27.2919 15.2662L27.2588 15.2708L27.2634 15.3229L27.339 15.3419L27.4052 15.3374C27.4288 15.351 27.4573 15.3564 27.4854 15.3564L27.547 15.3279V15.3514C27.2117 15.4366 27.2117 15.4176 26.9793 15.4602C26.9507 15.4411 26.9321 15.4366 26.9226 15.4366C26.899 15.4602 26.9512 15.4411 26.9362 15.4411C26.8981 15.4457 26.8796 15.4275 26.8746 15.394L26.9924 15.3804C27.0015 15.3804 27.006 15.3895 27.0726 15.404C27.1632 15.3569 27.1723 15.3378 27.2239 15.3328L27.2194 15.2807C26.8886 15.3469 27.0209 15.3043 26.6045 15.3374H26.5855L26.581 15.2852C27.1156 15.2191 26.9358 15.2567 27.1156 15.205C27.1156 15.2241 27.1247 15.2336 27.1347 15.2336C27.1537 15.2146 27.1818 15.2005 27.2103 15.2005L27.2484 15.196C27.4328 15.1824 27.499 15.2195 27.8678 15.1158V15.1393L27.9295 15.1108L27.9861 15.1063C27.9816 15.0496 28.0663 15.0446 28.0903 15.0401L28.0858 14.9835C27.4378 15.1158 27.2674 15.0741 27.0875 15.1303V15.1067C26.9172 15.1398 26.9126 15.1203 26.87 15.1258C26.8565 15.1258 26.837 15.1393 26.8179 15.1588C26.8179 15.1398 26.8089 15.1303 26.7944 15.1303C26.7658 15.1303 26.7808 15.1393 26.7563 15.1634L26.7944 15.1303L26.2316 15.22C26.2316 15.2064 26.2225 15.1964 26.208 15.1964C25.9244 15.2581 25.9996 15.2676 25.6167 15.3007C25.5977 15.3007 25.5741 15.3097 25.5456 15.3292C25.5456 15.3156 25.5365 15.3056 25.517 15.3056L25.2805 15.3247L25.1246 15.3627C25.1246 15.3491 25.1155 15.3392 25.0961 15.3392C25.0063 15.3627 24.9307 15.3772 24.8695 15.3818H24.865C24.8269 15.3863 24.884 15.3727 24.8559 15.3582L24.8088 15.3867C24.7376 15.3913 24.7757 15.3822 24.5392 15.3867L24.1223 15.4484L23.9664 15.4393C23.9664 15.4529 23.9619 15.4629 23.9429 15.4679C23.768 15.4443 23.6778 15.4157 23.6733 15.3827C23.6968 15.2173 23.7349 15.1321 23.7956 15.1226L23.8241 15.118L23.7956 15.1747L23.8241 15.1702C23.8808 15.1416 23.9043 15.1135 23.9043 15.085L23.8998 15.0283L23.8432 15.0329L23.8386 14.9807C23.8341 14.9382 23.8386 14.9051 23.8522 14.872L23.98 14.6681L23.9845 14.7202L24.0462 14.7157L24.0416 14.6636L24.0086 14.6114C24.0512 14.5734 24.0888 14.5498 24.1173 14.5498L24.1128 14.5213L24.0326 14.5258L24.028 14.4456C24.1889 14.1049 24.2691 13.9019 24.2646 13.8543L24.3212 13.8778C24.3593 13.8733 24.3779 13.8543 24.3733 13.8162L24.3167 13.8207V13.7972C24.3129 13.7583 24.3195 13.719 24.3357 13.6834C24.4254 13.5937 24.4635 13.499 24.4535 13.3998C24.4726 13.3998 24.4821 13.4089 24.4821 13.4283C24.5578 13.3857 24.6144 13.2725 24.657 13.0831C24.7893 12.842 24.9742 12.3594 25.2248 11.6403C25.6978 10.3679 25.6788 10.2356 25.7449 9.93294L25.6883 9.93746C25.6928 9.97553 25.6838 10.0131 25.6647 10.0462C25.636 10.0343 25.6059 10.0264 25.575 10.0227V9.9991C25.566 9.89035 25.6131 9.75803 25.7168 9.6017H25.7404L25.7875 9.78613L25.8442 9.78159C25.8555 9.70691 25.8697 9.6327 25.8868 9.55911C25.8822 9.53056 25.8632 9.51651 25.8206 9.51198L25.7685 9.54506C25.764 9.507 25.7685 9.40776 25.773 9.24237L25.7178 9.24963ZM25.0367 10.068L25.0653 10.0634C25.0227 10.1391 24.9896 10.1812 24.9565 10.1858L24.952 10.1056C24.9755 10.101 25.0041 10.092 25.0372 10.0675L25.0367 10.068ZM24.8002 10.6357C24.8568 10.4037 24.9135 10.2714 24.9656 10.2383L24.9701 10.2669C24.9415 10.4844 24.8944 10.5931 24.8283 10.6022L24.8373 10.7395C24.7852 10.8106 24.7617 10.8673 24.7662 10.9099L24.7376 10.9144L24.724 10.725C24.7526 10.7205 24.7807 10.6919 24.7997 10.6353L24.8002 10.6357ZM24.7105 10.9439C24.715 10.9769 24.6914 11.0526 24.6488 11.1704L24.6203 11.175L24.6158 11.0948C24.6488 11.0041 24.6819 10.9529 24.7064 10.9479L24.7105 10.9439ZM23.1544 14.3876L23.183 14.4397C23.2256 14.4352 23.2446 14.4162 23.2396 14.3831L23.2351 14.3545L23.2065 14.3591L23.1544 14.3876ZM23.9021 15.007V15.0306C23.9447 15.0261 23.9873 14.9504 24.0244 14.804L23.9678 14.785C23.9207 14.9128 23.9016 14.9835 23.9016 15.0116L23.9021 15.007ZM28.6889 15.1724V15.196L28.6418 15.2526L28.7315 15.2195H28.7405L28.736 15.1674H28.717L28.6839 15.196C28.6839 15.1824 28.7836 15.1534 28.7075 15.1393C28.6939 15.1629 28.7315 15.1679 28.6889 15.1724ZM28.8733 15.3428L29.0011 15.3337C28.9966 15.3007 28.9159 15.2911 28.8878 15.2911H28.8643L28.8733 15.3428ZM26.6077 15.3899L26.6458 15.4371C26.6458 15.4235 26.6503 15.4135 26.6648 15.4135L26.6933 15.4656L26.5755 15.452C26.5665 15.4139 26.58 15.3954 26.6086 15.3904L26.6077 15.3899ZM26.2198 15.4325C26.2624 15.428 26.291 15.4561 26.291 15.4941H26.1586V15.4706C26.1722 15.466 26.1967 15.457 26.2203 15.4325H26.2198ZM26.5225 15.4189L26.527 15.4475L26.4183 15.4565L26.4138 15.428L26.5225 15.4189ZM25.425 15.5322C25.425 15.5458 25.4341 15.5558 25.4536 15.5558L25.6946 15.5086C25.7232 15.5041 25.7372 15.5222 25.7418 15.5558L25.2547 15.5984L25.3018 15.6219L25.2973 15.5934L25.1128 15.607L25.1083 15.5784L25.2737 15.5648L25.425 15.5322ZM25.9266 15.4896V15.5132C25.913 15.5132 25.9738 15.5177 25.9457 15.5417C25.8415 15.5327 25.8369 15.5227 25.7613 15.5281V15.5046L25.9266 15.4896ZM26.049 15.476V15.4996L25.9593 15.5086V15.4851L26.049 15.476ZM23.0221 15.9586L23.0266 16.0388C22.9981 16.0433 22.9745 16.0252 22.965 15.9867V15.9631L23.0221 15.9586ZM27.0712 15.8875L27.0758 15.9396L27.1664 15.9305L27.1283 15.9069L27.1329 15.9355L27.2235 15.8974C27.8715 15.8263 27.9471 15.8548 27.9376 15.7796V15.756C27.2851 15.9029 27.1999 15.8739 27.0631 15.8884L27.0712 15.8875ZM28.0835 15.7977L28.1741 15.8168L28.1696 15.7647L28.079 15.7456L28.0835 15.7977ZM25.2832 15.9822C25.3118 15.9958 25.2501 16.0107 25.2877 16.0057L25.6185 15.9772L25.623 16.0057C25.5324 16.0148 25.4672 16.0293 25.4481 16.0483C25.4481 16.0293 25.4391 16.0198 25.4196 16.0198L25.2778 16.0334L25.2732 16.0048C25.3113 16.0003 25.2542 16.0003 25.2823 15.9813L25.2832 15.9822ZM26.8157 15.9441L26.8442 15.9962C26.953 15.9726 26.8913 15.9772 26.9199 15.9536C26.9199 15.9726 26.929 15.9822 26.9389 15.9822L27.0146 15.9776L27.0101 15.921L26.8116 15.9165L26.8157 15.9441ZM24.9425 16.148H24.9234L24.9189 16.0959H24.9379L24.9425 16.148ZM23.4621 16.3279L23.4666 16.3564L24.3366 16.2853L24.3321 16.2332L23.6365 16.2898L23.4897 16.2708L23.4621 16.3279ZM24.4318 16.2758H24.4408L24.4363 16.2237H24.4273L24.4318 16.2758ZM11.1869 11.7065L10.2354 12.9222C9.9848 13.1823 9.86155 13.3391 9.87605 13.3903C9.80989 13.4329 9.78542 13.4755 9.79086 13.5226C9.77183 13.5271 9.75778 13.5181 9.7528 13.499C9.64405 13.6739 9.48772 13.7827 9.27521 13.8343L9.04864 13.8865C9.0201 13.891 9.00605 13.915 9.00605 13.9526L9.01058 13.9812L9.09577 13.9621L9.1003 13.9857L8.91089 14.0568L8.57558 14.1325L8.40067 14.1416C8.37711 14.1651 8.53797 14.137 8.47635 14.1552L8.25885 14.2073C8.12653 14.2403 8.05041 14.2263 8.04135 14.1742L8.01778 14.1787C8.03138 14.2308 8.01778 14.2639 7.97972 14.2693L8.02232 14.2603L8.00328 14.1801L7.60589 14.2707L7.64849 14.2897C7.64396 14.2707 7.62492 14.2662 7.58686 14.2761L7.53475 14.3187L7.47313 14.3051C7.41649 14.3382 7.3825 14.3572 7.36891 14.3572L7.30728 14.3437C7.14189 14.4343 7.26469 14.4343 7.25517 14.4343L7.26877 14.4864L7.35939 14.4628L7.50621 14.4538L7.49261 14.5154C6.94886 14.6572 7.3458 14.577 7.19944 14.606L7.17089 14.6105L7.18449 14.6627L7.26967 14.6436L7.27421 14.6722C7.16546 14.6957 7.10383 14.7193 7.0848 14.7433L7.08027 14.7148C6.93844 14.7478 6.79661 14.8566 6.65433 15.032C6.67789 15.1362 6.37067 15.2639 7.81796 14.9277L7.98833 14.9187C7.9838 14.8996 7.99286 14.8901 8.01189 14.8856C8.17275 14.8666 8.09708 14.8947 8.19631 14.872L8.5135 14.8009L8.44735 14.8389C8.44281 14.8253 8.45188 14.8154 8.46638 14.8104C8.50444 14.8194 8.54205 14.8149 8.58419 14.8058L8.60322 14.8861L7.36846 16.8445L7.09432 17.1852L6.962 17.6347L6.98557 17.6302L7.11788 17.5735L7.07528 17.7484L7.08888 17.8006L7.12694 17.8477C7.10791 17.8522 7.10338 17.8613 7.10791 17.8807V17.9093L7.16455 17.8957C7.24475 17.8246 7.27783 17.7584 7.26877 17.7018C7.35849 17.7154 7.41558 17.7208 7.44367 17.7154L7.44821 17.7439C7.3961 17.7575 7.368 17.8005 7.36302 17.8717L7.36755 17.9002L7.3961 17.8957C7.8456 17.4086 8.93808 15.7388 9.81805 14.6037C9.7895 14.4814 10.2485 14.3106 11.1946 14.0931L11.2232 14.0885C11.2563 14.2354 11.1851 14.5947 11.0057 15.167L10.8403 15.7298L10.6273 16.4729L10.292 17.5704C10.0745 18.1331 9.90867 18.7245 9.79539 19.3489C9.81442 19.3443 9.8475 19.3489 9.88511 19.3579L9.93224 19.3153C9.93677 19.3344 9.94583 19.3389 9.9703 19.3389L9.95127 19.2587L10.0981 19.2542C10.1407 19.2451 10.1783 19.188 10.2068 19.0888C10.2023 18.942 10.2304 18.8622 10.2965 18.8427L10.4619 18.3081C10.5471 17.9582 10.6088 17.7643 10.6513 17.7072C10.7791 17.2532 10.8688 17.0166 10.9305 17.0026L10.9441 17.0592L10.8543 17.3003C10.6935 18.0144 10.5281 18.5826 10.3623 18.9986L10.4094 19.207L10.4379 19.2025C10.8398 18.3416 11.4121 16.6387 12.1598 14.094C12.1682 13.9885 12.2013 13.8864 12.2564 13.7961C12.3115 13.7057 12.387 13.6296 12.477 13.5738L12.4344 13.5312L12.4299 13.5076C12.515 13.4886 12.5767 13.4555 12.6098 13.408C12.6052 13.3889 12.5295 13.3608 12.3832 13.3228L12.8273 11.4215C12.9596 10.8537 13.0538 10.3566 13.0969 9.92614L13.0923 9.8976C13.0026 9.84096 12.9124 9.76029 12.8322 9.65653V9.54325L12.8277 9.51968L12.8041 9.52422C12.53 9.94109 11.9813 10.6643 11.1729 11.6992L11.1869 11.7065ZM11.8159 12.1369C11.8394 12.2366 11.8023 12.4206 11.7071 12.6897C11.6786 13.0305 11.5558 13.2244 11.3428 13.2761L11.3383 13.2476L11.1489 13.3187L11.0637 13.3377C11.0211 13.3468 10.9835 13.3468 10.9459 13.3332L10.9268 13.2575C10.9223 13.229 11.1919 12.8506 11.7497 12.127L11.8159 12.1369ZM11.3809 13.3151L11.4425 13.3015L11.4561 13.3536L10.9595 13.5004C10.9296 13.51 10.9022 13.5261 10.8793 13.5475C10.8747 13.5285 10.8367 13.5285 10.7615 13.543C10.7479 13.4909 10.9554 13.4152 11.3809 13.3164V13.3151ZM8.44372 14.1098L8.50988 14.0962L8.49628 14.0396L8.43013 14.0532L8.44372 14.1098ZM9.30466 13.8833L9.31825 13.9354L9.17642 13.9445L9.17189 13.9159L9.30466 13.8833ZM7.64894 14.427L7.65347 14.4556L7.56375 14.4746L7.55922 14.4461L7.64894 14.427ZM7.48355 14.7723L7.48808 14.7959L7.37933 14.8194L7.36574 14.7673L7.48355 14.7723ZM7.74364 14.7157L7.74817 14.7392L7.54971 14.7864L7.54517 14.7628L7.74364 14.7157ZM8.08892 14.659L8.09346 14.6876L7.57327 14.8054L7.55967 14.7533C7.86236 14.7012 7.82928 14.7202 8.08983 14.6627L8.08892 14.659ZM10.6953 14.0537L10.7379 14.1008C10.6763 14.1144 10.6291 14.1339 10.6056 14.1574L10.544 14.1484C10.4645 14.1823 10.3821 14.2092 10.2979 14.2286L10.2413 14.2422C10.2082 14.2512 10.1846 14.2376 10.1701 14.2041L10.5625 14.1144L10.6953 14.0537ZM10.9744 13.992L11.2535 13.9259L11.2581 13.9544C11.1067 13.9875 10.9885 14.0256 10.9033 14.0677L10.8988 14.0392C10.9223 14.0346 10.9459 14.0156 10.9744 13.992ZM8.0418 14.7868L8.17411 14.7583L8.18771 14.8104C8.13107 14.824 8.17411 14.824 8.10252 14.8575C7.96522 14.8711 7.99377 14.853 7.77627 14.9046L7.77174 14.8761L8.0418 14.7868ZM8.40113 14.7252C8.43919 14.7161 8.46275 14.7297 8.46728 14.7678L8.38708 14.7868C8.354 14.7959 8.33044 14.7823 8.31594 14.7442L8.40113 14.7252ZM6.92077 17.7145L6.9253 17.743C6.96336 17.7339 6.97741 17.7145 6.96789 17.6768L6.96336 17.6483C6.93028 17.6574 6.91624 17.6768 6.92077 17.7145ZM7.03405 18.1875C7.04311 18.2206 7.0626 18.2346 7.10021 18.2256C7.13781 18.2165 7.15231 18.197 7.1428 18.1594L7.13827 18.1309L7.08163 18.1445L7.03405 18.1875ZM10.0519 19.0009C10.0899 18.9918 10.1085 19.0054 10.118 19.0389L10.1225 19.0675L10.0138 19.0911C10.0229 19.053 10.0229 19.0249 10.0183 19.0059L10.0519 19.0009Z" fill="black"/>
<path d="M14.441 10.2479C14.1715 10.4393 13.892 10.6161 13.6036 10.7776L13.6081 10.8297C13.6271 10.8297 13.6552 10.8161 13.6933 10.7916C13.7314 10.7871 13.7499 10.8052 13.7549 10.8388L13.807 10.8102H13.8306V10.8338C13.8351 10.8623 13.6367 11.0137 13.2488 11.2878L13.2773 11.3445H13.2538L13.1921 11.3209C13.1921 11.3399 13.1686 11.354 13.1119 11.359V11.3825L13.1736 11.4582C13.1423 11.4572 13.1116 11.4491 13.0838 11.4346C12.9561 11.4437 12.8333 11.5389 12.71 11.7088L12.7386 11.7609C12.8473 11.6612 12.9089 11.6095 12.928 11.6095L12.9325 11.6897C12.9135 11.6897 12.8854 11.7033 12.8473 11.7278L12.9185 11.8275C13.0427 11.6901 13.1842 11.5693 13.3394 11.4682C13.4151 11.4917 13.4572 11.5153 13.4572 11.5393L13.5139 11.5348C13.9398 11.2176 14.3558 11.0001 14.7672 10.8632V10.9154C14.6915 11.0286 14.6394 11.0857 14.6113 11.0903C14.6159 11.1283 14.6249 11.1614 14.6444 11.1945C14.6489 11.2656 14.4645 11.7382 14.0862 12.6137C13.2252 14.6428 12.4971 16.1471 11.9103 17.1213C11.9103 17.1404 11.9238 17.1685 11.9483 17.2015C12.0951 17.1685 12.1848 17.1304 12.2225 17.0973H12.246L12.2506 17.1494L12.3122 17.1449L12.3643 17.1164C12.3643 17.13 12.3833 17.1399 12.4209 17.1354L12.4255 17.192C12.43 17.2441 12.3969 17.3243 12.3357 17.4381C12.2741 17.5042 12.208 17.6465 12.1418 17.8595L12.1463 17.888L12.203 17.8835C12.4395 17.6184 12.6144 17.3633 12.7377 17.1078C13.4237 16.9038 13.9439 16.7104 14.3082 16.5164C14.677 16.4833 14.9516 16.3886 15.1406 16.2328L15.1361 16.2042L14.9942 16.2468L14.9657 16.2514L14.9611 16.2228C15.2308 16.1847 15.4152 16.1231 15.514 16.0429C16.0341 15.641 16.427 15.3569 16.6921 15.191C17.515 14.5857 17.9028 14.0129 17.8557 13.451C17.8512 13.3944 17.6713 13.1674 17.312 12.77C17.3074 12.6943 17.4298 12.5856 17.6808 12.4437L18.3999 11.8193C18.5608 11.6154 18.6555 11.2846 18.6836 10.8261L18.6745 10.7219C18.646 10.4047 18.4144 10.1496 17.979 9.95065C17.7189 9.77574 17.2553 9.68103 16.5879 9.662C16.0441 9.70006 15.325 9.89853 14.431 10.2483L14.441 10.2479ZM18.2912 10.286L18.2626 10.3426L17.4678 10.0073C18.0025 10.0309 18.2767 10.1206 18.2907 10.2864L18.2912 10.286ZM15.0649 12.4995C15.1216 12.2013 15.1827 12.0359 15.2493 11.9979L15.8502 10.6543C15.8456 10.5741 15.968 10.5075 16.2285 10.4604L16.3137 10.4513L16.3183 10.5315C16.5738 10.489 16.7297 10.4654 16.7958 10.4604C17.2689 10.4178 17.515 10.517 17.5335 10.7441L17.5902 10.7395L17.5811 10.6118L17.6378 10.6072C17.7751 10.6829 17.8462 10.7726 17.8553 10.8814C17.8598 10.957 17.8222 11.0517 17.742 11.165C17.7039 11.1696 17.6853 11.1415 17.6803 11.0894L17.6237 11.0939L17.6047 11.2547C17.3636 11.6191 17.1932 11.7985 17.0845 11.813C16.9939 11.9453 16.9286 12.0115 16.9001 12.0115C16.8244 12.1012 16.6209 12.2575 16.2852 12.4705C16.1719 12.4795 15.7596 12.6408 15.0459 12.953C15.0099 12.9389 14.9709 12.9342 14.9326 12.9395L14.9281 12.8873C14.919 12.7877 14.9657 12.6608 15.0649 12.4995ZM18.3664 10.8437L18.3709 10.9004C18.3424 10.9004 18.2907 10.8152 18.2055 10.6448L18.201 10.5927C18.2531 10.5882 18.3097 10.6734 18.3664 10.8437ZM13.1255 11.4872L13.1301 11.5157C13.111 11.5157 13.0829 11.5293 13.0449 11.5488H13.0213L13.0168 11.4967L13.1255 11.4872ZM14.861 11.4446L14.8655 11.5248C14.837 11.5248 14.8039 11.5674 14.7613 11.6381L14.7568 11.586C14.8039 11.5243 14.8279 11.4772 14.8279 11.4441L14.861 11.4446ZM14.5914 12.0028L14.6005 12.1071L14.5719 12.1116L14.5628 12.0074L14.5914 12.0028ZM14.5252 12.1968C14.5207 12.2865 14.4967 12.3341 14.4541 12.3386L14.4256 12.3431C14.4586 12.2815 14.4727 12.2344 14.4681 12.2013L14.5252 12.1968ZM14.4029 12.4759L14.4074 12.5045L14.3603 12.5897L14.3037 12.5942L14.2991 12.5656C14.3558 12.5611 14.3843 12.5326 14.3793 12.4759H14.4029ZM14.2851 12.7265L14.2661 12.8638H14.2425L14.2334 12.7265H14.2851ZM17.1987 12.8262L17.3165 12.8973C17.321 12.9304 17.3029 12.954 17.2644 12.954C17.2123 12.9209 17.1747 12.9068 17.1466 12.9114V12.8312L17.1987 12.8262ZM14.9186 13.1289L14.9231 13.181L14.8098 13.19L14.8053 13.1379L14.9186 13.1289ZM16.7582 13.3228C16.8384 13.3609 16.8761 13.3939 16.8806 13.4225V13.4461C16.8049 13.4506 16.7338 13.413 16.6676 13.3282L16.7582 13.3228ZM14.3884 13.9046C14.7056 13.8761 15.2163 13.7247 15.9109 13.4506L16.0858 13.437C16.4356 13.4084 16.6962 13.475 16.8711 13.6409L16.8801 13.7451C16.7523 14.114 16.6105 14.3315 16.4542 14.3976L15.7401 14.9749C15.2054 15.3247 14.9172 15.5005 14.8701 15.5051C14.0182 15.9731 13.4889 16.2146 13.281 16.2337L13.2524 16.2382C13.2714 16.1385 13.6498 15.3637 14.3875 13.9064L14.3884 13.9046ZM15.1596 13.5965L15.1641 13.625L15.0509 13.6341L15.0463 13.6055L15.1596 13.5965ZM17.7424 13.4787L17.7615 13.6962C17.7329 13.7483 17.7093 13.7764 17.6813 13.7814L17.6482 13.4125C17.7098 13.4315 17.7388 13.4551 17.7388 13.4787H17.7424ZM13.3766 15.3329C13.3385 15.5128 13.3009 15.607 13.2633 15.607V15.5834C13.2497 15.4983 13.2868 15.4131 13.3766 15.3329ZM14.0907 16.3451C14.2991 16.3071 14.871 16.0098 15.8126 15.4466L15.8171 15.4987C15.8171 15.5223 15.7414 15.5893 15.576 15.7071C15.103 15.9437 14.8193 16.0996 14.7341 16.1802C14.2185 16.3601 13.9629 16.4734 13.9638 16.5155C13.5048 16.6954 13.2071 16.8327 13.0603 16.9129C13.0272 16.9174 12.9751 16.9039 12.9135 16.8703C12.9044 16.7797 12.9466 16.7049 13.0358 16.6438C13.113 16.6378 13.1906 16.6491 13.2628 16.6768C13.348 16.6342 13.4948 16.5871 13.7069 16.53L13.7024 16.4779L13.5275 16.4915C13.5465 16.4584 13.7119 16.3828 14.0196 16.2595L14.1047 16.2504V16.274C13.9579 16.2876 13.8782 16.3306 13.8587 16.4063C13.8632 16.4394 13.8823 16.4584 13.9203 16.4534C14.0381 16.3968 14.0907 16.3538 14.0907 16.3402V16.3451ZM13.2062 15.6972V15.7207C13.2107 15.7588 13.1926 15.7824 13.1541 15.7824L13.1496 15.7538C13.1496 15.7302 13.1686 15.7067 13.2062 15.6972ZM14.5497 16.066C14.4836 16.0706 14.3558 16.1276 14.1664 16.2314L14.1378 16.2359L14.1333 16.1838C14.2706 16.1702 14.3934 16.1177 14.4881 16.023C14.5261 16.0184 14.5447 16.032 14.5497 16.0656V16.066ZM13.1586 16.4539L13.2438 16.4448L13.2483 16.4734C13.2293 16.4734 13.2012 16.487 13.1631 16.5065L13.1065 16.511C13.102 16.4824 13.1201 16.4639 13.1586 16.4544V16.4539ZM12.5863 16.7711L12.643 16.7947C12.6239 16.96 12.5718 17.0452 12.4961 17.0502C12.43 17.0217 12.3738 17.0076 12.3212 17.0121L12.3167 16.9319C12.3122 16.9034 12.3303 16.8848 12.3688 16.8753C12.4069 16.8708 12.4255 16.8989 12.4304 16.951C12.5211 16.8332 12.5773 16.7711 12.5863 16.7711ZM3.31085 10.0118C2.99366 10.2483 2.62029 10.4799 2.20885 10.7074L2.21338 10.7785C2.24193 10.7785 2.275 10.7595 2.32213 10.7359C2.36925 10.7314 2.3978 10.7495 2.3978 10.7975L2.47347 10.7549L2.51154 10.7504L2.51607 10.7835C2.5206 10.8166 2.2605 11.02 1.74485 11.3843L1.78744 11.4505L1.74938 11.455L1.66918 11.4265C1.66918 11.45 1.6361 11.4645 1.56043 11.4691L1.56496 11.5071L1.65014 11.5977C1.6216 11.5977 1.58399 11.5932 1.53686 11.5742C1.37147 11.5878 1.20608 11.7115 1.04477 11.9385L1.08736 12.0047C1.22919 11.8769 1.31393 11.8107 1.33341 11.8107L1.34247 11.9149C1.31891 11.9149 1.28085 11.934 1.23372 11.9575L1.32344 12.0898C1.48845 11.9085 1.67785 11.751 1.88622 11.6218C1.99044 11.6503 2.0421 11.6784 2.0421 11.7124L2.11777 11.7079C2.67058 11.2964 3.21977 11.0033 3.76397 10.8188L3.7685 10.89C3.66882 11.0413 3.59813 11.1165 3.56007 11.122C3.56496 11.1716 3.58294 11.2189 3.61218 11.2593C3.62124 11.3499 3.37564 11.9734 2.87449 13.1275C1.72627 15.8009 0.775613 17.7784 0.00439453 19.0653C0.00439453 19.0888 0.0234258 19.1269 0.0469883 19.1695C0.236395 19.1224 0.364176 19.0798 0.411301 19.0322L0.453895 19.0276L0.458426 19.0988L0.529566 19.0943L0.605238 19.0517C0.605238 19.0752 0.633785 19.0847 0.68091 19.0802L0.685441 19.1514C0.689973 19.2225 0.652363 19.3312 0.563098 19.4776C0.482895 19.5673 0.402238 19.7517 0.31252 20.0304V20.0635L0.38366 20.059C0.691785 19.7137 0.92741 19.3729 1.08827 19.0421C1.9918 18.7771 2.67738 18.5165 3.15543 18.2619C3.63302 18.2193 4.00277 18.0965 4.24293 17.888L4.23839 17.85L4.0585 17.9021L4.01591 17.9066L4.01138 17.8686C4.36119 17.8164 4.60724 17.7362 4.74 17.632C5.42604 17.1019 5.94078 16.7285 6.2915 16.5065C7.379 15.7117 7.8856 14.9454 7.82397 14.2173C7.81944 14.1416 7.57793 13.8434 7.10985 13.3233C7.10079 13.2236 7.26572 13.0822 7.59696 12.8928L8.5381 12.0649C8.74654 11.7953 8.87341 11.3603 8.91646 10.7599L8.90286 10.6181C8.8648 10.1967 8.56211 9.85685 7.98528 9.5963C7.64453 9.3643 7.03463 9.24151 6.15466 9.22746C5.43102 9.29361 4.47538 9.54465 3.30224 10.0032L3.31085 10.0118ZM8.38585 10.0734L8.3573 10.1446L7.30741 9.70505C8.00749 9.73359 8.36682 9.8564 8.38585 10.0739V10.0734ZM4.13825 12.987C4.20939 12.5992 4.2896 12.3767 4.37932 12.3255L5.16458 10.561C5.15552 10.4523 5.32046 10.3671 5.66619 10.3104L5.77947 10.3014L5.78854 10.4011L6.41747 10.3113C7.04188 10.2592 7.3636 10.3825 7.39169 10.6897L7.46283 10.6852L7.44924 10.5053L7.52491 10.5007C7.70933 10.6004 7.80857 10.7273 7.81808 10.8696C7.82714 10.9693 7.77549 11.0961 7.65722 11.2384C7.6101 11.243 7.58155 11.2099 7.57702 11.1387L7.50135 11.1433L7.48232 11.3562C7.16513 11.8293 6.93857 12.0704 6.79628 12.0849C6.6685 12.2598 6.58785 12.3499 6.55522 12.3545C6.45553 12.4723 6.18638 12.6717 5.74186 12.9598C5.59505 12.9734 5.0513 13.1864 4.11061 13.5942C4.06362 13.5715 4.01094 13.5633 3.95927 13.5707L3.95474 13.5045C3.94568 13.3672 4.00186 13.1964 4.13916 12.9888L4.13825 12.987ZM8.48508 10.8111L8.48961 10.8773C8.45155 10.8818 8.38086 10.7685 8.27664 10.542L8.27211 10.4758C8.33827 10.4668 8.40941 10.58 8.48508 10.8111ZM1.57946 11.653L1.58399 11.6861C1.56043 11.6861 1.52236 11.7051 1.47524 11.7287L1.43718 11.7332L1.43264 11.6671L1.57946 11.653ZM3.86411 11.5964L3.87318 11.7006C3.8401 11.7051 3.79297 11.7527 3.73588 11.852L3.73135 11.7808C3.7975 11.7006 3.83104 11.639 3.83104 11.5964H3.86411ZM3.5143 12.3341L3.52789 12.4759L3.48983 12.4804L3.47624 12.3386L3.5143 12.3341ZM3.42458 12.5897C3.41552 12.7075 3.38652 12.7695 3.32489 12.7741H3.28683C3.32943 12.6939 3.35299 12.6368 3.34846 12.5942L3.42458 12.5897ZM3.26871 12.9585L3.27324 12.9916L3.20708 13.1049L3.13594 13.1094V13.0763C3.20708 13.0718 3.24016 13.0337 3.23563 12.963L3.26871 12.9585ZM3.10785 13.2893L3.08882 13.4642L3.05075 13.4687L3.03716 13.2938L3.10785 13.2893ZM6.944 13.4171L7.09988 13.5077C7.10441 13.5548 7.08085 13.5833 7.03372 13.5879C6.96757 13.5453 6.91591 13.5263 6.87785 13.5263L6.86879 13.422L6.944 13.4171ZM3.93979 13.819L3.94432 13.8851L3.7975 13.8987L3.79297 13.8326L3.93979 13.819ZM6.36174 14.065C6.46596 14.1121 6.51761 14.1556 6.5226 14.1973L6.52713 14.2304C6.42744 14.2395 6.33772 14.1878 6.25299 14.0745L6.36174 14.065ZM3.23518 14.8353C3.66111 14.7973 4.33264 14.5988 5.24524 14.2395L5.4718 14.2204C5.93535 14.1824 6.28063 14.2676 6.50764 14.4855L6.52124 14.6273C6.35086 15.1194 6.16191 15.4031 5.95846 15.4883L5.01233 16.2405C4.30772 16.704 3.92483 16.936 3.87227 16.9406C2.75124 17.56 2.05071 17.8772 1.78155 17.9012L1.73896 17.9057C1.77702 17.7734 2.27364 16.7516 3.23427 14.8313L3.23518 14.8353ZM4.25697 14.4334L4.2615 14.4665L4.11016 14.4801L4.10563 14.447L4.25697 14.4334ZM7.65314 14.2821L7.67671 14.5612C7.64363 14.6369 7.61055 14.6745 7.57249 14.6745L7.52989 14.1824C7.6101 14.2155 7.64771 14.2485 7.65224 14.2821H7.65314ZM1.89664 16.7226C1.84952 16.9637 1.79696 17.0869 1.7453 17.0914L1.74077 17.0584C1.73171 16.936 1.78336 16.8264 1.89664 16.723V16.7226ZM2.84277 18.0566C3.11691 18.0045 3.8691 17.6071 5.10839 16.8785L5.11293 16.9446C5.11746 16.9732 5.00871 17.0624 4.79574 17.2188C4.1668 17.5269 3.7975 17.739 3.68875 17.8477C3.00771 18.0842 2.67194 18.231 2.67647 18.2872C2.0711 18.5283 1.67371 18.7041 1.48475 18.8129C1.44216 18.8174 1.376 18.7993 1.29082 18.7608C1.28175 18.6384 1.33341 18.5342 1.45621 18.4581C1.56043 18.449 1.66464 18.4626 1.75889 18.5052C1.87218 18.4486 2.06702 18.3829 2.34524 18.3158L2.34071 18.2446L2.11414 18.2637C2.14269 18.2256 2.35521 18.1264 2.76211 17.961L2.87539 17.9519L2.87993 17.985C2.69052 17.9986 2.58177 18.0607 2.56274 18.1599C2.56727 18.2025 2.59128 18.2261 2.63841 18.2215C2.77571 18.1309 2.84685 18.0747 2.84685 18.0607L2.84277 18.0566ZM1.67914 17.1957L1.68368 17.2287C1.68821 17.2759 1.66464 17.3044 1.61752 17.3089L1.61299 17.2759C1.60846 17.2333 1.63202 17.2047 1.67914 17.1957ZM3.44814 17.6782C3.35843 17.6873 3.19258 17.7584 2.942 17.9048L2.90394 17.9093L2.89941 17.8382C3.07483 17.8265 3.23983 17.7507 3.36296 17.6252C3.41507 17.6162 3.44316 17.6388 3.44814 17.6819V17.6782ZM1.61299 18.1889L1.72627 18.1798V18.2179C1.69772 18.2179 1.66464 18.2369 1.61752 18.2605L1.54638 18.265C1.54185 18.232 1.55997 18.2034 1.608 18.1894L1.61299 18.1889ZM0.860801 18.6103L0.941004 18.6434C0.912457 18.8564 0.851285 18.9606 0.742535 18.9742C0.670284 18.9395 0.590574 18.9234 0.510535 18.9271L0.501473 18.8228C0.496941 18.7802 0.520504 18.7567 0.572613 18.7426C0.619738 18.7381 0.648285 18.7712 0.652816 18.8423C0.780598 18.6864 0.851285 18.6103 0.861254 18.6103H0.860801ZM21.8437 9.31582L21.782 9.29226L20.7747 9.44813C20.7367 9.4291 20.6896 9.41958 20.6374 9.42457C20.5808 9.4291 20.4956 9.44813 20.3678 9.48121L19.8807 9.68512L19.9188 9.74674C19.9423 9.74674 19.9754 9.73315 20.0185 9.70868L20.1888 9.72228L20.1653 9.88313C20.0094 9.95427 19.9147 10.058 19.8911 10.2003C19.6546 10.3045 19.5363 10.3802 19.5363 10.4269L19.5409 10.4554L19.5789 10.4509L19.6451 10.4178L19.7208 10.5075L19.7298 10.6299C19.7344 10.6679 19.3324 11.5144 18.5291 13.1651C17.8335 14.7542 17.4696 15.6247 17.4316 15.781C17.1951 15.8472 17.0532 15.9464 17.0147 16.0742C17.0192 16.1168 17.0904 16.1403 17.2277 16.1544L17.2322 16.216L17.1706 16.3202L17.1796 16.4426C17.1842 16.5087 17.3595 16.5558 17.6998 16.5939C17.6998 16.5703 17.7089 16.5608 17.7329 16.5559C17.7374 16.6315 17.7193 16.7824 17.6668 17.0099L17.7048 17.0054C17.8466 16.8114 17.9133 16.6791 17.9087 16.6034L17.9373 16.5989C17.9703 16.5944 18.0084 16.637 18.0506 16.7212C18.008 16.7403 17.8566 17.0806 17.6011 17.7476L17.6391 17.8092L17.6772 17.8047C17.9944 17.0053 18.1928 16.5608 18.273 16.4756L20.4254 16.2581L20.487 16.2201C20.487 16.2436 20.5006 16.2532 20.5251 16.2486L20.5912 16.2441L20.6528 16.206C20.6528 16.2296 20.6664 16.2391 20.6909 16.2346L21.4621 16.1684C21.666 16.1494 21.7648 16.0882 21.7553 15.984C21.7508 15.9555 21.8731 15.9224 22.1196 15.8934C22.1551 15.8947 22.1902 15.9011 22.2238 15.9124C22.2238 15.8934 22.3416 15.8744 22.5881 15.8508C22.5927 15.723 22.6353 15.6523 22.7105 15.6469V15.5853C22.6443 15.5898 22.5637 15.6088 22.474 15.6374C22.3131 15.6283 22.2089 15.6183 22.1658 15.5993C22.1232 15.6229 22.0902 15.6374 22.0661 15.6374L21.5224 15.6564L21.4562 15.6895C21.4562 15.6704 21.4426 15.6609 21.4182 15.6659L21.3896 15.6704L21.3185 15.7035C21.3185 15.6845 21.2618 15.6704 21.1481 15.6564L21.082 15.6945L20.9496 15.7035L20.9451 15.6704C21.6357 15.5948 21.981 15.5001 21.9714 15.3868C22.014 15.3822 22.0376 15.4058 22.0426 15.4484L22.2465 15.3963L22.242 15.3347L20.5862 15.3818C20.5862 15.4054 20.5772 15.4149 20.5532 15.4199L20.3493 15.4008C20.3029 15.4033 20.2584 15.4198 20.2215 15.448L20.1458 15.4194C19.9374 15.4384 19.7815 15.462 19.6777 15.4951C19.5201 15.4849 19.362 15.4864 19.2047 15.4996L18.8308 15.5327L18.6605 15.5137C18.6514 15.4049 18.8644 14.8657 19.3039 13.896C19.4317 13.5698 19.5499 13.3659 19.6587 13.2906C19.6823 13.2906 19.7153 13.2952 19.7629 13.3142L20.028 13.2245L20.1653 13.248C20.3918 13.229 20.6574 13.1629 20.9601 13.0541C21.0357 13.0496 21.0924 13.0541 21.1304 13.0677L21.3343 13.0206L21.9352 12.9685C22.2177 12.9397 22.4965 12.8826 22.7676 12.7981L22.7631 12.7365C22.6498 12.7455 22.5927 12.7274 22.5881 12.6843C22.5791 12.5992 22.4984 12.5665 22.3421 12.5801L22.3376 12.5185L22.503 12.4714L22.938 12.4333L22.9334 12.3717C22.9144 12.3717 22.8292 12.3717 22.6638 12.3672L22.6593 12.301L22.8297 12.2874C22.8723 12.2829 22.8958 12.2589 22.8913 12.2213C22.6647 12.2258 22.5505 12.2167 22.5505 12.1882C20.9755 12.2638 20.1943 12.2779 20.1852 12.2308C20.1617 12.2308 20.1286 12.2444 20.0855 12.2734L20.0429 12.2072C20.4598 11.3227 20.7045 10.8732 20.7761 10.8687C20.7806 10.9018 20.7625 10.9584 20.724 11.0341L20.7285 11.0626H20.7947C20.9601 10.6652 21.0974 10.4618 21.2161 10.4523C21.7082 10.4097 21.1449 10.3766 22.2048 10.2112C22.2474 10.2302 22.2805 10.2397 22.2954 10.2348C22.7123 10.1496 23.2887 10.0644 24.0309 9.97466L24.0264 9.91304L23.629 9.95109L23.6244 9.88947C23.6679 9.88679 23.7093 9.87027 23.7427 9.84235L23.7472 9.87542C23.7708 9.87542 23.7993 9.86183 23.837 9.83283C23.9031 9.8283 23.9548 9.83283 23.9928 9.85186C24.1013 9.82105 24.2121 9.79893 24.3241 9.78571L24.5701 9.76214C24.6317 9.72408 24.6598 9.69101 24.6553 9.65793V9.62938C24.5825 9.63342 24.5095 9.6287 24.4378 9.61533C24.4333 9.58225 24.4514 9.55869 24.4944 9.54917L24.9535 9.50658L25.1664 9.45448C25.1664 9.47804 25.18 9.48755 25.195 9.48755C25.2185 9.48755 25.2471 9.47396 25.2847 9.44496C25.3934 9.45856 25.4596 9.46399 25.4741 9.45856C25.5593 9.37835 25.6585 9.31174 25.7673 9.26915C25.7201 9.22203 25.6961 9.18396 25.6916 9.15133L25.3835 9.17988C25.3835 9.15631 25.3699 9.12777 25.3504 9.08926C25.3504 9.06071 25.4166 9.03261 25.5588 9.00406L25.6205 9.02763L25.6771 8.99455C25.6771 9.01358 25.6907 9.0231 25.7102 9.01811L25.7668 8.98503C25.7668 9.00407 25.7804 9.01358 25.7999 9.0086L25.8284 9.00406L25.8239 8.94244C25.7813 8.94698 25.668 8.94698 25.4886 8.94244L25.432 8.9805L25.4274 8.94742L22.9724 9.15133C22.9488 9.15133 22.8446 9.15133 22.6697 9.1468C22.6697 9.17036 22.6507 9.18487 22.6081 9.18487L22.5465 9.15631L22.3335 9.20843C22.2864 9.21296 22.2012 9.20842 22.0829 9.19936C22.0484 9.22542 22.0076 9.2417 21.9646 9.24649C21.9175 9.25102 23.1092 9.18034 23.0716 9.1613L22.8872 9.21341L22.8587 9.21794C22.783 9.22248 22.6883 9.22247 22.575 9.20887C22.53 9.23855 22.4775 9.25489 22.4237 9.256C22.3814 9.2611 22.3386 9.25286 22.3013 9.23244C22.1496 9.27136 21.9965 9.30447 21.8423 9.33168L21.8437 9.31582ZM21.9193 9.50523C21.9193 9.52879 21.9429 9.5383 21.981 9.53377V9.5954L21.9193 9.59992C21.8771 9.60503 21.8343 9.59679 21.797 9.57636C21.7631 9.60351 21.722 9.61993 21.6787 9.62349H21.6978L21.5274 9.60446L21.5228 9.57592C21.7313 9.56232 21.797 9.53785 21.9153 9.50477L21.9193 9.50523ZM22.0752 9.49163L22.1083 9.4871L22.1128 9.54872L22.0222 9.55779C22.0222 9.52471 22.0358 9.50115 22.0788 9.49163H22.0752ZM22.4395 9.45356L22.4441 9.48664C22.3729 9.49117 22.2832 9.5102 22.1744 9.54328L22.1414 9.54782L22.1699 9.48166L22.4395 9.45356ZM19.7525 9.76169L19.8567 9.75263L19.8522 9.69101L19.748 9.70007L19.7525 9.76169ZM20.4956 9.69553L20.5337 9.69101L20.6048 9.71955C20.6093 9.76215 20.5858 9.78571 20.5432 9.78571L20.439 9.79476L20.4344 9.76169C20.4299 9.72861 20.4535 9.70958 20.4961 9.69553H20.4956ZM22.8745 9.83283V9.86137L22.6616 9.88042V9.85186L22.8745 9.83283ZM22.2642 9.92255L22.2687 9.95563L22.1463 9.96469L22.1418 9.93161L22.2642 9.92255ZM22.8505 9.96968L23.2764 9.89853L23.4939 9.9076L23.4985 9.94068C23.4065 9.94744 23.3158 9.96649 23.2289 9.99732C23.2289 9.97376 23.1863 9.95472 23.1011 9.9452L22.7658 10.0358C22.6996 9.99777 22.6661 9.96968 22.6661 9.95065L22.8505 9.96968ZM22.4291 10.0603C22.4717 10.0558 22.4907 10.0739 22.4953 10.1169L22.3154 10.136L22.3108 10.0743L22.4291 10.0603ZM22.0553 10.0413L22.0598 10.0743L23.1668 10.0222L23.1623 9.98916L22.0553 10.0413ZM22.1214 10.1265V10.155L21.8804 10.1786V10.15L22.1214 10.1265ZM20.5368 11.3798L20.5414 11.4129L20.6125 11.4083C20.6133 11.3738 20.6213 11.3399 20.6361 11.3087L20.6316 11.247C20.5935 11.2516 20.5604 11.2942 20.5409 11.3793L20.5368 11.3798ZM18.1008 14.9178L18.1054 14.9464C18.1099 14.9889 18.0863 15.0125 18.0392 15.0175L18.0347 14.9889C18.0302 14.9509 18.0537 14.9323 18.1008 14.9178ZM18.0392 15.0501C18.0438 15.1117 18.0012 15.2631 17.9169 15.5091L17.8127 15.5182C17.8081 15.4756 17.8648 15.3243 17.9735 15.0592L18.0392 15.0501ZM19.1793 16.0388C19.1838 16.0719 19.1272 16.11 19.0184 16.1476L18.81 16.134L18.7438 16.1385L18.7393 16.0769L19.1793 16.0388ZM19.3832 16.0579L19.3877 16.0864L19.2173 16.1L19.2128 16.0715L19.3832 16.0579Z" fill="black"/>
</g>
<defs>
<clipPath id="clip0_509_24837">
<rect width="29" height="29" fill="white"/>
</clipPath>
</defs>
</svg>
