<svg width="23" height="23" viewBox="0 0 23 23" fill="none" xmlns="http://www.w3.org/2000/svg">
<g clip-path="url(#clip0_509_24900)">
<path d="M4.05713 0.972504V10.5368L11.4998 14.5948V11.8364L6.52064 9.12161V4.85739L11.4998 7.57216V5.03064L4.05713 0.972504Z" fill="#002A41"/>
<path d="M18.9426 0.972504V10.5368L11.5 14.5948V11.8364L16.4789 9.12161V4.85739L11.5 7.57216V5.03064L18.9426 0.972504ZM4.05713 18.6576V9.09308L11.4998 5.03494V7.79371L6.52064 10.5083V14.5556L11.4998 11.8408V14.5993L4.05713 18.6576Z" fill="#0071B5"/>
<path d="M18.9427 18.6576V9.09308L11.5001 5.03494V7.79371L16.479 10.5083V14.5556L11.5001 11.8408V14.5993L18.9427 18.6576ZM2.14032 19.7275H2.74946C3.03552 19.7275 3.24252 19.7684 3.37028 19.8502C3.49804 19.932 3.562 20.0613 3.562 20.2381C3.562 20.3603 3.52625 20.4612 3.45491 20.5406C3.38357 20.6201 3.27971 20.6716 3.14315 20.695V20.7091C3.47054 20.7627 3.63406 20.9274 3.63406 21.2029C3.63406 21.3871 3.56901 21.5312 3.43874 21.6345C3.30828 21.7379 3.12644 21.7897 2.89231 21.7897H2.14014V19.7275H2.14032ZM2.39116 20.6104H2.80408C2.98107 20.6104 3.10829 20.5838 3.1861 20.5307C3.26372 20.4776 3.30254 20.388 3.30254 20.262C3.30254 20.1464 3.25923 20.063 3.17262 20.0116C3.08619 19.9604 2.94855 19.9348 2.7597 19.9348H2.39098V20.6104H2.39116ZM2.39116 20.8136V21.5851H2.84092C3.01504 21.5851 3.14585 21.5528 3.23407 21.4885C3.32194 21.4241 3.36596 21.3232 3.36596 21.1859C3.36596 21.058 3.32104 20.964 3.23102 20.9038C3.141 20.8437 3.00407 20.8136 2.82043 20.8136H2.39116ZM5.4525 21.7897L5.18422 21.1338H4.31993L4.05453 21.7897H3.80081L4.65325 19.7191H4.86402L5.71214 21.7897H5.4525ZM5.10606 20.9179L4.85522 20.2789C4.81707 20.1812 4.78355 20.0819 4.75477 19.9814C4.73321 20.0716 4.7023 20.1709 4.66187 20.2789L4.40833 20.9179H5.10606ZM6.9315 19.9123C6.69468 19.9123 6.50762 19.9877 6.37052 20.1386C6.23324 20.2895 6.1646 20.4963 6.1646 20.7586C6.1646 21.0284 6.23072 21.2369 6.36297 21.3842C6.49504 21.5313 6.68354 21.6049 6.92827 21.6049C7.07885 21.6049 7.25027 21.5791 7.44289 21.5274V21.7376C7.29357 21.7912 7.10922 21.818 6.89 21.818C6.57231 21.818 6.32739 21.7259 6.15489 21.5416C5.98221 21.3574 5.89614 21.0955 5.89614 20.756C5.89614 20.5436 5.93747 20.3573 6.02067 20.1974C6.09903 20.0425 6.22439 19.9137 6.3804 19.8279C6.53727 19.7414 6.72181 19.6981 6.9342 19.6981C7.16025 19.6981 7.3579 19.7376 7.52699 19.8165L7.42079 20.0224C7.258 19.9489 7.09466 19.9123 6.9315 19.9123ZM9.47085 21.7897H9.17598L8.38985 20.7895L8.16434 20.9813V21.7897H7.9135V19.7273H8.16434V20.75L9.14184 19.7273H9.43814L8.57115 20.623L9.47085 21.7897ZM9.76715 19.7275H10.3763C10.6624 19.7275 10.8694 19.7684 10.9971 19.8502C11.1249 19.932 11.1888 20.0613 11.1888 20.2381C11.1888 20.3603 11.1531 20.4612 11.0817 20.5406C11.0104 20.6201 10.9066 20.6716 10.77 20.695V20.7091C11.0974 20.7627 11.2609 20.9274 11.2609 21.2029C11.2609 21.3871 11.1958 21.5312 11.0656 21.6345C10.9351 21.7379 10.7533 21.7897 10.5191 21.7897H9.76697L9.76715 19.7275ZM10.018 20.6104H10.4309C10.6079 20.6104 10.7351 20.5838 10.8129 20.5307C10.8906 20.4776 10.9294 20.388 10.9294 20.262C10.9294 20.1464 10.8861 20.063 10.7995 20.0116C10.713 19.9604 10.5754 19.9348 10.3865 19.9348H10.0178L10.018 20.6104ZM10.018 20.8136V21.5851H10.4678C10.6419 21.5851 10.7727 21.5528 10.8609 21.4885C10.9488 21.4241 10.9928 21.3232 10.9928 21.1859C10.9928 21.058 10.9479 20.964 10.8579 20.9038C10.7678 20.8437 10.6309 20.8136 10.4473 20.8136H10.018ZM13.5956 20.7558C13.5956 21.0858 13.5084 21.3455 13.3338 21.5344C13.1593 21.7235 12.9167 21.8178 12.606 21.8178C12.2883 21.8178 12.0434 21.725 11.8709 21.5392C11.6983 21.3534 11.6122 21.0913 11.6122 20.7527C11.6122 20.4171 11.6986 20.1568 11.8717 19.9721C12.0447 19.7873 12.2903 19.6948 12.6091 19.6948C12.9187 19.6948 13.1606 19.7889 13.3345 19.9769C13.5086 20.1653 13.5956 20.4248 13.5956 20.7558ZM11.8776 20.7558C11.8776 21.0351 11.9399 21.2469 12.0641 21.3913C12.1884 21.5356 12.3692 21.6078 12.6062 21.6078C12.845 21.6078 13.0254 21.536 13.1474 21.3919C13.2694 21.2481 13.3304 21.036 13.3304 20.7558C13.3304 20.4784 13.2696 20.2681 13.1482 20.1247C13.0267 19.9814 12.847 19.9097 12.6093 19.9097C12.3703 19.9097 12.1886 19.9819 12.0643 20.1263C11.9398 20.2703 11.8776 20.4803 11.8776 20.7558ZM15.7603 21.7897H15.4742L14.296 20.0589H14.2841C14.2992 20.2447 14.3071 20.4311 14.3079 20.6175V21.7897H14.0762V19.7273H14.3594L15.5348 21.4511H15.5464C15.5413 21.3695 15.5369 21.2879 15.5331 21.2063C15.5271 21.1079 15.5247 21.0094 15.5258 20.9109V19.7273H15.7603V21.7897ZM17.555 21.7897H16.3532V19.7273H17.555V19.9403H16.6039V20.6048H17.4975V20.8163H16.6039V21.5752H17.555V21.7897ZM17.9605 21.6401C17.9605 21.5772 17.9755 21.5294 18.0055 21.497C18.0355 21.4646 18.0784 21.4483 18.1345 21.4483C18.1914 21.4483 18.236 21.4645 18.268 21.497C18.3 21.5294 18.316 21.5772 18.316 21.6401C18.316 21.7013 18.2996 21.7482 18.2673 21.7812C18.2347 21.8141 18.1905 21.8306 18.1345 21.8306C18.0845 21.8306 18.0428 21.8158 18.01 21.7862C17.9771 21.7567 17.9605 21.7078 17.9605 21.6401ZM18.5224 22.3328C18.4299 22.3328 18.3573 22.3201 18.3041 22.2946V22.0901C18.374 22.1088 18.4468 22.1183 18.5224 22.1183C18.6198 22.1183 18.6937 22.0901 18.7443 22.0337C18.7948 21.9772 18.8202 21.8959 18.8202 21.7897V19.7273H19.071V21.7699C19.071 21.9485 19.0238 22.087 18.9294 22.1853C18.8351 22.2836 18.6992 22.3328 18.5224 22.3328ZM20.8598 21.241C20.8598 21.4225 20.7908 21.564 20.6533 21.6656C20.5159 21.7671 20.3288 21.8178 20.0931 21.8178C19.8374 21.8178 19.6406 21.7864 19.5032 21.7233V21.492C19.5963 21.5291 19.6931 21.5575 19.7921 21.5765C19.8963 21.5973 19.9995 21.6076 20.1019 21.6076C20.269 21.6076 20.3948 21.5772 20.4794 21.5167C20.564 21.4561 20.6063 21.3717 20.6063 21.2636C20.6063 21.1921 20.5913 21.1336 20.5613 21.0879C20.5313 21.0423 20.4812 21.0002 20.4109 20.9617C20.3405 20.9232 20.2338 20.8794 20.0902 20.8306C19.8897 20.762 19.7463 20.6806 19.6602 20.5865C19.5741 20.4925 19.5312 20.3698 19.5312 20.2184C19.5312 20.0596 19.5935 19.9331 19.7184 19.8389C19.8431 19.7449 20.0084 19.6978 20.214 19.6978C20.4282 19.6978 20.6253 19.7354 20.8054 19.8107L20.727 20.0195C20.5491 19.948 20.3761 19.9123 20.2079 19.9123C20.0753 19.9123 19.9716 19.9396 19.8969 19.9941C19.8221 20.0486 19.7847 20.1244 19.7847 20.2211C19.7847 20.2926 19.7986 20.3511 19.8259 20.3968C19.8534 20.4423 19.8999 20.4843 19.9653 20.5223C20.0305 20.5604 20.1306 20.6025 20.2654 20.6486C20.4914 20.7258 20.647 20.8084 20.7322 20.8968C20.8172 20.9853 20.8598 21.0999 20.8598 21.241Z" fill="#002A41"/>
</g>
<defs>
<clipPath id="clip0_509_24900">
<rect width="23" height="22" fill="white" transform="translate(0 0.54248)"/>
</clipPath>
</defs>
</svg>
