<svg width="26" height="26" viewBox="0 0 26 26" fill="none" xmlns="http://www.w3.org/2000/svg">
<path d="M2.4877 24.4421V20.8391H3.51287C3.82433 20.8391 4.0714 20.9153 4.25407 21.0678C4.43662 21.2201 4.52789 21.4186 4.52789 21.6631C4.52789 21.8676 4.47264 22.0452 4.36214 22.1959C4.2515 22.3467 4.09902 22.4538 3.9047 22.5175V22.5276C4.14764 22.5561 4.34196 22.6482 4.48767 22.8039C4.63338 22.958 4.70623 23.159 4.70623 23.407C4.70623 23.7152 4.59573 23.9648 4.37473 24.1557C4.15359 24.3466 3.87464 24.4421 3.53786 24.4421H2.4877ZM2.90979 21.2209V22.3842H3.34204C3.5732 22.3842 3.75493 22.329 3.88723 22.2185C4.01953 22.1061 4.08568 21.9486 4.08568 21.746C4.08568 21.396 3.85534 21.2209 3.39465 21.2209H2.90979ZM2.90979 22.7637V24.0602H3.48261C3.73055 24.0602 3.92237 24.0016 4.05806 23.8843C4.19537 23.767 4.26403 23.6062 4.26403 23.4019C4.26403 22.9764 3.97424 22.7637 3.39465 22.7637H2.90979ZM6.45757 24.503C6.07732 24.503 5.77331 24.3833 5.54554 24.1437C5.3194 23.9025 5.20632 23.5834 5.20632 23.1864C5.20632 22.7543 5.32441 22.4167 5.56057 22.1738C5.79674 21.931 6.11585 21.8096 6.5179 21.8096C6.9014 21.8096 7.2004 21.9277 7.4149 22.1638C7.63089 22.4 7.73889 22.7275 7.73889 23.1462C7.73889 23.5566 7.6225 23.8858 7.38971 24.1338C7.15856 24.3799 6.84784 24.503 6.45757 24.503ZM6.48764 22.1563C6.22303 22.1563 6.01368 22.2468 5.85957 22.4277C5.70547 22.6069 5.62842 22.8547 5.62842 23.1713C5.62842 23.4763 5.70628 23.7167 5.86201 23.8924C6.01774 24.0685 6.22628 24.1565 6.48764 24.1565C6.754 24.1565 6.95841 24.0702 7.10087 23.8975C7.24482 23.725 7.31679 23.4796 7.31679 23.1614C7.31679 22.8398 7.24482 22.5918 7.10087 22.4175C6.95841 22.2434 6.754 22.1563 6.48764 22.1563ZM9.47276 24.503C9.09251 24.503 8.7885 24.3833 8.56073 24.1437C8.33458 23.9025 8.22151 23.5834 8.22151 23.1864C8.22151 22.7543 8.33959 22.4167 8.57576 22.1738C8.81193 21.931 9.13104 21.8096 9.53309 21.8096C9.91659 21.8096 10.2156 21.9277 10.4301 22.1638C10.6462 22.4 10.7543 22.7275 10.7543 23.1462C10.7543 23.5566 10.6378 23.8858 10.4049 24.1338C10.1737 24.3799 9.86303 24.503 9.47276 24.503ZM9.50282 22.1563C9.23822 22.1563 9.02886 22.2468 8.87476 22.4277C8.72066 22.6069 8.6436 22.8547 8.6436 23.1713C8.6436 23.4763 8.72147 23.7167 8.8772 23.8924C9.03293 24.0685 9.24147 24.1565 9.50282 24.1565C9.76919 24.1565 9.9736 24.0702 10.1161 23.8975C10.26 23.725 10.332 23.4796 10.332 23.1614C10.332 22.8398 10.26 22.5918 10.1161 22.4175C9.9736 22.2434 9.76919 22.1563 9.50282 22.1563ZM12.606 24.4177C12.5089 24.4713 12.3807 24.4982 12.2214 24.4982C11.7709 24.4982 11.5457 24.2469 11.5457 23.7444V22.2217H11.1034V21.8699H11.5457V21.2419L11.9578 21.1086V21.8699H12.606V22.2217H11.9578V23.6714C11.9578 23.844 11.9871 23.9671 12.0457 24.0409C12.1042 24.1146 12.2013 24.1514 12.337 24.1514C12.4409 24.1514 12.5305 24.123 12.606 24.0661V24.4177ZM13.0004 24.3487V23.9065C13.2248 24.0722 13.4719 24.1551 13.7416 24.1551C14.1035 24.1551 14.2844 24.0346 14.2844 23.7935C14.2844 23.7247 14.2685 23.6669 14.2367 23.6201C14.2065 23.5714 14.1645 23.5287 14.1109 23.4919C14.0591 23.455 13.9971 23.4224 13.9251 23.394C13.8546 23.3638 13.7784 23.3328 13.6963 23.3009C13.5826 23.2557 13.4821 23.2105 13.3949 23.1653C13.3096 23.1184 13.2375 23.0665 13.1788 23.0095C13.1219 22.9508 13.0784 22.8847 13.0482 22.811C13.0197 22.7373 13.0055 22.6511 13.0055 22.5522C13.0055 22.4317 13.0331 22.3253 13.0884 22.2331C13.1436 22.1393 13.2173 22.0614 13.3094 21.9995C13.4015 21.9359 13.5062 21.8881 13.6236 21.8561C13.7425 21.8243 13.8648 21.8084 13.9905 21.8084C14.2132 21.8084 14.4126 21.847 14.5885 21.9242V22.3412C14.3992 22.2171 14.1813 22.1551 13.935 22.1551C13.858 22.1551 13.7885 22.1643 13.7266 22.1827C13.6646 22.1995 13.611 22.2239 13.5657 22.2559C13.5221 22.2875 13.4878 22.326 13.4627 22.3712C13.4393 22.4148 13.4276 22.4635 13.4276 22.5171C13.4276 22.584 13.4393 22.64 13.4627 22.6853C13.4878 22.7305 13.5238 22.7707 13.5708 22.8059C13.6177 22.8411 13.6746 22.873 13.7416 22.9014C13.8087 22.9298 13.8849 22.9608 13.9704 22.9944C14.0841 23.0379 14.1863 23.0831 14.2769 23.1301C14.3673 23.1753 14.4444 23.2273 14.508 23.2859C14.5717 23.3428 14.6202 23.4089 14.6537 23.4844C14.6889 23.5597 14.7065 23.6492 14.7065 23.7531C14.7065 23.8804 14.678 23.991 14.6212 24.0848C14.5658 24.1786 14.4912 24.2565 14.3973 24.3184C14.3036 24.3804 14.1956 24.4265 14.0733 24.4567C13.9511 24.4869 13.8229 24.502 13.6888 24.502C13.4242 24.502 13.1949 24.4509 13.0004 24.3487ZM16.533 24.4177C16.4359 24.4713 16.3077 24.4982 16.1485 24.4982C15.6979 24.4982 15.4727 24.2469 15.4727 23.7444V22.2217H15.0305V21.8699H15.4727V21.2419L15.8848 21.1086V21.8699H16.533V22.2217H15.8848V23.6714C15.8848 23.844 15.9141 23.9671 15.9728 24.0409C16.0313 24.1146 16.1284 24.1514 16.264 24.1514C16.3679 24.1514 16.4576 24.123 16.533 24.0661V24.4177ZM18.4251 22.2869C18.353 22.2317 18.2492 22.2041 18.1135 22.2041C17.9376 22.2041 17.7902 22.2869 17.6713 22.4527C17.554 22.6186 17.4954 22.8447 17.4954 23.1311V24.4427H17.0834V21.8699H17.4954V22.4001H17.5055C17.5642 22.2192 17.6538 22.0785 17.7743 21.978C17.8948 21.8757 18.0297 21.8246 18.1789 21.8246C18.286 21.8246 18.3681 21.8364 18.4251 21.86V22.2869ZM20.7145 24.4421H20.3024V24.0399H20.2922C20.1131 24.3483 19.8493 24.5024 19.501 24.5024C19.2447 24.5024 19.0436 24.4346 18.8978 24.2989C18.7538 24.1632 18.6818 23.9831 18.6818 23.7586C18.6818 23.2779 18.9649 22.9982 19.5309 22.9197L20.3024 22.8114C20.3024 22.3743 20.1257 22.1557 19.7722 22.1557C19.4624 22.1557 19.1827 22.2612 18.9331 22.4722V22.0501C19.1861 21.8894 19.4775 21.809 19.8076 21.809C20.4122 21.809 20.7145 22.1289 20.7145 22.7688V24.4421ZM20.3024 23.1407L19.6818 23.226C19.4909 23.2528 19.3468 23.3005 19.2496 23.3692C19.1525 23.4362 19.1039 23.556 19.1039 23.7285C19.1039 23.8542 19.1483 23.9572 19.2372 24.0377C19.3276 24.1162 19.4474 24.1555 19.5965 24.1555C19.8009 24.1555 19.9692 24.0844 20.1015 23.9422C20.2355 23.7981 20.3026 23.6163 20.3026 23.3968L20.3024 23.1407ZM21.9129 24.0704H21.9028V25.6257H21.4909V21.8693H21.903V22.3215H21.9129C22.1157 21.9798 22.4122 21.809 22.8024 21.809C23.1341 21.809 23.3928 21.9246 23.5788 22.1557C23.7647 22.3851 23.8577 22.6933 23.8577 23.0803C23.8577 23.5108 23.753 23.8559 23.5436 24.1155C23.3343 24.3734 23.0479 24.5024 22.6844 24.5024C22.351 24.5024 22.0939 24.3585 21.9129 24.0704ZM21.9028 23.0326V23.3921C21.9028 23.6047 21.9715 23.7856 22.109 23.9347C22.248 24.0822 22.4239 24.1559 22.6365 24.1559C22.8862 24.1559 23.0814 24.0604 23.2221 23.8695C23.3643 23.6785 23.4354 23.413 23.4354 23.0728C23.4354 22.7864 23.3693 22.562 23.2371 22.3995C23.1048 22.237 22.9256 22.1557 22.6994 22.1557C22.4598 22.1557 22.2671 22.2395 22.1216 22.407C21.9757 22.5729 21.9028 22.7814 21.9028 23.0326ZM5.70459 0.193237C4.24676 0.193237 3.16837 1.46967 3.21651 2.85397C3.26282 4.18363 3.2027 5.90613 2.76903 7.31053C2.33434 8.71941 1.59903 9.60971 0.397949 9.72427V11.0216C1.59903 11.136 2.33434 12.0265 2.76903 13.4354C3.2027 14.8398 3.26262 16.5623 3.21651 17.8919C3.16817 19.2762 4.24676 20.5525 5.70459 20.5525H20.6424C22.1002 20.5525 23.1786 19.276 23.1305 17.8919C23.0842 16.5623 23.1443 14.8398 23.5778 13.4354C24.0124 12.0267 24.7459 11.1362 25.947 11.0216V9.72427C24.7459 9.60991 24.0126 8.71941 23.5778 7.31053C23.1443 5.90613 23.0842 4.18363 23.1305 2.85397C23.1786 1.46967 22.1002 0.193237 20.6422 0.193237H5.70459ZM17.509 12.7232C17.509 14.6293 16.0867 15.7849 13.7266 15.7849H9.37526C9.34881 15.7849 9.32344 15.7744 9.30474 15.7557C9.28603 15.737 9.27553 15.7116 9.27553 15.6852V5.05646C9.2755 5.04334 9.27806 5.03035 9.28306 5.01823C9.28806 5.0061 9.2954 4.99508 9.30467 4.9858C9.31393 4.97652 9.32493 4.96915 9.33705 4.96413C9.34916 4.95911 9.36215 4.95652 9.37526 4.95652H13.7037C15.6717 4.95652 16.9632 6.02211 16.9632 7.65808C16.9632 8.80635 16.0944 9.83416 14.9874 10.0143V10.0745C16.4942 10.2396 17.509 11.2826 17.509 12.7232ZM13.2885 6.32985H10.9976V9.564H12.9273C14.4187 9.564 15.2411 8.96377 15.2411 7.89066C15.2411 6.88519 14.534 6.32985 13.2885 6.32985ZM10.9976 10.8473V14.4118H13.3732C14.9261 14.4118 15.7487 13.789 15.7487 12.6182C15.7487 11.4476 14.9031 10.8473 13.2732 10.8473H10.9976Z" fill="black"/>
</svg>
