<svg width="42" height="23" viewBox="0 0 42 23" fill="none" xmlns="http://www.w3.org/2000/svg">
<g clip-path="url(#clip0_531_23805)">
<path d="M12.5506 3.50158C12.5028 3.8019 12.168 7.79682 12.168 8.04127C12.168 8.2019 12.2021 8.22984 12.4208 8.26476C12.5575 8.2927 12.6873 8.2927 12.701 8.27873C12.7898 8.18793 13.8011 3.45968 13.7396 3.40381C13.7123 3.36889 13.439 3.32698 13.1383 3.30603L12.5848 3.26412L12.5506 3.50158Z" fill="black"/>
<path d="M9.31822 5.11492C9.12005 5.19175 8.95605 5.28254 8.95605 5.31746C8.95605 5.37334 10.3091 8.46032 10.3569 8.50921C10.4116 8.56508 10.8694 8.36953 10.8694 8.2927C10.8694 8.24381 10.6644 7.47556 10.4116 6.58857C9.89222 4.75873 9.96739 4.86349 9.31822 5.11492Z" fill="black"/>
<path d="M14.0948 5.35939C13.924 5.79241 13.0562 8.32066 13.0562 8.38352C13.0562 8.47431 13.5345 8.62098 13.6028 8.55114C13.6712 8.47431 15.1062 5.63177 15.1062 5.56891C15.1062 5.49907 14.4433 5.17082 14.2998 5.17082C14.2178 5.17082 14.1358 5.24764 14.0948 5.35939Z" fill="black"/>
<path d="M10.9993 6.20443C10.9037 6.24633 10.9037 6.32316 11.013 7.02157C11.2248 8.35554 11.177 8.24379 11.4845 8.24379C11.628 8.24379 11.7715 8.20887 11.792 8.17395C11.8193 8.13205 11.8125 7.66411 11.7852 7.12633L11.7373 6.14855L11.423 6.15554C11.2522 6.15554 11.0608 6.17649 10.9993 6.20443Z" fill="black"/>
<path d="M38.8586 8.28572C38.2163 8.52318 37.7926 9.13778 37.7926 9.82921C37.7926 10.7162 38.2436 11.2051 39.5351 11.701C40.1911 11.9524 40.3893 12.113 40.3893 12.3924C40.3893 12.7556 40.1911 12.8883 39.6444 12.8883C39.2071 12.8813 38.9474 12.7905 38.5306 12.4832C38.4213 12.4133 38.3529 12.4552 38.0181 12.8044C37.5534 13.2724 37.5603 13.3213 38.1411 13.6775C38.6399 13.9848 38.9406 14.0616 39.7059 14.0616C40.4713 14.0686 40.8471 13.9219 41.2434 13.4749C41.5578 13.1118 41.6193 12.9441 41.6193 12.3924C41.6193 11.4775 41.2503 11.0584 39.9998 10.5835C39.7469 10.4857 39.4189 10.3251 39.2823 10.2273C39.0704 10.0876 39.0226 10.0178 39.0226 9.82223C39.0226 9.54286 39.1934 9.36826 39.5214 9.31239C39.8699 9.25651 40.1979 9.33334 40.4986 9.54286L40.7583 9.72445L41.1204 9.34032C41.3186 9.1308 41.4826 8.90731 41.4826 8.85143C41.4826 8.71873 41.0453 8.4254 40.6353 8.28572C40.2321 8.14604 39.2276 8.14604 38.8586 8.28572Z" fill="black"/>
<path d="M35.8589 8.2927C35.8316 8.31365 35.8111 9.25651 35.8111 10.374C35.8111 12.3156 35.8043 12.4273 35.6744 12.5949C35.3669 12.986 34.8339 12.986 34.4308 12.5949L34.2326 12.4063L33.8499 12.8044L33.4604 13.2025L33.7201 13.4749C34.1028 13.873 34.5743 14.0686 35.1619 14.0616C35.4284 14.0616 35.7496 14.0127 35.8863 13.9568C36.2279 13.8032 36.6038 13.447 36.8224 13.0698L37.0069 12.7486L37.0274 10.4927L37.0479 8.24381H36.4739C36.1596 8.24381 35.8794 8.26476 35.8589 8.2927Z" fill="black"/>
<path d="M11.102 9.83623C10.6032 10.0108 10.241 10.3391 9.97452 10.8419C9.75585 11.247 9.74219 11.3238 9.74219 11.9105C9.74219 12.4553 9.76952 12.588 9.92669 12.8883C10.159 13.3423 10.5417 13.7124 10.9722 13.908C11.4505 14.1315 12.2705 14.1315 12.742 13.915C13.1042 13.7473 13.5347 13.44 13.5347 13.3492C13.5347 13.2934 12.8582 12.574 12.8035 12.574C12.7899 12.574 12.66 12.6648 12.5234 12.7765C12.1612 13.0699 11.84 13.1118 11.4574 12.9232C10.6715 12.5391 10.6169 11.4216 11.3549 10.9118C11.676 10.6813 12.2227 10.7232 12.496 10.9886C12.6054 11.0934 12.7215 11.1772 12.7557 11.1772C12.8514 11.1772 13.4664 10.5277 13.4664 10.4229C13.4664 10.2902 12.9265 9.92702 12.5575 9.81528C12.0997 9.67559 11.5325 9.68956 11.102 9.83623Z" fill="black"/>
<path d="M14.7166 9.80829C14.4023 9.91305 14.0059 10.1435 13.8693 10.3111C13.8009 10.4019 13.8351 10.4718 14.1153 10.7581L14.4433 11.1003L14.6551 10.9467C14.7986 10.8419 14.9899 10.7861 15.2769 10.7721C15.6459 10.7442 15.7211 10.7651 15.8714 10.9048C15.9739 10.9956 16.0696 11.1423 16.0969 11.2261C16.1379 11.3797 16.1311 11.3867 15.5981 11.3867C15.3043 11.3867 14.9011 11.4356 14.7098 11.4915C13.5618 11.8407 13.3089 13.3283 14.2998 13.901C14.5458 14.0407 14.6824 14.0686 15.1061 14.0686C15.4136 14.0616 15.7211 14.0197 15.8783 13.9499C16.0149 13.887 16.1311 13.8661 16.1311 13.908C16.1311 13.9429 16.3771 13.9708 16.6778 13.9708H17.2244V12.588C17.2244 10.9397 17.1629 10.6394 16.7393 10.2064C16.2883 9.74543 15.4341 9.58479 14.7166 9.80829ZM16.1311 12.5391C16.1311 12.8184 16.1106 12.8603 15.9124 12.9651C15.6459 13.1048 15.0993 13.1327 14.9489 13C14.8054 12.8813 14.7986 12.553 14.9284 12.4413C15.0788 12.3086 15.3794 12.2388 15.7758 12.2318L16.1311 12.2248V12.5391Z" fill="black"/>
<path d="M19.4725 9.77336C19.3769 9.80829 19.2334 9.86416 19.1582 9.90606C19.042 9.96892 19.0079 9.96892 18.9737 9.88511C18.9464 9.8013 18.8097 9.78035 18.386 9.78035H17.8394V11.8756V13.9708H18.4202H19.001V12.4762C19.001 11.3657 19.0215 10.9677 19.0899 10.9118C19.2675 10.7581 19.7527 10.6743 19.9919 10.7581C20.4292 10.9048 20.4702 11.0515 20.4907 12.588L20.518 13.9708H21.0647H21.6114L21.584 12.4134C21.5567 10.6743 21.5225 10.5207 21.0237 10.0737C20.6547 9.74543 19.985 9.61971 19.4725 9.77336Z" fill="black"/>
<path d="M27.0714 9.84318C26.6887 9.98286 26.4017 10.1644 26.2855 10.36C26.224 10.4508 26.2719 10.5346 26.511 10.786L26.8117 11.1003L27.0987 10.9257C27.6659 10.5905 28.4859 10.786 28.4995 11.261C28.4995 11.3727 28.4312 11.3867 28.0007 11.3867C27.3515 11.3867 26.8527 11.5403 26.5247 11.8476C26.1762 12.1619 26.0874 12.4133 26.1215 12.9232C26.1625 13.4819 26.4085 13.8102 26.9347 13.9987C27.2559 14.1105 27.3652 14.1175 27.8094 14.0476C28.0895 14.0057 28.356 13.9359 28.4107 13.894C28.4722 13.8381 28.4995 13.8381 28.4995 13.894C28.4995 13.9429 28.6977 13.9708 29.0872 13.9708H29.6749L29.6475 12.4832C29.6202 10.8838 29.586 10.7302 29.217 10.2832C28.9232 9.92698 28.5405 9.75937 27.9529 9.73143C27.5702 9.71048 27.3447 9.73841 27.0714 9.84318ZM28.4995 12.574V12.9162L28.1237 13.0279C27.5292 13.2095 27.1055 12.993 27.2354 12.581C27.29 12.3994 27.7137 12.2317 28.1442 12.2317L28.4995 12.2248V12.574Z" fill="black"/>
<path d="M31.1644 9.77333C30.5631 9.9619 30.2077 10.367 30.1531 10.8978C30.1394 11.0933 30.1599 11.3378 30.2077 11.4565C30.3307 11.7498 30.7476 12.113 31.1371 12.2597C31.9024 12.546 32.2031 12.7067 32.1757 12.8324C32.1142 13.1816 31.4446 13.1886 31.0619 12.8463C30.9389 12.7346 30.8091 12.6438 30.7749 12.6438C30.7407 12.6438 30.5767 12.7835 30.4127 12.9581C30.0642 13.3213 30.0711 13.3702 30.5357 13.7403C31.0551 14.1454 31.9366 14.2082 32.5926 13.887C32.9821 13.6914 33.2827 13.2235 33.2827 12.8044C33.2827 12.12 32.8796 11.7498 31.6291 11.2889C31.2464 11.1422 31.1644 10.9816 31.3831 10.807C31.5949 10.6254 32.0459 10.6813 32.3534 10.9257C32.4832 11.0235 32.6199 11.1073 32.6472 11.1073C32.6814 11.1073 32.8454 10.9676 33.0094 10.793L33.3101 10.4787L33.0777 10.2343C32.6746 9.80825 31.7657 9.59174 31.1644 9.77333Z" fill="black"/>
<path d="M21.9395 9.88511C21.9395 9.94098 22.2675 10.8838 22.6706 11.9803L23.4018 13.9708H23.9553H24.502L25.24 11.9245C25.6431 10.807 25.9711 9.85717 25.9711 9.82924C25.9711 9.8013 25.7046 9.78733 25.3766 9.79432L24.789 9.81527L24.3653 11.1073L23.9416 12.3994L23.518 11.0864L23.0875 9.78035H22.5135C22.0488 9.78035 21.9395 9.8013 21.9395 9.88511Z" fill="black"/>
<path d="M13.3636 15.2769C13.2542 15.3327 13.1449 15.3956 13.1312 15.4095C13.0971 15.4375 14.0879 18.1753 14.1562 18.2591C14.2246 18.3429 15.0377 17.9588 15.0377 17.854C15.0309 17.7353 13.6916 15.2 13.6301 15.1791C13.5959 15.1721 13.4797 15.214 13.3636 15.2769Z" fill="black"/>
<path d="M10.1452 15.6959C8.95619 18.4476 8.26602 20.1378 8.31386 20.1797C8.41636 20.2775 9.15436 20.5359 9.33202 20.5359C9.42769 20.5359 9.50969 20.487 9.53019 20.4102C9.86502 19.2718 10.8695 15.6191 10.8695 15.5492C10.8695 15.4654 10.5415 15.2978 10.3775 15.2978C10.3502 15.2978 10.2409 15.4794 10.1452 15.6959Z" fill="black"/>
<path d="M12.3863 15.5562C12.1881 15.5841 12.1608 15.6121 12.1881 15.7378C12.2086 15.8216 12.2906 16.6876 12.3794 17.6584L12.5366 19.4254L12.7074 19.3905C12.8099 19.3695 13.0354 19.3346 13.2131 19.3067C13.3976 19.2787 13.5616 19.2229 13.5753 19.174C13.5958 19.1251 13.4523 18.3987 13.2609 17.5607C12.8099 15.5632 12.7894 15.5073 12.6938 15.5213C12.6459 15.5213 12.5093 15.5422 12.3863 15.5562Z" fill="black"/>
<path d="M11.2114 15.6191C11.2114 15.647 11.1636 15.9753 11.1021 16.3594C11.0406 16.7435 11.0064 17.0648 11.0201 17.0718C11.0337 17.0858 11.2182 17.1137 11.4369 17.1416L11.8264 17.1835V16.3804V15.5772H11.5189C11.3481 15.5772 11.2114 15.5981 11.2114 15.6191Z" fill="black"/>
</g>
<defs>
<clipPath id="clip0_531_23805">
<rect width="41" height="22" fill="white" transform="translate(0.619629 0.910461)"/>
</clipPath>
</defs>
</svg>
