<svg width="38" height="36" viewBox="0 0 38 36" fill="none" xmlns="http://www.w3.org/2000/svg">
<path d="M10.2388 27.6829C10.3035 27.7616 10.344 27.864 10.344 27.9585C10.344 28.2026 10.1335 28.3916 9.88262 28.3916C9.76122 28.3916 9.63172 28.3444 9.53459 28.242C9.22703 27.9034 8.78187 27.6986 8.33672 27.6986C7.27644 27.6986 6.49134 28.4861 6.49134 29.5808C6.49134 30.6675 7.27644 31.4629 8.33672 31.4629C8.78187 31.4629 9.22703 31.2739 9.53459 30.9274C9.63172 30.8329 9.76122 30.7778 9.89072 30.7778C10.1416 30.7778 10.3359 30.9746 10.3359 31.203C10.3359 31.2975 10.3035 31.3999 10.2388 31.4786C9.82597 31.9354 9.21894 32.2976 8.33672 32.2976C6.74225 32.2976 5.50391 31.1951 5.50391 29.5808C5.50391 27.9664 6.74225 26.8639 8.33672 26.8639C9.21894 26.8639 9.82597 27.2261 10.2388 27.6829Z" fill="#FF6384"/>
<path d="M14.3261 32.2504C14.0833 32.2504 13.8971 32.0614 13.8971 31.833V29.817C13.8971 29.2343 13.5815 29.0531 13.104 29.0531C12.6831 29.0531 12.3108 29.2973 12.1165 29.5571V31.833C12.1165 32.0614 11.9223 32.2504 11.6795 32.2504C11.4366 32.2504 11.2505 32.0614 11.2505 31.833V27.3128C11.2505 27.0923 11.4366 26.9033 11.6956 26.9033C11.9223 26.9033 12.1165 27.0923 12.1165 27.3128V28.9193C12.3755 28.62 12.8773 28.305 13.5006 28.305C14.3423 28.305 14.7632 28.7381 14.7632 29.5099V31.833C14.7632 32.0614 14.5689 32.2504 14.3261 32.2504Z" fill="#FF6384"/>
<path d="M18.6722 32.2504H18.6237C18.5104 32.2504 18.2352 32.1559 18.2352 31.8645V31.7936C17.9519 32.1165 17.4905 32.2976 16.9806 32.2976C16.3412 32.2976 15.6128 31.8803 15.6128 31.0376C15.6128 30.1635 16.3412 29.8013 16.9806 29.8013C17.4986 29.8013 17.96 29.9666 18.2352 30.2895V29.7068C18.2352 29.2736 17.8629 29.0059 17.3287 29.0059C16.9887 29.0059 16.6812 29.0925 16.3979 29.2973C16.3493 29.3288 16.2846 29.3524 16.2198 29.3524C16.0579 29.3524 15.8799 29.2264 15.8799 29.0216C15.8799 28.9586 15.9042 28.8878 15.9446 28.8405C16.2522 28.4625 16.9725 28.305 17.4663 28.305C18.3323 28.305 19.1012 28.6594 19.1012 29.6831V31.833C19.1011 32.0614 18.9069 32.2504 18.6722 32.2504ZM18.2352 30.762C18.0409 30.51 17.6848 30.384 17.3125 30.384C16.8511 30.384 16.495 30.636 16.495 31.0534C16.495 31.455 16.8511 31.7149 17.3125 31.7149C17.6848 31.7149 18.0409 31.5889 18.2352 31.329V30.762Z" fill="#FF6384"/>
<path d="M21.7642 29.1555C21.4161 29.187 21.0843 29.3288 20.8738 29.6201V31.833C20.8738 32.0614 20.6796 32.2504 20.4449 32.2504H20.4287C20.194 32.2504 20.0078 32.0614 20.0078 31.833V28.7618C20.0078 28.5413 20.194 28.3523 20.453 28.3523C20.6796 28.3523 20.8738 28.5413 20.8738 28.7618V28.9586C21.0843 28.683 21.3918 28.3523 21.8046 28.3523C22.0393 28.3523 22.185 28.5098 22.185 28.7145C22.185 28.9665 22.007 29.124 21.7642 29.1555Z" fill="#FF6384"/>
<path d="M24.2 32.2976C23.5363 32.2976 23.1883 31.9511 23.1883 31.3133V29.1398H22.8645C22.6622 29.1398 22.4922 28.9744 22.4922 28.7618C22.4922 28.5649 22.6622 28.3995 22.8645 28.3995H23.1883V27.7301C23.1883 27.5018 23.3825 27.3128 23.6334 27.3128C23.8681 27.3128 24.0543 27.5018 24.0543 27.7301V28.3995H24.5318C24.7342 28.3995 24.896 28.5649 24.896 28.7775C24.896 28.9744 24.7342 29.1398 24.5318 29.1398H24.0543V31.1007C24.0543 31.392 24.2243 31.5495 24.4266 31.5495C24.4833 31.5495 24.5561 31.5259 24.6047 31.5259C24.8394 31.5259 24.9851 31.6834 24.9851 31.8881C24.9851 32.1401 24.7503 32.2976 24.2 32.2976Z" fill="#FF6384"/>
<path d="M26.062 32.2898C25.7463 32.2898 25.4873 32.0299 25.4873 31.7306C25.4873 31.4235 25.7463 31.1715 26.062 31.1715C26.3776 31.1715 26.6366 31.4235 26.6366 31.7306C26.6366 32.0299 26.3776 32.2898 26.062 32.2898Z" fill="#FF6384"/>
<path d="M27.4943 33.7466C26.9925 33.7466 26.604 33.6206 26.604 33.3135C26.604 33.1245 26.7659 32.9749 26.952 32.9749C27.0734 32.9749 27.1625 33.0536 27.3567 33.0536C27.6886 33.0536 27.9314 32.8568 27.9314 32.4079V28.7618C27.9314 28.5413 28.1175 28.3523 28.3765 28.3523C28.6032 28.3523 28.7974 28.5413 28.7974 28.7618V32.4079C28.7973 33.2269 28.3602 33.7466 27.4943 33.7466ZM28.8945 27.4151C28.8945 27.7065 28.6517 27.9349 28.3603 27.9349C28.069 27.9349 27.8262 27.7065 27.8262 27.4151C27.8262 27.1316 28.069 26.9033 28.3603 26.9033C28.6517 26.9033 28.8945 27.1316 28.8945 27.4151Z" fill="#FF6384"/>
<path d="M31.2332 32.2976C30.7071 32.2976 30.0111 32.1401 29.7035 31.8015C29.6549 31.7464 29.6226 31.6755 29.6226 31.5968C29.6226 31.3999 29.8006 31.2424 29.9949 31.2424C30.0596 31.2424 30.1325 31.2581 30.1891 31.2975C30.4886 31.4944 30.8933 31.6361 31.2656 31.6361C31.7755 31.6361 32.0264 31.4235 32.0264 31.1321C32.0264 30.3919 29.663 30.9274 29.663 29.4626C29.663 28.8405 30.2215 28.305 31.217 28.305C31.7431 28.305 32.334 28.4625 32.6011 28.7618C32.6496 28.8169 32.6739 28.8799 32.6739 28.9508C32.6739 29.1319 32.512 29.2736 32.3259 29.2736C32.2692 29.2736 32.2045 29.2579 32.1478 29.2264C31.8969 29.061 31.5651 28.9586 31.217 28.9586C30.78 28.9586 30.5048 29.1634 30.5048 29.4233C30.5048 30.0926 32.8601 29.5886 32.8601 31.1006C32.8601 31.7779 32.2854 32.2976 31.2332 32.2976Z" fill="#FF6384"/>
<path d="M28.3898 13.5782C25.157 13.6399 25.8303 15.631 23.5519 16.1347C21.2374 16.6463 20.872 10.6348 18.5581 10.6348C16.2439 10.6348 15.7312 16.4742 12.8335 20.4833L12.751 20.5969L18.9637 24.0863L28.39 18.7917V13.5782H28.3898Z" fill="#36A2EB"/>
<path d="M28.39 13.3969C27.3077 12.0455 26.5737 10.4919 24.9944 10.4919C22.1994 10.4919 22.9349 14.9279 19.8462 14.9279C16.757 14.9279 16.4323 10.1564 12.9328 14.6417C11.8178 16.0709 10.9202 17.6643 10.2153 19.1724L18.9635 24.0861L28.3898 18.7916L28.39 13.3969Z" fill="#FFCE56"/>
<path opacity="0.8" d="M9.53725 15.2345C10.5978 12.377 11.0554 10.0626 13.0801 10.0626C16.1688 10.0626 16.9043 18.5054 19.552 17.6465C22.1995 16.788 21.9054 12.2088 26.0239 12.2088C26.8077 12.2088 27.6083 12.6761 28.3901 13.4321V18.7916L18.9637 24.0861L9.53711 18.7916L9.53725 15.2345Z" fill="#FE6184"/>
<path d="M18.9561 24.75L8.94141 19.125V7.875L18.9561 2.25L28.971 7.875V19.125L18.9561 24.75ZM10.118 18.4642L18.9561 23.4283L27.7944 18.4642V8.53594L18.9561 3.57187L10.118 8.53594V18.4642Z" fill="#E7E9ED"/>
</svg>
