<svg width="25" height="26" viewBox="0 0 25 26" fill="none" xmlns="http://www.w3.org/2000/svg">
<g clip-path="url(#clip0_531_23713)">
<path d="M12.314 15.5195C13.9579 15.5195 15.2906 14.1868 15.2906 12.5429C15.2906 10.899 13.9579 9.56635 12.314 9.56635C10.6701 9.56635 9.3374 10.899 9.3374 12.5429C9.3374 14.1868 10.6701 15.5195 12.314 15.5195Z" fill="#161616"/>
<path d="M12.3141 0.0434866C6.48956 0.0434866 1.5962 4.02753 0.208215 9.41808C0.195253 9.46647 0.188296 9.51627 0.1875 9.56636C0.1875 9.89346 0.453538 10.1617 0.782816 10.1617H5.82338C5.93747 10.1621 6.04922 10.1293 6.14503 10.0674C6.24085 10.0054 6.3166 9.91697 6.36309 9.81278C6.36309 9.81278 6.37072 9.7986 6.37399 9.79097C7.41307 7.54927 9.68203 5.99338 12.3162 5.99338C15.9328 5.99338 18.8647 8.92416 18.8647 12.5408C18.8647 16.1574 15.9339 19.0882 12.3173 19.0882C9.68421 19.0882 7.41525 17.5323 6.37508 15.2906C6.37181 15.2829 6.36418 15.2688 6.36418 15.2688C6.26823 15.0572 6.05671 14.9198 5.82447 14.9198H0.783905C0.454628 14.9198 0.18859 15.1859 0.18859 15.5152C0.189157 15.5653 0.196117 15.6151 0.209305 15.6635C1.59729 21.054 6.49174 25.038 12.3152 25.038C19.2191 25.037 24.8255 19.4414 24.8255 12.5386C24.8255 5.63575 19.2289 0.0391235 12.3261 0.0391235L12.3141 0.0434866Z" fill="#161616"/>
</g>
<defs>
<clipPath id="clip0_531_23713">
<rect width="25" height="25" fill="white" transform="translate(0 0.043396)"/>
</clipPath>
</defs>
</svg>
