<svg width="26" height="26" viewBox="0 0 26 26" fill="none" xmlns="http://www.w3.org/2000/svg">
<g clip-path="url(#clip0_509_24955)">
<path d="M12.9999 0.11853C5.83202 0.11853 0 5.72625 0 12.6186C0 19.5116 5.83202 25.119 12.9999 25.119C20.168 25.119 26 19.5116 26 12.6186C26 5.72625 20.168 0.11853 12.9999 0.11853Z" fill="white"/>
<path d="M12.5245 12.8434C12.4077 13.0868 12.2788 13.3602 12.1453 13.6513C11.6736 14.679 11.1511 15.9296 10.9603 16.7307C10.8917 17.0161 10.8493 17.3697 10.8501 17.7618C10.8501 17.9169 10.8587 18.0799 10.8725 18.2459C11.5394 18.4815 12.2598 18.6111 13.0121 18.6124C13.6969 18.6111 14.3548 18.5023 14.9706 18.3055C14.8259 18.1782 14.6878 18.0426 14.562 17.8897C13.7272 16.8661 13.2614 15.3659 12.5245 12.8434Z" fill="#91DC47"/>
<path d="M9.44204 7.75769C7.84761 8.83816 6.80425 10.6202 6.80029 12.6397C6.80425 14.6291 7.81622 16.3881 9.37054 17.473C9.7518 15.946 10.7075 14.5477 12.1407 11.745C12.0555 11.5202 11.9586 11.2741 11.85 11.0156C11.453 10.058 10.88 8.94587 10.3686 8.44226C10.1079 8.17918 9.79151 7.95183 9.44204 7.75769Z" fill="#91DC47"/>
<path d="M18.4227 19.4903C17.6001 19.3912 16.9211 19.2715 16.3272 19.0701C15.3282 19.547 14.2032 19.8165 13.012 19.8165C8.89016 19.8165 5.54885 16.6042 5.54834 12.6397C5.54834 10.4886 6.53391 8.56031 8.09309 7.24517C7.67608 7.1483 7.24119 7.09176 6.79695 7.09254C4.60706 7.11236 2.2954 8.27769 1.33299 11.4249C1.24301 11.883 1.26444 12.2294 1.26444 12.6399C1.26444 18.8787 6.52446 23.9364 13.0123 23.9364C16.9856 23.9364 20.4956 22.038 22.6212 19.1347C21.4715 19.4102 20.3659 19.542 19.4191 19.5448C19.0643 19.5448 18.7312 19.5265 18.4227 19.4903Z" fill="#63B132"/>
<path d="M16.2155 17.3014C16.288 17.336 16.4524 17.3924 16.6813 17.4548C18.2206 16.3682 19.221 14.6179 19.225 12.6397H19.2244C19.2186 9.34175 16.443 6.67329 13.0123 6.66675C12.3304 6.66802 11.6753 6.77622 11.062 6.97163C12.3233 8.35405 12.9298 10.3296 13.5166 12.4907C13.5169 12.4917 13.5174 12.4924 13.5176 12.4932C13.5187 12.495 13.7053 13.0933 14.0256 13.8872C14.3437 14.6799 14.7969 15.6614 15.2911 16.3766C15.6156 16.8559 15.9725 17.2003 16.2155 17.3014Z" fill="#90B4FE"/>
<path d="M13.0125 1.34326C9.07759 1.34326 5.59684 3.20586 3.46484 6.06182C4.57441 5.39365 5.70734 5.15264 6.69605 5.16123C8.06166 5.16504 9.13528 5.57217 9.65041 5.85068C9.77482 5.91963 9.89294 5.99385 10.0086 6.07012C10.9278 5.68086 11.9434 5.46318 13.0122 5.46318C17.1345 5.46367 20.4764 8.67598 20.477 12.6397H20.4764C20.4764 14.6382 19.6263 16.4451 18.2559 17.7463C18.5923 17.7825 18.951 17.8051 19.3173 17.8033C20.6184 17.8039 22.0248 17.5278 23.0791 16.6752C23.7666 16.1184 24.3425 15.303 24.662 14.0806C24.7244 13.6084 24.7604 13.1284 24.7604 12.6399C24.7604 6.40146 19.5009 1.34326 13.0125 1.34326Z" fill="#5881D8"/>
</g>
<defs>
<clipPath id="clip0_509_24955">
<rect width="26" height="25" fill="white" transform="translate(0 0.11853)"/>
</clipPath>
</defs>
</svg>
