<svg width="31" height="32" viewBox="0 0 31 32" fill="none" xmlns="http://www.w3.org/2000/svg">
<g clip-path="url(#clip0_531_23863)">
<path d="M18.8418 8.9546C17.7569 9.21386 16.6465 9.34388 15.5326 9.3421C14.4188 9.34328 13.3085 9.21327 12.2235 8.9546C13.1106 7.50916 14.2295 6.22847 15.5326 5.16679C16.8348 6.22955 17.9535 7.51006 18.8418 8.9546ZM28.8164 0.623353C27.4596 0.255425 26.062 0.0698152 24.6588 0.0711653C21.4103 0.0679613 18.2341 1.05585 15.5326 2.9096C12.8317 1.05478 9.65515 0.0667943 6.40654 0.0711653C4.99379 0.0672941 3.58659 0.252925 2.2206 0.623353C1.64836 0.770588 1.08489 0.951724 0.533022 1.16585C0.523046 1.17807 0.517578 1.1935 0.517578 1.20945C0.517578 1.22539 0.523046 1.24083 0.533022 1.25304C0.768375 1.77344 1.02955 2.28108 1.31553 2.77398C1.32659 2.7819 1.33976 2.78614 1.35324 2.78614C1.36672 2.78614 1.37989 2.7819 1.39095 2.77398C1.9495 2.56604 2.51926 2.39138 3.09738 2.25085C6.83165 1.37777 10.75 2.03087 14.0242 4.0721C12.6075 5.30286 11.4028 6.77006 10.4605 8.4121C10.2719 8.7221 10.1117 9.04179 9.94196 9.38085C9.77226 9.71991 9.73455 9.81679 9.63085 10.0493C9.52714 10.2818 9.33858 10.7468 9.21602 11.0955C8.09526 14.1911 7.88103 17.5561 8.59976 20.7753C9.31848 23.9946 10.9387 26.9271 13.2605 29.2112C13.5057 29.4534 13.7602 29.6859 14.0242 29.9184C14.2882 30.1509 14.439 30.2768 14.6559 30.4415C14.8727 30.6062 15.2121 30.8677 15.4949 31.0615C15.506 31.0694 15.5192 31.0736 15.5326 31.0736C15.5461 31.0736 15.5593 31.0694 15.5704 31.0615C15.8532 30.858 16.136 30.6546 16.4094 30.4415C16.6828 30.2284 16.8337 30.1024 17.0411 29.9184C17.2485 29.7343 17.5596 29.4534 17.8047 29.2112C19.409 27.6323 20.6855 25.736 21.5572 23.6365C22.429 21.537 22.8779 19.2778 22.8769 16.9952C22.8803 14.9814 22.5322 12.9832 21.8493 11.0955C21.7173 10.7371 21.5759 10.3884 21.425 10.0396C21.2742 9.69085 21.2176 9.58429 21.1139 9.37117C21.0102 9.15804 20.7839 8.73179 20.5954 8.40242C19.6518 6.76133 18.4472 5.29435 17.0317 4.06241C20.3136 2.03189 24.2355 1.39266 27.9679 2.27992C28.5462 2.41989 29.116 2.59456 29.6743 2.80304C29.6854 2.81096 29.6986 2.8152 29.7121 2.8152C29.7255 2.8152 29.7387 2.81096 29.7498 2.80304C30.0263 2.31221 30.284 1.80846 30.5228 1.29179C30.5328 1.27958 30.5383 1.26414 30.5383 1.2482C30.5383 1.23225 30.5328 1.21682 30.5228 1.2046C29.9651 0.977988 29.3954 0.783928 28.8164 0.623353Z" fill="#151F34"/>
<path d="M21.1046 16.9952C21.1103 20.8474 19.6759 24.5546 17.0978 27.3512C16.6492 25.884 16.4203 24.3553 16.419 22.8174C16.4123 18.9651 17.8468 15.2575 20.4258 12.4615C20.8749 13.9285 21.1038 15.4573 21.1046 16.9952Z" fill="#348540"/>
<path d="M14.6746 22.8174C14.6749 24.3554 14.446 25.8844 13.9958 27.3512C12.1986 25.4002 10.9423 22.9905 10.3571 20.3723C9.77191 17.7541 9.87918 15.0227 10.6678 12.4615C13.2468 15.2575 14.6813 18.9651 14.6746 22.8174Z" fill="#7DBC42"/>
</g>
<defs>
<clipPath id="clip0_531_23863">
<rect width="30" height="31" fill="white" transform="translate(0.532715 0.071167)"/>
</clipPath>
</defs>
</svg>
