<svg width="25" height="30" viewBox="0 0 25 30" fill="none" xmlns="http://www.w3.org/2000/svg">
<g clip-path="url(#clip0_531_24082)">
<path d="M1.27969 28.2124C0.771484 28.2124 0.62373 27.9234 0.62373 27.4904C0.62373 27.346 0.642285 27.1832 0.665137 27.0117C0.776465 26.2629 1.04824 25.8344 1.7042 25.8344C2.14785 25.8344 2.36416 26.0282 2.36416 26.3802V26.5518H2.8043C2.80918 26.5518 2.80918 26.3938 2.80918 26.3579C2.80918 25.8436 2.49033 25.3558 1.70488 25.3558C0.637598 25.3558 0.19873 25.9221 0.0370117 27.0322C0.0138672 27.1812 0 27.3203 0 27.4687C0 28.123 0.263574 28.7182 1.20596 28.7182C1.92197 28.7182 2.34727 28.3772 2.59658 27.9575L2.17607 27.6809C1.90361 28.1007 1.60771 28.2124 1.27969 28.2124ZM4.16738 26.1456C3.3125 26.1456 2.94316 26.5741 2.81846 27.4268C2.80382 27.5255 2.79599 27.6251 2.79502 27.7248C2.79502 28.2752 3.0584 28.7132 3.78818 28.7132C4.64307 28.7132 5.01738 28.2663 5.14209 27.4268C5.15596 27.3187 5.16523 27.2194 5.16523 27.1202C5.16543 26.5608 4.89297 26.1456 4.16738 26.1456ZM4.52314 27.4271C4.43066 28.0455 4.23223 28.235 3.85771 28.235C3.55762 28.235 3.40986 28.1131 3.40986 27.7476C3.40986 27.6573 3.41924 27.5491 3.4376 27.4271C3.53008 26.8135 3.71484 26.624 4.09365 26.624C4.39863 26.624 4.55088 26.7458 4.55088 27.1158C4.55088 27.206 4.5415 27.3099 4.52314 27.4271ZM7.31416 25.4006L7.17109 26.229C7.16191 26.301 7.1666 26.2771 7.19453 26.3448C7.06055 26.2456 6.82012 26.18 6.6584 26.18C5.89141 26.18 5.46191 26.5191 5.32344 27.4667C5.30727 27.5667 5.29953 27.6679 5.30029 27.7692C5.30029 28.4598 5.71602 28.7173 6.2749 28.7173C6.51084 28.7173 6.7417 28.722 6.92168 28.5733L6.96768 28.854H7.41133L7.92871 25.4006H7.31416ZM6.87529 28.104C6.66758 28.2255 6.46445 28.2529 6.33975 28.2529C6.00244 28.2529 5.91006 28.0813 5.91006 27.8063C5.91006 27.7024 5.92393 27.5809 5.94258 27.4496C6.04863 26.7323 6.28437 26.6057 6.58936 26.6057C6.78779 26.6057 6.94014 26.6374 7.08369 26.7143L6.87529 28.104ZM9.27793 26.1456C8.43223 26.1456 8.03525 26.538 7.90107 27.4268C7.88701 27.5353 7.87773 27.6392 7.87773 27.7383C7.87773 28.3476 8.19668 28.7132 8.89863 28.7132C9.44385 28.7132 9.85078 28.4919 10.0678 28.0857L9.60107 27.9007C9.46729 28.0991 9.28711 28.2345 8.96826 28.2345C8.62646 28.2345 8.48779 28.1447 8.48779 27.8468C8.48779 27.788 8.49248 27.7027 8.50176 27.7027H10.1693C10.1928 27.4724 10.2201 27.3097 10.2201 27.1747C10.2201 26.7238 10.0447 26.1455 9.27793 26.1455V26.1456ZM9.59658 27.2425H8.58018C8.68203 27.0122 8.85264 26.6558 9.20391 26.6558C9.47637 26.6558 9.61055 26.8114 9.61055 27.0776C9.61025 27.1227 9.60605 27.2425 9.59658 27.2425ZM11.998 26.0913L12.0534 25.6309H10.7504L10.6952 26.0913H11.037L10.6677 28.3935H10.3254L10.2703 28.854H11.573L11.6287 28.3935H11.2866L11.6561 26.0913H11.998ZM14.6455 26.7819L14.812 26.3215H14.3639L14.0407 26.3867C13.8604 26.2741 13.6155 26.1896 13.3848 26.1896C12.7238 26.1896 12.1604 26.5013 12.1604 27.2099C12.1604 27.4087 12.2343 27.5691 12.3219 27.6776C12.1836 27.7496 12.0634 27.8703 12.0634 28.033C12.0634 28.1051 12.0909 28.1789 12.1466 28.2465C11.8691 28.4092 11.6987 28.6788 11.6987 28.9944C11.6987 29.6039 12.35 29.7339 12.8489 29.7339C13.4771 29.7339 14.2258 29.5937 14.2258 28.813C14.2258 28.5469 14.0549 28.339 13.5605 28.2487L12.6689 28.086C12.5674 28.0678 12.5442 28.0362 12.5442 27.9911C12.5442 27.9234 12.5862 27.8875 12.6552 27.8875L12.7153 27.8965C12.8354 27.9235 12.9741 27.9372 13.1172 27.9372C13.7596 27.9372 14.3323 27.6663 14.3323 26.9624C14.3323 26.863 14.314 26.7958 14.2678 26.6873C14.3462 26.7236 14.448 26.7822 14.4893 26.7822H14.6455V26.7819ZM13.3753 28.6498C13.5507 28.6816 13.6106 28.7446 13.6106 28.8575C13.6106 29.2231 13.2087 29.2682 12.9178 29.2682C12.4742 29.2682 12.308 29.1646 12.308 28.9342C12.308 28.731 12.3679 28.6365 12.5067 28.4919L13.3753 28.6498ZM13.1855 27.4678C12.9176 27.4678 12.7697 27.3732 12.7697 27.1474C12.7697 26.8135 12.9685 26.6194 13.3149 26.6194C13.5922 26.6194 13.7263 26.7323 13.7263 26.9531C13.7263 27.2871 13.532 27.4678 13.1855 27.4678ZM16.2868 26.1456C16.028 26.1456 15.7973 26.2696 15.5106 26.4906L15.4691 26.3215H14.9607L14.6051 28.8539H15.2195L15.4876 26.9335C15.6679 26.8253 15.8895 26.6681 16.0789 26.6681C16.3098 26.6681 16.3932 26.7769 16.3932 26.9843C16.3932 27.034 16.3883 27.1812 16.379 27.2353L16.1529 28.8539H16.7675L16.9936 27.2221C17.0029 27.1458 17.0121 27.02 17.0121 26.948C17.0124 26.5188 16.8042 26.1456 16.2868 26.1456ZM18.1794 28.2196L18.1841 28.1576L18.4519 26.3215H17.4308L17.3664 26.7819H17.8143C17.7772 26.7819 17.7542 26.8223 17.7497 26.8586L17.5648 28.0814C17.5557 28.1403 17.5512 28.2628 17.5512 28.3121C17.5512 28.6279 17.7266 28.854 18.0867 28.854H18.401L18.4703 28.3935H18.2718C18.2022 28.3935 18.1794 28.2736 18.1794 28.2196ZM18.5766 25.4006H17.976C17.939 25.4006 17.939 25.2677 17.9345 25.3129L17.8511 25.9617C17.8463 26.0025 17.8463 26.0914 17.8833 26.0914H18.4842C18.5212 26.0914 18.5212 25.9336 18.5257 25.8926L18.6091 25.3918C18.6138 25.3467 18.6138 25.4006 18.5766 25.4006ZM19.8296 28.2349C19.6773 28.2349 19.6033 28.1717 19.6033 28.0365L19.608 28.0273L19.802 26.7819H20.5042L20.7166 26.3215H19.8666L20.0097 25.3083L19.3632 25.5102L19.2475 26.3215H18.8733L18.8088 26.7819H19.243C19.2015 27.0122 19.1598 26.8628 19.1553 26.9081L18.9889 28.0001C18.9797 28.0499 18.9797 28.0859 18.9797 28.1308C18.9797 28.5596 19.303 28.72 19.6915 28.72C20.0517 28.72 20.3428 28.6173 20.5693 28.432L20.2827 28.0876C20.1392 28.1732 20.0423 28.2349 19.8296 28.2349ZM22.0842 26.1456C21.2388 26.1456 20.8415 26.538 20.7074 27.4268C20.6936 27.5353 20.6843 27.6392 20.6843 27.7383C20.6843 28.3476 21.003 28.7132 21.7052 28.7132C22.2504 28.7132 22.6573 28.4919 22.8741 28.0857L22.4076 27.9007C22.2738 28.0991 22.0935 28.2345 21.7745 28.2345C21.4329 28.2345 21.294 28.1447 21.294 27.8468C21.294 27.788 21.299 27.7027 21.3083 27.7027H22.976C22.999 27.4724 23.0268 27.3097 23.0268 27.1747C23.0268 26.7238 22.8513 26.1455 22.0842 26.1455V26.1456ZM22.4031 27.2425H21.3867C21.4883 27.0122 21.659 26.6558 22.0104 26.6558C22.2829 26.6558 22.4171 26.8114 22.4171 27.0776C22.4168 27.1227 22.4123 27.2425 22.4031 27.2425ZM24.7271 26.1455C24.5053 26.1455 24.2974 26.2697 24.0894 26.4634L24.0524 26.3215H23.5444L23.1886 28.8539H23.8077L24.0802 26.8929C24.242 26.7983 24.4268 26.7176 24.6023 26.7176C24.7134 26.7176 24.8194 26.7003 24.921 26.7137L25 26.1906C24.9071 26.1725 24.8147 26.1456 24.7271 26.1456V26.1455ZM9.03711 23.5867C7.63867 22.9963 6.33008 21.4957 6.32695 19.9604C6.32314 18.2864 7.40928 16.8652 8.76016 15.9312C8.59775 16.5305 8.50918 17.0787 8.91152 17.6147C9.28555 18.1131 9.94063 18.3553 10.5592 18.2238C12.0045 17.9148 12.0708 16.3629 11.214 15.4588C10.3668 14.5634 9.54727 13.5521 9.86973 12.2536C10.0312 11.6027 10.4403 10.993 10.9587 10.5572C10.5603 11.5799 11.6925 12.5885 12.4385 13.0909C13.7325 13.9625 15.1523 14.6212 16.3422 15.643C17.5938 16.7168 18.518 18.1687 18.3313 19.8527C18.1291 21.6779 16.6441 22.9474 14.9785 23.5882C18.4982 22.8295 22.1351 20.1613 22.2096 16.3487C22.2713 13.212 20.0683 10.7981 17.3393 9.41608L17.1967 9.34005C17.2716 9.51756 17.2961 9.66855 17.2933 9.80371C17.3177 9.70404 17.3343 9.60159 17.339 9.49591C17.3383 9.62146 17.3215 9.74644 17.289 9.8679L17.2933 9.80371C17.2527 9.97024 17.1845 10.1291 17.0912 10.274L17.1313 10.232C16.5868 11.114 15.1129 11.3055 14.3848 10.3922C13.2143 8.92314 14.4093 7.33921 14.5765 5.78352C14.7857 3.8338 13.5339 1.94102 11.9817 0.80835C12.8366 2.15907 11.7104 3.94606 10.8093 4.9451C9.93555 5.91352 8.87295 6.72208 7.9084 7.60199C6.87227 8.54704 5.87617 9.54255 5.02451 10.6518C3.32119 12.8719 2.27842 15.6641 3.04473 18.4339C3.81055 21.2017 6.26523 22.9636 9.03721 23.5866L9.03711 23.5867Z" fill="#EE4323"/>
</g>
<defs>
<clipPath id="clip0_531_24082">
<rect width="25" height="29" fill="white" transform="translate(0 0.80835)"/>
</clipPath>
</defs>
</svg>
