<svg width="22" height="21" viewBox="0 0 22 21" fill="none" xmlns="http://www.w3.org/2000/svg">
<g clip-path="url(#clip0_509_24949)">
<path d="M19.2434 17.4699C19.0137 17.4699 18.8496 17.5481 18.7184 17.6574L18.784 17.3293L18.1605 17.3606L17.816 18.8918C17.7504 19.0481 17.5863 19.2356 17.4223 19.2356C17.3074 19.2356 17.2418 19.1887 17.2418 19.0637C17.2418 19.0324 17.2418 18.9699 17.2582 18.9231L17.5863 17.4856H16.9301L16.6348 18.8449C16.6184 18.9543 16.602 19.0324 16.602 19.1262C16.602 19.4856 16.8152 19.6262 17.0777 19.6262C17.2418 19.6262 17.5043 19.5793 17.734 19.3137L17.4387 20.6574L18.1113 20.5012L18.341 19.4699C18.3902 19.5481 18.5051 19.6262 18.7184 19.6262C19.5715 19.6262 19.8012 18.7043 19.8012 18.1262C19.7848 17.6418 19.5551 17.4699 19.2434 17.4699ZM18.5543 19.2668C18.4559 19.2668 18.4066 19.2199 18.3902 19.1731L18.6527 17.9856C18.7348 17.8606 18.866 17.7824 18.9645 17.7824C19.0465 17.7824 19.1777 17.7981 19.1777 18.1262C19.1777 18.5324 19.0301 19.2668 18.5543 19.2668ZM20.8512 17.5012C20.9332 17.0324 20.9988 16.8293 20.9988 16.8293L20.3426 16.9231L20.2113 17.5012H20.0637L20.0309 17.6574H20.1785L19.8996 18.9231C19.8832 19.0012 19.8668 19.0793 19.8668 19.1418C19.8668 19.4231 19.998 19.6262 20.3098 19.6262C20.4574 19.6262 20.6543 19.5793 20.7855 19.2043C20.7527 19.2199 20.7035 19.2199 20.6707 19.2199C20.5559 19.2199 20.523 19.1574 20.523 19.0637L20.5395 18.9231L20.8184 17.6418H21.0809L21.1137 17.4856H20.8512V17.5012ZM17.0285 16.9231C17.0285 17.1106 17.1762 17.2512 17.373 17.2512C17.5699 17.2512 17.7176 17.1106 17.7176 16.9231C17.7176 16.7356 17.5535 16.5949 17.373 16.5949C17.1926 16.5949 17.0285 16.7356 17.0285 16.9231ZM10.7285 17.8606C10.7285 17.6574 10.6301 17.4543 10.2363 17.4543C9.35039 17.4543 9.05508 18.4231 9.03867 18.9231C8.8418 19.1262 8.62852 19.2824 8.3168 19.2824C8.10352 19.2824 8.00508 19.2199 8.00508 18.9231C8.00508 18.8762 8.00508 18.8137 8.02148 18.7512C8.54648 18.7199 9.03867 18.3449 9.03867 17.8606C9.03867 17.6574 8.94023 17.4543 8.54648 17.4543C7.62773 17.4543 7.34883 18.4699 7.34883 18.9543C7.34883 19.4387 7.62773 19.6262 8.03789 19.6262C8.49727 19.6262 8.80898 19.3918 9.05508 19.1106C9.1207 19.4699 9.3668 19.6262 9.72773 19.6262C10.0887 19.6262 10.4004 19.4856 10.4988 19.0012C10.3512 19.1106 10.1379 19.2199 9.97383 19.2199C9.82617 19.2199 9.69492 19.1262 9.69492 18.8606C9.69492 18.8293 9.69492 18.7824 9.71133 18.7356C10.2363 18.7199 10.7285 18.3606 10.7285 17.8606ZM10.2691 17.6887C10.3512 17.6887 10.384 17.7512 10.384 17.8606C10.384 18.2199 10.0887 18.5481 9.72773 18.5637C9.82617 18.1574 10.0559 17.6887 10.2691 17.6887ZM8.56289 17.6887C8.64492 17.6887 8.67773 17.7512 8.67773 17.8606C8.67773 18.2199 8.38242 18.5324 8.03789 18.5637C8.11992 18.1262 8.34961 17.6887 8.56289 17.6887ZM12.566 17.2824C12.6316 17.3449 12.6809 17.3762 12.7793 17.3762C12.9926 17.3762 13.1402 17.1887 13.1402 16.9387C13.1402 16.4699 12.6316 16.4387 12.4184 16.4387C11.8441 16.4387 11.3848 16.7512 11.3848 17.2043C11.3848 17.8293 12.2871 18.0793 12.2871 18.8137C12.2871 19.1731 12.0738 19.3762 11.7621 19.3762C11.4832 19.3762 11.3355 19.1731 11.3355 18.9699C11.3355 18.6887 11.6145 18.5793 11.8605 18.5793C11.8441 18.3606 11.6145 18.2981 11.4668 18.2981C11.1551 18.2981 10.8105 18.5324 10.8105 18.9856C10.8105 19.5012 11.2535 19.7199 11.7621 19.7199C12.4184 19.7199 13.009 19.3762 13.009 18.6574C13.009 17.7512 12.0082 17.6574 12.0082 17.0324C12.0082 16.7824 12.1723 16.6574 12.4184 16.6574C12.6645 16.6574 12.7465 16.7981 12.7465 16.9387C12.7793 17.0637 12.6973 17.2043 12.566 17.2824ZM7.61133 17.5012H7.15195L7.23398 17.1418C7.29961 16.8606 7.44727 16.8137 7.5293 16.8137C7.61133 16.8137 7.69336 16.8449 7.69336 16.9387C7.69336 16.9699 7.69336 17.0324 7.67695 17.0324H7.89023C7.90664 17.0324 7.90664 16.9543 7.90664 16.8762C7.90664 16.5949 7.64414 16.4231 7.38164 16.4231C7.18477 16.4231 6.95508 16.4856 6.77461 16.6887C6.69258 16.5324 6.4957 16.4231 6.29883 16.4231C6.00352 16.4231 5.62617 16.5481 5.49492 17.1418L5.29805 18.0324C5.1668 18.0793 5.05195 18.1106 4.93711 18.1106C4.9207 18.1106 4.9043 18.1106 4.88789 18.0949C4.88789 17.6574 4.70742 17.4231 4.31367 17.4074C3.41133 17.4074 3.11602 18.3762 3.09961 18.8762C2.90273 19.0949 2.60742 19.2199 2.2957 19.2199C1.86914 19.2199 1.7707 18.9387 1.7707 18.5637C1.7707 17.7043 2.21367 16.5949 2.68945 16.5949C2.88633 16.5949 2.96836 16.7199 2.96836 16.8606C2.96836 17.0168 2.86992 17.1887 2.75508 17.2512C2.83711 17.3449 2.93555 17.3606 3.01758 17.3606C3.24727 17.3606 3.3293 17.2043 3.3293 16.9699C3.3293 16.5637 3.00117 16.4074 2.59102 16.4074C1.42617 16.4074 1.04883 17.8449 1.04883 18.6106C1.04883 19.3762 1.36055 19.6418 2.0168 19.6418C2.36133 19.6418 2.83711 19.4856 3.13242 19.1106C3.19805 19.4387 3.47695 19.5793 3.82148 19.5793C4.36289 19.5793 4.80586 19.0949 4.88789 18.3137C5.01914 18.2981 5.15039 18.2668 5.26523 18.2199L4.96992 19.5481C4.54336 19.6731 4.19883 19.7981 4.19883 20.1887C4.19883 20.4699 4.46133 20.6418 4.72383 20.6418C4.9207 20.6418 5.15039 20.5949 5.33086 20.3762C5.39648 20.5324 5.56055 20.6418 5.80664 20.6418C6.10195 20.6418 6.4793 20.5324 6.61055 19.9231L7.11914 17.6418H7.56211L7.61133 17.5012ZM4.52695 18.3606C4.46133 18.8606 4.23164 19.2512 4.01836 19.2356C3.8543 19.2356 3.78867 19.1731 3.78867 18.8918C3.78867 18.4699 4.05117 17.7043 4.3793 17.7043C4.49414 17.7043 4.54336 17.7668 4.54336 17.9543C4.46133 17.9856 4.41211 18.0637 4.41211 18.1887C4.41211 18.2668 4.42852 18.3449 4.52695 18.3606ZM4.9207 19.9699C4.85508 20.2199 4.75664 20.2981 4.6582 20.2981C4.55977 20.2981 4.47773 20.2199 4.47773 20.1574C4.47773 19.9231 4.69102 19.8137 4.96992 19.7199L4.9207 19.9699ZM5.9707 19.9699C5.90508 20.2199 5.80664 20.2981 5.7082 20.2981C5.59336 20.2981 5.49492 20.2824 5.4457 20.2199C5.47852 20.1418 5.51133 20.0637 5.52773 19.9543L5.60977 19.5637L6.06914 19.4856L5.9707 19.9699ZM6.10195 19.3762L5.64258 19.4543L6.03633 17.6574H6.4793L6.10195 19.3762ZM6.61055 17.0481L6.51211 17.5012H6.06914L6.15117 17.1574C6.2168 16.8762 6.36445 16.8293 6.44648 16.8293C6.54492 16.8293 6.61055 16.8762 6.61055 16.9699C6.62695 16.9856 6.62695 17.0168 6.61055 17.0481ZM16.684 17.8137C16.684 17.6418 16.5691 17.4856 16.3723 17.4856C16.159 17.4856 15.9785 17.6262 15.8309 17.7512L15.8965 17.4856L15.2566 17.5012L14.9613 18.8449C14.748 19.0793 14.5184 19.2668 14.1738 19.2668C13.9605 19.2668 13.8457 19.2043 13.8457 18.9074C13.8457 18.4387 14.141 17.6574 14.4199 17.6574C14.502 17.6574 14.5348 17.7199 14.5348 17.8293C14.5348 17.9074 14.5184 17.9856 14.4855 18.0793C14.5348 18.1106 14.584 18.1262 14.6332 18.1262C14.7645 18.1262 14.8629 18.0168 14.8629 17.8137C14.8629 17.6262 14.7645 17.4231 14.3707 17.4231C13.4684 17.4231 13.173 18.4387 13.173 18.9231C13.173 19.4074 13.452 19.5949 13.8621 19.5949C14.3051 19.5949 14.6168 19.4074 14.8629 19.1418L14.748 19.6574H15.3879L15.7324 18.0168C15.8473 17.9231 15.9293 17.8449 16.0605 17.8449C16.1918 17.8449 16.077 18.1106 16.323 18.1106C16.5855 18.1418 16.684 17.9543 16.684 17.8137ZM9.16992 3.75119C10.8105 3.61057 11.2863 2.61057 13.2059 2.45432C14.1574 2.37619 14.748 2.56369 14.8137 2.87619C14.8793 3.17307 14.4035 3.37619 13.8457 3.42307C13.0582 3.50119 12.7301 3.23557 12.6645 2.96994C12.0738 3.03244 11.9918 3.26682 12.0246 3.43869C12.0902 3.75119 12.7957 4.06369 14.0098 3.96994C15.3715 3.86057 15.8309 3.36057 15.7324 2.82932C15.5848 2.15744 14.5348 1.59494 12.648 1.76682C10.2199 1.96994 10.2363 3.04807 8.5793 3.17307C7.90664 3.23557 7.5293 3.07932 7.46367 2.82932C7.41445 2.57932 7.74258 2.45432 8.13633 2.42307C8.49727 2.39182 8.94023 2.45432 9.13711 2.56369C9.30117 2.48557 9.33398 2.40744 9.33398 2.32932C9.26836 2.09494 8.75977 1.98557 8.13633 2.03244C6.90586 2.14182 6.90586 2.65744 6.95508 2.89182C7.05352 3.43869 8.00508 3.84494 9.16992 3.75119ZM5.77383 5.23557C7.2832 5.59494 9.21914 5.79807 11.5488 5.79807C13.9277 5.79807 15.8145 5.61057 17.3238 5.23557C18.9316 4.87619 19.7027 4.39182 19.7027 3.93869C19.7027 3.61057 19.3582 3.29807 18.7348 3.04807C18.8824 3.14182 18.9809 3.28244 18.9809 3.45432C18.9809 3.92307 18.259 4.29807 16.7988 4.61057C15.4371 4.89182 13.7145 5.09494 11.598 5.09494C9.56367 5.09494 7.75898 4.90744 6.44648 4.62619C5.05195 4.29807 4.29727 3.93869 4.29727 3.46994C4.29727 3.28244 4.3957 3.11057 4.67461 2.90744C3.78867 3.23557 3.31289 3.50119 3.31289 3.92307C3.37852 4.40744 4.16602 4.87619 5.77383 5.23557ZM3.46055 12.4856C4.08398 12.9543 4.77305 13.0793 5.54414 12.9543C5.83945 12.9074 6.16758 12.7668 6.4793 12.6731C5.85586 12.6731 5.31445 12.4856 4.77305 12.0793C4.18242 11.6731 3.80508 11.1106 3.70664 10.4074C3.55898 9.76682 3.70664 9.15744 4.08398 8.64182L4.34648 8.36057C4.55977 8.86057 4.80586 9.36057 5.06836 9.81369C5.65898 10.6574 6.2332 11.3918 6.82383 12.1887C7.06992 12.6574 7.25039 13.1106 7.36523 13.5793C7.74258 14.0949 8.30039 14.4387 8.97305 14.6262C9.80977 14.9074 10.6793 15.0012 11.5488 15.0012H11.6473C12.5332 15.0012 13.452 14.8918 14.3051 14.6262C14.9285 14.4387 15.4699 14.0637 15.8637 13.5949H15.9129C16.0113 13.1262 16.159 12.6574 16.4051 12.1887C16.9957 11.3918 17.5699 10.6574 18.1605 9.81369C18.9316 8.48557 19.473 6.95432 19.7684 5.31369C19.4566 5.73557 18.7348 6.09494 17.4223 6.37619C15.9129 6.70432 13.977 6.92307 11.6473 6.92307C9.26836 6.92307 7.33242 6.68869 5.82305 6.36057C4.46133 6.03244 3.73945 5.67307 3.49336 5.29807C3.62461 6.14182 3.83789 6.95432 4.1332 7.73557C3.78867 7.93869 3.47695 8.20432 3.19805 8.53244C2.65664 9.17307 2.42695 9.92307 2.47617 10.6574C2.52539 11.3918 2.86992 12.0168 3.46055 12.4856Z" fill="#28334C"/>
</g>
<defs>
<clipPath id="clip0_509_24949">
<rect width="21" height="20" fill="white" transform="translate(0.589355 0.93869)"/>
</clipPath>
</defs>
</svg>
