<svg width="23" height="24" viewBox="0 0 23 24" fill="none" xmlns="http://www.w3.org/2000/svg">
<path d="M18.2203 13.9756C18.2203 14.8741 17.7352 15.3233 16.8547 15.3592H6.09141C5.21094 15.3592 4.72578 14.91 4.72578 13.9756C4.72578 13.0772 5.21094 12.628 6.09141 12.592H16.9086C17.7891 12.628 18.2203 13.0772 18.2203 13.9756ZM16.9086 16.042H6.09141C5.21094 16.042 4.72578 16.4733 4.72578 17.4256C4.72578 18.3241 5.21094 18.7553 6.09141 18.8092H16.9086C17.7891 18.8092 18.2742 18.36 18.2742 17.4256C18.2203 16.4733 17.7891 16.042 16.9086 16.042ZM20.2508 8.4772C19.3703 8.4772 18.8852 8.92642 18.8852 9.80688V17.3717C18.8852 18.2702 19.3703 18.7194 20.2508 18.7553C21.5805 18.7194 22.2812 17.3717 22.2812 14.6405V11.2444C22.2812 9.41157 21.5805 8.51313 20.2508 8.4772ZM2.74922 8.4772C1.41953 8.51313 0.71875 9.41157 0.71875 11.2444V14.6405C0.71875 17.3717 1.41953 18.7194 2.74922 18.7553C3.62969 18.7553 4.11484 18.3241 4.11484 17.3717V9.86079C4.07891 8.96235 3.62969 8.51313 2.74922 8.4772ZM20.2508 7.79438C20.2508 5.51235 19.0648 4.43423 16.9086 4.39829H6.09141C3.89922 4.43423 2.74922 5.56626 2.74922 7.79438C4.07891 7.79438 4.77969 8.51313 4.77969 9.86079C4.77969 11.2084 5.48047 11.9092 6.81016 11.9092H16.2438C17.5555 11.9092 18.2742 11.2084 18.2742 9.86079C18.2203 8.4772 18.975 7.84829 20.2508 7.79438Z" fill="#E42528"/>
</svg>
