<svg width="30" height="31" viewBox="0 0 30 31" fill="none" xmlns="http://www.w3.org/2000/svg">
<g clip-path="url(#clip0_517_25704)">
<path d="M27.0469 7.89972L15.7266 1.38409C15.5391 1.26691 15.2812 1.22003 15 1.22003C14.7188 1.22003 14.4609 1.29034 14.2734 1.38409L3.02344 7.92316C2.625 8.15753 2.34375 8.74347 2.34375 9.18878V22.2435C2.34375 22.5013 2.39062 22.806 2.57812 23.0638L27.6094 8.53253C27.4688 8.25128 27.2578 8.04034 27.0469 7.89972Z" fill="#9B4F96"/>
<path d="M2.50781 23.0403C2.625 23.2278 2.78906 23.3919 2.95313 23.4857L14.25 30.0247C14.4375 30.1419 14.6953 30.1888 14.9766 30.1888C15.2578 30.1888 15.5156 30.1185 15.7031 30.0247L26.9531 23.4857C27.3516 23.2513 27.6328 22.6653 27.6328 22.22V9.16534C27.6328 8.95441 27.6094 8.72003 27.4922 8.50909L2.50781 23.0403Z" fill="#68217A"/>
<path d="M19.9922 18.5403C19.0078 20.2747 17.1328 21.4466 15 21.4466C11.8359 21.4466 9.25781 18.8685 9.25781 15.7044C9.25781 12.5403 11.8359 9.96222 15 9.96222C17.1328 9.96222 19.0078 11.1341 19.9922 12.8919L23.0391 11.1341C21.4453 8.34503 18.4453 6.44659 15 6.44659C9.89063 6.44659 5.74219 10.595 5.74219 15.7044C5.74219 20.8138 9.89063 24.9622 15 24.9622C18.4219 24.9622 21.4219 23.0872 23.0156 20.3216L19.9922 18.5403ZM22.7344 16.22L22.9453 15.2122H21.9609V14.1107H23.1563L23.4375 12.6575H24.5859L24.3047 14.0872H25.1953L25.4766 12.6575H26.6016L26.3203 14.0872H26.8828V15.1888H26.1094L25.8984 16.1966H26.8828V17.2982H25.6875L25.4063 18.7044H24.2578L24.5391 17.2982H23.6484L23.3672 18.7044H22.2422L22.5234 17.2982H21.9609V16.1966H22.7344V16.22ZM23.8594 16.22H24.75L24.9609 15.2122H24.0703L23.8594 16.22Z" fill="white"/>
</g>
<defs>
<clipPath id="clip0_517_25704">
<rect width="30" height="30" fill="white" transform="translate(0 0.704407)"/>
</clipPath>
</defs>
</svg>
