<svg width="24" height="25" viewBox="0 0 24 25" fill="none" xmlns="http://www.w3.org/2000/svg">
<g clip-path="url(#clip0_544_35436)">
<path d="M11.998 0.91217C5.366 0.91217 2.67047e-06 6.27917 2.67047e-06 12.9122C-0.00104915 14.4883 0.308622 16.0492 0.911306 17.5056C1.51399 18.962 2.39786 20.2853 3.51238 21.3998C4.62689 22.5143 5.95018 23.3982 7.40656 24.0009C8.86294 24.6036 10.4238 24.9132 12 24.9122C18.633 24.9122 24 19.5452 24 12.9122C23.999 6.27917 18.588 0.91217 11.998 0.91217ZM6.37 15.4872C6.762 16.0102 7.286 16.2292 8.027 16.2292C8.377 16.2292 8.726 16.1852 9.031 16.0542C9.337 15.9242 9.686 15.7482 10.121 15.4872L11.344 17.2322C10.341 18.0622 9.206 18.4542 7.897 18.4542C6.849 18.4542 5.977 18.2362 5.192 17.8002C4.42993 17.3506 3.82137 16.6814 3.446 15.8802C3.054 15.0502 2.835 14.0902 2.835 12.9552C2.835 11.8652 3.054 10.8612 3.445 10.0322C3.81833 9.20629 4.4262 8.50836 5.193 8.02517C5.934 7.54517 6.85 7.32717 7.854 7.32717C8.553 7.32717 9.207 7.41417 9.731 7.63217C10.3189 7.85972 10.8644 8.18422 11.345 8.59217L10.123 10.2502C9.81277 10.0211 9.476 9.83041 9.12 9.68217C8.815 9.55217 8.422 9.50817 8.072 9.50817C6.589 9.50817 5.847 10.6422 5.847 12.9542C5.804 14.1342 6.022 14.9622 6.371 15.4862L6.37 15.4872ZM18.37 18.1922C17.934 19.5452 17.279 20.5492 16.362 21.2902C15.446 22.0332 14.224 22.4252 12.697 22.5562L12.392 20.5062C13.395 20.3742 14.137 20.1562 14.617 19.8062C14.791 19.6762 15.141 19.2832 15.141 19.2832L11.519 7.67617H14.529L16.624 16.3592L18.85 7.67617H21.773L18.37 18.1922Z" fill="black"/>
</g>
<defs>
<clipPath id="clip0_544_35436">
<rect width="24" height="24" fill="white" transform="translate(0 0.91217)"/>
</clipPath>
</defs>
</svg>
