<svg width="25" height="26" viewBox="0 0 25 26" fill="none" xmlns="http://www.w3.org/2000/svg">
<path d="M24.6747 17.9594C24.6854 17.8524 24.6938 17.7451 24.6997 17.6377C24.7071 17.5098 17.0106 10.2075 17.0106 10.2075H16.8267C16.8267 10.2075 24.6274 18.436 24.6747 17.9594Z" fill="url(#paint0_linear_531_23838)"/>
<path d="M8.25402 15.4262C8.23334 15.4722 8.21198 15.5179 8.18995 15.5633C7.94464 16.075 11.6245 19.6723 11.9204 19.2352C11.9341 19.216 11.9478 19.1957 11.961 19.1766C11.9761 19.1535 11.9907 19.1317 12.0056 19.1086C12.2425 18.7492 8.3591 15.1926 8.25421 15.4262H8.25402Z" fill="url(#paint1_linear_531_23838)"/>
<path d="M13.4541 20.4848C13.4438 20.5078 13.3696 20.6332 13.3018 20.6993C13.2905 20.7221 16.8944 24.2963 16.8944 24.2963H17.2186C17.219 24.2963 13.8358 20.6362 13.4541 20.485V20.4848Z" fill="url(#paint2_linear_531_23838)"/>
<path d="M24.7048 17.5727C24.5362 21.309 21.445 24.2963 17.6688 24.2963H17.1583L13.3868 20.5811C13.6988 20.144 13.9844 19.6888 14.2423 19.2178H17.6688C18.7528 19.2178 19.6345 18.3362 19.6345 17.252C19.6345 16.168 18.7526 15.2864 17.6688 15.2864H15.6411C15.7993 14.4556 15.8793 13.6118 15.8802 12.7661C15.8802 11.8911 15.7942 11.0372 15.6341 10.2075H16.8938L24.6829 17.8823C24.6919 17.7792 24.6992 17.676 24.7048 17.5727ZM2.33643 1.19809H0.287598V6.2768H2.33643C5.91455 6.2768 8.82666 9.18754 8.82666 12.7661C8.82666 13.7395 8.60928 14.6637 8.22354 15.4934L11.961 19.1762C13.2312 17.2799 13.9084 15.0485 13.9063 12.7661C13.9063 6.38754 8.71611 1.19809 2.33682 1.19809H2.33643Z" fill="url(#paint3_linear_531_23838)"/>
<path d="M17.6686 1.19808H9.37207C11.4036 2.4388 13.0749 4.18975 14.2197 6.27679H17.6686C18.7525 6.27679 19.6342 7.15824 19.6342 8.24242C19.6342 9.3264 18.7523 10.2073 17.6686 10.2073H16.8936L24.6826 17.8823C24.7018 17.6726 24.7117 17.4623 24.7123 17.2518C24.7123 15.5397 24.0979 13.9692 23.0779 12.7467C24.098 11.5248 24.7123 9.95375 24.7123 8.24222C24.7123 4.35805 21.5527 1.19769 17.6686 1.19769V1.19808Z" fill="url(#paint4_linear_531_23838)"/>
<path d="M17.1583 24.2963H9.43174C10.9852 23.3348 12.3301 22.0715 13.3868 20.5811L17.1583 24.2963ZM11.961 19.1762L8.22393 15.4936C7.19131 17.7127 4.94131 19.2561 2.33662 19.2561H0.287598V24.3342H2.33643C6.34619 24.3342 9.88486 22.2834 11.9614 19.1766L11.961 19.1762Z" fill="url(#paint5_linear_531_23838)"/>
<defs>
<linearGradient id="paint0_linear_531_23838" x1="10.36" y1="2.96254" x2="24.8358" y2="18.5926" gradientUnits="userSpaceOnUse">
<stop stop-color="#F9A03C"/>
<stop offset="1" stop-color="#F7974E"/>
</linearGradient>
<linearGradient id="paint1_linear_531_23838" x1="-1.76173" y1="5.81212" x2="11.9939" y2="19.1535" gradientUnits="userSpaceOnUse">
<stop stop-color="#F9A03C"/>
<stop offset="1" stop-color="#F7974E"/>
</linearGradient>
<linearGradient id="paint2_linear_531_23838" x1="4.52534" y1="10.5328" x2="16.5653" y2="24.7186" gradientUnits="userSpaceOnUse">
<stop stop-color="#F9A03C"/>
<stop offset="1" stop-color="#F7974E"/>
</linearGradient>
<linearGradient id="paint3_linear_531_23838" x1="3.36844" y1="0.537112" x2="19.5503" y2="23.0991" gradientUnits="userSpaceOnUse">
<stop stop-color="#F26D58"/>
<stop offset="1" stop-color="#F9A03C"/>
</linearGradient>
<linearGradient id="paint4_linear_531_23838" x1="11.7219" y1="1.98165" x2="28.5148" y2="12.1237" gradientUnits="userSpaceOnUse">
<stop stop-color="#B84E51"/>
<stop offset="1" stop-color="#F68E48"/>
</linearGradient>
<linearGradient id="paint5_linear_531_23838" x1="8.22671" y1="17.5754" x2="8.45451" y2="28.5333" gradientUnits="userSpaceOnUse">
<stop stop-color="#F9A03C"/>
<stop offset="1" stop-color="#F7974E"/>
</linearGradient>
</defs>
</svg>
