<svg width="26" height="26" viewBox="0 0 26 26" fill="none" xmlns="http://www.w3.org/2000/svg">
<g clip-path="url(#clip0_526_23276)">
<path d="M7.14249 7.76731L5.46143 6.15012L5.46793 17.831L5.48824 18.3763C5.49636 18.6341 5.54714 18.9232 5.62839 19.224L18.9432 23.7396L22.2745 22.3216L22.2773 22.3169L7.14168 7.76731H7.14249Z" fill="#00C4B3"/>
<path d="M5.62898 19.2239H5.6302C5.62898 19.2193 5.62695 19.2138 5.62451 19.2083C5.62736 19.2142 5.62736 19.22 5.62857 19.2239H5.62898ZM22.2714 22.3216L18.9402 23.7396L5.62736 19.2239C5.88126 20.163 6.44473 21.2185 7.05004 21.7943L11.3929 25.9493L21.0567 25.9611L22.2674 22.3216H22.2714Z" fill="#22D3C5"/>
<path d="M5.50692 6.15074L0.330076 13.6683C-0.0997363 14.1097 0.114764 15.0207 0.806607 15.6918L3.79498 18.5886L5.67348 19.2253C5.59223 18.9253 5.54104 18.6394 5.53333 18.3777L5.51301 17.8324L5.50692 6.15152V6.15074Z" fill="#0075C9"/>
<path d="M19.0529 6.3009C18.7401 6.22473 18.4403 6.17669 18.1701 6.16926L17.5697 6.14817L5.46143 6.1509L22.2769 22.3173L23.7541 19.1142L19.0537 6.30169L19.0529 6.3009Z" fill="#0075C9"/>
<path d="M19.0376 6.29817C19.0429 6.30012 19.0486 6.30129 19.053 6.30207V6.30051C19.0478 6.29934 19.0429 6.29934 19.0376 6.29739V6.29817ZM21.7249 7.67239C21.1135 7.08059 20.0309 6.53957 19.053 6.30207L23.7533 19.1134L22.2746 22.3165L25.8829 21.2079L25.891 11.6954L21.7245 7.672L21.7249 7.67239Z" fill="#00A8E1"/>
<path d="M18.394 4.50598L15.3877 1.63098C14.6866 0.968092 13.7392 0.76106 13.2842 1.17356L5.46631 6.15012L17.5746 6.14739L18.175 6.16848C18.4452 6.1763 18.7454 6.22395 19.0578 6.30012L18.3948 4.5052L18.394 4.50598Z" fill="#00C4B3"/>
</g>
<defs>
<clipPath id="clip0_526_23276">
<rect width="26" height="25" fill="white" transform="translate(0 0.96106)"/>
</clipPath>
</defs>
</svg>
