<svg width="18" height="23" viewBox="0 0 18 23" fill="none" xmlns="http://www.w3.org/2000/svg">
<g clip-path="url(#clip0_531_24016)">
<path d="M8.07075 0.302612H11.8169V16.7802C9.89803 17.1285 8.48545 17.2655 6.95707 17.2655C2.3817 17.2609 0 15.2993 0 11.5318C0 7.9018 2.52633 5.54593 6.44119 5.54593C7.04869 5.54593 7.51148 5.59182 8.07075 5.72927V0.302612ZM8.20202 8.69871C7.76327 8.56119 7.40173 8.51538 6.93886 8.51538C5.04415 8.51538 3.94973 9.62451 3.94973 11.5683C3.94973 13.4608 4.99598 14.5057 6.91481 14.5057C7.32937 14.5057 7.66687 14.4833 8.20202 14.4146V8.69871Z" fill="#2BA977"/>
<path d="M17.9429 5.98832V14.2384C17.9429 17.0796 17.7212 18.4459 17.0703 19.6238C16.4628 20.7563 15.6625 21.4704 14.0088 22.2592L10.5327 20.6871C12.1864 19.9496 12.9867 19.2979 13.4978 18.3033C14.0329 17.2863 14.2016 16.1083 14.2016 13.01V5.98839L17.9429 5.98832ZM13.8241 0.302612H17.5702V3.95554H13.8241V0.302612Z" fill="#2BA977"/>
</g>
<defs>
<clipPath id="clip0_531_24016">
<rect width="18" height="22" fill="white" transform="translate(0 0.302612)"/>
</clipPath>
</defs>
</svg>
