<svg width="30" height="30" viewBox="0 0 30 30" fill="none" xmlns="http://www.w3.org/2000/svg">
<path fill-rule="evenodd" clip-rule="evenodd" d="M4.6875 22.7936V20.9584C4.6875 20.7092 4.85156 20.5279 5.10937 20.5279H5.17969C5.4375 20.5279 5.60156 20.7318 5.60156 20.9584V24.81C5.60156 25.7389 5.13281 26.4865 4.28906 26.9623C3.89062 27.1889 3.46875 27.3021 3.02344 27.3021H2.83594C1.875 27.3021 1.10156 26.849 0.609375 26.0334C0.375 25.6482 0.257812 25.2404 0.257812 24.81V24.6287C0.257812 23.6998 0.726562 22.9521 1.57031 22.4764C1.96875 22.2498 2.39062 22.1365 2.83594 22.1365H3.02344C3.65625 22.1592 4.21875 22.3857 4.6875 22.7936ZM1.14844 24.7193C1.14844 25.399 1.5 25.8975 2.10938 26.2373C2.36719 26.3732 2.625 26.4412 2.90625 26.4412C3.58594 26.4412 4.10156 26.124 4.45312 25.5576C4.61719 25.2857 4.6875 25.0139 4.6875 24.6967C4.6875 24.1076 4.40625 23.6545 3.91406 23.3146C3.60938 23.1107 3.28125 22.9975 2.92969 22.9975C2.17969 22.9975 1.64062 23.36 1.3125 24.017C1.19531 24.2436 1.14844 24.4928 1.14844 24.7193ZM8.69531 22.1592H8.8125C9.84375 22.1592 10.6406 22.635 11.1328 23.5186C11.3438 23.8584 11.4375 24.2436 11.4375 24.6514V24.8326C11.4375 25.7615 10.9688 26.5092 10.125 26.985C9.72656 27.2115 9.30469 27.3248 8.85938 27.3248H8.67188C7.71094 27.3248 6.9375 26.8717 6.44531 26.0561C6.21094 25.6709 6.09375 25.2631 6.09375 24.8326V24.6514C6.09375 23.7225 6.58594 22.9748 7.40625 22.499C7.80469 22.2498 8.25 22.1592 8.69531 22.1592ZM7.00781 24.7193C7.00781 25.3764 7.33594 25.8521 7.92188 26.192C8.20312 26.3506 8.48438 26.4186 8.8125 26.4186C9.49219 26.4186 9.98438 26.0787 10.3359 25.535C10.5 25.2631 10.5703 24.9912 10.5703 24.674C10.5703 24.0623 10.2656 23.5865 9.75 23.2467C9.46875 23.0654 9.14062 22.9748 8.8125 22.9748C8.0625 22.9748 7.52344 23.3373 7.19531 23.9943C7.05469 24.2436 7.00781 24.4928 7.00781 24.7193ZM15.1641 23.0881C15.0234 23.0201 14.7656 22.9975 14.625 22.9975C13.875 22.9748 13.3359 23.3826 13.0078 24.017C12.8906 24.2436 12.8438 24.4701 12.8438 24.7193C12.8438 25.467 13.2422 25.9881 13.9219 26.3053C14.1797 26.4186 14.4844 26.4412 14.7656 26.4412C15 26.4412 15.3516 26.3053 15.5625 26.192L15.6094 26.1693H15.7969C16.0078 26.2146 16.1484 26.3279 16.1484 26.5545V26.6451C16.1484 27.1662 15.1406 27.3021 14.7656 27.3248C13.4297 27.4154 12.4219 26.7131 12.0469 25.467C11.9766 25.2631 11.9531 25.0365 11.9531 24.81V24.6287C11.9531 23.6998 12.4453 22.9521 13.2656 22.4764C13.6641 22.2498 14.0859 22.1365 14.5312 22.1365H14.7188C15.1875 22.1365 15.6328 22.2725 16.0313 22.5217L16.0547 22.5443L16.0781 22.567C16.125 22.635 16.1484 22.7029 16.1484 22.7936V22.8842C16.1484 23.1107 15.9844 23.224 15.7734 23.2693H15.7031C15.5859 23.2693 15.2812 23.1334 15.1641 23.0881ZM18.0703 23.6771C18.4219 23.3373 18.7734 22.9975 19.125 22.6803C19.2188 22.5896 19.5938 22.2045 19.7344 22.2045H19.9219C20.1328 22.2498 20.2734 22.3631 20.2734 22.5896V22.6803C20.2734 22.8162 20.1094 22.9975 19.9922 23.0881L19.3594 23.6998L18.2812 24.7646C18.75 25.2178 19.2188 25.6709 19.6641 26.124L20.0391 26.5092C20.0859 26.5545 20.1562 26.5998 20.1797 26.6678C20.2266 26.7357 20.25 26.8037 20.25 26.8717V26.985C20.2031 27.1889 20.0625 27.3475 19.8516 27.3475H19.7812C19.6406 27.3475 19.4766 27.1889 19.3594 27.0982C19.1484 26.917 18.9375 26.7131 18.75 26.5092L18.0703 25.8521V26.8943C18.0703 27.1436 17.9063 27.3248 17.6484 27.3248H17.5781C17.3203 27.3248 17.1562 27.1209 17.1562 26.8943V20.9811C17.1562 20.7318 17.3203 20.5506 17.5781 20.5506H17.6484C17.9063 20.5506 18.0703 20.7318 18.0703 20.9811V23.6771ZM29.2266 22.1818H29.3203C29.5781 22.1818 29.7656 22.3631 29.7656 22.6123C29.7656 22.9748 29.4141 23.0654 29.1094 23.0654C28.7109 23.0654 28.3125 23.292 28.0547 23.5639C27.7031 23.9037 27.5625 24.3115 27.5625 24.7873V26.8717C27.5625 27.1209 27.3984 27.3021 27.1406 27.3021H27.0703C26.8125 27.3021 26.6484 27.0982 26.6484 26.8717V24.6514C26.6484 23.7904 27.0703 23.1107 27.7969 22.6123C28.2188 22.3404 28.7109 22.1818 29.2266 22.1818ZM22.875 26.3279C23.2031 26.4412 23.5781 26.4186 23.9062 26.3732C24.0703 26.3053 24.5156 26.124 24.6797 26.1467H24.7266C24.8203 26.192 24.9141 26.26 24.9609 26.3506C25.0781 26.5771 25.0313 26.8037 24.7969 26.9396L24.7266 26.985C23.8828 27.4607 22.9688 27.3928 22.125 26.9396C21.7266 26.7357 21.4219 26.4186 21.1875 26.0334L21.1406 25.9428C20.6016 25.0365 20.6719 24.0623 21.2813 23.2014C21.4922 22.9068 21.7734 22.6803 22.1016 22.499L22.2188 22.4311C23.0156 21.9779 23.8828 22.0232 24.7031 22.4084C25.1484 22.6123 25.5 22.9295 25.7578 23.3373L25.8047 23.4053C25.9922 23.6998 25.7578 23.9717 25.5234 24.1529C25.2422 24.3568 24.9609 24.6061 24.7031 24.8326C24.0703 25.3311 23.4609 25.8295 22.875 26.3279ZM22.1016 25.8068L24.0938 24.1529C24.3281 23.9717 24.5625 23.7678 24.7969 23.5639C24.6094 23.3373 24.3047 23.1787 24.0703 23.0881C23.5547 22.9068 23.0391 22.9522 22.5703 23.224C21.9609 23.5639 21.6797 24.1303 21.7031 24.81C21.7031 25.0818 21.7969 25.3311 21.9375 25.5803C21.9844 25.6709 22.0313 25.7389 22.1016 25.8068ZM17.2734 8.4748H19.9219V11.0803H21.2578C21.8672 11.0803 22.5 10.967 23.0859 10.7857C23.3672 10.6951 23.6953 10.5592 23.9766 10.4006C23.6016 9.9248 23.4141 9.33574 23.3672 8.74668C23.2969 7.95371 23.4609 6.91152 24.0234 6.2998L24.3047 5.98262L24.6328 6.23184C25.4766 6.88887 26.1562 7.77246 26.2969 8.81465C27.3047 8.52012 28.4766 8.58809 29.3672 9.08652L29.7188 9.29043L29.5312 9.65293C28.7812 11.0576 27.2109 11.5107 25.6875 11.4201C23.3906 16.9256 18.4219 19.5311 12.375 19.5311C9.25781 19.5311 6.39844 18.3982 4.75781 15.7248L4.73438 15.6795L4.5 15.2037C3.9375 14.0256 3.77344 12.7342 3.89062 11.4428L3.9375 11.0576H6.1875V8.4748H8.83594V5.91465H14.1094V3.35449H17.2734V8.4748Z" fill="#3A4D54"/>
<path d="M25.8281 9.42635C26.0156 8.08964 24.9844 7.04745 24.3281 6.54901C23.6016 7.36464 23.4844 9.53964 24.6328 10.4459C23.9766 10.9896 22.6406 11.5107 21.2344 11.5107H4.31252C4.1719 12.9154 4.42971 14.2068 5.01565 15.317L5.20315 15.6568C5.32034 15.8607 5.46096 16.042 5.60158 16.2459C6.30471 16.2912 6.93752 16.3139 7.52346 16.2912C8.6719 16.2685 9.6094 16.1326 10.336 15.906C10.4531 15.8607 10.5469 15.9287 10.5938 16.0193C10.6406 16.1326 10.5703 16.2232 10.4766 16.2685C10.3828 16.2912 10.2891 16.3365 10.1719 16.3592C9.6094 16.5178 9.00002 16.6084 8.22658 16.6537H8.08596C7.78127 16.6764 7.45315 16.6764 7.10158 16.6764C6.72658 16.6764 6.37502 16.6764 5.95315 16.6537C7.3594 18.1943 9.56252 19.1006 12.3281 19.1006C18.1875 19.1006 23.1563 16.5857 25.336 10.967C26.9063 11.1256 28.4063 10.7404 29.086 9.44901C28.0313 8.85995 26.625 9.0412 25.8281 9.42635Z" fill="#00AADA"/>
<path d="M25.8279 9.42636C26.0154 8.08964 24.9842 7.04745 24.3279 6.54901C23.6013 7.36464 23.4842 9.53964 24.6326 10.4459C23.9763 10.9896 22.6404 11.5107 21.2342 11.5107H5.29666C5.22635 13.6631 6.04666 15.2943 7.52322 16.2685C8.67166 16.2459 9.60916 16.1099 10.3357 15.8834C10.4529 15.8381 10.5467 15.906 10.5935 15.9967C10.6404 16.1099 10.5701 16.2006 10.4763 16.2459C10.3826 16.2685 10.2888 16.3139 10.1717 16.3365C9.60916 16.4951 8.95291 16.6084 8.17947 16.6537L8.15603 16.631C10.1482 17.6279 13.031 17.6053 16.3592 16.3818C20.0623 14.9998 23.531 12.3717 25.9451 9.38104C25.8982 9.4037 25.8748 9.42636 25.8279 9.42636Z" fill="#28B8EB"/>
<path d="M4.33594 13.21C4.42969 13.9576 4.66406 14.66 5.01562 15.317L5.20313 15.6568C5.32031 15.8607 5.46094 16.042 5.60156 16.2459C6.30469 16.2912 6.9375 16.3139 7.52344 16.2912C8.67187 16.2686 9.60937 16.1326 10.3359 15.9061C10.4531 15.8607 10.5469 15.9287 10.5938 16.0193C10.6406 16.1326 10.5703 16.2232 10.4766 16.2686C10.3828 16.2912 10.2891 16.3365 10.1719 16.3592C9.60938 16.5178 8.95313 16.6311 8.17969 16.6764H8.08594C7.78125 16.699 7.45312 16.699 7.125 16.699C6.75 16.699 6.375 16.699 5.97656 16.6764C7.38281 18.217 9.60938 19.1232 12.375 19.1232C17.3906 19.1232 21.75 17.2881 24.2812 13.2326H4.33594V13.21Z" fill="#028BB8"/>
<path d="M5.46094 13.21C5.76562 14.524 6.46875 15.5662 7.52344 16.2686C8.67187 16.2459 9.60938 16.11 10.3359 15.8834C10.4531 15.8381 10.5469 15.9061 10.5938 15.9967C10.6406 16.11 10.5703 16.2006 10.4766 16.2459C10.3828 16.2686 10.2891 16.3139 10.1719 16.3365C9.60938 16.4951 8.95312 16.6084 8.15625 16.6537C10.1484 17.6506 13.0312 17.6279 16.3359 16.4045C18.3281 15.6568 20.2734 14.5467 22.0078 13.21H5.46094Z" fill="#019BC6"/>
<path fill-rule="evenodd" clip-rule="evenodd" d="M6.60938 8.88265H8.90625V11.103H6.60938V8.88265ZM6.79687 9.08656H6.98437V10.9217H6.79687V9.08656ZM7.14844 9.08656H7.33594V10.9217H7.14844V9.08656ZM7.5 9.08656H7.6875V10.9217H7.5V9.08656ZM7.82813 9.08656H8.01562V10.9217H7.82813V9.08656ZM8.17969 9.08656H8.36719V10.9217H8.17969V9.08656ZM8.53125 9.08656H8.71875V10.9217H8.53125V9.08656ZM9.25781 6.34515H11.5547V8.54281H9.25781V6.34515ZM9.44531 6.5264H9.63281V8.36156H9.44531V6.5264ZM9.79687 6.5264H9.98437V8.36156H9.79687V6.5264ZM10.125 6.5264H10.3125V8.36156H10.125V6.5264ZM10.4766 6.5264H10.6641V8.36156H10.4766V6.5264ZM10.8281 6.5264H11.0156V8.36156H10.8281V6.5264ZM11.1797 6.5264H11.3672V8.36156H11.1797V6.5264Z" fill="#00ACD3"/>
<path fill-rule="evenodd" clip-rule="evenodd" d="M9.25781 8.88263H11.5547V11.1029H9.25781V8.88263ZM9.44531 9.08654H9.63281V10.9217H9.44531V9.08654ZM9.79687 9.08654H9.98437V10.9217H9.79687V9.08654ZM10.125 9.08654H10.3125V10.9217H10.125V9.08654ZM10.4766 9.08654H10.6641V10.9217H10.4766V9.08654ZM10.8281 9.08654H11.0156V10.9217H10.8281V9.08654ZM11.1797 9.08654H11.3672V10.9217H11.1797V9.08654Z" fill="#23C2EE"/>
<path fill-rule="evenodd" clip-rule="evenodd" d="M11.9062 8.88263H14.2031V11.1029H11.9062V8.88263ZM12.0937 9.08654H12.2813V10.9217H12.0937V9.08654ZM12.4219 9.08654H12.6094V10.9217H12.4219V9.08654ZM12.7734 9.08654H12.9609V10.9217H12.7734V9.08654ZM13.125 9.08654H13.3125V10.9217H13.125V9.08654ZM13.4766 9.08654H13.6641V10.9217H13.4766V9.08654ZM13.8047 9.08654H13.9922V10.9217H13.8047V9.08654Z" fill="#00ACD3"/>
<path fill-rule="evenodd" clip-rule="evenodd" d="M11.9062 6.34515H14.2031V8.54281H11.9062V6.34515ZM12.0937 6.5264H12.2813V8.36156H12.0937V6.5264ZM12.4219 6.5264H12.6094V8.36156H12.4219V6.5264ZM12.7734 6.5264H12.9609V8.36156H12.7734V6.5264ZM13.125 6.5264H13.3125V8.36156H13.125V6.5264ZM13.4766 6.5264H13.6641V8.36156H13.4766V6.5264ZM13.8047 6.5264H13.9922V8.36156H13.8047V6.5264ZM14.5313 8.88265H16.8281V11.103H14.5313V8.88265ZM14.7422 9.08656H14.9297V10.9217H14.7422V9.08656ZM15.0703 9.08656H15.2578V10.9217H15.0703V9.08656ZM15.4219 9.08656H15.6094V10.9217H15.4219V9.08656ZM15.7734 9.08656H15.9609V10.9217H15.7734V9.08656ZM16.1016 9.08656H16.2891V10.9217H16.1016V9.08656ZM16.4531 9.08656H16.6406V10.9217H16.4531V9.08656Z" fill="#23C2EE"/>
<path fill-rule="evenodd" clip-rule="evenodd" d="M14.5312 6.34515H16.8281V8.54281H14.5312V6.34515ZM14.7422 6.5264H14.9297V8.36156H14.7422V6.5264ZM15.0703 6.5264H15.2578V8.36156H15.0703V6.5264ZM15.4219 6.5264H15.6094V8.36156H15.4219V6.5264ZM15.7734 6.5264H15.9609V8.36156H15.7734V6.5264ZM16.1016 6.5264H16.2891V8.36156H16.1016V6.5264ZM16.4531 6.5264H16.6406V8.36156H16.4531V6.5264Z" fill="#00ACD3"/>
<path fill-rule="evenodd" clip-rule="evenodd" d="M14.5312 3.78497H16.8281V6.00529H14.5312V3.78497ZM14.7422 3.96622H14.9297V5.82404H14.7422V3.96622ZM15.0703 3.96622H15.2578V5.82404H15.0703V3.96622ZM15.4219 3.96622H15.6094V5.82404H15.4219V3.96622ZM15.7734 3.96622H15.9609V5.82404H15.7734V3.96622ZM16.1016 3.96622H16.2891V5.82404H16.1016V3.96622ZM16.4531 3.96622H16.6406V5.82404H16.4531V3.96622Z" fill="#23C2EE"/>
<path fill-rule="evenodd" clip-rule="evenodd" d="M17.1797 8.88263H19.4766V11.1029H17.1797V8.88263ZM17.3672 9.08654H17.5547V10.9217H17.3672V9.08654ZM17.7187 9.08654H17.9062V10.9217H17.7187V9.08654ZM18.0703 9.08654H18.2578V10.9217H18.0703V9.08654ZM18.3984 9.08654H18.5859V10.9217H18.3984V9.08654ZM18.75 9.08654H18.9375V10.9217H18.75V9.08654ZM19.1016 9.08654H19.2891V10.9217H19.1016V9.08654Z" fill="#00ACD3"/>
<path fill-rule="evenodd" clip-rule="evenodd" d="M11.3906 14.7053C11.7422 14.7053 12.0234 14.9771 12.0234 15.317C12.0234 15.6568 11.7422 15.9287 11.3906 15.9287C11.0391 15.9287 10.7578 15.6568 10.7578 15.317C10.7813 14.9771 11.0625 14.7053 11.3906 14.7053Z" fill="#D4EEF1"/>
<path fill-rule="evenodd" clip-rule="evenodd" d="M11.3906 14.8639C11.4375 14.8639 11.5078 14.8639 11.5547 14.8865C11.5078 14.9092 11.4609 14.9772 11.4609 15.0451C11.4609 15.1358 11.5547 15.2264 11.6484 15.2264C11.7188 15.2264 11.7891 15.1811 11.8125 15.1358C11.8359 15.1811 11.8359 15.249 11.8359 15.2944C11.8359 15.5436 11.625 15.7248 11.3906 15.7248C11.1328 15.7248 10.9453 15.5209 10.9453 15.2944C10.9453 15.0678 11.1562 14.8639 11.3906 14.8639ZM0.234375 13.4365H29.6016C28.9688 13.278 27.5859 13.074 27.7969 12.2584C26.625 13.5498 23.8359 13.1647 23.1094 12.5303C22.3125 13.6405 17.7188 13.21 17.4141 12.349C16.4297 13.4819 13.3594 13.4819 12.375 12.349C12.0469 13.21 7.45312 13.6405 6.67969 12.5303C5.97656 13.1647 3.16406 13.5498 1.99219 12.2584C2.25 13.0514 0.867188 13.278 0.234375 13.4365Z" fill="#3A4D54"/>
<path d="M13.0781 19.1006C11.5078 18.3756 10.6641 17.4014 10.1719 16.3365C9.58594 16.4951 8.88281 16.6084 8.08594 16.6537C7.78125 16.6764 7.45312 16.6764 7.125 16.6764C6.72656 16.6764 6.32813 16.6764 5.90625 16.6537C7.33594 18.0358 9.11719 19.1006 12.375 19.1233C12.6094 19.1006 12.8438 19.1006 13.0781 19.1006Z" fill="#BFDBE0"/>
<path d="M10.7578 17.3108C10.5469 17.0162 10.3359 16.6764 10.1719 16.3365C9.58594 16.4951 8.88281 16.6084 8.08594 16.6537C8.64844 16.9483 9.44531 17.2201 10.7578 17.3108Z" fill="#D4EEF1"/>
</svg>
