<svg width="26" height="27" viewBox="0 0 26 27" fill="none" xmlns="http://www.w3.org/2000/svg">
<path d="M6.24836 16.554H5.89492V14.5302C5.89492 14.3704 5.90528 14.1758 5.92417 13.9462H5.91625C5.88294 14.0805 5.85267 14.1778 5.82606 14.2379L4.79805 16.554H4.6258L3.59575 14.2548C3.56691 14.1906 3.53644 14.0872 3.50577 13.9462H3.49805C3.50902 14.0669 3.51511 14.2627 3.51511 14.5343V16.554H3.17406V13.5402H3.64044L4.56506 15.6419C4.63473 15.8002 4.67983 15.9206 4.70177 16.0027H4.71619C4.77672 15.8379 4.82466 15.7142 4.86061 15.633L5.80534 13.5402H6.24795V16.554H6.24836ZM7.3363 16.554H6.99261V14.4018H7.3363V16.554ZM7.39561 13.6302C7.39561 13.6938 7.37327 13.7466 7.32898 13.79C7.30817 13.8113 7.28323 13.828 7.25571 13.8393C7.22818 13.8505 7.19865 13.856 7.16892 13.8554C7.10737 13.8554 7.05395 13.8343 7.01008 13.7923C6.9662 13.75 6.94467 13.6962 6.94467 13.63C6.94467 13.5678 6.9662 13.5148 7.01008 13.4717C7.05395 13.4287 7.10737 13.408 7.16892 13.408C7.23189 13.408 7.28572 13.4289 7.32898 13.4717C7.37327 13.515 7.39561 13.568 7.39561 13.6302ZM9.48394 16.4544C9.319 16.5558 9.12217 16.606 8.89447 16.606C8.58572 16.606 8.3375 16.5036 8.14778 16.299C7.96334 16.1004 7.87072 15.844 7.87072 15.53C7.87072 15.1774 7.97147 14.892 8.1748 14.675C8.37711 14.4579 8.64889 14.3494 8.99095 14.3494C9.17783 14.3494 9.34378 14.386 9.48901 14.4587V14.8124C9.32834 14.6996 9.15853 14.6436 8.97612 14.6436C8.75695 14.6436 8.57861 14.7201 8.44048 14.8727C8.29647 15.0291 8.22355 15.2379 8.22355 15.4987C8.22355 15.749 8.29017 15.9474 8.42241 16.0937C8.55505 16.2393 8.73176 16.3122 8.9548 16.3122C9.14289 16.3122 9.3192 16.2503 9.48414 16.1272L9.48394 16.4544ZM11.1282 14.751C11.0675 14.7043 10.9802 14.6818 10.865 14.6818C10.725 14.6818 10.6072 14.7443 10.5122 14.8707C10.4041 15.0116 10.3505 15.207 10.3505 15.4569V16.554H10.0058V14.4016H10.3505V14.8455H10.3588C10.4094 14.6885 10.4876 14.5676 10.592 14.4819C10.6847 14.4053 10.8014 14.3636 10.9217 14.3641C11.0135 14.3641 11.0815 14.374 11.128 14.3935V14.7508L11.1282 14.751ZM13.048 15.4817C13.048 15.2062 12.9858 14.9956 12.8615 14.8514C12.7408 14.7126 12.572 14.6434 12.3547 14.6434C12.1406 14.6434 11.9688 14.7134 11.8402 14.8538C11.7045 15.0039 11.6367 15.2156 11.6367 15.4904C11.6367 15.748 11.701 15.9501 11.8317 16.0943C11.9612 16.2393 12.1357 16.312 12.3547 16.312C12.5812 16.312 12.7547 16.2381 12.8735 16.0916C12.9899 15.9478 13.048 15.7449 13.048 15.4817ZM13.4012 15.4697C13.4012 15.8125 13.3043 16.0882 13.1113 16.2946C12.9176 16.502 12.657 16.6055 12.3289 16.6055C12.0059 16.6055 11.7488 16.502 11.5603 16.2946C11.3754 16.0949 11.2828 15.8308 11.2828 15.5028C11.2828 15.1282 11.3876 14.8398 11.5981 14.6348C11.7927 14.4447 12.0531 14.349 12.3793 14.349C12.7002 14.349 12.9509 14.4492 13.1317 14.6474C13.3108 14.8465 13.4012 15.1207 13.4012 15.4697ZM15.1097 15.9783C15.1097 16.1546 15.0441 16.3003 14.912 16.4168C14.768 16.5428 14.5702 16.6058 14.3214 16.6058C14.1178 16.6058 13.9393 16.5631 13.7875 16.4762V16.1057C13.9561 16.2428 14.1426 16.3118 14.347 16.3118C14.6198 16.3118 14.7565 16.2113 14.7565 16.0112C14.7576 15.972 14.7501 15.9331 14.7345 15.8972C14.7189 15.8613 14.6955 15.8293 14.6661 15.8034C14.6055 15.7484 14.4877 15.6828 14.3128 15.6056C14.1327 15.5268 14.0041 15.4457 13.9283 15.3618C13.8373 15.2621 13.7916 15.1325 13.7916 14.9728C13.7916 14.7943 13.8631 14.6456 14.0041 14.5272C14.1457 14.4083 14.3275 14.349 14.5507 14.349C14.7217 14.349 14.8749 14.3823 15.011 14.45V14.7967C14.869 14.6943 14.7067 14.6434 14.5225 14.6434C14.4083 14.6434 14.3167 14.6718 14.2484 14.727C14.2155 14.7527 14.1889 14.7856 14.171 14.8233C14.153 14.8609 14.144 14.9023 14.1448 14.944C14.1448 15.0393 14.1737 15.1134 14.2312 15.1666C14.2824 15.2156 14.3908 15.2755 14.5543 15.3452C14.738 15.4221 14.8708 15.502 14.9517 15.5836C15.0567 15.6868 15.1097 15.8184 15.1097 15.9783ZM17.2153 15.4817C17.2153 15.2062 17.1529 14.9956 17.0284 14.8514C16.9077 14.7126 16.7387 14.6434 16.5218 14.6434C16.3075 14.6434 16.1359 14.7134 16.0067 14.8538C15.8712 15.0039 15.8036 15.2156 15.8036 15.4904C15.8036 15.748 15.8684 15.9501 15.9973 16.0943C16.1286 16.2393 16.3032 16.312 16.5218 16.312C16.7487 16.312 16.9216 16.2381 17.0406 16.0916C17.1568 15.9478 17.2153 15.7449 17.2153 15.4817ZM17.5691 15.4697C17.5691 15.8125 17.4714 16.0882 17.278 16.2946C17.0851 16.502 16.8245 16.6055 16.4964 16.6055C16.173 16.6055 15.9161 16.502 15.7274 16.2946C15.5428 16.0949 15.4499 15.8308 15.4499 15.5028C15.4499 15.1282 15.5557 14.8398 15.765 14.6348C15.9596 14.4447 16.2202 14.349 16.5468 14.349C16.8679 14.349 17.1182 14.4492 17.2984 14.6474C17.4777 14.8465 17.5691 15.1207 17.5691 15.4697ZM19.0871 13.6704C19.017 13.6321 18.9382 13.6127 18.8584 13.6139C18.617 13.6139 18.4974 13.7657 18.4974 14.0699V14.4016H19.0018V14.6937H18.4974V16.554H18.1525V14.6937H17.7865V14.4016H18.1525V14.0529C18.1525 13.816 18.225 13.6302 18.3727 13.4963C18.499 13.3799 18.6536 13.3222 18.8376 13.3222C18.9441 13.3222 19.027 13.335 19.0871 13.3596V13.6704ZM20.4468 16.5324C20.3655 16.5789 20.2571 16.6021 20.1232 16.6021C19.7474 16.6021 19.5597 16.3904 19.5597 15.9667V14.6939H19.1905V14.4016H19.5597V13.8766C19.6698 13.8418 19.7842 13.804 19.9051 13.7648V14.4016H20.4468V14.6939H19.9051V15.9084C19.9051 16.0526 19.9286 16.1558 19.978 16.2157C20.0277 16.2777 20.1092 16.308 20.224 16.308C20.3099 16.308 20.384 16.285 20.4468 16.2385V16.5324ZM1.82348 24.9542C1.82348 25.123 1.76356 25.2686 1.64169 25.3919C1.5849 25.4514 1.51643 25.4985 1.44058 25.5303C1.36473 25.562 1.28313 25.5778 1.20091 25.5766C1.12031 25.5777 1.04038 25.5619 0.966316 25.5301C0.892256 25.4983 0.825736 25.4512 0.771094 25.3919C0.714162 25.3343 0.669256 25.2659 0.638988 25.1908C0.60872 25.1156 0.593693 25.0352 0.594782 24.9542C0.594782 24.7807 0.653485 24.6343 0.771094 24.5132C0.826042 24.4545 0.89268 24.408 0.966712 24.3767C1.04074 24.3453 1.12052 24.3298 1.20091 24.3312C1.37356 24.3312 1.52063 24.3923 1.64169 24.5154C1.76356 24.6387 1.82348 24.785 1.82348 24.9542ZM9.53716 25.4498H8.41347L4.33492 19.1513C4.23682 18.9943 4.15404 18.8282 4.08772 18.6553H4.0542C4.08345 18.8241 4.09808 19.186 4.09808 19.7406V25.4498H3.17203V17.5476H4.37413L8.33059 23.747C8.48802 23.993 8.59587 24.1693 8.65052 24.2753H8.67245C8.63589 24.048 8.6168 23.6605 8.6168 23.1135V17.5478H9.53736L9.53716 25.4498ZM15.4751 25.4498H11.2869V17.5476H15.2933V18.3851H12.2123V21.0138H15.067V21.8515H12.2123V24.6121H15.4751V25.4498ZM21.8276 18.3851H19.5514V25.45H18.6256V18.3851H16.3449V17.5472H21.8276V18.3851Z" fill="black"/>
<path d="M9.22314 3.89865C10.1167 6.63109 10.4549 11.5055 13.0679 11.5055C13.2668 11.5055 13.4678 11.4862 13.6695 11.4476C11.2944 10.8937 11.0129 6.0725 9.56358 3.57568C9.44803 3.68114 9.33453 3.78881 9.22314 3.89865Z" fill="url(#paint0_linear_531_24020)"/>
<path d="M9.56396 3.57569C11.0133 6.07251 11.2948 10.8937 13.6699 11.4476C13.8606 11.4116 14.0481 11.361 14.231 11.2961C12.099 10.2514 11.5097 5.56957 9.86378 3.31549C9.76404 3.39877 9.6639 3.48551 9.56396 3.57569Z" fill="url(#paint1_linear_531_24020)"/>
<path d="M11.6523 2.09083C11.4538 2.09083 11.2523 2.11033 11.0502 2.14872C10.5215 2.24846 9.9844 2.47596 9.44287 2.82066C9.59646 2.97401 9.73729 3.13963 9.86395 3.31588C10.4146 2.85905 10.9616 2.52146 11.5066 2.31833C11.7056 2.244 11.9106 2.18705 12.1194 2.14812C11.9667 2.10947 11.8098 2.09023 11.6523 2.09083Z" fill="#14559A"/>
<path d="M15.8946 10.3333C16.1218 10.1518 16.3406 9.96003 16.5503 9.75861C15.6423 7.03897 15.3173 2.09491 12.6863 2.09491C12.4982 2.09491 12.3082 2.11238 12.1191 2.14752C14.5156 2.74349 14.8225 7.95791 15.8946 10.3333Z" fill="url(#paint2_linear_531_24020)"/>
<path d="M12.1192 2.14773C11.9664 2.10924 11.8094 2.09007 11.6519 2.09065L12.6866 2.09451C12.4983 2.09451 12.3086 2.11198 12.1192 2.14773Z" fill="#3092C4"/>
<path d="M15.8493 10.9109C15.7445 10.8097 15.6455 10.7026 15.5527 10.5902C15.1101 10.9036 14.6689 11.1413 14.231 11.2961C14.3868 11.3722 14.5503 11.4287 14.7237 11.4639C14.8619 11.492 15.0026 11.5059 15.1436 11.5055C15.6354 11.5055 16.0239 11.4474 16.3548 11.2886C16.1726 11.19 16.0055 11.0627 15.8493 10.9109Z" fill="#1969BC"/>
<path d="M11.5063 2.31855C13.6532 3.44143 13.8396 8.52605 15.5526 10.5904C15.6674 10.5096 15.7811 10.4239 15.8947 10.3335C14.8224 7.95791 14.5158 2.74308 12.1196 2.14752C11.9106 2.1868 11.7055 2.24402 11.5063 2.31855Z" fill="url(#paint3_linear_531_24020)"/>
<path d="M9.86377 3.31568C11.5097 5.56976 12.099 10.2516 14.231 11.2963C14.6693 11.1415 15.1101 10.9038 15.5527 10.5904C13.8397 8.52604 13.6531 3.44142 11.5064 2.31854C10.9615 2.52126 10.4144 2.85886 9.86377 3.31568Z" fill="url(#paint4_linear_531_24020)"/>
<path d="M8.1702 3.83285C7.91203 4.41622 7.64858 5.18282 7.33008 6.18382C7.96342 5.29108 8.59514 4.52205 9.2232 3.89866C9.14392 3.65036 9.0506 3.40676 8.9437 3.16904C8.67411 3.37623 8.4159 3.59782 8.1702 3.83285Z" fill="url(#paint5_linear_531_24020)"/>
<path d="M9.17236 3.00085C9.0966 3.05509 9.02022 3.11054 8.94385 3.16904C9.05073 3.40675 9.14398 3.65035 9.22314 3.89867C9.3348 3.78903 9.44836 3.68136 9.56378 3.5757C9.448 3.37449 9.31715 3.18232 9.17236 3.00085Z" fill="#2B74B1"/>
<path d="M9.44223 2.82047C9.35225 2.87754 9.26267 2.93767 9.17188 3.00064C9.31693 3.18216 9.44786 3.37454 9.5635 3.57609C9.66364 3.4855 9.76358 3.39836 9.86331 3.31568C9.73671 3.13939 9.59588 2.97376 9.44223 2.82047Z" fill="#125A9E"/>
<path d="M24.0848 1.88284C22.8707 6.56487 20.3349 10.3257 18.209 11.2737H18.2047L18.0899 11.3227L18.0761 11.3282L18.0434 11.3407L18.0288 11.3468L17.9758 11.3655L17.9538 11.3732L17.9274 11.382L17.9018 11.3909L17.8791 11.3984L17.8338 11.4122L17.8145 11.4173L17.7838 11.4257L17.7631 11.4313L17.7298 11.4399L17.689 11.4488C17.785 11.4844 17.8852 11.5022 17.993 11.5022C20.0089 11.5022 22.0417 7.88945 25.4049 1.88162H24.0844L24.0848 1.88284Z" fill="url(#paint6_linear_531_24020)"/>
<path d="M6.89244 2.28098L6.8961 2.27753L6.90077 2.27448H6.90341L6.93611 2.26189L6.94261 2.25864L6.95094 2.25498L6.98608 2.24239H6.98791L7.0653 2.21537L7.07668 2.21233L7.10999 2.20237L7.12522 2.1975L7.15854 2.18754L7.17133 2.18429L7.28204 2.15545L7.29727 2.152L7.32957 2.1457L7.34561 2.14083L7.37811 2.13473H7.38563L7.45307 2.12214H7.46647L7.49755 2.11686L7.51502 2.11361L7.54468 2.10914L7.56133 2.10609L7.63385 2.09959C7.56249 2.09261 7.49084 2.08895 7.41914 2.08862C5.14882 2.08862 2.02089 6.30103 0.611816 11.7562H0.883395C1.30459 11.0032 1.7134 10.2434 2.10966 9.47709C3.09664 5.61325 5.10657 2.9779 6.89204 2.27976" fill="url(#paint7_linear_531_24020)"/>
<path d="M8.16992 3.83285C8.41567 3.59787 8.67387 3.37628 8.94342 3.16903C8.8886 3.04704 8.8271 2.92817 8.75919 2.81296C8.55159 3.06503 8.36187 3.39735 8.16992 3.83285ZM8.35659 2.31286C8.50487 2.43697 8.63752 2.60821 8.75919 2.81296C8.79622 2.76738 8.8354 2.72359 8.87659 2.68174C8.71346 2.5277 8.52861 2.39842 8.32795 2.29803L8.35212 2.30961L8.35659 2.31286Z" fill="#0D82CA"/>
<path d="M2.10986 9.47809C4.17991 5.48871 5.1608 2.96407 6.89224 2.28076C5.10697 2.97931 3.09664 5.61445 2.10986 9.47809Z" fill="url(#paint8_linear_531_24020)"/>
<path d="M8.87668 2.68195C8.83626 2.72318 8.79807 2.76624 8.75928 2.81316C8.82428 2.92204 8.88481 3.04046 8.94392 3.16924C9.02029 3.11054 9.09667 3.05529 9.17243 3.00085C9.0814 2.88779 8.98257 2.78123 8.87668 2.68195Z" fill="#127BCA"/>
<path d="M3.05003 11.7391L3.01245 11.7435H3.00534L2.97345 11.7468H2.96817L2.8922 11.7519H2.88428C4.97931 11.6932 5.93725 10.6442 6.41256 9.12263C6.77351 7.96928 7.07028 6.99753 7.33028 6.18219C6.45278 7.41739 5.57101 8.88985 4.68478 10.5394C4.2574 11.3345 3.6074 11.6666 3.05003 11.7375" fill="url(#paint9_linear_531_24020)"/>
<path d="M3.0498 11.7383C3.60718 11.6672 4.25718 11.3355 4.68455 10.54C5.57079 8.89106 6.45296 7.4182 7.32965 6.1828C7.64876 5.18159 7.9118 4.41541 8.17018 3.83203C6.42249 5.49542 4.6683 8.26137 3.0498 11.7375" fill="url(#paint10_linear_531_24020)"/>
<path d="M2.10997 9.47809C1.71353 10.2444 1.30458 11.0042 0.883301 11.7572H1.67325C1.77289 10.9895 1.91866 10.2286 2.10977 9.4785" fill="#05A1E6"/>
<path d="M7.56124 2.10853L7.54439 2.11178L7.51473 2.11604L7.49746 2.11909L7.46639 2.12457L7.45298 2.12782L7.38554 2.1396H7.37803L7.34512 2.1461L7.32867 2.15037L7.29678 2.15667L7.28175 2.16032L7.17084 2.18917L7.15804 2.19303L7.12453 2.20298L7.10929 2.20684L7.07618 2.21659L7.064 2.21984L6.98701 2.24685L6.95207 2.25904L6.93745 2.26514L6.90495 2.27732L6.89418 2.2826C5.16295 2.96592 4.18206 5.49056 2.11201 9.47973C1.92067 10.2298 1.77484 10.9907 1.67529 11.7584H1.7862L2.54568 11.7551H2.89384L2.96981 11.7501H2.97468L3.00657 11.7468H3.01429L3.05187 11.7423C4.67017 8.26646 6.42456 5.50051 8.17225 3.83712C8.3642 3.40162 8.55371 3.0691 8.7609 2.81743C8.63964 2.61268 8.507 2.44104 8.35871 2.31673L8.35445 2.31348L8.32967 2.30149L8.30529 2.2891L8.28153 2.27753L8.2535 2.26574L8.23156 2.2562L8.18565 2.2371L8.16615 2.22959L8.13203 2.21598L8.11354 2.20989L8.06601 2.19364H8.06215L8.0071 2.17799L7.99471 2.17414L7.9484 2.16114L7.93764 2.15809C7.89961 2.14809 7.86119 2.13969 7.82246 2.1329L7.81048 2.12965L7.76051 2.12153L7.75076 2.11848L7.69165 2.11076H7.68129L7.63579 2.10568L7.56328 2.11239" fill="url(#paint11_linear_531_24020)"/>
<path d="M19.3429 4.47493C18.9446 5.75076 18.622 6.80335 18.3413 7.66947C19.4343 6.16554 20.5107 4.27363 21.5361 2.09024C20.3399 2.46582 19.702 3.32544 19.3429 4.47493Z" fill="url(#paint12_linear_531_24020)"/>
<path d="M18.3755 11.1941C18.3199 11.2225 18.2638 11.2493 18.209 11.2739C20.3349 10.3257 22.8709 6.56487 24.0848 1.88284H23.8388C21.0493 6.8655 20.1523 10.2012 18.3755 11.1941Z" fill="url(#paint13_linear_531_24020)"/>
<path d="M16.9873 10.7755C17.4499 10.211 17.8266 9.25122 18.3412 7.66928C17.7478 8.48422 17.1506 9.185 16.5529 9.75619L16.5498 9.76127C16.6802 10.1519 16.8232 10.497 16.9863 10.7753" fill="#079AE1"/>
<path d="M16.9876 10.7755C16.8302 10.9676 16.6634 11.1139 16.478 11.2223C16.4374 11.2461 16.3963 11.2684 16.3545 11.2885C16.5503 11.3942 16.764 11.4649 17.0031 11.4931L17.1091 11.5024H17.1154L17.1664 11.5057H17.3394L17.3589 11.5024L17.3971 11.4992H17.4156L17.4573 11.4947H17.4603L17.4731 11.4917L17.5174 11.4848H17.5304L17.5801 11.4764H17.5881L17.6874 11.4553C17.413 11.3552 17.1834 11.1181 16.9856 10.7809" fill="#1969BC"/>
<path d="M13.0679 11.5055C13.2667 11.5055 13.4676 11.486 13.6693 11.4472C13.856 11.4133 14.0431 11.3615 14.2304 11.2961C14.5144 11.4354 14.8268 11.507 15.1432 11.5055H13.0679ZM15.1432 11.5055C15.6346 11.5055 16.0235 11.4472 16.3542 11.2885C16.5553 11.3976 16.7755 11.467 17.0028 11.4931L17.1088 11.5022H17.1151L17.1661 11.5055H17.2273H15.1432Z" fill="#1E5CB3"/>
<path d="M17.2275 11.5055H17.3411L17.3606 11.5022L17.3992 11.499H17.4181L17.4593 11.4945H17.4628L17.4754 11.4915L17.5196 11.4848L17.533 11.4817L17.583 11.4736H17.5909L17.6903 11.4525C17.7877 11.4883 17.8907 11.5064 17.9945 11.5059L17.2281 11.5092L17.2275 11.5055Z" fill="#1D60B5"/>
<path d="M16.5509 9.76146V9.75821C16.3412 9.95974 16.1224 10.1516 15.8952 10.3331C15.7812 10.4234 15.6677 10.5092 15.5527 10.59C15.6456 10.7024 15.7446 10.8095 15.8495 10.9107C16.0059 11.0623 16.1727 11.1898 16.3549 11.2883C16.3965 11.268 16.4377 11.2457 16.4782 11.2221C16.664 11.1137 16.8304 10.9674 16.988 10.7753C16.8249 10.497 16.6819 10.1519 16.5517 9.76126" fill="#175FAB"/>
<path d="M23.0599 1.88284H21.8216L21.6254 1.89239L21.534 2.0878C20.509 4.27119 19.4325 6.16309 18.3395 7.66723C17.8256 9.24876 17.4484 10.2085 16.9858 10.7732C17.1835 11.1106 17.4136 11.3479 17.687 11.4484L17.7086 11.4437H17.713L17.7281 11.4403L17.7624 11.4317L17.7827 11.4259L17.8134 11.4177L17.8325 11.4125L17.878 11.3986L17.9007 11.3911L17.9263 11.3818L17.9525 11.3735L17.9738 11.3653L18.0273 11.3466L18.0421 11.3412L18.0748 11.3284L18.0888 11.3233L18.2036 11.2743H18.2074C18.2625 11.25 18.3183 11.2229 18.3738 11.1945C20.1511 10.2016 21.0481 6.86591 23.8374 1.88325H23.0585L23.0599 1.88284Z" fill="url(#paint14_linear_531_24020)"/>
<path d="M7.63428 2.1018L7.64707 2.10505L7.67937 2.10851H7.69034L7.74925 2.11602L7.7594 2.11927L7.80917 2.1276L7.82156 2.13065L7.93653 2.15604L7.94689 2.15929L7.993 2.17229L8.00579 2.17615L8.06043 2.19179L8.0645 2.19504L8.11243 2.21149L8.13071 2.21738L8.16504 2.2314L8.18454 2.2383L8.23004 2.2574L8.25239 2.26694L8.27981 2.27893L8.30418 2.2903L8.32836 2.3029C8.52911 2.4033 8.71404 2.53265 8.8772 2.6868C8.93915 2.6214 9.00415 2.5629 9.07179 2.51008C8.70312 2.24846 8.28489 2.09937 7.80307 2.09937C7.74722 2.09937 7.69156 2.10262 7.63468 2.10688" fill="#7DCBEC"/>
<path d="M8.87646 2.68194C8.97965 2.77802 9.07857 2.88527 9.17221 3.00084C9.2626 2.93787 9.35239 2.87734 9.44257 2.82067C9.32792 2.705 9.20348 2.59946 9.07065 2.50522C9.00149 2.55906 8.93657 2.61814 8.87646 2.68194Z" fill="#5EC5ED"/>
<path d="M7.5805 2.11527L7.74872 2.10807C8.23065 2.10807 8.64894 2.25678 9.01705 2.51825C9.40669 2.21166 9.87639 2.10398 10.5306 2.10398H7.36621L7.5805 2.11527Z" fill="url(#paint15_linear_531_24020)"/>
<path d="M10.5306 2.104C9.87746 2.104 9.40673 2.21169 9.01709 2.51827C9.14629 2.60953 9.27042 2.71512 9.38834 2.83304C9.92974 2.48851 10.467 2.2609 10.9961 2.16042C11.1981 2.12248 11.3991 2.103 11.5981 2.103L10.5306 2.104Z" fill="url(#paint16_linear_531_24020)"/>
<path d="M18.3414 7.67029C18.6225 6.80356 18.9443 5.75137 19.3434 4.47513C19.7032 3.32524 20.3398 2.46541 21.5356 2.09024L21.6278 1.89484C19.6784 2.01163 18.7674 3.00329 18.3089 4.47188C17.5072 7.03573 17.0213 8.69749 16.5537 9.75659C17.1509 9.1854 17.7481 8.48441 18.3414 7.67029Z" fill="url(#paint17_linear_531_24020)"/>
<defs>
<linearGradient id="paint0_linear_531_24020" x1="11.4946" y1="2.05988" x2="11.4946" y2="13.8609" gradientUnits="userSpaceOnUse">
<stop stop-color="#0994DC"/>
<stop offset="0.35" stop-color="#66CEF5"/>
<stop offset="0.846" stop-color="#127BCA"/>
<stop offset="1" stop-color="#127BCA"/>
</linearGradient>
<linearGradient id="paint1_linear_531_24020" x1="11.9111" y1="1.71025" x2="11.9111" y2="13.8432" gradientUnits="userSpaceOnUse">
<stop stop-color="#0E76BC"/>
<stop offset="0.36" stop-color="#36AEE8"/>
<stop offset="0.846" stop-color="#00ADEF"/>
<stop offset="1" stop-color="#00ADEF"/>
</linearGradient>
<linearGradient id="paint2_linear_531_24020" x1="14.3307" y1="11.2121" x2="14.3307" y2="1.5829" gradientUnits="userSpaceOnUse">
<stop stop-color="#1C63B7"/>
<stop offset="0.5" stop-color="#33BDF2"/>
<stop offset="1" stop-color="#33BDF2" stop-opacity="0.42"/>
</linearGradient>
<linearGradient id="paint3_linear_531_24020" x1="13.6827" y1="0.482791" x2="13.6827" y2="13.0799" gradientUnits="userSpaceOnUse">
<stop stop-color="#166AB8"/>
<stop offset="0.4" stop-color="#36AEE8"/>
<stop offset="0.846" stop-color="#0798DD"/>
<stop offset="1" stop-color="#0798DD"/>
</linearGradient>
<linearGradient id="paint4_linear_531_24020" x1="12.7667" y1="0.570275" x2="12.7667" y2="13.9656" gradientUnits="userSpaceOnUse">
<stop stop-color="#124379"/>
<stop offset="0.39" stop-color="#1487CB"/>
<stop offset="0.78" stop-color="#165197"/>
<stop offset="1" stop-color="#165197"/>
</linearGradient>
<linearGradient id="paint5_linear_531_24020" x1="7.22846" y1="4.51453" x2="9.12153" y2="4.51453" gradientUnits="userSpaceOnUse">
<stop stop-color="#33BDF2" stop-opacity="0.698"/>
<stop offset="1" stop-color="#1DACD8"/>
</linearGradient>
<linearGradient id="paint6_linear_531_24020" x1="21.5557" y1="10.9666" x2="21.5557" y2="1.56232" gradientUnits="userSpaceOnUse">
<stop stop-color="#136AB4"/>
<stop offset="0.6" stop-color="#59CAF5" stop-opacity="0.549"/>
<stop offset="1" stop-color="#59CAF5" stop-opacity="0.235"/>
</linearGradient>
<linearGradient id="paint7_linear_531_24020" x1="0.511788" y1="6.76112" x2="7.53204" y2="6.76112" gradientUnits="userSpaceOnUse">
<stop stop-color="#05A1E6" stop-opacity="0.247"/>
<stop offset="1" stop-color="#05A1E6"/>
</linearGradient>
<linearGradient id="paint8_linear_531_24020" x1="4.53867" y1="11.2187" x2="4.53867" y2="1.61419" gradientUnits="userSpaceOnUse">
<stop stop-color="#318ED5"/>
<stop offset="1" stop-color="#38A7E4"/>
</linearGradient>
<linearGradient id="paint9_linear_531_24020" x1="5.07667" y1="11.249" x2="5.07667" y2="1.88881" gradientUnits="userSpaceOnUse">
<stop stop-color="#05A1E6"/>
<stop offset="1" stop-color="#05A1E6" stop-opacity="0.549"/>
</linearGradient>
<linearGradient id="paint10_linear_531_24020" x1="5.63999" y1="11.7559" x2="5.63999" y2="3.84641" gradientUnits="userSpaceOnUse">
<stop stop-color="#1959A6"/>
<stop offset="0.5" stop-color="#05A1E6"/>
<stop offset="0.918" stop-color="#7EC5EA"/>
<stop offset="1" stop-color="#7EC5EA"/>
</linearGradient>
<linearGradient id="paint11_linear_531_24020" x1="5.89783" y1="11.2216" x2="4.38952" y2="2.66754" gradientUnits="userSpaceOnUse">
<stop stop-color="#165096"/>
<stop offset="1" stop-color="#0D82CA"/>
</linearGradient>
<linearGradient id="paint12_linear_531_24020" x1="19.8978" y1="6.37161" x2="19.8978" y2="1.88977" gradientUnits="userSpaceOnUse">
<stop stop-color="#05A1E6"/>
<stop offset="0.874" stop-color="#0495D6"/>
<stop offset="1" stop-color="#0495D6"/>
</linearGradient>
<linearGradient id="paint13_linear_531_24020" x1="22.0687" y1="1.50254" x2="20.2511" y2="11.8108" gradientUnits="userSpaceOnUse">
<stop stop-color="#38A7E4" stop-opacity="0.329"/>
<stop offset="0.962" stop-color="#0E88D3"/>
<stop offset="1" stop-color="#0E88D3"/>
</linearGradient>
<linearGradient id="paint14_linear_531_24020" x1="20.3609" y1="1.86673" x2="20.3609" y2="11.6191" gradientUnits="userSpaceOnUse">
<stop stop-color="#168CD4"/>
<stop offset="0.5" stop-color="#1C87CC"/>
<stop offset="1" stop-color="#154B8D"/>
</linearGradient>
<linearGradient id="paint15_linear_531_24020" x1="7.13708" y1="0.892913" x2="18.5063" y2="5.6083" gradientUnits="userSpaceOnUse">
<stop stop-color="#97D6EE"/>
<stop offset="0.703" stop-color="#55C1EA"/>
<stop offset="1" stop-color="#55C1EA"/>
</linearGradient>
<linearGradient id="paint16_linear_531_24020" x1="10.2468" y1="3.60179" x2="19.2263" y2="-0.468943" gradientUnits="userSpaceOnUse">
<stop stop-color="#7ACCEC"/>
<stop offset="1" stop-color="#3FB7ED"/>
</linearGradient>
<linearGradient id="paint17_linear_531_24020" x1="19.0515" y1="2.38411" x2="19.0515" y2="11.9475" gradientUnits="userSpaceOnUse">
<stop stop-color="#1DA7E7"/>
<stop offset="1" stop-color="#37ABE7" stop-opacity="0"/>
</linearGradient>
</defs>
</svg>
