<svg width="27" height="28" viewBox="0 0 27 28" fill="none" xmlns="http://www.w3.org/2000/svg">
<g clip-path="url(#clip0_531_23855)">
<path d="M27 14.6C27 12.3404 25.596 10.3559 23.4849 9.59065C23.5761 9.11285 23.6219 8.6275 23.6216 8.14109C23.6216 3.92234 20.1985 0.506836 15.9984 0.506836C13.5346 0.506836 11.2514 1.68218 9.81366 3.66752C9.10488 3.11892 8.23355 2.82204 7.33726 2.82377C5.10132 2.82377 3.28726 4.63784 3.28726 6.87377C3.28726 7.36484 3.37838 7.84409 3.5387 8.28874C2.50556 8.66295 1.6122 9.34531 0.979341 10.2436C0.346486 11.1419 0.00464352 12.2128 9.19659e-06 13.3116C-0.00203193 14.41 0.335734 15.4822 0.967 16.3812C1.59827 17.2801 2.49213 17.9618 3.52604 18.3327C3.43426 18.8105 3.38849 19.2959 3.38935 19.7823C3.39136 21.8004 4.19393 23.7352 5.62092 25.1622C7.04791 26.5892 8.98275 27.3918 11.0008 27.3938C13.4646 27.3938 15.7478 26.2066 17.1745 24.2213C17.8833 24.7807 18.749 25.0886 19.6509 25.0886C21.8869 25.0886 23.7009 23.2746 23.7009 21.0386C23.7009 20.5476 23.6098 20.0683 23.4495 19.6237C24.4842 19.2504 25.3794 18.5686 26.0143 17.6704C26.6492 16.7722 26.9933 15.6999 27 14.6Z" fill="white"/>
<path d="M10.6125 12.0899L16.5238 14.7831L22.4807 9.55692C22.5688 9.12524 22.6109 8.68544 22.6064 8.24489C22.604 6.47803 21.901 4.78425 20.6516 3.53489C19.4023 2.28553 17.7085 1.58256 15.9416 1.58011C14.8602 1.58106 13.7952 1.84546 12.8389 2.35045C11.8826 2.85544 11.0637 3.58582 10.4531 4.47839L9.45996 9.62527L10.6125 12.0899Z" fill="#FED10A"/>
<path d="M4.49696 18.3437C4.40861 18.7831 4.3662 19.2304 4.3704 19.6785C4.3704 23.3657 7.37162 26.3543 11.058 26.3543C12.1469 26.3543 13.2194 26.0881 14.182 25.579C15.1446 25.0699 15.9682 24.3333 16.5812 23.4332L17.5624 18.3091L16.2504 15.799L10.3163 13.0948L4.49696 18.3437Z" fill="#24BBB1"/>
<path d="M4.46164 8.12001L8.51164 9.07851L9.4018 4.48007C8.85336 4.0582 8.16992 3.83038 7.46117 3.83038C6.61467 3.8315 5.80314 4.16821 5.20449 4.7667C4.60584 5.36519 4.26892 6.17663 4.26758 7.02313C4.26758 7.39945 4.33508 7.7766 4.46164 8.11832" fill="#EF5098"/>
<path d="M4.10911 9.08862C2.30602 9.68178 1.03955 11.4174 1.03955 13.3226C1.03955 15.183 2.19211 16.8376 3.91505 17.4991L9.59771 12.3641L8.55989 10.1391L4.10911 9.08862Z" fill="#17A8E0"/>
<path d="M17.6089 23.4341C18.1627 23.8586 18.8399 24.0908 19.5377 24.0956C20.3849 24.0949 21.1973 23.758 21.7964 23.1589C22.3954 22.5599 22.7323 21.7475 22.733 20.9003C22.7336 20.5228 22.6679 20.1481 22.5389 19.7933L18.499 18.8457L17.6089 23.4341Z" fill="#93C83E"/>
<path d="M18.4302 17.7843L22.881 18.8221C23.772 18.5239 24.5471 17.9541 25.0977 17.1927C25.6482 16.4314 25.9465 15.5167 25.9506 14.5772C25.9494 13.6734 25.6738 12.7912 25.1604 12.0474C24.6469 11.3036 23.9198 10.7332 23.0751 10.4116L17.2549 15.5129L18.4302 17.7843Z" fill="#0779A1"/>
</g>
<defs>
<clipPath id="clip0_531_23855">
<rect width="27" height="27" fill="white" transform="translate(0 0.450317)"/>
</clipPath>
</defs>
</svg>
