<svg width="23" height="25" viewBox="0 0 23 25" fill="none" xmlns="http://www.w3.org/2000/svg">
<path d="M8.46013 5.84432C5.37514 5.28185 2.93849 5.87008 1.96597 7.56178C1.24035 8.81768 1.44859 10.4836 2.46833 12.2633C2.48905 12.2994 2.51668 12.3311 2.54963 12.3565C2.58259 12.3819 2.62022 12.4006 2.66039 12.4114C2.70056 12.4223 2.74248 12.4251 2.78375 12.4198C2.82502 12.4145 2.86483 12.4011 2.90092 12.3803C2.93701 12.3596 2.96866 12.332 2.99407 12.299C3.01948 12.2661 3.03815 12.2284 3.04901 12.1883C3.05988 12.1481 3.06272 12.1062 3.05739 12.0649C3.05205 12.0237 3.03864 11.9838 3.01792 11.9478C2.09908 10.3441 1.91875 8.9057 2.51342 7.86878C3.32062 6.47119 5.49536 5.93663 8.34635 6.46475C8.42891 6.47984 8.51408 6.46151 8.58313 6.41381C8.65217 6.3661 8.69944 6.29291 8.71453 6.21035C8.72962 6.12779 8.71129 6.04262 8.66358 5.97357C8.61587 5.90453 8.54269 5.85726 8.46013 5.84217V5.84432ZM4.07201 14.4209C5.44757 15.8951 7.04028 17.1504 8.79504 18.1435C13.269 20.7197 18.0264 21.4174 20.3879 19.8159C20.4571 19.7686 20.5047 19.6958 20.5202 19.6135C20.5357 19.5311 20.5178 19.446 20.4706 19.3769C20.4233 19.3077 20.3505 19.2601 20.2682 19.2446C20.1858 19.2291 20.1007 19.2469 20.0315 19.2942C17.9148 20.7304 13.3828 20.0692 9.10418 17.5939C7.40858 16.6329 5.86949 15.4189 4.54002 13.9937C4.48308 13.9316 4.40383 13.8947 4.31968 13.8911C4.23553 13.8875 4.1534 13.9174 4.09133 13.9744C4.02927 14.0313 3.99237 14.1106 3.98875 14.1947C3.98512 14.2788 4.01508 14.361 4.07201 14.423V14.4209Z" fill="#47848F"/>
<path d="M19.6216 14.0345C21.6417 11.6493 22.3459 9.24919 21.3755 7.57037C20.6628 6.33379 19.1535 5.68116 17.1484 5.6554C17.0644 5.6554 16.9839 5.68876 16.9245 5.74814C16.8651 5.80753 16.8318 5.88807 16.8318 5.97205C16.8318 6.05604 16.8651 6.13658 16.9245 6.19596C16.9839 6.25535 17.0644 6.28871 17.1484 6.28871C18.9517 6.31232 20.2506 6.87479 20.8367 7.8881C21.6417 9.28354 21.0127 11.4239 19.1471 13.6287C19.1203 13.6604 19.1 13.6971 19.0874 13.7367C19.0748 13.7762 19.0701 13.8179 19.0736 13.8592C19.0771 13.9006 19.0887 13.9409 19.1078 13.9778C19.1268 14.0146 19.153 14.0474 19.1847 14.0742C19.2164 14.101 19.2531 14.1212 19.2926 14.1338C19.3322 14.1465 19.3738 14.1511 19.4152 14.1477C19.4566 14.1442 19.4968 14.1326 19.5337 14.1135C19.5706 14.0945 19.6034 14.0683 19.6301 14.0366L19.6216 14.0345ZM14.4327 5.94951C12.4505 6.39934 10.5496 7.15244 8.79724 8.18221C4.17942 10.855 1.16527 14.7816 1.57531 17.6326C1.58137 17.6748 1.59571 17.7155 1.61749 17.7523C1.63927 17.789 1.66808 17.8211 1.70227 17.8467C1.73646 17.8724 1.77536 17.891 1.81675 17.9016C1.85814 17.9122 1.90121 17.9145 1.94349 17.9084C1.98578 17.9024 2.02646 17.888 2.06321 17.8662C2.09996 17.8445 2.13206 17.8157 2.15768 17.7815C2.1833 17.7473 2.20193 17.7084 2.21251 17.667C2.2231 17.6256 2.22542 17.5825 2.21936 17.5402C1.83937 15.0091 4.69465 11.2844 9.11283 8.7318C10.808 7.73202 12.6473 6.99992 14.5658 6.56136C14.6064 6.55262 14.6448 6.53597 14.679 6.51236C14.7132 6.48875 14.7424 6.45864 14.7649 6.42375C14.7874 6.38887 14.8028 6.34988 14.8103 6.30903C14.8178 6.26818 14.8171 6.22626 14.8084 6.18566C14.7996 6.14506 14.783 6.10659 14.7594 6.07242C14.7358 6.03826 14.7056 6.00908 14.6708 5.98656C14.6359 5.96403 14.5969 5.9486 14.556 5.94113C14.5152 5.93367 14.4733 5.93433 14.4327 5.94307V5.94951Z" fill="#47848F"/>
<path d="M6.94235 19.6098C8.01577 22.5574 9.73323 24.38 11.6761 24.38C13.093 24.38 14.4026 23.414 15.4245 21.7137C15.4695 21.6422 15.4842 21.5558 15.4655 21.4735C15.4468 21.3911 15.3961 21.3196 15.3246 21.2746C15.2532 21.2297 15.1668 21.2149 15.0845 21.2336C15.0021 21.2523 14.9306 21.303 14.8856 21.3745C13.9668 22.903 12.8397 23.736 11.6783 23.736C10.0638 23.736 8.52456 22.1173 7.54776 19.3908C7.51929 19.3119 7.46066 19.2476 7.38477 19.212C7.30888 19.1764 7.22194 19.1723 7.14308 19.2008C7.06422 19.2293 6.9999 19.2879 6.96427 19.3638C6.92864 19.4397 6.92462 19.5266 6.95309 19.6055L6.94235 19.6098ZM16.6031 19.0323C17.1742 17.1316 17.4571 15.156 17.4425 13.1714C17.4425 7.93103 15.6091 3.41625 12.9964 2.25481C12.9583 2.2379 12.9173 2.22864 12.8757 2.22758C12.8341 2.22652 12.7926 2.23367 12.7537 2.24862C12.7149 2.26357 12.6793 2.28603 12.6491 2.31472C12.6189 2.34341 12.5947 2.37777 12.5778 2.41583C12.5436 2.49269 12.5414 2.57998 12.5716 2.65849C12.6018 2.737 12.6619 2.80029 12.7388 2.83446C15.0681 3.86923 16.8178 8.1543 16.8178 13.1714C16.832 15.092 16.5585 17.0039 16.0063 18.8434C15.9939 18.883 15.9894 18.9246 15.9931 18.966C15.9968 19.0073 16.0086 19.0475 16.0278 19.0843C16.0471 19.1211 16.0733 19.1537 16.1052 19.1803C16.137 19.207 16.1738 19.227 16.2134 19.2394C16.253 19.2519 16.2947 19.2563 16.3361 19.2526C16.3774 19.2489 16.4176 19.2371 16.4544 19.2179C16.4912 19.1987 16.5238 19.1724 16.5504 19.1405C16.577 19.1087 16.5971 19.0719 16.6095 19.0323H16.6031ZM22.5519 18.7231C22.5519 18.4238 22.4632 18.1312 22.2969 17.8823C22.1306 17.6334 21.8942 17.4394 21.6176 17.3248C21.3411 17.2103 21.0367 17.1803 20.7432 17.2387C20.4496 17.2971 20.1799 17.4412 19.9682 17.6529C19.7565 17.8646 19.6124 18.1343 19.554 18.4279C19.4956 18.7215 19.5256 19.0258 19.6401 19.3023C19.7547 19.5789 19.9487 19.8153 20.1976 19.9816C20.4465 20.1479 20.7391 20.2366 21.0384 20.2366C21.2372 20.2366 21.434 20.1975 21.6176 20.1214C21.8013 20.0454 21.9681 19.9339 22.1086 19.7933C22.2492 19.6528 22.3607 19.486 22.4367 19.3023C22.5128 19.1187 22.5519 18.9219 22.5519 18.7231ZM21.9186 18.7231C21.9186 18.8972 21.867 19.0674 21.7703 19.2121C21.6736 19.3569 21.5361 19.4697 21.3753 19.5363C21.2144 19.603 21.0375 19.6204 20.8667 19.5864C20.696 19.5525 20.5391 19.4686 20.416 19.3455C20.2929 19.2224 20.2091 19.0656 20.1751 18.8949C20.1412 18.7241 20.1586 18.5471 20.2252 18.3863C20.2918 18.2255 20.4047 18.088 20.5494 17.9913C20.6942 17.8946 20.8643 17.8429 21.0384 17.8429C21.2719 17.8429 21.4958 17.9357 21.6608 18.1007C21.8259 18.2658 21.9186 18.4897 21.9186 18.7231ZM2.29232 20.2366C2.59167 20.2366 2.88429 20.1479 3.13319 19.9816C3.38208 19.8153 3.57607 19.5789 3.69063 19.3023C3.80518 19.0258 3.83515 18.7215 3.77675 18.4279C3.71836 18.1343 3.57421 17.8646 3.36254 17.6529C3.15087 17.4412 2.88119 17.2971 2.58759 17.2387C2.294 17.1803 1.98968 17.2103 1.71313 17.3248C1.43657 17.4394 1.20019 17.6334 1.03388 17.8823C0.867575 18.1312 0.778809 18.4238 0.778809 18.7231C0.778809 19.1245 0.938268 19.5095 1.22211 19.7933C1.50595 20.0772 1.89091 20.2366 2.29232 20.2366ZM2.29232 19.6033C2.11824 19.6033 1.94806 19.5517 1.80331 19.455C1.65856 19.3583 1.54574 19.2208 1.47912 19.06C1.4125 18.8991 1.39507 18.7222 1.42904 18.5514C1.463 18.3807 1.54683 18.2238 1.66993 18.1007C1.79303 17.9776 1.94986 17.8938 2.1206 17.8598C2.29135 17.8259 2.46833 17.8433 2.62916 17.9099C2.79 17.9766 2.92746 18.0894 3.02418 18.2341C3.1209 18.3789 3.17252 18.549 3.17252 18.7231C3.17252 18.9566 3.07979 19.1805 2.91472 19.3455C2.74965 19.5106 2.52577 19.6033 2.29232 19.6033Z" fill="#47848F"/>
<path d="M11.6761 3.79839C11.9755 3.79839 12.2681 3.70962 12.517 3.54332C12.7659 3.37701 12.9599 3.14063 13.0744 2.86407C13.189 2.58752 13.2189 2.2832 13.1605 1.98961C13.1021 1.69601 12.958 1.42633 12.7463 1.21466C12.5347 1.00299 12.265 0.858844 11.9714 0.800445C11.6778 0.742045 11.3735 0.772018 11.0969 0.886572C10.8204 1.00113 10.584 1.19512 10.4177 1.44401C10.2514 1.69291 10.1626 1.98553 10.1626 2.28488C10.1626 2.68629 10.3221 3.07125 10.6059 3.35509C10.8897 3.63893 11.2747 3.79839 11.6761 3.79839ZM11.6761 3.16508C11.502 3.16508 11.3318 3.11345 11.1871 3.01674C11.0424 2.92002 10.9295 2.78255 10.8629 2.62171C10.7963 2.46088 10.7789 2.2839 10.8128 2.11316C10.8468 1.94242 10.9306 1.78558 11.0537 1.66248C11.1768 1.53938 11.3337 1.45555 11.5044 1.42159C11.6751 1.38763 11.8521 1.40506 12.0129 1.47168C12.1738 1.5383 12.3113 1.65112 12.408 1.79586C12.5047 1.94061 12.5563 2.11079 12.5563 2.28488C12.5563 2.51832 12.4636 2.7422 12.2985 2.90727C12.1334 3.07234 11.9096 3.16508 11.6761 3.16508ZM11.908 14.2406C11.6964 14.2879 11.4755 14.2714 11.2733 14.193C11.0711 14.1147 10.8967 13.9781 10.7723 13.8005C10.6478 13.6229 10.5789 13.4124 10.5743 13.1956C10.5696 12.9788 10.6294 12.7656 10.7461 12.5828C10.8628 12.4001 11.0312 12.2561 11.2298 12.1691C11.4284 12.0822 11.6484 12.0561 11.8618 12.0944C12.0753 12.1326 12.2726 12.2333 12.4287 12.3838C12.5848 12.5343 12.6927 12.7277 12.7388 12.9396C12.8002 13.2222 12.7473 13.5176 12.5917 13.7614C12.436 14.0051 12.1902 14.1774 11.908 14.2406Z" fill="#47848F"/>
</svg>
