<svg width="25" height="27" viewBox="0 0 25 27" fill="none" xmlns="http://www.w3.org/2000/svg">
<g clip-path="url(#clip0_509_24937)">
<path fill-rule="evenodd" clip-rule="evenodd" d="M13.2944 0.0793457C11.4781 0.748901 9.7248 2.70315 8.03444 5.9421C5.49891 10.8005 2.22414 17.7044 6.73352 23.1707C8.81969 25.6995 12.2642 27.192 16.7847 24.8282C20.4161 22.9292 21.4261 17.4797 20.1223 14.9189C17.433 9.63647 14.7045 8.33357 13.9738 5.05763C13.4867 2.87366 13.2603 1.21424 13.2944 0.0793457Z" fill="url(#paint0_linear_509_24937)"/>
<path fill-rule="evenodd" clip-rule="evenodd" d="M13.2944 0.013916C11.4689 0.690374 9.71555 2.64463 8.03441 5.87667C5.5127 10.7247 2.22411 17.639 6.73349 23.1052C8.81966 25.6341 12.2199 26.4512 14.1066 24.9514C15.3365 23.9737 16.1731 23.0417 16.655 21.078C17.1917 18.8914 16.7799 15.9476 16.4978 14.5953C16.1408 12.8841 16.0239 11.0059 16.1472 8.9607C16.1038 8.90564 16.0713 8.86444 16.0498 8.8371C15.0676 7.58694 14.3096 6.498 13.9738 4.9922C13.4867 2.80823 13.2602 1.14881 13.2944 0.013916Z" fill="url(#paint1_linear_509_24937)"/>
<path fill-rule="evenodd" clip-rule="evenodd" d="M11.783 0.864491C10.0827 2.26206 8.81845 4.60625 7.99032 7.89708C6.74812 12.8333 6.61352 17.3853 7.05162 20.033C7.90091 25.1657 12.3039 27.114 16.8201 24.7249C19.5995 23.2547 20.7571 20.0988 20.6958 16.6731C20.6323 13.1262 14.0416 9.10627 12.8744 6.1461C12.0963 4.17264 11.7325 2.41211 11.783 0.864491Z" fill="url(#paint2_linear_509_24937)"/>
<path fill-rule="evenodd" clip-rule="evenodd" d="M16.0933 10.119C18.1325 12.8388 18.577 14.7322 17.4268 15.799C15.7015 17.3992 11.4825 18.4433 8.85783 16.5076C7.10805 15.2171 6.44599 12.4486 6.87167 8.2023C6.14935 9.77112 5.53863 11.3604 5.0395 12.97C4.54037 14.5796 4.39461 16.2641 4.60223 18.0234C5.22776 19.3395 6.74864 20.2185 9.16489 20.6604C12.7893 21.3232 16.2196 20.9957 18.5214 19.7889C20.0559 18.9844 20.7818 18.1836 20.6989 17.3864C20.7543 16.2091 20.4052 15.0884 19.6517 14.0244C18.8982 12.9603 17.712 11.6585 16.0933 10.119Z" fill="url(#paint3_linear_509_24937)"/>
<path fill-rule="evenodd" clip-rule="evenodd" d="M8.12489 7.4032C8.10784 9.36747 8.59348 11.2347 9.58181 13.005C11.0643 15.6604 12.7948 18.2843 15.3843 20.4593C17.1106 21.9093 18.4901 22.3777 19.5225 21.8647C18.6745 23.4431 17.7728 24.2165 16.8174 24.185C15.3843 24.1377 13.6369 23.4863 10.8371 19.9872C8.97052 17.6544 7.69361 15.4478 7.00635 13.3673C7.11533 12.5419 7.2309 11.7198 7.35305 10.901C7.4752 10.0822 7.73248 8.91628 8.12489 7.4032Z" fill="url(#paint4_linear_509_24937)"/>
<path fill-rule="evenodd" clip-rule="evenodd" d="M12.5044 10.0988C12.6628 11.699 13.2615 14.2587 12.5044 15.9629C11.7473 17.6671 8.2502 20.7459 9.21553 23.458C10.1809 26.1701 12.5334 25.5612 14.009 24.3113C15.4847 23.0614 16.2746 21.0291 16.4497 19.5998C16.6247 18.1706 16.0308 15.4204 15.8376 13.0283C15.7088 11.4336 15.7962 10.0663 16.0997 8.92641L15.6475 8.33464L12.986 7.51509C12.5593 8.17082 12.3988 9.03207 12.5044 10.0988Z" fill="url(#paint5_linear_509_24937)"/>
<path fill-rule="evenodd" clip-rule="evenodd" d="M13.4543 2.17307C12.5929 2.55162 11.7768 3.30171 11.0059 4.42334C9.84956 6.10578 9.26061 7.1143 9.69655 10.4493C9.98718 12.6727 10.1952 14.7181 10.3206 16.5856L14.0484 5.32155C13.9113 4.74759 13.7973 4.22923 13.7064 3.76648C13.6155 3.30372 13.5315 2.77259 13.4543 2.17307Z" fill="url(#paint6_linear_509_24937)"/>
<path fill-rule="evenodd" clip-rule="evenodd" d="M14.0412 5.29915C13.0949 5.87358 12.3616 7.05046 11.8414 8.82977C11.3212 10.6091 10.8452 13.0965 10.4136 16.2921C10.9893 14.2596 11.3712 12.7875 11.5593 11.8757C11.8414 10.5081 11.9377 8.57405 12.6868 7.26103C13.1862 6.38569 13.6377 5.73173 14.0412 5.29915Z" fill="#330A4C" fill-opacity="0.316321"/>
<path fill-rule="evenodd" clip-rule="evenodd" d="M9.65967 24.3637C11.217 24.5951 12.0313 24.8008 12.1026 24.9809C12.2096 25.2509 11.9055 25.4979 11.041 25.3319C10.4648 25.2213 10.0043 24.8985 9.65967 24.3637Z" fill="white"/>
<path fill-rule="evenodd" clip-rule="evenodd" d="M10.442 2.17307C9.58543 3.23727 8.8432 4.3655 8.21532 5.55774C7.58744 6.74999 7.1388 7.63945 6.8694 8.22612C6.78591 8.66369 6.74515 9.30933 6.74714 10.163C6.74913 11.0168 6.82013 11.966 6.96015 13.0108C7.08273 10.9649 7.458 8.97907 8.08595 7.05324C8.71391 5.12741 9.49925 3.50069 10.442 2.17307Z" fill="#EDEDED" fill-opacity="0.603261"/>
</g>
<defs>
<linearGradient id="paint0_linear_509_24937" x1="12.9445" y1="1.99565" x2="12.0066" y2="25.9915" gradientUnits="userSpaceOnUse">
<stop stop-color="#D9D8DC"/>
<stop offset="1" stop-color="white" stop-opacity="0.385275"/>
</linearGradient>
<linearGradient id="paint1_linear_509_24937" x1="13.3365" y1="1.9896" x2="3.66928" y2="22.3625" gradientUnits="userSpaceOnUse">
<stop stop-color="#8D67AF" stop-opacity="0.671932"/>
<stop offset="1" stop-color="#9F8DAF"/>
</linearGradient>
<linearGradient id="paint2_linear_509_24937" x1="14.3484" y1="8.68319" x2="14.3484" y2="25.2966" gradientUnits="userSpaceOnUse">
<stop stop-color="#26053D" stop-opacity="0.761634"/>
<stop offset="1" stop-color="#B7B4B4" stop-opacity="0.277683"/>
</linearGradient>
<linearGradient id="paint3_linear_509_24937" x1="6.15171" y1="9.80666" x2="10.506" y2="20.8973" gradientUnits="userSpaceOnUse">
<stop stop-color="#91739F" stop-opacity="0.45955"/>
<stop offset="1" stop-color="#32054F" stop-opacity="0.539912"/>
</linearGradient>
<linearGradient id="paint4_linear_509_24937" x1="17.0222" y1="23.5835" x2="5.48463" y2="14.3912" gradientUnits="userSpaceOnUse">
<stop stop-color="#463D49" stop-opacity="0.331182"/>
<stop offset="1" stop-color="#340A50" stop-opacity="0.821388"/>
</linearGradient>
<linearGradient id="paint5_linear_509_24937" x1="14.7234" y1="8.8398" x2="6.39739" y2="21.0187" gradientUnits="userSpaceOnUse">
<stop stop-color="#715383" stop-opacity="0.145239"/>
<stop offset="1" stop-color="#F4F4F4" stop-opacity="0.233639"/>
</linearGradient>
<linearGradient id="paint6_linear_509_24937" x1="15.4776" y1="12.646" x2="9.89037" y2="12.318" gradientUnits="userSpaceOnUse">
<stop stop-color="#A5A1A8" stop-opacity="0.356091"/>
<stop offset="1" stop-color="#370C50" stop-opacity="0.581975"/>
</linearGradient>
<clipPath id="clip0_509_24937">
<rect width="25" height="26" fill="white" transform="translate(0 0.013916)"/>
</clipPath>
</defs>
</svg>
