<svg width="23" height="22" viewBox="0 0 23 22" fill="none" xmlns="http://www.w3.org/2000/svg">
<g clip-path="url(#clip0_509_24933)">
<path d="M0 0.410248H23V21.3669H0V0.410248Z" fill="white"/>
<path d="M3.99123 15.3395C2.29875 13.4763 1.3085 10.9024 1.31101 7.83144C1.30868 5.11544 2.13012 2.78211 3.54228 1.00467L3.54004 1.0056H0.571777V15.3397L3.99123 15.3395ZM19.6234 15.3408C20.3525 14.5295 21.0058 13.5741 21.5978 12.4816L18.3125 10.7752C17.1587 12.7238 15.4714 14.5174 13.1381 14.5294C9.74231 14.5175 8.40813 11.5009 8.4155 7.61827H21.105C21.123 7.17988 21.123 6.97613 21.105 6.7652C21.1879 4.4552 20.5986 2.51368 19.5265 1.00159L19.5209 1.00588H22.3779V15.34H19.617L19.6233 15.3409L19.6234 15.3408ZM8.62088 4.29047C8.7614 2.53263 10.0955 1.35047 11.6598 1.34673C13.2347 1.35028 14.3727 2.53244 14.4112 4.29047H8.6207H8.62088Z" fill="#A90533"/>
<path d="M2.37867 20.7152V20.1179H1.27V19.1794H2.33779V18.5821H1.26982V17.7715H2.37849V17.1741H0.612793V20.715L2.37867 20.7152ZM5.37649 19.2219C5.81672 19.1539 6.0593 18.7008 6.07457 18.2406C6.0584 17.4878 5.58942 17.1764 4.92475 17.1741H4.02129V20.715H4.67831V19.3072L5.49966 20.715H6.32102L5.37649 19.2219ZM4.6784 17.7288H4.76052C5.11989 17.7428 5.38808 17.8277 5.37649 18.2834C5.38799 18.7009 5.12807 18.8142 4.76052 18.7953H4.6784V17.7288ZM9.31883 20.1179H8.3735V17.1743H7.71647V20.7152H9.31802L9.31883 20.1179ZM12.6862 19.99L12.9737 20.7152H13.6718L12.3987 17.089H11.8648L10.5096 20.7152H11.2077L11.4952 19.99H12.6862ZM12.5219 19.4356H11.7006L12.0702 18.1131L12.5219 19.4356ZM17.9018 20.8004V17.1742H17.2037V19.5633L15.3966 17.0889H14.9039V20.7152H15.602V18.3261L17.4089 20.7995L17.9018 20.8004ZM20.7765 18.838V19.3926H21.5157C21.5005 19.8382 21.1492 20.2158 20.7355 20.2032C20.082 20.2159 19.7582 19.5599 19.7499 18.9659C19.7582 18.3798 20.0775 17.6966 20.7355 17.6861C21.0807 17.6954 21.3726 17.9409 21.5157 18.2406L22.0907 17.942C21.8379 17.3887 21.3271 17.0819 20.7355 17.0887C19.7173 17.0819 19.0652 17.955 19.0519 18.9658C19.0653 19.9514 19.6991 20.8293 20.6945 20.843C21.7696 20.8293 22.2666 19.9373 22.2551 18.9231V18.8378H20.7764L20.7765 18.838Z" fill="black"/>
</g>
<defs>
<clipPath id="clip0_509_24933">
<rect width="23" height="21" fill="white" transform="translate(0 0.38858)"/>
</clipPath>
</defs>
</svg>
