<svg width="36" height="37" viewBox="0 0 36 37" fill="none" xmlns="http://www.w3.org/2000/svg">
<path d="M11.3991 22.4966V14.8803H11.8126V16.0784C11.8614 16.0254 11.9065 15.969 11.9476 15.9097C12.1165 15.559 12.3819 15.2637 12.7127 15.0585C13.0434 14.8533 13.4258 14.7466 13.8151 14.7509C14.7572 14.7228 15.5222 15.0716 15.9722 15.9097C16.2586 16.4303 16.4161 17.012 16.4318 17.6059C16.4475 18.1999 16.3207 18.789 16.0622 19.3241C15.6432 20.2634 14.6082 20.7303 13.5001 20.5587C13.1552 20.5294 12.8232 20.4141 12.5344 20.2235C12.2455 20.0329 12.0089 19.773 11.8463 19.4675V22.4966H11.3991ZM11.8126 17.5747C11.8491 17.9459 11.8632 18.2103 11.9054 18.4691C12.0685 19.4872 12.6704 20.0919 13.6154 20.2016C14.0591 20.2745 14.5144 20.1913 14.9036 19.9662C15.2929 19.741 15.592 19.3879 15.7501 18.9669C15.9317 18.5338 16.0191 18.0671 16.0064 17.5978C15.9938 17.1284 15.8815 16.667 15.6769 16.2444C15.5082 15.867 15.2214 15.5549 14.8596 15.3549C14.4978 15.155 14.0809 15.0783 13.6716 15.1362C13.2874 15.1641 12.9214 15.3109 12.6245 15.5564C12.3276 15.8019 12.1146 16.1338 12.0151 16.5059C11.927 16.858 11.8594 17.2148 11.8126 17.5747ZM24.8654 18.6097C24.8027 19.1459 24.5475 19.6412 24.147 20.0033C23.7466 20.3654 23.2283 20.5698 22.6885 20.5784C20.956 20.6656 20.1432 19.5153 20.0138 18.1878C19.924 17.4669 20.0411 16.7353 20.3513 16.0784C20.5674 15.6278 20.9212 15.2577 21.3616 15.0216C21.802 14.7854 22.3061 14.6956 22.801 14.765C23.2715 14.8049 23.7175 14.9917 24.0759 15.2991C24.4342 15.6065 24.6868 16.0189 24.7979 16.4778C24.8859 16.8958 24.9507 17.3183 24.9919 17.7434H20.4385C20.3541 18.9472 21.001 19.9147 21.9179 20.1481C23.0597 20.4294 24.0357 19.9344 24.3901 18.8487C24.4688 18.5703 24.6122 18.5309 24.8654 18.6097ZM20.4385 17.3581H24.5082C24.4829 16.0756 23.6841 15.1475 22.6013 15.1334C21.3751 15.1137 20.4919 16.0081 20.4385 17.3581ZM25.7035 18.6378H26.1029C26.1176 18.9317 26.2131 19.2158 26.3788 19.4589C26.5446 19.702 26.7741 19.8948 27.0422 20.0159C27.379 20.1675 27.7455 20.2411 28.1146 20.2314C28.4837 20.2216 28.8459 20.1288 29.1741 19.9597C29.353 19.879 29.5028 19.7455 29.6034 19.577C29.704 19.4085 29.7505 19.2132 29.7366 19.0175C29.7469 18.8287 29.6954 18.6417 29.5898 18.4849C29.4842 18.3281 29.3304 18.2099 29.1516 18.1484C28.7129 17.9853 28.246 17.8953 27.7988 17.7519C27.3335 17.6194 26.8786 17.453 26.4376 17.2541C25.7176 16.9025 25.6726 15.5328 26.4882 15.0997C26.9058 14.864 27.3758 14.7367 27.8553 14.7293C28.3348 14.7219 28.8085 14.8348 29.2332 15.0575C29.4904 15.1997 29.6983 15.4169 29.8289 15.6802C29.9595 15.9435 30.0068 16.2404 29.9644 16.5312H29.6213C29.6213 16.5144 29.5904 16.5003 29.5904 16.4834C29.5482 15.3894 28.6313 15.0519 27.6469 15.1475C27.3531 15.1837 27.0677 15.2703 26.8032 15.4034C26.6443 15.4761 26.5119 15.5963 26.4242 15.7474C26.3366 15.8986 26.298 16.0732 26.3138 16.2472C26.3143 16.4213 26.3686 16.5909 26.4693 16.7329C26.57 16.8749 26.7122 16.9823 26.8763 17.0403C27.3094 17.1978 27.7622 17.2991 28.2066 17.4228C28.5638 17.5212 28.9351 17.5859 29.281 17.7041C29.5252 17.7841 29.7393 17.9364 29.895 18.1408C30.0506 18.3452 30.1406 18.5921 30.1529 18.8487C30.1946 19.13 30.1467 19.4172 30.0159 19.6696C29.8852 19.922 29.6782 20.1269 29.4244 20.255C28.4851 20.7866 26.9382 20.6459 26.2491 19.9737C26.0745 19.7981 25.9364 19.5896 25.8427 19.3603C25.7491 19.131 25.7017 18.8855 25.7035 18.6378ZM35.2154 16.5312H34.8413C34.8413 16.4806 34.8216 16.4356 34.816 16.3934C34.8099 16.113 34.7077 15.8432 34.5265 15.6292C34.3452 15.4152 34.0959 15.27 33.8204 15.2178C33.3004 15.0686 32.7458 15.0953 32.2426 15.2937C32.0437 15.3508 31.8685 15.4706 31.7433 15.6353C31.6181 15.8001 31.5496 16.0009 31.5479 16.2078C31.5409 16.411 31.6042 16.6104 31.7272 16.7723C31.8502 16.9342 32.0252 17.0488 32.2229 17.0966C32.7854 17.2709 33.3619 17.3778 33.9329 17.5353C34.1179 17.5797 34.3001 17.6351 34.4785 17.7012C34.7449 17.7966 34.9764 17.97 35.1426 18.199C35.3089 18.4279 35.4022 18.7017 35.4104 18.9845C35.4186 19.2674 35.3413 19.5461 35.1886 19.7843C35.0359 20.0225 34.8149 20.2091 34.5544 20.3197C34.1575 20.4999 33.7274 20.5953 33.2915 20.5996C32.8556 20.604 32.4236 20.5172 32.0232 20.345C31.6939 20.203 31.416 19.9635 31.227 19.6588C31.0379 19.354 30.9467 18.9987 30.9657 18.6406H31.3313C31.3989 18.967 31.5451 19.2719 31.7572 19.529C31.9692 19.7861 32.2407 19.9877 32.5482 20.1162C32.8557 20.2447 33.1899 20.2964 33.5218 20.2666C33.8537 20.2369 34.1734 20.1267 34.4532 19.9456C34.6236 19.8571 34.7651 19.7215 34.8608 19.555C34.9565 19.3885 35.0024 19.1981 34.9932 19.0062C35.0017 18.8174 34.9483 18.6309 34.8412 18.475C34.7341 18.3192 34.5791 18.2026 34.3997 18.1428C33.961 17.9797 33.4941 17.8925 33.0469 17.7491C32.579 17.6186 32.1212 17.4541 31.6772 17.2569C30.9741 16.9109 30.9179 15.5525 31.7194 15.1194C32.1423 14.8738 32.6214 14.7419 33.1104 14.7365C33.5993 14.7311 34.0813 14.8523 34.5094 15.0884C34.7543 15.2346 34.9514 15.4488 35.0767 15.705C35.2021 15.9611 35.2502 16.2482 35.2154 16.5312ZM10.7157 20.4406C10.5684 20.4964 10.4059 20.4963 10.2587 20.4403C10.1115 20.3843 9.98993 20.2764 9.91693 20.1369C9.4585 19.4506 8.95225 18.7953 8.46568 18.1259L8.25475 17.8447C7.67537 18.6209 7.096 19.3662 6.56725 20.1397C6.49836 20.273 6.38335 20.3768 6.24365 20.4316C6.10395 20.4865 5.94907 20.4887 5.80787 20.4378L7.98193 17.5212L5.95975 14.8859C6.10531 14.8334 6.26455 14.8327 6.41058 14.8839C6.55662 14.9351 6.6805 15.0352 6.76131 15.1672C7.231 15.8534 7.75131 16.5087 8.26881 17.2034C8.78912 16.5144 9.30381 15.8562 9.78475 15.1756C9.85402 15.0444 9.96908 14.9433 10.1081 14.8915C10.247 14.8396 10.4002 14.8406 10.5385 14.8944L9.75381 15.935C9.40225 16.3991 9.05631 16.8659 8.69068 17.3187C8.66122 17.3451 8.63766 17.3774 8.62152 17.4135C8.60539 17.4496 8.59705 17.4887 8.59705 17.5283C8.59705 17.5678 8.60539 17.6069 8.62152 17.643C8.63766 17.6791 8.66122 17.7114 8.69068 17.7378C9.36287 18.6294 10.0294 19.5237 10.7157 20.4406ZM19.9463 14.8578V15.2516C19.6618 15.2329 19.3766 15.2741 19.1091 15.3725C18.8415 15.4709 18.5976 15.6243 18.393 15.8228C18.1884 16.0213 18.0277 16.2605 17.9212 16.5249C17.8148 16.7894 17.765 17.0732 17.7751 17.3581V20.4519H17.3729V14.8803H17.7666V16.0222C18.2532 15.1897 19.0041 14.8803 19.9463 14.8578ZM0.599121 17.4847C0.658184 17.2034 0.694746 16.8969 0.776309 16.61C1.26287 14.8803 3.24568 14.1603 4.60975 15.2319C5.4085 15.8591 5.60818 16.7478 5.56881 17.7491H1.06881C0.995684 19.5378 2.28662 20.6178 3.93756 20.0666C4.20536 19.9708 4.4451 19.8098 4.63512 19.5982C4.82515 19.3865 4.95948 19.1309 5.026 18.8544C5.11318 18.5731 5.25381 18.5253 5.521 18.6069C5.47698 18.9493 5.35592 19.2772 5.16691 19.5661C4.9779 19.855 4.72586 20.0972 4.42975 20.2747C3.94048 20.5422 3.37915 20.6482 2.82601 20.5775C2.27288 20.5068 1.75627 20.263 1.35006 19.8809C0.948197 19.4291 0.70521 18.8582 0.658184 18.2553C0.658184 18.1597 0.621621 18.0641 0.601934 17.9741C0.600059 17.8072 0.599121 17.6441 0.599121 17.4847ZM1.07443 17.3637H5.14412C5.11881 16.0672 4.30037 15.1475 3.20912 15.1391C1.99412 15.1222 1.12506 16.0222 1.07162 17.3581L1.07443 17.3637Z" fill="black"/>
</svg>
