<svg width="30" height="30" viewBox="0 0 30 30" fill="none" xmlns="http://www.w3.org/2000/svg">
<g clip-path="url(#clip0_531_24123)">
<path d="M18.643 10.9839L15.7403 13.6845L13.0469 8.25153L14.4407 5.12678C14.8032 4.4924 15.3687 4.49965 15.7221 5.12678L18.643 10.9839Z" fill="#FFA000"/>
<path d="M13.047 8.25153L15.7404 13.6845L4.89258 23.7756L13.047 8.25153Z" fill="#F57F17"/>
<path d="M21.8177 6.8559C22.3361 6.35746 22.8726 6.52784 23.0094 7.2338L25.8333 23.6415L16.4735 29.2602C16.1473 29.4415 15.2773 29.5194 15.2773 29.5194C15.2773 29.5194 14.4852 29.4251 14.1835 29.2475L4.89258 23.7756L21.8177 6.8559Z" fill="#FFCA28"/>
<path d="M13.0466 8.25152L4.89307 23.7756L8.52441 1.08762C8.65854 0.380744 9.06091 0.312775 9.41979 0.936275L13.0466 8.25152Z" fill="#FFA000"/>
</g>
<defs>
<clipPath id="clip0_531_24123">
<rect width="29" height="29" fill="white" transform="translate(0.862305 0.50943)"/>
</clipPath>
</defs>
</svg>
