<svg width="28" height="29" viewBox="0 0 28 29" fill="none" xmlns="http://www.w3.org/2000/svg">
<g clip-path="url(#clip0_526_23289)">
<mask id="mask0_526_23289" style="mask-type:luminance" maskUnits="userSpaceOnUse" x="2" y="0" width="24" height="29">
<path d="M25.2362 13.1283L17.6991 20.6681L25.2362 28.2078H16.6235L9.08379 20.6681L16.6235 13.1283H25.2362ZM16.6235 0.208023L2.625 14.2066L6.93266 18.5142L25.2362 0.208023H16.6235Z" fill="white"/>
</mask>
<g mask="url(#mask0_526_23289)">
<path d="M9.08643 20.6681L13.3914 24.9757L25.2361 13.1283H16.6235L9.08643 20.6681Z" fill="#39CEFD"/>
</g>
<mask id="mask1_526_23289" style="mask-type:luminance" maskUnits="userSpaceOnUse" x="2" y="0" width="24" height="29">
<path d="M25.2362 13.1283L17.6991 20.6681L25.2362 28.2078H16.6235L9.08379 20.6681L16.6235 13.1283H25.2362ZM16.6235 0.208023L2.625 14.2066L6.93266 18.5142L25.2362 0.208023H16.6235Z" fill="white"/>
</mask>
<g mask="url(#mask1_526_23289)">
<path d="M16.6235 0.208023H25.2362L6.93266 18.5142L2.625 14.2066L16.6235 0.208023Z" fill="#39CEFD"/>
</g>
<mask id="mask2_526_23289" style="mask-type:luminance" maskUnits="userSpaceOnUse" x="2" y="0" width="24" height="29">
<path d="M25.2362 13.1283L17.6991 20.6681L25.2362 28.2078H16.6235L9.08379 20.6681L16.6235 13.1283H25.2362ZM16.6235 0.208023L2.625 14.2066L6.93266 18.5142L25.2362 0.208023H16.6235Z" fill="white"/>
</mask>
<g mask="url(#mask2_526_23289)">
<path d="M13.3916 24.9757L16.6237 28.2051H25.2363L17.6993 20.6681L13.3916 24.9757Z" fill="#03569B"/>
</g>
<mask id="mask3_526_23289" style="mask-type:luminance" maskUnits="userSpaceOnUse" x="2" y="0" width="24" height="29">
<path d="M25.2362 13.1283L17.6991 20.6681L25.2362 28.2078H16.6235L9.08379 20.6681L16.6235 13.1283H25.2362ZM16.6235 0.208023L2.625 14.2066L6.93266 18.5142L25.2362 0.208023H16.6235Z" fill="white"/>
</mask>
<g mask="url(#mask3_526_23289)">
<path d="M19.7803 22.7626L17.6993 20.6681L13.3916 24.9757L19.7803 22.7626Z" fill="url(#paint0_linear_526_23289)"/>
</g>
<mask id="mask4_526_23289" style="mask-type:luminance" maskUnits="userSpaceOnUse" x="2" y="0" width="24" height="29">
<path d="M25.2362 13.1283L17.6991 20.6681L25.2362 28.2078H16.6235L9.08379 20.6681L16.6235 13.1283H25.2362ZM16.6235 0.208023L2.625 14.2066L6.93266 18.5142L25.2362 0.208023H16.6235Z" fill="white"/>
</mask>
<g mask="url(#mask4_526_23289)">
<path d="M9.08594 20.6666L13.3937 16.3588L17.7017 20.6666L13.3937 24.9744L9.08594 20.6666Z" fill="#16B9FD"/>
</g>
<path d="M25.2362 13.1283L17.6991 20.6681L25.2362 28.2078H16.6235L9.08379 20.6681L16.6235 13.1283H25.2362ZM16.6235 0.208023L2.625 14.2066L6.93266 18.5142L25.2362 0.208023H16.6235Z" fill="url(#paint1_radial_526_23289)"/>
</g>
<defs>
<linearGradient id="paint0_linear_526_23289" x1="14.6487" y1="25.807" x2="17.857" y2="22.5988" gradientUnits="userSpaceOnUse">
<stop stop-color="#1A237E" stop-opacity="0.4"/>
<stop offset="1" stop-color="#1A237E" stop-opacity="0"/>
</linearGradient>
<radialGradient id="paint1_radial_526_23289" cx="0" cy="0" r="1" gradientUnits="userSpaceOnUse" gradientTransform="translate(3.26022 2.11641) scale(34.2543)">
<stop stop-color="white" stop-opacity="0.1"/>
<stop offset="1" stop-color="white" stop-opacity="0"/>
</radialGradient>
<clipPath id="clip0_526_23289">
<rect width="28" height="28" fill="white" transform="translate(0 0.208008)"/>
</clipPath>
</defs>
</svg>
