<svg width="23" height="25" viewBox="0 0 23 25" fill="none" xmlns="http://www.w3.org/2000/svg">
<g clip-path="url(#clip0_544_36266)">
<path d="M20.5359 12.7291H14.7859V14.4429H18.7282C18.1532 17.0142 16.3456 19.1566 13.964 20.0142L4.51746 10.1577C5.50323 7.15773 8.29593 5.01498 11.5001 5.01498C13.9644 5.01498 16.1828 6.30123 17.5786 8.27223L18.8112 7.15848C17.1675 4.84285 14.5394 3.30048 11.5001 3.30048C7.22859 3.30048 3.61436 6.47185 2.71089 10.6719L13.5532 21.9856C17.4956 20.957 20.5359 17.1856 20.5359 12.7284V12.7291ZM2.46436 12.8154C2.46436 15.2154 3.36782 17.5291 5.09282 19.3291C6.81782 21.1291 9.11782 22.0719 11.3352 22.0719L2.46436 12.8154Z" fill="white"/>
<path d="M11.5 0.729095C5.175 0.729095 0 6.1291 0 12.7291C0 19.3291 5.175 24.7291 11.5 24.7291C17.825 24.7291 23 19.3291 23 12.7291C23 6.1291 17.825 0.729095 11.5 0.729095ZM5.09234 19.4153C3.36734 17.6153 2.46388 15.2153 2.46388 12.9016L11.4173 22.1577C9.11734 22.0715 6.81734 21.215 5.09234 19.415V19.4153ZM13.4708 21.9016L2.71077 10.6718C3.61423 6.47185 7.22847 3.30047 11.5 3.30047C14.5392 3.30047 17.1673 4.84322 18.8108 7.15772L17.5781 8.27147C16.1827 6.30047 13.9642 5.01535 11.5 5.01535C8.29653 5.01535 5.58577 7.1581 4.51734 10.1581L13.9642 20.0153C16.3469 19.1581 18.1535 17.0153 18.7285 14.444H14.7861V12.7291H20.5361C20.5361 17.1863 17.4969 20.9577 13.4719 21.9005L13.4708 21.9016Z" fill="#663399"/>
</g>
<defs>
<clipPath id="clip0_544_36266">
<rect width="23" height="24" fill="white" transform="translate(0 0.729095)"/>
</clipPath>
</defs>
</svg>
