<svg width="23" height="24" viewBox="0 0 23 24" fill="none" xmlns="http://www.w3.org/2000/svg">
<g clip-path="url(#clip0_544_35362)">
<path d="M20.6019 4.58886C19.2116 2.78856 17.3187 1.44098 15.1625 0.716561C13.0063 -0.00786163 10.6837 -0.0765899 8.4885 0.519068C6.29325 1.11473 4.32395 2.34801 2.82965 4.06296C1.33536 5.7779 0.383204 7.89746 0.093599 10.1536C-0.196006 12.4097 0.189951 14.701 1.20266 16.7378C2.21537 18.7745 3.80933 20.4652 5.78297 21.596C7.7566 22.7268 10.0212 23.2469 12.2905 23.0906C14.5597 22.9342 16.7317 22.1084 18.5316 20.7176C23.5556 16.8349 24.4832 9.61472 20.6019 4.58886Z" fill="#FF6C37"/>
<path d="M15.3785 7.44547L10.5295 12.333L9.15918 10.9242C13.9317 6.15172 14.4104 6.58297 15.3785 7.44547Z" fill="white"/>
<path d="M10.5298 12.4667C10.4868 12.4656 10.4458 12.4486 10.4148 12.4189L9.03476 11.0389C9.00369 11.0067 8.98633 10.9637 8.98633 10.919C8.98633 10.8743 9.00369 10.8313 9.03476 10.7992C13.7401 6.09386 14.3823 6.31416 15.4938 7.32041C15.5315 7.3506 15.5527 7.3966 15.5513 7.44511C15.5585 7.49183 15.5405 7.53963 15.5035 7.56982L10.6545 12.4192C10.6203 12.4505 10.5761 12.467 10.5298 12.4667ZM9.39881 10.9239L10.5298 12.0548L15.1298 7.45482C14.9709 7.25577 14.7443 7.12227 14.4932 7.07984C14.2421 7.0374 13.9842 7.08902 13.7688 7.22482C12.9351 7.59857 11.5935 8.73886 9.39881 10.9239Z" fill="#FF6C37"/>
<path d="M11.9192 13.6842L10.5967 12.333L15.4457 7.54106C16.7492 8.81576 14.8132 10.9436 11.9192 13.6842Z" fill="white"/>
<path d="M11.9194 13.8567C11.877 13.8533 11.8368 13.8366 11.8044 13.8089L10.4532 12.4864C10.4329 12.4373 10.4329 12.3821 10.4532 12.333C10.4388 12.2927 10.4388 12.2485 10.4532 12.2083L15.3022 7.35921C15.3723 7.29345 15.4812 7.29345 15.5513 7.35921C15.8693 7.65175 16.0436 8.0679 16.0303 8.49951C16.0303 9.79326 14.5544 11.4223 12.0438 13.7992C12.0102 13.8324 11.9665 13.8528 11.9194 13.8567ZM10.846 12.333L11.9288 13.4154C13.8453 11.6042 15.676 9.7354 15.6853 8.4704C15.6958 8.20223 15.6071 7.9396 15.4363 7.73261L10.846 12.333Z" fill="#FF6C37"/>
<path d="M9.19764 10.953L10.1561 11.9114C10.1622 11.9168 10.1671 11.9234 10.1705 11.9309C10.1738 11.9383 10.1756 11.9464 10.1756 11.9545C10.1756 11.9627 10.1738 11.9708 10.1705 11.9782C10.1671 11.9856 10.1622 11.9923 10.1561 11.9977L8.13389 12.4289C8.05015 12.4469 7.96498 12.4066 7.92473 12.3312C7.88448 12.2557 7.89958 12.1623 7.96139 12.103L9.14014 10.9339C9.14014 10.9339 9.17859 10.9339 9.19764 10.953Z" fill="white"/>
<path d="M8.08572 12.6205C8.02182 12.6197 7.9592 12.6025 7.90384 12.5706C7.84847 12.5387 7.80221 12.4931 7.76947 12.4383C7.694 12.2956 7.72095 12.1199 7.83667 12.007L9.00572 10.8283C9.04788 10.7906 9.10244 10.7697 9.15899 10.7697C9.21554 10.7697 9.2701 10.7906 9.31226 10.8283L10.2707 11.7867C10.3275 11.8406 10.3498 11.9222 10.3282 11.9977C10.3067 12.0731 10.2434 12.1331 10.1654 12.1511L8.14322 12.5824L8.08572 12.6205ZM9.15917 11.1639L8.07637 12.2467L9.86858 11.8633L9.15917 11.1639Z" fill="#FF6C37"/>
<path d="M17.9567 4.75231C17.2631 4.08316 16.1735 4.05513 15.4461 4.68655C14.7187 5.31797 14.5944 6.40184 15.1608 7.18169C15.7271 7.96153 16.7948 8.18003 17.6214 7.68481L16.3179 6.38136L17.9567 4.75231Z" fill="white"/>
<path d="M16.6632 8.1254C16.2647 8.1203 15.8765 7.99804 15.547 7.77386C15.2176 7.54968 14.9613 7.2335 14.8103 6.86472C14.5012 6.11075 14.6723 5.24537 15.2415 4.66606C15.6252 4.28942 16.1414 4.07841 16.679 4.07841C17.2167 4.07841 17.7328 4.28942 18.1165 4.66606C18.1532 4.69697 18.174 4.74261 18.174 4.79076C18.1739 4.81446 18.1687 4.83785 18.1588 4.85937C18.1489 4.88088 18.1345 4.90001 18.1165 4.91547L16.564 6.38172L17.7428 7.54142C17.7619 7.55966 17.7762 7.58229 17.7845 7.60735C17.7929 7.63241 17.7949 7.65913 17.7906 7.68517C17.7877 7.7103 17.7794 7.73449 17.7662 7.75604C17.7529 7.77759 17.7351 7.79597 17.714 7.80987C17.3973 8.00781 17.0333 8.11703 16.66 8.12612L16.6632 8.1254ZM16.6632 4.40695C15.9804 4.41054 15.3695 4.82131 15.1132 5.44914C14.857 6.07697 14.9964 6.79967 15.4751 7.28195C15.9624 7.77178 16.697 7.91265 17.3342 7.63665L16.2032 6.5057C16.1655 6.47551 16.1443 6.42951 16.1457 6.381C16.1471 6.33608 16.168 6.29403 16.2032 6.266L17.6982 4.76129C17.401 4.53345 17.0377 4.40947 16.6632 4.40695Z" fill="#FF6C37"/>
<path d="M17.9854 4.78107L16.3467 6.41011L17.6501 7.71357C17.7813 7.63826 17.9035 7.54819 18.0142 7.44511C18.7243 6.69043 18.7114 5.51599 17.9854 4.78107Z" fill="white"/>
<path d="M17.621 7.85731C17.5995 7.85848 17.578 7.85479 17.5581 7.84651C17.5382 7.83824 17.5204 7.82559 17.506 7.80951L16.2026 6.50606C16.1649 6.47587 16.1437 6.42987 16.1451 6.38136C16.1465 6.33643 16.1674 6.29439 16.2026 6.26636L17.8316 4.66606C17.8474 4.64234 17.8687 4.62288 17.8938 4.60942C17.9189 4.59596 17.9469 4.58891 17.9754 4.58891C18.0039 4.58891 18.0319 4.59596 18.057 4.60942C18.082 4.62288 18.1034 4.64234 18.1191 4.66606C18.3104 4.85344 18.4623 5.0771 18.566 5.32393C18.6698 5.57077 18.7232 5.83582 18.7232 6.10356C18.7232 6.3713 18.6698 6.63635 18.566 6.88319C18.4623 7.13002 18.3104 7.35368 18.1191 7.54106C18.0063 7.66072 17.8772 7.76391 17.7357 7.84761C17.7 7.86557 17.6592 7.86905 17.621 7.85731ZM16.567 6.38172L17.6498 7.46451C17.7243 7.41231 17.7948 7.35465 17.8607 7.29201C18.1791 6.97457 18.3583 6.54376 18.3592 6.09422C18.3599 5.69191 18.2133 5.30327 17.947 5.00172L16.567 6.38172Z" fill="#FF6C37"/>
<path d="M15.5801 7.64672C15.3106 7.39372 14.8912 7.39372 14.6217 7.64672L10.2808 11.9779L10.9995 12.7064L15.5898 8.68136C15.7318 8.54588 15.8112 8.35792 15.809 8.1617C15.8069 7.96549 15.7242 7.77933 15.5801 7.64672Z" fill="white"/>
<path d="M10.9607 12.8792C10.9178 12.8782 10.8768 12.8611 10.8457 12.8314L10.1173 12.103C10.0862 12.0708 10.0688 12.0278 10.0688 11.9831C10.0688 11.9384 10.0862 11.8954 10.1173 11.8633L14.4585 7.54106C14.8028 7.1975 15.3606 7.1975 15.7045 7.54106C15.877 7.71356 15.9704 7.94895 15.9632 8.1926C15.9532 8.43482 15.8461 8.66267 15.666 8.8251L11.0757 12.8501C11.0423 12.8738 11.0013 12.8842 10.9607 12.8792ZM10.4529 11.9779L10.932 12.4667L15.436 8.54695C15.5474 8.44992 15.6139 8.3112 15.6182 8.1635C15.6225 8.01579 15.5643 7.87132 15.4554 7.7707C15.2459 7.56226 14.9078 7.56226 14.6982 7.7707L10.4529 11.9779Z" fill="#FF6C37"/>
<path d="M6.91675 16.9136C6.90449 16.9302 6.89788 16.9504 6.89788 16.9711C6.89788 16.9918 6.90449 17.0119 6.91675 17.0286L7.1083 17.8623C7.12483 17.9619 7.07703 18.061 6.98898 18.1139C6.94629 18.1388 6.89677 18.1496 6.84755 18.1447C6.79834 18.1397 6.75198 18.1192 6.71514 18.0862L5.40234 16.8212L9.49455 12.6967H10.913L11.8715 13.6551C10.3763 14.9623 8.7093 16.0586 6.91675 16.9136Z" fill="white"/>
<path d="M6.83083 18.3223C6.7223 18.3202 6.61521 18.2756 6.54333 18.1976L5.28804 16.9423C5.2503 16.9121 5.2291 16.8661 5.23054 16.8176C5.23197 16.7727 5.25282 16.7306 5.28804 16.7026L9.40863 12.5723C9.4317 12.5478 9.46186 12.5311 9.49488 12.5245H10.9227C10.9599 12.5114 11.0005 12.5114 11.0377 12.5245L11.9961 13.483C12.0331 13.5171 12.0511 13.5674 12.0439 13.617C12.0446 13.6408 12.0398 13.6645 12.0298 13.6861C12.0198 13.7077 12.005 13.7268 11.9864 13.7417L11.9099 13.8089C10.4087 15.0604 8.75722 16.1195 6.99363 16.9617L7.17583 17.738C7.18992 17.7978 7.19046 17.8601 7.17741 17.9202C7.16437 17.9804 7.13807 18.0368 7.10043 18.0855C7.06279 18.1341 7.01476 18.1738 6.95985 18.2015C6.90495 18.2292 6.84454 18.2443 6.78304 18.2458L6.83083 18.3223ZM5.66179 16.8176L6.79238 17.9579C6.80292 17.9673 6.81654 17.9725 6.83065 17.9725C6.84477 17.9725 6.85839 17.9673 6.86893 17.9579C6.87598 17.9481 6.87977 17.9364 6.87977 17.9243C6.87977 17.9122 6.87598 17.9005 6.86893 17.8907L6.67738 17.057C6.64647 16.9337 6.70613 16.8054 6.82113 16.7504C8.5373 15.9194 10.1463 14.8832 11.6127 13.6645L10.8267 12.8785H9.54268L5.66179 16.8176Z" fill="#FF6C37"/>
<path d="M4.41559 17.8048L5.37404 16.8464L6.84999 18.3223L4.5022 18.1595C4.41954 18.1534 4.34946 18.0948 4.3297 18.0136C4.30993 17.9324 4.34479 17.8483 4.41595 17.8052L4.41559 17.8048Z" fill="white"/>
<path d="M6.87847 18.4661L4.54002 18.3033C4.4013 18.2903 4.28199 18.1955 4.23312 18.0686C4.18424 17.9417 4.21407 17.7912 4.31002 17.6898L5.26848 16.7314C5.30064 16.7003 5.34361 16.6829 5.38833 16.6829C5.43305 16.6829 5.47602 16.7003 5.50818 16.7314L6.97443 18.1976C7.01612 18.2551 7.01612 18.332 6.97443 18.3892C6.95215 18.4251 6.91837 18.4524 6.87847 18.4661ZM4.54002 17.9295L6.45657 18.0542L5.40252 17.067L4.54002 17.9295Z" fill="#FF6C37"/>
<path d="M11.0473 12.8124L9.11133 13.1096L10.2326 11.998L11.0473 12.8124Z" fill="white"/>
<path d="M9.11113 13.2911C9.04537 13.2929 8.98535 13.2551 8.95768 13.1951C8.93727 13.1674 8.92627 13.1338 8.92627 13.0993C8.92627 13.0649 8.93727 13.0313 8.95768 13.0036L10.0692 11.8823C10.1393 11.8166 10.2482 11.8166 10.3183 11.8823L11.1333 12.6967C11.1496 12.7225 11.1583 12.7524 11.1583 12.7829C11.1583 12.8134 11.1496 12.8433 11.1333 12.8692C11.1253 12.9006 11.1084 12.9291 11.0847 12.9512C11.0609 12.9734 11.0313 12.9882 10.9993 12.9939L9.08274 13.2911H9.11113ZM10.2324 12.2464L9.60959 12.8692L10.683 12.7064L10.2324 12.2464Z" fill="#FF6C37"/>
<path d="M11.0473 12.8117L9.69603 12.9842C9.65987 12.9924 9.62203 12.9887 9.58811 12.9737C9.5542 12.9587 9.52602 12.9332 9.50775 12.9009C9.48948 12.8687 9.48209 12.8314 9.48668 12.7946C9.49127 12.7578 9.5076 12.7234 9.53324 12.6967L10.2329 11.9969L11.0473 12.8117Z" fill="white"/>
<path d="M9.65739 13.1667C9.52981 13.1656 9.41302 13.0959 9.35084 12.9845C9.31425 12.9189 9.30006 12.8432 9.31044 12.7688C9.32082 12.6944 9.35519 12.6254 9.40834 12.5723L10.108 11.8726C10.1781 11.8068 10.287 11.8068 10.3571 11.8726L11.1718 12.6873C11.196 12.7103 11.2131 12.7398 11.2209 12.7722C11.2287 12.8047 11.2269 12.8387 11.2158 12.8701C11.2046 12.9016 11.1846 12.9292 11.1581 12.9495C11.1316 12.9698 11.0998 12.9819 11.0665 12.9845L9.72495 13.157L9.65739 13.1667ZM9.65739 12.812L10.6733 12.6873L10.223 12.237L9.64805 12.812H9.65739ZM17.9949 5.88327C17.9768 5.85303 17.9483 5.83047 17.9147 5.81987C17.8811 5.80927 17.8448 5.81137 17.8127 5.82577C17.7968 5.83381 17.7827 5.84494 17.7713 5.85853C17.7598 5.87211 17.7511 5.88785 17.7458 5.90483C17.7351 5.93897 17.7387 5.97599 17.7552 6.00797C17.8224 6.1492 17.8037 6.31631 17.7074 6.43922C17.6822 6.46294 17.6715 6.49564 17.6715 6.53014C17.6718 6.56385 17.6846 6.59623 17.7074 6.62106C17.732 6.63077 17.7593 6.63077 17.7839 6.62106C17.8063 6.62667 17.8297 6.62605 17.8517 6.61927C17.8737 6.61249 17.8934 6.59981 17.9086 6.58261C17.9876 6.48599 18.0375 6.36902 18.0528 6.24521C18.0681 6.1214 18.048 5.99616 17.9949 5.88327Z" fill="#FF6C37"/>
</g>
<defs>
<clipPath id="clip0_544_35362">
<rect width="23" height="23" fill="white" transform="translate(0 0.11853)"/>
</clipPath>
</defs>
</svg>
