<svg width="25" height="26" viewBox="0 0 25 26" fill="none" xmlns="http://www.w3.org/2000/svg">
<g clip-path="url(#clip0_544_35467)">
<path d="M24.5281 11.4788L13.6133 0.563911C13.4638 0.414382 13.2864 0.295766 13.091 0.214837C12.8957 0.133909 12.6864 0.0922546 12.475 0.0922546C12.2636 0.0922546 12.0542 0.133909 11.8589 0.214837C11.6636 0.295766 11.4862 0.414382 11.3367 0.563911L9.07107 2.82954L11.9461 5.70454C12.6148 5.47016 13.3804 5.63032 13.9133 6.16313C14.1669 6.41722 14.344 6.73752 14.4242 7.08744C14.5045 7.43737 14.4847 7.80281 14.3672 8.14204L17.1383 10.9131C17.8086 10.6819 18.582 10.8311 19.1172 11.3678C19.2951 11.5458 19.4362 11.757 19.5324 11.9895C19.6287 12.222 19.6782 12.4712 19.6782 12.7228C19.6781 12.9744 19.6285 13.2236 19.5322 13.456C19.4359 13.6885 19.2947 13.8997 19.1168 14.0776C18.9388 14.2555 18.7276 14.3966 18.4951 14.4929C18.2626 14.5891 18.0134 14.6386 17.7618 14.6386C17.5102 14.6386 17.261 14.589 17.0286 14.4926C16.7961 14.3963 16.5849 14.2551 16.407 14.0772C15.8445 13.5147 15.7054 12.6866 15.9898 11.9936L13.4054 9.40922V16.21C13.593 16.3028 13.7645 16.4252 13.9133 16.5725C14.0912 16.7504 14.2323 16.9616 14.3286 17.194C14.4248 17.4265 14.4744 17.6756 14.4744 17.9272C14.4744 18.1788 14.4248 18.4279 14.3286 18.6603C14.2323 18.8928 14.0912 19.104 13.9133 19.2819C13.7354 19.4598 13.5242 19.6009 13.2917 19.6972C13.0593 19.7935 12.8102 19.843 12.5586 19.843C12.307 19.843 12.0579 19.7935 11.8254 19.6972C11.593 19.6009 11.3818 19.4598 11.2039 19.2819C11.0258 19.1041 10.8845 18.8929 10.7881 18.6605C10.6917 18.428 10.642 18.1788 10.642 17.9272C10.642 17.6755 10.6917 17.4264 10.7881 17.1939C10.8845 16.9614 11.0258 16.7503 11.2039 16.5725C11.389 16.3881 11.5945 16.2483 11.8312 16.1545V9.29047C11.6031 9.19672 11.389 9.05844 11.2039 8.87251C10.9349 8.60383 10.752 8.26112 10.6785 7.88809C10.605 7.51505 10.6443 7.12859 10.7914 6.77797L7.95545 3.9436L0.471071 11.4202C0.321425 11.5696 0.202709 11.7471 0.121712 11.9425C0.0407142 12.1379 -0.000976562 12.3473 -0.000976562 12.5588C-0.000976562 12.7703 0.0407142 12.9798 0.121712 13.1752C0.202709 13.3705 0.321425 13.548 0.471071 13.6975L11.3867 24.6116C11.5361 24.7611 11.7136 24.8797 11.9089 24.9606C12.1042 25.0416 12.3136 25.0832 12.525 25.0832C12.7364 25.0832 12.9457 25.0416 13.141 24.9606C13.3364 24.8797 13.5138 24.7611 13.6633 24.6116L24.5281 13.7639C24.6777 13.6144 24.7965 13.4369 24.8775 13.2416C24.9585 13.0462 25.0002 12.8367 25.0002 12.6252C25.0002 12.4137 24.9585 12.2043 24.8775 12.0089C24.7965 11.8135 24.6777 11.636 24.5281 11.4866" fill="#F03C2E"/>
</g>
<defs>
<clipPath id="clip0_544_35467">
<rect width="25" height="25" fill="white" transform="translate(0 0.092041)"/>
</clipPath>
</defs>
</svg>
