<svg width="25" height="26" viewBox="0 0 25 26" fill="none" xmlns="http://www.w3.org/2000/svg">
<g clip-path="url(#clip0_531_23722)">
<path fill-rule="evenodd" clip-rule="evenodd" d="M21.9196 5.25071L14.025 0.564777C13.5664 0.292457 13.0428 0.148743 12.5094 0.148743C11.976 0.148743 11.4525 0.292457 10.9938 0.564777L3.0977 5.25071C2.62841 5.53073 2.24009 5.92808 1.97092 6.40367C1.70176 6.87927 1.56102 7.41674 1.56254 7.96321V17.3351C1.55964 17.8803 1.69837 18.4169 1.96515 18.8924C2.23192 19.3679 2.6176 19.7659 3.08442 20.0476L10.979 24.7335C11.4376 25.0058 11.9612 25.1496 12.4946 25.1496C13.028 25.1496 13.5515 25.0058 14.0102 24.7335L21.9063 20.0476C22.3731 19.7659 22.7588 19.3679 23.0256 18.8924C23.2923 18.4169 23.4311 17.8803 23.4282 17.3351V7.96321C23.4325 7.41936 23.2959 6.88365 23.0317 6.40828C22.7674 5.93291 22.3846 5.53411 21.9204 5.25071H21.9196ZM15.8047 19.8851V20.557C15.804 20.6413 15.7602 20.7187 15.6891 20.764L15.2891 20.9929C15.2266 21.0257 15.1735 20.9929 15.1735 20.9046V20.2429C14.8911 20.3817 14.5679 20.413 14.2641 20.3312C14.2157 20.2984 14.1969 20.2359 14.2204 20.1749L14.3633 19.5656C14.3758 19.514 14.4024 19.4679 14.443 19.4327C14.4544 19.4215 14.4676 19.4122 14.4821 19.4054C14.5022 19.3976 14.5245 19.3976 14.5446 19.4054C14.8234 19.4803 15.1205 19.4427 15.3719 19.3007C15.5505 19.2135 15.7022 19.0796 15.8108 18.9131C15.9195 18.7467 15.9811 18.554 15.9891 18.3554C15.9891 18.0132 15.8016 17.871 15.3485 17.8671C14.775 17.8671 14.2547 17.7577 14.2313 16.9109C14.2446 16.1788 14.5844 15.4913 15.1579 15.0359V14.3546C15.1571 14.2765 15.2016 14.1984 15.2735 14.1452L15.6594 13.8999C15.7219 13.8671 15.775 13.8999 15.775 13.9906V14.6718C16.0115 14.5643 16.2754 14.5327 16.5305 14.5812C16.5852 14.6124 16.6071 14.6812 16.5805 14.7374L16.4454 15.3413C16.4336 15.3882 16.4102 15.4296 16.3766 15.4624C16.3657 15.4742 16.3532 15.4843 16.3375 15.4937C16.3219 15.5031 16.2985 15.4999 16.2797 15.4937C16.031 15.4392 15.7709 15.4817 15.5524 15.6124C15.393 15.6812 15.2565 15.7939 15.1588 15.9373C15.0612 16.0808 15.0064 16.2491 15.0008 16.4226C15.0008 16.7312 15.1633 16.8249 15.7094 16.8367C16.4399 16.8367 16.754 17.1671 16.7625 17.9007C16.7485 18.6687 16.3977 19.3913 15.8032 19.8773L15.8047 19.8851ZM19.9399 18.7523C19.9493 18.8101 19.9258 18.8695 19.879 18.9038L17.8907 20.1163C17.8719 20.132 17.8438 20.1343 17.8227 20.1218C17.8016 20.1093 17.7915 20.0827 17.7969 20.0593V19.5437C17.7993 19.4874 17.836 19.4374 17.8875 19.4171L19.8532 18.2398C19.8719 18.2242 19.9 18.2218 19.9211 18.2343C19.9422 18.2468 19.9524 18.2734 19.9469 18.2968V18.7515L19.9399 18.7523ZM21.3188 7.22728L13.8485 11.8413C12.9165 12.3929 12.2313 12.996 12.2313 14.1179V23.3195C12.2313 23.9913 12.5071 24.4132 12.9204 24.5538C12.7838 24.5793 12.6452 24.5932 12.5063 24.5952C12.0675 24.5943 11.6371 24.4753 11.2602 24.2507L3.36567 19.5656C2.57817 19.0945 2.11098 18.2468 2.11411 17.3367V7.96321C2.10942 7.05071 2.57817 6.20384 3.36567 5.7304L11.2602 1.04446C12.0258 0.59134 12.9758 0.59134 13.7415 1.04446L21.636 5.7304C22.2868 6.12415 22.7297 6.78509 22.8485 7.52728C22.5922 6.97025 22.0024 6.82415 21.3157 7.21868H21.318L21.3188 7.22728Z" fill="#1B1B1F"/>
</g>
<defs>
<clipPath id="clip0_531_23722">
<rect width="25" height="25" fill="white" transform="translate(0 0.14917)"/>
</clipPath>
</defs>
</svg>
