<svg width="27" height="27" viewBox="0 0 27 27" fill="none" xmlns="http://www.w3.org/2000/svg">
<g clip-path="url(#clip0_517_25561)">
<mask id="mask0_517_25561" style="mask-type:luminance" maskUnits="userSpaceOnUse" x="3" y="0" width="21" height="26">
<path d="M3.96582 0.299194H23.0557V25.8929H3.96582V0.299194Z" fill="white"/>
</mask>
<g mask="url(#mask0_517_25561)">
<path fill-rule="evenodd" clip-rule="evenodd" d="M4.4511 14.0508C4.49329 14.7617 5.23157 14.4367 5.56907 14.2133C5.88547 13.9898 5.99094 14.1726 6.01204 13.7461C6.03313 13.4617 6.05422 13.1976 6.05422 12.9133C5.56907 12.8726 5.04172 12.9742 4.64094 13.2586C4.4511 13.4008 4.05032 13.8679 4.4511 14.0508Z" fill="#F6D2A2"/>
</g>
<mask id="mask1_517_25561" style="mask-type:luminance" maskUnits="userSpaceOnUse" x="3" y="0" width="21" height="26">
<path d="M3.96582 0.299194H23.0557V25.8929H3.96582V0.299194Z" fill="white"/>
</mask>
<g mask="url(#mask1_517_25561)">
<path d="M4.85174 14.5586C4.70408 14.5586 4.42986 14.4976 4.38767 14.0914C4.26111 14.0101 4.21892 13.9086 4.21892 13.8476C4.19783 13.6039 4.47205 13.3195 4.6197 13.2179C4.9572 12.9742 5.40017 12.8523 5.86424 12.8523H6.13845V12.9133C6.15955 13.1367 6.13845 13.3601 6.11736 13.5633C6.11736 13.6242 6.11736 13.6851 6.09627 13.7461C6.07517 14.0508 6.01189 14.0914 5.86424 14.1523C5.80095 14.1726 5.73767 14.1929 5.6322 14.2742C5.52674 14.3351 5.16814 14.5586 4.85174 14.5586ZM5.86424 12.9742C5.42127 12.9742 5.02049 13.0961 4.70408 13.3195C4.55642 13.4211 4.34549 13.6648 4.36658 13.8273C4.36658 13.8883 4.40877 13.9492 4.49314 13.9898L4.53533 14.0101V14.0508C4.55642 14.3758 4.72517 14.4164 4.85174 14.4164C5.06267 14.4164 5.35799 14.2742 5.54783 14.1523C5.67439 14.0711 5.75877 14.0508 5.82205 14.0304C5.92752 13.9898 5.94861 13.9898 5.9697 13.7461C5.9697 13.6851 5.9697 13.6242 5.9908 13.5633C6.01189 13.3804 6.01189 13.1773 6.01189 12.9945C5.94861 12.9742 5.90642 12.9742 5.86424 12.9742Z" fill="black"/>
</g>
<mask id="mask2_517_25561" style="mask-type:luminance" maskUnits="userSpaceOnUse" x="3" y="0" width="21" height="26">
<path d="M3.96582 0.299194H23.0557V25.8929H3.96582V0.299194Z" fill="white"/>
</mask>
<g mask="url(#mask2_517_25561)">
<path fill-rule="evenodd" clip-rule="evenodd" d="M4.45117 14.0508C4.55664 14.0101 4.6832 13.9898 4.74648 13.8883L4.45117 14.0508Z" fill="#C6B198"/>
</g>
<mask id="mask3_517_25561" style="mask-type:luminance" maskUnits="userSpaceOnUse" x="3" y="0" width="21" height="26">
<path d="M3.96582 0.299194H23.0557V25.8929H3.96582V0.299194Z" fill="white"/>
</mask>
<g mask="url(#mask3_517_25561)">
<path d="M4.45095 14.1117C4.42986 14.1117 4.38767 14.0914 4.38767 14.0711C4.36658 14.0304 4.38767 13.9898 4.42986 13.9898C4.45095 13.9898 4.47205 13.9695 4.47205 13.9695C4.55642 13.9289 4.64079 13.9086 4.68298 13.8476C4.70408 13.8273 4.74626 13.807 4.78845 13.8273C4.80955 13.8476 4.83064 13.8883 4.80954 13.9289C4.72517 14.0304 4.6197 14.0711 4.53533 14.0914L4.49314 14.1117H4.45095Z" fill="black"/>
</g>
<mask id="mask4_517_25561" style="mask-type:luminance" maskUnits="userSpaceOnUse" x="3" y="0" width="21" height="26">
<path d="M3.96582 0.299194H23.0557V25.8929H3.96582V0.299194Z" fill="white"/>
</mask>
<g mask="url(#mask4_517_25561)">
<path fill-rule="evenodd" clip-rule="evenodd" d="M6.18076 5.45857C3.31201 4.68669 5.44248 1.17263 7.7417 2.61482L6.18076 5.45857Z" fill="#6AD7E5"/>
</g>
<mask id="mask5_517_25561" style="mask-type:luminance" maskUnits="userSpaceOnUse" x="3" y="0" width="21" height="26">
<path d="M3.96582 0.299194H23.0557V25.8929H3.96582V0.299194Z" fill="white"/>
</mask>
<g mask="url(#mask5_517_25561)">
<path d="M6.22305 5.53982L6.15977 5.51951C4.6832 5.11326 4.7043 4.09764 4.74649 3.79295C4.85195 3.02107 5.61133 2.20857 6.62383 2.20857C7.02461 2.20857 7.4043 2.33045 7.78399 2.5742L7.84727 2.61482L6.22305 5.53982ZM6.62383 2.35076C5.67461 2.35076 4.97852 3.10232 4.87305 3.81326C4.76758 4.54451 5.23164 5.11326 6.13867 5.37732L7.63633 2.63513C7.31992 2.45232 6.98242 2.35076 6.62383 2.35076Z" fill="black"/>
</g>
<mask id="mask6_517_25561" style="mask-type:luminance" maskUnits="userSpaceOnUse" x="3" y="0" width="21" height="26">
<path d="M3.96582 0.299194H23.0557V25.8929H3.96582V0.299194Z" fill="white"/>
</mask>
<g mask="url(#mask6_517_25561)">
<path fill-rule="evenodd" clip-rule="evenodd" d="M18.9004 2.35075C21.1574 0.827313 23.2246 4.28044 20.5879 5.15388L18.9004 2.35075Z" fill="#6AD7E5"/>
</g>
<mask id="mask7_517_25561" style="mask-type:luminance" maskUnits="userSpaceOnUse" x="3" y="0" width="21" height="26">
<path d="M3.96582 0.299194H23.0557V25.8929H3.96582V0.299194Z" fill="white"/>
</mask>
<g mask="url(#mask7_517_25561)">
<path d="M20.5667 5.23514L18.8159 2.33045L18.8792 2.28983C19.28 2.02576 19.6808 1.88358 20.0815 1.88358C21.0519 1.88358 21.748 2.65545 21.8956 3.40701C21.9589 3.7117 22.0222 4.74764 20.63 5.19451L20.5667 5.23514ZM19.0058 2.39139L20.63 5.09295C21.4526 4.80858 21.8745 4.1992 21.7479 3.46795C21.6214 2.77733 20.9675 2.06639 20.0815 2.06639C19.7229 2.04608 19.3644 2.14764 19.0058 2.39139Z" fill="black"/>
</g>
<mask id="mask8_517_25561" style="mask-type:luminance" maskUnits="userSpaceOnUse" x="3" y="0" width="21" height="26">
<path d="M3.96582 0.299194H23.0557V25.8929H3.96582V0.299194Z" fill="white"/>
</mask>
<g mask="url(#mask8_517_25561)">
<path fill-rule="evenodd" clip-rule="evenodd" d="M19.4063 22.907C19.9758 23.2523 21.0305 24.2883 20.1656 24.7961C19.343 25.5273 18.8789 23.9836 18.1406 23.7804C18.457 23.3742 18.8578 22.9883 19.4063 22.907Z" fill="#F6D2A2"/>
</g>
<mask id="mask9_517_25561" style="mask-type:luminance" maskUnits="userSpaceOnUse" x="3" y="0" width="21" height="26">
<path d="M3.96582 0.299194H23.0557V25.8929H3.96582V0.299194Z" fill="white"/>
</mask>
<g mask="url(#mask9_517_25561)">
<path d="M19.7228 25.0601C19.3853 25.0601 19.0899 24.7351 18.8368 24.4304C18.6048 24.1867 18.3728 23.9226 18.1196 23.8414L18.0142 23.8211L18.0774 23.7398C18.3306 23.3945 18.7524 22.9476 19.3853 22.8461H19.4063L19.4274 22.8664C19.786 23.0898 20.5665 23.7195 20.5454 24.3086C20.5454 24.532 20.4188 24.7148 20.1868 24.857C20.0392 24.9992 19.8915 25.0601 19.7228 25.0601ZM18.2462 23.7398C18.4993 23.8414 18.7103 24.1054 18.9212 24.3289C19.1743 24.6336 19.4274 24.8976 19.7017 24.8976C19.8282 24.8976 19.9548 24.8367 20.0813 24.7148H20.1024C20.2923 24.5929 20.3978 24.4508 20.3978 24.2679C20.3978 23.8008 19.786 23.2117 19.3642 22.9476C18.9845 23.0492 18.6048 23.2929 18.2462 23.7398ZM20.1657 24.857C20.1446 24.857 20.1235 24.8367 20.1024 24.8164C20.0603 24.7351 20.0181 24.6336 19.997 24.5523C19.9337 24.3898 19.8704 24.2273 19.7438 24.1054C19.7228 24.0851 19.7228 24.0445 19.7438 24.0039C19.7649 23.9836 19.8071 23.9836 19.8493 24.0039C19.997 24.1461 20.0813 24.3289 20.1446 24.5117L20.2501 24.7554C20.2712 24.7961 20.2501 24.8367 20.229 24.857H20.1657Z" fill="black"/>
</g>
<mask id="mask10_517_25561" style="mask-type:luminance" maskUnits="userSpaceOnUse" x="3" y="0" width="21" height="26">
<path d="M3.96582 0.299194H23.0557V25.8929H3.96582V0.299194Z" fill="white"/>
</mask>
<g mask="url(#mask10_517_25561)">
<path fill-rule="evenodd" clip-rule="evenodd" d="M9.11277 24.0851C8.43777 24.1867 8.05809 24.7758 7.48856 25.0804C6.96121 25.3851 6.75027 24.9789 6.70809 24.8976C6.62371 24.857 6.62371 24.9383 6.49715 24.8164C6.01199 24.0648 7.0034 23.5164 7.53074 23.1508C8.26902 22.9883 8.73309 23.5976 9.11277 24.0851Z" fill="#F6D2A2"/>
</g>
<mask id="mask11_517_25561" style="mask-type:luminance" maskUnits="userSpaceOnUse" x="3" y="0" width="21" height="26">
<path d="M3.96582 0.299194H23.0557V25.8929H3.96582V0.299194Z" fill="white"/>
</mask>
<g mask="url(#mask11_517_25561)">
<path d="M7.1301 25.2429C6.85588 25.2429 6.70822 25.0195 6.66603 24.9383H6.64494C6.58166 24.9383 6.53947 24.9179 6.4551 24.8367V24.8164C5.99103 24.1054 6.7926 23.557 7.31994 23.1914L7.50978 23.0695H7.55197C7.63635 23.0492 7.69963 23.0492 7.784 23.0492C8.41681 23.0492 8.8176 23.5773 9.1551 24.0039L9.26056 24.1461L9.134 24.1664C8.73322 24.2273 8.43791 24.4711 8.1426 24.7148C7.95275 24.8773 7.76291 25.0195 7.55197 25.1414C7.38322 25.2023 7.25666 25.2429 7.1301 25.2429ZM6.66603 24.8164C6.68713 24.8164 6.70822 24.8164 6.75041 24.8367H6.7715L6.7926 24.857C6.83478 24.9179 6.94025 25.1008 7.15119 25.1008C7.25666 25.1008 7.36213 25.0601 7.4676 24.9992C7.67853 24.8976 7.86838 24.7351 8.03713 24.5929C8.31135 24.3695 8.60666 24.1258 8.98635 24.0242C8.66994 23.6179 8.29025 23.1711 7.76291 23.1711C7.69963 23.1711 7.63635 23.1711 7.57306 23.1914L7.40431 23.3133C6.85588 23.6789 6.18088 24.1461 6.58166 24.7554C6.60275 24.7961 6.62385 24.8164 6.66603 24.8164ZM6.70822 24.9586C6.66603 24.9586 6.62385 24.9179 6.64494 24.8773C6.66603 24.6742 6.7715 24.532 6.87697 24.3695C6.94025 24.2883 6.98244 24.207 7.02463 24.1258C7.04572 24.0851 7.08791 24.0851 7.109 24.0851C7.15119 24.1054 7.15119 24.1461 7.15119 24.1664C7.109 24.2679 7.04572 24.3492 6.98244 24.4304C6.87697 24.5726 6.7926 24.6945 6.7715 24.857C6.7715 24.9383 6.75041 24.9586 6.70822 24.9586Z" fill="black"/>
</g>
<mask id="mask12_517_25561" style="mask-type:luminance" maskUnits="userSpaceOnUse" x="3" y="0" width="21" height="26">
<path d="M3.96582 0.299194H23.0557V25.8929H3.96582V0.299194Z" fill="white"/>
</mask>
<g mask="url(#mask12_517_25561)">
<path fill-rule="evenodd" clip-rule="evenodd" d="M6.30707 4.50388C5.92738 4.32106 5.65317 4.057 5.8852 3.63044C6.09613 3.2445 6.49692 3.28513 6.8766 3.46794L6.30707 4.50388ZM19.9969 4.13825C20.3766 3.95544 20.6508 3.69138 20.4188 3.26481C20.2079 2.87888 19.8071 2.9195 19.4274 3.10231L19.9969 4.13825Z" fill="black"/>
</g>
<mask id="mask13_517_25561" style="mask-type:luminance" maskUnits="userSpaceOnUse" x="3" y="0" width="21" height="26">
<path d="M3.96582 0.299194H23.0557V25.8929H3.96582V0.299194Z" fill="white"/>
</mask>
<g mask="url(#mask13_517_25561)">
<path fill-rule="evenodd" clip-rule="evenodd" d="M22.5914 13.9492C22.5492 14.6601 21.8109 14.3351 21.4734 14.1117C21.157 13.8883 21.0516 14.0711 21.0305 13.6445C21.0094 13.3601 20.9883 13.0961 20.9883 12.8117C21.4734 12.7711 22.0008 12.8726 22.4016 13.157C22.6125 13.3195 22.9922 13.7664 22.5914 13.9492Z" fill="#F6D2A2"/>
</g>
<mask id="mask14_517_25561" style="mask-type:luminance" maskUnits="userSpaceOnUse" x="3" y="0" width="21" height="26">
<path d="M3.96582 0.299194H23.0557V25.8929H3.96582V0.299194Z" fill="white"/>
</mask>
<g mask="url(#mask14_517_25561)">
<path d="M22.212 14.457C21.8956 14.457 21.537 14.2336 21.4315 14.1726C21.326 14.1117 21.2627 14.0711 21.1995 14.0508C21.0307 13.9898 20.9885 13.9492 20.9674 13.6445C20.9674 13.5836 20.9674 13.5226 20.9463 13.4617C20.9252 13.2586 20.9041 13.0351 20.9252 12.8117V12.7508H21.1995C21.6635 12.7508 22.1065 12.8726 22.444 13.1164C22.5916 13.2179 22.8659 13.5023 22.8448 13.7461C22.8448 13.8273 22.8026 13.9289 22.676 13.9898C22.6338 14.3961 22.3596 14.457 22.212 14.457ZM21.0518 12.8929C21.0518 13.0758 21.0518 13.2789 21.0729 13.4617C21.0729 13.5226 21.0729 13.5836 21.094 13.6445C21.1151 13.8883 21.1362 13.8883 21.2416 13.9289C21.3049 13.9492 21.3893 13.9898 21.5159 14.0508C21.7057 14.1726 22.001 14.3148 22.212 14.3148C22.3385 14.3148 22.5073 14.2742 22.5284 13.9492V13.9086L22.5706 13.8883C22.6549 13.8476 22.6971 13.807 22.6971 13.7258C22.7182 13.5633 22.5073 13.3195 22.3596 13.2179C22.0432 12.9945 21.6213 12.8726 21.1995 12.8726C21.1573 12.8929 21.1151 12.8929 21.0518 12.8929Z" fill="black"/>
</g>
<mask id="mask15_517_25561" style="mask-type:luminance" maskUnits="userSpaceOnUse" x="3" y="0" width="21" height="26">
<path d="M3.96582 0.299194H23.0557V25.8929H3.96582V0.299194Z" fill="white"/>
</mask>
<g mask="url(#mask15_517_25561)">
<path fill-rule="evenodd" clip-rule="evenodd" d="M22.5917 13.9492C22.4862 13.9086 22.3597 13.8883 22.2964 13.7867L22.5917 13.9492Z" fill="#C6B198"/>
</g>
<mask id="mask16_517_25561" style="mask-type:luminance" maskUnits="userSpaceOnUse" x="3" y="0" width="21" height="26">
<path d="M3.96582 0.299194H23.0557V25.8929H3.96582V0.299194Z" fill="white"/>
</mask>
<g mask="url(#mask16_517_25561)">
<path d="M22.5916 14.0304H22.5705L22.5283 14.0101C22.4228 13.9695 22.3174 13.9492 22.2541 13.8476C22.233 13.8273 22.233 13.7664 22.2752 13.7461C22.2963 13.7258 22.3596 13.7258 22.3807 13.7664C22.4228 13.8273 22.5072 13.8476 22.5916 13.8883C22.6127 13.8883 22.6338 13.9086 22.6338 13.9086C22.676 13.9289 22.6971 13.9695 22.676 13.9898C22.6549 14.0101 22.6127 14.0304 22.5916 14.0304Z" fill="black"/>
</g>
<mask id="mask17_517_25561" style="mask-type:luminance" maskUnits="userSpaceOnUse" x="3" y="0" width="21" height="26">
<path d="M3.96582 0.299194H23.0557V25.8929H3.96582V0.299194Z" fill="white"/>
</mask>
<g mask="url(#mask17_517_25561)">
<path fill-rule="evenodd" clip-rule="evenodd" d="M13.2472 0.908569C16.116 0.908569 18.7949 1.29451 20.2081 3.95544C21.4738 6.92107 21.0097 10.1304 21.2206 13.2789C21.3894 15.9804 21.748 19.0883 20.4613 21.5867C19.0902 24.207 15.673 24.8773 12.8675 24.7758C10.6527 24.6945 7.99487 24.0039 6.72924 22.0539C5.27377 19.7789 5.94877 16.3867 6.05424 13.8476C6.1808 10.8414 5.21049 7.81482 6.24409 4.88982C7.27768 1.82263 10.1464 1.13201 13.2472 0.908569Z" fill="#6AD7E5"/>
</g>
<mask id="mask18_517_25561" style="mask-type:luminance" maskUnits="userSpaceOnUse" x="3" y="0" width="21" height="26">
<path d="M3.96582 0.299194H23.0557V25.8929H3.96582V0.299194Z" fill="white"/>
</mask>
<g mask="url(#mask18_517_25561)">
<path d="M13.3524 24.857H12.825C11.9602 24.8367 10.6524 24.6945 9.36565 24.1867C8.12112 23.6992 7.21409 23.0086 6.62346 22.0945C5.44221 20.2461 5.65315 17.707 5.84299 15.4523C5.88518 14.8836 5.92737 14.3554 5.94846 13.8476C5.99065 12.7914 5.90628 11.6945 5.80081 10.6586C5.63206 8.74919 5.46331 6.77888 6.11721 4.8695C6.62346 3.44763 7.53049 2.432 8.90159 1.782C9.97737 1.27419 11.3063 0.989815 13.2047 0.847628C16.0313 0.827315 18.8367 1.21325 20.25 3.91481C21.1782 6.08825 21.1782 8.42419 21.1992 10.6789C21.1992 11.532 21.1992 12.4054 21.2625 13.2586C21.2836 13.5226 21.3047 13.7867 21.3047 14.0508C21.4735 16.5289 21.6633 19.332 20.4821 21.607C19.8914 22.7648 18.8578 23.6179 17.4446 24.1664C16.3055 24.6133 14.8711 24.857 13.3524 24.857ZM13.2469 0.969503C10.2727 1.19294 7.36174 1.82263 6.28596 4.91013C5.63206 6.79919 5.80081 8.74919 5.96956 10.6383C6.05393 11.6945 6.1594 12.7711 6.11721 13.8476C6.09612 14.3554 6.05393 14.8836 6.01174 15.4523C5.8219 17.6867 5.61096 20.2054 6.77112 22.0133C7.25627 22.7648 8.81721 24.5523 12.8461 24.6945H13.3735C18.0352 24.6945 19.7649 22.7039 20.3977 21.5258C21.5578 19.2914 21.368 16.4883 21.2203 14.0304C21.1992 13.7664 21.1782 13.5023 21.1782 13.2383C21.136 12.3851 21.1149 11.5117 21.1149 10.6586C21.0938 8.42419 21.0938 6.08825 20.1867 3.93513C19.5539 2.73669 18.6047 1.92419 17.2969 1.457C15.9469 1.03044 14.4282 0.969503 13.2469 0.969503Z" fill="black"/>
</g>
<mask id="mask19_517_25561" style="mask-type:luminance" maskUnits="userSpaceOnUse" x="3" y="0" width="21" height="26">
<path d="M3.96582 0.299194H23.0557V25.8929H3.96582V0.299194Z" fill="white"/>
</mask>
<g mask="url(#mask19_517_25561)">
<path fill-rule="evenodd" clip-rule="evenodd" d="M13.7534 4.60545C14.2597 7.48982 19.1534 6.71795 18.4573 3.81326C17.8245 1.21326 13.5847 1.94451 13.7534 4.60545Z" fill="white"/>
</g>
<mask id="mask20_517_25561" style="mask-type:luminance" maskUnits="userSpaceOnUse" x="3" y="0" width="21" height="26">
<path d="M3.96582 0.299194H23.0557V25.8929H3.96582V0.299194Z" fill="white"/>
</mask>
<g mask="url(#mask20_517_25561)">
<path d="M16.0735 6.4945C15.1243 6.4945 13.922 6.007 13.6689 4.62575C13.6267 3.97575 13.8376 3.38669 14.2806 2.93982C14.7657 2.432 15.504 2.14763 16.2634 2.14763C17.1493 2.14763 18.204 2.5945 18.4993 3.83357C18.6681 4.52419 18.5415 5.13357 18.1407 5.62107C17.6978 6.14919 16.9173 6.4945 16.0735 6.4945ZM13.8165 4.60544C13.922 5.17419 14.1962 5.62107 14.6392 5.94607C15.0189 6.23044 15.5462 6.37263 16.0735 6.37263C16.854 6.37263 17.6134 6.04763 18.0353 5.53982C18.415 5.09294 18.5204 4.50388 18.3728 3.85388C18.0985 2.69607 17.1071 2.28982 16.2634 2.28982C15.5462 2.28982 14.8501 2.57419 14.386 3.04138C13.9853 3.44763 13.7743 3.99607 13.8165 4.60544Z" fill="black"/>
</g>
<mask id="mask21_517_25561" style="mask-type:luminance" maskUnits="userSpaceOnUse" x="3" y="0" width="21" height="26">
<path d="M3.96582 0.299194H23.0557V25.8929H3.96582V0.299194Z" fill="white"/>
</mask>
<g mask="url(#mask21_517_25561)">
<path fill-rule="evenodd" clip-rule="evenodd" d="M7.91041 5.07264C8.58541 7.57107 12.7409 6.94139 12.5932 4.42264C12.4034 1.41639 7.2565 1.98514 7.91041 5.07264Z" fill="white"/>
</g>
<mask id="mask22_517_25561" style="mask-type:luminance" maskUnits="userSpaceOnUse" x="3" y="0" width="21" height="26">
<path d="M3.96582 0.299194H23.0557V25.8929H3.96582V0.299194Z" fill="white"/>
</mask>
<g mask="url(#mask22_517_25561)">
<path d="M10.1254 6.73825C9.2184 6.73825 8.16371 6.31169 7.82621 5.09294C7.67856 4.382 7.82621 3.732 8.24809 3.2445C8.71215 2.69606 9.47153 2.37106 10.2942 2.37106C11.3911 2.37106 12.5512 3.00075 12.6356 4.42263C12.6778 5.01169 12.4879 5.53981 12.0661 5.96638C11.6231 6.43356 10.8848 6.73825 10.1254 6.73825ZM10.2942 2.51325C9.51371 2.51325 8.79653 2.81794 8.35356 3.32575C7.95278 3.79294 7.82621 4.382 7.97387 5.05231C8.26918 6.18981 9.28168 6.59606 10.1254 6.59606C10.8426 6.59606 11.5387 6.332 11.9817 5.86481C12.3614 5.47888 12.5512 4.97106 12.509 4.42263C12.4668 3.54919 11.8551 2.51325 10.2942 2.51325Z" fill="black"/>
</g>
<mask id="mask23_517_25561" style="mask-type:luminance" maskUnits="userSpaceOnUse" x="3" y="0" width="21" height="26">
<path d="M3.96582 0.299194H23.0557V25.8929H3.96582V0.299194Z" fill="white"/>
</mask>
<g mask="url(#mask23_517_25561)">
<path fill-rule="evenodd" clip-rule="evenodd" d="M14.344 8.05857C14.344 8.4242 14.4284 8.85076 14.3651 9.25701C14.2596 9.43982 14.0698 9.46013 13.9011 9.52107C13.669 9.48045 13.4792 9.33826 13.3737 9.13513C13.3104 8.68826 13.3948 8.24138 13.4159 7.79451L14.344 8.05857Z" fill="white"/>
</g>
<mask id="mask24_517_25561" style="mask-type:luminance" maskUnits="userSpaceOnUse" x="3" y="0" width="21" height="26">
<path d="M3.96582 0.299194H23.0557V25.8929H3.96582V0.299194Z" fill="white"/>
</mask>
<g mask="url(#mask24_517_25561)">
<path d="M13.9011 9.60232C13.6269 9.56169 13.416 9.39919 13.3105 9.17575C13.2683 8.85075 13.2894 8.54607 13.3105 8.24138C13.3316 8.09919 13.3316 7.957 13.3316 7.81482V7.73357L14.4074 8.05857V8.09919C14.4074 8.22107 14.4285 8.34294 14.4285 8.48513C14.4496 8.74919 14.4706 9.03357 14.4285 9.29763V9.31794C14.3441 9.48044 14.1964 9.52107 14.0488 9.582C14.0066 9.56169 13.9644 9.582 13.9011 9.60232ZM13.4371 9.11482C13.5214 9.29763 13.6902 9.4195 13.88 9.46013C13.9222 9.43982 13.9644 9.43982 13.9855 9.4195C14.1121 9.37888 14.2175 9.33825 14.2808 9.23669C14.323 8.99294 14.3019 8.72888 14.2808 8.46482C14.2808 8.34294 14.2597 8.22107 14.2597 8.1195L13.4581 7.87575C13.4581 7.99763 13.4371 8.1195 13.4371 8.22107C13.416 8.54607 13.3949 8.83044 13.4371 9.11482Z" fill="black"/>
</g>
<mask id="mask25_517_25561" style="mask-type:luminance" maskUnits="userSpaceOnUse" x="3" y="0" width="21" height="26">
<path d="M3.96582 0.299194H23.0557V25.8929H3.96582V0.299194Z" fill="white"/>
</mask>
<g mask="url(#mask25_517_25561)">
<path fill-rule="evenodd" clip-rule="evenodd" d="M9.7667 4.66638C9.7667 5.07263 9.45029 5.39763 9.07061 5.39763C8.69092 5.39763 8.37451 5.07263 8.37451 4.66638C8.37451 4.26013 8.69092 3.93513 9.07061 3.93513C9.45029 3.93513 9.7667 4.26013 9.7667 4.66638Z" fill="black"/>
</g>
<mask id="mask26_517_25561" style="mask-type:luminance" maskUnits="userSpaceOnUse" x="3" y="0" width="21" height="26">
<path d="M3.96582 0.299194H23.0557V25.8929H3.96582V0.299194Z" fill="white"/>
</mask>
<g mask="url(#mask26_517_25561)">
<path fill-rule="evenodd" clip-rule="evenodd" d="M9.53477 4.82888C9.53477 4.93045 9.45039 5.0117 9.36602 5.0117C9.28164 5.0117 9.19727 4.93045 9.19727 4.82888C9.19727 4.72732 9.28164 4.64607 9.36602 4.64607C9.47149 4.64607 9.53477 4.72732 9.53477 4.82888Z" fill="white"/>
</g>
<mask id="mask27_517_25561" style="mask-type:luminance" maskUnits="userSpaceOnUse" x="3" y="0" width="21" height="26">
<path d="M3.96582 0.299194H23.0557V25.8929H3.96582V0.299194Z" fill="white"/>
</mask>
<g mask="url(#mask27_517_25561)">
<path fill-rule="evenodd" clip-rule="evenodd" d="M15.652 4.48357C15.652 4.88982 15.3355 5.21482 14.9559 5.21482C14.5762 5.21482 14.2598 4.88982 14.2598 4.48357C14.2598 4.07732 14.5762 3.75232 14.9559 3.75232C15.3355 3.75232 15.652 4.07732 15.652 4.48357Z" fill="black"/>
</g>
<mask id="mask28_517_25561" style="mask-type:luminance" maskUnits="userSpaceOnUse" x="3" y="0" width="21" height="26">
<path d="M3.96582 0.299194H23.0557V25.8929H3.96582V0.299194Z" fill="white"/>
</mask>
<g mask="url(#mask28_517_25561)">
<path fill-rule="evenodd" clip-rule="evenodd" d="M15.4409 4.64607C15.4409 4.74763 15.3777 4.82888 15.2722 4.82888C15.1878 4.82888 15.1034 4.74763 15.1034 4.64607C15.1034 4.54451 15.1667 4.46326 15.2722 4.46326C15.3566 4.46326 15.4409 4.54451 15.4409 4.64607ZM12.3191 8.01794C12.0027 8.72888 12.4878 10.1711 13.3316 9.11482C13.2683 8.66794 13.3527 8.22107 13.3738 7.77419L12.3191 8.01794Z" fill="white"/>
</g>
<mask id="mask29_517_25561" style="mask-type:luminance" maskUnits="userSpaceOnUse" x="3" y="0" width="21" height="26">
<path d="M3.96582 0.299194H23.0557V25.8929H3.96582V0.299194Z" fill="white"/>
</mask>
<g mask="url(#mask29_517_25561)">
<path d="M12.7617 9.56169C12.6141 9.56169 12.4664 9.48044 12.3609 9.31794C12.1289 8.99294 12.0867 8.38357 12.2555 7.99763L12.2766 7.95701L13.4367 7.67263V7.75388L13.4156 8.20076C13.3945 8.50544 13.3734 8.78982 13.4156 9.09451V9.11482L13.3945 9.13513C13.1836 9.41951 12.9727 9.56169 12.7617 9.56169ZM12.382 8.07888C12.2555 8.42419 12.2977 8.97263 12.4875 9.23669C12.5719 9.35857 12.6563 9.41951 12.7617 9.41951C12.9094 9.41951 13.0781 9.29763 13.2469 9.09451C13.2047 8.78982 13.2258 8.48513 13.268 8.20076L13.2891 7.85544L12.382 8.07888Z" fill="black"/>
</g>
<mask id="mask30_517_25561" style="mask-type:luminance" maskUnits="userSpaceOnUse" x="3" y="0" width="21" height="26">
<path d="M3.96582 0.299194H23.0557V25.8929H3.96582V0.299194Z" fill="white"/>
</mask>
<g mask="url(#mask30_517_25561)">
<path fill-rule="evenodd" clip-rule="evenodd" d="M12.4242 6.63669C11.8547 6.67732 11.3906 7.34763 11.6859 7.85544C12.0867 8.54607 12.9515 7.79451 13.5 7.85544C14.1328 7.87576 14.639 8.50544 15.1453 7.97732C15.7148 7.38826 14.8922 6.81951 14.2804 6.55544L12.4242 6.63669Z" fill="#F6D2A2"/>
</g>
<mask id="mask31_517_25561" style="mask-type:luminance" maskUnits="userSpaceOnUse" x="3" y="0" width="21" height="26">
<path d="M3.96582 0.299194H23.0557V25.8929H3.96582V0.299194Z" fill="white"/>
</mask>
<g mask="url(#mask31_517_25561)">
<path d="M14.7024 8.26169C14.5126 8.26169 14.3227 8.18044 14.1329 8.09919C13.943 8.01794 13.7321 7.93669 13.5001 7.93669H13.4368C13.268 7.93669 13.0782 7.99763 12.8673 8.07888C12.6352 8.16013 12.4032 8.22107 12.1923 8.22107C11.9391 8.22107 11.7493 8.11951 11.6227 7.89607C11.4751 7.65232 11.4962 7.36794 11.6438 7.10388C11.8126 6.79919 12.1079 6.61638 12.4243 6.57576L14.3016 6.49451H14.3227C14.7868 6.67732 15.3141 7.02263 15.4196 7.42888C15.4618 7.63201 15.3985 7.83513 15.2298 8.01794C15.061 8.20076 14.8923 8.26169 14.7024 8.26169ZM13.5212 7.81482C13.7532 7.81482 13.9852 7.91638 14.1962 7.99763C14.386 8.07888 14.5548 8.13982 14.7235 8.13982C14.8712 8.13982 14.9977 8.07888 15.1243 7.95701C15.2719 7.81482 15.3141 7.65232 15.293 7.48982C15.2087 7.14451 14.7024 6.81951 14.3016 6.65701L12.4665 6.73826C12.1923 6.75857 11.9391 6.94138 11.7915 7.18513C11.6649 7.40857 11.6649 7.65232 11.7704 7.85544C11.8759 8.03826 12.0024 8.11951 12.2134 8.11951C12.4032 8.11951 12.6141 8.03826 12.8251 7.97732C13.0571 7.89607 13.2469 7.83513 13.4579 7.83513C13.4579 7.79451 13.479 7.79451 13.5212 7.81482Z" fill="#231F20"/>
</g>
<mask id="mask32_517_25561" style="mask-type:luminance" maskUnits="userSpaceOnUse" x="3" y="0" width="21" height="26">
<path d="M3.96582 0.299194H23.0557V25.8929H3.96582V0.299194Z" fill="white"/>
</mask>
<g mask="url(#mask32_517_25561)">
<path fill-rule="evenodd" clip-rule="evenodd" d="M12.361 6.61638C12.3189 5.66169 14.2173 5.53982 14.4282 6.332C14.6603 7.1445 12.4454 7.32732 12.361 6.61638Z" fill="black"/>
</g>
</g>
<defs>
<clipPath id="clip0_517_25561">
<rect width="27" height="26" fill="white" transform="translate(0 0.0960693)"/>
</clipPath>
</defs>
</svg>
