<svg width="31" height="32" viewBox="0 0 31 32" fill="none" xmlns="http://www.w3.org/2000/svg">
<g clip-path="url(#clip0_531_23770)">
<path d="M19.7275 9.96731L20.7204 9.98426L23.4184 7.28629L23.5492 6.14317C21.4092 4.23667 18.5838 3.07562 15.4964 3.07562C9.90675 3.07562 5.18893 6.87893 3.79248 12.0307C4.08698 11.8254 4.71667 11.9794 4.71667 11.9794L10.1078 11.093C10.1078 11.093 10.3848 10.6343 10.5253 10.6571C11.1557 9.96449 11.9238 9.41126 12.7804 9.03282C13.6371 8.65439 14.5633 8.45909 15.4998 8.45945C17.0983 8.46284 18.5708 9.02762 19.7275 9.96198V9.96731Z" fill="#EA4335"/>
<path d="M27.2073 12.0414C26.581 9.73095 25.2901 7.69077 23.5479 6.14319L19.7276 9.96345C21.2582 11.1986 22.24 13.0886 22.24 15.2044V15.8786C24.0986 15.8786 25.6084 17.3918 25.6084 19.247C25.6084 21.1055 24.0952 22.6153 22.24 22.6153H15.5034L14.8291 23.2935V27.336L15.5034 28.0069H22.24C24.5622 28.0037 26.7884 27.0798 28.4305 25.4378C30.0726 23.7958 30.9966 21.5697 31 19.2475C30.9966 16.2661 29.4984 13.6282 27.2073 12.0414Z" fill="#4285F4"/>
<path d="M8.76005 28.0112H15.4929V22.6153H8.76005C8.2817 22.6154 7.80893 22.5126 7.37377 22.314L6.40163 22.6119L3.70366 25.3099L3.46729 26.2205C4.98768 27.3804 6.84725 28.0083 8.75957 28.0074L8.76005 28.0112Z" fill="#34A853"/>
<path d="M8.75992 10.4915C6.43771 10.4947 4.21153 11.4185 2.56943 13.0605C0.927335 14.7025 0.00333172 16.9287 0 19.2509C0 22.0956 1.36255 24.625 3.47103 26.2273L7.37703 22.3213C6.78581 22.0548 6.28404 21.6233 5.93187 21.0787C5.57971 20.5341 5.39212 19.8994 5.39158 19.2509C5.39158 17.3923 6.90477 15.8825 8.75992 15.8825C10.1259 15.8825 11.3 16.706 11.8309 17.8685L15.7369 13.9625C14.135 11.854 11.6051 10.4915 8.76041 10.4915H8.75992Z" fill="#FBBC05"/>
</g>
<defs>
<clipPath id="clip0_531_23770">
<rect width="31" height="31" fill="white" transform="translate(0 0.043457)"/>
</clipPath>
</defs>
</svg>
