<svg width="26" height="27" viewBox="0 0 26 27" fill="none" xmlns="http://www.w3.org/2000/svg">
<g clip-path="url(#clip0_531_23795)">
<mask id="mask0_531_23795" style="mask-type:luminance" maskUnits="userSpaceOnUse" x="1" y="0" width="24" height="27">
<path d="M11.6922 3.7712C11.6922 3.7712 11.683 3.80905 11.6713 3.87301C11.563 3.90434 11.4546 3.93436 11.3463 3.9696C11.1962 4.01529 11.0487 4.07011 10.8986 4.12363C10.7511 4.18106 10.601 4.23849 10.4548 4.30376C10.1598 4.43037 9.86739 4.57265 9.58153 4.7332C9.30481 4.88852 9.03201 5.05952 8.76703 5.24487C8.72918 5.22659 8.69916 5.21354 8.69916 5.21354C5.9933 4.17975 3.59027 5.42369 3.59027 5.42369C3.37098 8.30185 4.67105 10.1162 4.92819 10.4451C4.86423 10.6226 4.80419 10.8028 4.74936 10.9842C4.54965 11.6369 4.39955 12.3065 4.30687 12.9983C4.29382 13.0975 4.28207 13.198 4.27032 13.2985C1.7707 14.5333 1.0293 17.0642 1.0293 17.0642C3.11645 19.4647 5.5495 19.6135 5.5495 19.6135C5.55211 19.6122 5.55342 19.6095 5.55603 19.6082C5.86538 20.1604 6.22303 20.6864 6.62636 21.1759C6.79475 21.3808 6.97227 21.5792 7.15631 21.7711C6.39533 23.947 7.26334 25.7574 7.26334 25.7574C9.58675 25.8449 11.1126 24.7406 11.4337 24.4861C11.6648 24.5644 11.8997 24.6336 12.136 24.6949C12.85 24.879 13.5809 24.9873 14.3119 25.0187C14.4946 25.0265 14.6774 25.0304 14.8588 25.0291H14.9476L15.005 25.0278L15.1199 25.0239L15.2334 25.0187L15.236 25.0226C16.3299 26.5837 18.2552 26.8043 18.2552 26.8043C19.6244 25.3606 19.7027 23.9287 19.7027 23.6194C19.7027 23.6194 19.7027 23.6089 19.7027 23.5985C19.7027 23.5724 19.7014 23.5554 19.7014 23.5554C19.7001 23.5332 19.7001 23.5124 19.6975 23.4889C19.9847 23.2878 20.2588 23.0712 20.5185 22.8388C21.0667 22.3428 21.5458 21.7789 21.9426 21.1694C21.9804 21.1119 22.017 21.0545 22.0522 20.9958C23.6016 21.0845 24.6941 20.0364 24.6941 20.0364C24.437 18.4217 23.5168 17.6346 23.3249 17.4858C23.3249 17.4858 23.3171 17.4793 23.3053 17.4715C23.2949 17.4637 23.287 17.4584 23.287 17.4584C23.2779 17.4519 23.2662 17.4441 23.2531 17.4362C23.2622 17.3383 23.2714 17.2418 23.2766 17.1452C23.2883 16.9716 23.2923 16.7967 23.2936 16.6244L23.2923 16.4951L23.291 16.4299V16.3972C23.291 16.3529 23.2897 16.3698 23.2897 16.3529L23.2844 16.2445L23.2766 16.0983C23.274 16.0474 23.2701 16.0043 23.2662 15.9587C23.2622 15.9143 23.2583 15.8686 23.2531 15.8242L23.2374 15.6898L23.2192 15.5566C23.1931 15.3791 23.1591 15.2029 23.1187 15.0293C22.9568 14.3336 22.6853 13.6731 22.3264 13.0792C21.9674 12.4853 21.521 11.9593 21.0185 11.5168C20.5159 11.073 19.952 10.7166 19.3607 10.4503C18.7694 10.1841 18.1481 10.0131 17.5294 9.93476C17.2201 9.8943 16.912 9.87863 16.6066 9.88255L16.493 9.88516L16.4643 9.88647C16.4565 9.88647 16.4212 9.88777 16.4251 9.88777L16.3782 9.89038L16.2646 9.89821C16.2215 9.90082 16.1771 9.90474 16.1393 9.90866C15.9827 9.92432 15.8273 9.9452 15.6733 9.97392C15.0598 10.0888 14.4803 10.3107 13.9699 10.6161C13.4595 10.9216 13.0157 11.304 12.6542 11.7374C12.2939 12.1694 12.0133 12.6485 11.8201 13.1445C11.6269 13.6405 11.5186 14.1521 11.4886 14.6495C11.4807 14.7735 11.4781 14.8975 11.4807 15.0202C11.4807 15.0502 11.482 15.0815 11.4833 15.1115L11.4873 15.2107C11.4912 15.2708 11.4964 15.3295 11.5016 15.3882C11.5264 15.6402 11.5721 15.8816 11.64 16.1153C11.7744 16.5813 11.9911 17.0029 12.2574 17.3605C12.5236 17.7195 12.8421 18.0158 13.1802 18.2468C13.5183 18.4779 13.8798 18.6436 14.2375 18.7494C14.5964 18.8551 14.9528 18.9008 15.2882 18.8995C15.33 18.8995 15.3718 18.8982 15.4136 18.8969C15.4357 18.8969 15.4579 18.8942 15.4801 18.8942C15.5023 18.8929 15.5245 18.8916 15.5467 18.8903C15.5819 18.8864 15.6185 18.8838 15.6537 18.8799C15.6616 18.8799 15.6733 18.8773 15.6837 18.876L15.7164 18.8721C15.7386 18.8694 15.7595 18.8655 15.7816 18.8629C15.826 18.8577 15.8639 18.8486 15.903 18.842C15.9422 18.8342 15.9814 18.8264 16.0205 18.8159C16.0975 18.799 16.1719 18.7755 16.2463 18.7533C16.3925 18.705 16.5296 18.6462 16.6575 18.581C16.7854 18.5157 16.9029 18.4413 17.0125 18.3643C17.0439 18.3421 17.0739 18.3186 17.1039 18.2951C17.2214 18.2038 17.2396 18.0315 17.1457 17.9166C17.0634 17.8161 16.9225 17.79 16.8102 17.8526C16.7828 17.8683 16.7541 17.8827 16.7254 17.897C16.6275 17.944 16.5257 17.9884 16.4173 18.0236C16.309 18.0576 16.1967 18.0863 16.0792 18.1072C16.0205 18.115 15.9618 18.1241 15.9017 18.1294C15.8717 18.1333 15.8417 18.1346 15.8104 18.1346C15.7803 18.1359 15.7477 18.1385 15.7203 18.1372C15.6916 18.1372 15.6629 18.1359 15.6328 18.1359C15.5963 18.1346 15.5597 18.132 15.5232 18.1307C15.5232 18.1307 15.5049 18.1307 15.5193 18.1294L15.5075 18.128L15.4827 18.1254C15.4658 18.1241 15.4501 18.1228 15.4331 18.1202C15.4005 18.1163 15.3679 18.1124 15.3352 18.1072C15.0729 18.0706 14.8066 17.9936 14.5508 17.8774C14.2936 17.7613 14.0482 17.602 13.8263 17.4023C13.6044 17.2039 13.4112 16.9637 13.2598 16.6922C13.1084 16.422 13.0027 16.1205 12.9531 15.8046C12.9283 15.6467 12.9178 15.4835 12.9218 15.3243C12.9244 15.2799 12.9257 15.2368 12.9283 15.1925C12.9283 15.2042 12.9296 15.1859 12.9296 15.1846L12.9309 15.169L12.9335 15.1363C12.9348 15.1141 12.9374 15.0933 12.94 15.0711C12.9492 14.9849 12.9622 14.8975 12.9779 14.8126C13.0993 14.1247 13.4439 13.4538 13.9764 12.9434C14.1096 12.8168 14.2532 12.6981 14.4059 12.5936C14.5586 12.4892 14.7218 12.3952 14.8914 12.3169C15.0611 12.2386 15.2386 12.1746 15.4201 12.125C15.6015 12.0767 15.7882 12.0441 15.9774 12.0271C16.0714 12.0193 16.1667 12.0154 16.262 12.0154C16.2868 12.0154 16.3064 12.0167 16.3259 12.0167L16.403 12.0193L16.4513 12.0206C16.4708 12.0206 16.4513 12.0206 16.4604 12.0219L16.48 12.0232L16.557 12.0284C16.7619 12.0454 16.9668 12.0741 17.1679 12.1198C17.5712 12.2099 17.9628 12.3574 18.3283 12.5597C19.0592 12.9643 19.6818 13.5974 20.0643 14.361C20.2575 14.7408 20.3906 15.1507 20.4585 15.5736C20.4741 15.6793 20.4872 15.7864 20.4963 15.8934L20.5029 15.9743L20.5068 16.0553C20.5081 16.0827 20.5081 16.1088 20.5094 16.1362C20.5094 16.1623 20.5107 16.1923 20.5107 16.2119V16.2811L20.5094 16.3594C20.5068 16.4116 20.5029 16.4964 20.5003 16.5486C20.4911 16.6648 20.482 16.7823 20.4663 16.8985C20.452 17.0133 20.4324 17.1282 20.4115 17.2431C20.388 17.3566 20.3645 17.4702 20.3345 17.5824C20.2784 17.8083 20.2053 18.0288 20.1204 18.2455C19.9494 18.6789 19.721 19.09 19.4456 19.4699C18.8934 20.2283 18.1403 20.8483 17.284 21.2372C16.8559 21.4304 16.4043 21.5727 15.9396 21.6497C15.7072 21.6889 15.4723 21.7124 15.2373 21.7202L15.1943 21.7215H15.1564L15.0807 21.7228H14.9645H14.9071C14.9397 21.7228 14.9019 21.7228 14.9032 21.7215L14.8797 21.7202C14.7531 21.7176 14.6278 21.7111 14.5025 21.7019C13.9999 21.6641 13.5026 21.5753 13.021 21.4343C12.5393 21.2947 12.072 21.108 11.6295 20.8731C10.7458 20.4005 9.95615 19.7531 9.33744 18.9726C9.02679 18.5836 8.75529 18.1659 8.53078 17.726C8.30627 17.2861 8.13005 16.8254 7.99953 16.3542C7.8703 15.883 7.78938 15.4 7.75805 14.9144L7.75283 14.8231L7.75152 14.8009V14.7813L7.75022 14.7408L7.74761 14.6612L7.7463 14.6416V14.6142V14.5581L7.745 14.4445V14.4223C7.745 14.4263 7.745 14.4263 7.745 14.4145V14.3701C7.745 14.3114 7.74761 14.2513 7.74891 14.1926C7.75805 13.9524 7.77763 13.7057 7.80895 13.459C7.84028 13.2123 7.88074 12.9643 7.93165 12.7176C7.98256 12.4722 8.0426 12.2282 8.11048 11.9893C8.24753 11.5102 8.41852 11.0456 8.62084 10.607C9.02679 9.72853 9.55934 8.95449 10.1989 8.33057C10.3582 8.17393 10.524 8.02643 10.6962 7.88807C10.8685 7.74971 11.0474 7.62179 11.2314 7.50171C11.4142 7.38032 11.6034 7.27067 11.7979 7.16886C11.8945 7.11665 11.9937 7.07096 12.0929 7.02267C12.1425 7.00048 12.1934 6.97829 12.243 6.9561C12.2926 6.93391 12.3435 6.91172 12.3944 6.89214C12.5967 6.80599 12.8056 6.7342 13.0144 6.66633C13.068 6.65066 13.1202 6.63369 13.1724 6.61803C13.2246 6.60106 13.2794 6.58931 13.3316 6.57365C13.4373 6.54363 13.5457 6.51883 13.6527 6.49142C13.7062 6.47706 13.7611 6.46792 13.8146 6.45617C13.8694 6.44443 13.9229 6.43268 13.9777 6.42224C14.0326 6.41179 14.0874 6.40266 14.1409 6.39222L14.2231 6.37786L14.3054 6.3648C14.3602 6.35697 14.415 6.34784 14.4698 6.34C14.5312 6.32956 14.5938 6.32434 14.6552 6.3152C14.7061 6.30868 14.7883 6.29954 14.8392 6.29301C14.8784 6.2891 14.9162 6.28518 14.9554 6.28127L15.0324 6.27343L15.0716 6.26952L15.1173 6.26691C15.1799 6.26299 15.2413 6.25908 15.3039 6.25516L15.3966 6.24863C15.3966 6.24863 15.4305 6.24733 15.4005 6.24733L15.4201 6.24602L15.4592 6.24472C15.5128 6.24211 15.565 6.2395 15.6185 6.23689C15.8299 6.23036 16.0401 6.23036 16.2476 6.23689C16.664 6.25385 17.0726 6.29954 17.4694 6.37264C18.2643 6.52013 19.0122 6.77597 19.6884 7.11012C20.3658 7.44167 20.9728 7.84891 21.5001 8.29141C21.5327 8.31882 21.5654 8.34753 21.598 8.37494C21.6306 8.40366 21.662 8.43107 21.6933 8.45979C21.7572 8.51592 21.8186 8.57465 21.8799 8.63078C21.9413 8.68821 22 8.74695 22.0601 8.80438C22.1175 8.86312 22.1762 8.92056 22.2324 8.9806C22.4556 9.21686 22.6631 9.45703 22.8498 9.69851C23.2244 10.1802 23.5233 10.6657 23.7622 11.1252C23.7778 11.1539 23.7922 11.1826 23.8065 11.2113C23.8209 11.24 23.8353 11.2688 23.8483 11.2975C23.8757 11.3536 23.9044 11.4097 23.9292 11.4659C23.9553 11.522 23.9815 11.5768 24.0063 11.6316C24.0297 11.6865 24.0532 11.7413 24.0767 11.7935C24.1655 12.0089 24.2464 12.2125 24.313 12.407C24.4226 12.7189 24.5023 13.0009 24.5649 13.245C24.5897 13.3429 24.6824 13.4081 24.7829 13.399C24.8873 13.3899 24.9669 13.3037 24.9696 13.1993C24.9748 12.9369 24.9682 12.6276 24.9382 12.2751C24.8991 11.8392 24.8247 11.334 24.6772 10.7793C24.5323 10.2245 24.3169 9.61758 24.0036 8.98712C23.6891 8.35798 23.2792 7.70272 22.7467 7.06966C22.5391 6.82165 22.312 6.57626 22.0666 6.33739C22.4321 4.8833 21.6215 3.6224 21.6215 3.6224C20.2222 3.53494 19.332 4.05706 19.0018 4.29592C18.947 4.27243 18.8908 4.24893 18.8347 4.22544C18.5958 4.12885 18.3518 4.03878 18.0998 3.95916C17.8479 3.87954 17.5908 3.80644 17.3284 3.74509C17.0647 3.68375 16.7972 3.63153 16.5244 3.58977C16.4761 3.58324 16.4291 3.57671 16.3808 3.56888C15.7725 1.61878 14.0195 0.802979 14.0195 0.802979C12.0642 2.03647 11.6922 3.7712 11.6922 3.7712Z" fill="white"/>
</mask>
<g mask="url(#mask0_531_23795)">
<path d="M24.9735 0.797729H1.0293V26.803H24.9735V0.797729Z" fill="url(#paint0_linear_531_23795)"/>
</g>
</g>
<defs>
<linearGradient id="paint0_linear_531_23795" x1="12.9986" y1="32.6518" x2="12.9986" y2="8.89333" gradientUnits="userSpaceOnUse">
<stop stop-color="#FFF200"/>
<stop offset="1" stop-color="#F15A29"/>
</linearGradient>
<clipPath id="clip0_531_23795">
<rect width="26" height="26" fill="white" transform="translate(0 0.802979)"/>
</clipPath>
</defs>
</svg>
