<svg width="21" height="22" viewBox="0 0 21 22" fill="none" xmlns="http://www.w3.org/2000/svg">
<g clip-path="url(#clip0_526_23342)">
<path d="M2.85643 16.9556L2.08643 16.5104L10.674 1.63678L11.444 2.08198L2.85643 16.9556Z" fill="#E10098"/>
<path d="M1.90918 15.3218H19.0858V16.2122H1.90918V15.3218Z" fill="#E10098"/>
<path d="M10.8406 20.7832L2.24951 15.823L2.69471 15.053L11.2858 20.0132L10.8406 20.7832ZM18.304 7.8542L9.71221 2.89469L10.1574 2.12469L18.7485 7.08489L18.304 7.8542Z" fill="#E10098"/>
<path d="M2.69666 7.85141L2.25146 7.08141L10.8503 2.11981L11.2955 2.88981L2.69666 7.85141Z" fill="#E10098"/>
<path d="M18.1457 16.9556L9.55673 2.08058L10.3267 1.63538L18.9157 16.5104L18.1457 16.9556ZM2.59033 6.49058H3.48073V16.411H2.59033V6.49058ZM17.5199 6.49058H18.4103V16.411H17.5199V6.49058Z" fill="#E10098"/>
<path d="M10.6893 20.4059L10.3008 19.7325L17.7733 15.4184L18.1618 16.0918L10.6893 20.4059Z" fill="#E10098"/>
<path d="M19.5899 16.7008C19.3411 17.1304 18.9323 17.4439 18.4529 17.5726C17.9734 17.7013 17.4625 17.6348 17.0321 17.3875C16.6025 17.1388 16.289 16.7299 16.1603 16.2505C16.0316 15.7711 16.0982 15.2602 16.3454 14.8297C16.5941 14.4001 17.003 14.0867 17.4824 13.958C17.9619 13.8292 18.4727 13.8958 18.9032 14.143C19.8041 14.6631 20.11 15.8055 19.5892 16.7008M4.64979 8.07262C4.40105 8.5022 3.99218 8.81568 3.51276 8.94439C3.03334 9.0731 2.52245 9.00655 2.09199 8.75932C1.66223 8.51057 1.34862 8.10158 1.21989 7.62199C1.09117 7.1424 1.15784 6.63134 1.40529 6.20082C1.65404 5.77125 2.06291 5.45777 2.54233 5.32906C3.02175 5.20034 3.53264 5.26689 3.96309 5.51412C4.39267 5.76287 4.70615 6.17174 4.83486 6.65116C4.96357 7.13058 4.89702 7.64217 4.64979 8.07262ZM1.41089 16.7008C1.16366 16.2704 1.09712 15.7595 1.22583 15.2801C1.35454 14.8006 1.66802 14.3918 2.09759 14.143C2.52805 13.8958 3.03894 13.8292 3.51836 13.958C3.99778 14.0867 4.40665 14.4001 4.65539 14.8297C4.90262 15.2602 4.96917 15.7711 4.84046 16.2505C4.71175 16.7299 4.39827 17.1388 3.96869 17.3875C3.06779 17.902 1.92469 17.5968 1.41089 16.7008ZM16.351 8.07332C16.1038 7.64287 16.0372 7.13198 16.1659 6.65256C16.2946 6.17314 16.6081 5.76427 17.0377 5.51552C17.4681 5.26829 17.979 5.20175 18.4585 5.33046C18.9379 5.45917 19.3467 5.77265 19.5955 6.20222C19.8427 6.63267 19.9093 7.14357 19.7806 7.62299C19.6518 8.10241 19.3384 8.51127 18.9088 8.76002C18.4783 9.00725 17.9675 9.0738 17.488 8.94509C17.0086 8.81638 16.5997 8.5029 16.351 8.07332ZM10.5004 21.9508C10.1302 21.9508 9.76824 21.841 9.46041 21.6353C9.15257 21.4296 8.91266 21.1372 8.77101 20.7952C8.62936 20.4531 8.59233 20.0767 8.66461 19.7136C8.73689 19.3505 8.91523 19.017 9.17708 18.7552C9.43893 18.4935 9.77251 18.3152 10.1357 18.2431C10.4988 18.171 10.8752 18.2081 11.2172 18.3499C11.5592 18.4917 11.8515 18.7317 12.0571 19.0396C12.2627 19.3475 12.3723 19.7095 12.3722 20.0797C12.3709 20.5757 12.1733 21.051 11.8225 21.4016C11.4717 21.7522 10.9964 21.9497 10.5004 21.9508ZM10.5004 4.69442C10.2545 4.69479 10.0109 4.64663 9.78365 4.55269C9.55639 4.45875 9.3499 4.32089 9.17601 4.14701C9.00212 3.97312 8.86426 3.76663 8.77033 3.53937C8.67639 3.3121 8.62823 3.06853 8.62859 2.82262C8.62859 2.32628 8.82576 1.85027 9.17673 1.49931C9.52769 1.14834 10.0037 0.951172 10.5 0.951172C10.9964 0.951172 11.4724 1.14834 11.8234 1.49931C12.1743 1.85027 12.3715 2.32628 12.3715 2.82262C12.3718 3.06842 12.3236 3.31185 12.2296 3.53899C12.1357 3.76612 11.9979 3.9725 11.8241 4.14631C11.6503 4.32011 11.4439 4.45792 11.2168 4.55186C10.9896 4.64579 10.7462 4.6947 10.5004 4.69442Z" fill="#E10098"/>
</g>
<defs>
<clipPath id="clip0_526_23342">
<rect width="21" height="21" fill="white" transform="translate(0 0.950806)"/>
</clipPath>
</defs>
</svg>
