<svg width="23" height="24" viewBox="0 0 23 24" fill="none" xmlns="http://www.w3.org/2000/svg">
<g clip-path="url(#clip0_544_36260)">
<path d="M20.8078 9.93361C21.9219 9.89611 22.8922 10.7586 23 11.9211C23.4312 17.5086 18.5078 23.7711 11.6078 23.9586C5.75 24.1086 0 19.2711 0 11.9211C0 10.7586 0.934375 9.82111 2.0125 9.82111C3.12656 9.82111 4.025 10.7586 4.025 11.9211C4.025 16.7586 7.7625 19.8711 11.4641 19.7961C16.0641 19.6461 19.0109 15.5211 18.8672 12.1461C18.8312 10.9836 19.6937 9.97111 20.8078 9.93361Z" fill="url(#paint0_linear_544_36260)"/>
<path d="M15.7767 12.0711C15.7767 10.8711 16.711 9.93359 17.861 9.93359H20.8798C22.0298 9.93359 22.9642 10.9086 22.9642 12.0711C22.9642 13.2711 21.9938 14.2086 20.8798 14.2086H17.861C16.711 14.2086 15.7767 13.2711 15.7767 12.0711ZM9.45166 12.0711C9.45166 10.8711 10.386 9.93359 11.5001 9.93359C12.6501 9.93359 13.5485 10.9086 13.5485 12.0711C13.5485 13.2711 12.6142 14.2086 11.5001 14.2086C10.386 14.2086 9.45166 13.2711 9.45166 12.0711Z" fill="#00A672"/>
<path fill-rule="evenodd" clip-rule="evenodd" d="M13.5123 2.0211C13.5483 3.1836 12.6858 4.1586 11.6077 4.1961C6.82797 4.4211 3.91703 8.3211 4.06078 12.0336C4.09672 13.1961 3.27016 14.1711 2.15609 14.2086C1.04203 14.2461 0.0717186 13.3086 0.0357811 12.1461C-0.215781 6.1086 4.59984 0.146104 11.428 0.0336042C12.542 -0.0413958 13.4764 0.858604 13.5123 2.0211Z" fill="#00A672"/>
</g>
<defs>
<linearGradient id="paint0_linear_544_36260" x1="11.5007" y1="9.81136" x2="11.5007" y2="23.9792" gradientUnits="userSpaceOnUse">
<stop stop-color="#00583E"/>
<stop offset="1" stop-color="#00835C"/>
</linearGradient>
<clipPath id="clip0_544_36260">
<rect width="23" height="24" fill="white" transform="translate(0 -0.00390625)"/>
</clipPath>
</defs>
</svg>
