<svg width="30" height="21" viewBox="0 0 30 21" fill="none" xmlns="http://www.w3.org/2000/svg">
<path d="M3.37656 8.38596H10.0261C11.4933 8.38596 12.6746 9.568 12.6746 11.0363V17.6903C12.6746 19.1586 11.4933 20.3406 10.0261 20.3406H3.37656C1.90927 20.3406 0.728027 19.1586 0.728027 17.6903V11.0363C0.728027 9.568 1.90927 8.38596 3.37656 8.38596Z" fill="url(#paint0_linear_509_25206)"/>
<path opacity="0.25" fill-rule="evenodd" clip-rule="evenodd" d="M10.1095 12.8693C7.21057 12.9007 6.41821 16.2579 3.84355 16.2913C2.73038 16.3054 1.78095 15.5409 0.728027 14.6356V17.7231C0.728027 19.1725 1.91055 20.3406 3.37784 20.3406H10.0273C11.4946 20.3406 12.6746 19.1725 12.6746 17.7231V13.5237C11.9559 13.1288 11.1236 12.8581 10.1095 12.8693Z" fill="#FF0000"/>
<path d="M4.19237 10.8984C4.19237 10.3361 3.75111 9.88031 3.20678 9.88031C2.66246 9.88031 2.22119 10.3361 2.22119 10.8984V17.8282C2.22119 18.3905 2.66246 18.8463 3.20678 18.8463C3.75111 18.8463 4.19237 18.3905 4.19237 17.8282V10.8984Z" fill="url(#paint1_linear_509_25206)"/>
<path d="M3.38425 8.76514H10.0261C11.2881 8.76514 12.2957 9.77403 12.2957 11.0369V17.6909C12.2957 18.9542 11.2883 19.9615 10.0261 19.9615H3.3766C2.11435 19.9615 1.10693 18.9537 1.10693 17.6909V11.0346C1.10693 9.77147 2.12182 8.76514 3.38425 8.76514Z" stroke="#800000" stroke-opacity="0.501961" stroke-width="0.5" stroke-miterlimit="20" stroke-linejoin="round"/>
<path d="M11.1417 0.615448H17.7912C19.2585 0.615448 20.4397 1.79749 20.4397 3.26577V9.91977C20.4397 11.388 19.2585 12.5701 17.7912 12.5701H11.1417C9.67441 12.5701 8.49316 11.388 8.49316 9.91977V3.26577C8.49316 1.79749 9.67441 0.615448 11.1417 0.615448Z" fill="url(#paint2_linear_509_25206)"/>
<path opacity="0.25" fill-rule="evenodd" clip-rule="evenodd" d="M17.8746 5.09876C14.9757 5.13015 14.1834 8.48737 11.6087 8.52075C10.4955 8.53482 9.54609 7.77033 8.49316 6.86511V9.95253C8.49316 11.402 9.67569 12.5701 11.143 12.5701H17.7924C19.2597 12.5701 20.4397 11.402 20.4397 9.95253V5.75314C19.721 5.35824 18.8887 5.08752 17.8746 5.09876Z" fill="#0000FF"/>
<path d="M11.958 3.12786C11.958 2.56559 11.5167 2.10977 10.9724 2.10977C10.4281 2.10977 9.98682 2.56559 9.98682 3.12786V10.0577C9.98682 10.6199 10.4281 11.0758 10.9724 11.0758C11.5167 11.0758 11.958 10.6199 11.958 10.0577V3.12786Z" fill="url(#paint3_linear_509_25206)"/>
<path d="M11.1494 0.994598H17.7912C19.0533 0.994598 20.0609 2.00349 20.0609 3.26634V9.92031C20.0609 11.1836 19.0534 12.1909 17.7912 12.1909H11.1417C9.87949 12.1909 8.87207 11.1831 8.87207 9.92031V3.26406C8.87207 2.00093 9.88696 0.994598 11.1494 0.994598Z" stroke="#000080" stroke-opacity="0.501961" stroke-width="0.5" stroke-miterlimit="20" stroke-linejoin="round"/>
<path d="M19.8028 6.29391H26.4523C27.9196 6.29391 29.1009 7.47596 29.1009 8.94424V15.5982C29.1009 17.0665 27.9196 18.2486 26.4523 18.2486H19.8028C18.3355 18.2486 17.1543 17.0665 17.1543 15.5982V8.94424C17.1543 7.47596 18.3355 6.29391 19.8028 6.29391Z" fill="url(#paint4_linear_509_25206)"/>
<path opacity="0.25" fill-rule="evenodd" clip-rule="evenodd" d="M26.5357 10.7773C23.6368 10.8086 22.8445 14.1659 20.2698 14.1993C19.1566 14.2133 18.2072 13.4488 17.1543 12.5436V15.631C17.1543 17.0804 18.3368 18.2486 19.8041 18.2486H26.4535C27.9208 18.2486 29.1009 17.0805 29.1009 15.631V11.4316C28.3821 11.0367 27.5498 10.766 26.5357 10.7773Z" fill="#C0C000"/>
<path d="M20.6191 8.80636C20.6191 8.24408 20.1779 7.78827 19.6335 7.78827C19.0892 7.78827 18.6479 8.24408 18.6479 8.80636V15.7362C18.6479 16.2984 19.0892 16.7543 19.6335 16.7543C20.1779 16.7543 20.6191 16.2984 20.6191 15.7362V8.80636Z" fill="url(#paint5_linear_509_25206)"/>
<path d="M19.8105 6.67307H26.4523C27.7144 6.67307 28.722 7.68196 28.722 8.9448V15.5988C28.722 16.8621 27.7146 17.8694 26.4523 17.8694H19.8029C18.5406 17.8694 17.5332 16.8616 17.5332 15.5988V8.94252C17.5332 7.6794 18.5481 6.67307 19.8105 6.67307Z" stroke="#808000" stroke-opacity="0.501961" stroke-width="0.5" stroke-miterlimit="20" stroke-linejoin="round"/>
<defs>
<linearGradient id="paint0_linear_509_25206" x1="9.74854" y1="20.3406" x2="3.70331" y2="8.38925" gradientUnits="userSpaceOnUse">
<stop stop-color="#FF0000"/>
<stop offset="1" stop-color="#FFE0E0"/>
</linearGradient>
<linearGradient id="paint1_linear_509_25206" x1="1.47757" y1="14.3633" x2="4.19237" y2="14.3633" gradientUnits="userSpaceOnUse">
<stop stop-color="white"/>
<stop offset="1" stop-color="white" stop-opacity="0"/>
</linearGradient>
<linearGradient id="paint2_linear_509_25206" x1="17.4472" y1="12.5701" x2="11.4351" y2="0.618712" gradientUnits="userSpaceOnUse">
<stop stop-color="#0000FF"/>
<stop offset="1" stop-color="#E0E0FF"/>
</linearGradient>
<linearGradient id="paint3_linear_509_25206" x1="9.24968" y1="6.59276" x2="11.958" y2="6.59276" gradientUnits="userSpaceOnUse">
<stop stop-color="white"/>
<stop offset="1" stop-color="white" stop-opacity="0"/>
</linearGradient>
<linearGradient id="paint4_linear_509_25206" x1="20.1168" y1="6.29391" x2="26.1564" y2="18.2453" gradientUnits="userSpaceOnUse">
<stop stop-color="#FFFFE0"/>
<stop offset="1" stop-color="#FFFF00"/>
</linearGradient>
<linearGradient id="paint5_linear_509_25206" x1="17.9043" y1="12.2713" x2="20.6191" y2="12.2713" gradientUnits="userSpaceOnUse">
<stop stop-color="white"/>
<stop offset="1" stop-color="white" stop-opacity="0"/>
</linearGradient>
</defs>
</svg>
