<svg width="27" height="28" viewBox="0 0 27 28" fill="none" xmlns="http://www.w3.org/2000/svg">
<g clip-path="url(#clip0_509_24852)">
<path fill-rule="evenodd" clip-rule="evenodd" d="M7.79712 7.6573C7.98211 9.60468 8.16563 11.5411 8.35336 13.5209C8.65943 12.9947 8.88092 12.4899 9.21504 12.0764C9.52618 11.6913 9.91831 11.3358 10.345 11.0897C10.9021 10.7682 11.6326 11.0709 11.8132 11.6411C11.8617 11.794 11.7459 11.999 11.7054 12.1802C11.5691 12.1083 11.3934 12.0686 11.3044 11.9585C10.9262 11.4909 10.6984 11.4356 10.2801 11.8398C9.49981 12.5941 9.06106 13.5391 8.89357 14.6012C8.8613 14.8066 8.98976 15.0372 9.04397 15.2561C9.25723 15.1827 9.50487 15.1557 9.67721 15.0275C10.2375 14.6104 10.5847 14.0432 10.7762 13.3653C10.8177 13.2185 11.043 13.1238 11.1839 13.005C11.2514 13.1438 11.4054 13.3073 11.3731 13.4172C11.0748 14.4381 10.7558 15.4528 10.4163 16.4608C10.3822 16.5629 10.1946 16.6137 10.078 16.6884C10.0309 16.5542 9.93202 16.4137 9.94784 16.2874C9.98328 16.0009 10.0755 15.7214 10.1398 15.459L8.61261 16.1621C8.69804 17.137 8.78663 18.2308 8.89168 19.323C8.97225 20.157 9.10873 20.373 9.93012 20.5312C10.8886 20.7158 11.8651 20.8337 12.8394 20.9054C14.2743 21.0135 15.7171 20.8777 17.1066 20.5038C17.6281 20.3638 17.8361 20.0208 17.8734 19.5088C17.9076 19.0374 17.9839 18.5689 18.0369 18.0987C18.1409 17.1725 18.2419 16.246 18.3482 15.281C17.9966 15.5038 17.72 15.7531 17.3967 15.8588C17.1613 15.9358 16.8643 15.8231 16.5945 15.7949C16.6462 15.5472 16.643 15.2681 16.7624 15.0593C16.9569 14.718 17.2315 14.4221 17.472 14.1069L17.3684 13.9823C17.1961 14.0841 16.982 14.151 16.8594 14.2955C16.6101 14.5896 16.366 14.9043 16.1992 15.2489C15.9199 15.8259 15.7071 16.4348 15.4571 17.0263C15.3485 17.2828 15.2548 17.6751 14.8909 17.5254C14.5018 17.3649 14.7756 17.0221 14.8669 16.7782C15.0122 16.3893 15.2042 16.0176 15.3341 15.7316C14.9658 15.7754 14.5925 15.8284 14.2174 15.8611C14.0588 15.8746 13.8702 15.7877 13.7405 15.8463C13.3091 16.0412 13.0358 15.963 12.9461 15.4854C12.7463 15.6151 12.5772 15.7908 12.3778 15.8381C12.1359 15.8957 11.8077 15.9334 11.6305 15.8126C11.4885 15.7158 11.4368 15.3519 11.4854 15.1384C11.5818 14.714 11.7619 14.3061 11.933 13.9025C12.0389 13.6526 12.1454 13.2535 12.5027 13.4273C12.8558 13.5988 12.5352 13.8882 12.4538 14.1204C12.3274 14.4794 12.1988 14.8378 12.0713 15.1964L12.2738 15.3188C12.4666 15.1513 12.7069 15.0148 12.8419 14.8094C13.063 14.4735 13.1965 14.0812 13.4057 13.7365C13.4924 13.5937 13.6791 13.5119 13.8207 13.4024C13.8493 13.5842 13.9181 13.7711 13.8953 13.9466C13.8728 14.124 13.7481 14.2862 13.6884 14.4617C13.5987 14.7246 13.5264 14.9933 13.4353 15.2989C13.8662 15.3154 14.0508 15.134 14.1725 14.814C14.5577 13.803 14.9471 12.793 15.3704 11.7976C15.4428 11.6271 15.6887 11.531 15.8547 11.4002C15.8739 11.6056 15.9655 11.8385 15.9003 12.0117C15.5533 12.9291 15.1637 13.83 14.7975 14.7402C14.7357 14.8935 14.7159 15.0637 14.6768 15.2262C15.3221 14.9361 15.8606 14.6155 16.0572 13.9297C16.1053 13.7631 16.3023 13.6393 16.4308 13.4956L16.7295 13.812C16.8202 13.7357 16.9033 13.6488 17.0018 13.5853C17.3119 13.3855 17.6458 13.2094 17.9727 13.5188C18.3111 13.8388 18.055 14.1506 17.8782 14.4273C17.6859 14.7292 17.4503 15.0032 17.2334 15.2892C17.7211 14.9749 18.387 14.834 18.4756 14.1548C18.6916 12.4958 18.8815 10.8334 19.074 9.17141C19.1312 8.67951 19.1618 8.18444 19.2063 7.67186C15.3651 8.60188 11.6064 8.60758 7.79712 7.6573ZM9.44581 20.6023C9.6308 21.0911 9.91177 21.5712 9.98539 22.0812C10.1408 23.1669 10.1803 24.2691 10.2904 25.3621C10.3064 25.5214 10.4096 25.7401 10.5383 25.8102C12.4325 26.8395 14.345 27.018 16.2777 25.8922C16.566 25.7243 16.6194 25.5026 16.6567 25.1909C16.8375 23.6761 16.435 22.0694 17.4034 20.643C14.6916 21.3157 12.045 21.3366 9.44581 20.6023ZM15.983 7.9292C16.9031 7.8404 17.812 7.6244 18.722 7.44595C18.8935 7.41241 19.0458 7.28184 19.2069 7.19598C18.9945 7.00931 18.8108 6.91945 18.6188 6.89688C17.6633 6.78402 16.7044 6.69712 15.7495 6.57878C15.6052 6.56085 15.3476 6.38282 15.3584 6.35034C15.637 5.51081 15.6233 4.56053 16.2557 3.85305C17.055 2.95867 17.8624 2.0721 18.6638 1.18511C18.0677 0.54386 18.0597 0.543016 17.5194 1.10432C17.214 1.42157 16.9349 1.76877 16.6035 2.05607C15.3774 3.11877 14.5161 4.37744 14.3482 6.03688C14.3096 6.41763 14.1006 6.55516 13.7008 6.56106C12.3812 6.58026 11.0601 6.61654 9.74344 6.70323C9.09101 6.74606 8.4466 6.91354 7.79839 7.02449L7.79248 7.26686C8.19811 7.39195 8.59594 7.55627 9.01022 7.63579C11.3187 8.07834 13.6489 8.15427 15.983 7.9292ZM15.2455 7.34955C14.723 7.77142 14.2913 7.77142 13.8742 7.34955H15.2455Z" fill="#EB4A4B"/>
</g>
<defs>
<clipPath id="clip0_509_24852">
<rect width="27" height="27" fill="white" transform="translate(0 0.177673)"/>
</clipPath>
</defs>
</svg>
