<svg width="23" height="25" viewBox="0 0 23 25" fill="none" xmlns="http://www.w3.org/2000/svg">
<g clip-path="url(#clip0_531_24013)">
<path d="M18.5078 24.5435H4.34844C3.76776 24.541 3.21154 24.2992 2.80094 23.8707C2.39034 23.4423 2.15862 22.8619 2.15625 22.256V2.83096C2.15862 2.22503 2.39034 1.64463 2.80094 1.21618C3.21154 0.787721 3.76776 0.545925 4.34844 0.543457L18.5078 0.543457C19.0885 0.545925 19.6447 0.787721 20.0553 1.21618C20.4659 1.64463 20.6976 2.22503 20.7 2.83096V22.256C20.6976 22.8619 20.4659 23.4423 20.0553 23.8707C19.6447 24.2992 19.0885 24.541 18.5078 24.5435Z" fill="#6762A6"/>
<path d="M13.7819 21.2388V11.7091C13.7819 11.7091 14.3749 9.42629 6.45967 12.6466C6.45068 12.731 6.45068 3.82473 6.45068 3.82473L9.0292 3.81067V9.43567C9.0292 9.43567 16.2616 6.45911 16.2616 11.6857V21.1825H13.7685L13.7819 21.2388ZM15.2554 7.24192H12.5601C13.5483 5.97629 14.4468 3.82004 14.4468 3.82004H17.2769C17.2769 3.82004 16.7917 5.22629 15.3003 7.24192H15.2554ZM6.49561 21.22V15.7966L9.10107 18.5154L6.49561 21.2341V21.22Z" fill="white"/>
</g>
<defs>
<clipPath id="clip0_531_24013">
<rect width="23" height="24" fill="white" transform="translate(0 0.543457)"/>
</clipPath>
</defs>
</svg>
