<svg width="31" height="31" viewBox="0 0 31 31" fill="none" xmlns="http://www.w3.org/2000/svg">
<path fill-rule="evenodd" clip-rule="evenodd" d="M18.0564 4.68092C17.7926 3.95759 8.707 0.425548 8.59121 0.813335C6.92291 1.24822 6.24394 3.17109 5.09634 4.38906L2.54787 4.24312C1.42528 5.68677 0.836164 7.1618 1.23728 8.69479C2.67613 10.6442 4.34642 12.3031 5.38748 14.7514C5.46977 15.9056 10.3828 14.8724 11.4359 14.644C9.99735 15.6737 8.74465 17.2697 9.28296 21.8667C9.77441 24.0253 10.1106 26.4355 14.4694 28.877C15.0432 29.1984 16.2305 29.5692 16.9646 29.8395C17.6667 30.1615 18.4877 30.2939 20.8038 29.5856C22.144 29.0079 23.5911 28.6599 24.9026 28.0836L23.3262 28.1576C21.1554 28.2049 19.4792 28.3668 18.9626 27.7603L16.9647 24.3113L18.1295 22.049C19.7414 22.2143 20.2765 23.5215 21.6973 24.0194L23.3719 22.7787C28.2364 25.65 30.1712 20.959 30.7258 17.3055C30.6667 15.8191 27.5074 17.7714 27.6989 17.0767C27.7731 15.4788 26.4706 13.3883 25.6291 11.7594L26.603 7.99112C27.0449 7.59717 24.5572 3.40551 22.5257 2.88275C20.7434 2.42371 18.0566 4.68096 18.0566 4.68096L18.0564 4.68092Z" fill="#FDEE21"/>
<path fill-rule="evenodd" clip-rule="evenodd" d="M26.047 12.6901C26.0641 13.0949 26.0624 13.5872 26.1016 13.8942C26.0948 14.1285 25.9192 14.1375 25.7739 14.1861L26.7204 14.5328C26.9084 14.849 27.0594 15.1653 27.2119 15.4815C27.3889 16.2594 27.2565 16.2816 27.1391 16.3389C26.7956 16.3424 26.4531 16.343 26.1334 16.2751C26.2766 16.3507 26.3081 16.4058 26.3233 16.5026C26.3513 16.6812 26.2363 16.925 26.047 17.1599C26.3269 17.3152 26.8373 17.4672 27.2165 17.6114L27.6488 16.6491C27.453 15.2353 26.8594 13.9325 26.047 12.69V12.6901ZM27.8136 17.4323C28.3385 17.6511 29.0638 17.5869 30.0693 17.0687C30.2188 16.9624 30.3581 17.0259 30.0906 17.2009C28.7717 18.3843 28.1404 17.7923 27.8136 17.4323H27.8136Z" fill="#C8C037"/>
<path fill-rule="evenodd" clip-rule="evenodd" d="M30.17 16.9136C30.3259 17.2122 30.2314 17.455 30.1791 17.7072C30.0163 18.9901 29.6165 20.0043 28.8321 21.0642C26.2807 25.1661 23.7049 22.5995 21.6512 20.929L20.8017 23.0576C20.7566 23.2442 20.5688 23.3895 21.8958 23.9736L23.2473 23.0189C28.4016 26.9407 32.054 17.5296 30.1699 16.9137L30.17 16.9136ZM22.2728 20.5791C21.9251 20.6039 20.8902 20.9558 20.8441 21.1596L21.3203 20.4501L22.2728 20.5791ZM21.5965 16.2295C21.6603 16.2295 21.9661 16.3116 21.9333 16.2933C21.8864 16.2672 21.928 16.7222 22.0243 16.9593L21.6512 17.7712C22.3659 16.9469 23.4962 17.0017 24.5454 16.8954L24.0448 16.5853C24.1318 16.2953 24.0294 16.0658 23.9811 15.819L21.5965 16.2295ZM23.3529 13.7846C22.586 14.0197 21.8519 14.4038 21.359 15.2225C21.735 13.873 21.8117 13.9242 21.9331 13.8575C22.4589 13.6224 22.8896 13.769 23.3529 13.7846Z" fill="#C8C037"/>
<path fill-rule="evenodd" clip-rule="evenodd" d="M19.2574 29.6026C18.3301 30.6258 16.261 29.5252 14.5427 28.964C10.1763 26.1875 9.32332 23.5737 9.26371 21.0096C9.03923 17.3366 10.1671 15.2024 11.5937 14.6971C10.6495 16.5172 10.2097 19.7843 10.6471 22.2137C11.0005 23.5653 11.0079 25.845 13.2693 27.0652C14.3767 27.6887 14.0768 28.174 14.8256 28.7579C15.6462 29.3978 17.9343 30.0061 19.2571 29.6026L19.2574 29.6026ZM20.6428 12.6284C19.0728 10.4017 16.8643 9.56624 14.3745 9.47491C14.8735 9.31219 15.3726 9.22751 15.8716 8.98689C15.9938 8.8585 15.9539 8.63254 15.9081 8.40309C13.5111 7.77722 11.9983 7.0037 10.0834 6.28671L15.2527 7.52731C18.7435 7.65996 18.444 8.52186 20.6427 12.6281L20.6428 12.6284ZM22.3238 11.5544C21.1635 9.89809 20.0382 7.8879 18.511 6.60944C14.8236 4.94511 11.1759 3.70905 6.90137 2.58427L8.26571 0.829773C12.802 1.86525 17.0628 3.59799 20.8791 6.45473C21.5248 8.08741 21.9554 9.72225 22.3238 11.5545V11.5544ZM24.6628 8.6275C24.6628 8.6275 24.0123 7.16817 23.6956 6.61095C22.961 5.7968 22.5892 4.27964 21.0848 3.56476C21.5607 3.69323 21.8864 3.54017 22.858 4.42091L24.3882 7.32362L24.6628 8.6275ZM25.472 11.1557C25.622 9.8913 25.9068 7.86358 25.5799 7.06197L22.8381 3.40917C22.6863 3.26793 22.577 3.0762 22.4578 2.9267C23.7459 3.2605 25.0908 4.15631 26.9043 7.69284L25.472 11.1557Z" fill="#FCF6A0"/>
<path fill-rule="evenodd" clip-rule="evenodd" d="M20.0556 11.3051C19.5424 10.9008 19.0851 9.47232 18.3075 9.17566C17.5881 9.11543 17.3238 8.88899 16.3773 9.08179C16.7206 8.90982 17.0447 8.68969 17.4096 8.57188C17.6568 8.51354 17.8886 8.57818 18.1244 8.61069C18.1827 8.58315 18.2208 8.54893 18.2066 8.4972C17.2538 7.90843 15.2993 7.90004 13.98 7.56394C15.5113 7.61519 17.2055 7.53037 18.3563 7.89966C19.2817 8.7209 19.5823 10.2675 20.0556 11.3053V11.3051ZM22.8612 4.41626C23.0736 4.43555 24.2169 6.24396 24.2706 6.54487C24.3657 7.20267 24.6002 7.94008 24.6632 8.62837C24.4749 7.96824 24.2697 7.30822 24.0132 6.64812C23.9378 6.46636 23.7486 6.05541 23.2216 5.47414C22.9763 5.06443 22.9236 4.74242 22.8613 4.41629L22.8612 4.41626ZM26.7357 14.2659H26.2462L26.7868 14.4078L26.7357 14.2659ZM23.3984 13.7777C22.9065 13.7172 22.4015 13.7092 21.91 13.8173C21.7095 14.0866 21.6957 14.3605 21.6081 14.6136C22.206 13.9546 22.4433 13.9144 23.3983 13.7777L23.3984 13.7777ZM30.1065 17.1784C29.8325 17.3968 29.8055 17.6025 28.9962 17.8489C28.406 17.9884 28.0726 17.7519 27.7948 17.4338C28.2159 17.5545 28.2833 17.8723 29.4126 17.5159L30.1065 17.1784ZM27.6537 17.3154C27.4568 17.8571 27.2444 18.4048 27.0303 18.9118C26.5204 19.5097 26.7377 19.169 25.9745 20.0976C26.2187 19.7209 26.5363 19.3589 26.7026 18.9665C26.819 18.7081 26.9647 18.434 27.0291 18.2045C26.8267 18.1034 26.4125 18.0954 26.3563 18.1317C25.6777 18.5319 25.5553 18.9555 25.1553 19.3679C25.4452 18.9044 25.6928 18.3985 26.029 17.9813C26.0673 17.9272 26.3162 17.9167 26.4692 17.8847C26.2314 17.8436 25.7914 17.7584 25.756 17.7623C25.3133 17.8687 25.0652 18.2542 24.7366 18.5104C24.9762 18.1644 25.1969 17.8043 25.5011 17.5069C25.5312 17.472 26.3535 17.544 26.7797 17.7141L26.7882 17.8836L27.0301 17.9813L27.2122 17.5252L27.6537 17.3154ZM22.284 20.5811C22.1748 20.5434 21.21 20.4201 21.21 20.4489C20.8396 20.7125 20.7834 20.9648 20.7914 21.1832C21.408 20.577 21.3848 20.5752 22.2841 20.5811L22.284 20.5811ZM21.5509 16.2202C21.5509 16.2202 22.2471 16.1187 22.2335 16.1837C22.1831 16.4252 22.3187 17.0139 22.3336 16.9318L21.9423 17.251C22.7619 16.8389 23.6247 16.9218 24.4998 16.8588C24.4998 16.8588 23.763 16.6554 23.808 16.649C23.9724 16.6257 23.7643 15.8806 23.7079 15.8645C23.8484 15.817 23.9849 15.7813 24.1265 15.7459C23.0729 15.4702 22.4637 15.6326 21.5508 16.2203L21.5509 16.2202Z" fill="black"/>
<path fill-rule="evenodd" clip-rule="evenodd" d="M27.5766 16.7402L27.4218 16.8177C27.3999 16.3645 26.9131 16.3978 26.5026 16.3936L26.1659 16.3115C26.2686 16.4062 26.5848 16.3988 26.4571 16.6033C26.3496 16.6608 26.3002 16.9072 26.2387 17.1142L26.0566 17.1233L27.0305 17.5064L27.2395 17.5383L27.74 17.2692L27.5766 16.7402Z" fill="black"/>
<path fill-rule="evenodd" clip-rule="evenodd" d="M22.962 16.4346C22.8837 16.2796 22.4895 16.3017 22.4045 16.4019C22.3354 16.4835 22.4002 17.0063 22.4888 16.9181C22.6168 16.8056 22.784 16.7585 22.9848 16.7676C23.0102 16.671 23.0011 16.5667 22.9621 16.4346L22.962 16.4346ZM26.7423 17.2136C26.7793 17.1862 26.8577 16.9244 26.8324 16.846C26.7806 16.6609 26.414 16.6998 26.414 16.6998C26.3249 16.7524 26.2461 17.041 26.2789 17.1363C26.2945 17.2169 26.6831 17.2426 26.7422 17.2137L26.7423 17.2136Z" fill="white"/>
<path fill-rule="evenodd" clip-rule="evenodd" d="M11.067 26.2588L11.2986 26.2814C12.6712 26.9554 14.9315 27.9548 18.2037 27.4177L18.7171 28.2256C17.2761 28.9259 15.7261 28.7648 14.274 28.8139L11.067 26.2588ZM9.09619 20.9305L9.78383 23.8173C11.6248 24.9681 14.7696 26.2862 17.3909 26.1798L16.8119 24.8506C11.3401 23.6886 10.8773 22.2197 9.09664 20.9303L9.09619 20.9305ZM10.8073 15.0178C11.143 17.2548 11.592 18.9505 13.5376 20.3714C14.7299 21.2289 15.9133 22.0827 17.3528 22.7874C17.3528 22.7874 17.2266 23.4441 17.1211 23.4324C12.8373 22.9563 9.70106 19.4045 9.32081 17.7821C9.68873 16.5376 10.2166 15.7603 10.8076 15.0178L10.8073 15.0178ZM12.8661 13.7503C13.437 16.2297 14.7981 18.7408 16.1514 21.0189C16.6473 21.6482 16.7771 21.9258 17.5415 22.309C18.5747 22.6362 19.3053 22.5526 20.0552 22.5035C19.8497 22.1231 19.667 21.7256 19.4311 21.3682C17.7519 20.0402 18.528 18.8311 18.974 18.0656C18.0403 17.8297 16.8031 17.3282 16.6327 16.6687C16.3587 14.5355 16.4978 13.8588 16.7721 12.7634C15.5081 13.03 14.2269 13.2942 12.8669 13.7507L12.8661 13.7503Z" fill="black"/>
<path fill-rule="evenodd" clip-rule="evenodd" d="M8.22833 0.580575C7.81279 0.852059 7.4124 1.24022 6.98138 1.68142C6.26737 2.42051 5.79267 3.14144 5.06591 3.67598C4.92056 3.80136 4.51267 4.00313 3.99984 4.03311C3.75826 4.04517 3.60089 4.08518 3.15699 4.02941C2.7655 3.81743 2.39358 3.95528 2.03063 4.38911C1.63256 4.96119 1.12851 6.0484 0.918891 6.73227C0.487256 8.4772 1.58827 9.91489 2.64454 11.0229C3.5842 11.9409 4.12591 12.5145 4.51171 13.3561C4.80381 13.9019 5.02021 14.651 5.2545 15.1761C5.33897 15.3426 5.3214 15.3417 5.5491 15.3919C6.04011 15.4968 6.7212 15.4975 7.32754 15.5497C7.58988 15.5533 7.95016 15.5436 8.29153 15.508C8.76188 15.4191 9.31454 15.3321 9.77773 15.1722C10.2304 15.0608 10.6336 14.9064 10.9972 14.7643C10.9502 14.9234 10.604 15.0766 10.4741 15.2783C9.24192 17.0425 8.90438 18.6117 9.11893 21.0882C9.24027 22.1859 9.4922 23.0958 9.87231 24.137C10.0462 24.6134 10.4164 25.3679 10.7711 25.8692C11.8262 27.3595 14.1855 29.2734 17.4703 30.0101C18.0434 30.0885 18.6938 30.0467 19.3055 29.8838C20.9267 29.3923 24.2309 28.23 24.2309 28.23C24.2309 28.23 21.2978 28.4727 19.9546 28.3399C19.6436 28.2912 19.301 28.2748 19.0843 28.0628C19.048 28.0159 18.916 27.75 19.0012 27.7476C19.1175 27.7443 19.4514 27.6058 19.9673 27.5598C18.8666 27.4413 18.8824 27.4427 18.802 27.2422C18.6771 26.931 18.4858 26.5056 18.2889 26.1334C18.7726 26.1746 19.8434 26.2344 20.2068 25.8593C20.2068 25.8593 19.5731 25.9325 19.0131 25.8668C18.8245 25.8446 18.5027 25.7299 18.4068 25.6944C18.1554 25.5965 17.9484 25.5661 17.9002 25.5026C17.8129 25.2804 17.7538 25.2057 17.6484 24.9081C17.5057 24.514 17.4944 24.0743 17.4669 23.672C17.8332 24.1235 18.2999 24.5035 18.9178 24.6976C18.9257 24.6809 19.7195 25.0426 20.2959 24.8566L20.4158 24.8181C20.4158 24.8284 20.0339 24.8516 19.8938 24.7822C18.7215 24.284 18.5451 23.8478 18.3558 23.6312L17.8496 22.873C18.0036 22.5661 18.0906 22.5544 18.295 22.5515C18.9116 22.62 19.1804 22.6728 19.5558 22.5822C19.8095 23.1043 19.8781 23.6295 20.4556 24.0094C22.3797 24.5806 22.7977 23.8399 23.2637 23.1853C24.6481 24.2013 26.9018 24.5146 28.4673 23.203C30.4572 20.9005 31.0872 17.2707 30.9107 17.0635C30.6622 16.6419 30.3361 16.207 30.0562 16.2672C29.0583 16.5396 28.6903 17.0458 27.7015 16.9304C27.8193 16.9237 28.0174 16.9205 28.0188 16.9093C28.095 16.0721 28.0127 15.6669 27.976 15.5974C27.6759 14.9356 27.2819 14.2392 27.0072 13.7174C26.9364 13.6091 26.7285 12.7868 26.3801 12.4619C26.2306 12.3343 25.8648 11.9979 25.8648 11.9979L25.8338 12.3555C25.8338 12.3555 25.9768 12.3771 26.0312 12.5986C26.2375 13.4385 27.288 15.4243 27.3651 15.5195C27.7374 16.1205 27.403 16.8692 27.686 17.2893C27.7132 17.3427 28.2635 17.2846 28.69 17.3108C29.3913 17.16 29.3614 16.8509 29.9675 16.8044C30.3756 16.7731 30.4166 17.5396 30.4112 17.599C30.3351 18.4453 30.0777 19.4293 29.6837 20.3279C28.8645 21.9061 27.9469 23.3235 26.6461 23.5211C25.0592 23.7984 24.2345 23.1046 23.3742 22.6628L23.0451 22.9435C21.9271 24.0568 20.5992 23.958 20.0565 22.5033C19.7859 21.939 19.434 21.5931 19.1324 21.109L17.533 22.261C17.3999 22.534 17.2362 22.9646 17.0374 23.4456C16.8991 23.7799 16.7832 24.3543 16.7907 24.8315C16.5857 25.1807 17.5008 26.5972 18.0788 27.4587L18.5789 28.1847C18.6936 28.4822 18.9448 28.7448 18.96 28.7768C20.0335 30.1769 17.6058 29.8545 17.1044 29.7703C16.1152 29.6127 15.1476 29.1994 14.2381 28.6469L14.0804 28.5493C12.9996 27.8688 12.0051 26.9981 11.1595 26.1369C10.6553 25.566 10.1752 24.3957 9.82065 23.5661C9.28922 21.5714 8.52657 18.1141 10.5925 15.4942C10.7235 15.3444 10.8648 15.0951 10.9851 15.0454C11.5989 14.6302 12.2655 14.3472 12.9822 14.1901L12.9099 13.7255C12.5519 13.8068 11.3466 14.2477 11.0059 14.4322C10.2309 14.6569 9.58805 14.8915 8.60036 15.1388C8.2793 15.1781 7.96345 15.1788 7.65555 15.137C6.94507 15.0404 5.73395 15.1267 5.65667 15.0549C5.17557 14.384 5.04347 13.1819 4.60489 12.5385L4.59975 12.5321L4.5942 12.526C4.3383 12.1821 4.04003 11.9015 3.74627 11.6096C2.69432 10.5648 1.79364 9.55424 1.54192 8.48303C1.47854 8.16684 1.31534 7.839 1.40208 6.90379L1.40369 6.8992L1.4052 6.89461C1.65829 6.02062 2.07002 5.30852 2.76883 4.59417C3.49603 4.60592 4.21583 4.62157 4.77651 4.729C5.03344 4.77203 5.56867 4.84191 6.12116 5.04773C7.51959 5.56867 9.36733 6.42485 9.36733 6.42485C7.98034 5.66311 6.42947 4.67381 5.45007 4.47416C5.30434 4.45354 5.21479 4.38705 5.17156 4.27102C6.6446 3.40556 6.91403 2.3869 7.88288 1.47272C8.32565 1.28 8.4983 1.18161 8.87451 1.14071C12.354 1.69087 14.544 3.07673 16.2774 4.00341C16.9807 4.38585 17.6203 4.67505 18.2306 5.02333C18.7658 5.19941 20.3808 6.41875 20.8536 7.07617C21.3338 8.09 21.6843 9.18512 22.0041 10.2415C22.2334 11.3163 22.4345 11.7523 22.4345 11.7523C22.4345 11.7523 22.2397 10.8533 22.2721 10.6918C22.4742 10.7673 22.9518 10.9164 23.1498 10.8932C23.1498 10.8932 22.2653 10.436 22.1495 10.032C21.7776 8.73547 21.4046 6.71713 21.304 6.61189C21.0206 6.25562 19.8386 5.35069 19.1137 4.93228C18.8394 4.77401 18.6912 4.6758 18.6796 4.60622C18.9112 4.37225 19.1969 4.06274 19.4538 3.86607C19.6996 3.67756 19.9231 3.46527 20.2661 3.33773C21.7721 2.65945 22.6332 3.5987 22.8376 3.4085C22.8376 3.4085 22.5136 3.03716 22.6575 3.09828C22.8049 3.17809 23.2852 3.27223 23.3379 3.32094C23.8868 3.75032 25.3218 5.31962 26.1867 6.97546C26.3945 7.38106 26.4789 7.64812 26.3825 8.13652C26.2859 8.62537 26.2112 8.89418 26.1058 9.22064C26.0106 9.43886 25.4721 10.9331 25.4742 11.1338C25.3657 11.9536 25.8258 12.98 25.8258 12.98C25.8302 12.7014 25.8087 12.553 25.8339 12.3537L25.8649 11.9977C25.8649 11.9977 25.8453 11.903 25.8488 11.8655C25.8722 11.6193 25.9326 11.4123 25.9503 11.2713C26.1232 10.2006 26.4238 9.42982 26.7647 8.49026C26.8661 8.25313 26.9986 8.12131 26.9919 7.94078C26.9974 7.62041 26.7108 7.19042 26.5036 6.77046C26.2947 6.34568 26.0446 5.87287 25.7171 5.37416C24.9696 4.29932 24.3324 3.45835 23.1656 2.93165C22.8392 2.78839 21.5546 2.64835 21.1109 2.73159C20.5731 2.84371 20.1099 2.95426 19.7407 3.19056C19.16 3.56239 18.7037 4.13811 18.1683 4.47725C16.9844 3.88522 16.413 3.44215 16.3064 3.38103C15.6028 3.004 14.758 2.56647 13.8492 2.15121C13.4134 1.74486 10.7078 0.772961 8.2297 0.579102L8.22833 0.580575ZM23.3726 22.6625C22.6429 22.0921 22.0287 21.5046 21.6238 20.9003C21.4916 21.6114 21.0118 22.1179 20.641 22.616C20.5672 22.7325 20.514 22.8921 20.8774 23.3998C20.9754 23.535 21.3299 23.5582 21.5691 23.5457C21.3257 23.3617 20.9553 23.1671 20.8957 22.9984C21.3239 23.2896 21.7204 23.3738 22.0788 23.3268C22.161 23.3175 22.2624 23.2307 22.3411 23.0971C22.5008 22.7538 22.6259 22.6712 22.7523 22.5788L23.0436 22.9436L23.3726 22.6625Z" fill="black" stroke="black" stroke-width="0.00829852"/>
</svg>
