<svg width="58" height="30" viewBox="0 0 58 30" fill="none" xmlns="http://www.w3.org/2000/svg">
<path d="M2.02295 6.78798H17.7023V16.6045H2.02295V6.78798Z" fill="#0099FF"/>
<path d="M2.02295 16.6045H11.8419V22.4697H2.02295V16.6045Z" fill="#F1422A"/>
<path d="M11.8418 16.6045H17.707V22.4697H11.8418V16.6045Z" fill="#333333"/>
<path d="M19.7393 9.69765H22.8761V19.5576H19.7393V9.69765ZM37.6661 9.69765H32.2866V12.8345H34.5268V19.5576H37.6637V12.8345H39.9039V9.69765H37.6661ZM46.1824 9.69765H40.8029V12.8345H43.0432V19.5576H46.1583V12.8345H48.3985V9.69765H46.1824ZM54.6988 9.69765H49.3193V12.8345H51.5595V19.5576H54.6963V12.8345H56.9366V9.69765H54.6988ZM31.4166 12.8345V9.69765H24.2463V19.5576H27.3832V16.8679H30.0729V13.7335H27.3566V12.8393L31.4166 12.8345Z" fill="#0099FF"/>
</svg>
