<svg width="22" height="22" viewBox="0 0 22 22" fill="none" xmlns="http://www.w3.org/2000/svg">
<g clip-path="url(#clip0_544_35333)">
<path d="M20.0119 0.717957H1.99554C0.895557 0.717957 0.00390625 1.56908 0.00390625 2.61906V19.8085C0.00390625 20.8665 0.895557 21.7176 1.99554 21.7176H20.0036C21.1035 21.7176 21.9952 20.8665 21.9952 19.8165V2.61906C22.0035 1.56908 21.1119 0.717957 20.0119 0.717957Z" fill="#FF3366"/>
<path d="M7.35385 7.32808C8.08717 7.32808 8.69549 6.77923 8.69549 6.06333C8.69549 5.34744 8.07884 4.79858 7.35385 4.79858C6.62053 4.79858 6.01221 5.34744 6.01221 6.06333C6.01221 6.77923 6.62886 7.32808 7.35385 7.32808Z" fill="white"/>
<path d="M4.57053 14.0973C4.49553 14.4154 4.45387 14.7654 4.45387 15.0438C4.45387 16.1575 5.08719 16.8972 6.42883 16.8972C7.54548 16.8972 8.44546 16.2688 9.09545 15.2427L8.69546 16.762H10.9121L12.1787 11.9178C12.4954 10.6928 13.1037 10.0564 14.037 10.0564C14.7704 10.0564 15.2203 10.4939 15.2203 11.2098C15.2203 11.4166 15.2037 11.6473 15.1203 11.8859L14.4704 14.1132C14.3704 14.4314 14.3287 14.7575 14.3287 15.0598C14.3287 16.1177 14.9787 16.8893 16.3453 16.8893C17.512 16.8893 18.437 16.1734 18.9536 14.4552L18.087 14.137C17.6536 15.2904 17.2786 15.4972 16.9786 15.4972C16.6787 15.4972 16.5203 15.3063 16.5203 14.9325C16.5203 14.7654 16.562 14.5745 16.6203 14.3439L17.2536 12.1723C17.412 11.6632 17.4703 11.2098 17.4703 10.7962C17.4703 9.17349 16.4453 8.33032 15.1953 8.33032C14.0287 8.33032 12.8454 9.33258 12.2537 10.3905L12.6871 8.49737H9.30378L8.82879 10.1678H10.4121L9.43711 13.8905C8.67046 15.5132 7.27048 15.537 7.09549 15.5052C6.80382 15.4416 6.6205 15.3382 6.6205 14.9802C6.6205 14.7734 6.66216 14.4791 6.76216 14.1132L8.24547 8.49737H4.4872L4.01221 10.1678H5.57051L4.57053 14.0973Z" fill="white"/>
</g>
<defs>
<clipPath id="clip0_544_35333">
<rect width="22" height="21" fill="white" transform="translate(0 0.717957)"/>
</clipPath>
</defs>
</svg>
