<svg width="50" height="18" viewBox="0 0 50 18" fill="none" xmlns="http://www.w3.org/2000/svg">
<g clip-path="url(#clip0_526_23219)">
<path d="M8.43844 4.83379C7.67774 4.83379 6.93413 5.06101 6.30163 5.48671C5.66914 5.9124 5.17616 6.51746 4.88506 7.22537C4.59395 7.93328 4.51778 8.71224 4.66619 9.46375C4.81459 10.2153 5.1809 10.9056 5.7188 11.4474C6.25669 11.9892 6.94201 12.3582 7.68809 12.5077C8.43418 12.6571 9.20751 12.5804 9.9103 12.2872C10.6131 11.994 11.2138 11.4974 11.6364 10.8603C12.059 10.2232 12.2846 9.47418 12.2846 8.70794C12.2834 7.68083 11.8778 6.69614 11.1567 5.96986C10.4357 5.24358 9.45813 4.83502 8.43844 4.83379Z" fill="#478AFF"/>
<path d="M13.961 5.17727C14.9286 5.17727 15.713 4.38716 15.713 3.41251C15.713 2.43785 14.9286 1.64774 13.961 1.64774C12.9934 1.64774 12.209 2.43785 12.209 3.41251C12.209 4.38716 12.9934 5.17727 13.961 5.17727Z" fill="#478AFF"/>
<path d="M16.1184 5.18652L16.0449 5.02461L15.9301 5.15876C15.6428 5.48705 15.2796 5.73889 14.8727 5.89196L14.7579 5.93359L14.8038 6.04924C15.4225 7.54806 15.5008 9.21777 15.0251 10.7687C14.5494 12.3196 13.5498 13.6538 12.1995 14.5399C10.8493 15.426 9.23371 15.808 7.63309 15.6196C6.03247 15.4313 4.5478 14.6845 3.43669 13.5088C2.32558 12.333 1.65812 10.8026 1.55014 9.18304C1.44215 7.56345 1.90044 5.95689 2.8455 4.64208C3.79056 3.32727 5.16275 2.38719 6.72399 1.98495C8.28524 1.5827 9.93702 1.74366 11.3928 2.43992L11.5007 2.49196L11.5478 2.37631C11.7193 1.97434 11.9867 1.62121 12.3262 1.34822L12.4639 1.23257L12.3067 1.15046C11.1117 0.524885 9.78422 0.199921 8.43754 0.203319C6.61424 0.203583 4.84005 0.798604 3.3805 1.89933C1.92096 3.00006 0.85455 4.54729 0.340878 6.30947C-0.172794 8.07165 -0.106105 9.95401 0.530967 11.6748C1.16804 13.3956 2.34123 14.8624 3.87496 15.8555C5.40869 16.8486 7.22047 17.3147 9.03915 17.1841C10.8578 17.0534 12.5856 16.333 13.9639 15.1307C15.3422 13.9284 16.2968 12.3088 16.685 10.5143C17.0732 8.71986 16.874 6.84702 16.1172 5.17611L16.1184 5.18652Z" fill="#478AFF"/>
<path d="M22.9998 5.00726H21.2202V12.4086H22.9998V5.00726Z" fill="#478AFF"/>
<path d="M42.2044 5.00726H40.4248V12.4086H42.2044V5.00726Z" fill="#478AFF"/>
<path d="M36.3159 4.83379C35.0644 4.83379 34.0977 5.59359 33.8761 5.80291L33.7613 5.00726H32.2803V12.4086H34.0598V7.92733C34.0598 7.05305 35.2447 6.3291 36.1115 6.3291C36.9783 6.3291 37.6293 7.16407 37.6293 8.15862V12.4086H39.4089V8.33556C39.4031 6.39502 38.5719 4.83379 36.3159 4.83379Z" fill="#478AFF"/>
<path d="M46.8762 11.0637C45.5387 11.0637 44.6546 10.009 44.6546 8.70794C44.6546 7.40692 45.5387 6.35223 46.8762 6.35223C48.0174 6.35223 48.7132 7.4659 48.7132 7.4659L50.0025 6.5974C49.6294 6.01917 49.1988 5.67223 48.611 5.31372C48.1037 5.0037 47.5224 4.83785 46.929 4.83379C44.7029 4.83379 43.0025 6.5176 42.9922 8.70794C43.0025 10.8983 44.7029 12.5821 46.929 12.5821C47.5201 12.5768 48.0988 12.411 48.6041 12.1022C49.192 11.7448 49.6225 11.3967 49.9956 10.8185L48.7063 9.94998C48.7063 9.94998 48.0174 11.0637 46.8762 11.0637Z" fill="#478AFF"/>
<path d="M27.6407 4.8338C27.1358 4.82562 26.6344 4.91917 26.166 5.10897C25.6975 5.29876 25.2714 5.58096 24.9128 5.93898C24.5541 6.29701 24.2702 6.72363 24.0775 7.19378C23.8849 7.66393 23.7875 8.16812 23.7911 8.67672C23.7911 10.7757 25.3502 12.5821 27.6671 12.5821C29.7647 12.5821 31.4834 10.963 31.4834 8.72183C31.4834 6.15563 29.4846 4.8338 27.6407 4.8338ZM27.6625 6.3557C28.7659 6.3557 29.8106 7.25774 29.8106 8.71142C29.8106 10.1339 28.7704 11.0614 27.6579 11.0614C26.4352 11.0614 25.4765 10.0714 25.4765 8.69985C25.4765 7.35836 26.4283 6.3557 27.6683 6.3557H27.6625Z" fill="#478AFF"/>
</g>
<defs>
<clipPath id="clip0_526_23219">
<rect width="50" height="17" fill="white" transform="translate(0 0.207947)"/>
</clipPath>
</defs>
</svg>
