<svg width="21" height="22" viewBox="0 0 21 22" fill="none" xmlns="http://www.w3.org/2000/svg">
<g clip-path="url(#clip0_544_35417)">
<path d="M9.68515 8.81393H11.3116L11.7156 8.25773V3.90059H9.28125V8.25809L9.68515 8.81393Z" fill="#8A4182"/>
<path d="M10.1406 17.3108H10.8152V13.9985H10.1406V17.3108ZM4.12603 12.9103L3.91767 12.2687L7.0676 11.2455L7.27587 11.8872L4.12603 12.9103ZM8.19041 7.86856L6.24393 5.1889L6.78992 4.79229L8.7364 7.47213L8.19041 7.86856ZM12.8409 7.89315L12.2951 7.49663L14.2417 4.81679L14.7877 5.21322L12.8409 7.89315ZM16.8584 12.9506L13.7083 11.9269L13.9167 11.2851L17.0666 12.3088L16.8584 12.9506ZM11.8575 9.21031L12.3603 10.7573L13.0142 10.9694L17.158 9.62321L16.4059 7.30807L12.2616 8.65472L11.8575 9.21031ZM12.1535 11.3988L10.8375 12.3547L10.8377 13.042L13.3987 16.5672L15.3683 15.1365L12.8067 11.6112L12.1535 11.3988ZM10.1629 12.3551L8.84727 11.3988L8.19334 11.6116L5.63232 15.1366L7.60156 16.5673L10.1629 13.0421L10.1629 12.3551ZM8.63862 10.7573L9.14113 9.21061L8.73697 8.65432L4.5931 7.3079L3.84082 9.62303L7.98541 10.9696L8.63862 10.7573ZM10.501 0.118561C4.71135 0.118561 0.000976562 4.82804 0.000976562 10.6168C0.000976562 16.4076 4.71135 21.1186 10.501 21.1186C16.2901 21.1186 20.9997 16.4076 20.9997 10.6168C20.9997 4.82804 16.2901 0.118561 10.501 0.118561ZM10.501 2.24426C15.1243 2.24426 18.8738 5.99224 18.8738 10.6168C18.8738 15.2429 15.1243 18.9925 10.501 18.9925C5.87591 18.9925 2.12704 15.2429 2.12704 10.6168C2.12704 5.99224 5.87591 2.24426 10.501 2.24426Z" fill="#8A4182"/>
</g>
<defs>
<clipPath id="clip0_544_35417">
<rect width="21" height="21" fill="white" transform="translate(0 0.118561)"/>
</clipPath>
</defs>
</svg>
