<svg width="32" height="32" viewBox="0 0 32 32" fill="none" xmlns="http://www.w3.org/2000/svg">
<g clip-path="url(#clip0_509_24986)">
<path d="M12.328 23.9039C12.328 23.9039 11.1735 24.5757 13.1507 24.8024C15.5465 25.0761 16.7707 25.0368 19.4101 24.5379C19.4101 24.5379 20.1054 24.9727 21.0746 25.3495C15.1558 27.8852 7.67972 25.2025 12.328 23.9039ZM11.6044 20.5944C11.6044 20.5944 10.3092 21.5532 12.2881 21.7581C14.8473 22.0223 16.8678 22.0439 20.366 21.3706C20.366 21.3706 20.8487 21.861 21.6089 22.1289C14.4542 24.2214 6.48526 22.2936 11.6044 20.5944Z" fill="#0074BD"/>
<path d="M17.701 14.9795C19.1601 16.6591 17.3183 18.1691 17.3183 18.1691C17.3183 18.1691 21.0211 16.258 19.3209 13.8638C17.7324 11.632 16.5147 10.5235 23.1075 6.69985C23.1075 6.70009 12.7586 9.28399 17.701 14.9795Z" fill="#EA2D2E"/>
<path d="M25.5289 26.3522C25.5289 26.3522 26.3836 27.0569 24.5873 27.6016C21.172 28.6362 10.3694 28.9482 7.36922 27.643C6.29124 27.1737 8.3135 26.5229 8.94973 26.3856C9.61308 26.242 9.99186 26.2681 9.99186 26.2681C8.79231 25.4236 2.23872 27.9271 6.66348 28.6452C18.7295 30.6011 28.6582 27.7643 25.5289 26.3522ZM12.8841 17.1648C12.8841 17.1648 7.3898 18.4699 10.9386 18.9444C12.4372 19.1449 15.4234 19.0989 18.2069 18.8654C20.481 18.6743 22.7631 18.2662 22.7631 18.2662C22.7631 18.2662 21.962 18.6099 21.3817 19.0056C15.8012 20.4735 5.02339 19.7898 8.12654 18.2892C10.7499 17.0204 12.8841 17.1648 12.8841 17.1648ZM22.7404 22.6738C28.4126 19.7271 25.7898 16.8952 23.9591 17.2767C23.5115 17.3699 23.3107 17.451 23.3107 17.451C23.3107 17.451 23.4773 17.1897 23.7951 17.0773C27.4165 15.8046 30.2012 20.832 22.627 22.8232C22.627 22.8228 22.714 22.744 22.7404 22.6738Z" fill="#0074BD"/>
<path d="M19.3209 0.524794C19.3209 0.524794 22.4616 3.66742 16.3413 8.49833C11.4331 12.3748 15.2222 14.5845 16.3396 17.1103C13.4743 14.5254 11.3726 12.2496 12.7824 10.1316C14.8526 7.02341 20.5878 5.51579 19.3209 0.524794Z" fill="#EA2D2E"/>
<path d="M13.4414 30.6612C18.8848 31.0092 27.2461 30.4674 27.4439 27.8915C27.4439 27.8915 27.0634 28.868 22.9448 29.6428C18.2982 30.5175 12.5661 30.4156 9.16748 29.8544C9.16748 29.8547 9.86377 30.4311 13.4414 30.6612Z" fill="#0074BD"/>
</g>
<defs>
<clipPath id="clip0_509_24986">
<rect width="31" height="31" fill="white" transform="translate(0.795898 0.140442)"/>
</clipPath>
</defs>
</svg>
