<svg width="28" height="27" viewBox="0 0 28 27" fill="none" xmlns="http://www.w3.org/2000/svg">
<g clip-path="url(#clip0_544_36233)">
<path opacity="0.3" d="M15.6731 1.08294C15.661 1.1295 15.6607 1.1796 15.6709 1.23236C15.6709 1.23236 15.8354 2.28374 15.6486 2.75163L7.71053 22.6294C7.14395 24.0888 7.90322 25.7193 9.41722 26.2802C10.9312 26.841 12.629 26.1207 13.2244 24.6714L13.225 24.6718L21.1638 4.7942C21.319 4.40534 22.2043 3.65196 22.2043 3.65196C22.2487 3.61936 22.2831 3.58196 22.3066 3.53963L22.3106 3.53193C22.3148 3.52359 22.3198 3.51563 22.3232 3.50697C22.5279 2.99442 21.2076 2.02832 19.3741 1.34936C17.5406 0.670398 15.8882 0.535389 15.6835 1.04801C15.68 1.05666 15.6781 1.0657 15.6755 1.07467L15.6731 1.08288V1.08294Z" fill="black"/>
<path d="M15.4436 0.914079C15.4314 0.96064 15.4304 1.01074 15.4414 1.06349C15.4414 1.06349 15.6059 2.11488 15.4191 2.58277L7.48101 22.4604C6.9145 23.9198 7.6737 25.5504 9.18771 26.1112C10.7017 26.6721 12.3995 25.9518 12.9949 24.5025V24.5028L20.9343 4.62527C21.0895 4.23642 21.9748 3.48304 21.9748 3.48304C22.0192 3.45044 22.0537 3.4131 22.0772 3.37071L22.081 3.363C22.0852 3.35479 22.0902 3.3467 22.0936 3.33804C22.2983 2.82549 20.978 1.85946 19.1446 1.18043C17.3112 0.501408 15.6587 0.366463 15.4541 0.879079C15.4506 0.887734 15.4486 0.896769 15.4461 0.90574L15.4436 0.914079Z" fill="url(#paint0_linear_544_36233)"/>
<path d="M17.9336 9.90647L12.2124 24.2423C11.7901 25.2697 10.5613 25.8042 9.47131 25.4005C8.38132 24.9968 7.79125 23.7887 8.19276 22.7536L11.8509 13.5941C11.8509 13.5941 12.3077 12.8844 13.2048 12.3795C14.1018 11.8746 14.8417 11.9812 15.8377 11.5549C16.8337 11.1286 17.9336 9.9064 17.9336 9.9064L17.9336 9.90647Z" fill="url(#paint1_linear_544_36233)"/>
<path d="M18.5455 2.68294C19.6835 3.10442 20.6993 3.21244 20.8144 2.92422C20.9296 2.63599 20.1004 2.06067 18.9624 1.63919C17.8244 1.21771 16.8085 1.10969 16.6934 1.39791C16.5783 1.68614 17.4075 2.26147 18.5455 2.68294Z" fill="#333333"/>
<path opacity="0.3" d="M15.4414 1.06335C15.4414 1.06335 15.6034 2.12074 15.4191 2.58263L7.48101 22.4604C6.9145 23.9198 7.6737 25.5504 9.18771 26.1112C9.45046 26.2085 9.71859 26.2663 9.98574 26.2895C8.96517 25.5502 8.52731 24.2279 8.99554 23.0214L8.99489 23.0211L16.776 3.53799C16.776 3.53799 15.7169 2.58023 15.4414 1.06335Z" fill="white"/>
<path opacity="0.5" d="M12.8853 14.1076C13.0123 14.1076 13.1153 14.0084 13.1153 13.8861C13.1153 13.7637 13.0123 13.6646 12.8853 13.6646C12.7583 13.6646 12.6553 13.7637 12.6553 13.8861C12.6553 14.0084 12.7583 14.1076 12.8853 14.1076Z" fill="white"/>
<path opacity="0.5" d="M14.3931 15.826C14.5846 15.826 14.7398 15.6765 14.7398 15.4921C14.7398 15.3077 14.5846 15.1582 14.3931 15.1582C14.2016 15.1582 14.0464 15.3077 14.0464 15.4921C14.0464 15.6765 14.2016 15.826 14.3931 15.826Z" fill="white"/>
<path opacity="0.5" d="M12.0914 18.0285C12.4507 18.0285 12.7419 17.748 12.7419 17.4021C12.7419 17.0561 12.4507 16.7757 12.0914 16.7757C11.7322 16.7757 11.4409 17.0561 11.4409 17.4021C11.4409 17.748 11.7322 18.0285 12.0914 18.0285Z" fill="white"/>
<path opacity="0.5" d="M11.0382 18.8944C11.2297 18.8944 11.385 18.7449 11.385 18.5605C11.385 18.376 11.2297 18.2265 11.0382 18.2265C10.8467 18.2265 10.6914 18.376 10.6914 18.5605C10.6914 18.7449 10.8467 18.8944 11.0382 18.8944Z" fill="white"/>
<path opacity="0.5" d="M12.4195 21.2593C12.5465 21.2593 12.6495 21.1601 12.6495 21.0378C12.6495 20.9155 12.5465 20.8163 12.4195 20.8163C12.2924 20.8163 12.1895 20.9155 12.1895 21.0378C12.1895 21.1601 12.2924 21.2593 12.4195 21.2593Z" fill="white"/>
</g>
<defs>
<linearGradient id="paint0_linear_544_36233" x1="10.8467" y1="12.4167" x2="17.42" y2="15.0416" gradientUnits="userSpaceOnUse">
<stop stop-color="#919191"/>
<stop offset="1" stop-color="white"/>
</linearGradient>
<linearGradient id="paint1_linear_544_36233" x1="10.6768" y1="16.5331" x2="14.6564" y2="18.1223" gradientUnits="userSpaceOnUse">
<stop stop-color="#990000"/>
<stop offset="1" stop-color="#E80000"/>
</linearGradient>
<clipPath id="clip0_544_36233">
<rect width="27" height="26" fill="white" transform="translate(0.935547 0.559326)"/>
</clipPath>
</defs>
</svg>
