<svg width="34" height="35" viewBox="0 0 34 35" fill="none" xmlns="http://www.w3.org/2000/svg">
<g clip-path="url(#clip0_531_23727)">
<path fill-rule="evenodd" clip-rule="evenodd" d="M29.0011 16.9114C29.0011 23.6477 23.6621 29.1089 17.0767 29.1089C10.4913 29.1089 5.15332 23.6477 5.15332 16.9114C5.15332 10.1752 10.4913 4.71393 17.0767 4.71393C23.6621 4.71393 29.0011 10.1752 29.0011 16.9114Z" fill="#D33833"/>
<path d="M5.63753 19.9321C5.63753 19.9321 4.77478 7.21292 16.4942 6.84955L15.676 5.48636L9.31591 7.61136L7.50966 9.7013L5.92016 12.7454L5.01172 16.2888L5.28478 18.6507" fill="#EF3D3A"/>
<path d="M8.90898 8.59207C6.81585 10.733 5.52173 13.6889 5.52173 16.9582C5.52173 20.2275 6.81798 23.1844 8.90898 25.3233C11 27.4621 13.8868 28.7838 17.0764 28.7838C20.266 28.7838 23.1507 27.4631 25.2439 25.3233C27.337 23.1834 28.6311 20.2264 28.6311 16.9582C28.6311 13.6899 27.3349 10.7319 25.2439 8.59207C23.1529 6.45219 20.266 5.1315 17.0764 5.1315C13.8868 5.1315 11.0021 6.45219 8.90898 8.59207ZM8.37985 25.8418C6.15604 23.568 4.78223 20.4251 4.78223 16.9593C4.78223 13.4934 6.1571 10.3505 8.37985 8.07675C10.6026 5.803 13.6796 4.392 17.0764 4.39307C20.4732 4.39413 23.5502 5.803 25.773 8.07675C27.9957 10.3505 29.3717 13.4934 29.3717 16.9593C29.3717 20.4251 27.9968 23.568 25.773 25.8418C23.5492 28.1155 20.4732 29.5254 17.0764 29.5254C13.6796 29.5254 10.6026 28.1155 8.37985 25.8418Z" fill="#231F20"/>
<path fill-rule="evenodd" clip-rule="evenodd" d="M22.0956 16.9794L20.2894 17.2525L17.835 17.5255L16.2455 17.5712L14.7006 17.5255L13.5191 17.1622L12.4747 16.0253L11.6566 13.709L11.4759 13.2097L10.3858 12.8463L9.74832 11.8019L9.28613 10.3027L9.78551 8.98517L10.967 8.57611L11.9211 9.03086L12.3759 10.0296L12.9209 9.93824L13.1016 9.71086L12.9209 8.66642L12.8753 7.34892L13.1483 5.54267L13.1377 4.50461L13.9664 3.18073L15.4199 2.1363L17.9614 1.03448L20.7771 1.44355L23.2314 3.21474L24.3683 5.02098L25.0951 6.33848L25.2757 9.60886L24.7306 12.4245L23.7319 14.9214L22.7778 16.2389" fill="#F0D6B7"/>
<path fill-rule="evenodd" clip-rule="evenodd" d="M20.5508 24.8377L14.0547 25.1107V26.2008L14.5997 30.0152L14.3267 30.334L9.78555 28.7902L9.4668 28.2451L9.01205 23.1132L7.96761 20.0245L7.74023 19.2978L11.374 16.8009L12.5109 16.3462L13.5096 17.5723L14.3724 18.3447L15.3711 18.6635L15.8248 18.7995L16.3699 21.1614L16.7789 21.6608L17.8234 21.2974L17.0966 22.7052L21.0491 24.5678L20.5497 24.8408" fill="#335061"/>
<path fill-rule="evenodd" clip-rule="evenodd" d="M9.78569 8.98517L10.9672 8.57611L11.9213 9.03086L12.3761 10.0296L12.9211 9.93824L13.0571 9.39317L12.7841 8.34874L13.0571 5.84974L12.8298 4.48655L13.6479 3.53242L15.4191 2.12461L14.9197 1.44461L12.4207 2.67074L11.3763 3.48886L10.7855 4.76067L9.87707 5.9868L9.604 7.4403L9.78463 8.98517" fill="#6D6B6D"/>
<path fill-rule="evenodd" clip-rule="evenodd" d="M11.647 4.71393C11.647 4.71393 12.327 3.03306 15.0545 2.21706C17.7819 1.40106 15.1905 1.62631 15.1905 1.62631L12.2367 2.76318L11.0998 3.90006L10.6005 4.8085L11.6449 4.71712M10.2849 8.66643C10.2849 8.66643 9.33077 5.48637 12.9656 5.03268L12.8296 4.48762L10.3327 5.07837L9.60596 7.44031L9.78658 8.98518L10.2849 8.66643Z" fill="#DCD9D8"/>
<path fill-rule="evenodd" clip-rule="evenodd" d="M11.7383 12.8909L12.3333 12.3151C12.3392 12.3999 12.3733 12.4803 12.4301 12.5436C12.4868 12.6069 12.5631 12.6495 12.6467 12.6646C12.6924 12.9834 12.8273 15.8447 14.7717 17.3896C14.9502 17.5309 13.3182 17.1622 13.3182 17.1622L11.8647 14.8906M20.0863 12.0271C20.0863 12.0271 20.1926 10.6501 20.5645 10.7564C20.9363 10.8626 20.9363 11.2345 20.9363 11.2345C20.9363 11.2345 20.0353 11.8167 20.0885 12.0292" fill="#F7E4CD"/>
<path d="M23.8678 6.9845C23.8678 6.9845 23.1188 7.14387 23.0497 7.80262C22.9806 8.46137 23.8678 7.93862 24.0038 7.894M18.3811 7.03018C18.3811 7.03018 17.3823 7.16618 17.3823 7.80262C17.3823 8.43906 18.5192 8.39337 18.8358 8.12137" fill="#F7E4CD"/>
<path fill-rule="evenodd" clip-rule="evenodd" d="M12.1923 9.98393C12.1923 9.98393 10.4657 8.93843 10.2851 9.93824C10.1044 10.9381 9.69432 11.6648 10.5581 12.7092L9.96739 12.5286L9.42232 11.1208L9.2417 9.75761L10.2861 8.66749L11.4676 8.75886L12.1476 9.30393L12.1923 9.98393ZM13.0114 7.12155C13.0114 7.12155 13.7839 3.12443 17.6907 2.3403C20.9069 1.70493 22.5963 2.4763 23.2327 3.20305C23.2327 3.20305 20.3703 -0.203323 17.644 0.841114C14.9176 1.88555 12.9201 3.81611 12.9626 5.03055L13.0083 7.12049M23.5483 3.66736C23.5483 3.66736 22.2308 3.62168 22.1851 4.80424C22.1898 4.9303 22.2205 5.05402 22.2754 5.16761C22.2754 5.16761 23.3209 3.98611 23.9563 4.62255M17.7799 5.2898C17.7799 5.2898 17.5536 3.47718 16.0077 4.53118C15.0089 5.21118 15.0993 6.16743 15.2809 6.33743C15.4626 6.50743 15.4138 6.88461 15.5519 6.63493C15.69 6.38524 15.6443 5.56605 16.1448 5.33868C16.6452 5.1113 17.4623 4.85736 17.781 5.28024" fill="#F7E4CD"/>
<path fill-rule="evenodd" clip-rule="evenodd" d="M13.5095 17.5702L9.23827 19.4784C9.23827 19.4784 11.0095 26.5196 10.101 28.7009L9.46352 28.4736L9.41784 25.7929L8.24059 20.7152L7.74121 19.3074L12.2037 16.309L13.5212 17.5808M13.9505 21.4642L14.5561 22.2037V24.9291H13.8293L13.739 22.8041C13.739 22.5767 13.8293 21.7596 13.8293 21.7596M13.9643 25.3371L11.92 25.4274L12.5108 25.8364L13.9643 26.0638" fill="#49728B"/>
<path fill-rule="evenodd" clip-rule="evenodd" d="M20.96 24.8834L22.6408 24.8377L23.0499 29.0176L21.3233 29.2449L20.96 24.8834Z" fill="#335061"/>
<path fill-rule="evenodd" clip-rule="evenodd" d="M21.4146 24.8834L23.9583 24.7474L25.0027 21.9764C25.0027 21.8404 25.9111 18.162 25.9111 18.162L23.8669 16.0264L23.4578 15.663L22.3677 16.7531V20.9776L21.4136 24.8844" fill="#335061"/>
<path fill-rule="evenodd" clip-rule="evenodd" d="M22.5504 24.5657L20.9609 24.8844L21.1883 26.1562C21.7791 26.4293 22.7778 25.7015 22.7778 25.7015M22.5951 16.6171L25.7751 18.9791L25.8665 17.8889L23.4589 15.663L22.5951 16.6171Z" fill="#49728B"/>
<path fill-rule="evenodd" clip-rule="evenodd" d="M15.541 33.8328L14.6007 30.0163L14.1332 27.2007L14.0557 25.1107L18.312 24.8844H20.9609L20.7197 29.6657L21.1287 33.3451L21.083 34.0251L17.6299 34.2982L15.54 33.8434" fill="white"/>
<path fill-rule="evenodd" clip-rule="evenodd" d="M20.3679 24.8377C20.3679 24.8377 20.1406 29.5626 20.8227 32.9127C20.8227 32.9127 19.4595 33.7754 17.4609 34.0028L21.2753 33.8668L21.7301 33.5937L21.185 26.1435L21.049 24.5529" fill="#DCD9D8"/>
<path fill-rule="evenodd" clip-rule="evenodd" d="M23.1273 28.6542L24.8984 28.1548L28.2602 27.9742L28.7596 26.4293L27.8511 23.7486L26.8067 23.6126L25.3532 24.0674L23.9581 24.7474L23.2176 24.6114L22.6406 24.8377" fill="white"/>
<path fill-rule="evenodd" clip-rule="evenodd" d="M23.0952 27.7447C23.0952 27.7447 24.2767 27.1996 24.4584 27.2453L23.959 24.7463L24.5498 24.5189L24.9588 27.1539L27.7298 27.2899C27.7298 27.2899 28.2749 26.2455 28.1389 25.1649L28.6383 26.6184L28.684 27.4365L27.9572 28.5267L27.1391 28.7073L25.7759 28.6616L25.3212 28.0709L23.7317 28.2982L23.2323 28.4789" fill="#DCD9D8"/>
<path d="M21.3093 24.5189L20.3106 21.9753L19.2661 20.4772C19.2661 20.4772 19.4935 19.8397 19.8112 19.8397H20.8556L21.8544 20.2031L21.7641 21.8839L21.3093 24.5189Z" fill="white"/>
<path fill-rule="evenodd" clip-rule="evenodd" d="M21.5048 23.6583C21.5048 23.6583 20.233 21.2039 20.233 20.8427C20.233 20.8427 20.4604 20.2976 20.7781 20.4336C21.0957 20.5696 21.7768 20.933 21.7768 20.933V20.0702L20.2319 19.7515L19.1875 19.8875L20.9587 24.0674L21.3221 24.1131" fill="#DCD9D8"/>
<path d="M15.9483 17.6605L14.6903 17.5224L13.5088 17.159V17.5681L14.0857 18.2056L15.892 19.0237" fill="white"/>
<path fill-rule="evenodd" clip-rule="evenodd" d="M13.9187 17.7975C13.9187 17.7975 15.3265 18.3883 15.7813 18.2523L15.827 18.7974L14.5552 18.5254L13.7827 17.9803L13.9187 17.7997" fill="#DCD9D8"/>
<path fill-rule="evenodd" clip-rule="evenodd" d="M23.1222 19.9959C22.3519 19.9746 21.656 19.8822 21.0451 19.709C21.0876 19.4593 21.0089 19.2139 21.0716 19.0332C21.2416 18.911 21.5264 18.9132 21.7835 18.8845C21.5604 18.775 21.2491 18.7325 20.993 18.7952C20.9866 18.622 20.908 18.5147 20.8623 18.3787C21.2958 18.2236 22.3179 17.21 22.8938 17.5457C23.1679 17.7051 23.2848 18.6189 23.3061 19.0609C23.3241 19.4285 23.2742 19.8004 23.1222 19.9959Z" fill="#D33833"/>
<path d="M23.1222 19.9959C22.3519 19.9746 21.656 19.8822 21.0451 19.709C21.0876 19.4593 21.0089 19.2139 21.0716 19.0332C21.2416 18.911 21.5264 18.9132 21.7835 18.8845C21.5604 18.775 21.2491 18.7325 20.993 18.7952C20.9866 18.622 20.908 18.5147 20.8623 18.3787C21.2958 18.2236 22.3179 17.21 22.8938 17.5457C23.1679 17.7051 23.2848 18.6189 23.3061 19.0609C23.3241 19.4285 23.2742 19.8004 23.1222 19.9959Z" stroke="#D33833" stroke-width="0.514"/>
<path fill-rule="evenodd" clip-rule="evenodd" d="M19.4364 18.7357L19.43 18.9121C19.1888 19.0715 18.801 19.0683 18.5375 19.2011C18.9264 19.2181 19.2334 19.3116 19.4991 19.4455L19.4821 19.8864C19.0411 20.1882 18.6384 20.6387 18.1189 20.9213C17.8745 21.0552 17.0118 21.3994 16.7504 21.3389C16.6016 21.3049 16.5889 21.1211 16.5304 20.9479C16.4051 20.576 16.1161 19.9884 16.0895 19.4306C16.0576 18.7262 15.9864 17.5468 16.7451 17.6913C17.3724 17.8244 17.9777 18.0458 18.5428 18.349C18.8329 18.5084 18.9997 18.7028 19.4396 18.7368" fill="#D33833"/>
<path d="M19.4364 18.7357L19.43 18.9121C19.1888 19.0715 18.801 19.0683 18.5375 19.2011C18.9264 19.2181 19.2334 19.3116 19.4991 19.4455L19.4821 19.8864C19.0411 20.1882 18.6384 20.6387 18.1189 20.9213C17.8745 21.0552 17.0118 21.3994 16.7504 21.3389C16.6016 21.3049 16.5889 21.1211 16.5304 20.9479C16.4051 20.576 16.1161 19.9884 16.0895 19.4306C16.0576 18.7262 15.9864 17.5468 16.7451 17.6913C17.3724 17.8244 17.9777 18.0458 18.5428 18.349C18.8329 18.5084 18.9997 18.7028 19.4396 18.7368L19.4364 18.7357Z" stroke="#D33833" stroke-width="0.514"/>
<path fill-rule="evenodd" clip-rule="evenodd" d="M19.8741 19.5762C19.8071 19.1937 19.7285 19.0832 19.7593 18.7474C20.7825 18.0653 20.9738 19.9183 19.8741 19.5762Z" fill="#D33833"/>
<path d="M19.8741 19.5762C19.8071 19.1937 19.7285 19.0832 19.7593 18.7474C20.7825 18.0653 20.9738 19.9183 19.8741 19.5762Z" stroke="#D33833" stroke-width="0.514"/>
<path fill-rule="evenodd" clip-rule="evenodd" d="M21.3563 19.8864C21.3563 19.8864 21.0375 19.4317 21.2649 19.2957C21.4923 19.1597 21.7196 19.2957 21.8556 19.0683C21.9916 18.8409 21.8556 18.7049 21.9013 18.4308C21.947 18.1567 22.1744 18.1121 22.4007 18.0674C22.627 18.0228 23.2635 17.9314 23.3548 18.1588L23.0818 17.3407L22.5367 17.1601L20.8101 18.1588L20.7188 18.6582V19.6569M16.575 21.3846L16.3986 19.2596C16.2924 18.2024 16.6536 18.3862 17.5695 18.3862C17.7098 18.3862 18.4195 18.553 18.4833 18.6593C18.7308 19.165 18.0583 19.0524 18.7701 19.4349C19.3609 19.7568 20.4043 19.2394 20.1652 18.5233C20.0313 18.3639 19.4693 18.4733 19.2674 18.3692L18.2028 17.8167C17.7512 17.5829 16.7078 17.2408 16.2265 17.5681C15.0068 18.3968 16.303 20.4708 16.7386 21.3357" fill="#EF3D3A"/>
<path fill-rule="evenodd" clip-rule="evenodd" d="M17.7809 5.29087C16.5431 5.004 15.9279 5.80937 15.5517 6.64556C15.2171 6.56481 15.3392 6.109 15.4455 5.87631C15.658 5.26644 16.5611 4.45575 17.29 4.56519C17.6045 4.613 18.0295 4.89987 17.7915 5.29087M23.8137 6.69019L23.8722 6.69231C24.1516 7.2735 24.4034 7.88975 24.7466 8.39231C24.5097 8.94269 22.9563 9.43038 22.9797 8.44119C23.3154 8.29456 23.8956 8.41144 24.1941 8.22338C24.022 7.75056 23.7734 7.34788 23.8116 6.67956M18.4141 6.71569C18.6797 7.20231 18.7647 7.71444 19.143 8.081C19.313 8.24675 19.6424 8.44863 19.4798 8.90975C19.3638 9.08731 19.1972 9.22608 19.0017 9.30819C18.412 9.48244 17.036 9.34431 17.5142 8.60906C18.0029 8.63031 18.6574 8.92569 19.0229 8.57188C18.7424 8.12563 18.2441 7.23844 18.4279 6.71675M23.6023 11.6627C22.7141 12.2332 21.7238 12.8527 20.2682 12.7103C19.9569 12.4404 19.8389 11.8391 20.1407 11.4406C20.2979 11.7105 20.1991 12.2088 20.6379 12.2832C21.4635 12.4245 22.425 11.7785 23.0179 11.5522C23.3866 10.9306 22.9861 10.7022 22.6546 10.3027C21.9746 9.48456 21.064 8.46881 21.0969 7.24269C21.3711 7.044 21.3944 7.54656 21.4348 7.63794C21.7897 8.46669 22.6822 9.52919 23.3335 10.2411C23.4929 10.4164 23.7585 10.5843 23.7861 10.7001C23.8711 11.0369 23.5662 11.4396 23.6012 11.6638M11.8819 11.0613C11.6035 10.9019 11.5376 10.2028 11.2104 10.1826C10.7429 10.1539 10.8279 11.0911 10.83 11.6382C10.5081 11.3461 10.4517 10.4483 10.6876 9.98606C10.4188 9.85431 10.2977 10.1316 10.1489 10.2304C10.3402 8.83644 12.1889 9.59294 11.8808 11.0624M24.158 12.2311C23.733 13.0174 23.1592 13.8844 21.9459 13.9099C21.9214 13.6549 21.9034 13.2692 21.9469 13.1162C22.8745 13.0269 23.4482 12.5552 24.158 12.2311ZM18.3451 12.7411C19.1186 13.1481 20.5412 13.1916 21.5931 13.1608C21.6494 13.3914 21.6484 13.6761 21.6505 13.9577C20.2979 14.0246 18.6999 13.6921 18.3567 12.7411M18.208 13.4998C18.7435 14.8438 20.5827 14.6898 22.1339 14.6515C22.0659 14.8258 21.9172 15.0319 21.7334 15.1062C21.2361 15.3188 19.8655 15.4622 19.1759 15.0956C18.7382 14.8619 18.4577 14.337 18.2176 14.0289C18.1113 13.8801 17.5248 13.4998 18.2091 13.4976" fill="#231F20"/>
<path fill-rule="evenodd" clip-rule="evenodd" d="M23.5278 20.9234L21.5537 24.0525C21.8661 23.1345 22 21.5981 22.0467 20.4251C22.7001 20.1191 23.2601 20.4942 23.5278 20.9245" fill="#81B0C4"/>
<path fill-rule="evenodd" clip-rule="evenodd" d="M26.9067 24.7888C26.2033 24.9291 25.7092 25.6133 25.0239 25.5687C25.4011 25.0374 26.0609 24.8249 26.9067 24.7888ZM27.2169 25.8896C26.6432 25.9501 25.9706 26.0426 25.3894 25.9958C25.6657 25.5751 26.725 25.7196 27.2169 25.8896ZM27.4156 26.8373C26.7717 26.8511 25.9706 26.8384 25.3586 26.7874C25.7199 26.3985 26.9981 26.6429 27.4156 26.8373Z" fill="#231F20"/>
<path fill-rule="evenodd" clip-rule="evenodd" d="M22.3157 29.4341C22.4082 30.2416 22.7301 31.0629 22.6876 31.9479C22.3317 32.068 22.1266 32.1732 21.6495 32.1711L21.5454 29.5499C21.7792 29.5658 22.1266 29.382 22.3147 29.4436" fill="#DCD9D8"/>
<path fill-rule="evenodd" clip-rule="evenodd" d="M21.2777 17.5128C20.9547 17.7253 20.6785 17.9878 20.3682 18.2141C19.6797 18.2481 19.3036 18.1663 18.7979 17.771C18.8064 17.7391 18.8574 17.7529 18.8584 17.7147C19.5958 18.0441 20.5329 17.5808 21.2777 17.5128Z" fill="#F0D6B7"/>
<path fill-rule="evenodd" clip-rule="evenodd" d="M17.4067 22.5384C17.6086 21.6608 18.4034 21.2061 19.1237 20.7216C19.8675 21.6672 20.3201 22.8784 20.8184 24.0514C19.6412 23.6966 18.4384 23.1207 17.4078 22.5374" fill="#81B0C4"/>
<path fill-rule="evenodd" clip-rule="evenodd" d="M21.5476 29.5509C21.5178 30.2681 21.6177 31.4209 21.6517 32.1721C22.1298 32.1732 22.3338 32.068 22.6898 31.949C22.7301 31.0629 22.4093 30.2437 22.3179 29.4351C22.1298 29.3852 21.7835 29.5679 21.5486 29.5414L21.5476 29.5509ZM14.1186 25.4709C14.4331 28.3631 14.8889 30.7834 15.7251 33.3547C17.5802 33.9178 19.8157 33.9667 21.4562 33.4588C21.1555 32.0138 21.2862 30.2533 21.1109 28.7094L20.8644 25.2C18.8775 24.7856 16.0693 25.1044 14.1196 25.4678L14.1186 25.4709ZM21.3436 25.2213C21.3266 26.4644 21.3988 27.6884 21.4945 28.9326L22.7376 28.7158C22.5941 27.5184 22.6101 26.1711 22.3179 25.1118C21.9779 25.115 21.6815 25.1076 21.3436 25.2213ZM23.7629 25.0215C23.5366 24.9684 23.2741 25.0194 23.0563 25.0236L23.4813 28.2164C23.8213 28.2271 24.002 28.0677 24.2835 28.0124C24.2984 27.0796 24.2017 25.7939 23.7523 25.0215H23.7629ZM27.4264 28.3684C28.1361 28.1963 28.5813 27.3271 28.3826 26.4346C28.2498 25.8354 28.0129 24.7059 27.759 24.3224C27.572 24.0387 27.063 23.6668 26.6571 23.9271C25.9963 24.35 24.8328 24.4733 24.3515 24.9843C24.5927 25.7886 24.6681 26.8926 24.768 27.9115C25.5936 27.9625 26.6083 27.6841 27.2946 27.9795C26.8165 28.1346 26.1939 28.1357 25.7806 28.362C26.1185 28.5256 26.9111 28.4927 27.4275 28.3673L27.4264 28.3684ZM20.8304 24.0546C20.331 22.8827 19.8795 21.6683 19.1357 20.7248C18.4153 21.2082 17.6216 21.6629 17.4187 22.5416C18.4493 23.126 19.6531 23.6998 20.8293 24.0557L20.8304 24.0546ZM22.0586 20.4262C22.0119 21.5981 21.878 23.1356 21.5656 24.0536C22.3094 23.1048 22.9118 21.9998 23.5398 20.9245C23.272 20.4953 22.711 20.1202 22.0586 20.4251V20.4262ZM20.6774 19.9311C20.3948 19.8992 20.1568 20.2551 19.7881 20.1011L19.5416 20.3858C20.3523 21.3633 20.7103 22.7488 21.3478 23.8963C21.6836 22.7934 21.6453 21.5854 21.7197 20.3816C21.2586 20.4113 21.0025 19.964 20.6785 19.93L20.6774 19.9311ZM19.7817 18.7496C19.752 19.0843 19.8295 19.1937 19.8965 19.5783C20.9961 19.9226 20.8038 18.0696 19.7817 18.7496ZM18.562 18.349C17.9968 18.0458 17.3916 17.8244 16.7642 17.6913C16.0056 17.5458 16.0768 18.7262 16.1086 19.4306C16.1341 19.9884 16.4242 20.5781 16.5496 20.9479C16.6091 21.1211 16.6218 21.3038 16.7695 21.3389C17.0309 21.3994 17.8926 21.0552 18.138 20.9213C18.6586 20.6376 19.0603 20.1776 19.5012 19.8864L19.5182 19.4455C19.2526 19.3138 18.9466 19.2192 18.5566 19.2011C18.8223 19.0683 19.209 19.0704 19.4491 18.9121L19.4555 18.7358C19.0156 18.7018 18.8499 18.5063 18.5588 18.3479L18.562 18.349ZM14.0357 17.5266C13.6426 17.9261 15.1386 18.4701 15.6156 18.4999C15.6125 18.247 15.7601 18.009 15.7304 17.8273C15.1641 17.7274 14.4203 17.7933 14.0368 17.5266H14.0357ZM18.8807 17.7136C18.8786 17.7529 18.8276 17.7381 18.8201 17.7699C19.3259 18.1652 19.702 18.2481 20.3905 18.213L21.3 17.5118C20.5563 17.5787 19.6181 18.0409 18.8807 17.7136ZM23.3283 19.063C23.3071 18.6189 23.1902 17.7073 22.9161 17.5479C22.3402 17.2121 21.317 18.2258 20.8846 18.3809C20.9313 18.5169 21.01 18.6253 21.0153 18.7974C21.2703 18.7336 21.5837 18.7761 21.8058 18.8866C21.5486 18.9153 21.2745 18.9132 21.0939 19.0354C21.0301 19.216 21.1088 19.4604 21.0673 19.7111C21.6772 19.8833 22.3742 19.9746 23.1445 19.998C23.2933 19.8036 23.3464 19.4317 23.3283 19.063ZM13.3727 17.9134C13.2495 17.8252 12.4133 16.7383 12.3102 16.7829C10.7983 17.3779 9.38515 18.4085 8.12184 19.386C9.32671 21.97 9.81121 25.1373 9.89834 28.1888C11.2796 28.8338 12.4908 29.7645 14.3608 29.8612L13.8232 25.5177C13.3525 25.319 12.6778 25.5262 12.238 25.4561C12.2337 24.9248 12.9105 25.2223 12.9668 24.8674C13.0093 24.5976 12.595 24.5774 12.7299 24.1524C13.0741 24.2778 13.2548 24.554 13.6224 24.6571C13.9581 23.9239 13.6181 22.6256 13.6649 22.0008C13.6755 21.8861 13.7223 21.3633 13.9805 21.4547C14.2089 21.5354 13.9677 22.8466 13.9911 23.4256C14.0123 23.9601 13.9273 24.4881 14.143 24.8133C15.9525 24.5668 17.7906 24.4074 19.7477 24.3543C19.3174 24.1694 18.8053 23.993 18.2443 23.6785C17.9404 23.5085 16.982 23.1504 16.8949 22.8604C16.7546 22.4003 17.2625 22.1549 17.3486 21.7607C16.4348 22.2601 16.2574 21.2826 16.0417 20.5919C15.8462 19.9651 15.7336 19.4976 15.6868 19.1363C14.9006 18.7613 14.0591 18.3926 13.3812 17.9006L13.3727 17.9134ZM22.5283 16.9146C23.7884 16.3037 24.0158 19.199 23.5217 20.1298C23.5982 20.4081 23.8617 20.5144 23.968 20.7641L21.7686 24.4435C22.302 24.1109 23.0648 24.384 23.6811 24.1248C23.9106 24.0344 24.0763 23.5085 24.2506 23.0888C24.7287 21.9328 25.2302 20.4751 25.4533 19.3701C25.5033 19.1183 25.6414 18.5711 25.6106 18.3469C25.5553 17.9463 25.0124 17.6488 24.7351 17.3906L23.3751 16.1029C23.1594 16.4216 22.6972 16.6341 22.5208 16.8934L22.5283 16.9146ZM10.471 5.74244C9.87071 6.40331 9.99609 7.64006 10.0694 8.52088C11.1531 7.83875 12.5939 8.574 12.5811 9.73531C13.0996 9.7215 12.7745 9.08719 12.681 8.68025C12.375 7.34788 13.1974 5.90075 12.7182 4.68206C11.7885 4.75219 11.0256 5.13256 10.4721 5.74244H10.471ZM14.7656 1.90894C13.4056 2.29356 11.6653 3.28169 11.1075 4.50144C11.5399 4.43769 11.8406 4.22094 12.2656 4.18269C12.4271 4.17206 12.6375 4.25069 12.8234 4.20394C13.1921 4.11256 13.5034 3.28488 13.7828 2.97675C14.0548 2.67606 14.381 2.5475 14.6041 2.27338C14.7476 2.20431 14.9601 2.20963 14.9675 1.99394C14.9038 1.927 14.84 1.88769 14.755 1.88769L14.7656 1.90894ZM21.8387 2.27019C20.4288 1.4765 18.0413 0.878314 16.5411 1.62525C15.3298 2.22875 13.6936 3.2275 13.1358 4.494C13.6564 5.71588 12.9817 6.83469 12.9381 8.07463C12.9148 8.73338 13.2484 9.31031 13.2739 10.0296C13.0954 10.3239 12.5514 10.359 12.1731 10.3399C12.0456 9.7045 11.8225 8.9905 11.1701 8.91825C10.2458 8.81731 9.5679 9.58338 9.5254 10.3845C9.47546 11.3259 10.2479 12.8867 11.3444 12.7783C11.7673 12.7358 11.8714 12.3108 12.3325 12.3161C12.5822 12.8155 11.9468 12.9717 11.882 13.3276C11.865 13.4201 11.9351 13.7803 11.9755 13.9492C12.1742 14.7716 12.6183 15.8351 13.055 16.4609C13.6096 17.2546 14.6976 17.3747 15.8706 17.4523C16.08 17.0018 16.8503 17.0379 17.3528 17.1569C16.7515 16.9189 16.1915 16.3409 15.7272 15.8288C15.196 15.2423 14.6541 14.6122 14.6275 13.8451C15.6337 15.2412 16.4656 16.4609 18.2953 17.0751C19.6797 17.5394 21.2979 16.8626 22.3615 16.1146C22.8035 15.8043 23.067 15.3113 23.3815 14.8608C24.5555 13.1608 25.1027 10.7596 24.9837 8.42206C24.9338 7.45838 24.9359 6.49894 24.6118 5.85081C24.274 5.17294 23.1307 4.56519 22.4613 5.17931C22.337 4.52056 23.0181 4.11256 23.8171 4.35056C23.2476 3.61531 22.6483 2.73131 21.8387 2.27444V2.27019ZM24.4663 24.0164C25.5681 23.4681 27.6272 22.5416 28.3189 24.0185C28.5739 24.5625 28.8735 25.4826 29.0053 26.0447C29.1923 26.8373 28.7928 28.5033 27.9885 28.77C27.2691 29.0038 26.4287 28.991 25.5617 28.8168C25.4597 28.7318 25.346 28.583 25.2663 28.43C24.6469 28.4056 24.0678 28.4619 23.5791 28.7169C23.6258 29.1738 23.3156 29.2481 23.0266 29.3438C22.8109 30.1969 23.4569 31.3115 23.3028 32.0893C23.1923 32.6439 22.5102 32.7289 22.0098 32.833C21.9938 33.1518 22.031 33.3983 22.0661 33.6586C21.9513 34.0804 21.4371 34.3216 20.9505 34.3811C19.3482 34.5723 16.9151 34.6605 15.3723 34.1048C14.942 33.0498 14.6031 31.7673 14.2461 30.5614C12.7426 30.7208 11.5261 29.9133 10.3807 29.382C9.98334 29.1982 9.42446 29.0951 9.28634 28.7806C9.1429 28.4746 9.20134 27.8881 9.16627 27.3356C9.07596 25.9225 8.99627 24.5572 8.63502 23.109C8.46715 22.4588 8.17496 21.8871 7.97096 21.2603C7.7829 20.6801 7.45352 19.964 7.36746 19.3839C7.23996 18.5264 8.04746 18.4786 8.56384 18.1068C9.36071 17.533 9.98759 17.2143 10.8535 16.6958C11.1085 16.5417 11.882 16.1645 11.9691 15.9733C12.1434 15.6184 11.6695 15.1179 11.5441 14.8396C11.3423 14.3997 11.2392 14.0257 11.2105 13.5911C10.4848 13.4764 9.93552 13.045 9.60296 12.5584C9.05365 11.753 8.67221 10.2634 9.14821 9.12969C9.1854 9.04044 9.36071 8.86406 9.39896 8.72806C9.45209 8.45819 9.29696 8.09906 9.2874 7.81219C9.23746 6.3385 9.53709 5.07094 10.5284 4.62469C10.9321 3.03094 12.3718 2.48906 13.7297 1.69006C14.2376 1.39256 14.7965 1.20131 15.3745 0.988814C17.4463 0.225939 20.6275 0.369377 22.3476 1.67094C23.0765 2.22344 24.2431 3.38688 24.6596 4.23156C25.7615 6.4575 25.6828 10.1784 24.9125 12.8867C24.8095 13.2501 24.6575 13.7845 24.4493 14.2212C24.3026 14.5261 23.849 15.1349 23.9042 15.4059C23.9605 15.6843 24.9401 16.428 25.1505 16.6309C25.5288 16.9954 26.247 17.4809 26.3055 17.9399C26.3692 18.4287 26.0898 19.1002 25.9485 19.573L24.4822 24.0143" fill="#231F20"/>
<path fill-rule="evenodd" clip-rule="evenodd" d="M17.1135 13.0971C17.173 13.0174 17.5024 12.8952 17.9635 13.1183C17.9635 13.1183 17.4184 13.2097 17.4641 14.1171L17.2368 14.0714C17.2368 14.0714 17.003 13.2469 17.1156 13.096" fill="#F7E4CD"/>
<path fill-rule="evenodd" clip-rule="evenodd" d="M21.097 20.9086C21.097 21.0467 20.9855 21.1582 20.8473 21.1582C20.7092 21.1582 20.5977 21.0467 20.5977 20.9086C20.5977 20.7704 20.7092 20.6589 20.8473 20.6589C20.9855 20.6589 21.097 20.7704 21.097 20.9086ZM21.3457 22.0773C21.3457 22.2154 21.2341 22.327 21.096 22.327C20.9578 22.327 20.8463 22.2154 20.8463 22.0773C20.8463 21.9392 20.9578 21.8276 21.096 21.8276C21.2341 21.8276 21.3457 21.9392 21.3457 22.0773Z" fill="#1D1919"/>
</g>
<defs>
<clipPath id="clip0_531_23727">
<rect width="34" height="34" fill="white" transform="translate(0 0.527679)"/>
</clipPath>
</defs>
</svg>
