<svg width="26" height="27" viewBox="0 0 26 27" fill="none" xmlns="http://www.w3.org/2000/svg">
<g clip-path="url(#clip0_544_35438)">
<path d="M24.1051 12.9079C24.1051 11.3423 23.0286 10.0248 21.5835 9.6486L24.8205 0.10376H8.77894L12.0233 9.67907C10.6233 10.0853 9.59185 11.3804 9.59185 12.9161C9.59185 14.0454 10.1606 15.0464 11.0145 15.6635C10.6757 16.1454 10.2845 16.5898 9.84047 17.0111C9.00482 17.7939 8.07897 18.3964 7.07797 18.7945C6.17447 18.1851 5.78326 17.1086 6.1371 16.1449C7.51429 15.7233 8.51569 14.4363 8.51569 12.9234C8.51569 11.064 7.00282 9.55842 5.15072 9.55842C3.29132 9.55842 1.77885 11.0713 1.77885 12.9303C1.77929 13.8166 2.13124 14.6666 2.7575 15.2939L2.59907 15.6176C2.09532 16.6564 1.5225 17.8309 1.30435 19.152C0.86763 21.7865 1.58304 23.9019 3.30716 25.0987C4.28216 25.769 5.34654 26.1074 6.49866 26.1074C8.47832 26.1074 10.488 25.1137 12.4299 24.1501C13.8152 23.4652 15.2452 22.7502 16.6529 22.4032C17.1729 22.2753 17.7144 22.2001 18.286 22.1172C19.4454 21.9515 20.6423 21.7784 21.7188 21.1536C22.9758 20.4236 23.8342 19.2036 24.0824 17.8037C24.2705 16.7271 24.0824 15.6432 23.6006 14.6946C23.9244 14.1746 24.1043 13.5653 24.1043 12.9112L24.1051 12.9079ZM22.6374 12.9079C22.6374 13.9544 21.7867 14.8051 20.7402 14.8051C19.6937 14.8051 18.843 13.9544 18.843 12.9079C18.843 12.5691 18.9332 12.2458 19.0908 11.9671C19.1509 11.8614 19.2265 11.7558 19.302 11.6664C19.3806 11.5743 19.469 11.4911 19.5657 11.4182L19.5738 11.4101C19.6339 11.3654 19.7018 11.3199 19.7696 11.2744C19.7696 11.2744 19.7778 11.2744 19.7778 11.2663C19.8078 11.2513 19.8379 11.2285 19.8679 11.2135C19.8761 11.2135 19.883 11.2054 19.8907 11.2054C19.9208 11.1903 19.9585 11.1753 19.9963 11.1607C20.0341 11.146 20.0715 11.1306 20.1019 11.116C20.1101 11.116 20.117 11.1079 20.1247 11.1079C20.1548 11.0997 20.1848 11.0851 20.2149 11.0778C20.223 11.0778 20.2376 11.0697 20.2449 11.0697L20.3506 11.0469H20.3587L20.4716 11.0242C20.4798 11.0242 20.4944 11.0242 20.5017 11.016C20.5318 11.016 20.5618 11.0079 20.5919 11.0079H20.6297C20.6674 11.0079 20.7048 10.9998 20.7499 10.9998H20.8474C20.8753 10.9986 20.9031 11.0012 20.9303 11.0075H20.9453C21.0054 11.0156 21.0656 11.0225 21.1261 11.0376C21.5536 11.1291 21.9368 11.3642 22.2121 11.7039C22.4873 12.0435 22.638 12.4671 22.639 12.9043L22.6374 12.9079ZM10.8793 1.60932H22.7202L20.0024 9.62626C19.8895 9.64901 19.7765 9.68639 19.6636 9.72376L16.8036 3.89001L13.9355 9.68638C13.8225 9.6486 13.7023 9.62626 13.582 9.60351L10.8793 1.60932ZM16.2613 12.2531C16.1183 11.5454 15.7575 10.9133 15.2456 10.4465L16.804 7.30007L18.3774 10.5143C17.8985 10.9879 17.571 11.5931 17.4365 12.2531H16.2613ZM12.49 11.0636L12.5957 11.0408H12.6184C12.6485 11.0327 12.6785 11.0327 12.7086 11.0258H12.7387C12.7687 11.0258 12.7915 11.0177 12.8215 11.0177H13.1153C13.1453 11.0177 13.1681 11.0258 13.1904 11.0258C13.2054 11.0258 13.2132 11.0258 13.2282 11.0339C13.2583 11.042 13.281 11.042 13.3111 11.0489C13.3192 11.0489 13.3261 11.0489 13.3411 11.0571L13.4468 11.0798C13.4845 11.0879 13.5146 11.0949 13.5443 11.1099C13.5524 11.1099 13.5593 11.118 13.5743 11.118C13.5971 11.1261 13.6271 11.133 13.6495 11.1481C13.6576 11.1481 13.6645 11.1562 13.6722 11.1562C13.7023 11.1712 13.7323 11.1789 13.7624 11.194H13.7705C13.8054 11.207 13.8384 11.2248 13.8684 11.2468C13.9062 11.2618 13.9363 11.2846 13.9659 11.2996C13.9741 11.2996 13.9741 11.3077 13.981 11.3077C14.011 11.3228 14.0338 11.3455 14.0638 11.3605L14.072 11.3687C14.1622 11.4365 14.245 11.5117 14.3279 11.5868L14.336 11.5949C14.4112 11.6778 14.4863 11.768 14.5473 11.8659C14.7492 12.1747 14.8565 12.5357 14.856 12.9047C14.856 13.9512 14.0053 14.8019 12.9588 14.8019C11.9123 14.8019 11.0617 13.9512 11.0617 12.9047C11.0535 12.0239 11.6637 11.2789 12.4917 11.0684L12.49 11.0636ZM5.08288 11.0108C6.12938 11.0108 6.98007 11.8614 6.98007 12.9079C6.98007 13.9544 6.12938 14.8051 5.08288 14.8051C4.03638 14.8051 3.18569 13.9544 3.18569 12.9079C3.18569 11.8614 4.03638 11.0108 5.08288 11.0108ZM22.5923 17.5372C22.4265 18.5008 21.8326 19.3438 20.9591 19.8479C20.1385 20.322 19.1298 20.4727 18.0687 20.6239C17.4889 20.7067 16.8792 20.7969 16.2921 20.9399C14.7264 21.3238 13.2209 22.0766 11.7604 22.7993C9.89369 23.7256 8.1326 24.5982 6.49866 24.5982C5.64797 24.5982 4.88788 24.3573 4.16516 23.8531C2.50929 22.7091 2.59175 20.5637 2.78797 19.3893C2.96875 18.2904 3.47291 17.2589 3.95472 16.2733C3.98479 16.2132 4.00754 16.1604 4.0376 16.1003C4.20335 16.1604 4.37641 16.2059 4.5576 16.2359C4.2716 17.8317 5.08451 19.4803 6.66522 20.2932L6.95122 20.4435L7.25997 20.3305C8.57744 19.8634 9.7966 19.1037 10.8732 18.0872C11.4679 17.5326 11.9936 16.9083 12.4388 16.2278C12.6119 16.2579 12.785 16.2656 12.9588 16.2656C14.5245 16.2656 15.842 15.189 16.2182 13.744H17.4829C17.859 15.1968 19.1769 16.2656 20.7422 16.2656C21.341 16.2657 21.9287 16.1045 22.4436 15.7988C22.6394 16.3676 22.6995 16.9505 22.5939 17.5376L22.5923 17.5372Z" fill="#99424F"/>
</g>
<defs>
<clipPath id="clip0_544_35438">
<rect width="26" height="26" fill="white" transform="translate(0 0.10376)"/>
</clipPath>
</defs>
</svg>
