<svg width="19" height="29" viewBox="0 0 19 29" fill="none" xmlns="http://www.w3.org/2000/svg">
<path d="M15.0169 16.4472C14.48 16.4475 13.9493 16.5585 13.4604 16.7727C12.9716 16.987 12.5357 17.2996 12.1821 17.6897L10.4059 16.4752C10.5944 15.9738 10.7031 15.4357 10.7031 14.8722C10.7018 14.3346 10.6047 13.8012 10.4158 13.2954L12.1885 12.0941C12.542 12.4825 12.9772 12.7937 13.465 13.0071C13.9529 13.2204 14.4822 13.331 15.0178 13.3313C16.0199 13.3295 16.9805 12.9443 17.6891 12.2601C18.3978 11.5759 18.7967 10.6484 18.7986 9.68082C18.7967 8.71321 18.3978 7.78577 17.6891 7.10157C16.9805 6.41736 16.0199 6.03217 15.0178 6.03031C14.0156 6.03217 13.055 6.41736 12.3464 7.10157C11.6378 7.78577 11.2388 8.71321 11.2369 9.68082C11.2369 10.0413 11.2931 10.3808 11.3946 10.7177L9.62105 11.9199C8.87973 11.0327 7.81308 10.4123 6.5978 10.2224V8.15744C7.44606 7.98379 8.20694 7.53441 8.75338 6.88435C9.29982 6.23429 9.59873 5.42291 9.6002 4.58569C9.59733 3.61854 9.19783 2.69186 8.4891 2.00839C7.78037 1.32492 6.82011 0.940306 5.81842 0.93869C4.81626 0.94054 3.85569 1.32574 3.14706 2.00994C2.43842 2.69414 2.03946 3.62159 2.03755 4.58919C2.03755 6.32169 3.29452 7.77156 4.9738 8.14431V10.2443C2.6828 10.6223 0.935547 12.5526 0.935547 14.8731C0.935547 17.2049 2.70002 19.1431 5.00733 19.5176V21.7252C3.31264 22.0752 2.03845 23.5452 2.03845 25.2882C2.04037 26.2556 2.4392 27.183 3.14764 27.8671C3.85608 28.5513 4.81642 28.9366 5.81842 28.9387C6.82058 28.9368 7.78115 28.5516 8.48979 27.8674C9.19842 27.1832 9.59738 26.2558 9.5993 25.2882C9.5993 23.5443 8.32602 22.0857 6.63042 21.7252V19.5176C7.82214 19.3251 8.86886 18.7161 9.60292 17.8489L11.391 19.0713C11.2887 19.4045 11.2365 19.7502 11.236 20.0977C11.2379 21.0653 11.6369 21.9927 12.3455 22.6769C13.0541 23.3611 14.0147 23.7463 15.0169 23.7482C16.019 23.7463 16.9796 23.3611 17.6882 22.6769C18.3969 21.9927 18.7958 21.0653 18.7977 20.0977C18.7958 19.1301 18.3969 18.2026 17.6882 17.5184C16.9796 16.8342 16.019 16.449 15.0169 16.4472ZM15.0169 7.91244C16.0273 7.91244 16.8493 8.70694 16.8493 9.68257C16.8493 10.6582 16.0273 11.4518 15.0169 11.4518C14.0064 11.4518 13.1844 10.6582 13.1844 9.68257C13.1844 8.70694 14.0064 7.91244 15.0169 7.91244ZM3.98598 4.58919C3.98598 3.61357 4.80795 2.81994 5.81933 2.81994C6.8307 2.81994 7.65177 3.61357 7.65177 4.58919C7.65177 5.56482 6.8298 6.35844 5.81933 6.35844C4.80886 6.35844 3.98598 5.56482 3.98598 4.58919ZM7.65086 25.2899C7.65086 26.2656 6.82889 27.0592 5.81842 27.0592C4.80795 27.0592 3.98508 26.2656 3.98508 25.2899C3.98508 24.3143 4.80705 23.5207 5.81842 23.5207C6.8298 23.5207 7.65086 24.3143 7.65086 25.2899ZM5.81752 17.3432C4.40739 17.3432 3.26189 16.2363 3.26189 14.8757C3.26189 13.5151 4.4083 12.4082 5.81752 12.4082C7.22673 12.4082 8.37314 13.5151 8.37314 14.8757C8.37314 16.2363 7.22673 17.3432 5.81752 17.3432ZM15.016 21.8687C14.0055 21.8687 13.1835 21.0742 13.1835 20.0986C13.1835 19.1229 14.0055 18.3293 15.016 18.3293C16.0264 18.3293 16.8484 19.1229 16.8484 20.0986C16.8484 21.0742 16.0264 21.8687 15.016 21.8687Z" fill="black"/>
</svg>
