<svg width="34" height="35" viewBox="0 0 34 35" fill="none" xmlns="http://www.w3.org/2000/svg">
<path fill-rule="evenodd" clip-rule="evenodd" d="M33.5038 8.33669C33.5162 8.38206 33.5224 8.42846 33.5224 8.47485V15.7652C33.5224 15.859 33.4976 15.9511 33.4505 16.0322C33.4034 16.1133 33.3358 16.1806 33.2543 16.2271L27.1363 19.7501V26.7321C27.1362 26.8255 27.1116 26.9173 27.0649 26.9981C27.0182 27.079 26.9511 27.1462 26.8703 27.193L14.098 34.5462C14.0681 34.5627 14.0361 34.573 14.0052 34.5844C13.9928 34.5885 13.9815 34.5957 13.9691 34.5998C13.8799 34.6233 13.7861 34.6233 13.6969 34.5998C13.6815 34.5957 13.6691 34.5875 13.6547 34.5823C13.6258 34.572 13.5949 34.5617 13.567 34.5462L0.79682 27.193C0.715803 27.1463 0.648482 27.0792 0.601612 26.9983C0.554742 26.9174 0.52997 26.8256 0.529785 26.7321V4.86113C0.529785 4.8137 0.535971 4.76731 0.548343 4.72194C0.552467 4.70648 0.561746 4.69307 0.566901 4.67761C0.577211 4.64977 0.586491 4.6209 0.600926 4.59513C0.611236 4.5776 0.62567 4.5642 0.637011 4.5477C0.652476 4.52708 0.66691 4.5044 0.684438 4.48584C0.699903 4.47037 0.719493 4.45903 0.73702 4.44563C0.75661 4.43017 0.773105 4.41264 0.795787 4.40027L7.18192 0.723652C7.2627 0.67725 7.35424 0.652832 7.44741 0.652832C7.54057 0.652832 7.63211 0.67725 7.71289 0.723652L14.099 4.40027C14.1207 4.41367 14.1392 4.43017 14.1578 4.44563C14.1753 4.45903 14.1949 4.47037 14.2093 4.48481C14.2289 4.50543 14.2423 4.52605 14.2578 4.5477C14.2691 4.5642 14.2846 4.5776 14.2939 4.59513C14.3094 4.6209 14.3176 4.64977 14.3289 4.67761C14.3341 4.69307 14.3434 4.70648 14.3465 4.72297C14.359 4.76798 14.3656 4.81442 14.3661 4.86113V18.5221L19.6861 15.4579V8.47485C19.6866 8.42814 19.6932 8.3817 19.7057 8.33669C19.7098 8.3202 19.7181 8.30576 19.7243 8.29133C19.7346 8.26349 19.7439 8.23462 19.7583 8.20885C19.7686 8.19132 19.783 8.17792 19.7944 8.16142C19.8098 8.1408 19.8232 8.11812 19.8418 8.09956C19.8573 8.0841 19.8769 8.07378 19.8933 8.06038C19.914 8.04389 19.9315 8.02636 19.9521 8.01399L26.3393 4.33737C26.42 4.29087 26.5116 4.26639 26.6048 4.26639C26.698 4.26639 26.7895 4.29087 26.8703 4.33737L33.2564 8.01399C33.2791 8.02739 33.2956 8.04492 33.3162 8.05935C33.3327 8.07275 33.3512 8.0841 33.3677 8.09956C33.3853 8.11812 33.3987 8.1408 33.4152 8.16142C33.4265 8.17792 33.4409 8.19235 33.4502 8.20885C33.4657 8.23462 33.475 8.26349 33.4853 8.29133C33.4915 8.3068 33.4997 8.3202 33.5038 8.33669ZM32.4584 15.4579V9.39555L30.2231 10.6823L27.1363 12.4597V18.5221L32.4584 15.4579ZM26.0722 26.4249V20.3584L23.0359 22.0925L14.365 27.0414V33.1657L26.0722 26.4249ZM1.5938 5.78183V26.4249L13.301 33.1647V27.0425L7.18501 23.5813L7.18295 23.5793L7.17986 23.5782C7.15924 23.5659 7.14274 23.5494 7.12315 23.5339C7.10666 23.5215 7.08707 23.5102 7.07263 23.4958L7.0716 23.4937C7.05407 23.4772 7.0417 23.4566 7.02727 23.438C7.01386 23.4205 6.9984 23.405 6.98809 23.3865L6.98706 23.3844C6.97468 23.3638 6.96747 23.3401 6.95922 23.3174C6.94994 23.2978 6.9386 23.2793 6.93344 23.2576C6.92726 23.2318 6.92623 23.206 6.92313 23.1792C6.92004 23.1586 6.91489 23.1401 6.91489 23.1194V8.84499L3.82905 7.06751L1.5938 5.78183ZM7.44792 1.799L2.12786 4.86113L7.44689 7.92326L12.7669 4.86113L7.44792 1.799ZM10.2152 20.911L13.301 19.1346V5.78183L11.0668 7.06751L7.97993 8.84499V22.1977L10.2152 20.911ZM26.6043 5.41273L21.2842 8.47485L26.6043 11.537L31.9222 8.47485L26.6043 5.41273ZM26.0712 12.4597L22.9843 10.6823L20.7501 9.39555V15.4579L23.836 17.2344L26.0712 18.5221V12.4597ZM13.831 26.1207L21.6337 21.6667L25.5341 19.4397L20.2181 16.3797L14.098 19.9037L8.52018 23.1153L13.831 26.1207Z" fill="#FF2D20"/>
</svg>
