<svg width="22" height="21" viewBox="0 0 22 21" fill="none" xmlns="http://www.w3.org/2000/svg">
<g clip-path="url(#clip0_509_24972)">
<path d="M10.9902 0.60968C16.7734 0.60968 21.4902 5.10187 21.4902 10.6097C21.4902 16.1175 16.7734 20.6097 10.9902 20.6097C5.20703 20.6097 0.490234 16.1175 0.490234 10.6097C0.490234 5.10187 5.20703 0.60968 10.9902 0.60968ZM10.9902 1.28835C5.59955 1.28835 1.20284 5.4757 1.20284 10.6097C1.20284 15.7437 5.59955 19.931 10.9902 19.931C16.3809 19.931 20.7776 15.7437 20.7776 10.6097C20.7776 5.4757 16.3809 1.28835 10.9902 1.28835ZM10.9902 3.62835C15.0276 3.62835 18.3205 6.76452 18.3205 10.6096C18.3205 14.4549 15.0276 17.591 10.9902 17.591C6.95282 17.591 3.65984 14.4548 3.65984 10.6097C3.65984 6.76452 6.9529 3.62835 10.9902 3.62835ZM11.8011 16.7774H8.25244C9.11825 17.1278 10.0495 17.308 10.9902 17.3072C11.931 17.3081 12.8622 17.1279 13.7279 16.7774H12.7547L12.7674 16.9551L12.026 17.1034L11.8011 16.7774ZM11.422 15.43H6.11635C6.67533 15.9431 7.31919 16.365 8.0221 16.6789H11.7333L11.3234 16.0847C11.3831 15.8614 11.416 15.6431 11.422 15.43M10.7465 5.62609L10.3912 5.65656L9.82761 5.9939L9.90529 6.22398L10.1776 6.14015L10.264 5.93913C10.5603 6.10046 10.6608 6.29726 10.5656 6.5296C10.4232 6.75554 10.1102 6.69656 9.78068 6.7264L9.74549 6.45921C9.86772 6.3253 10.1241 6.65476 10.0904 6.49101C9.96493 6.34163 9.8541 6.25101 9.60391 6.33913L9.42549 6.2189L8.564 6.23554L7.94671 6.32554L7.71317 6.60085L7.85541 6.80577L8.22553 6.7989L7.94335 6.93249L8.00823 7.23343L8.82691 7.17609C9.33813 7.28718 9.58414 7.42179 9.58463 7.43023L10.6227 7.2821L9.86608 7.62695C10.163 7.64882 10.1365 7.61226 10.4335 7.54288L9.87633 7.87671C10.0625 7.93429 10.3207 7.78085 10.5071 7.7471C10.5162 7.81562 9.9002 8.10257 9.88363 8.17702C9.79373 8.57882 9.36946 9.10515 9.07292 10.1794C8.92338 10.7873 8.97916 11.1877 9.10516 11.679C9.11787 11.7285 9.13132 11.806 9.14535 11.8865L9.14945 11.9104C9.16627 12.0062 9.18391 12.1029 9.20195 12.1585C9.3437 12.5808 10.1433 13.0646 10.563 13.1347L10.8171 13.1672L11.1276 13.3078L11.2217 13.0781H11.5152L11.6097 12.9383L11.8005 13.2141L12.0418 13.3737L12.1208 13.1184L12.6642 13.2476L12.7797 13.1878L12.9993 12.5491L12.6548 12.0705L12.8644 12.0807L13.0744 12.4201L13.1686 12.2803L13.242 11.9108C13.2943 11.9206 13.3469 11.9308 13.3991 11.9406C13.4553 12.1605 13.5111 12.3801 13.5672 12.5998L13.5355 13.0992L13.693 13.1789L13.8187 13.3886L13.9655 13.2287L13.9444 13.5482L14.081 13.4984L14.0388 13.6883L14.2589 13.778L14.3954 14.0876L14.2799 14.497L14.4686 14.6266L14.3324 15.6751L13.9654 16.5807L13.601 16.4711L13.4074 15.4299H12.6886C12.6932 15.8652 12.7208 16.3002 12.7477 16.6788H13.9582C14.1957 16.573 14.4268 16.4546 14.6505 16.3241L14.6576 16.1544V15.8051L14.6889 15.4755L14.7204 15.1359L14.7834 14.7566L14.7936 14.3972L14.7624 14.1376L14.8984 13.9278L15.0139 13.738L14.9823 13.5184L14.9301 13.2887L15.0033 13.0393L15.2133 13.0791L15.4751 13.2088L15.6115 13.2887L15.9157 13.2287L16.1146 13.1688L16.2404 13.0792L16.2438 13.0781L16.2537 13.075C16.2813 13.0662 16.3483 13.0453 16.4176 13.0248L16.4496 13.0155C16.4948 13.0019 16.5405 12.9897 16.5866 12.9791C16.6809 12.9591 16.7332 13.0091 16.7332 13.0091L16.9745 13.2389L16.9115 13.3587L16.702 13.4484V13.5983L16.4713 13.758C16.4713 13.758 16.293 13.868 16.1775 13.8978C16.0707 13.9257 15.8911 14.0395 15.866 14.0556L15.8631 14.0575L15.7582 14.1576C15.7582 14.1576 15.753 14.1671 15.7441 14.1813H16.9341C17.2163 13.7575 17.4474 13.3047 17.6231 12.8316C17.5375 12.7858 17.4302 12.7242 17.3834 12.6796C17.2996 12.5998 17.5511 12.4698 17.5511 12.4698C17.5511 12.4698 17.5043 12.3909 17.4593 12.3096L17.4436 12.2809C17.4176 12.2334 17.3943 12.188 17.3834 12.1605C17.3521 12.0808 17.4883 11.8608 17.4883 11.8608L17.2367 11.5914C17.2367 11.5914 17.2224 11.5975 17.2008 11.6056C17.1702 11.8035 17.1155 12.1612 17.1155 12.1612C17.1155 12.1612 17.1262 12.5108 17.0945 12.5805C17.0658 12.6447 16.9665 12.7673 16.9501 12.7873L16.9478 12.7901H16.7172L16.7697 12.5108C16.7697 12.5108 16.864 12.2109 16.864 12.1511C16.864 12.0911 16.8956 11.5123 16.8956 11.5123L16.8989 11.4673C16.8752 11.4324 16.8515 11.4005 16.8277 11.3816L16.7542 11.7609L16.5655 11.9406L16.6182 10.293L16.6284 9.91374L16.7751 9.58421L16.9222 9.54437L17.0374 9.36452C17.0374 9.36452 17.0793 9.14499 17.1423 9.05499C17.205 8.96531 17.3098 8.89523 17.3727 8.89523C17.436 8.89523 17.5198 8.70538 17.572 8.67554C17.6248 8.64546 17.6248 8.4857 17.6248 8.42585C17.6248 8.41445 17.6243 8.40195 17.6235 8.38874C17.5954 8.31245 17.5658 8.23666 17.5348 8.1614L17.4988 8.21609L17.3727 8.04656L17.3206 8.23593L17.1947 8.1664L17.1212 8.38593L16.9745 8.22632L16.7752 7.9964L16.5865 7.76671L16.3036 7.52718L16.0936 7.32749L15.9366 7.33726L15.7061 7.50718L15.4438 7.56718L15.2445 7.71702L14.7936 7.95656L14.8043 8.00656L15.0243 8.48577L15.2552 8.77538L15.339 8.88538L15.2552 8.97507L15.0243 8.81538L14.9404 8.83531L15.129 8.96531L15.1188 9.14499L15.0452 9.2346H14.8775L14.7204 9.17476L14.8253 9.32452L15.0558 9.33452C15.0558 9.33452 15.5486 9.32452 15.6009 9.31445C15.6421 9.30671 15.8322 9.30507 15.9118 9.30476H15.9305L15.9375 9.30468H15.9469L15.7164 9.44445L15.6218 9.63429L15.6954 9.84366L15.6009 9.8339L14.9194 9.67413L14.7204 9.46445L14.5528 9.31445L14.4792 9.15476L14.4164 9.11491L13.9504 8.77546L13.1745 9.50437C13.0928 9.86499 13.3945 10.1587 13.5213 10.2873C13.4823 10.2849 13.4428 10.2823 13.4038 10.2795L13.1302 10.1543C12.9798 10.1438 12.9149 10.2305 12.9354 10.4152C13.0655 10.5942 13.1959 10.7731 13.3259 10.9522L13.2002 11.052C13.0358 10.9223 12.8716 10.7925 12.7074 10.6626C12.8829 11.1271 12.7589 11.0205 12.5919 10.8323L12.9906 11.5714C12.9482 11.6112 12.9062 11.6513 12.8644 11.6912C12.5897 11.7673 12.3787 11.6607 12.3088 11.1518V11.152L12.3063 11.1674C12.303 11.1874 12.3007 11.2044 12.299 11.2187L12.2982 11.2257L12.2971 11.2243L12.2946 11.2218C12.2442 11.295 12.2498 11.1598 12.1963 11.192C11.832 11.4116 11.8189 11.3641 11.8816 11.2806L11.8851 11.276L11.869 11.2862C11.5077 11.5094 10.8316 11.536 10.9162 11.482L10.9208 11.4794C10.9839 11.447 11.0481 11.4162 11.1131 11.3873L11.1569 11.3677C11.4414 11.2419 11.7187 11.1388 11.7063 11.0632C11.7058 11.0596 11.705 11.0561 11.7042 11.0526L11.7028 11.0487C11.6971 11.0346 11.682 11.0261 11.6067 10.8978C11.5482 11.0401 11.2064 11.0237 10.7357 10.935C10.8253 10.9088 10.9369 10.8975 11.045 10.8879L11.0774 10.885C11.3346 10.8623 11.5569 10.8419 11.3904 10.642L11.354 10.5859C11.3405 10.6835 11.0076 10.6594 10.6291 10.6179C10.6558 10.6121 10.6834 10.6066 10.7114 10.6013L10.7452 10.5951L10.7963 10.586L10.8304 10.5801C11.1088 10.5318 11.3706 10.4884 11.207 10.3439L10.6597 10.3564L11.1622 10.2431L11.3266 10.0793L10.9739 10.0492L11.2151 9.9096L11.2677 9.70992L11.1102 9.46991L11.3934 9.40023L11.6882 9.07757L11.715 8.56327C11.496 8.71515 10.974 8.79687 10.668 8.71655C11.0417 8.6214 11.5302 8.42499 11.721 8.37413L11.7183 8.25015L10.7453 8.5796C11.4544 7.97827 10.8902 8.5046 10.6812 8.23171C11.2997 7.62523 11.8004 7.83937 11.6874 7.59968C11.8392 7.11304 11.0392 7.22304 11.1325 7.17484L11.7299 6.86616C11.249 6.61921 11.3221 6.44648 11.4441 6.31843L11.4572 6.30515L11.4637 6.29859L11.4771 6.28577C11.5616 6.20546 11.6483 6.14398 11.5874 6.09241L11.199 5.74296L10.7465 5.62609ZM15.864 15.43H14.9669L14.8985 15.6251L14.8201 16.2217C15.1934 15.9896 15.543 15.7246 15.864 15.43ZM11.1717 14.2802H5.11352C5.37489 14.6583 5.67548 15.0104 6.01077 15.3312H11.423C11.4192 14.9656 11.3353 14.6154 11.1717 14.2802ZM16.8671 14.2802H15.6693C15.6527 14.2962 15.6362 14.3073 15.6219 14.3073C15.5697 14.3073 15.4752 14.2873 15.4752 14.2873L15.2554 14.3973L15.1189 14.5468L15.1291 14.8467L15.035 15.2362L15.0016 15.3312H15.9698C16.3051 15.0104 16.6057 14.6583 16.8671 14.2802ZM10.5158 13.6508H4.72739C4.82516 13.8322 4.93156 14.0092 5.04625 14.1814H11.112C10.993 14.0155 10.7943 13.8386 10.5158 13.6508ZM9.38291 13.0936H4.46088C4.52648 13.249 4.5982 13.402 4.67588 13.5523H10.3639C10.147 13.4166 9.71293 13.2756 9.41605 13.129C9.4049 13.1174 9.39391 13.1055 9.38291 13.0936ZM9.13551 12.7517H4.32766C4.35695 12.8334 4.38791 12.9145 4.42052 12.9951H9.29949C9.23894 12.9177 9.18414 12.8364 9.13551 12.7517ZM9.02493 12.5369H4.25596C4.26827 12.5759 4.2809 12.6146 4.29402 12.6533H9.08161C9.06177 12.6149 9.04287 12.5761 9.02493 12.5369ZM10.9902 3.91218C7.11688 3.91218 3.95786 6.92077 3.95786 10.6097C3.95786 11.2098 4.04186 11.7917 4.1987 12.3457H4.81787C4.85036 12.2405 5.08718 12.0052 5.8189 11.9559C5.89207 11.8649 5.93325 11.7417 5.94261 11.5871C5.95189 11.4176 5.94064 11.2477 5.90905 11.0806C5.87673 10.9097 5.83383 10.7547 5.7801 10.6166C5.72686 10.4782 5.68002 10.3906 5.64048 10.353C5.58085 10.2991 5.52154 10.2857 5.46182 10.3124C5.40044 10.3409 5.34542 10.3804 5.29981 10.4288C5.25625 10.4728 5.21688 10.5203 5.18218 10.5709C5.1524 10.615 5.13747 10.6278 5.13747 10.6077C5.1442 10.5421 5.16052 10.4548 5.1862 10.3479C5.21212 10.2404 5.30334 10.175 5.46182 10.1516C5.42384 10.1023 5.35928 10.0688 5.2679 10.0519C5.17619 10.0357 5.12508 10.0271 5.11327 10.0271C5.08358 10.0876 5.05842 10.15 5.03796 10.2139C5.01689 10.2813 5.00638 10.3514 5.00679 10.4217C4.96201 10.3631 4.93987 10.2915 4.94412 10.2191C4.94822 10.1453 4.95019 10.079 4.95019 10.0207C4.87595 10.0207 4.79105 10.0725 4.69589 10.1744C4.60074 10.2772 4.53954 10.3571 4.51214 10.4153C4.49869 10.2532 4.51821 10.153 4.56858 10.1155C4.61911 10.0772 4.65709 10.0357 4.68162 9.9896C4.64151 9.94827 4.62904 9.88984 4.64602 9.8146C4.66243 9.73882 4.69122 9.68437 4.7324 9.64952C4.80459 9.60343 4.87677 9.5914 4.94814 9.61335C5.01885 9.63468 5.07677 9.65726 5.12221 9.6807C5.14493 9.63906 5.18357 9.60148 5.23656 9.56741C5.28947 9.53351 5.35846 9.52968 5.44476 9.55609C5.44476 9.39804 5.47814 9.29898 5.54607 9.25702C5.59542 9.22654 5.64576 9.19751 5.697 9.16999C5.45296 9.02452 5.29587 9.0107 5.22532 9.12804C5.15486 9.24663 5.07955 9.33921 4.9999 9.40851C5.13394 9.04312 5.30727 8.85609 5.51998 8.84757C5.73261 8.83843 5.93506 8.91492 6.12701 9.07624C6.13193 9.06007 6.13513 9.0107 6.13439 8.92913C6.13302 8.84902 6.1549 8.7701 6.19764 8.70109C6.23989 8.62999 6.31741 8.58327 6.42831 8.56062C6.53988 8.53796 6.71009 8.57624 6.93912 8.6764C6.90401 8.6882 6.86168 8.68312 6.81197 8.65913C6.76249 8.63577 6.70636 8.62842 6.65209 8.6382C6.59492 8.64663 6.53659 8.68742 6.47655 8.76132C6.41617 8.83406 6.359 8.97382 6.30527 9.17851L6.3124 9.16288C6.35293 9.07851 6.43758 8.97827 6.56695 8.86179L6.59172 8.83976C6.74348 8.70741 6.87801 8.69898 6.99638 8.81507C7.03969 8.86109 7.06635 8.92546 7.07669 9.00906C7.08694 9.09257 7.08407 9.1514 7.06783 9.18484C7.03124 8.98484 6.93305 8.90273 6.77178 8.93757C6.6105 8.97241 6.49582 9.10906 6.42757 9.34835C6.52027 9.34835 6.63183 9.30609 6.76226 9.22077C6.89162 9.13593 7.07242 9.17859 7.30367 9.34835C7.21056 9.34429 7.15011 9.34835 7.12213 9.36124C7.09441 9.37343 7.07127 9.37952 7.0529 9.37952C7.17791 9.37952 7.27061 9.45335 7.33246 9.6014C7.39431 9.74937 7.42557 9.86632 7.42557 9.95062C7.31187 9.69999 7.14871 9.5582 6.93625 9.5264C6.72354 9.49359 6.58885 9.52906 6.53225 9.63265C6.66981 9.67562 6.73454 9.74226 6.72707 9.83226C6.71887 9.92226 6.66235 10.0362 6.55825 10.1744C6.53594 10.0556 6.51888 9.96827 6.50542 9.9114C6.49295 9.85562 6.40945 9.81155 6.25695 9.77984C6.32093 10.079 6.36425 10.4074 6.38697 10.7651C6.40945 11.1222 6.39025 11.4594 6.32914 11.7745C6.31355 11.8158 6.30535 11.8652 6.30535 11.922C6.31634 11.9326 6.32799 11.9426 6.34013 11.9519C6.35719 11.9529 6.37425 11.9536 6.39156 11.9546C7.05356 11.9905 7.38603 12.2374 7.50145 12.3457H8.94511C8.8639 12.1319 8.81198 12.031 8.76005 11.7618C8.6749 11.0534 8.47598 10.2097 9.01394 9.34085C9.41384 8.69491 9.63229 8.22624 9.49612 8.04218C9.49251 7.80929 9.25265 7.45054 8.92961 7.36976C8.70813 7.37476 8.56293 7.37991 8.42331 7.38491L8.359 7.38726C8.2193 7.39226 8.07419 7.39741 7.85262 7.40241L7.65017 7.00656L7.68569 6.92038L7.54902 6.90976L7.41498 6.6921L7.8646 6.15124L8.14539 6.08382L8.53807 6.04546L8.84323 6.0264L9.4615 5.94976L9.83622 5.72695L9.91841 5.45241L10.4021 5.34499L10.7635 5.26093L11.2184 5.36062L11.7637 5.78999C12.2825 6.5371 12.424 6.45601 12.2277 7.30656C12.2385 7.56929 12.1967 7.95132 12.1456 8.34327L12.1332 8.43757C11.9804 9.58499 11.7775 10.7436 12.6026 9.19468L12.9063 8.82523L13.3259 8.47601L13.5146 8.36609L13.8291 8.25616L14.1648 8.06663L14.3009 7.76679L14.5631 7.44734L14.8775 7.20781L15.3181 6.90835L15.6848 6.74835L16.0518 6.69851L16.5236 6.73851L16.748 6.77241C15.474 5.04499 13.3667 3.91218 10.9902 3.91218ZM6.11134 9.79671C5.97205 9.82452 5.8687 9.87327 5.80192 9.94429C5.73466 10.0143 5.72973 10.1256 5.78699 10.2766C5.87534 10.4958 5.94466 10.7449 5.99445 11.0209C6.04531 11.2977 6.06975 11.562 6.06975 11.8137H6.16778C6.23185 11.5445 6.26843 11.2321 6.2759 10.8779C6.28394 10.5235 6.22889 10.1631 6.11134 9.79671ZM11.9782 11.1754L11.9689 11.1844C11.9539 11.1989 11.9393 11.2138 11.9251 11.2291L11.9156 11.2396L11.9064 11.2501C11.8992 11.2584 11.8921 11.267 11.8854 11.2757L11.8851 11.276L11.8858 11.2756C11.9461 11.2362 11.9968 11.1909 12.0321 11.1392C12.0483 11.1155 12.0181 11.1377 11.9782 11.1754ZM5.67338 9.5246C5.6897 9.5246 5.71948 9.51148 5.76394 9.48304C5.80799 9.45531 5.8673 9.45702 5.94195 9.4871C5.93268 9.38796 5.88691 9.33007 5.80332 9.3132C5.71948 9.29663 5.67617 9.36695 5.67338 9.5246ZM5.03271 9.80312C5.00688 9.77702 4.9666 9.76288 4.91164 9.76093C4.85717 9.75843 4.81632 9.76484 4.789 9.77984C4.77547 9.80116 4.76341 9.83023 4.75168 9.86843C4.73962 9.90671 4.73822 9.9364 4.74708 9.95843C4.77481 9.9171 4.81353 9.89695 4.86398 9.89749C4.91369 9.89827 4.95314 9.90023 4.983 9.90468C4.99113 9.88984 4.99859 9.87046 5.00466 9.84851C5.01065 9.82648 5.01959 9.81093 5.0328 9.8032M5.29858 9.7657C5.32384 9.77413 5.35945 9.7921 5.40629 9.81945C5.45386 9.84718 5.49406 9.87835 5.52777 9.9132C5.51859 9.8939 5.50292 9.85226 5.48093 9.78976C5.45846 9.72671 5.44148 9.68507 5.42942 9.66382C5.41227 9.66382 5.38775 9.67429 5.35723 9.69491C5.32663 9.71624 5.30744 9.73952 5.29858 9.7657ZM5.68896 9.71827C5.68011 9.73452 5.67691 9.78765 5.67945 9.87695C5.68084 9.96632 5.69257 10.0157 5.71292 10.0272C5.72178 9.96624 5.7395 9.88265 5.76624 9.77718C5.79314 9.67156 5.84573 9.61843 5.92398 9.61843C5.8504 9.62702 5.80127 9.63671 5.77821 9.6496C5.75516 9.66171 5.7253 9.68507 5.68896 9.71835M13.3892 15.3314L13.194 14.2804H12.7519C12.7038 14.6062 12.6873 14.9674 12.6881 15.3314H13.3892ZM13.1756 14.1816L13.1687 14.1447L13.0254 14.1816H13.1756ZM4.32946 17.1365L4.24177 16.3392L3.43918 16.1416L4.18484 15.8313L4.1152 15.1082L4.62937 15.6462L5.39185 15.3291L4.99892 16.0241L5.52933 16.6187L4.73281 16.4547L4.32946 17.1365ZM17.5554 17.2191L17.1514 16.5023L16.3179 16.6103L16.8928 16.0462L16.536 15.3927L17.236 15.7099L17.8236 15.1329L17.7352 15.9295L18.4731 16.2936L17.6591 16.431L17.5554 17.2191ZM12.5997 19.2755L12.324 17.9929L12.6124 17.9421L12.841 19.0069L13.5583 18.8808L13.6051 19.0987L12.5997 19.2755ZM11.1274 19.3876L11.0509 18.0716L11.6688 18.0423C11.8242 18.0351 11.9379 18.0416 12.0095 18.0618C12.0802 18.0816 12.1422 18.123 12.1858 18.1796C12.2316 18.2385 12.2566 18.3065 12.2611 18.3843C12.2669 18.4828 12.2394 18.566 12.1794 18.6334C12.119 18.7008 12.0251 18.7458 11.8988 18.7685C11.964 18.7992 12.0187 18.8334 12.0626 18.8716C12.1059 18.9099 12.1656 18.9782 12.2415 19.0773L12.4341 19.3258L12.0831 19.3422L11.8544 19.0659C11.7729 18.967 11.7179 18.9051 11.6887 18.8798C11.6592 18.8548 11.6287 18.8378 11.5971 18.8293C11.5654 18.8209 11.5161 18.8181 11.4481 18.8216L11.3892 18.8243L11.4208 19.3738L11.1274 19.3876ZM11.3772 18.6141L11.5939 18.604C11.7346 18.5972 11.8224 18.5878 11.8568 18.5755C11.8912 18.563 11.9175 18.543 11.9361 18.5156C11.9541 18.4886 11.9623 18.4551 11.9598 18.4159C11.9574 18.3712 11.9421 18.3363 11.9143 18.3102C11.8869 18.2842 11.8489 18.269 11.801 18.264C11.7768 18.2623 11.7054 18.264 11.5864 18.2695L11.3576 18.2805L11.3772 18.6141ZM9.77051 19.3119L9.87174 17.9976L10.9479 18.0656L10.9309 18.2883L10.1479 18.2385L10.1251 18.5299L10.8541 18.5759L10.8371 18.7972L10.108 18.7511L10.0806 19.1088L10.8915 19.1602L10.8743 19.3819L9.77051 19.3119ZM8.45161 19.0381L8.77892 17.7543L9.23829 17.8505C9.41203 17.8866 9.52401 17.917 9.57372 17.9411C9.65001 17.9769 9.70759 18.0331 9.74598 18.1094C9.78438 18.1854 9.79045 18.2744 9.76444 18.3762C9.74418 18.4551 9.71153 18.5183 9.666 18.5651C9.62089 18.6125 9.57011 18.6462 9.51318 18.6666C9.45715 18.6873 9.40244 18.697 9.34977 18.6962C9.27808 18.6944 9.17751 18.68 9.0479 18.6527L8.86136 18.6137L8.73766 19.0981L8.45161 19.0381ZM9.00984 18.0314L8.91673 18.3955L9.07341 18.4284C9.18637 18.452 9.26356 18.4612 9.30515 18.4557C9.34406 18.451 9.38069 18.4356 9.41056 18.4114C9.43943 18.387 9.45846 18.3563 9.46855 18.318C9.4802 18.2716 9.47495 18.2298 9.45215 18.1929C9.43008 18.1566 9.39637 18.1293 9.35191 18.1123C9.31893 18.0992 9.25101 18.0818 9.14798 18.0605L9.00984 18.0314ZM18.7701 11.6073L20.1365 11.8134L19.988 12.7057L19.7567 12.6709L19.8614 12.0416L19.5382 11.9927L19.4476 12.5359L19.2163 12.5011L19.3069 11.958L18.7264 11.8702L18.7701 11.6073ZM19.518 10.1175C19.659 10.1175 19.7773 10.1374 19.8729 10.1777C19.9433 10.2077 20.0075 10.2493 20.0626 10.3006C20.1183 10.3523 20.1599 10.4092 20.1869 10.4707C20.2235 10.553 20.2416 10.6474 20.2416 10.7547C20.2416 10.9489 20.1789 11.1042 20.052 11.2209C19.9258 11.3373 19.7499 11.3955 19.5247 11.3955C19.3012 11.3955 19.1264 11.3377 19.0003 11.2219C18.8745 11.1063 18.8113 10.9516 18.8113 10.7584C18.8113 10.5624 18.8742 10.4065 18.9992 10.2912C19.125 10.1754 19.298 10.1175 19.518 10.1175ZM19.5271 10.3916C19.3709 10.3916 19.2518 10.426 19.1711 10.4948C19.0902 10.5638 19.05 10.6515 19.05 10.7573C19.05 10.8633 19.0898 10.9506 19.1705 11.0187C19.2508 11.0862 19.3709 11.1205 19.5311 11.1205C19.6896 11.1205 19.8079 11.0873 19.8859 11.0212C19.9642 10.9549 20.0028 10.8669 20.0028 10.7573C20.0028 10.6477 19.9635 10.5594 19.8846 10.492C19.8058 10.4255 19.6868 10.3916 19.5271 10.3916ZM19.19 9.06445L19.1723 9.33413C19.0156 9.33077 18.8901 9.29281 18.7956 9.22046C18.7012 9.14851 18.6357 9.04351 18.5999 8.90609C18.5554 8.73656 18.58 8.58234 18.673 8.44429C18.7661 8.30616 18.9186 8.21171 19.1296 8.16171C19.3531 8.10859 19.5407 8.12241 19.6934 8.20288C19.8456 8.28351 19.9453 8.41304 19.9922 8.59249C20.033 8.74843 20.0178 8.88718 19.9463 9.00796C19.9045 9.07976 19.8331 9.14296 19.7332 9.19749L19.6021 8.95726C19.6682 8.92577 19.7148 8.88109 19.7425 8.8232C19.7702 8.7657 19.7751 8.70273 19.757 8.63406C19.7324 8.53952 19.6764 8.47101 19.5897 8.42898C19.503 8.38702 19.3793 8.38499 19.2195 8.42288C19.0496 8.4632 18.9363 8.5207 18.8798 8.59616C18.8227 8.67132 18.8067 8.75554 18.8307 8.84859C18.8489 8.91726 18.8873 8.9707 18.9459 9.00929C19.0045 9.04796 19.086 9.06609 19.1899 9.06445M18.2715 7.88929L19.5452 7.37429L19.6543 7.61929L18.3805 8.13398L18.2715 7.88929ZM17.766 6.8857L18.9776 6.2721L19.1087 6.50702L18.103 7.01624L18.4291 7.60038L18.223 7.70452L17.766 6.8857ZM18.1146 5.02968L18.4319 5.46109C18.4947 5.5464 18.5378 5.61273 18.5612 5.66007C18.5841 5.70483 18.5963 5.75382 18.5972 5.80359C18.5975 5.85404 18.5858 5.90391 18.563 5.94945C18.5402 5.99773 18.504 6.03835 18.4549 6.07093C18.4035 6.10594 18.3423 6.12567 18.2791 6.12765C18.2155 6.13025 18.1524 6.11487 18.0979 6.08343C18.126 6.16249 18.1288 6.23593 18.1064 6.30335C18.0841 6.37132 18.04 6.42679 17.9746 6.47046C17.9223 6.50509 17.8622 6.52771 17.7992 6.53656C17.7369 6.54648 17.673 6.54107 17.6136 6.52085C17.5558 6.50093 17.5016 6.46398 17.4523 6.4107C17.4218 6.3771 17.3545 6.29116 17.2513 6.15273L16.9811 5.78531L18.1146 5.02968ZM18.0863 5.37343L17.8244 5.54843L17.9292 5.69116C17.9915 5.77616 18.0318 5.82788 18.0496 5.84679C18.0813 5.88101 18.1163 5.90132 18.1547 5.90773C18.1927 5.91421 18.2301 5.90507 18.2667 5.88038C18.3018 5.85702 18.3235 5.8289 18.332 5.79609C18.3402 5.76296 18.3334 5.72671 18.3111 5.68749C18.298 5.66406 18.2535 5.60124 18.1782 5.49866L18.0863 5.37343ZM17.6357 5.6739L17.3326 5.87601L17.4808 6.07757C17.5386 6.15616 17.5773 6.20452 17.5977 6.22249C17.6275 6.25093 17.6623 6.2671 17.701 6.27155C17.7398 6.27593 17.7796 6.26476 17.8197 6.23796C17.8538 6.21538 17.8766 6.1882 17.889 6.15679C17.901 6.12499 17.9019 6.09085 17.8907 6.0539C17.8797 6.01702 17.8378 5.94905 17.7649 5.84999L17.6357 5.6739ZM16.9169 3.89952L17.1212 4.08093L16.6103 4.60296C16.5292 4.68554 16.4792 4.74171 16.46 4.77077C16.4308 4.81558 16.4199 4.86905 16.4294 4.92101C16.439 4.97413 16.4724 5.02624 16.5292 5.07663C16.5871 5.12851 16.6423 5.15593 16.6938 5.1596C16.7453 5.16327 16.79 5.15116 16.828 5.12343C16.8665 5.09593 16.9226 5.0439 16.9975 4.96773L17.5195 4.43452L17.7238 4.61616L17.2282 5.1221C17.1148 5.2378 17.0292 5.31499 16.9713 5.35273C16.9137 5.3907 16.854 5.41312 16.7918 5.41945C16.7303 5.42593 16.6647 5.41679 16.5961 5.39241C16.5272 5.36773 16.4528 5.31968 16.3726 5.24866C16.2763 5.16265 16.2131 5.08718 16.1842 5.02155C16.1552 4.95593 16.1428 4.89327 16.147 4.83366C16.1512 4.77382 16.1668 4.7214 16.1943 4.67609C16.2348 4.60874 16.3079 4.52148 16.4138 4.41343L16.9169 3.89952ZM14.9134 4.16515L15.6669 3.06007L16.0429 3.29241C16.185 3.38038 16.2741 3.44366 16.3097 3.48124C16.3652 3.53906 16.3964 3.6096 16.4035 3.69273C16.4104 3.77632 16.384 3.86195 16.3239 3.94952C16.2777 4.01749 16.2258 4.06663 16.1682 4.09671C16.1108 4.12695 16.0536 4.14304 15.9952 4.14484C15.9419 4.14704 15.8887 4.13921 15.8385 4.12179C15.7754 4.09781 15.6909 4.05312 15.5846 3.98741L15.4317 3.8932L15.1475 4.30991L14.9134 4.16515ZM15.7735 3.39195L15.56 3.70523L15.688 3.78445C15.7803 3.84163 15.8461 3.87413 15.8852 3.88187C15.9238 3.88937 15.9604 3.88655 15.9952 3.87273C16.0297 3.8589 16.0582 3.83585 16.0805 3.80335C16.1079 3.76312 16.1178 3.72226 16.1111 3.68054C16.1041 3.63942 16.0827 3.60176 16.0504 3.57366C16.0258 3.55093 15.9711 3.51413 15.887 3.46195L15.7735 3.39195ZM13.7509 3.63109L14.3136 2.42765L15.2506 2.82476L15.1553 3.02859L14.4736 2.73921L14.3484 3.00616L14.983 3.27523L14.8885 3.47788L14.254 3.2089L14.1009 3.5364L14.8068 3.83585L14.7119 4.03859L13.7509 3.63109ZM12.4015 3.2457L12.7827 1.9789L13.3479 2.13351C13.4901 2.1721 13.5899 2.21202 13.6475 2.25226C13.705 2.29257 13.7444 2.34702 13.7658 2.41577C13.7868 2.48484 13.7861 2.55609 13.7637 2.63124C13.735 2.72601 13.682 2.79671 13.6048 2.84273C13.5277 2.88851 13.428 2.90366 13.3064 2.88773C13.3547 2.93616 13.392 2.9846 13.4183 3.03359C13.4442 3.08234 13.4745 3.16452 13.509 3.28062L13.5971 3.57234L13.2762 3.48468L13.165 3.1557C13.1256 3.03835 13.0971 2.96351 13.0793 2.93109C13.0619 2.89851 13.0399 2.87351 13.0147 2.85632C12.9888 2.83913 12.9454 2.8221 12.8835 2.80523L12.8292 2.79031L12.6701 3.31921L12.4015 3.2457ZM12.8904 2.58788L13.0886 2.6421C13.2175 2.67726 13.2996 2.69421 13.3349 2.69288C13.3683 2.69168 13.4004 2.68004 13.4262 2.65976C13.4516 2.63945 13.4706 2.61031 13.4819 2.57202C13.4951 2.52945 13.4933 2.49187 13.4773 2.45906C13.4613 2.42616 13.4326 2.40046 13.391 2.38156C13.37 2.37312 13.3053 2.35374 13.1963 2.32406L12.987 2.26687L12.8904 2.58788ZM11.0087 2.68749V2.46515H11.6108V2.98991C11.5523 3.04405 11.4674 3.09148 11.3566 3.13273C11.249 3.17293 11.1346 3.1937 11.019 3.19398C10.8743 3.19398 10.7483 3.16523 10.6406 3.10773C10.5346 3.05104 10.4497 2.96425 10.398 2.85945C10.3439 2.75163 10.3169 2.6346 10.3169 2.50851C10.3169 2.3714 10.3471 2.24921 10.4072 2.14234C10.4679 2.03609 10.556 1.95421 10.6729 1.89734C10.7614 1.85343 10.8719 1.83171 11.0041 1.83171C11.1757 1.83171 11.3099 1.86585 11.4063 1.93452C11.5029 2.00327 11.5652 2.09804 11.5928 2.21913L11.3153 2.26851C11.2958 2.2039 11.2592 2.15249 11.2052 2.11523C11.1516 2.07765 11.0843 2.05898 11.0042 2.05898C10.882 2.05898 10.7849 2.09601 10.7128 2.16937C10.6406 2.24351 10.6047 2.35241 10.6047 2.49757C10.6047 2.65398 10.6413 2.77148 10.7146 2.84945C10.787 2.92757 10.8829 2.96648 11.0009 2.96648C11.0595 2.96648 11.1182 2.95577 11.1771 2.93366C11.2314 2.91429 11.2825 2.88767 11.3289 2.8546V2.68749H11.0087ZM8.9899 3.37124L8.77359 2.06991L9.04216 2.02929L9.74598 2.81398L9.60136 1.94499L9.85787 1.90609L10.0743 3.20757L9.79717 3.24952L9.10507 2.4839L9.24641 3.33234L8.9899 3.37124ZM8.47581 3.55843L8.0714 2.29827L8.33874 2.22046L8.74307 3.48062L8.47581 3.55843ZM6.99991 4.14952L6.4375 2.94562L6.81944 2.7839L7.43221 3.50765L7.27528 2.59038L7.65796 2.4282L8.2207 3.63179L7.98362 3.73241L7.54066 2.78491L7.73294 3.83851L7.48709 3.94281L6.79384 3.10163L7.23681 4.04913L6.99991 4.14952ZM5.70135 5.07945L4.84962 4.04093L5.17889 3.79593L5.95778 4.35687L5.57223 3.50327L5.90233 3.25757L6.7543 4.29609L6.55005 4.44796L5.87969 3.63046L6.3334 4.60906L6.1216 4.76671L5.23517 4.10991L5.90561 4.92749L5.70135 5.07945ZM5.57273 5.15554L5.37339 5.37421L5.05675 5.26484L4.69409 5.6621L4.85651 5.94062L4.6621 6.15374L3.97139 4.90171L4.16499 4.68952L5.57273 5.15554ZM4.8223 5.18366L4.30961 4.99991L4.57465 5.45507L4.8223 5.18366ZM3.9682 7.14929L2.84904 6.37476L3.19472 5.9214C3.28143 5.80765 3.35468 5.73179 3.41424 5.69429C3.47363 5.65648 3.54073 5.63984 3.61604 5.64429C3.69109 5.6489 3.76148 5.67398 3.82792 5.72007C3.91168 5.77788 3.96319 5.8496 3.98206 5.93452C4.00093 6.01913 3.98165 6.11351 3.92455 6.21679C3.9887 6.18999 4.04949 6.17304 4.10675 6.16679C4.16392 6.15999 4.25522 6.16093 4.3818 6.16968L4.69934 6.19077L4.50296 6.44788L4.14054 6.43507C4.01151 6.43031 3.92808 6.42999 3.88969 6.43468C3.85122 6.43937 3.81964 6.45023 3.79371 6.46718C3.76779 6.48406 3.73613 6.51726 3.69856 6.56695L3.66509 6.61038L4.13234 6.93382L3.9682 7.14929ZM3.48643 6.48679L3.608 6.32781C3.6865 6.22421 3.73121 6.15687 3.74187 6.12476C3.75228 6.09445 3.75176 6.0617 3.74039 6.03171C3.72916 6.00156 3.70701 5.97484 3.67321 5.95148C3.63564 5.92546 3.59799 5.91429 3.55993 5.91734C3.52227 5.92031 3.48716 5.93726 3.45411 5.96812C3.43844 5.98359 3.39718 6.03515 3.33073 6.12273L3.2026 6.29023L3.48643 6.48679ZM3.18586 7.74327L2.97119 7.65656L3.20645 7.12874L3.71382 7.33382C3.74327 7.40656 3.75606 7.49921 3.75221 7.61257C3.74827 7.72585 3.72448 7.83257 3.67969 7.93234C3.62325 8.05921 3.54598 8.15874 3.44836 8.23054C3.35229 8.30155 3.23521 8.342 3.11368 8.34616C2.98874 8.35124 2.86504 8.32921 2.74281 8.28015C2.61017 8.22648 2.5041 8.15234 2.42445 8.05749C2.34521 7.96312 2.30042 7.85343 2.29123 7.72929C2.28327 7.63452 2.30542 7.52898 2.35735 7.41327C2.42396 7.26265 2.51009 7.15843 2.61378 7.10062C2.71796 7.04273 2.8337 7.02546 2.96159 7.04851L2.90121 7.31077C2.83083 7.30296 2.76693 7.31515 2.70967 7.34757C2.65258 7.38015 2.60845 7.43156 2.57678 7.50187C2.5292 7.60913 2.52674 7.70859 2.56981 7.80038C2.61304 7.89273 2.70475 7.96687 2.84478 8.02335C2.99571 8.08429 3.12368 8.09851 3.2277 8.06499C3.3318 8.0314 3.40677 7.96312 3.45296 7.85921C3.47627 7.80622 3.48893 7.74954 3.49028 7.6921C3.49256 7.63697 3.48659 7.58181 3.47256 7.52827L3.31096 7.46296L3.18586 7.74327ZM2.44225 9.84585C2.30329 9.82249 2.19041 9.7832 2.10362 9.72773C2.03974 9.68666 1.98402 9.6351 1.93907 9.57546C1.89363 9.51531 1.86303 9.45265 1.84752 9.38734C1.82644 9.30038 1.8257 9.20429 1.84531 9.09843C1.88091 8.90718 1.97147 8.76476 2.11716 8.67109C2.26277 8.57695 2.44684 8.54882 2.66857 8.58601C2.88842 8.62296 3.0501 8.7089 3.15313 8.84359C3.25616 8.97859 3.29029 9.14101 3.25469 9.33156C3.21917 9.52437 3.12893 9.66749 2.98448 9.76093C2.83977 9.8539 2.65898 9.8821 2.44225 9.84585ZM2.48269 9.57452C2.63691 9.60023 2.76053 9.5857 2.85249 9.53148C2.94486 9.47702 3.00039 9.39749 3.0195 9.29288C3.03911 9.18882 3.01565 9.09632 2.94846 9.01577C2.88202 8.93593 2.7698 8.88249 2.61205 8.85577C2.4557 8.82968 2.33348 8.84288 2.24431 8.89468C2.15539 8.94718 2.10116 9.02726 2.0809 9.13531C2.06097 9.24359 2.0841 9.33695 2.14948 9.41609C2.21486 9.49531 2.32577 9.54812 2.48269 9.57452ZM3.13246 11.2281L1.74933 11.251L1.73908 10.6911C1.73662 10.5503 1.74728 10.4481 1.77066 10.3839C1.79445 10.3195 1.83743 10.2675 1.90035 10.2282C1.9636 10.189 2.0357 10.1688 2.11749 10.1673C2.22126 10.1657 2.30747 10.1934 2.37646 10.2501C2.44463 10.3071 2.48917 10.3934 2.5087 10.5087C2.54315 10.4506 2.58072 10.4022 2.62231 10.3642C2.6639 10.326 2.73748 10.2745 2.84404 10.2092L3.1108 10.0438L3.11687 10.3616L2.8191 10.5591C2.71287 10.6292 2.6461 10.6769 2.61845 10.7026C2.59114 10.7284 2.57252 10.7551 2.56226 10.7834C2.55242 10.8119 2.54815 10.8566 2.54946 10.9178L2.55029 10.9716L3.12795 10.9621L3.13246 11.2281ZM2.32921 10.9754L2.32577 10.7788C2.32355 10.6512 2.3165 10.5713 2.30468 10.5395C2.29364 10.5095 2.27254 10.4837 2.24464 10.4661C2.21658 10.4489 2.18213 10.4401 2.14046 10.4408C2.0937 10.4418 2.05679 10.4543 2.02824 10.4783C2.00018 10.5024 1.98279 10.5361 1.97574 10.5794C1.97328 10.6011 1.97287 10.6657 1.97492 10.7737L1.97853 10.9811L2.32921 10.9754ZM3.32893 12.4455L1.96639 12.6747L1.88862 12.2545C1.85925 12.0951 1.84711 11.9898 1.85171 11.9394C1.85811 11.8616 1.89108 11.7916 1.95047 11.7299C2.00945 11.6684 2.09329 11.6285 2.20165 11.6101C2.28549 11.5963 2.35833 11.599 2.42051 11.6183C2.48302 11.6376 2.53454 11.6666 2.57539 11.7059C2.61374 11.7414 2.64421 11.7839 2.66496 11.8309C2.68957 11.891 2.71287 11.9807 2.73502 12.0994L2.7666 12.27L3.28061 12.1837L3.32893 12.4455ZM2.14874 12.3739L2.53495 12.3089L2.5087 12.1658C2.4895 12.0626 2.46965 11.9945 2.44889 11.9621C2.4298 11.9311 2.40117 11.9064 2.36686 11.8914C2.33179 11.8768 2.29289 11.8727 2.2553 11.8795C2.206 11.888 2.16753 11.9087 2.14021 11.942C2.11347 11.9748 2.09961 12.0135 2.09961 12.0572C2.09903 12.0898 2.10781 12.1529 2.12528 12.2473L2.14874 12.3739ZM16.3488 11.2772L16.4326 11.5969C16.4326 11.5969 16.3382 11.8464 16.3278 11.9062C16.3172 11.9662 16.3068 12.206 16.3068 12.2757C16.3068 12.3458 16.2962 12.6953 16.2962 12.6953L16.0758 13.1447L16.0237 12.895L15.9293 12.6652L15.7722 12.3059V11.8965C15.7722 11.8965 15.7512 11.6866 15.814 11.6569C15.8769 11.6267 15.992 11.5469 15.992 11.5469L16.1913 11.4271L16.3488 11.2772Z" fill="#1B1918"/>
</g>
<defs>
<clipPath id="clip0_509_24972">
<rect width="21" height="20" fill="white" transform="translate(0.490234 0.60968)"/>
</clipPath>
</defs>
</svg>
