<svg width="34" height="23" viewBox="0 0 34 23" fill="none" xmlns="http://www.w3.org/2000/svg">
<path d="M29.452 2.87568C28.7321 2.89376 28.3072 3.20757 28.1676 3.80634C28.3522 3.96709 28.6006 4.03708 28.8483 4.02632C29.3924 4.00324 29.9316 3.58867 29.7789 2.88606C29.6643 2.87645 29.5551 2.8726 29.452 2.87568ZM33.1601 0.826691H33.0958C32.5824 0.843227 32.5028 1.12166 31.3941 1.3947C30.2743 1.67044 29.1925 1.40547 27.9868 1.91156C24.3861 3.42177 23.6189 8.63078 20.3462 10.4794C17.9003 11.8612 15.5344 12.4746 13.3162 13.1695C11.858 13.6263 10.412 14.1524 9.09058 15.2908C8.06493 16.1753 7.78304 16.8617 6.71509 17.9712C5.62484 19.0992 2.27215 17.1029 0.638882 18.5635C0.60529 18.5941 0.578557 18.6316 0.560433 18.6733C0.542309 18.715 0.533203 18.7601 0.533712 18.8056C0.53422 18.8511 0.544331 18.896 0.563382 18.9373C0.582434 18.9786 0.609997 19.0154 0.644266 19.0453C0.998071 19.3549 1.67107 20.0921 2.31176 20.3198C2.10871 20.7044 0.960767 21.8373 1.19497 22.4042C1.4411 23.0002 4.28692 22.5953 6.91738 21.007C8.14223 20.2671 9.11827 19.2011 11.0265 18.9469C13.4955 18.6181 16.3401 19.1584 19.1986 19.5699C18.7744 20.8336 17.9238 21.6746 17.2419 22.6849C17.0304 22.9126 17.6661 22.9379 18.3903 22.8003C19.6978 22.478 20.6331 22.2184 21.6207 21.6466C22.8294 20.9428 23.0128 19.1392 24.4949 18.7492C25.2118 19.851 26.9946 20.2221 28.3691 19.6337C28.4452 19.6014 28.5198 19.5656 28.5929 19.528C28.7583 19.3837 28.6614 19.2153 28.5598 19.0915C28.5115 19.0468 28.4651 19.0001 28.4206 18.9515C27.6469 18.1201 27.47 16.1572 27.813 15.2027C28.2041 14.1167 28.5906 12.3788 28.9844 10.9436C29.4074 9.4053 29.5636 7.45822 30.0754 6.67254C30.8453 5.49114 31.6964 5.08542 32.4352 4.41896C33.1739 3.7525 33.8504 3.10373 33.8273 1.57929C33.8165 1.10897 33.5854 0.838228 33.1601 0.826691ZM33.2385 2.42766C33.0858 3.47907 32.414 4.05708 31.6202 4.61471C30.928 5.10311 30.1612 5.57344 29.6705 6.33643C29.1686 7.11711 28.8498 9.79179 28.0707 12.4326C27.4246 14.6239 26.4616 16.7917 24.8145 17.8359C24.7076 17.9035 24.5665 17.8416 24.5438 17.7205C24.4284 17.1082 24.4515 15.9899 24.2615 16.3514C24.0231 17.0321 23.7531 17.6813 23.4374 18.2846C22.4682 20.1367 21.0661 21.5554 18.8006 22.1111C18.7605 22.1202 18.7186 22.117 18.6804 22.1018C18.6421 22.0866 18.6094 22.0603 18.5864 22.0262C18.5635 21.9921 18.5514 21.9518 18.5517 21.9107C18.552 21.8696 18.5648 21.8295 18.5883 21.7958C19.6336 20.3459 20.5689 18.7865 20.6831 16.4064C20.6927 16.201 20.4346 16.1072 20.305 16.2664C19.8112 16.8752 19.6897 18.3227 18.9679 18.7684C18.401 18.83 17.8269 18.83 17.2489 18.7954C14.8761 18.6531 12.441 17.9393 10.2212 18.6519C8.70986 19.1372 7.12274 20.5171 5.8425 21.072C4.33806 21.7204 3.62507 22.3357 1.72529 22.2934C1.53108 22.0319 2.51828 20.9001 2.85362 20.4117C2.96053 20.2552 2.73171 20.0906 2.51751 19.9887C2.00295 19.7526 1.48686 19.1119 0.938078 18.8619C1.00845 18.7323 1.25727 18.6027 1.39456 18.5235C2.64057 17.8005 5.9448 19.3403 6.83239 18.4685C7.3804 17.9308 7.74959 17.4586 8.12185 16.911C8.48335 16.3803 9.03251 15.8195 9.60129 15.3546C9.8428 15.1611 10.0917 14.977 10.3474 14.8027C11.3165 14.1397 11.8499 14.0905 13.1047 13.6244C14.7015 13.0306 16.6785 12.5099 18.3914 11.8554C19.4498 11.4504 20.6004 10.9517 21.5384 10.2517C21.7614 10.0856 21.9718 9.90832 22.1667 9.71873C24.8449 7.10365 25.376 2.50188 29.5505 2.0727C30.0558 2.02078 30.415 1.99886 30.7919 1.98694C31.2134 1.9754 31.6302 1.87157 32.0467 1.67236C32.1752 1.61621 32.9405 1.15319 33.1989 1.37701C33.3712 1.52622 33.2431 2.33536 33.232 2.42304" fill="#444B5E"/>
</svg>
