<svg width="29" height="15" viewBox="0 0 29 15" fill="none" xmlns="http://www.w3.org/2000/svg">
<g clip-path="url(#clip0_509_25023)">
<mask id="mask0_509_25023" style="mask-type:luminance" maskUnits="userSpaceOnUse" x="-96" y="0" width="233" height="15">
<path d="M-95.166 14.8634V7.90046V0.9375H136.987V7.90046V14.8634H-95.166Z" fill="white"/>
</mask>
<g mask="url(#mask0_509_25023)">
<path d="M24.1664 8.41898H28.3129C26.8629 8.88811 26.405 9.82638 26.1506 12.493C25.9726 14.3943 25.0822 14.8881 25.0822 14.8881C24.4208 14.8881 23.7594 12.1474 23.1743 9.23379C23.4033 8.73996 23.7085 8.49305 24.1664 8.41898Z" fill="#EB7077"/>
<path d="M25.0566 14.8634H20.9102C21.6479 14.8634 22.1566 13.5054 22.4619 11.777C22.6654 10.6165 22.8689 9.77701 23.1488 9.20911C23.7338 12.1227 24.3952 14.8634 25.0566 14.8634Z" fill="#EB7077"/>
<path d="M23.1488 9.2091C22.8435 9.75231 22.64 10.6165 22.4619 11.777C22.1567 13.5054 21.6479 14.8634 20.9102 14.8634C20.1216 14.6906 19.4856 11.777 18.6461 7.33256C18.6207 7.18441 18.5953 7.06096 18.5698 6.91281C19.2058 3.70293 19.8672 0.9375 20.5286 0.9375H20.7575C21.5461 1.11034 22.1821 4.02392 23.0216 8.46836C23.0725 8.73997 23.0979 8.96219 23.1488 9.2091Z" fill="#F6A2AD"/>
<path d="M16.6108 0.962189H20.5284C19.867 0.962189 19.1801 3.72762 18.5696 6.9375C17.9845 3.92515 17.2977 0.962189 16.6108 0.962189Z" fill="#EB7077"/>
<path d="M18.5698 6.9375C18.5189 7.25848 18.4426 7.57947 18.3918 7.92515C17.4505 12.9128 16.8909 14.74 16.2295 14.8881C15.4918 14.8881 14.7795 11.6535 14.1944 8.49305C14.1944 8.44367 14.1689 8.39429 14.1689 8.3449C14.1944 8.19676 14.2198 8.0733 14.2453 7.92515C15.1865 2.91281 15.7461 1.11034 16.3821 0.962189H16.6111C17.2979 0.962189 17.9847 3.92515 18.5698 6.9375Z" fill="#EB7077"/>
<path d="M16.2295 14.8634H12.083C12.7953 14.8634 13.5076 11.777 14.1435 8.32022C14.1435 8.3696 14.169 8.41899 14.169 8.46837C14.7795 11.6536 15.5172 14.8634 16.2295 14.8634Z" fill="#EB7077"/>
<path d="M14.169 8.3449C13.5076 11.8017 12.7953 14.8881 12.1085 14.8881C11.2944 14.6906 10.6839 11.777 9.81899 7.35725C9.79355 7.2091 9.76811 7.08565 9.74268 6.9375C10.3786 3.72762 11.04 0.962189 11.7014 0.962189H11.9304C12.719 1.13503 13.3295 3.99923 14.169 8.3449Z" fill="#F6A2AD"/>
<path d="M7.78369 0.962189H11.7012C11.0398 0.962189 10.3784 3.72762 9.74246 6.9375C9.15738 3.92515 8.47053 0.962189 7.78369 0.962189Z" fill="#EB7077"/>
<path d="M9.74247 6.9375C9.6916 7.25848 9.61528 7.57947 9.5644 7.92515C8.62318 12.9128 8.06353 14.74 7.40212 14.8881C6.6644 14.8881 6.94423 14.7647 6.48633 12.7647C6.02844 10.7647 5.6723 9.57947 5.18896 8.96219C5.26528 8.61651 5.31616 8.27083 5.39247 7.92515C6.35914 2.91281 6.91879 1.11034 7.55475 0.962189H7.7837C8.47054 0.962189 9.15739 3.92515 9.74247 6.9375Z" fill="#EB7077"/>
<path d="M7.40235 14.8634H3.25586C3.91726 14.8634 4.57867 12.1227 5.21463 8.9375C5.67253 9.55478 6.02867 10.74 6.512 12.74C6.96989 14.74 6.66463 14.8634 7.40235 14.8634Z" fill="#EB7077"/>
<path d="M5.21472 8.93749C4.57876 12.1227 3.91735 14.8634 3.25595 14.8634C3.17963 14.7647 2.72174 14.8634 2.28928 12.3943C1.9077 10.1227 1.22086 8.69058 0.101562 8.41898H4.24805C4.65507 8.44367 4.9349 8.59182 5.21472 8.93749Z" fill="#F6A2AD"/>
</g>
<mask id="mask1_509_25023" style="mask-type:luminance" maskUnits="userSpaceOnUse" x="-96" y="0" width="233" height="15">
<path d="M-95.166 14.8387V7.87577V0.912811H136.987V7.87577V14.8387H-95.166Z" fill="white"/>
</mask>
<g mask="url(#mask1_509_25023)">
<path d="M24.1664 8.39429H28.3129C26.8629 8.86342 26.405 9.80169 26.1506 12.4684C25.9726 14.3696 25.0822 14.8634 25.0822 14.8634C24.4208 14.8634 23.7594 12.1227 23.1743 9.2091C23.4033 8.71527 23.7085 8.46836 24.1664 8.39429Z" fill="#EB7077"/>
<path d="M25.0566 14.8387H20.9102C21.6479 14.8387 22.1566 13.4807 22.4619 11.7523C22.6654 10.5918 22.8689 9.75232 23.1488 9.18442C23.7338 12.098 24.3952 14.8387 25.0566 14.8387Z" fill="#EB7077"/>
<path d="M23.1488 9.18441C22.8435 9.72762 22.64 10.5918 22.4619 11.7523C22.1567 13.4807 21.6479 14.8387 20.9102 14.8387C20.1216 14.6659 19.4856 11.7523 18.6461 7.30787C18.6207 7.15972 18.5953 7.03627 18.5698 6.88812C19.2058 3.70293 19.8672 0.9375 20.5286 0.9375H20.7575C21.5461 1.11034 22.1821 4.02392 23.0216 8.46836C23.0725 8.69059 23.0979 8.9375 23.1488 9.18441Z" fill="#F6A2AD"/>
<path d="M16.6108 0.9375H20.5284C19.867 0.9375 19.1801 3.70293 18.5696 6.91281C17.9845 3.90046 17.2977 0.9375 16.6108 0.9375Z" fill="#EB7077"/>
<path d="M18.5698 6.91281C18.5189 7.2338 18.4426 7.55478 18.3918 7.90046C17.4505 12.8881 16.8909 14.7153 16.2295 14.8634C15.4918 14.8634 14.7795 11.6289 14.1944 8.46836C14.1944 8.41898 14.1689 8.3696 14.1689 8.32022C14.1944 8.17207 14.2198 8.04861 14.2453 7.90046C15.1865 2.88812 15.7461 1.08565 16.3821 0.9375H16.6111C17.2979 0.9375 17.9847 3.90046 18.5698 6.91281Z" fill="#EB7077"/>
<path d="M16.2295 14.8387H12.083C12.7953 14.8387 13.5076 11.7523 14.1435 8.29553C14.1435 8.34491 14.169 8.3943 14.169 8.44368C14.7795 11.6289 15.5172 14.8387 16.2295 14.8387Z" fill="#EB7077"/>
<path d="M14.1689 8.32022C13.5075 11.777 12.7953 14.8634 12.1084 14.8634C11.3198 14.6906 10.6839 11.777 9.84438 7.33256C9.81894 7.18441 9.79351 7.06096 9.76807 6.91281C10.3786 3.70293 11.04 0.9375 11.7014 0.9375H11.9303C12.7189 1.11034 13.3295 3.94985 14.1689 8.32022Z" fill="#F6A2AD"/>
<path d="M7.78369 0.9375H11.7012C11.0398 0.9375 10.3784 3.70293 9.74246 6.91281C9.15738 3.90046 8.47053 0.9375 7.78369 0.9375Z" fill="#EB7077"/>
<path d="M9.74247 6.91281C9.6916 7.2338 9.61528 7.55478 9.5644 7.90046C8.62318 12.8881 8.06353 14.7153 7.40212 14.8634C6.6644 14.8634 6.94423 14.74 6.48633 12.74C6.02844 10.74 5.6723 9.55478 5.18896 8.9375C5.26528 8.59182 5.31616 8.24614 5.39247 7.90046C6.35914 2.88812 6.91879 1.08565 7.55475 0.9375H7.7837C8.47054 0.9375 9.15739 3.90046 9.74247 6.91281Z" fill="#EB7077"/>
<path d="M7.40235 14.8387H3.25586C3.91726 14.8387 4.57867 12.098 5.21463 8.91281C5.67253 9.5301 6.02867 10.7153 6.512 12.7153C6.96989 14.7153 6.66463 14.8387 7.40235 14.8387Z" fill="#EB7077"/>
<path d="M5.21472 8.91281C4.57876 12.098 3.91735 14.8387 3.25595 14.8387C3.17963 14.74 2.72174 14.8387 2.28928 12.3696C1.9077 10.098 1.22086 8.66589 0.101562 8.39429H4.24805C4.65507 8.39429 4.9349 8.56713 5.21472 8.91281Z" fill="#F6A2AD"/>
</g>
</g>
<defs>
<clipPath id="clip0_509_25023">
<rect width="29" height="14" fill="white" transform="translate(0 0.9375)"/>
</clipPath>
</defs>
</svg>
