<svg width="21" height="22" viewBox="0 0 21 22" fill="none" xmlns="http://www.w3.org/2000/svg">
<g clip-path="url(#clip0_544_36194)">
<path d="M19.1953 0.944641H1.80469C0.807986 0.944641 0 1.75263 0 2.74933V20.14C0 21.1367 0.807986 21.9446 1.80469 21.9446H19.1953C20.192 21.9446 21 21.1367 21 20.14V2.74933C21 1.75263 20.192 0.944641 19.1953 0.944641Z" fill="#F1C761"/>
<path d="M9.68725 16.4647V6.54068L7.27379 6.87961L5.42823 10.4562L3.67428 7.30547L1.64551 7.62605V15.448L3.55518 15.7731V10.8227L5.42362 14.3443H5.46486L7.43411 10.8089V16.1304L9.68725 16.4647Z" fill="black" fill-opacity="0.35"/>
<path d="M1.60449 5.37292V6.39871L10.5347 4.9195V3.60976L1.60449 5.37292Z" fill="black" fill-opacity="0.35"/>
<path d="M1.60449 17.5043L10.5347 19.2629V17.9576L1.60449 16.4738V17.5043Z" fill="black" fill-opacity="0.35"/>
<path d="M10.5347 3.60976V4.9195L19.4649 6.39871V5.37292L10.5347 3.60976Z" fill="white"/>
<path d="M19.4236 15.448V7.62605L17.3948 7.30547L15.6409 10.4562L13.7952 6.87961L11.3818 6.54068V16.4647L13.635 16.1304V10.8089L15.6042 14.3443H15.6454L17.5139 10.8227V15.7731L19.4236 15.448Z" fill="white"/>
<path d="M10.5347 19.2629L19.4649 17.5043V16.4738L10.5347 17.9576V19.2629Z" fill="white"/>
</g>
<defs>
<clipPath id="clip0_544_36194">
<rect width="21" height="21" fill="white" transform="translate(0 0.944641)"/>
</clipPath>
</defs>
</svg>
