<svg width="27" height="28" viewBox="0 0 27 28" fill="none" xmlns="http://www.w3.org/2000/svg">
<g clip-path="url(#clip0_544_35430)">
<path fill-rule="evenodd" clip-rule="evenodd" d="M24.6599 21.2166L14.2248 27.2458C14.0048 27.3738 13.7548 27.4412 13.5002 27.4412C13.2456 27.4412 12.9956 27.3738 12.7756 27.2458L2.34053 21.2166C1.89102 20.9552 1.61621 20.477 1.61621 19.9701V7.91297C1.61621 7.39141 1.89166 6.92723 2.34053 6.66645L12.7762 0.63726C12.9962 0.509243 13.2463 0.441803 13.5008 0.441803C13.7554 0.441803 14.0054 0.509243 14.2255 0.63726L24.6605 6.66645C25.11 6.92787 25.3855 7.40607 25.3855 7.91297V19.9643C25.3708 20.4719 25.0954 20.9501 24.6605 21.2108L24.6599 21.2166Z" fill="#8D6748"/>
<path d="M13.4859 2.70947C13.6289 2.71195 13.7688 2.75197 13.8914 2.82552L22.9059 8.02837C23.0287 8.10206 23.1305 8.2061 23.2015 8.33049C23.2726 8.45487 23.3104 8.59543 23.3114 8.73866V19.1444C23.3104 19.2876 23.2726 19.4282 23.2015 19.5525C23.1305 19.6769 23.0287 19.781 22.9059 19.8547L13.8914 25.0575C13.7607 25.1302 13.6364 25.1736 13.4859 25.1736C13.3426 25.173 13.2023 25.1328 13.0804 25.0575L4.06595 19.8547C3.94313 19.781 3.84132 19.6769 3.77031 19.5525C3.69929 19.4282 3.66145 19.2876 3.66043 19.1444V8.73866C3.66145 8.59543 3.69929 8.45487 3.77031 8.33049C3.84132 8.2061 3.94313 8.10206 4.06595 8.02837L13.0804 2.82552C13.2111 2.75283 13.3559 2.70947 13.4859 2.70947ZM13.4859 2.27463C13.2691 2.27463 13.0511 2.33839 12.863 2.44869L3.84853 7.65155C3.65904 7.75915 3.50152 7.91513 3.39207 8.10356C3.28262 8.29198 3.22517 8.50609 3.22559 8.724V19.1297C3.22559 19.5792 3.45768 19.9841 3.84853 20.2022L12.863 25.405C13.0511 25.5211 13.2685 25.5791 13.4859 25.5791C13.7033 25.5791 13.9208 25.5153 14.1089 25.405L23.1233 20.2022C23.3128 20.0946 23.4703 19.9386 23.5798 19.7501C23.6892 19.5617 23.7467 19.3476 23.7463 19.1297V8.72336C23.7463 8.27385 23.5142 7.86897 23.1233 7.65091L14.1089 2.44933C13.9208 2.33329 13.7033 2.27527 13.4859 2.27527V2.27463ZM14.7675 8.72336C14.7675 8.65067 14.7037 8.57862 14.6228 8.57862H11.8983C11.8256 8.57862 11.7535 8.64239 11.7535 8.72336C11.7535 9.21623 11.8262 10.9116 12.5506 11.738C12.5792 11.7666 12.6143 11.7813 12.6526 11.7813H13.864C13.8831 11.7818 13.9021 11.7782 13.9197 11.7707C13.9373 11.7632 13.9531 11.752 13.966 11.738C14.691 10.9263 14.763 9.23089 14.763 8.72336H14.7675ZM13.6951 11.3611H12.8407C12.8216 11.3616 12.8026 11.358 12.785 11.3505C12.7674 11.343 12.7516 11.3319 12.7386 11.3178C12.2458 10.7439 12.1878 9.57839 12.1737 9.17287C12.1737 9.10019 12.2375 9.02814 12.3185 9.02814H14.2313C14.304 9.02814 14.376 9.0919 14.376 9.17287C14.376 9.57839 14.3033 10.7235 13.8111 11.3178C13.7677 11.3465 13.7384 11.3611 13.6951 11.3611ZM13.5357 8.28788C13.5357 8.28788 14.0572 7.98374 13.7384 7.43349C13.5503 7.14338 13.463 6.8979 13.5357 6.79588C13.3476 7.02797 13.0281 7.27409 13.3763 7.79565C13.4923 7.92636 13.5503 8.20053 13.5357 8.28788ZM12.9618 8.33123C12.9618 8.33123 13.3099 8.12848 13.0925 7.75739C12.9618 7.5693 12.9044 7.39523 12.9618 7.33657C12.8311 7.49597 12.6283 7.65537 12.8598 8.01753C12.9325 8.09022 12.9618 8.27257 12.9618 8.33634V8.33123Z" fill="white"/>
<path d="M14.1454 10.0139C14.0816 10.4054 13.9713 10.8542 13.7246 11.1444C13.6959 11.1731 13.6608 11.1877 13.6378 11.1877H12.9129C12.8842 11.1877 12.8402 11.1731 12.8262 11.1444C12.6521 10.9276 12.5361 10.6368 12.464 10.3327C12.464 10.3327 13.3044 10.4487 13.7826 10.2689C14.1307 10.1382 14.1454 10.0139 14.1454 10.0139ZM4.62339 12.3615H5.15898L6.04334 13.7241L6.92769 12.3615H7.46328V15.2601H6.95575V13.1879L6.04334 14.5447H6.02867L5.13602 13.1968V15.269H4.62849L4.62339 12.3615ZM10.0877 15.3035C9.87926 15.3028 9.67279 15.2635 9.47875 15.1874C9.29879 15.1158 9.13588 15.0072 9.00055 14.8686C8.86651 14.7325 8.76286 14.5695 8.69641 14.3904C8.62372 14.2163 8.58036 14.0078 8.58036 13.8166V13.8019C8.58036 13.5991 8.62372 13.4104 8.69641 13.2281C8.76909 13.054 8.87047 12.8946 9.01521 12.7498C9.15054 12.6113 9.31345 12.5027 9.49341 12.431C9.68151 12.3443 9.8849 12.315 10.1023 12.315C10.3107 12.3157 10.5172 12.355 10.7112 12.431C10.8912 12.5027 11.0541 12.6113 11.1894 12.7498C11.3235 12.886 11.4271 13.0489 11.4936 13.2281C11.5663 13.4021 11.6096 13.6106 11.6096 13.8019V13.8166C11.6096 14.0193 11.5663 14.208 11.4936 14.3904C11.4209 14.5645 11.3195 14.7239 11.1748 14.8686C11.0394 15.0072 10.8765 15.1158 10.6966 15.1874C10.5085 15.2741 10.3051 15.3035 10.0877 15.3035ZM10.0877 14.8399C10.2324 14.8399 10.3631 14.8112 10.4791 14.7532C10.5916 14.6976 10.6943 14.6242 10.7833 14.5358C10.87 14.4491 10.928 14.333 10.986 14.217C11.0316 14.0914 11.0561 13.9591 11.0587 13.8255V13.8108C11.0587 13.6661 11.03 13.5354 10.986 13.4053C10.9415 13.2817 10.8725 13.1683 10.7833 13.0718C10.6943 12.9834 10.5916 12.91 10.4791 12.8544C10.3631 12.7907 10.233 12.7677 10.0877 12.7677C9.95216 12.7654 9.81802 12.7951 9.69617 12.8544C9.58371 12.91 9.481 12.9834 9.39203 13.0718C9.30532 13.1586 9.2473 13.2746 9.18928 13.3906C9.14373 13.5163 9.11918 13.6485 9.11659 13.7821V13.7968C9.11659 13.9415 9.14528 14.0722 9.18928 14.2023C9.23387 14.3259 9.30282 14.4393 9.39203 14.5358C9.481 14.6242 9.58371 14.6976 9.69617 14.7532C9.81869 14.8106 9.95237 14.8402 10.0877 14.8399ZM14.0587 15.3035C13.8594 15.3042 13.6621 15.2648 13.4784 15.1874C13.3037 15.1147 13.145 14.9993 13.0149 14.8686C12.8809 14.7325 12.7772 14.5695 12.7108 14.3904C12.6381 14.2023 12.5947 14.0078 12.5947 13.8166V13.8019C12.5947 13.5991 12.6381 13.3964 12.7108 13.2281C12.7842 13.0525 12.887 12.8908 13.0149 12.7498C13.1502 12.6113 13.3131 12.5027 13.4931 12.431C13.6868 12.3537 13.8935 12.3143 14.102 12.315C14.2327 12.315 14.3481 12.3297 14.4642 12.3437L14.7683 12.4304C14.855 12.4738 14.9424 12.5171 15.0144 12.5751L15.2312 12.7632L14.8977 13.1458C14.7881 13.0461 14.6664 12.9604 14.5356 12.8908C14.3963 12.8206 14.242 12.7856 14.0861 12.7887C13.9553 12.7865 13.8259 12.8163 13.7093 12.8755C13.5968 12.931 13.4941 13.0044 13.4051 13.0929C13.3184 13.1796 13.2604 13.2956 13.2024 13.4117C13.1568 13.5373 13.1323 13.6696 13.1297 13.8032V13.8178C13.1297 13.9626 13.1584 14.0933 13.2024 14.2234C13.247 14.347 13.3159 14.4603 13.4051 14.5568C13.4918 14.6435 13.5932 14.7309 13.7093 14.7736C13.8253 14.8163 13.9554 14.8603 14.0918 14.8603C14.2659 14.8603 14.4253 14.8316 14.5413 14.7583C14.6746 14.6774 14.8006 14.5853 14.9182 14.4829L15.2516 14.8163C15.1789 14.903 15.1069 14.9611 15.0195 15.0331C14.9322 15.1052 14.8455 15.1492 14.7645 15.1925C14.6686 15.2411 14.5661 15.2754 14.4604 15.2945C14.3296 15.3232 14.2053 15.3232 14.0689 15.3232L14.0587 15.3035ZM16.2616 12.3615H16.7691V13.5647H18.1604V12.3615H18.6679V15.2601H18.1604V14.0486H16.7678V15.2601H16.2603L16.2616 12.3615ZM20.9135 12.3469H21.3771L22.6523 15.2607H22.1167L21.8266 14.5594H20.464L20.1599 15.2607H19.6383L20.9135 12.3469ZM21.6379 14.115L21.145 12.9558L20.6521 14.115H21.6379ZM4.26123 16.1731H22.739V16.3325H4.26123V16.1731ZM22.739 10.7242H14.8837C14.8837 10.7879 14.8691 10.8262 14.8691 10.8836H22.7384L22.739 10.7242ZM4.26123 10.7242V10.8836H11.667C11.667 10.8198 11.6523 10.7816 11.6523 10.7242H4.26123Z" fill="white"/>
</g>
<defs>
<clipPath id="clip0_544_35430">
<rect width="27" height="27" fill="white" transform="translate(0 0.441528)"/>
</clipPath>
</defs>
</svg>
