<svg width="31" height="31" viewBox="0 0 31 31" fill="none" xmlns="http://www.w3.org/2000/svg">
<g clip-path="url(#clip0_531_23990)">
<path fill-rule="evenodd" clip-rule="evenodd" d="M21.147 24.2715C21.1866 24.1953 21.2245 24.1281 21.2569 24.0585C21.2773 24.0139 21.3087 24.005 21.353 24.0062C21.6185 24.0137 21.8841 24.0219 22.1499 24.0245C22.3756 24.0268 22.6017 24.0226 22.8277 24.02C23.0822 24.017 23.3367 24.0036 23.591 24.0109C23.9297 24.0207 24.2597 24.0871 24.566 24.2378C24.9319 24.418 25.2087 24.6924 25.3974 25.0541C25.516 25.2834 25.59 25.5331 25.6156 25.79C25.6559 26.1669 25.6294 26.5351 25.5099 26.8956C25.3617 27.3423 25.0805 27.6842 24.6898 27.9404C24.3891 28.1375 24.0593 28.254 23.7059 28.3206C23.3318 28.3911 22.9566 28.3684 22.5813 28.3696C22.1698 28.3712 21.7585 28.3623 21.3469 28.3576C21.2749 28.3569 21.2646 28.3433 21.2836 28.2746L21.3012 28.2114C21.3413 28.0853 21.3628 28.0796 21.4908 28.0585C21.5815 28.0443 21.6683 28.0113 21.7456 27.9617C21.7887 27.9332 21.8065 27.8586 21.8234 27.8012C21.8379 27.751 21.8386 27.696 21.8391 27.643C21.8449 26.8403 21.851 26.0378 21.8543 25.2355C21.8552 25.0326 21.8501 24.8297 21.8391 24.6271C21.8311 24.4853 21.7554 24.3882 21.5867 24.3547C21.4554 24.3287 21.3232 24.3085 21.1913 24.2853L21.147 24.2715ZM24.9148 26.2152C24.897 26.0553 24.8883 25.8941 24.8597 25.7366C24.7913 25.3585 24.6258 25.0292 24.3352 24.7712C23.8653 24.3542 23.2995 24.29 22.7065 24.3397C22.5715 24.351 22.5424 24.3971 22.5403 24.5359C22.5371 24.7328 22.5338 24.9296 22.5335 25.1265C22.5326 25.7509 22.5326 26.3753 22.5335 26.9996C22.5338 27.1773 22.5356 27.355 22.5408 27.5321C22.5464 27.7135 22.6123 27.8671 22.7899 27.9374C23.07 28.0482 23.3646 28.0614 23.6585 28.0161C24.128 27.9442 24.4563 27.6707 24.6767 27.2607C24.851 26.9354 24.9003 26.5803 24.9148 26.2152ZM26.056 28.3412C26.0503 28.2439 26.0902 28.1635 26.1394 28.0897C26.1528 28.0698 26.1987 28.0707 26.2303 28.0644L26.4989 28.0112C26.5938 27.991 26.6438 27.9273 26.6571 27.8342C26.666 27.7728 26.6745 27.7107 26.6752 27.6486C26.6815 27.1572 26.6862 26.6657 26.689 26.1742C26.6913 25.682 26.6895 25.1898 26.6895 24.6976L26.6874 24.6036C26.6778 24.4454 26.6013 24.3634 26.4443 24.3402L26.1038 24.2884C26.0618 24.2828 26.0466 24.2626 26.0618 24.2253C26.0881 24.1618 26.1131 24.096 26.1502 24.0388C26.164 24.0177 26.2106 24.0095 26.2421 24.0102C26.4047 24.0125 26.5674 24.0247 26.73 24.0245L28.1459 24.016C28.4187 24.0158 28.6821 24.0634 28.9268 24.1939C29.1961 24.3374 29.3468 24.5593 29.3899 24.8617C29.4349 25.1792 29.3386 25.4469 29.1066 25.6595C29.0112 25.7471 28.8877 25.8043 28.7771 25.8756L28.741 25.8981C28.8436 25.9358 28.9413 25.9684 29.0365 26.0073C29.3149 26.1214 29.5364 26.2998 29.6536 26.5846C29.7462 26.8093 29.7462 27.0437 29.6913 27.2767C29.606 27.6414 29.3658 27.8839 29.0534 28.0674C28.7602 28.2397 28.4428 28.34 28.1049 28.3569C27.7931 28.3726 27.48 28.3667 27.1676 28.3703L26.9867 28.3712C26.6856 28.3643 26.3845 28.3568 26.0834 28.3487L26.056 28.3412ZM27.3537 26.9141H27.3567C27.3567 27.0683 27.3546 27.2225 27.3574 27.3767C27.3593 27.4766 27.3558 27.5792 27.3774 27.6753C27.4097 27.819 27.4753 27.9486 27.6366 27.9899C27.8521 28.0465 28.0773 28.0564 28.297 28.0189C28.5729 27.9709 28.793 27.8326 28.9137 27.5699C29.0032 27.3746 29.0166 27.1677 28.9859 26.9563C28.9451 26.6778 28.7972 26.4758 28.5513 26.3434C28.3901 26.2564 28.2181 26.2032 28.0348 26.1962C27.8295 26.1885 27.6239 26.188 27.4186 26.1817C27.361 26.18 27.353 26.2093 27.3532 26.2567C27.3544 26.4756 27.3537 26.6947 27.3537 26.9141ZM27.7908 25.8653C27.9031 25.8596 28.0301 25.858 28.1564 25.8453C28.3983 25.8212 28.5687 25.6996 28.6575 25.4682C28.7028 25.3508 28.7009 25.2299 28.7021 25.1078C28.7056 24.7897 28.5199 24.5291 28.2178 24.4213C27.9846 24.3381 27.7442 24.3367 27.5023 24.3432C27.4043 24.3458 27.3605 24.3887 27.3591 24.4874L27.3446 25.7739C27.3438 25.825 27.3659 25.847 27.4156 25.8486L27.7908 25.8653Z" fill="#94795D"/>
<path fill-rule="evenodd" clip-rule="evenodd" d="M3.16696 28.0939L3.14985 28.3152C2.99047 28.3152 2.84352 28.314 2.69657 28.3157C2.41977 28.3185 2.14297 28.3229 1.86594 28.3269L1.83922 28.3285C1.79961 28.3239 1.72766 28.3239 1.72579 28.3121C1.71407 28.2463 1.71782 28.1771 1.72086 28.1089C1.7211 28.1012 1.74805 28.0914 1.76375 28.0876L1.97915 28.0396C2.11344 28.0046 2.16079 27.9468 2.16711 27.808C2.17438 27.6517 2.18165 27.4951 2.18235 27.3388C2.18446 26.9539 2.18211 26.5696 2.18375 26.1847C2.18399 26.0947 2.15282 26.0277 2.06891 25.9911C1.96921 25.9469 1.8688 25.9042 1.76774 25.8632C1.71993 25.8439 1.65782 25.8334 1.66344 25.7692C1.66907 25.7038 1.7293 25.6867 1.78602 25.6738C2.02086 25.6201 2.25594 25.5678 2.49008 25.5107C2.56555 25.4921 2.63774 25.461 2.72797 25.4296C2.73266 25.4783 2.74133 25.5247 2.7404 25.5711L2.72657 25.7917C2.72633 25.8165 2.73922 25.8498 2.75774 25.8636C2.76899 25.8723 2.80672 25.8566 2.82547 25.8421C3.02563 25.6897 3.2375 25.5582 3.47915 25.4816C3.85344 25.3628 4.17477 25.4729 4.39977 25.7957C4.47899 25.9093 4.47922 25.9093 4.58915 25.8299C4.77782 25.6928 4.97516 25.5718 5.19594 25.4921C5.68063 25.3171 6.14633 25.5393 6.31485 26.0275C6.37626 26.2046 6.39969 26.3877 6.39922 26.5747L6.39477 27.8164C6.39454 27.9189 6.42852 27.9772 6.52602 28.0091C6.63547 28.045 6.74891 28.0696 6.87219 28.1019L6.8436 28.3154C6.70344 28.3154 6.57454 28.3145 6.44563 28.3157C6.13063 28.3185 5.81563 28.3201 5.50086 28.3274C5.44602 28.3288 5.43172 28.3152 5.42891 28.2639C5.41977 28.0996 5.41836 28.0998 5.57305 28.0628L5.62508 28.0494C5.77626 28.0082 5.82665 27.9618 5.82782 27.8085C5.83133 27.3683 5.84047 26.927 5.81821 26.4878C5.795 26.0321 5.43336 25.7896 4.9918 25.9063C4.84929 25.9453 4.71507 26.01 4.59571 26.0971C4.55469 26.1264 4.54696 26.1601 4.55024 26.2114C4.56266 26.4055 4.5704 26.5998 4.57204 26.7941C4.57485 27.1342 4.57063 27.4743 4.57204 27.8146C4.5725 27.9524 4.61961 28.0051 4.75579 28.037L4.95805 28.0836L4.99555 28.0921C4.99836 28.1568 5.00094 28.2214 4.9979 28.2861C4.99602 28.3267 4.96461 28.3302 4.92946 28.3295C4.73282 28.3246 4.53594 28.318 4.3393 28.3185C4.1 28.3189 3.86094 28.3257 3.62188 28.33H3.56563C3.56563 28.2613 3.56235 28.1957 3.56797 28.1303C3.56915 28.1146 3.5968 28.0925 3.61579 28.0876L3.85157 28.0377C3.95165 28.0131 3.99946 27.9618 4.00508 27.86C4.0318 27.3889 4.05102 26.9176 4.00672 26.4468C3.99593 26.3538 3.97012 26.2631 3.93032 26.1784C3.80961 25.9117 3.53797 25.8003 3.22461 25.8805C3.07579 25.9185 2.94149 25.9867 2.81446 26.0727C2.78676 26.0897 2.764 26.1138 2.74846 26.1423C2.73292 26.1709 2.72513 26.2031 2.72586 26.2356C2.72586 26.7055 2.7275 27.1754 2.72891 27.6451L2.73149 27.8263C2.7343 27.9526 2.78797 28.0192 2.91336 28.0464C2.99399 28.0646 3.07555 28.0771 3.16696 28.0939Z" fill="#50382B"/>
<path fill-rule="evenodd" clip-rule="evenodd" d="M17.3368 25.4776C17.3732 25.6544 17.3725 25.8133 17.2426 25.9337C17.1137 26.0535 16.9506 26.0132 16.7914 25.9865C16.8062 26.0704 16.8226 26.1416 16.8306 26.2138C16.8885 26.7503 16.6576 27.1485 16.16 27.3761C15.9721 27.4619 15.7726 27.4937 15.5689 27.5101C15.4677 27.5181 15.3791 27.5955 15.3695 27.6787C15.3596 27.763 15.4126 27.8498 15.5185 27.8751C15.6435 27.9048 15.7738 27.9133 15.902 27.928C16.1771 27.9594 16.4553 27.9737 16.7272 28.023C17.1383 28.097 17.3678 28.4558 17.2953 28.8688C17.2309 29.2363 17.0181 29.5037 16.7214 29.7088C16.2214 30.0552 15.673 30.1565 15.0889 29.9798C14.755 29.8785 14.5194 29.6589 14.4381 29.3036C14.3973 29.1257 14.4407 28.9647 14.5745 28.844C14.7336 28.701 14.9068 28.5735 15.0735 28.4385L15.1274 28.3844L15.0655 28.341C14.8956 28.2604 14.7596 28.15 14.7069 27.9583C14.6889 27.8933 14.7076 27.8507 14.7627 27.8174C14.8564 27.7609 14.9497 27.7035 15.0423 27.6451C15.0859 27.618 15.129 27.5898 15.1696 27.5584C15.2249 27.5162 15.22 27.4848 15.1539 27.4605C15.0001 27.4037 14.8635 27.3215 14.7575 27.1949C14.5806 26.9837 14.5304 26.7322 14.545 26.4667C14.5677 26.0519 14.7929 25.7786 15.159 25.6028C15.5942 25.394 16.0309 25.3808 16.4746 25.5712C16.6386 25.6415 16.8116 25.6565 16.9876 25.6443C17.1191 25.6349 17.2339 25.5852 17.3368 25.4776ZM15.733 28.4498C15.4063 28.4469 15.3039 28.4873 15.1121 28.6825C14.8975 28.9014 14.8986 29.2049 15.1128 29.4248C15.2755 29.5914 15.4785 29.6694 15.7042 29.6929C15.9678 29.7201 16.2275 29.709 16.4671 29.5771C16.7225 29.4358 16.8496 29.1733 16.7921 28.9089C16.7446 28.6907 16.5838 28.5908 16.3881 28.5334C16.1654 28.4683 15.9353 28.4558 15.733 28.4498ZM15.0913 26.3619C15.1032 26.4526 15.1082 26.5445 15.1283 26.6333C15.1806 26.8635 15.2807 27.0658 15.5096 27.1682C15.7785 27.2889 16.1218 27.2371 16.2395 26.8598C16.3199 26.6086 16.3105 26.3374 16.213 26.0924C16.1717 25.9804 16.0973 25.8836 15.9997 25.8149C15.7663 25.652 15.3451 25.6305 15.1735 25.9905C15.1178 26.1074 15.096 26.2319 15.0913 26.3619Z" fill="#4F382B"/>
<path fill-rule="evenodd" clip-rule="evenodd" d="M11.7936 25.4197C11.8023 25.4598 11.8197 25.5053 11.8201 25.551C11.8208 25.6379 11.8115 25.7249 11.8065 25.8118V25.8873L11.8801 25.8311C12.0817 25.6651 12.2982 25.5238 12.5504 25.4476C13.0056 25.3105 13.4603 25.5597 13.6086 26.0232C13.6649 26.1995 13.6872 26.3807 13.6893 26.5649C13.694 26.9741 13.6968 27.3833 13.701 27.7925C13.7024 27.9395 13.7193 27.9657 13.8582 28.0082C13.9373 28.0318 14.018 28.0497 14.0997 28.0618C14.1444 28.0689 14.1636 28.0864 14.1613 28.1303L14.1618 28.1706C14.1601 28.34 14.1484 28.3478 13.9841 28.3473C13.5908 28.3466 13.1978 28.3489 12.8045 28.3522C12.6873 28.3532 12.6871 28.3567 12.6754 28.2409L12.673 28.1743C12.6803 28.0745 12.6826 28.0754 12.7808 28.0609C12.8469 28.0511 12.9125 28.0358 12.977 28.0189C13.0433 28.0018 13.0752 27.9529 13.0841 27.8872C13.0886 27.8539 13.0944 27.8207 13.0942 27.7874C13.0886 27.3402 13.0958 26.8925 13.0715 26.4461C13.0518 26.0849 12.7761 25.8697 12.4136 25.8943C12.2388 25.9064 12.0708 25.9667 11.9282 26.0685C11.8314 26.1362 11.8119 26.2339 11.8124 26.3392C11.8143 26.7573 11.8182 27.1754 11.8227 27.5938C11.8236 27.6854 11.8262 27.7771 11.8349 27.868C11.844 27.9674 11.879 28.0075 11.9765 28.029C12.0697 28.0497 12.1649 28.0616 12.2645 28.0782L12.2729 28.1551C12.2762 28.3344 12.2575 28.3478 12.0833 28.3471C11.6767 28.3454 11.27 28.348 10.8636 28.3525C10.7997 28.3534 10.7725 28.3332 10.7741 28.2709L10.7732 28.2442C10.7626 28.0827 10.7673 28.0766 10.9201 28.0504L10.9923 28.0358C11.1578 27.9986 11.2002 27.9545 11.2025 27.7864C11.2103 27.2542 11.2131 26.7222 11.2185 26.1899C11.2192 26.1135 11.1904 26.0542 11.1191 26.0225C11.0191 25.9787 10.9186 25.9362 10.8175 25.895C10.7617 25.8721 10.6979 25.8575 10.6958 25.7804C10.6944 25.7261 10.7525 25.678 10.832 25.6618C10.9916 25.6295 11.1526 25.6025 11.3104 25.5629C11.4674 25.5238 11.6216 25.4713 11.7936 25.4197Z" fill="#4F372B"/>
<path fill-rule="evenodd" clip-rule="evenodd" d="M20.5861 26.81C20.5786 27.3071 20.4495 27.7091 20.0979 28.0107C19.6526 28.3935 18.9579 28.5236 18.39 28.2374C18.1477 28.1153 17.9696 27.928 17.8536 27.685C17.6757 27.3111 17.6311 26.9181 17.724 26.5154C17.8158 26.1172 18.057 25.8287 18.4179 25.6419C18.7892 25.45 19.1801 25.375 19.5924 25.4757C20.1139 25.603 20.4886 26.0282 20.5632 26.5696C20.5765 26.6645 20.5817 26.7606 20.5861 26.81ZM19.9822 27.0793L19.962 27.077C19.962 27.0301 19.9646 26.9832 19.9615 26.9364C19.9444 26.6443 19.8788 26.3661 19.7096 26.1217C19.549 25.8901 19.3304 25.7535 19.0458 25.7336C18.7273 25.7111 18.4597 25.8892 18.3657 26.2145C18.2246 26.7029 18.2724 27.1789 18.5204 27.6264C18.6284 27.8214 18.7885 27.9653 19.0029 28.041C19.4232 28.1889 19.7958 27.9974 19.9053 27.5671C19.9456 27.4082 19.9573 27.242 19.9822 27.0793Z" fill="#4F382B"/>
<path fill-rule="evenodd" clip-rule="evenodd" d="M10.2629 26.8485C10.2543 27.2052 10.1701 27.535 9.94982 27.8216C9.71381 28.1286 9.38943 28.2927 9.02052 28.3618C8.58435 28.4434 8.17466 28.3693 7.82427 28.0766C7.65787 27.9374 7.5442 27.759 7.4692 27.5561C7.34615 27.2233 7.31545 26.8822 7.39115 26.5347C7.47201 26.1627 7.68201 25.8784 8.00755 25.6876C8.38396 25.4675 8.79013 25.3693 9.22396 25.4683C9.78177 25.5958 10.1038 25.9593 10.2229 26.5096C10.2468 26.6207 10.2501 26.7355 10.2629 26.8485ZM9.65216 27.0838L9.63599 27.0815V27.0144C9.62685 26.6872 9.56287 26.3755 9.36763 26.1036C9.22302 25.9018 9.02943 25.7753 8.78123 25.7399C8.3767 25.6822 8.11232 25.9222 8.02466 26.2483C7.91029 26.6741 7.94615 27.0948 8.1231 27.4986C8.23349 27.7504 8.40787 27.9465 8.67576 28.0417C9.09341 28.19 9.4717 27.9936 9.5774 27.565C9.6163 27.4082 9.62802 27.2446 9.65216 27.0838Z" fill="#4F372B"/>
<path fill-rule="evenodd" clip-rule="evenodd" d="M19.9995 8.66333C20.2871 9.49466 20.4938 10.3433 20.562 11.2227C20.6464 12.314 20.608 13.3977 20.3778 14.4709L20.3483 14.5567C20.2761 14.5569 20.2025 14.5478 20.132 14.5588C19.5359 14.6525 18.9406 14.7496 18.3451 14.8461C17.7294 14.946 17.1132 15.0418 16.4987 15.1483C16.2809 15.1858 16.0114 15.141 15.9235 15.4419L15.8813 15.4562L15.9111 13.6567L15.8809 9.31466L16.1677 9.26544C16.6367 9.1888 17.1057 9.11075 17.5754 9.03599C18.1355 8.94716 18.6962 8.86044 19.2568 8.77372C19.5043 8.73575 19.752 8.70036 19.9995 8.66333Z" fill="#439934"/>
<path fill-rule="evenodd" clip-rule="evenodd" d="M15.2894 20.7025C14.9868 20.4423 14.6737 20.1936 14.3838 19.9199C12.8233 18.448 11.6817 16.7153 11.1194 14.6263C10.9645 14.0516 10.8613 13.4673 10.8281 12.8734C10.8046 12.4576 10.7711 12.0383 10.8006 11.6247C10.8787 10.5247 11.0378 9.43535 11.3603 8.37574L11.3781 8.35114C11.4096 8.39285 11.4546 8.42988 11.4705 8.47699C11.7855 9.40418 12.0979 10.3323 12.4089 11.2611C13.386 14.1793 14.362 17.0982 15.3407 20.016C15.3599 20.0729 15.4094 20.1196 15.445 20.1709L15.2894 20.7025Z" fill="#45A538"/>
<path fill-rule="evenodd" clip-rule="evenodd" d="M19.9992 8.66335C19.7514 8.70015 19.5037 8.73577 19.2564 8.77374C18.6958 8.86046 18.1352 8.94718 17.575 9.03601C17.1056 9.11054 16.6366 9.18859 16.1674 9.26546L15.8805 9.31468L15.8782 9.12765C15.8685 8.9739 15.8526 8.82015 15.8505 8.6664L15.8184 5.72406C15.8109 5.11023 15.7996 4.4964 15.7872 3.88281C15.7809 3.50143 15.7699 3.12016 15.7542 2.73906C15.7448 2.53445 15.7118 2.33077 15.6986 2.12616C15.6909 2.00851 15.7012 1.88991 15.7038 1.77179C15.85 2.05515 15.9932 2.34062 16.1435 2.62187C16.3809 3.06648 16.7594 3.39413 17.1004 3.75156C18.4471 5.16507 19.4032 6.80757 19.9992 8.66335Z" fill="#46A037"/>
<path fill-rule="evenodd" clip-rule="evenodd" d="M15.8813 15.4562L15.9235 15.4419C16.0114 15.141 16.281 15.1857 16.4987 15.1482C17.1132 15.0418 17.7294 14.946 18.3451 14.8461C18.9406 14.7498 19.536 14.6528 20.132 14.5588C20.2025 14.5478 20.2761 14.5569 20.3483 14.5567C20.237 14.9542 20.1493 15.3604 20.008 15.7468C19.8474 16.1851 19.6534 16.6131 19.4474 17.0326C19.1388 17.6582 18.7569 18.245 18.3099 18.7806C17.9663 19.1936 17.5834 19.5758 17.1997 19.9529C16.9874 20.1613 16.7375 20.3312 16.5046 20.5187L16.4441 20.4775L16.2268 20.2918L16.0021 19.7987C15.8485 19.2237 15.7647 18.6322 15.7524 18.0372L15.7567 17.9368L15.7874 17.5023C15.7974 17.3539 15.811 17.2058 15.8174 17.0575C15.8399 16.524 15.86 15.9901 15.8813 15.4562Z" fill="#409433"/>
<path fill-rule="evenodd" clip-rule="evenodd" d="M15.8814 15.4562C15.8604 15.9901 15.8402 16.5243 15.8175 17.0582C15.8111 17.2068 15.7978 17.3549 15.7875 17.503L15.6506 17.5548C15.3464 16.6593 15.0419 15.7731 14.7443 14.8848C14.2518 13.415 13.7655 11.9432 13.2738 10.4729C12.8767 9.28638 12.4769 8.10075 12.0743 6.91606C12.0553 6.86075 12.0014 6.81715 11.9639 6.76817L12.8404 5.15637C12.8707 5.20864 12.9103 5.25762 12.9293 5.31387C13.3347 6.51387 13.7395 7.71411 14.1407 8.91551C14.6629 10.4788 15.1816 12.0428 15.7033 13.6063C15.7242 13.6686 15.7584 13.7263 15.7912 13.7964L15.9112 13.6567L15.8814 15.4562Z" fill="#4FAA41"/>
<path fill-rule="evenodd" clip-rule="evenodd" d="M11.9634 6.76819C12.0011 6.81717 12.055 6.86077 12.0738 6.91608C12.4764 8.10076 12.8763 9.28638 13.2733 10.473C13.765 11.9432 14.2513 13.4151 14.7438 14.8848C15.0414 15.7731 15.3459 16.659 15.6501 17.5548L15.787 17.503L15.7563 17.9376L15.7284 18.0376C15.6808 18.5132 15.6407 18.9897 15.5826 19.4643C15.5535 19.7022 15.4914 19.9356 15.4443 20.1709C15.4089 20.1196 15.3592 20.073 15.34 20.016C14.361 17.0983 13.3853 14.1794 12.4082 11.2612C12.0973 10.3325 11.7845 9.40441 11.4698 8.47702C11.4538 8.42991 11.4088 8.39288 11.3774 8.35116L11.9634 6.76819Z" fill="#4AA73C"/>
<path fill-rule="evenodd" clip-rule="evenodd" d="M15.9111 13.6567L15.7911 13.7963C15.7583 13.7263 15.7241 13.6686 15.7032 13.6063C15.1815 12.0428 14.6628 10.4788 14.1406 8.91549C13.7389 7.71423 13.3351 6.51368 12.9292 5.31385C12.9102 5.2576 12.8706 5.20861 12.8403 5.15635L13.9243 3.73041C13.9585 3.77588 14.0073 3.81642 14.0249 3.86775C14.3258 4.749 14.6239 5.63095 14.9206 6.51361C15.1977 7.33814 15.4705 8.16361 15.7508 8.98674C15.7696 9.04181 15.8349 9.08072 15.8785 9.1276L15.8809 9.31463L15.9111 13.6567Z" fill="#57AE47"/>
<path fill-rule="evenodd" clip-rule="evenodd" d="M15.8785 9.1276C15.8347 9.08096 15.7696 9.04205 15.7508 8.98674C15.4707 8.16361 15.1977 7.33814 14.9206 6.51361C14.6242 5.63095 14.3256 4.74899 14.0249 3.86775C14.0073 3.81643 13.9585 3.77588 13.9243 3.73041C14.2768 3.38518 14.6183 3.02752 14.9851 2.69822C15.3111 2.40572 15.5731 2.09213 15.5853 1.62971L15.6111 1.5376L15.7039 1.7715C15.7016 1.88963 15.691 2.00822 15.6988 2.12588C15.7121 2.33049 15.7452 2.53416 15.7543 2.73877C15.7714 3.11963 15.7796 3.50119 15.7874 3.88252C15.7998 4.49611 15.811 5.10994 15.8185 5.72377L15.8506 8.66611C15.853 8.8201 15.8692 8.97385 15.8785 9.1276Z" fill="#60B24F"/>
<path fill-rule="evenodd" clip-rule="evenodd" d="M15.4449 20.1707C15.492 19.9354 15.5541 19.7019 15.5832 19.464C15.6413 18.9897 15.6814 18.5129 15.729 18.0374L15.7409 18.0355L15.7527 18.0376C15.7649 18.6327 15.8487 19.2241 16.0023 19.7992C15.9706 19.8409 15.9263 19.8777 15.9095 19.9246C15.7794 20.2916 15.6566 20.6617 15.5258 21.0285C15.508 21.0786 15.4578 21.1178 15.4229 21.1616L15.2891 20.7022L15.4449 20.1707Z" fill="#A9AA88"/>
<path fill-rule="evenodd" clip-rule="evenodd" d="M15.4229 21.1619C15.4578 21.1178 15.5079 21.0789 15.5257 21.0287C15.6565 20.6619 15.7793 20.2919 15.9094 19.9248C15.9261 19.878 15.9706 19.8412 16.0022 19.7994L16.227 20.2926C16.1827 20.3554 16.1213 20.4123 16.0967 20.4824L15.6664 21.7462C15.6486 21.797 15.5883 21.8326 15.5475 21.8755L15.4229 21.1619Z" fill="#B6B598"/>
<path fill-rule="evenodd" clip-rule="evenodd" d="M15.5474 21.8753C15.5879 21.8324 15.6484 21.7967 15.6662 21.7459L16.0965 20.4821C16.1209 20.4121 16.1825 20.3551 16.2268 20.2923L16.4443 20.4777C16.3393 20.5815 16.281 20.7015 16.3161 20.8532L16.25 21.0695C16.22 21.1065 16.1764 21.1389 16.1617 21.1813C16.0114 21.6116 15.8682 22.0442 15.7168 22.4743C15.6976 22.5287 15.6444 22.5716 15.6071 22.6199L15.5474 21.8753Z" fill="#C2C1A7"/>
<path fill-rule="evenodd" clip-rule="evenodd" d="M15.6068 22.6197C15.6443 22.5714 15.6975 22.5285 15.7165 22.4741C15.8679 22.044 16.0114 21.6114 16.1614 21.1811C16.1761 21.1387 16.2197 21.1065 16.2497 21.0693L16.1586 22.0621C16.1342 22.0902 16.099 22.1148 16.0873 22.1474L15.784 23.0165C15.7627 23.0758 15.7219 23.1287 15.69 23.1843C15.6617 23.1472 15.6111 23.1114 15.6087 23.0729C15.5998 22.9225 15.6061 22.7708 15.6068 22.6197Z" fill="#CECDB7"/>
<path fill-rule="evenodd" clip-rule="evenodd" d="M15.6904 23.1845C15.7223 23.129 15.7631 23.076 15.7844 23.0167L16.0877 22.1476C16.0994 22.1148 16.1348 22.0904 16.1589 22.0623L16.1613 22.7139L15.9431 23.2733L15.6904 23.1845Z" fill="#DBDAC7"/>
<path fill-rule="evenodd" clip-rule="evenodd" d="M15.9429 23.2733L16.1611 22.7139L16.2061 23.3757L15.9429 23.2733Z" fill="#EBE9DC"/>
<path fill-rule="evenodd" clip-rule="evenodd" d="M16.3158 20.8532C16.2809 20.7018 16.339 20.5818 16.444 20.4777L16.5045 20.519L16.3158 20.8532Z" fill="#CECDB7"/>
<path fill-rule="evenodd" clip-rule="evenodd" d="M15.7527 18.0379L15.741 18.0358L15.729 18.0376L15.7569 17.9376L15.7527 18.0379Z" fill="#4FAA41"/>
</g>
<defs>
<clipPath id="clip0_531_23990">
<rect width="30" height="30" fill="white" transform="translate(0.695801 0.801453)"/>
</clipPath>
</defs>
</svg>
