<svg width="20" height="21" viewBox="0 0 20 21" fill="none" xmlns="http://www.w3.org/2000/svg">
<path d="M12.2556 10.1966L8.22947 11.5113L4.72679 13.0572L3.74687 13.3159C3.4973 13.5533 3.23562 13.7937 2.9526 14.0372C2.6422 14.305 2.3531 14.5485 2.13091 14.7249C1.88443 14.9197 1.51924 15.2849 1.33363 15.5161C1.05668 15.863 0.837581 16.2312 0.743236 16.5143C0.575848 17.0256 0.658054 17.5429 0.980621 18.0207C1.39449 18.6293 2.21921 19.2501 3.18082 19.6731C3.6708 19.8892 4.4955 20.1661 5.11628 20.3213C6.14789 20.583 8.14425 20.8661 9.24281 20.9087C9.46493 20.9178 9.76319 20.9178 9.77533 20.9087C9.7997 20.8934 9.97012 20.5678 10.168 20.1631C10.8436 18.7845 11.3304 17.4912 11.5952 16.3865C11.7534 15.717 11.8782 14.8254 11.9603 13.7694C11.9817 13.4742 11.9908 12.4852 11.9725 12.1504C11.9451 11.6027 11.8964 11.1584 11.8204 10.7232C11.8082 10.6593 11.8051 10.6014 11.8112 10.5984C11.8234 10.5893 11.8599 10.5771 12.3559 10.4341L12.2555 10.1967V10.1967H12.2556V10.1966ZM11.3366 10.7353C11.3731 10.7353 11.4704 11.6695 11.4948 12.26C11.5009 12.3847 11.4978 12.4669 11.4917 12.4669C11.4674 12.4669 10.9774 12.1778 10.6275 11.9587C10.3232 11.767 9.745 11.3835 9.65372 11.3105C9.62322 11.2892 9.62625 11.2862 9.87583 11.2009C10.2988 11.0579 11.3031 10.7353 11.3366 10.7353ZM9.28545 11.4109C9.31286 11.4109 9.3828 11.4504 9.55019 11.5539C10.1771 11.9465 11.0292 12.4212 11.3944 12.5795C11.5069 12.6282 11.5191 12.6099 11.2605 12.7864C10.7066 13.1638 10.0158 13.535 9.16975 13.9094C9.02066 13.9763 8.89591 14.028 8.89288 14.028C8.88681 14.028 8.90501 13.952 8.92933 13.8607C9.13324 13.1029 9.2489 12.336 9.25502 11.7213C9.25805 11.4169 9.25805 11.4169 9.28545 11.4079C9.27934 11.4109 9.28237 11.4109 9.28545 11.4109ZM8.86247 11.5722C8.88067 11.5904 8.86853 12.2721 8.84417 12.4577C8.7894 12.902 8.70419 13.3159 8.56425 13.7816C8.53076 13.8941 8.50028 13.9885 8.49426 13.9945C8.48202 14.0097 8.06511 13.602 7.92818 13.4437C7.69079 13.1698 7.5052 12.8959 7.36825 12.6281C7.29825 12.4912 7.18872 12.2234 7.19783 12.2143C7.24651 12.1808 8.85029 11.56 8.86247 11.5722ZM6.87219 12.3543C6.87522 12.3543 6.87825 12.3543 6.88134 12.3573C6.8874 12.3634 6.90875 12.4121 6.927 12.4668C7.02435 12.7316 7.24343 13.1211 7.43216 13.3707C7.63909 13.6446 7.90996 13.9367 8.1351 14.1284C8.20817 14.1893 8.27508 14.2471 8.28418 14.2562C8.30248 14.2745 8.30856 14.2714 7.8125 14.4601C7.23741 14.6792 6.61047 14.8983 5.89226 15.1296C5.7207 15.1849 5.54929 15.2407 5.37805 15.297C5.35061 15.3061 5.35976 15.2909 5.43888 15.1662C5.79492 14.6092 6.33658 13.5168 6.64092 12.7438C6.69266 12.6099 6.74439 12.476 6.75354 12.4456C6.76572 12.4029 6.7809 12.3877 6.82045 12.3664C6.84175 12.3604 6.86308 12.3543 6.87219 12.3543ZM6.26361 12.6068C6.27272 12.613 6.11751 12.9385 5.96535 13.2368C5.67015 13.8119 5.34758 14.378 4.91545 15.0657C4.84242 15.1844 4.77245 15.294 4.76331 15.3062C4.74811 15.3275 4.74199 15.3214 4.69331 15.227C4.58984 15.0231 4.5046 14.7614 4.45897 14.521C4.4133 14.2836 4.42245 13.8698 4.47421 13.6141C4.51372 13.4255 4.51072 13.4285 4.60201 13.3829C4.99153 13.1851 6.25143 12.5947 6.26361 12.6068ZM11.5131 12.8199V12.9477C11.5131 13.6263 11.44 14.5575 11.3335 15.2362C11.3152 15.3549 11.3 15.4522 11.297 15.4553C11.297 15.4553 11.2087 15.431 11.1053 15.4005C10.6488 15.2575 10.1528 15.0475 9.70539 14.801C9.41016 14.6397 8.9811 14.3749 8.9933 14.3628C8.99629 14.3597 9.12413 14.2928 9.27322 14.2136C9.86976 13.9033 10.4418 13.5685 10.9379 13.2368C11.1235 13.112 11.4034 12.9112 11.4644 12.8564L11.5131 12.8199ZM3.96597 13.7206C3.97813 13.7206 3.97509 13.745 3.95683 13.8545C3.94465 13.9337 3.92945 14.0797 3.9234 14.1801C3.899 14.6244 3.97208 14.9531 4.19118 15.4035C4.25205 15.5283 4.30077 15.6317 4.29768 15.6348C4.27637 15.6531 2.26183 16.2435 1.6288 16.4169C1.44014 16.4686 1.27584 16.5143 1.2636 16.5173C1.24234 16.5234 1.23928 16.5204 1.2484 16.4686C1.31839 16.0213 1.65924 15.437 2.13396 14.944C2.45046 14.6153 2.70306 14.4236 3.13518 14.1771C3.44559 14.0006 3.92336 13.7359 3.95988 13.7237C3.9599 13.7206 3.96293 13.7206 3.96597 13.7206ZM8.71334 14.5697C8.71637 14.5666 8.7894 14.6062 8.87764 14.6579C9.52889 15.0353 10.4357 15.3853 11.2087 15.5648L11.2787 15.58L11.1813 15.6348C10.7766 15.86 9.44671 16.4138 8.08644 16.9221C7.8886 16.9951 7.69386 17.0681 7.65729 17.0833C7.62078 17.0985 7.5873 17.1077 7.5873 17.1046C7.5873 17.1016 7.64211 16.9951 7.71205 16.8642C8.09245 16.1521 8.47592 15.2848 8.67067 14.6823C8.69508 14.6245 8.71025 14.5727 8.71334 14.5697ZM8.22947 14.7279C8.23256 14.731 8.20818 14.7949 8.17773 14.8679C7.91299 15.51 7.56602 16.21 7.12174 16.9951C7.00917 17.196 6.91481 17.3573 6.91172 17.3573C6.90873 17.3573 6.8174 17.3025 6.70786 17.2355C6.06267 16.8399 5.49058 16.353 5.1163 15.8813L5.0615 15.8144L5.3384 15.7383C6.33049 15.4675 7.17341 15.1753 8.01033 14.8162C8.12903 14.7675 8.22644 14.7279 8.22947 14.7279ZM11.2361 15.7778C11.2392 15.8478 11.084 16.4747 10.9561 16.9281C10.8496 17.3085 10.7583 17.6068 10.591 18.1332C10.5179 18.3645 10.4541 18.5562 10.451 18.5562C10.4479 18.5562 10.4297 18.5532 10.4114 18.5471C9.50762 18.3828 8.69812 18.1545 7.93733 17.8502C7.72427 17.765 7.41998 17.628 7.40172 17.6128C7.39566 17.6067 7.57826 17.5215 7.80953 17.4211C9.19417 16.8155 10.6305 16.1278 11.1235 15.8326C11.1813 15.7961 11.227 15.7778 11.2361 15.7778ZM4.29465 16.0152C4.30074 16.0213 3.91425 16.5782 3.37254 17.3359C3.18388 17.6007 2.96478 17.9111 2.88263 18.0267C2.80045 18.1424 2.67569 18.325 2.6057 18.4345L2.47783 18.6323L2.34088 18.5167C2.17958 18.3828 1.89964 18.0967 1.77487 17.9385C1.51314 17.6129 1.33667 17.269 1.26668 16.9556C1.23319 16.8095 1.23319 16.7364 1.26359 16.7274C1.30922 16.7152 2.12176 16.5234 2.8826 16.3469C3.3056 16.2496 3.79552 16.1339 3.97203 16.0913C4.14855 16.0486 4.29162 16.0152 4.29465 16.0152ZM4.68416 16.1643L4.78151 16.2739C5.21978 16.7638 5.66711 17.126 6.2088 17.4425C6.3062 17.4973 6.37922 17.5459 6.3731 17.549C6.35185 17.5642 4.49242 18.2245 3.63122 18.5228C3.14738 18.6932 2.7487 18.8301 2.74569 18.8301C2.74266 18.8301 2.71525 18.8119 2.68477 18.7906L2.63003 18.751L2.71827 18.6232C3.00431 18.2093 3.36346 17.7559 4.14555 16.8125L4.68416 16.1643ZM7.11265 17.902C7.11564 17.8989 7.24954 17.9476 7.41386 18.0085C7.80953 18.1576 8.12292 18.2519 8.54292 18.3585C9.06026 18.4893 9.80887 18.6171 10.2502 18.6536C10.3171 18.6597 10.3536 18.6658 10.3414 18.675C10.3201 18.6871 9.8728 18.8363 9.54413 18.9397C9.02066 19.104 7.42302 19.5757 6.12056 19.9501C5.88014 20.02 5.67319 20.0779 5.66102 20.0809C5.63063 20.087 5.53016 20.0596 5.53016 20.0474C5.53016 20.0414 5.60319 19.947 5.69146 19.8435C6.12965 19.3201 6.56486 18.7358 6.927 18.182C7.0274 18.0298 7.11265 17.905 7.11265 17.902ZM6.577 17.9172C6.58003 17.9202 6.36399 18.2671 5.98668 18.8636C5.82535 19.1162 5.6458 19.4022 5.58188 19.5027C5.52101 19.6 5.42973 19.7522 5.37802 19.8374L5.28975 19.9926L5.24411 19.9805C5.13453 19.95 4.36462 19.6792 4.16072 19.597C3.90812 19.4966 3.64641 19.3749 3.45163 19.2714C3.20821 19.1405 2.90392 18.9458 2.92824 18.9397C2.93431 18.9367 3.35124 18.824 3.85333 18.6871C5.18627 18.3249 5.92573 18.115 6.40964 17.9628C6.49791 17.9354 6.57397 17.9141 6.577 17.9172ZM10.3658 18.8058H10.3688C10.381 18.8362 9.88801 20.2057 9.70839 20.6378C9.66889 20.7351 9.65372 20.7595 9.63237 20.7564C9.58063 20.7534 8.86551 20.653 8.43028 20.5891C7.67257 20.4734 6.40051 20.2513 6.081 20.1783L6.00797 20.1631L6.46134 20.0595C7.43519 19.8404 7.90383 19.7218 8.37854 19.5757C8.97807 19.3931 9.57152 19.1649 10.171 18.8849C10.2653 18.8423 10.3445 18.8088 10.3658 18.8058Z" fill="url(#paint0_linear_531_23846)"/>
<path d="M8.1048 0.811466C8.03785 0.802386 6.95748 1.19191 6.26062 1.47489C5.32026 1.85837 4.58994 2.22357 4.13953 2.53999C3.97218 2.65873 3.76216 2.86868 3.72873 2.95083C3.71657 2.98127 3.71045 3.01778 3.71045 3.0543L4.11825 3.44079L5.089 3.75119L7.39879 4.16507L10.0402 4.61851L10.0676 4.39027C10.0585 4.39027 10.0524 4.38724 10.0434 4.38724L9.69635 4.33244L9.62641 4.20769C9.2673 3.57469 8.87169 2.78955 8.64042 2.26003C8.46089 1.84919 8.29046 1.37451 8.1961 1.03365C8.14436 0.82672 8.1383 0.814553 8.10487 0.811522V0.811452H8.1048V0.811466ZM8.05605 0.966715H8.05918C8.06217 0.969718 8.07435 1.05498 8.08654 1.15535C8.13823 1.58145 8.23264 1.99222 8.38173 2.43654C8.49431 2.7713 8.49431 2.75306 8.36347 2.71347C8.05307 2.62829 6.66235 2.38787 5.65506 2.24789C5.49376 2.22658 5.35681 2.20529 5.35681 2.20226C5.34465 2.19009 6.08411 1.80357 6.40974 1.65145C6.82665 1.45969 7.97088 0.981913 8.05605 0.966715ZM5.12244 2.33004L5.24118 2.36956C5.88629 2.5887 7.50826 2.89912 8.40301 2.97215C8.5034 2.98128 8.58865 2.99043 8.59164 2.99043C8.59467 2.99346 8.50952 3.03911 8.39993 3.09083C7.96785 3.3069 7.49309 3.57166 7.16442 3.77556C7.06707 3.8364 6.97877 3.88512 6.96663 3.88512C6.95445 3.88512 6.89057 3.87294 6.82362 3.8638L6.7019 3.84552L6.39762 3.54727C5.86201 3.02692 5.44204 2.62523 5.28074 2.47304L5.12244 2.33004ZM5.00076 2.42436L5.42984 2.95998C5.66414 3.25517 5.90151 3.54425 5.9533 3.60813C6.00498 3.67208 6.04761 3.72384 6.04458 3.72687C6.0324 3.73599 5.42381 3.61728 5.10118 3.54428C4.76948 3.46818 4.63254 3.43166 4.42866 3.36779L4.26127 3.31299V3.27035C4.2643 3.06645 4.523 2.76215 4.9612 2.45178L5.00076 2.42436ZM8.64647 3.15473C8.65866 3.15473 8.67383 3.18211 8.71035 3.26428C8.81381 3.4925 9.13645 4.10725 9.2155 4.22592C9.23992 4.26552 9.28245 4.26855 8.85342 4.19855C7.8218 4.03114 7.49006 3.97642 7.49006 3.97033C7.49006 3.9673 7.5205 3.94598 7.56006 3.92467C7.87961 3.7482 8.20216 3.52298 8.48824 3.28256C8.55824 3.22473 8.62215 3.16996 8.63429 3.16081C8.63732 3.15473 8.64344 3.1517 8.64647 3.15473Z" fill="url(#paint1_linear_531_23846)"/>
<path d="M3.75024 2.90823C3.75024 2.90823 3.68333 3.01479 3.74723 3.17304C3.78683 3.27039 3.90245 3.38905 4.03328 3.51081C4.03328 3.51081 5.38749 4.83153 5.55183 5.02023C6.30042 5.88447 6.62606 6.73657 6.6565 7.91125C6.67475 8.66595 6.53168 9.32936 6.17566 10.0993C5.54268 11.4809 4.2067 13.0055 2.14648 14.6976L2.44781 14.5971C2.64256 14.451 2.90732 14.2959 3.52811 13.955C4.96142 13.1698 6.57432 12.4486 8.5524 11.7061C11.4007 10.6349 16.0842 9.38104 18.75 8.97331L19.027 8.93068L18.9843 8.86372C18.7409 8.48636 18.5735 8.25206 18.3726 8.00252C17.7884 7.27824 17.0794 6.69093 16.212 6.20401C15.0191 5.53758 13.4762 5.0172 11.5225 4.63071C11.1543 4.55764 10.3448 4.41768 9.68748 4.31725C8.29368 4.10124 7.3929 3.9521 6.40085 3.78168C6.04483 3.72079 5.51223 3.62951 5.15922 3.55345C4.97663 3.51385 4.6267 3.4317 4.35282 3.33737C4.13372 3.25212 3.8172 3.16691 3.75024 2.90823ZM4.53543 3.66906C4.53843 3.66606 4.58711 3.68426 4.65106 3.70557C4.7667 3.74509 4.9158 3.79075 5.09235 3.83948C5.22592 3.87622 5.35982 3.91172 5.49404 3.94598C5.67663 3.9916 5.82876 4.03422 5.83179 4.03422C5.85314 4.05553 6.16051 5.03841 6.26397 5.41577C6.30348 5.55884 6.33397 5.68054 6.33092 5.68054C6.3278 5.68363 6.29437 5.63186 6.25482 5.56187C5.89876 4.93497 5.33577 4.29895 4.68452 3.78768C4.59935 3.72688 4.53543 3.67209 4.53543 3.66906ZM6.03266 4.08293C6.04789 4.08293 6.11484 4.09206 6.19696 4.11031C6.71431 4.22594 7.6425 4.40245 8.23589 4.50289C8.33633 4.51808 8.41548 4.53638 8.41548 4.54243C8.41548 4.54855 8.37892 4.56981 8.33326 4.59419C8.23288 4.6459 7.8281 4.88629 7.69424 4.9776C7.35642 5.20279 7.05214 5.44624 6.83301 5.66534C6.74477 5.75361 6.66865 5.82664 6.66865 5.82664C6.66865 5.82664 6.65045 5.77493 6.63517 5.71098C6.52568 5.28797 6.2974 4.66107 6.09047 4.21983C6.05698 4.14987 6.02958 4.08594 6.02958 4.07988C6.02958 4.08596 6.02958 4.08293 6.03266 4.08293ZM8.66803 4.58505C8.68629 4.59111 8.71673 4.69459 8.77758 4.92282C8.89019 5.3641 8.94193 5.85709 8.92368 6.31661C8.91756 6.44442 8.91149 6.56309 8.90538 6.57834L8.89627 6.60874L8.73803 6.55703C8.4124 6.45356 7.88292 6.29832 7.4295 6.17054C7.17079 6.10054 6.96086 6.03663 6.96086 6.03056C6.96086 6.01227 7.33823 5.63493 7.4995 5.49192C7.8068 5.22104 8.64063 4.5759 8.66803 4.58505ZM8.87801 4.61545C8.88716 4.60637 10.1379 4.82238 10.707 4.93195C11.13 5.0141 11.7447 5.14193 11.7812 5.15717C11.7995 5.16323 11.7355 5.19975 11.5316 5.29103C10.7283 5.6532 10.1318 5.97877 9.53841 6.37443C9.38321 6.47789 9.25233 6.56309 9.2493 6.56309C9.24627 6.56309 9.24323 6.47486 9.24323 6.36834C9.24323 5.79015 9.12758 5.20585 8.91451 4.71286C8.89322 4.66417 8.87497 4.61853 8.87801 4.61545ZM12.1129 5.25455C12.122 5.26367 12.0825 5.51019 12.0459 5.65623C11.9364 6.10968 11.6412 6.78226 11.2791 7.4152C11.2152 7.5278 11.1574 7.6191 11.1512 7.62213C11.1452 7.62517 11.063 7.5795 10.9687 7.52473C10.6157 7.3178 10.214 7.12304 9.77575 6.94043C9.65406 6.88872 9.54752 6.84608 9.54448 6.84005C9.52313 6.82176 10.5031 6.17357 11.0204 5.86317C11.4312 5.61364 12.1007 5.24235 12.1129 5.25455ZM12.3442 5.29105C12.3716 5.29105 12.9254 5.44322 13.2145 5.52843C13.9297 5.74147 14.7513 6.04272 15.2869 6.28617L15.509 6.38664L15.3539 6.42312C14.0453 6.72437 12.9254 7.07134 11.8451 7.50955C11.7568 7.54606 11.6777 7.5765 11.6717 7.5765C11.6656 7.5765 11.696 7.50651 11.7356 7.42128C12.0612 6.73049 12.2712 6.00925 12.3228 5.3945C12.3259 5.33667 12.335 5.29105 12.3442 5.29105ZM6.82997 6.55703C6.83908 6.54788 7.2621 6.64833 7.49034 6.71218C7.83725 6.8096 8.57367 7.05606 8.57367 7.07435C8.57367 7.07738 8.49154 7.14738 8.39419 7.23261C7.99553 7.56432 7.61206 7.91424 7.15251 8.35856C7.01556 8.48946 6.89996 8.59596 6.8939 8.59596C6.88778 8.59596 6.88479 8.57766 6.88778 8.55332C6.95776 8.04205 6.94259 7.38475 6.8452 6.7183C6.83604 6.63306 6.82693 6.56006 6.82997 6.55703ZM15.7191 6.56618C15.7251 6.57223 15.5243 6.88872 15.3965 7.06824C15.2139 7.32995 14.946 7.67693 14.3405 8.43772C14.021 8.83938 13.6618 9.29285 13.5432 9.44499C13.4214 9.59714 13.321 9.72493 13.318 9.72493C13.3149 9.72493 13.2754 9.67019 13.2328 9.60325C12.8919 9.09197 12.4841 8.64462 12.0003 8.24294C11.909 8.16683 11.8086 8.08467 11.7751 8.06032C11.7416 8.03599 11.7142 8.01164 11.7142 8.00861C11.7142 7.9995 12.2315 7.7773 12.6242 7.61909C13.3119 7.3391 14.2491 7.00436 14.9522 6.78828C15.3204 6.67266 15.713 6.56006 15.7191 6.56618ZM15.9534 6.627C15.9655 6.62398 16.0386 6.66049 16.1268 6.71218C16.8664 7.13518 17.5906 7.67994 18.1627 8.23989C18.324 8.39816 18.7227 8.81203 18.7166 8.81506C18.7166 8.81506 18.5766 8.82722 18.4123 8.83938C17.1311 8.9368 15.4909 9.20759 13.9145 9.58798C13.808 9.6123 13.7137 9.63362 13.7075 9.63362C13.7015 9.63362 13.8201 9.51495 13.9693 9.37194C14.8944 8.48029 15.3174 7.91731 15.8165 6.91304C15.8864 6.76396 15.9473 6.63615 15.9534 6.627C15.9504 6.627 15.9504 6.627 15.9534 6.627ZM9.17623 7.32088C9.21886 7.32996 9.61448 7.51566 9.9127 7.66474C10.1866 7.80163 10.5974 8.02079 10.6187 8.03902C10.6218 8.04205 10.4757 8.11814 10.2962 8.20641C9.72402 8.49246 9.23409 8.76327 8.7228 9.07369C8.57675 9.16196 8.45502 9.23503 8.45199 9.23503C8.43981 9.23503 8.44284 9.22279 8.52502 9.07369C8.79892 8.57465 9.01799 7.97819 9.14281 7.39692C9.15493 7.35128 9.16712 7.32088 9.17623 7.32088ZM8.78061 7.39388C8.78976 7.40303 8.68629 7.77731 8.62241 7.98122C8.4976 8.36771 8.28763 8.85156 8.08377 9.21674C8.03502 9.30191 7.96201 9.4267 7.92245 9.49668L7.84639 9.6184L7.67597 9.45412C7.47818 9.26238 7.31686 9.1437 7.10997 9.03716C7.02775 8.9946 6.96387 8.95804 6.96387 8.95199C6.96387 8.92765 7.48425 8.45596 7.8829 8.11512C8.16894 7.86861 8.7715 7.38476 8.78061 7.39388ZM11.2 8.38902L11.3491 8.48637C11.6899 8.70856 12.0916 9.00372 12.399 9.26238C12.5724 9.40538 12.9071 9.7067 12.9741 9.77973L13.0106 9.81933L12.7642 9.8893C11.3704 10.2757 10.2931 10.6196 9.03625 11.0822C8.89627 11.1339 8.77758 11.1765 8.76843 11.1765C8.75023 11.1765 8.73496 11.1917 9.04845 10.9026C9.85186 10.1632 10.5639 9.34758 11.0935 8.55331L11.2 8.38902ZM10.564 8.54726C10.57 8.55332 10.1531 9.14064 9.90355 9.47236C9.60533 9.86798 9.0758 10.5314 8.71062 10.9635C8.5585 11.1431 8.42767 11.2922 8.42155 11.2952C8.4124 11.2983 8.40937 11.2526 8.40937 11.1826C8.40937 10.8144 8.31506 10.4218 8.1507 10.0871C8.0807 9.94709 8.06852 9.91361 8.08379 9.89841C8.14159 9.84665 9.02714 9.34149 9.58707 9.04023C9.96442 8.83939 10.5547 8.54117 10.564 8.54726ZM6.71734 9.49064C6.72649 9.49064 6.79649 9.52713 6.87563 9.56976C7.07038 9.67626 7.24384 9.79494 7.39904 9.92278C7.4051 9.92885 7.32601 9.99278 7.22254 10.0688C6.93343 10.2757 6.49523 10.6075 6.23964 10.8114C5.97177 11.0244 5.96271 11.0305 5.9931 10.9848C6.19397 10.6775 6.29435 10.504 6.40091 10.2819C6.49523 10.0841 6.58954 9.84976 6.6565 9.64585C6.68083 9.5576 6.71128 9.49064 6.71734 9.49064ZM7.74293 10.294C7.7581 10.291 7.77642 10.3184 7.85854 10.4401C8.03201 10.6987 8.16591 11.0457 8.19944 11.3257L8.20546 11.3866L7.7886 11.5479C7.04297 11.8369 6.35526 12.123 5.88959 12.336C5.75878 12.3969 5.53053 12.5064 5.38144 12.5795C5.23231 12.6555 5.11058 12.7134 5.11058 12.7103C5.11058 12.7073 5.2049 12.6373 5.32053 12.5521C6.2305 11.8917 7.01865 11.1674 7.60902 10.4432C7.67294 10.3671 7.73078 10.2971 7.73682 10.294L7.74293 10.294ZM7.27125 10.4097C7.28343 10.4218 6.93652 10.8144 6.69914 11.0548C6.11181 11.6543 5.53055 12.123 4.8093 12.5795C4.71802 12.6373 4.63587 12.689 4.62672 12.6951C4.6054 12.7073 4.63278 12.6768 4.94928 12.333C5.15016 12.1169 5.30229 11.9343 5.47575 11.7091C5.59139 11.5601 5.6127 11.5387 5.78011 11.42C6.22746 11.0974 7.25907 10.3975 7.27125 10.4097Z" fill="url(#paint2_radial_531_23846)"/>
<defs>
<linearGradient id="paint0_linear_531_23846" x1="3.6877" y1="18.9268" x2="5.14355" y2="18.0666" gradientUnits="userSpaceOnUse">
<stop stop-color="#909CA9"/>
<stop offset="1" stop-color="#EDEDEE"/>
</linearGradient>
<linearGradient id="paint1_linear_531_23846" x1="3.72113" y1="2.70904" x2="4.89254" y2="2.70904" gradientUnits="userSpaceOnUse">
<stop stop-color="#939FAB"/>
<stop offset="1" stop-color="#DCDEE1"/>
</linearGradient>
<radialGradient id="paint2_radial_531_23846" cx="0" cy="0" r="1" gradientUnits="userSpaceOnUse" gradientTransform="translate(9.63234 8.08149) rotate(-171.457) scale(1.51027 3.02129)">
<stop stop-color="#EE352C"/>
<stop offset="1" stop-color="#A91D22"/>
</radialGradient>
</defs>
</svg>
