<svg width="38" height="39" viewBox="0 0 38 39" fill="none" xmlns="http://www.w3.org/2000/svg">
<g clip-path="url(#clip0_531_23986)">
<path d="M0 27.7705H1.25934V22.7988L3.20863 27.1325C3.43811 27.658 3.7525 27.8424 4.37059 27.8424C4.98869 27.8424 5.29031 27.658 5.5198 27.1325L7.46908 22.7988V27.7702H8.72842V22.8071C8.72842 22.3223 8.53486 22.088 8.13467 21.9675C7.17784 21.6694 6.53659 21.9268 6.24566 22.5728L4.33348 26.8508L2.48158 22.5728C2.20341 21.9268 1.54939 21.6694 0.59375 21.9675C0.193563 22.088 0 22.3223 0 22.8071L0 27.7705ZM9.77609 23.7232H11.0343V26.4625C11.0227 26.6109 11.0818 26.9601 11.7717 26.9716H14.5098V23.7093H15.7715C15.7774 23.7093 15.7691 28.1576 15.7691 28.1764C15.7759 29.2733 14.4088 29.5111 13.778 29.5298H9.80281V28.6831L13.7851 28.6819C14.5956 28.5973 14.4994 28.1936 14.4994 28.0591V27.7287H11.8239C10.5785 27.7171 9.78649 27.1732 9.77609 26.548C9.77491 26.4913 9.80281 23.7511 9.77609 23.7232Z" fill="#00618A"/>
<path d="M16.7412 27.7706H20.3616C20.7849 27.7706 21.1967 27.6812 21.5236 27.5283C22.0686 27.2789 22.334 26.9393 22.334 26.4952V25.5755C22.334 25.2124 22.0324 24.8728 21.4387 24.6477C21.1243 24.526 20.736 24.4622 20.3613 24.4622H18.8351C18.3271 24.4622 18.0849 24.309 18.0246 23.9706C18.013 23.9299 18.013 23.8975 18.013 23.8569V23.2839C18.013 23.2515 18.013 23.2189 18.0246 23.1785C18.0849 22.9211 18.2182 22.8481 18.6659 22.8074L18.7876 22.7994H22.3824V21.961H18.8481C18.3402 21.961 18.0736 21.9934 17.831 22.0655C17.0808 22.2997 16.7537 22.6708 16.7537 23.3168V24.051C16.7537 24.6157 17.3949 25.1005 18.4723 25.213L18.8354 25.2293H20.1434C20.1921 25.2293 20.2396 25.2293 20.2767 25.2373C20.6757 25.2697 20.8449 25.3427 20.9666 25.4879C21.0293 25.5458 21.0652 25.6283 21.0628 25.7129V26.4483C21.0628 26.5364 21.0026 26.6502 20.882 26.7463C20.7731 26.8437 20.5911 26.9075 20.3497 26.9239L20.2164 26.9319H16.7412V27.7706ZM30.1888 26.3093C30.1888 27.1732 30.8312 27.6569 32.1253 27.7542L32.4895 27.7706H35.7703V26.931H32.4652C31.7266 26.931 31.4481 26.7454 31.4481 26.3013V21.9592H30.1899V26.309L30.1888 26.3093ZM23.138 26.3533V23.3602C23.138 22.6005 23.6726 22.1391 24.7277 21.994C24.8403 21.9777 24.9539 21.9696 25.0677 21.9696H27.4566C27.5783 21.9696 27.6873 21.9776 27.8093 21.994C28.8647 22.1388 29.3982 22.6005 29.3982 23.3602V26.3533C29.3982 26.9702 29.172 27.2997 28.6492 27.5152L29.8901 28.6345H28.4277L27.4246 27.7287L26.4146 27.7925H25.0683C24.818 27.7916 24.5691 27.7565 24.3284 27.688C23.5272 27.4701 23.1386 27.0492 23.1386 26.3533H23.138ZM24.4971 26.2802C24.4971 26.3209 24.5086 26.3613 24.5214 26.4103C24.5944 26.7582 24.9216 26.9518 25.4189 26.9518H26.5624L25.5118 26.0033H26.9742L27.8904 26.8312C28.0596 26.7407 28.1697 26.6038 28.2092 26.4266C28.2208 26.3859 28.2208 26.3456 28.2208 26.3049V23.4347C28.2208 23.4023 28.2208 23.3617 28.2092 23.321C28.1362 22.9974 27.809 22.8119 27.3233 22.8119H25.4192C24.8613 22.8119 24.4974 23.0541 24.4974 23.4347L24.4971 26.2802Z" fill="#E48E00"/>
<path d="M36.8775 20.5666C36.1041 20.5458 35.5124 20.6177 35.0069 20.8311C34.8632 20.8914 34.6334 20.8926 34.6102 21.0725C34.6892 21.1559 34.702 21.28 34.7646 21.3809C34.8851 21.5769 35.0894 21.8378 35.2714 21.9747L35.8871 22.4152C36.265 22.6459 36.6884 22.7783 37.0538 23.009C37.2684 23.1458 37.4816 23.3174 37.6915 23.4718C37.7948 23.5472 37.8643 23.6666 37.9999 23.7141V23.6921C37.9293 23.6015 37.9106 23.4774 37.8456 23.3836L37.5591 23.0971C37.2797 22.7261 36.9247 22.4001 36.5467 22.1287C36.2451 21.9129 35.5727 21.6208 35.4462 21.2705L35.4243 21.2485C35.6377 21.2254 35.8883 21.1476 36.0842 21.0953C36.4158 21.006 36.7115 21.0291 37.0526 20.9409L37.5154 20.8076V20.7207C37.3427 20.5431 37.2198 20.3089 37.0307 20.1477C36.539 19.7291 36.0008 19.3093 35.4465 18.959C35.1393 18.7654 34.7602 18.6402 34.4342 18.4754C34.3252 18.4199 34.1326 18.392 34.0595 18.2991C33.8891 18.0812 33.7962 17.8051 33.6641 17.5509L32.872 15.8786C32.7052 15.4972 32.5959 15.1201 32.3872 14.7781C31.3888 13.1349 30.3127 12.1434 28.646 11.1693C28.2924 10.9618 27.8643 10.8804 27.4146 10.7739L26.6875 10.7299C26.5403 10.6673 26.3871 10.4865 26.2482 10.3995C25.6963 10.0504 24.2802 9.29217 23.8708 10.2894C23.6134 10.919 24.257 11.5336 24.4877 11.8527C24.6489 12.0766 24.8564 12.3271 24.9713 12.5786C25.0479 12.7433 25.0607 12.909 25.1257 13.0841C25.2857 13.5155 25.4249 13.984 25.6324 14.383C25.7369 14.5849 25.8515 14.7971 25.9839 14.9767C26.065 15.0869 26.2042 15.1367 26.2262 15.3072C26.0905 15.4974 26.0825 15.7919 26.0059 16.033C25.6615 17.1172 25.7913 18.4647 26.2924 19.2684C26.4456 19.5142 26.8072 20.0429 27.3047 19.8401C27.7397 19.6626 27.6423 19.1143 27.7664 18.6295C27.7955 18.5205 27.7779 18.4392 27.8326 18.3661V18.3881L28.2292 19.1802C28.5225 19.6522 29.042 20.145 29.4829 20.4778C29.7124 20.6506 29.8923 20.9499 30.188 21.0508V21.0276H30.166C30.1081 20.9395 30.0188 20.9024 29.9457 20.8305C29.7729 20.6613 29.5815 20.4514 29.4402 20.2575C29.0388 19.7137 28.684 19.1175 28.3616 18.4971C28.2072 18.2014 28.0727 17.8742 27.943 17.5729C27.8931 17.4568 27.8943 17.2808 27.7898 17.2214C27.6473 17.4417 27.4374 17.6204 27.327 17.8814C27.1507 18.2976 27.1287 18.8067 27.0625 19.3334L27.0185 19.3553C26.7125 19.2811 26.6044 18.9658 26.491 18.6954C26.2021 18.0111 26.149 16.9082 26.4028 16.1209C26.4678 15.9169 26.7647 15.2742 26.6442 15.0866C26.5875 14.8987 26.3984 14.7897 26.2927 14.646C26.1545 14.4533 26.0364 14.247 25.9403 14.0303C25.7049 13.4956 25.5947 12.8974 25.3465 12.358C25.2284 12.0994 25.0277 11.8385 24.8629 11.609C24.6798 11.3552 24.4755 11.1684 24.3342 10.8609C24.2843 10.7519 24.216 10.5767 24.2903 10.4642C24.3134 10.3888 24.3482 10.3576 24.4224 10.3333C24.55 10.2347 24.906 10.3657 25.0381 10.4203C25.3917 10.5675 25.6865 10.7068 25.9854 10.9051C26.1279 11.0001 26.2731 11.1844 26.4471 11.2355H26.6454C26.955 11.3062 27.3018 11.2563 27.5918 11.3445C28.1033 11.4997 28.5626 11.7423 28.9776 12.0056C30.2462 12.8057 31.2832 13.9457 31.9927 15.306C32.1076 15.5251 32.1563 15.7338 32.2572 15.9659C32.4603 16.4344 32.7153 16.9168 32.9172 17.3749C33.119 17.833 33.315 18.2934 33.5991 18.6737C33.7487 18.8732 34.3273 18.9798 34.5894 19.0911C34.7738 19.1689 35.0754 19.2499 35.2494 19.3556C35.5834 19.5563 35.9058 19.795 36.219 20.0156C36.3743 20.1269 36.8546 20.3683 36.8789 20.5663L36.8775 20.5666ZM27.0399 12.1822C26.9068 12.18 26.7739 12.1947 26.6445 12.2262V12.2481H26.6664C26.743 12.407 26.8787 12.5091 26.9737 12.6448L27.194 13.1064L27.216 13.0856C27.3528 12.9894 27.4143 12.8351 27.4143 12.6008C27.3588 12.5429 27.3516 12.4711 27.3041 12.4025C27.2415 12.3108 27.1201 12.26 27.0399 12.1822Z" fill="#00618A"/>
</g>
<defs>
<clipPath id="clip0_531_23986">
<rect width="38" height="38" fill="white" transform="translate(0 0.661987)"/>
</clipPath>
</defs>
</svg>
