<svg width="24" height="25" viewBox="0 0 24 25" fill="none" xmlns="http://www.w3.org/2000/svg">
<g clip-path="url(#clip0_526_23314)">
<path d="M22.242 2.16367C23.3708 3.29242 23.9568 4.70636 23.9996 6.40558V18.4057C23.9568 20.1044 23.3708 21.5188 22.242 22.6476C21.1133 23.7763 19.6988 24.3624 17.9997 24.4056H5.99991C4.30069 24.3625 2.88675 23.7764 1.758 22.6476C0.62925 21.5189 0.043125 20.1045 0 18.4058V6.40567C0.043125 4.70645 0.629156 3.29251 1.758 2.16376C2.88675 1.03492 4.30069 0.448795 5.99991 0.40567H17.9997C19.6988 0.448795 21.1133 1.03483 22.242 2.16367ZM20.5868 11.8199C20.2097 11.4447 20.0137 10.9739 19.9981 10.4075V6.40567C19.9861 5.83923 19.7917 5.36767 19.4149 4.99089C19.038 4.61373 18.5661 4.41967 17.9997 4.40776H16.0017V14.404L7.99828 4.40758H5.99991C5.43347 4.41958 4.96191 4.61364 4.58513 4.9908C4.20797 5.36767 4.01391 5.83923 4.002 6.40548V10.4075C3.98634 10.9739 3.79031 11.4447 3.41316 11.8199C3.03628 12.1946 2.56472 12.3899 1.99838 12.4055C2.56472 12.4214 3.03638 12.6167 3.41306 12.9914C3.79031 13.3666 3.98634 13.8374 4.00191 14.4039V18.4057C4.01391 18.9716 4.20797 19.4437 4.58513 19.8205C4.962 20.1973 5.43356 20.3917 5.99981 20.4036H7.99828V10.4076L16.0017 20.4039H17.9997C18.5661 20.3919 19.0381 20.1974 19.4149 19.8206C19.7918 19.4438 19.9861 18.9718 19.998 18.406V14.404C20.0137 13.8375 20.2097 13.3667 20.5868 12.9915C20.9637 12.6168 21.4353 12.4215 22.0016 12.4056C21.4353 12.3899 20.9636 12.1947 20.5869 11.82L20.5868 11.8199Z" fill="#3C5AFD"/>
</g>
<defs>
<clipPath id="clip0_526_23314">
<rect width="24" height="24" fill="white" transform="translate(0 0.40567)"/>
</clipPath>
</defs>
</svg>
