<svg width="33" height="20" viewBox="0 0 33 20" fill="none" xmlns="http://www.w3.org/2000/svg">
<g clip-path="url(#clip0_544_36231)">
<path d="M7.78658 5.90247H14.0107V6.37439H8.35712V9.92591H13.6736V10.3978H8.35712V14.297H14.0755V14.7689H7.78658V5.90247ZM14.5683 5.90247H15.2296L18.1601 9.80172L21.1555 5.9024L25.2296 0.94957L18.5361 10.2115L21.9853 14.7689H21.2981L18.1601 10.6213L15.0091 14.7689H14.3349L17.81 10.2115L14.5683 5.90247ZM22.2317 6.37439V5.9024H29.3246V6.37433H26.0569V14.7688H25.4864V6.37439H22.2317ZM0 5.9024H0.713174L10.5474 19.9397L6.48347 14.7688L0.596449 6.57303L0.570539 14.7689H0L0 5.9024ZM29.2671 14.1545C29.1505 14.1545 29.0631 14.0684 29.0631 13.957C29.0631 13.8458 29.1505 13.7596 29.2671 13.7596C29.3851 13.7596 29.4711 13.8457 29.4711 13.957C29.4711 14.0684 29.3851 14.1545 29.2671 14.1545ZM29.8277 13.635H30.1331C30.1372 13.7927 30.2579 13.8988 30.4355 13.8988C30.634 13.8988 30.7464 13.7848 30.7464 13.5714V12.2194H31.0573V13.5727C31.0573 13.957 30.8241 14.1784 30.4383 14.1784C30.0761 14.1784 29.8277 13.9637 29.8277 13.6349V13.635ZM31.4638 13.6178H31.7719C31.7983 13.7993 31.9842 13.9146 32.2521 13.9146C32.5018 13.9146 32.685 13.7913 32.685 13.6217C32.685 13.476 32.5684 13.3885 32.3034 13.3288L32.0453 13.2692C31.683 13.1883 31.518 13.0213 31.518 12.7403C31.518 12.3997 31.8094 12.1731 32.2465 12.1731C32.653 12.1731 32.9501 12.3997 32.9681 12.7218H32.6656C32.6364 12.5455 32.4754 12.4355 32.2423 12.4355C31.9967 12.4355 31.833 12.5482 31.833 12.7204C31.833 12.8569 31.9384 12.9352 32.1993 12.9935L32.4199 13.0452C32.8307 13.1366 33 13.2957 33 13.5833C33 13.9491 32.7031 14.1784 32.2285 14.1784C31.7844 14.1784 31.486 13.9597 31.4638 13.6177V13.6178Z" fill="black"/>
</g>
<defs>
<clipPath id="clip0_544_36231">
<rect width="33" height="19" fill="white" transform="translate(0 0.944641)"/>
</clipPath>
</defs>
</svg>
