<svg width="34" height="36" viewBox="0 0 34 36" fill="none" xmlns="http://www.w3.org/2000/svg">
<path d="M6.50781 14.6088C6.10938 14.6088 5.84375 14.9369 5.84375 15.347V19.2025L1.62031 14.8275C1.40781 14.6088 1.03594 14.5541 0.770313 14.6635C0.504688 14.7728 0.265625 15.0463 0.265625 15.347V21.0072C0.265625 21.4174 0.664062 21.7455 1.0625 21.7455C1.46094 21.7455 1.85938 21.4174 1.85938 21.0072V17.1517L6.13594 21.5267C6.26875 21.6635 6.45469 21.7455 6.64062 21.7455C6.72031 21.7455 6.74688 21.7181 6.82656 21.6908C7.09219 21.5814 7.17188 21.308 7.17188 21.0072V15.3744C7.17188 14.9642 6.90625 14.6088 6.50781 14.6088ZM11.7406 17.8353C11.3688 17.8353 11.0234 18.2181 11.0234 18.601C11.0234 18.9838 11.3688 19.3666 11.7406 19.3666L13.4937 19.476L13.0953 20.4877H10.8375L9.72187 18.3275L10.8641 16.1127H13.2812L13.8391 17.2064H15.3L14.3438 15.0463L14.1313 14.7455H9.9875L9.80156 15.0736L8.23438 17.89L8.04844 18.2455L8.23438 18.601L9.775 21.4174L9.9875 21.8549H13.9984L14.1844 21.39L15.3266 18.9291L15.8312 17.7533H14.6625L11.7406 17.8353ZM17.2656 14.6088C16.8937 14.6088 16.4688 14.9642 16.4688 15.347V17.2064H18.0625V15.3744C18.0625 14.9642 17.6375 14.6088 17.2656 14.6088ZM25.3406 14.6908C25.075 14.5814 24.7031 14.6361 24.5172 14.8549L20.1875 19.2299V15.3744C20.1875 14.9642 19.9219 14.6361 19.5234 14.6361C19.125 14.6361 18.8594 14.9642 18.8594 15.3744V21.0345C18.8594 21.3353 19.0453 21.6088 19.3109 21.7181C19.3906 21.7455 19.4969 21.7728 19.5766 21.7728C19.7625 21.7728 20.0016 21.6908 20.1344 21.5541L24.4375 17.1791V21.0345C24.4375 21.4447 24.7031 21.7728 25.1016 21.7728C25.5 21.7728 25.7656 21.4447 25.7656 21.0345V15.3744C25.7656 15.0736 25.6063 14.8002 25.3406 14.6908ZM31.1312 18.1908L33.3625 15.8939C33.6547 15.5931 33.6547 15.1283 33.3625 14.8549C33.0703 14.5541 32.6188 14.5541 32.3531 14.8549L30.1219 17.1517L27.8906 14.8549C27.5984 14.5541 27.1469 14.5541 26.8812 14.8549C26.5891 15.1556 26.5891 15.6205 26.8812 15.8939L29.1125 18.1908L26.8812 20.4877C26.5891 20.7885 26.5891 21.2533 26.8812 21.5267C27.0141 21.6635 27.2 21.7455 27.3859 21.7455C27.5719 21.7455 27.7578 21.6635 27.8906 21.5267L30.1219 19.2299L32.3531 21.5267C32.4859 21.6635 32.6719 21.7455 32.8578 21.7455C33.0438 21.7455 33.2297 21.6635 33.3625 21.5267C33.6547 21.226 33.6547 20.7611 33.3625 20.4877L31.1312 18.1908ZM16.4688 21.0072C16.4688 21.39 16.8672 21.7455 17.2656 21.7455C17.6375 21.7455 18.0625 21.39 18.0625 21.0072V17.7533H16.4688V21.0072Z" fill="#009900"/>
</svg>
