<svg width="29" height="30" viewBox="0 0 29 30" fill="none" xmlns="http://www.w3.org/2000/svg">
<g clip-path="url(#clip0_509_24930)">
<path d="M14.615 4.73016L12.3709 6.47983C11.2061 6.44261 8.91991 6.70361 7.68161 7.15408C6.54094 6.4315 5.53802 5.63351 5.53802 5.63351L4.14216 7.97236C3.34321 8.3977 2.54087 8.87523 1.82602 9.50743L-0.000976562 8.76116C1.10006 10.9821 1.83569 13.2064 3.85409 14.5428C7.06004 9.4794 21.9578 9.95113 25.23 14.5138C27.3455 13.4118 28.1687 11.0435 29 8.84768C28.9082 8.87765 27.7772 9.25658 27.0435 9.53643C26.6056 9.05938 25.5732 8.32665 24.9864 7.97236C24.4306 6.95253 23.62 5.57648 23.62 5.57648C23.62 5.57648 22.6606 6.28988 21.5484 7.06853C20.0462 6.7911 18.2289 6.4547 16.7006 6.53783C15.6605 5.68233 14.615 4.73016 14.615 4.73016Z" fill="#F3D400"/>
<path d="M1.13818 13.4819L3.78298 19.887C8.3761 25.9466 20.1052 26.3685 25.2188 20.0045L28.0608 13.4456C26.7491 15.3886 24.6147 16.7304 23.3 17.4525C22.3657 17.9648 20.21 18.2741 20.21 18.2741L14.555 15.3413L8.86282 18.2156C8.86282 18.2156 6.73615 17.8739 5.77287 17.4239C3.82987 16.3862 2.52197 15.1605 1.14398 13.4824L1.13818 13.4819Z" fill="#FFE953"/>
</g>
<defs>
<clipPath id="clip0_509_24930">
<rect width="29" height="29" fill="white" transform="translate(0 0.168457)"/>
</clipPath>
</defs>
</svg>
