<svg width="30" height="31" viewBox="0 0 30 31" fill="none" xmlns="http://www.w3.org/2000/svg">
<g clip-path="url(#clip0_526_23354)">
<path d="M26.7923 13.8015C26.7802 13.8015 26.7684 13.8051 26.7583 13.8118L26.2085 14.1329C26.1981 14.1393 26.1896 14.1483 26.1838 14.159C26.1779 14.1697 26.175 14.1817 26.1752 14.1939V14.836C26.1752 14.8632 26.1881 14.8839 26.2085 14.8975L26.7583 15.2181C26.7684 15.2248 26.7802 15.2283 26.7923 15.2283C26.8044 15.2283 26.8162 15.2248 26.8263 15.2181L27.3752 14.8975C27.3856 14.8909 27.3942 14.8818 27.4002 14.8711C27.4061 14.8603 27.4092 14.8481 27.4092 14.8358V14.1943C27.4092 14.1821 27.4061 14.1701 27.4002 14.1594C27.3942 14.1487 27.3856 14.1398 27.3752 14.1334L26.826 13.8121C26.8161 13.8054 26.8043 13.8015 26.7923 13.8015ZM14.8174 17.6415C14.7173 17.6415 14.6177 17.6659 14.5328 17.7137L11.826 19.2903C11.7393 19.3412 11.6673 19.414 11.6174 19.5013C11.5675 19.5887 11.5413 19.6876 11.5415 19.7882V22.9342C11.5415 23.139 11.6498 23.3303 11.826 23.4329L12.5385 23.8421C12.8845 24.0128 13.0066 24.0123 13.1624 24.0123C13.671 24.0123 13.9628 23.6985 13.9628 23.1592V20.0549C13.9625 20.0333 13.9539 20.0126 13.9387 19.9973C13.9234 19.9819 13.9029 19.9731 13.8813 19.9726H13.5358C13.5141 19.973 13.4934 19.9818 13.4781 19.9971C13.4628 20.0125 13.4541 20.0332 13.4538 20.0549V23.1599C13.4538 23.3987 13.2032 23.638 12.8031 23.4334L12.0637 23.0033C12.0365 22.9897 12.0227 22.955 12.0227 22.9278V19.7811C12.0227 19.7539 12.0365 19.7202 12.0637 19.7064L14.7696 18.1367C14.7899 18.1232 14.8242 18.1232 14.8513 18.1367L17.5579 19.7064C17.5849 19.7202 17.5982 19.7471 17.5982 19.7814V22.9276C17.5982 22.9616 17.5849 22.9895 17.5579 23.0031L14.8513 24.5797C14.831 24.5933 14.7967 24.5933 14.7696 24.5797L14.0779 24.1628C14.0575 24.1492 14.0303 24.1424 14.0099 24.156C13.8201 24.2652 13.7868 24.2795 13.6035 24.3409C13.5628 24.3545 13.495 24.3814 13.6305 24.4564L14.5328 24.996C14.621 25.0435 14.7156 25.0707 14.8174 25.0707C14.9191 25.0707 15.0206 25.0438 15.1019 25.0098L17.8087 23.4332C17.8955 23.3821 17.9675 23.3092 18.0174 23.2217C18.0673 23.1342 18.0934 23.0351 18.0932 22.9344V19.7882C18.0932 19.5833 17.9849 19.3928 17.8087 19.2903L15.1019 17.7137C15.0148 17.6658 14.9168 17.6409 14.8174 17.6415ZM19.0431 19.0782C18.9042 19.0788 18.7712 19.1345 18.6734 19.2331C18.5755 19.3316 18.5208 19.465 18.5212 19.6039C18.5208 19.7428 18.5756 19.8761 18.6734 19.9747C18.7713 20.0732 18.9043 20.1288 19.0431 20.1294C19.3284 20.1294 19.5653 19.8906 19.5653 19.6039C19.5646 19.4654 19.5095 19.3326 19.4118 19.2343C19.3141 19.136 19.1817 19.0798 19.0431 19.0782ZM19.0361 19.1671C19.0939 19.1663 19.1512 19.1771 19.2048 19.1988C19.2584 19.2204 19.3071 19.2525 19.3482 19.2932C19.3893 19.3338 19.4218 19.3822 19.444 19.4356C19.4662 19.4889 19.4776 19.5462 19.4774 19.6039C19.4774 19.843 19.2806 20.0478 19.0363 20.0478C18.7992 20.0478 18.6023 19.8496 18.6023 19.6039C18.6023 19.3583 18.8057 19.1671 19.0361 19.1671ZM18.8465 19.3103V19.9107H18.9623V19.6726H19.064C19.1048 19.6726 19.1181 19.6862 19.1249 19.7202C19.1249 19.7272 19.1451 19.8772 19.1451 19.9044H19.267C19.2534 19.8772 19.2466 19.7952 19.2398 19.7474C19.2332 19.6724 19.2267 19.6178 19.1451 19.611C19.1859 19.5971 19.2536 19.5767 19.2536 19.4675C19.2536 19.3105 19.1177 19.3105 19.0502 19.3105L18.8465 19.3103ZM18.9485 19.4059H19.0431C19.0774 19.4059 19.1313 19.4059 19.1313 19.4877C19.1313 19.5149 19.1181 19.57 19.0431 19.57H18.9482L18.9485 19.4059ZM15.5571 19.877C14.7836 19.877 14.3224 20.2046 14.3224 20.7575C14.3224 21.3514 14.7836 21.5146 15.5231 21.5898C16.4113 21.6786 16.4793 21.8085 16.4793 21.9859C16.4793 22.2929 16.2346 22.4228 15.6649 22.4228C14.9458 22.4228 14.7899 22.2451 14.7356 21.8835C14.7356 21.8425 14.7023 21.8155 14.6615 21.8155H14.3088C14.2872 21.8157 14.2666 21.8245 14.2515 21.8398C14.2363 21.8551 14.2277 21.8757 14.2277 21.8973C14.2277 22.3614 14.4717 22.9075 15.659 22.9075C16.5133 22.9075 17.0085 22.5657 17.0085 21.9653C17.0085 21.3782 16.6148 21.2214 15.7809 21.1121C14.9395 21.0029 14.8516 20.9415 14.8516 20.7437C14.8516 20.5799 14.9261 20.3617 15.55 20.3617C16.1062 20.3617 16.3162 20.4847 16.3978 20.86C16.4018 20.8769 16.4114 20.892 16.4249 20.903C16.4384 20.914 16.4551 20.9203 16.4725 20.9209H16.8318C16.8524 20.9209 16.8728 20.9075 16.8867 20.8939C16.8993 20.8758 16.9062 20.8544 16.9066 20.8323C16.8524 20.1772 16.4254 19.877 15.5571 19.877Z" fill="#5FA04E"/>
<path d="M20.1731 6.63203C20.1443 6.63171 20.1159 6.6389 20.0906 6.65289C20.0644 6.66817 20.0425 6.68996 20.0271 6.71615C20.0117 6.74234 20.0033 6.77205 20.0027 6.80242V11.2389C20.0027 11.2797 19.9817 11.3209 19.9411 11.3481C19.9224 11.3582 19.9014 11.3635 19.8802 11.3635C19.8589 11.3635 19.838 11.3582 19.8192 11.3481L19.1006 10.9321C19.0479 10.9019 18.9882 10.886 18.9274 10.886C18.8667 10.886 18.807 10.9019 18.7542 10.9321L15.8789 12.6044C15.8257 12.6344 15.7814 12.6779 15.7504 12.7305C15.7194 12.7832 15.7029 12.8431 15.7024 12.9041V16.2416C15.7024 16.3645 15.7704 16.4807 15.8789 16.5421L18.7547 18.2144C18.8074 18.2446 18.8671 18.2604 18.9278 18.2604C18.9885 18.2604 19.0482 18.2446 19.1009 18.2144L21.9764 16.5421C22.0849 16.4807 22.1529 16.3645 22.1529 16.2416V7.92203C22.1529 7.79242 22.0849 7.67594 21.9764 7.61476L20.2608 6.65289C20.2337 6.63926 20.2035 6.63211 20.1731 6.63203ZM3.2079 10.7959C3.15376 10.7959 3.09962 10.8156 3.05228 10.8428L0.176494 12.509C0.122496 12.5398 0.0776814 12.5844 0.0466626 12.6383C0.0156439 12.6922 -0.000459286 12.7534 9.97012e-06 12.8155L0.00704122 17.2926C0.00704122 17.3542 0.0405568 17.4156 0.0949318 17.443C0.120095 17.4597 0.149602 17.4686 0.179776 17.4686C0.209949 17.4686 0.239456 17.4597 0.264619 17.443L1.97415 16.4603C2.08267 16.3989 2.14993 16.2827 2.14993 16.1598V14.0645C2.14993 13.9417 2.2179 13.8255 2.32665 13.7641L3.05228 13.341C3.10642 13.3068 3.16782 13.2932 3.22876 13.2932C3.2897 13.2932 3.35087 13.3068 3.39845 13.341L4.12407 13.7641C4.23259 13.8255 4.30056 13.9417 4.30056 14.0645V16.1598C4.30056 16.2827 4.36806 16.3989 4.47634 16.4603L6.17228 17.443C6.19867 17.4598 6.22928 17.4686 6.26052 17.4686C6.29176 17.4686 6.32236 17.4598 6.34876 17.443C6.37569 17.4283 6.39811 17.4065 6.41363 17.38C6.42915 17.3535 6.43719 17.3233 6.43688 17.2926V12.8155C6.43688 12.6927 6.36892 12.5765 6.26017 12.5148L3.39142 10.8428C3.34317 10.817 3.29027 10.8009 3.23579 10.7957L3.2079 10.7959ZM26.8017 10.8452C26.7424 10.8452 26.6836 10.8606 26.6292 10.8916L23.753 12.5629C23.6445 12.6243 23.5772 12.7405 23.5772 12.8636V16.2011C23.5772 16.3239 23.6445 16.4402 23.753 16.5016L26.6086 18.1391C26.66 18.1693 26.7186 18.1852 26.7782 18.1852C26.8378 18.1852 26.8963 18.1693 26.9477 18.1391L28.6774 17.1705C28.7043 17.1557 28.7267 17.1339 28.7422 17.1074C28.7576 17.0809 28.7656 17.0507 28.7653 17.02C28.7656 16.9894 28.7575 16.9593 28.742 16.9329C28.7266 16.9065 28.7042 16.8848 28.6774 16.87L25.7883 15.1975C25.762 15.1821 25.7401 15.1602 25.7247 15.1338C25.7094 15.1075 25.701 15.0777 25.7004 15.0473V14.0029C25.7001 13.9723 25.7081 13.9421 25.7235 13.9157C25.739 13.8893 25.7614 13.8676 25.7883 13.8529L26.6906 13.334C26.717 13.3173 26.7476 13.3084 26.7789 13.3084C26.8101 13.3084 26.8407 13.3173 26.8671 13.334L27.7685 13.8527C27.7949 13.868 27.8169 13.8899 27.8324 13.9162C27.8479 13.9425 27.8564 13.9724 27.8571 14.0029V14.822C27.8571 14.8837 27.8909 14.9451 27.945 14.9723C27.9714 14.989 28.0021 14.9979 28.0334 14.9979C28.0647 14.9979 28.0953 14.989 28.1217 14.9723L29.8306 13.9691C29.883 13.9386 29.9263 13.8946 29.9561 13.8418C29.9859 13.7889 30.0012 13.7291 30.0002 13.6684V12.8563C30.0002 12.7335 29.9323 12.618 29.8306 12.5563L26.9749 10.8913C26.9223 10.8612 26.8627 10.8452 26.802 10.8449L26.8017 10.8452ZM18.9274 13.3375C18.9427 13.3375 18.9581 13.341 18.972 13.348L19.9549 13.9213C19.9821 13.9349 19.9959 13.9687 19.9959 13.9961V15.1427C19.9959 15.1769 19.9821 15.2045 19.9549 15.2181L18.9717 15.7914C18.9579 15.7981 18.9428 15.8016 18.9274 15.8016C18.9121 15.8016 18.8969 15.7981 18.8831 15.7914L17.8999 15.2181C17.8727 15.2045 17.8589 15.1701 17.8589 15.1427V13.9961C17.8589 13.9619 17.873 13.9349 17.8999 13.9211L18.8831 13.348C18.897 13.3411 18.912 13.3375 18.9274 13.3375Z" fill="#333333"/>
<path d="M11.2458 10.9045C11.1932 10.8743 11.1335 10.8584 11.0728 10.8584C11.0121 10.8584 10.9525 10.8743 10.8999 10.9045L8.04424 12.5631C7.99184 12.5936 7.9485 12.6375 7.91868 12.6902C7.88885 12.743 7.87362 12.8028 7.87455 12.8634V16.187C7.87455 16.3101 7.94252 16.4261 8.04424 16.4875L10.8999 18.1459C10.9525 18.1761 11.0121 18.192 11.0728 18.192C11.1335 18.192 11.1932 18.1761 11.2458 18.1459L14.1012 16.4875C14.2097 16.4261 14.2709 16.3101 14.2709 16.187V12.8634C14.2709 12.7406 14.2029 12.6243 14.1012 12.5631L11.2458 10.9045Z" fill="url(#paint0_linear_526_23354)"/>
<path d="M14.1078 12.5631L11.2388 10.9044C11.2107 10.8901 11.1811 10.8787 11.1507 10.8704L7.93555 16.4054C7.96273 16.4396 7.99648 16.4668 8.03047 16.4875L10.8997 18.1459C10.981 18.1937 11.0759 18.2073 11.1641 18.1799L14.1826 12.6245C14.1627 12.5985 14.1371 12.5775 14.1078 12.5631Z" fill="url(#paint1_linear_526_23354)"/>
<path d="M14.1082 16.4872C14.1897 16.4394 14.2507 16.3576 14.2779 16.2688L11.1372 10.8634C11.0562 10.8498 10.9678 10.8566 10.8933 10.9044L8.04443 12.5561L11.1171 18.1935C11.1576 18.1867 11.2052 18.1731 11.246 18.1525L14.1082 16.4872Z" fill="url(#paint2_linear_526_23354)"/>
</g>
<defs>
<linearGradient id="paint0_linear_526_23354" x1="12.2357" y1="12.1395" x2="9.62779" y2="17.4265" gradientUnits="userSpaceOnUse">
<stop stop-color="#3F873F"/>
<stop offset="0.33" stop-color="#3F8B3D"/>
<stop offset="0.637" stop-color="#3E9638"/>
<stop offset="0.934" stop-color="#3DA92E"/>
<stop offset="1" stop-color="#3DAE2B"/>
</linearGradient>
<linearGradient id="paint1_linear_526_23354" x1="10.6387" y1="14.9133" x2="17.9149" y2="9.57027" gradientUnits="userSpaceOnUse">
<stop offset="0.138" stop-color="#3F873F"/>
<stop offset="0.402" stop-color="#52A044"/>
<stop offset="0.713" stop-color="#64B749"/>
<stop offset="0.908" stop-color="#6ABF4B"/>
</linearGradient>
<linearGradient id="paint2_linear_526_23354" x1="7.77029" y1="14.524" x2="14.3779" y2="14.524" gradientUnits="userSpaceOnUse">
<stop offset="0.092" stop-color="#6ABF4B"/>
<stop offset="0.287" stop-color="#64B749"/>
<stop offset="0.598" stop-color="#52A044"/>
<stop offset="0.862" stop-color="#3F873F"/>
</linearGradient>
<clipPath id="clip0_526_23354">
<rect width="30" height="30" fill="white" transform="translate(0 0.851379)"/>
</clipPath>
</defs>
</svg>
