<svg width="24" height="26" viewBox="0 0 24 26" fill="none" xmlns="http://www.w3.org/2000/svg">
<g clip-path="url(#clip0_544_36226)">
<path d="M7.29568 21.3306C7.27785 21.2978 7.26197 21.2639 7.2481 21.229C7.15219 20.9979 7.12266 20.7428 7.16309 20.4945H1.48932L9.92127 5.03775L12.6894 10.1066L13.4921 8.62716L11.0791 4.19899C10.9634 3.97217 10.795 3.77918 10.5893 3.63767C10.3835 3.49615 10.147 3.41063 9.90129 3.38893C9.65619 3.40062 9.41915 3.48371 9.21713 3.62877C9.01511 3.77382 8.85622 3.975 8.75852 4.20945L0.216529 19.8537C0.0888249 20.0746 0.0151927 20.3248 0.00211099 20.5823C-0.0109707 20.8398 0.0368988 21.0967 0.141508 21.3304C0.272906 21.5462 0.459641 21.7194 0.680594 21.8303C0.901548 21.9413 1.1479 21.9857 1.3918 21.9584H8.54596C8.30205 21.9861 8.05556 21.9419 7.83453 21.831C7.61351 21.72 7.42681 21.5466 7.29568 21.3306Z" fill="#00C492"/>
<path d="M23.7446 19.8537L16.7255 6.97309C16.6103 6.74385 16.4416 6.54852 16.2349 6.40512C16.0282 6.26172 15.7901 6.17488 15.5427 6.15262C15.2977 6.16362 15.0607 6.24614 14.8586 6.39076C14.6566 6.53538 14.4976 6.73628 14.3999 6.97051L13.4922 8.62716L14.2999 10.1066L15.55 7.80143L22.4943 20.4945H19.8537C19.8875 20.7043 19.8685 20.9197 19.7987 21.1196C19.784 21.1638 19.7655 21.2065 19.7436 21.2473L19.7211 21.2942C19.5776 21.5052 19.3865 21.6762 19.1645 21.792C18.9425 21.9078 18.6965 21.9649 18.4483 21.9582H22.5793C22.8275 21.9651 23.0736 21.9082 23.2956 21.7923C23.5176 21.6765 23.7088 21.5054 23.8521 21.2942C23.9652 21.0676 24.0151 20.8125 23.9961 20.5579C23.9771 20.3033 23.89 20.0593 23.7446 19.8537Z" fill="#008776"/>
<path d="M19.7211 21.2942L19.7436 21.2473C19.7655 21.2065 19.7839 21.1638 19.7986 21.1196C19.8685 20.9197 19.8874 20.7043 19.8536 20.4945C19.8147 20.2682 19.7368 20.0511 19.6235 19.8537L14.305 10.1067L13.4923 8.62717L12.6846 10.1067L7.36837 19.854C7.26518 20.0537 7.19582 20.2705 7.16334 20.4948C7.12056 20.7423 7.14749 20.9974 7.24088 21.2293C7.25472 21.2641 7.27061 21.2981 7.28845 21.3309C7.41988 21.5466 7.60664 21.7197 7.8276 21.8307C8.04855 21.9416 8.2949 21.9859 8.53878 21.9586H18.4408C18.6902 21.9663 18.9376 21.9096 19.161 21.7937C19.3843 21.6778 19.5767 21.5062 19.7211 21.2942ZM13.4921 11.5861L18.3533 20.4945H8.6335L13.4921 11.5861Z" fill="#2D4A5D"/>
</g>
<defs>
<clipPath id="clip0_544_36226">
<rect width="24" height="25" fill="white" transform="translate(0 0.177704)"/>
</clipPath>
</defs>
</svg>
