<svg width="27" height="28" viewBox="0 0 27 28" fill="none" xmlns="http://www.w3.org/2000/svg">
<g clip-path="url(#clip0_526_23377)">
<path d="M10.2637 13.5464C9.05582 12.849 8.11177 11.7725 7.57801 10.4839C7.04425 9.19526 6.9506 7.76653 7.3116 6.41927C7.6726 5.07201 8.46806 3.88152 9.57462 3.03242C10.6812 2.18333 12.037 1.72309 13.4318 1.72309C14.8266 1.72309 16.1824 2.18333 17.2889 3.03242C18.3955 3.88152 19.191 5.07201 19.552 6.41927C19.913 7.76653 19.8193 9.19526 19.2855 10.4839C18.7518 11.7725 17.8077 12.849 16.5998 13.5464L14.6921 10.2421C15.1727 9.96468 15.5483 9.53643 15.7606 9.02378C15.9729 8.51113 16.0102 7.94274 15.8666 7.40676C15.723 6.87078 15.4065 6.39717 14.9663 6.05937C14.5261 5.72158 13.9867 5.53848 13.4318 5.53848C12.8769 5.53848 12.3375 5.72158 11.8973 6.05937C11.4571 6.39717 11.1406 6.87078 10.997 7.40676C10.8534 7.94274 10.8907 8.51113 11.103 9.02378C11.3153 9.53643 11.6909 9.96468 12.1715 10.2421L10.2637 13.5464Z" fill="#FF0101"/>
<path d="M23.832 15.0805C25.0399 15.7779 25.9839 16.8544 26.5177 18.143C27.0515 19.4316 27.1451 20.8604 26.7841 22.2076C26.4231 23.5549 25.6276 24.7454 24.5211 25.5945C23.4145 26.4436 22.0587 26.9038 20.6639 26.9038C19.2691 26.9038 17.9133 26.4436 16.8068 25.5945C15.7002 24.7454 14.9047 23.5549 14.5437 22.2076C14.1828 20.8604 14.2764 19.4316 14.8102 18.143C15.3439 16.8544 16.288 15.7779 17.4959 15.0805L19.4036 18.3848C18.923 18.6622 18.5474 19.0905 18.3351 19.6031C18.1228 20.1158 18.0855 20.6842 18.2291 21.2201C18.3727 21.7561 18.6892 22.2297 19.1294 22.5675C19.5696 22.9053 20.109 23.0884 20.6639 23.0884C21.2188 23.0884 21.7582 22.9053 22.1984 22.5675C22.6386 22.2297 22.9551 21.7561 23.0987 21.2201C23.2423 20.6842 23.205 20.1158 22.9927 19.6031C22.7804 19.0905 22.4048 18.6622 21.9242 18.3848L23.832 15.0805Z" fill="#0101FF"/>
<path d="M12.6719 20.5675C12.6719 21.9623 12.2117 23.3181 11.3626 24.4247C10.5135 25.5312 9.32298 26.3267 7.97571 26.6877C6.62843 27.0487 5.19968 26.9551 3.91105 26.4213C2.62242 25.8876 1.54592 24.9435 0.848514 23.7356C0.15111 22.5276 -0.128226 21.1233 0.0538305 19.7405C0.235887 18.3576 0.869161 17.0734 1.85543 16.0871C2.84171 15.1009 4.12586 14.4676 5.50874 14.2855C6.89161 14.1035 8.29591 14.3828 9.50385 15.0802L7.59611 18.3845C7.11556 18.107 6.55689 17.9959 6.00674 18.0683C5.45659 18.1407 4.94572 18.3927 4.55335 18.7851C4.16098 19.1774 3.90905 19.6883 3.83662 20.2384C3.76419 20.7886 3.87532 21.3473 4.15277 21.8278C4.43021 22.3084 4.85848 22.6839 5.37113 22.8963C5.88379 23.1086 6.45219 23.1459 6.98817 23.0023C7.52416 22.8587 7.99778 22.5422 8.33557 22.102C8.67337 21.6617 8.85647 21.1223 8.85647 20.5675L12.6719 20.5675Z" fill="#01FF01"/>
</g>
<defs>
<clipPath id="clip0_526_23377">
<rect width="27" height="27" fill="white" transform="translate(0 0.813416)"/>
</clipPath>
</defs>
</svg>
