<svg width="16" height="8" viewBox="0 0 56 8" fill="none" xmlns="http://www.w3.org/2000/svg">
<path d="M24.3614 4.83652H28.023L26.0865 1.72111L22.5325 7.35389H20.9151L25.238 0.58787C25.333 0.451151 25.4599 0.339724 25.6078 0.263291C25.7557 0.186859 25.92 0.147739 26.0865 0.149339C26.4226 0.149339 26.7359 0.308845 26.9178 0.576445L31.2575 7.35389H29.64L28.8772 6.09498H25.1694L24.3614 4.83652ZM41.1622 6.09498V0.217888H39.7899V6.67061C39.7899 6.84725 39.8584 7.01818 39.9894 7.14913C40.1203 7.28007 40.297 7.35389 40.4908 7.35389H46.7497L47.5586 6.09498H41.1622ZM18.4548 5.04172C19.7876 5.04172 20.8698 3.96561 20.8698 2.63288C20.8698 1.30015 19.788 0.217888 18.4548 0.217888H12.4503V7.35433H13.8226V1.47635H18.3639C19.0019 1.47635 19.5142 1.99486 19.5142 2.63244C19.5142 3.27002 19.0015 3.78853 18.3639 3.78853L14.4944 3.78281L18.5915 7.35389H20.5855L17.8287 5.04128L18.4548 5.04172ZM4.00443 7.35389C2.03456 7.35389 0.435547 5.75927 0.435547 3.78853C0.435547 1.81778 2.03412 0.217449 4.00443 0.217449H8.15201C10.1228 0.217449 11.7204 1.81822 11.7204 3.78853C11.7204 5.75883 10.1228 7.35389 8.15201 7.35389H4.00443ZM8.05973 6.09498C8.36294 6.09544 8.66326 6.03613 8.94352 5.92043C9.22378 5.80473 9.47849 5.63492 9.69307 5.42071C9.90765 5.20649 10.0779 4.95208 10.1941 4.67201C10.3103 4.39195 10.3701 4.09173 10.3701 3.78853C10.3703 3.17553 10.127 2.58757 9.6937 2.15391C9.26045 1.72025 8.67273 1.47638 8.05973 1.47592H4.09582C3.48298 1.47661 2.89548 1.72059 2.46242 2.15422C2.02936 2.58786 1.78617 3.17568 1.78629 3.78853C1.78635 4.09166 1.84615 4.3918 1.96227 4.67181C2.07839 4.95182 2.24856 5.20619 2.46305 5.4204C2.67754 5.6346 2.93214 5.80443 3.2123 5.92018C3.49247 6.03593 3.79269 6.09533 4.09582 6.09498H8.05973ZM34.1228 7.35389C32.1525 7.35389 30.5522 5.75927 30.5522 3.78853C30.5522 1.81778 32.1525 0.217449 34.1228 0.217449H39.0495L38.2458 1.47592H34.2142C33.601 1.47626 33.0129 1.72001 32.5792 2.15362C32.1455 2.58723 31.9016 3.17525 31.9012 3.78853C31.9012 5.06413 32.9382 6.09498 34.2142 6.09498H39.1633L38.3548 7.35389H34.1228ZM50.9069 6.09498C50.4042 6.09521 49.9151 5.93118 49.5141 5.62787C49.1132 5.32455 48.8223 4.89855 48.6857 4.41468H54.5518L55.3603 3.15622H48.6857C48.8233 2.67295 49.1145 2.2476 49.5152 1.94445C49.9159 1.64131 50.4045 1.47684 50.9069 1.47592H54.9332L55.7479 0.217449H50.8155C48.8452 0.217449 47.2449 1.81822 47.2449 3.78853C47.2449 5.75883 48.8452 7.35389 50.8155 7.35389H55.0475L55.8564 6.09498H50.9069Z" fill="#EA1B22"/>
</svg>
