<svg width="24" height="26" viewBox="0 0 24 26" fill="none" xmlns="http://www.w3.org/2000/svg">
<g clip-path="url(#clip0_544_35459)">
<rect y="0.756653" width="24" height="25" rx="5" fill="#001E36"/>
<path d="M4.36912 1.06427C1.95581 1.06427 0 3.10197 0 5.61583V20.8975C0 23.4113 1.95563 25.449 4.36912 25.449H19.6309C22.0442 25.449 24 23.4113 24 20.8975V5.61603C24 3.10216 22.0444 1.06447 19.6309 1.06447L4.36912 1.06427ZM4.36912 1.44904H19.6309C21.8452 1.44904 23.6308 3.30919 23.6308 5.61583V20.8975C23.6308 23.2041 21.8452 25.0645 19.6309 25.0645H4.36912C2.15475 25.0645 0.369188 23.2041 0.369188 20.8975V5.61603C0.369188 3.30939 2.15475 1.44904 4.36912 1.44904ZM8.65238 7.16681C8.35706 7.16681 8.05931 7.16661 7.75031 7.17697C7.44862 7.18712 7.16344 7.18712 6.89288 7.19767C6.63131 7.20782 6.38569 7.20743 6.14381 7.21798C5.96279 7.22591 5.78124 7.2293 5.60006 7.22814C5.53031 7.22814 5.44106 7.25685 5.38519 7.32423C5.32931 7.39161 5.31712 7.47013 5.31712 7.53341V18.0871C5.31712 18.1615 5.33325 18.25 5.39587 18.3199C5.45869 18.3899 5.54906 18.4131 5.61956 18.4131H7.54313L7.55606 18.4111C7.71563 18.3875 7.84519 18.2256 7.821 18.0498L7.82288 18.077V14.9813C7.899 14.9824 7.99894 14.9815 8.04319 14.9861C8.16131 14.9985 8.31787 14.9975 8.55412 14.9975C9.375 14.9975 10.1361 14.9043 10.8334 14.6371C11.5067 14.3781 12.0891 13.9233 12.5049 13.317C12.9249 12.7047 13.1299 11.9322 13.1299 11.0205C13.1299 10.5361 13.0472 10.0721 12.8929 9.62247L12.8925 9.6213L12.8921 9.61993C12.7265 9.15526 12.4668 8.73315 12.1307 8.38224L12.1299 8.38146L12.1288 8.38048C11.7357 7.98271 11.2626 7.68091 10.7437 7.49689C10.1647 7.27091 9.474 7.16681 8.65238 7.16681ZM8.65238 7.55157C9.44475 7.55157 10.0924 7.65236 10.6157 7.85685L10.6187 7.85802L10.6211 7.859C11.089 8.02469 11.5157 8.29668 11.8702 8.65529C12.1683 8.96692 12.3987 9.34157 12.5458 9.75392C12.6864 10.1651 12.7605 10.5824 12.7605 11.0205C12.7605 11.8729 12.5719 12.5567 12.2042 13.0932C11.8322 13.6354 11.3123 14.043 10.7055 14.2762C10.0639 14.5221 9.348 14.6127 8.55394 14.6127C8.31769 14.6127 8.15869 14.6119 8.07975 14.6037C7.96425 14.5918 7.82512 14.5926 7.63819 14.5926H7.4535V18.0285H5.68631V7.61134C5.82769 7.61134 5.96456 7.61154 6.159 7.60275C6.38981 7.59278 6.63637 7.59298 6.90656 7.58243C7.16756 7.57247 7.45369 7.57208 7.7625 7.56173C8.06381 7.55177 8.35688 7.55157 8.65238 7.55157ZM8.8755 9.18673C8.82257 9.18566 8.76962 9.18579 8.71669 9.18712C8.46262 9.18712 8.23537 9.18751 8.04187 9.19806H8.061C7.85381 9.18732 7.7085 9.19689 7.62225 9.20978L7.46362 9.23341V13.0254L7.63519 13.0383C7.77262 13.0484 7.90369 13.059 8.03175 13.059H8.55394C8.95519 13.059 9.35662 12.9947 9.73894 12.8662C10.0911 12.7623 10.3952 12.5453 10.632 12.2652L10.6333 12.2637L10.6348 12.2617C10.8754 11.9635 10.9826 11.5641 10.9832 11.0852C10.993 10.7292 10.9057 10.3777 10.7312 10.0715L10.7293 10.0676L10.7273 10.0643C10.5405 9.76681 10.2735 9.53419 9.95119 9.40607C9.609 9.26193 9.24506 9.19396 8.8755 9.18673ZM8.86837 9.5715C9.20006 9.57814 9.51881 9.6379 9.81375 9.76251L9.81562 9.76368L9.8175 9.76447C10.0641 9.86212 10.2682 10.0383 10.4156 10.2719C10.5534 10.5149 10.6223 10.7937 10.6144 11.0758V11.082C10.6144 11.5033 10.5246 11.7996 10.3528 12.0133C10.1573 12.2442 9.912 12.4162 9.636 12.4971L9.63281 12.4981L9.62906 12.4992C9.28166 12.6157 8.91889 12.6748 8.55394 12.6742H8.03194C7.97381 12.6742 7.89975 12.668 7.83281 12.6637V9.58712C7.89844 9.5838 7.93612 9.57658 8.04225 9.58224L8.052 9.58302L8.06137 9.58224C8.24081 9.57247 8.46544 9.57208 8.72137 9.57208H8.72587C8.77369 9.57091 8.82075 9.57052 8.86837 9.5715ZM17.13 9.71036C16.4134 9.71036 15.8044 9.8256 15.3069 10.0893C14.8532 10.31 14.4622 10.6609 14.1966 11.1035L14.1956 11.1051L14.1945 11.107C13.9628 11.5129 13.8345 11.9682 13.8343 12.444C13.8254 12.8374 13.9097 13.227 14.0799 13.5783L14.0816 13.5822L14.0837 13.5861C14.2812 13.9561 14.5554 14.2755 14.8864 14.5211L14.8879 14.5219L14.8894 14.5231C15.3342 14.8397 15.8167 15.0947 16.3247 15.2817C16.8028 15.4748 17.1249 15.6361 17.2399 15.7336C17.3739 15.8469 17.4079 15.9244 17.4079 15.9949C17.4079 16.1014 17.3383 16.2108 17.2528 16.2496L17.2485 16.2516L17.2442 16.2537C17.1086 16.3244 16.8677 16.3768 16.5098 16.3768C16.1312 16.3768 15.7522 16.3279 15.3945 16.2297L15.3915 16.2289L15.3883 16.2281C14.9772 16.1326 14.5831 15.9704 14.2204 15.7475L14.229 15.7531C14.1945 15.7276 14.155 15.7104 14.1133 15.7027C14.0514 15.6939 13.9885 15.708 13.9356 15.7426C13.8268 15.818 13.8141 15.9219 13.8141 15.9949V17.7795L13.8156 17.7555C13.7946 17.9299 13.8992 18.0721 14.0156 18.1416L14.0222 18.1453L14.0289 18.1486C14.3622 18.3107 14.7147 18.4259 15.0771 18.4912C15.5327 18.586 15.9872 18.6283 16.4503 18.6283C17.1759 18.6283 17.7908 18.5131 18.3009 18.2861L18.3019 18.2858C18.7798 18.0858 19.1914 17.7451 19.4863 17.3053L19.4878 17.3035L19.4889 17.3016C19.7674 16.8665 19.9122 16.3534 19.9039 15.8305C19.9133 15.4346 19.8289 15.0424 19.6581 14.6887L19.6562 14.6848L19.6539 14.6809C19.4516 14.3035 19.1634 13.9924 18.8141 13.761L18.8126 13.7602C18.3285 13.4449 17.8039 13.1815 17.2571 12.9916L17.2699 12.9965C17.038 12.8968 16.8103 12.7868 16.5874 12.6668C16.4777 12.6051 16.3802 12.5268 16.3114 12.4402C16.2707 12.3822 16.2512 12.327 16.2512 12.2922C16.2512 12.2443 16.2716 12.1736 16.2999 12.1236C16.3403 12.0654 16.4044 12.0188 16.4918 11.9979L16.4946 11.9971L16.4972 11.9963C16.6697 11.949 16.86 11.9213 17.0319 11.9303L17.0366 11.9307H17.0413C17.3991 11.9307 17.7499 11.9799 18.105 12.0598L18.1067 12.0602C18.4266 12.1287 18.7241 12.2359 19.0024 12.3902L19.0046 12.3914L19.0067 12.3926C19.1014 12.442 19.2039 12.4322 19.3067 12.4082L19.3403 12.4004L19.3691 12.3807C19.4619 12.3162 19.5004 12.2225 19.5004 12.118V10.4461C19.5004 10.3727 19.4848 10.3172 19.4751 10.2766L19.47 10.2559L19.461 10.2371C19.4198 10.1512 19.3644 10.0797 19.245 10.0471C18.9666 9.9291 18.6751 9.84756 18.3774 9.80431C17.9649 9.74161 17.5421 9.71036 17.13 9.71036ZM17.13 10.0951C17.5247 10.0951 17.9297 10.125 18.3242 10.1852H18.3253L18.3263 10.1856C18.6038 10.224 18.8728 10.3018 19.1239 10.408C19.1263 10.4209 19.1312 10.442 19.1312 10.4463V12.0342C18.8315 11.8729 18.5121 11.7551 18.1817 11.6842C17.8104 11.6006 17.4352 11.5475 17.0473 11.5467C16.8276 11.5358 16.6063 11.5695 16.4062 11.624C16.2403 11.6647 16.0912 11.7604 15.9941 11.9051L15.9913 11.9092L15.9887 11.9137C15.9196 12.0269 15.8825 12.1582 15.8818 12.2924C15.8818 12.4416 15.9418 12.5697 16.0172 12.6742L16.0198 12.6777L16.0223 12.6807C16.1304 12.8184 16.2673 12.9244 16.4121 13.0057L16.4132 13.0061L16.4141 13.0067C16.6472 13.1323 16.8853 13.2475 17.1278 13.352L17.1339 13.3545L17.1403 13.3568C17.658 13.5384 18.1533 13.783 18.6159 14.0854C18.9123 14.2795 19.1574 14.5475 19.3292 14.8652C19.4728 15.1628 19.5436 15.4927 19.5351 15.8256V15.835C19.5441 16.2754 19.4167 16.7197 19.1824 17.0865C18.9286 17.4643 18.5749 17.7571 18.1642 17.9293L18.162 17.9301L18.1597 17.9309C17.706 18.1334 17.1403 18.2438 16.4503 18.2438C16.008 18.2438 15.5777 18.2037 15.1476 18.1141L15.1449 18.1137L15.1429 18.1129C14.8119 18.0533 14.4899 17.9481 14.1855 17.8002L14.1988 17.8072C14.1774 17.7945 14.1831 17.7932 14.1819 17.8033L14.1832 17.7916V16.1553C14.5387 16.3551 14.9089 16.5082 15.3032 16.602C15.693 16.7086 16.1014 16.7615 16.5098 16.7615C16.8969 16.7615 17.1851 16.7117 17.4032 16.5996C17.515 16.5473 17.6098 16.4623 17.6762 16.355C17.7426 16.2477 17.7777 16.1226 17.7772 15.9949C17.7772 15.7781 17.6539 15.5887 17.4729 15.4354C17.2729 15.266 16.9451 15.1201 16.4582 14.9234L16.4557 14.9223L16.4528 14.9211C15.9739 14.7454 15.5191 14.5053 15.0999 14.207C14.8153 13.9954 14.579 13.7203 14.4086 13.4022C14.2662 13.1078 14.1957 12.7815 14.2031 12.452V12.4461C14.2031 12.0416 14.3106 11.657 14.511 11.3053C14.7371 10.9291 15.0741 10.6256 15.4652 10.4361L15.468 10.4346L15.4712 10.433C15.8987 10.2057 16.4499 10.0951 17.13 10.0951Z" fill="#4285F4"/>
</g>
<defs>
<clipPath id="clip0_544_35459">
<rect y="0.756653" width="24" height="25" rx="5" fill="white"/>
</clipPath>
</defs>
</svg>
