<svg width="37" height="37" viewBox="0 0 37 37" fill="none" xmlns="http://www.w3.org/2000/svg">
<g clip-path="url(#clip0_509_24974)">
<path d="M0.793457 18.2253C0.793457 23.4546 8.85239 27.6942 18.7935 27.6942C28.7345 27.6942 36.7935 23.4546 36.7935 18.2253C36.7935 12.9961 28.7342 8.7565 18.7935 8.7565C8.85239 8.7565 0.793457 12.9961 0.793457 18.2253Z" fill="url(#paint0_radial_509_24974)"/>
<path d="M18.7935 26.9911C28.3461 26.9911 36.0903 23.0662 36.0903 18.2253C36.0903 13.3839 28.3461 9.45963 18.7935 9.45963C9.2408 9.45963 1.49658 13.3839 1.49658 18.2253C1.49658 23.0662 9.2408 26.9911 18.7935 26.9911Z" fill="#777BB3"/>
<path d="M10.5729 19.3121C11.3584 19.3121 11.9445 19.1672 12.3155 18.8818C12.6828 18.5988 12.9362 18.1092 13.0692 17.4263C13.193 16.7879 13.1457 16.3424 12.9286 16.1016C12.707 15.8558 12.2275 15.7312 11.5035 15.7312H10.248L9.55249 19.3121H10.5729ZM6.4669 23.7229C6.43809 23.7229 6.40965 23.7165 6.38362 23.7042C6.35758 23.6918 6.3346 23.6739 6.31632 23.6516C6.29804 23.6294 6.28491 23.6033 6.27788 23.5754C6.27085 23.5475 6.27008 23.5183 6.27565 23.4901L8.1198 14.0012C8.12852 13.9569 8.15234 13.9169 8.18721 13.8882C8.22208 13.8594 8.26585 13.8436 8.31105 13.8435H12.2862C13.5356 13.8435 14.4654 14.1827 15.0501 14.8517C15.6373 15.5239 15.819 16.4644 15.5892 17.646C15.4956 18.1272 15.3347 18.5741 15.1111 18.9746C14.8784 19.3865 14.5814 19.7587 14.2314 20.0771C13.8008 20.4798 13.3134 20.7723 12.7838 20.9442C12.2629 21.1141 11.5935 21.2001 10.7953 21.2001H9.18546L8.7259 23.5649C8.71722 23.6094 8.69334 23.6495 8.65835 23.6783C8.62335 23.7072 8.57943 23.7229 8.53408 23.7229H6.4669Z" fill="black"/>
<path d="M10.4093 15.9264H11.5037C12.3775 15.9264 12.681 16.1182 12.7842 16.2327C12.9549 16.4222 12.9876 16.8225 12.8773 17.3892C12.7538 18.024 12.5249 18.4742 12.1967 18.7268C11.8609 18.9856 11.3141 19.1166 10.573 19.1166H9.78947L10.4096 15.9267L10.4093 15.9264ZM12.2864 13.6483H8.3115C8.22086 13.6483 8.13303 13.6798 8.06305 13.7374C7.99307 13.795 7.94529 13.8752 7.92788 13.9641L6.08372 23.4532C6.07283 23.5097 6.07456 23.568 6.08877 23.6237C6.10299 23.6795 6.12935 23.7315 6.16597 23.7759C6.20259 23.8203 6.24857 23.8561 6.30062 23.8807C6.35267 23.9053 6.4095 23.918 6.46707 23.9181H8.53425C8.62489 23.918 8.71268 23.8865 8.78261 23.8288C8.85253 23.7711 8.90025 23.691 8.9176 23.602L9.3465 21.3953H10.7952C11.6142 21.3953 12.3038 21.3059 12.8447 21.1298C13.4007 20.9492 13.9123 20.643 14.3651 20.2194C14.7297 19.8873 15.0391 19.4993 15.2817 19.0699C15.5154 18.6517 15.6836 18.1848 15.7809 17.6831C16.0228 16.4391 15.8262 15.4432 15.1971 14.7232C14.5738 14.0097 13.5945 13.648 12.2864 13.648V13.6483ZM9.31557 19.507H10.573C11.4064 19.507 12.0271 19.3503 12.4349 19.0359C12.843 18.722 13.1178 18.1978 13.2612 17.4634C13.3976 16.7581 13.3355 16.2605 13.0742 15.9706C12.8123 15.6809 12.2892 15.5357 11.5037 15.5357H10.0873L9.31557 19.507ZM12.2867 14.0381C13.4826 14.0381 14.3547 14.3522 14.9032 14.9797C15.4516 15.6075 15.6164 16.4836 15.3982 17.6083C15.3076 18.0718 15.1554 18.4953 14.9411 18.879C14.7263 19.2632 14.4461 19.6142 14.0999 19.9328C13.687 20.319 13.2289 20.5943 12.724 20.7583C12.2195 20.9225 11.5765 21.0044 10.7955 21.0044H9.02475L8.53453 23.5272H6.46735L8.31178 14.0381H12.2867Z" fill="white"/>
<path d="M20.329 21.2001C20.3002 21.2002 20.2717 21.1938 20.2457 21.1815C20.2196 21.1693 20.1965 21.1514 20.1782 21.1291C20.1599 21.1069 20.1467 21.0809 20.1396 21.0529C20.1325 21.025 20.1317 20.9958 20.1372 20.9675L20.9528 16.769C21.0308 16.3697 21.0116 16.0833 20.8994 15.9618C20.8305 15.8879 20.6241 15.7638 20.0135 15.7638H18.5352L17.5098 21.0423C17.501 21.0868 17.477 21.1268 17.442 21.1555C17.4069 21.1843 17.363 21.1999 17.3177 21.1998H15.2674C15.2386 21.1999 15.2101 21.1935 15.1841 21.1813C15.158 21.169 15.135 21.1511 15.1166 21.1289C15.0983 21.1067 15.085 21.0808 15.0779 21.0529C15.0707 21.025 15.0699 20.9958 15.0753 20.9675L16.9197 11.4784C16.9285 11.434 16.9524 11.3939 16.9873 11.3652C17.0223 11.3364 17.0662 11.3207 17.1115 11.3207H19.1618C19.1906 11.3206 19.2191 11.327 19.2452 11.3392C19.2712 11.3515 19.2943 11.3694 19.3126 11.3916C19.331 11.4138 19.3442 11.4397 19.3513 11.4676C19.3585 11.4955 19.3594 11.5247 19.3539 11.553L18.909 13.8435H20.4989C21.7103 13.8435 22.5315 14.0567 23.0099 14.4962C23.4973 14.9443 23.6497 15.6606 23.4622 16.6262L22.6041 21.0423C22.5953 21.0867 22.5713 21.1267 22.5364 21.1554C22.5014 21.1842 22.4575 21.1999 22.4122 21.1998H20.329V21.2001Z" fill="black"/>
<path d="M19.162 11.1252H17.1114C17.0207 11.1252 16.9328 11.1567 16.8628 11.2144C16.7928 11.2721 16.7451 11.3523 16.7277 11.4413L14.8836 20.9301C14.8726 20.9867 14.8743 21.0449 14.8885 21.1007C14.9027 21.1566 14.9291 21.2085 14.9657 21.253C15.0023 21.2974 15.0483 21.3332 15.1004 21.3578C15.1525 21.3824 15.2093 21.3952 15.2669 21.3953H17.3175C17.4082 21.3953 17.4961 21.3637 17.566 21.3061C17.636 21.2484 17.6838 21.1682 17.7011 21.0792L18.6959 15.959H20.0127C20.6225 15.959 20.7507 16.0892 20.7555 16.0952C20.7926 16.1345 20.8413 16.3187 20.7609 16.7319L19.9452 20.9301C19.9343 20.9867 19.936 21.045 19.9502 21.1008C19.9644 21.1566 19.9908 21.2086 20.0275 21.2531C20.0641 21.2975 20.1101 21.3333 20.1622 21.3579C20.2144 21.3825 20.2712 21.3953 20.3289 21.3953H22.4124C22.503 21.3952 22.5908 21.3636 22.6607 21.306C22.7306 21.2483 22.7784 21.1681 22.7957 21.0792L23.6538 16.6636C23.8549 15.6269 23.6828 14.8495 23.1419 14.3525C22.6255 13.8783 21.761 13.648 20.4987 13.648H19.1459L19.5456 11.5907C19.5566 11.5341 19.5549 11.4757 19.5407 11.4199C19.5265 11.364 19.5002 11.312 19.4635 11.2675C19.4268 11.223 19.3808 11.1872 19.3287 11.1626C19.2765 11.138 19.2196 11.1252 19.162 11.1252ZM19.162 11.5161L18.6717 14.0384H20.4987C21.6482 14.0384 22.4413 14.2392 22.8773 14.6402C23.314 15.0413 23.4445 15.6907 23.2705 16.5893L22.4121 21.0047H20.3289L21.1448 16.8062C21.2376 16.3286 21.2033 16.0029 21.0421 15.8291C20.881 15.6556 20.5378 15.5687 20.0133 15.5687H18.3739L17.3175 21.0044H15.2666L17.1111 11.5153H19.162V11.5161Z" fill="white"/>
<path d="M26.7069 19.3121C27.4924 19.3121 28.0788 19.1672 28.45 18.8818C28.8168 18.5988 29.0705 18.1092 29.2035 17.4263C29.3273 16.7879 29.2803 16.3424 29.0629 16.1016C28.8413 15.8558 28.3617 15.7312 27.6378 15.7312H26.3826L25.6865 19.3121H26.7069ZM22.6017 23.7229C22.5729 23.723 22.5444 23.7166 22.5183 23.7043C22.4922 23.692 22.4691 23.6741 22.4508 23.6518C22.4324 23.6296 22.4193 23.6035 22.4122 23.5755C22.4051 23.5476 22.4044 23.5184 22.4099 23.4901L24.2541 14.0012C24.2628 13.9568 24.2867 13.9168 24.3217 13.888C24.3567 13.8592 24.4006 13.8435 24.4459 13.8435H28.4208C29.6701 13.8435 30.5999 14.1827 31.1844 14.8517C31.7719 15.5239 31.9533 16.4644 31.7235 17.646C31.6357 18.1114 31.4744 18.5599 31.2457 18.9746C31.0128 19.3865 30.7159 19.7586 30.3659 20.0771C29.9356 20.4798 29.4476 20.7723 28.9183 20.9442C28.3975 21.1141 27.7281 21.2001 26.9296 21.2001H25.32L24.8607 23.5649C24.852 23.6094 24.8281 23.6496 24.7931 23.6784C24.758 23.7072 24.714 23.723 24.6686 23.7229H22.6017Z" fill="black"/>
<path d="M26.5431 15.9264H27.6375C28.5113 15.9264 28.8148 16.1182 28.9177 16.2327C29.0893 16.4222 29.1214 16.8225 29.0114 17.3892C28.8876 18.024 28.6587 18.4742 28.3305 18.7268C27.9944 18.9856 27.4476 19.1166 26.7068 19.1166H25.9233L26.5431 15.9264ZM28.4202 13.6483H24.4453C24.3547 13.6483 24.2669 13.6799 24.197 13.7375C24.1271 13.7951 24.0794 13.8752 24.0619 13.9641L22.2175 23.4532C22.2066 23.5098 22.2083 23.568 22.2226 23.6238C22.2368 23.6796 22.2632 23.7316 22.2999 23.776C22.3365 23.8204 22.3825 23.8562 22.4346 23.8808C22.4867 23.9053 22.5435 23.9181 22.6011 23.9181H24.6683C24.759 23.918 24.8468 23.8865 24.9167 23.8288C24.9866 23.7711 25.0343 23.691 25.0517 23.602L25.4806 21.3953H26.929C27.7477 21.3953 28.4376 21.3059 28.9782 21.1298C29.5345 20.9492 30.0461 20.643 30.4992 20.2191C30.8637 19.8871 31.173 19.4992 31.4155 19.0699C31.6495 18.6517 31.8171 18.1848 31.9147 17.6831C32.1566 16.4391 31.9603 15.4432 31.3309 14.7232C30.7076 14.0097 29.7286 13.648 28.4199 13.648L28.4202 13.6483ZM25.4494 19.507H26.7065C27.5402 19.507 28.1606 19.3503 28.569 19.0359C28.9768 18.722 29.2519 18.1978 29.3947 17.4634C29.5317 16.7581 29.4695 16.2605 29.2077 15.9706C28.9461 15.6809 28.4227 15.5357 27.6375 15.5357H26.2214L25.4494 19.507ZM28.4202 14.0381C29.6158 14.0381 30.4885 14.3522 31.0367 14.9797C31.5851 15.6075 31.7502 16.4836 31.5314 17.6083C31.4414 18.0718 31.2889 18.4953 31.0746 18.879C30.86 19.2632 30.5796 19.6142 30.2331 19.9328C29.8205 20.319 29.3621 20.5943 28.8573 20.7583C28.353 20.9225 27.7103 21.0044 26.929 21.0044H25.1585L24.6678 23.5272H22.6006L24.445 14.0381H28.4202Z" fill="white"/>
</g>
<defs>
<radialGradient id="paint0_radial_509_24974" cx="0" cy="0" r="1" gradientUnits="userSpaceOnUse" gradientTransform="translate(11.6008 12.0854) scale(23.6366)">
<stop stop-color="#AEB2D5"/>
<stop offset="0.3" stop-color="#AEB2D5"/>
<stop offset="0.75" stop-color="#484C89"/>
<stop offset="1" stop-color="#484C89"/>
</radialGradient>
<clipPath id="clip0_509_24974">
<rect width="36" height="36" fill="white" transform="translate(0.793457 0.225342)"/>
</clipPath>
</defs>
</svg>
