<svg width="32" height="21" viewBox="0 0 32 21" fill="none" xmlns="http://www.w3.org/2000/svg">
<path d="M26.5026 6.81303C26.4538 5.73882 26.6003 4.78669 26.112 3.98103C24.9402 1.97911 22.0105 0.807251 16.1512 0.807251C10.2919 0.807251 7.2158 1.97911 6.04395 4.00545C5.58009 4.83552 5.62891 5.76324 5.55567 6.83744C5.50684 7.69192 5.11622 8.59523 5.28712 9.57178C5.48243 10.8413 5.55567 12.1108 5.75098 13.2827C5.89746 14.2348 7.2158 15.0405 7.33787 15.9438C7.67966 18.434 10.2675 19.5814 16.1268 19.5814V19.7767H15.9803H16.1512V19.5814C22.0105 19.5814 24.5007 18.434 24.8181 15.9438C24.9402 15.016 26.1608 14.2348 26.3073 13.2827C26.5026 12.1108 26.5759 10.8413 26.7712 9.57178C26.9421 8.59523 26.5515 7.66751 26.5026 6.81303Z" fill="#EFCCA3"/>
<path d="M16.0532 7.69193C17.103 7.71634 17.8354 8.37551 18.519 8.98585C19.3247 9.69385 20.6918 10.1821 21.2533 10.7925C21.8149 11.4028 22.5473 12.0132 22.8158 12.9653C23.0844 13.9174 23.1576 15.1381 23.1576 15.4555C23.1576 15.7729 23.3285 15.6996 23.8168 15.4555C24.9642 14.894 26.2337 13.3803 26.2337 13.3803C26.0873 14.3325 24.8422 15.1869 24.7201 16.0902C24.4271 18.5804 22.0102 19.7767 16.0288 19.7767H16.0044H16.1509" fill="#CCAC8D"/>
<path d="M19.9106 5.78766C20.1304 6.54449 20.9116 9.10793 19.3979 8.25345C19.3979 8.25345 20.0327 8.61965 20.4233 10.0112C20.8384 11.4028 21.8393 11.5737 21.8393 11.5737C21.8393 11.5737 23.475 11.8911 24.6957 10.8413C25.7211 9.96241 25.892 8.39993 25.4526 7.20366C25.0131 6.0318 24.2319 5.66559 23.0844 5.42146C21.937 5.15291 19.6421 4.93318 19.9106 5.78766Z" fill="#CCAC8D"/>
<path d="M22.8164 10.7192C24.0029 10.7192 24.9648 9.75735 24.9648 8.57082C24.9648 7.38428 24.0029 6.42241 22.8164 6.42241C21.6298 6.42241 20.668 7.38428 20.668 8.57082C20.668 9.75735 21.6298 10.7192 22.8164 10.7192Z" fill="black"/>
<path d="M22.2544 8.18021C22.5645 8.18021 22.8159 7.92881 22.8159 7.61869C22.8159 7.30857 22.5645 7.05717 22.2544 7.05717C21.9443 7.05717 21.6929 7.30857 21.6929 7.61869C21.6929 7.92881 21.9443 8.18021 22.2544 8.18021Z" fill="white"/>
<path d="M19.5444 8.47316C19.5444 8.47316 21.4731 9.7915 22.5229 11.0854C23.5727 12.3794 23.5483 12.6235 23.5483 12.6235L22.7914 12.9653C22.7914 12.9653 21.7172 10.9389 20.3989 10.1821C19.0561 9.42529 18.9097 8.79054 18.9097 8.79054L19.5444 8.47316Z" fill="#EFCCA3"/>
<path d="M16.1268 7.69193C15.077 7.71634 14.2958 8.37551 13.5878 8.98585C12.7821 9.69385 11.3661 10.1821 10.8046 10.7925C10.2431 11.4028 9.48628 12.0132 9.21772 12.9653C8.94917 13.9174 8.85152 15.1381 8.85152 15.4555C8.85152 15.7729 8.90035 15.7973 8.19235 15.4555C7.0449 14.9184 5.77539 13.3803 5.77539 13.3803C5.92187 14.3325 7.16697 15.1869 7.28904 16.0902C7.63083 18.5804 10.0478 19.7767 16.0292 19.7767H16.1512" fill="#CCAC8D"/>
<path d="M21.7907 11.8178C20.6189 10.3774 18.739 9.03468 16.1268 9.03468H16.1023C13.4901 9.03468 11.6102 10.3774 10.4384 11.8178C9.21768 13.3071 9.31533 13.893 9.31533 15.309C9.31533 20.4359 11.1219 18.9711 12.3182 19.6058C13.5389 20.2162 14.8084 20.0209 16.1023 20.0209H16.1268C17.4451 20.0209 18.6902 20.1918 19.9109 19.5814C21.1072 18.9711 22.9138 20.4847 22.9138 15.3578C22.9382 13.9418 23.0114 13.3071 21.7907 11.8178Z" fill="#56332B"/>
<path d="M16.0044 10.3042C16.0044 10.3042 15.8335 12.6723 15.4917 13.1362L16.1265 12.9897L16.0044 10.3042Z" fill="#442823"/>
<path d="M16.1753 10.3042C16.1753 10.3042 16.3462 12.6723 16.688 13.1362L16.0532 12.9897L16.1753 10.3042Z" fill="#442823"/>
<path d="M14.1246 9.74269C13.8805 9.18117 14.7594 8.27786 16.1509 8.25345C17.5425 8.25345 18.4214 9.15676 18.1773 9.74269C17.9332 10.3286 17.0543 10.4995 16.1509 10.5239C15.2721 10.4995 14.3687 10.3286 14.1246 9.74269Z" fill="#56332B"/>
<path d="M16.1513 10.3042C16.1513 10.2066 16.9814 10.1821 17.4209 9.88917C17.4209 9.88917 16.5176 10.1821 16.3222 10.0601C16.1269 9.96241 16.0781 9.66945 16.0781 9.66945C16.0781 9.66945 16.0049 9.96241 15.8584 10.0601C15.6875 10.1577 14.6621 9.88917 14.6621 9.88917C14.6621 9.88917 16.0293 10.231 16.0293 10.3042C16.0293 10.3774 16.0049 10.6216 16.0049 10.7925C16.0049 11.4028 16.0049 12.9165 16.1025 13.0385C16.249 13.2583 16.2002 11.4028 16.2002 10.7925C16.1758 10.5972 16.1758 10.4019 16.1513 10.3042Z" fill="black"/>
<path d="M16.2002 13.5756C16.6152 13.5756 17.3476 13.8686 18.0068 14.3325C17.372 13.6245 16.6152 13.1362 16.2002 13.1362C15.7607 13.1362 14.833 13.6733 14.1738 14.4545C14.8574 13.9174 15.7363 13.5756 16.2002 13.5756Z" fill="#7F4A41"/>
<path d="M16.0292 17.8969C15.1015 17.8969 14.1982 17.6039 13.3681 17.3842C13.1972 17.3353 13.0263 17.4574 12.8554 17.4086C11.3174 16.9203 10.0723 16.0902 9.31543 15.0404V15.2846C9.31543 20.4115 11.122 18.9711 12.3183 19.5814C13.539 20.1917 14.8085 19.9964 16.1024 19.9964H16.1269C17.4452 19.9964 18.6903 20.1673 19.911 19.557C21.1073 18.9466 22.9139 20.4359 22.9139 15.309C22.9139 15.1137 22.9139 14.9184 22.9383 14.7475C22.2303 15.8949 20.9364 16.7982 19.3251 17.3353C19.1786 17.3842 18.8368 17.2621 18.6903 17.2865C17.8114 17.5795 17.0302 17.8969 16.0292 17.8969Z" fill="#442823"/>
<path d="M13.7099 15.1381C13.7099 15.1381 13.0996 16.9691 13.5146 17.7748L12.9531 17.5307C12.9531 17.5307 13.3682 15.6752 13.7099 15.1381ZM18.5439 15.1381C18.5439 15.1381 19.1542 16.9691 18.7392 17.7748L19.3007 17.5307C19.3007 17.5307 18.8612 15.6752 18.5439 15.1381Z" fill="#442823"/>
<path d="M12.1473 5.78766C11.9276 6.54449 11.1464 9.10793 12.66 8.25345C12.66 8.25345 12.0253 8.61965 11.6346 10.0112C11.244 11.4028 10.2186 11.5737 10.2186 11.5737C10.2186 11.5737 8.58292 11.8911 7.36223 10.8413C6.33686 9.96241 6.16596 8.39993 6.60541 7.20366C7.04485 6.00739 7.82609 5.66559 8.97354 5.42146C10.121 5.15291 12.3915 4.93318 12.1473 5.78766Z" fill="#CCAC8D"/>
<path d="M16.1269 13.1362C16.7861 13.1362 18.8368 14.5522 18.8612 16.2856V16.1879C18.8612 14.3813 17.2011 12.9409 16.1269 12.9409C15.0527 12.9409 13.3926 14.4057 13.3926 16.1879V16.2856C13.417 14.5522 15.4677 13.1362 16.1269 13.1362Z" fill="black"/>
<path d="M16.6597 9.75596C16.7641 9.72902 16.8078 9.54841 16.7573 9.35258C16.7068 9.15674 16.5812 9.01982 16.4767 9.04676C16.3723 9.07371 16.3286 9.25431 16.3791 9.45015C16.4296 9.64599 16.5552 9.7829 16.6597 9.75596Z" fill="#331712"/>
<path d="M15.4046 9.75233C15.5076 9.78429 15.6397 9.6536 15.6996 9.46043C15.7596 9.26727 15.7246 9.08476 15.6216 9.0528C15.5186 9.02084 15.3865 9.15153 15.3266 9.3447C15.2666 9.53786 15.3016 9.72037 15.4046 9.75233Z" fill="#331712"/>
<path d="M9.36423 10.7192C10.5508 10.7192 11.5126 9.75735 11.5126 8.57082C11.5126 7.38428 10.5508 6.42241 9.36423 6.42241C8.1777 6.42241 7.21582 7.38428 7.21582 8.57082C7.21582 9.75735 8.1777 10.7192 9.36423 10.7192Z" fill="black"/>
<path d="M9.92577 8.18021C10.2359 8.18021 10.4873 7.92881 10.4873 7.61869C10.4873 7.30857 10.2359 7.05717 9.92577 7.05717C9.61566 7.05717 9.36426 7.30857 9.36426 7.61869C9.36426 7.92881 9.61566 8.18021 9.92577 8.18021Z" fill="white"/>
<path d="M16.7617 8.59523C16.7617 8.57081 16.2002 8.83936 16.0537 8.86378C15.9072 8.83936 15.3457 8.57081 15.3457 8.59523H16.7617Z" fill="#7F4A41"/>
<path d="M12.4892 8.47316C12.4892 8.47316 10.5606 9.7915 9.51078 11.0854C8.46099 12.3794 8.4854 12.6235 8.4854 12.6235L9.24223 12.9653C9.24223 12.9653 10.3164 10.9389 11.6348 10.1821C12.9531 9.42529 13.124 8.79054 13.124 8.79054L12.4892 8.47316Z" fill="#EFCCA3"/>
<path d="M8.2656 4.56696C8.2656 4.56696 7.60642 6.37357 6.1416 7.1304C6.1416 7.1304 8.43649 6.86185 8.2656 4.56696ZM23.6707 4.56696C23.6707 4.56696 24.3298 6.37357 25.7946 7.1304C25.7946 7.1304 23.4998 6.86185 23.6707 4.56696ZM19.4959 7.93605C19.4959 7.93605 18.0555 6.4224 16.1268 6.37357H16.1512H16.1756C14.2225 6.4224 12.8065 7.93605 12.8065 7.93605C14.4911 6.76419 15.9315 6.78861 16.1756 6.78861C16.1512 6.78861 17.8114 6.76419 19.4959 7.93605ZM17.8114 4.76227C17.8114 4.76227 17.0789 3.73689 16.1024 3.71248H16.1512C15.4188 3.73689 14.4667 4.76227 14.4667 4.76227C15.2967 3.95662 16.1512 3.98103 16.1512 3.98103C16.1512 3.98103 16.9569 3.95662 17.8114 4.76227ZM9.36421 12.2573C9.36421 12.2573 8.21677 12.8188 7.3867 12.477H7.36229C6.62988 12.062 6.26367 10.8169 6.26367 10.8169C6.26367 10.8169 6.99608 13.0141 9.36421 12.2573ZM22.7429 12.2573C22.7429 12.2573 23.8904 12.8188 24.7204 12.477C25.697 12.062 25.8435 10.8169 25.8435 10.8169C25.8435 10.8169 25.1111 13.0141 22.7429 12.2573Z" fill="#CCAC8D"/>
<path d="M10.6825 4.44489C11.3173 4.32282 12.3671 4.29841 13.1971 4.56696C14.2469 4.93316 13.3925 6.27592 13.6122 6.34916C13.8319 6.4224 14.1249 5.42144 16.078 5.51909C18.0555 5.61675 18.2752 6.49564 18.5437 6.34916C18.8123 6.20268 18.2752 3.90779 21.2293 4.44489C21.2293 4.44489 18.1287 3.61482 18.2752 5.86088C18.2752 5.86088 16.493 4.49372 14.0028 5.7144C14.0272 5.7144 14.662 3.61482 10.6825 4.44489ZM21.4978 4.44489C21.5466 4.44489 21.5711 4.4693 21.5955 4.4693C21.6199 4.4693 21.571 4.44489 21.4978 4.44489ZM9.82805 1.442C9.82805 1.442 7.19137 4.76227 6.80075 6.03178C6.41013 7.32571 6.11717 12.6235 5.77537 13.3803L4.55469 8.15577L6.80075 2.71151L9.82805 1.442ZM22.2302 1.442C22.2302 1.442 24.8669 4.76227 25.2575 6.03178C25.6481 7.32571 25.9411 12.6235 26.2829 13.3803L27.5036 8.15577L25.2575 2.71151L22.2302 1.442Z" fill="#CCAC8D"/>
<path d="M22.1081 1.44201C22.1081 1.44201 24.9401 3.81014 25.7702 6.54448C26.6002 9.27881 26.2584 12.5991 26.8932 13.0141C27.7965 13.6 28.8219 10.1089 29.1637 9.74267C29.7008 9.15674 31.483 7.66751 31.605 7.39896C31.7271 7.13041 27.9918 3.05332 26.3561 2.24766C24.3786 1.31994 21.9372 1.2467 22.1081 1.44201Z" fill="#56332B"/>
<path d="M24.5249 2.90683C24.5249 2.90683 27.8696 7.17923 27.8208 12.5014L29.1635 9.76709C29.1391 9.76709 27.9672 6.27592 24.5249 2.90683Z" fill="#442823"/>
<path d="M9.82798 1.44201C9.82798 1.44201 6.99599 3.81014 6.16592 6.54448C5.33586 9.27881 5.67765 12.5991 5.04289 13.0141C4.13959 13.6 3.11421 10.1089 2.77242 9.74267C2.23532 9.15674 0.453115 7.66751 0.331046 7.39896C0.208978 7.13041 3.94428 3.05332 5.58 2.24766C7.55751 1.31994 9.99888 1.2467 9.82798 1.44201Z" fill="#56332B"/>
<path d="M7.41107 2.90683C7.41107 2.90683 4.06639 7.17923 4.11522 12.5014L2.79688 9.76709C2.79688 9.76709 3.96873 6.27592 7.41107 2.90683Z" fill="#442823"/>
<path d="M5.60449 12.5991C5.60449 12.5991 5.84863 13.9174 6.23925 14.3324C6.62987 14.7475 6.36132 14.0151 6.36132 14.0151C6.36132 14.0151 5.94628 13.7953 6.01953 12.1108C6.09277 10.4263 5.60449 12.5991 5.60449 12.5991ZM26.4294 12.5991C26.4294 12.5991 26.1853 13.9174 25.7946 14.3324C25.404 14.7475 25.6726 14.0151 25.6726 14.0151C25.6726 14.0151 26.0876 13.7953 26.0144 12.1108C25.9411 10.4263 26.4294 12.5991 26.4294 12.5991Z" fill="#CCAC8D"/>
<path d="M13.5879 11.7934C13.6958 11.7934 13.7832 11.706 13.7832 11.5981C13.7832 11.4903 13.6958 11.4028 13.5879 11.4028C13.48 11.4028 13.3926 11.4903 13.3926 11.5981C13.3926 11.706 13.48 11.7934 13.5879 11.7934Z" fill="#442823"/>
<path d="M12.4648 12.9653C12.5727 12.9653 12.6602 12.8778 12.6602 12.77C12.6602 12.6621 12.5727 12.5747 12.4648 12.5747C12.357 12.5747 12.2695 12.6621 12.2695 12.77C12.2695 12.8778 12.357 12.9653 12.4648 12.9653Z" fill="#442823"/>
<path d="M12.0986 11.7934C12.2065 11.7934 12.2939 11.706 12.2939 11.5981C12.2939 11.4902 12.2065 11.4028 12.0986 11.4028C11.9908 11.4028 11.9033 11.4902 11.9033 11.5981C11.9033 11.706 11.9908 11.7934 12.0986 11.7934Z" fill="#442823"/>
<path d="M18.3481 11.7934C18.456 11.7934 18.5435 11.706 18.5435 11.5981C18.5435 11.4902 18.456 11.4028 18.3481 11.4028C18.2403 11.4028 18.1528 11.4902 18.1528 11.5981C18.1528 11.706 18.2403 11.7934 18.3481 11.7934Z" fill="#442823"/>
<path d="M19.4712 12.9653C19.5791 12.9653 19.6665 12.8778 19.6665 12.77C19.6665 12.6621 19.5791 12.5747 19.4712 12.5747C19.3633 12.5747 19.2759 12.6621 19.2759 12.77C19.2759 12.8778 19.3633 12.9653 19.4712 12.9653Z" fill="#442823"/>
<path d="M19.8374 11.7934C19.9453 11.7934 20.0327 11.706 20.0327 11.5981C20.0327 11.4903 19.9453 11.4028 19.8374 11.4028C19.7295 11.4028 19.6421 11.4903 19.6421 11.5981C19.6421 11.706 19.7295 11.7934 19.8374 11.7934Z" fill="#442823"/>
</svg>
