<svg width="29" height="30" viewBox="0 0 29 30" fill="none" xmlns="http://www.w3.org/2000/svg">
<g clip-path="url(#clip0_531_24099)">
<path d="M8.66671 24.7182C7.56109 23.8482 6.38296 23.0163 5.57821 21.8436C3.88352 19.7746 2.57852 17.3803 1.68677 14.8628C1.14755 13.2261 0.961773 11.4707 0.267586 9.8965C-0.459227 8.75463 0.392648 7.504 1.64509 7.1415C2.20243 7.03457 3.18209 6.50713 1.99852 6.88413C0.938211 7.66169 0.835804 6.17725 1.9233 6.083C2.66643 5.98332 2.9383 5.37613 2.68455 4.83057C1.88705 4.31038 4.61668 3.74035 3.2428 2.96369C1.81274 1.42307 5.2438 1.12582 4.39737 2.8785C4.19618 4.22519 6.7953 2.63019 6.19174 4.18713C6.80527 4.93478 8.48818 4.3575 8.44559 5.40603C9.33915 5.46766 9.64546 6.21894 10.4846 6.27603C11.3546 6.66844 12.9288 6.97747 13.2242 7.95713C12.3633 8.63953 10.3668 6.54791 10.2699 8.43744C10.5309 11.2287 10.4638 14.1033 11.4842 16.7613C11.9673 18.3699 13.1381 19.6369 14.1939 20.8902C15.2062 22.1173 16.5774 22.9818 17.973 23.7087C19.1982 24.2868 20.5196 24.6693 21.8545 24.9103C22.3955 24.4962 23.3525 22.9565 24.1962 23.6053C24.237 24.3358 22.5196 25.1315 24.1146 25.0508C25.0526 24.7681 25.7024 25.7758 26.4736 24.8659C27.185 25.7088 29.428 24.3285 28.9232 26.0495C28.239 26.4908 27.2412 26.2244 26.5561 26.8316C25.426 26.267 24.5261 27.3364 23.2755 27.2013C21.8862 27.4506 20.4733 27.5503 19.065 27.5521C16.7541 27.3708 14.3951 27.2929 12.1975 26.4881C10.9586 26.1283 9.75059 25.4233 8.66309 24.7173L8.66671 24.7182ZM10.6179 25.5638C11.8268 26.0858 13.0104 26.6368 14.3335 26.8035C16.436 27.0953 18.6065 27.5466 20.7162 27.1352C19.761 26.7038 18.7741 27.3028 17.8226 26.8271C16.6807 27.0718 15.4663 26.7636 14.2882 26.6123C12.9696 26.025 11.5459 25.6208 10.3116 24.8578C8.76821 24.2941 11.1091 25.581 11.5259 25.6852C12.4902 26.2326 10.4656 25.4133 10.1792 25.1777C9.37087 24.7246 9.26846 24.8188 10.0995 25.2792L10.607 25.5638H10.6179ZM8.31599 23.9379C9.48777 24.3729 8.31055 23.1133 7.77496 23.1858C7.53752 22.7734 6.86599 22.5124 7.33996 22.2913C6.48809 22.5867 6.44821 21.1675 6.04855 21.3705C5.14774 21.086 5.69784 20.0782 4.62574 19.4583C4.52787 18.8058 3.55999 18.2413 3.25187 17.258C3.11593 16.7541 2.15802 15.3095 2.74618 16.6544C3.24643 17.9503 4.1273 19.0587 4.86137 20.1661C5.43049 21.221 6.10293 22.323 7.13968 22.9818C7.48949 23.3172 7.82662 23.831 8.31962 23.9361L8.31599 23.9379ZM4.94112 20.2314C4.9819 20.0547 5.15499 20.6138 4.94112 20.2314V20.2314ZM9.71977 24.4572C9.3464 24.3104 9.97896 24.3412 9.71977 24.4572V24.4572ZM10.3541 24.6892C10.0641 24.8687 10.288 24.3693 10.3541 24.6892V24.6892ZM11.1516 25.0209C10.5671 24.7943 11.5305 24.6602 11.1516 25.0209V25.0209ZM12.5165 25.7822C11.7797 25.6553 12.7466 25.4423 12.5165 25.7822V25.7822ZM9.8974 23.9561C9.13615 23.9506 10.4865 23.5754 9.8974 23.9561V23.9561ZM10.4955 24.2551C10.2826 24.3458 10.4774 24.0539 10.4955 24.2551V24.2551ZM13.4798 26.1184C13.9601 26.4211 16.2819 26.7818 14.8283 26.2425C14.5836 26.2933 12.1322 25.5483 13.4798 26.1184ZM8.74193 22.4281C7.99699 22.2052 8.69662 22.2269 8.74193 22.4281V22.4281ZM10.1312 23.2383C9.38084 23.0435 10.4937 22.9846 10.1312 23.2383V23.2383ZM11.3093 23.9633C10.4683 23.7667 11.8286 23.7676 11.3093 23.9633V23.9633ZM8.17462 21.811C8.73649 22.2423 10.4457 21.8653 9.03555 21.5536C8.39484 21.2119 6.95118 20.9781 7.93537 21.7593L8.17371 21.811H8.17462ZM12.0896 24.2008C11.1054 23.9724 12.3252 23.802 12.0896 24.2008V24.2008ZM10.8997 23.2555C12.2772 23.6452 9.74243 22.3855 10.5599 23.1105L10.7411 23.1921L10.8997 23.2537V23.2555ZM13.285 24.633C12.1068 24.4518 14.59 24.6457 13.285 24.633V24.633ZM7.67255 21.0561C7.35084 21.076 7.6218 20.8132 7.67255 21.0561V21.0561ZM15.4908 25.8701C15.0648 26.1963 15.5252 25.4314 15.4908 25.8701V25.8701ZM9.89921 22.4173C9.4914 22.4082 9.82037 22.1862 9.89921 22.4173V22.4173ZM7.79671 20.9038C6.77265 20.5739 8.54527 20.8585 7.79671 20.9038V20.9038ZM5.30724 19.2961C4.49343 18.6509 5.2139 18.9373 5.30724 19.2961V19.2961ZM11.8431 23.444C11.7072 23.2873 11.7797 23.4776 11.8431 23.444V23.444ZM15.9104 25.9408C15.6892 26.0314 15.8977 25.7015 15.9104 25.9408V25.9408ZM11.4833 23.0725C10.8444 22.9791 11.5558 22.7643 11.4833 23.0725V23.0725ZM8.45284 21.1512C7.56018 20.7751 9.01018 21.0923 8.45284 21.1512V21.1512ZM13.5786 24.3367C12.7331 24.169 14.4468 23.9923 13.5786 24.3367V24.3367ZM10.9124 22.5269C11.912 22.6556 9.72249 21.8472 10.6922 22.4544L10.9124 22.5269ZM14.3879 24.6638C15.3213 24.1065 15.0132 25.9716 15.972 24.8215C16.9172 24.131 15.1564 25.6752 16.32 24.9448C17.1628 24.3811 18.4071 25.2121 19.1928 25.4822C19.7583 25.455 20.3075 25.9716 20.8875 25.6571C22.0022 25.3562 18.7052 25.2112 19.5698 24.6783C18.5494 24.9756 17.7954 24.3249 17.2924 23.6706C16.1469 23.406 14.8238 22.8205 14.2519 21.8073C14.019 21.4267 14.5872 21.8617 14.0507 21.2391C13.362 20.6256 13.0176 19.9287 12.5536 19.1819C12.0008 18.8874 11.9346 18.0183 11.8794 19.1529C11.8839 18.437 11.2115 17.954 11.0456 18.1543C11.0429 17.4655 11.7661 17.8099 11.2595 17.3006C11.1507 16.5846 10.7919 15.8415 10.6849 15.0331C10.5173 14.6434 10.6614 13.8097 10.114 14.6915C9.91462 15.6222 10.0478 13.5478 10.3587 14.2311C10.7665 13.5333 10.2119 13.6148 10.1901 13.7118C10.4556 13.1228 10.3587 12.2872 10.1203 12.6062C10.2617 11.9809 10.3442 10.3088 9.90918 10.6052C10.172 9.95269 10.4094 7.61728 9.26393 8.50722C8.79993 8.51357 7.99699 8.67578 7.61727 8.86428C8.80718 9.52041 7.49765 9.10172 7.0119 8.9966C6.94846 9.60378 6.46815 9.34097 5.87002 9.34732C6.82884 9.46513 5.4033 10.3261 4.85502 9.99257C4.1409 10.3333 5.47127 11.1852 4.86862 11.4489C4.94293 11.8449 3.77477 11.3057 3.8663 12.2228C3.17393 11.931 3.77115 13.3103 4.11824 12.8436C5.29637 13.1626 4.94746 13.8894 4.97737 14.5809C4.78524 14.9833 4.02943 13.6348 4.8088 13.6973C4.19255 12.6977 4.12912 13.3348 3.61709 13.8006C3.49927 13.8342 4.92209 14.4622 4.02852 14.7703C4.81424 14.8918 4.8369 15.5796 4.9964 16.0137C5.46765 16.5058 5.37068 15.4699 5.93618 16.0617C5.57821 15.5361 4.04212 14.5782 5.27915 14.8836C5.2728 14.3543 5.0553 13.9266 5.43502 13.9366C5.81112 13.2569 5.04171 15.6131 5.88815 14.7486C6.12196 14.6462 6.18087 14.0689 6.60137 14.8029C7.21218 15.4047 6.82249 15.8397 5.95974 15.2887C6.1138 15.8125 7.1134 15.9992 6.9249 16.8175C7.12427 17.538 7.40249 17.2725 7.64537 17.2308C7.82662 17.9304 7.94443 17.4157 7.95349 17.0831C8.8253 17.2698 8.62049 17.7854 8.89418 18.1452C9.49502 18.4171 8.03324 16.3073 9.06637 17.5108C10.1511 18.4896 9.47418 18.9001 8.49996 18.7433C9.11621 18.6935 9.31559 19.5771 10.0859 19.5453C10.7891 19.8807 11.264 21.1648 10.0533 20.6292C9.63368 20.2504 8.14471 19.7828 9.3609 20.5023C10.4828 21.0225 11.3746 21.3325 12.4566 21.9859C13.2306 22.5296 13.565 23.1713 13.8586 23.2972C13.2079 23.6081 11.8975 23.0489 12.8617 22.8776C12.2546 22.7671 11.5712 22.4608 12.1531 23.2166C12.6479 23.6298 13.9048 23.5863 14.1305 23.6334C13.9402 24.0539 13.6112 24.0866 14.1377 24.1201C13.5505 24.4337 14.3262 24.4826 14.3806 24.6611L14.3879 24.6638ZM13.1862 21.2708C12.8282 20.8966 12.7358 20.1969 13.1227 20.8059C13.3221 20.8857 13.7571 21.9505 13.1862 21.2708ZM17.1012 23.7458C17.1075 23.9153 17.3241 23.7313 17.1012 23.7458V23.7458ZM12.6243 20.3428C12.6098 19.7773 12.753 20.7778 12.6243 20.3428V20.3428ZM12.2346 19.8199C11.7842 18.9499 12.801 20.0646 12.2346 19.8199V19.8199ZM7.5203 16.5574C7.6508 17.0088 7.78493 16.4868 7.5203 16.5574V16.5574ZM11.2722 18.5911C11.4353 17.9812 11.4534 19.1022 11.2722 18.5911V18.5911ZM8.6214 16.7478C8.43471 16.4124 9.01109 17.0631 8.6214 16.7478V16.7478ZM10.8961 17.4764C10.4701 16.5221 11.1988 16.9553 10.9912 17.6323L10.8961 17.4764ZM6.97384 14.8609C6.79259 14.5474 6.46905 13.6284 6.57055 13.3475C6.66118 13.8043 7.54205 15.3141 7.00193 13.9819C6.40562 12.8581 7.71515 14.3462 7.85018 14.6271C7.91362 14.9053 7.48224 14.551 7.77405 15.2053C7.24118 14.4604 7.45959 15.6168 6.97474 14.87L6.97384 14.8609ZM5.76218 14.0254C5.81202 13.2968 6.03949 14.5238 5.76218 14.0254V14.0254ZM6.30774 14.2139C6.56784 13.6647 6.74818 14.9797 6.30774 14.2139V14.2139ZM4.98462 13.217C4.5333 12.7684 4.20705 12.3561 5.00637 12.9388C5.31449 12.9506 4.32215 11.999 5.08068 12.6361C5.87818 12.7811 5.47399 13.9438 4.98552 13.2161L4.98462 13.217ZM5.67337 13.1989C5.81293 13.4544 5.93618 12.9388 5.67337 13.1989V13.1989ZM6.09749 13.3348C5.69874 12.5899 6.57962 13.6475 6.09749 13.3348V13.3348ZM5.25468 12.5301C3.94243 11.361 6.90405 13.14 5.46855 12.7476L5.25468 12.5301ZM9.0138 14.7141C8.44559 14.3743 8.86246 12.318 9.0564 13.7236C9.60921 13.5451 9.02559 14.4504 9.43702 14.4413C9.37359 15.0123 9.1878 15.2189 9.0138 14.7141ZM10.404 15.5361C10.4584 14.9162 10.5218 15.9602 10.404 15.5361V15.5361ZM10.1629 15.2968C10.1684 15.6086 10.2264 15.0322 10.1629 15.2968V15.2968ZM5.52112 12.1458C4.6783 10.9831 7.97071 13.3221 6.06124 12.4403C5.86187 12.3878 5.62171 12.3697 5.52112 12.1458ZM8.19909 13.565C8.11934 12.5863 8.37671 13.7281 8.19909 13.565V13.565ZM10.2318 14.87C10.2436 15.2388 10.3886 14.3127 10.2318 14.87V14.87ZM5.65071 11.7018C6.15187 11.5948 7.73509 12.5808 6.28055 11.9827C6.12015 11.8051 5.77668 11.8857 5.65071 11.7018ZM9.95177 13.8459C10.0061 12.8445 10.2508 13.2478 9.95359 13.9909L9.95177 13.8459ZM6.02318 11.3538C6.22799 11.0547 5.48124 10.0007 6.13012 10.9758C6.40199 11.1988 6.94302 11.3492 6.47449 11.4435C7.21309 12.096 6.29324 11.6202 6.02409 11.3528L6.02318 11.3538ZM9.7388 13.5342C9.86296 14.2021 9.87927 12.3923 9.7388 13.5342V13.5342ZM5.59724 10.3007C5.6788 10.5091 5.75312 10.2336 5.59724 10.3007V10.3007ZM6.56693 10.878C6.81615 10.3542 7.0273 11.4616 6.56693 10.878V10.878ZM9.30109 12.3987C9.29927 12.1993 9.35274 12.6914 9.30109 12.3987V12.3987ZM9.14249 12.0488C8.76368 11.1127 9.50499 12.5446 9.14249 12.0488V12.0488ZM8.90959 11.4344C8.84615 11.0474 9.12709 11.9202 8.90959 11.4344V11.4344ZM9.2884 10.8182C9.0274 10.3596 9.61737 8.79722 9.68352 9.76691C9.40893 10.5227 9.60468 10.945 9.79499 9.93004C10.1484 9.13253 9.71977 11.5042 9.2884 10.8182ZM9.67809 8.49272C9.70346 8.66038 9.79137 8.35316 9.67809 8.49272V8.49272ZM9.02649 21.3171C8.87243 21.1811 9.04643 21.4023 9.02649 21.3171V21.3171ZM10.3677 21.9949C11.1136 22.1871 11.1109 21.8789 10.4357 21.7865C10.0732 21.4494 8.92952 21.0914 9.95359 21.7448C10.0206 21.9261 10.2345 21.9134 10.3677 21.9949ZM7.72149 20.2368C8.13202 20.5449 9.26846 21.105 8.30693 20.3546C8.63137 19.9776 7.68615 19.7764 7.9988 19.5245C7.2013 19.0351 7.36896 19.0714 7.92812 19.0958C6.9693 18.6672 8.06677 18.6998 8.01512 18.4796C7.64537 18.4071 6.17905 17.8271 7.0418 18.5267C6.16455 18.0799 6.83337 18.6935 6.56784 18.6291C5.66159 18.3844 7.36534 19.3124 6.42555 19.0823C6.9394 19.4901 7.8103 20.1272 6.64305 19.5136C6.48899 19.7348 7.47862 20.071 7.73055 20.2386L7.72149 20.2368ZM9.12346 21.0434C8.28699 20.3728 10.8272 21.5926 9.12346 21.0434V21.0434ZM16.301 25.3916C16.0681 25.6816 16.3227 25.0526 16.301 25.3916V25.3916ZM17.0386 25.7024C17.432 25.3218 17.055 26.3096 17.6911 25.6091C17.6975 25.1079 17.673 24.8116 16.9607 25.4206C16.7641 25.5293 16.6771 25.9915 17.0396 25.7015L17.0386 25.7024ZM5.32718 18.3446C4.48074 17.8715 5.20665 17.8697 5.32718 18.3446V18.3446ZM6.11562 18.8611C5.07162 18.4216 5.8229 18.3763 6.11562 18.8611V18.8611ZM10.5979 21.5645C11.0356 21.9542 12.608 21.8499 11.129 21.6125C10.9115 21.289 9.73971 21.3678 10.5979 21.5645ZM16.7586 25.3707C16.1061 25.6227 17.432 24.8052 16.7586 25.3707V25.3707ZM18.1597 26.3332C17.8697 26.412 18.1642 26.1519 18.1597 26.3332V26.3332ZM18.1624 26.0794C17.4401 26.1247 18.9082 25.291 18.1624 26.0794V26.0794ZM3.38962 16.7224C2.75524 15.8161 2.99449 15.4083 2.38187 14.6679C2.26587 14.1015 1.33062 12.8164 1.89793 14.1785C2.41812 14.976 2.57218 16.2085 3.38962 16.7251V16.7224ZM17.9259 25.8266C17.364 25.4405 19.2988 24.9403 17.9259 25.8266V25.8266ZM18.9735 26.2371C18.5385 26.1138 19.6622 25.648 18.9735 26.2371V26.2371ZM5.09337 17.3432C4.58587 17.3051 5.29002 17.0504 5.09337 17.3432V17.3432ZM18.7551 25.9571C19.4203 25.5284 18.601 25.5946 18.6346 25.996L18.7551 25.9571ZM9.72702 20.2658C9.3754 20.2903 9.70437 19.9758 9.72702 20.2658V20.2658ZM10.2844 20.5866C10.0125 20.6428 10.1067 20.2278 10.2844 20.5866V20.5866ZM19.8226 26.2462C20.6745 25.6299 19.3061 26.1283 19.6441 26.364L19.8226 26.2462ZM19.4964 26.0885C18.7623 26.3458 20.1915 25.5067 19.4964 26.0885V26.0885ZM21.1639 27.1986C20.5975 27.0989 21.6297 26.8869 21.1639 27.1986V27.1986ZM5.52202 17.1302C6.14734 17.2698 8.01874 18.669 6.91493 17.2272C6.34943 17.0595 6.68837 15.6775 6.11109 15.9222C6.49805 16.5692 6.42827 16.8447 5.61627 16.4369C4.59493 15.9385 5.04262 16.6834 5.24199 16.89C4.97012 16.9535 5.60177 17.1257 5.52293 17.1311L5.52202 17.1302ZM2.6764 14.8827C2.78787 14.4205 1.64599 12.3361 2.13718 13.8387C2.3139 14.1532 2.29577 14.7495 2.6764 14.8827ZM7.90184 18.1044C7.57921 17.8353 7.88643 18.0663 7.90184 18.1044V18.1044ZM8.6939 18.2893C7.81846 18.0899 8.6939 17.7999 8.6939 18.2893V18.2893ZM15.5606 22.6175C15.044 22.6103 15.4291 22.2822 15.5606 22.6175V22.6175ZM15.8904 22.8586C15.7092 22.8948 15.8415 22.671 15.8904 22.8586V22.8586ZM18.6119 24.5732C18.2856 24.5478 18.8747 24.3802 18.6119 24.5732V24.5732ZM4.09649 15.247C3.29446 15.0404 4.84505 14.957 4.09649 15.247V15.247ZM14.9534 22.0874C14.4758 22.2079 14.9443 21.6025 14.9534 22.0874V22.0874ZM3.80015 14.5564C3.35609 14.4495 4.28046 14.3933 3.80015 14.5564V14.5564ZM5.19577 15.2325C5.04805 15.2932 5.18671 15.073 5.19577 15.2325V15.2325ZM22.2224 25.6725C22.8405 25.5474 24.2506 25.987 24.479 25.5094C23.7268 25.4913 21.8807 24.9792 21.7937 25.6308L21.9569 25.658L22.2224 25.6743V25.6725ZM5.63984 15.3449C5.2574 15.3268 5.65071 14.8537 5.63984 15.3449V15.3449ZM1.96952 12.7983C1.33515 12.6569 1.80277 11.8631 1.96952 12.7983V12.7983ZM2.84405 13.0185C2.04293 12.7485 2.85493 12.7177 2.84405 13.0185V13.0185ZM3.3443 13.2632C3.1993 13.1454 3.23193 13.4109 3.3443 13.2632V13.2632ZM6.49171 15.2814C6.14099 15.1818 6.64034 15.1455 6.49171 15.2814V15.2814ZM3.01171 12.7077C1.99671 12.6017 2.92652 12.0008 3.01171 12.7077V12.7077ZM1.21734 11.5432C1.04243 11.6664 1.19196 11.2169 1.21734 11.5432V11.5432ZM1.48468 11.342C1.2554 11.3909 1.44118 10.955 1.48468 11.342V11.342ZM2.95915 12.221C3.58265 11.9763 1.82362 11.7135 2.83227 12.1757L2.95915 12.221ZM22.6955 24.4164C22.188 24.3032 23.0942 24.0503 22.6955 24.4164V24.4164ZM25.0789 25.6517C24.6756 25.7151 25.2393 25.1804 25.0789 25.6517V25.6517ZM3.10868 11.4525C2.61387 11.5432 3.17484 10.9949 3.10868 11.4525V11.4525ZM1.0098 10.0478C0.899242 9.39988 0.915554 8.26707 1.99218 8.6495C0.553961 8.93588 2.98905 10.4384 2.68093 9.25125C3.2863 9.28116 3.86449 8.89328 3.5464 9.48054C4.73993 9.35094 5.56462 8.316 6.71737 8.46191C7.62362 8.34229 8.59512 8.25347 9.56299 7.89097C10.3578 7.83388 11.1217 6.97838 10.6867 6.47088C9.60287 6.38025 8.46824 6.51438 7.27018 6.75363C5.94252 7.02913 4.73721 7.55385 3.39777 7.77769C2.09277 7.9535 3.66059 8.26072 3.2863 8.3305C2.60662 8.56613 4.09921 8.72563 3.1984 8.97575C2.64196 8.86972 2.06287 8.6785 2.30121 8.09216C1.05059 8.25529 -0.0486955 8.77366 0.940023 10.046L1.01252 10.0469L1.0098 10.0478ZM4.0258 8.52082C4.31852 7.44057 5.59634 9.40894 4.50612 8.66582C4.37652 8.56794 4.16174 8.4891 4.0258 8.52082ZM4.0829 7.997C4.30765 8.17372 4.50612 7.68253 4.0829 7.997V7.997ZM4.6203 8.00607C4.65927 7.50944 5.85099 8.27794 4.81696 8.1846L4.6203 8.00607ZM5.35437 7.71063C5.4323 7.98885 5.62352 7.39616 5.35437 7.71063V7.71063ZM5.54287 7.58375C5.99055 7.04635 8.07402 7.23938 6.53974 7.53119C6.13193 7.22307 5.81746 7.71244 5.54287 7.58375ZM8.26162 7.16416C8.19455 5.69603 9.61374 7.68525 8.26162 7.16416V7.16416ZM9.03374 7.15963C9.31468 6.42013 10.1303 6.86238 9.16515 7.011C9.18599 7.08985 9.13615 7.39344 9.03374 7.15963ZM2.80509 11.081C1.91062 10.6333 3.6479 10.5644 2.80509 11.081V11.081ZM3.42859 11.2622C2.79421 11.1353 3.72402 10.9478 3.42859 11.2622V11.2622ZM1.59252 9.94363C1.02159 9.80316 2.07284 9.57207 1.59252 9.94363V9.94363ZM26.4872 25.5175C26.1193 25.7106 26.5008 25.088 26.4872 25.5175V25.5175ZM23.9588 23.7911C23.6325 23.8337 24.0313 23.2972 23.9588 23.7911V23.7911ZM27.185 25.6852C27.8584 25.6879 29.2259 25.4768 27.7605 25.4768C27.5303 25.513 26.4192 25.5039 27.185 25.6852ZM3.97868 10.9432C4.52424 10.907 4.83055 10.3424 3.87265 10.3741C2.3864 10.22 5.18309 10.8834 3.6914 10.6931C3.49021 10.8263 3.97596 10.9795 3.98774 10.9423L3.97868 10.9432ZM4.45899 11.1861C4.29043 11.3719 4.4019 10.8363 4.45899 11.1861V11.1861ZM5.02993 9.66722C4.70368 9.58838 5.26555 9.3736 5.02993 9.66722V9.66722ZM3.21743 6.63672C4.19074 6.30594 5.52112 5.93438 5.98149 6.79985C5.51387 6.23797 5.79299 5.68335 6.23524 6.50622C6.86055 7.33816 7.1723 6.12741 6.7663 5.84829C7.22849 6.42285 7.75412 6.69472 7.07624 5.88453C7.81484 4.99641 5.59905 6.00054 5.09518 5.99057C4.85321 6.09932 2.59393 6.56694 3.21924 6.63672H3.21743ZM3.78837 5.54469C4.34299 5.126 5.7078 5.79391 4.83237 5.12782C4.74627 5.0526 2.91565 5.6326 3.78837 5.54469ZM5.81112 5.62807C6.45999 5.64438 5.53018 4.75535 6.30412 5.15863C6.17724 4.74357 5.4033 4.66654 5.02449 4.49978C4.81062 4.8786 5.45949 5.6326 5.81021 5.62807H5.81112ZM4.14362 3.792C3.7494 3.94607 4.36837 3.4875 4.14362 3.792V3.792ZM4.96649 3.98957C6.01321 3.85091 4.70005 3.53916 4.75534 3.97869L4.96649 3.98957ZM3.42224 2.78425C2.68546 1.82182 4.8088 2.94557 4.05934 1.93872C3.42859 1.43757 2.82412 2.50422 3.42224 2.78425ZM12.8781 7.87738C13.2161 7.27925 11.4824 7.07082 12.6515 7.66532C12.7584 7.70157 12.7349 7.91907 12.8781 7.87738Z" fill="black"/>
</g>
<defs>
<clipPath id="clip0_531_24099">
<rect width="29" height="29" fill="white" transform="translate(0 0.364563)"/>
</clipPath>
</defs>
</svg>
