<svg width="27" height="28" viewBox="0 0 27 28" fill="none" xmlns="http://www.w3.org/2000/svg">
<g clip-path="url(#clip0_531_23967)">
<path d="M18.138 17.0255C18.2713 15.9156 18.2314 15.7527 19.0581 15.9324L19.2679 15.951C19.9037 15.9799 20.7354 15.8487 21.2238 15.6217C22.2755 15.1338 22.899 14.3188 21.8621 14.5329C19.4964 15.0208 19.3338 14.2201 19.3338 14.2201C21.8319 10.5137 22.8762 5.80892 21.9749 4.6572C19.5166 1.51592 15.2612 3.00135 15.1899 3.03995L15.1671 3.04438C14.6997 2.94713 14.1768 2.88934 13.5891 2.87985C12.5186 2.86234 11.7063 3.1606 11.0901 3.62783C11.0901 3.62783 3.49868 0.50026 3.85179 7.56097C3.92688 9.06306 6.00483 18.9267 8.48313 15.9474C9.3889 14.8581 10.2643 13.937 10.2643 13.937C10.699 14.2258 11.2194 14.373 11.7653 14.32L11.8075 14.2842C11.7944 14.4194 11.8001 14.5516 11.8246 14.7082C11.1861 15.4218 11.3738 15.5471 10.0972 15.8097C8.80587 16.0759 9.56461 16.5496 10.0597 16.6735C10.6604 16.8239 12.0495 17.0367 12.9883 15.7224L12.951 15.8723C13.2016 16.0727 13.1845 17.3124 13.2199 18.1981C13.2554 19.0839 13.3149 19.9103 13.4954 20.398C13.676 20.8853 13.889 22.1405 15.5666 21.7811C16.9685 21.4803 18.0403 21.0479 18.138 17.0255Z" fill="black"/>
<path d="M15.0206 22.6565C14.2786 22.6565 13.7955 22.3696 13.5019 22.0925C13.0589 21.6746 12.8832 21.1361 12.7784 20.8144L12.733 20.68C12.5217 20.1094 12.4502 19.288 12.4078 18.2304C12.4015 18.0651 12.3962 17.8997 12.3919 17.7343C12.3884 17.6075 12.3839 17.4485 12.3776 17.2816C12.1103 17.4091 11.8265 17.4988 11.5345 17.5482C11.0114 17.6377 10.449 17.6086 9.86259 17.462C9.44894 17.3586 9.01905 17.1443 8.77415 16.8131C8.06013 17.4385 7.37901 17.3535 7.00797 17.2299C6.35343 17.0116 5.76766 16.3984 5.2169 15.3547C4.82477 14.6116 4.44529 13.6429 4.08902 12.4762C3.46886 10.4443 3.07483 8.3041 3.03982 7.60168C2.92971 5.40224 3.5216 3.82949 4.79904 2.92731C6.81454 1.50369 9.86786 2.34069 10.981 2.7208C11.7288 2.27002 12.6086 2.05044 13.6029 2.06647C14.137 2.07512 14.6454 2.12216 15.1177 2.20611C15.6102 2.05128 16.5835 1.82895 17.6974 1.84267C19.7499 1.86713 21.4507 2.66701 22.6157 4.15581C23.447 5.21809 23.0361 7.44854 22.7169 8.68379C22.2682 10.4209 21.4817 12.2689 20.5156 13.8775C20.778 13.8794 21.1579 13.8478 21.6983 13.7364C22.7644 13.5162 23.0759 14.0878 23.1605 14.3437C23.4995 15.3703 22.0261 16.1459 21.5665 16.3592C20.9775 16.6328 20.0175 16.7992 19.2312 16.7631L19.1968 16.7608L18.9903 16.7427L18.9698 16.9148L18.9502 17.0833C18.8975 19.1218 18.6062 20.4128 18.0069 21.266C17.3789 22.1602 16.5059 22.411 15.737 22.5757C15.5017 22.6279 15.2616 22.655 15.0206 22.6565ZM13.4593 15.237C13.9383 15.6203 13.9803 16.3415 14.0176 17.6893C14.0223 17.8575 14.0267 18.0167 14.0326 18.1654C14.0508 18.6156 14.0932 19.6698 14.2581 20.1153C14.2815 20.1782 14.3024 20.2423 14.3243 20.3098C14.5083 20.8734 14.6007 21.1559 15.3961 20.9855C16.0642 20.8424 16.4073 20.714 16.6761 20.3313C17.0667 19.7749 17.2853 18.6563 17.3253 17.0055L18.1379 17.0253L17.3308 16.9285L17.3545 16.727C17.4319 16.063 17.4876 15.5829 17.9316 15.2657C18.2876 15.0111 18.6937 15.0358 19.0171 15.094C18.6618 14.8259 18.5635 14.5107 18.5374 14.3816L18.4697 14.0479L18.6599 13.7653C19.7568 12.1377 20.6615 10.1374 21.142 8.2771C21.6356 6.36559 21.485 5.35034 21.3346 5.15839C19.3421 2.61216 15.8863 3.66327 15.5256 3.78287L15.4645 3.81577L15.1586 3.87294L15.0019 3.84045C14.5701 3.75081 14.0904 3.70124 13.5759 3.6928C12.7678 3.6793 12.116 3.8702 11.5815 4.27583L11.2107 4.55701L10.7802 4.37961C9.8609 4.00372 7.16006 3.24793 5.73497 4.25727C4.94395 4.81752 4.58367 5.91545 4.66382 7.52047C4.69019 8.05035 5.05047 10.0561 5.64405 12.0018C6.46481 14.6904 7.21068 15.5833 7.52203 15.6873C7.57624 15.7057 7.71736 15.596 7.85763 15.4277C8.77014 14.3302 9.63794 13.4153 9.67443 13.3767L10.145 12.8817L10.7139 13.2597C10.9432 13.4122 11.1961 13.4984 11.456 13.5147L12.813 12.3575L12.6164 14.3635C12.6119 14.4086 12.6098 14.4698 12.6276 14.5837L12.6866 14.964L12.4308 15.2505L12.4012 15.2836L13.1467 15.6279L13.4593 15.237Z" fill="black"/>
<path d="M21.8629 14.5329C19.497 15.0208 19.3344 14.2198 19.3344 14.2198C21.8323 10.5135 22.8765 5.8085 21.9753 4.65699C19.5169 1.51571 15.2614 3.00135 15.1903 3.03995L15.1673 3.04396C14.6999 2.94713 14.177 2.88934 13.5891 2.87985C12.5186 2.86234 11.7065 3.16039 11.0903 3.62762C11.0903 3.62762 3.49868 0.50026 3.85179 7.56097C3.92688 9.06306 6.00483 18.9267 8.48313 15.9474C9.3889 14.8581 10.2641 13.937 10.2641 13.937C10.6988 14.2258 11.2192 14.373 11.7649 14.32L11.8073 14.2842C11.7942 14.4194 11.8001 14.5517 11.8242 14.7082C11.1859 15.4218 11.3732 15.5471 10.097 15.8097C8.80545 16.0759 9.56419 16.5497 10.0597 16.6735C10.6602 16.8239 12.0495 17.0367 12.9881 15.7224L12.9506 15.8723C13.2008 16.0727 13.3765 17.1757 13.3469 18.1756C13.3174 19.1754 13.2978 19.8618 13.495 20.398C13.6922 20.934 13.8886 22.1406 15.5664 21.7811C16.9683 21.4805 17.6948 20.702 17.796 19.4034C17.8677 18.4802 18.03 18.6166 18.0403 17.791L18.1707 17.4002C18.3206 16.1484 18.1945 15.7447 19.0583 15.9327L19.2682 15.951C19.9039 15.9801 20.7359 15.8487 21.2242 15.6217C22.2759 15.1336 22.8997 14.3188 21.8629 14.5329Z" fill="#336791"/>
<path d="M15.105 22.1553C13.7063 22.1555 13.2633 21.0479 13.0819 20.595C12.8168 19.9314 12.7594 17.3554 12.8185 15.2429C12.8224 15.1724 12.8537 15.1062 12.9057 15.0583C12.9577 15.0105 13.0263 14.9849 13.0969 14.9869C13.1675 14.9888 13.2346 15.0183 13.2838 15.0689C13.333 15.1196 13.3606 15.1874 13.3606 15.2581C13.2924 17.6946 13.3892 19.9025 13.5854 20.3936C13.8919 21.1597 14.3566 21.8298 15.671 21.5484C16.9187 21.2808 17.3859 20.8076 17.5939 19.6015C17.7538 18.6757 18.0693 16.0421 18.1081 15.5224C18.1135 15.4507 18.1471 15.3841 18.2015 15.3371C18.256 15.2902 18.3269 15.2669 18.3986 15.2722C18.4703 15.2776 18.5369 15.3112 18.5838 15.3656C18.6308 15.4201 18.6541 15.491 18.6488 15.5627C18.6083 16.1035 18.294 18.7322 18.128 19.6937C17.8822 21.1186 17.2471 21.7649 15.7844 22.0785C15.5613 22.1279 15.3336 22.1536 15.105 22.1553ZM7.5216 16.7458C7.39937 16.7457 7.27797 16.7257 7.16216 16.6865C6.25365 16.3834 5.38839 14.9039 4.5902 12.2887C3.9827 10.2979 3.59774 8.22015 3.56399 7.54494C3.46379 5.54314 3.97954 4.1267 5.09645 3.33526C7.30623 1.76947 11.0238 3.26059 11.1809 3.32471C11.2469 3.35231 11.2993 3.40485 11.3267 3.47088C11.3541 3.53691 11.3543 3.61109 11.3272 3.67727C11.3002 3.74345 11.2481 3.79627 11.1823 3.82422C11.1165 3.85218 11.0423 3.85301 10.9759 3.82653V3.82674C10.9401 3.81198 7.37521 2.38393 5.40885 3.77844C4.45372 4.45576 4.01519 5.71379 4.10526 7.51815C4.13373 8.08684 4.49338 10.115 5.10869 12.1307C5.82123 14.4652 6.63229 15.9386 7.33365 16.1723C7.44355 16.2092 7.77852 16.3208 8.25777 15.7449C9.1589 14.6607 9.98683 13.7954 9.99505 13.7868C10.0455 13.7379 10.1129 13.7105 10.183 13.7103C10.2532 13.7101 10.3208 13.7372 10.3715 13.7857C10.4222 13.8343 10.4521 13.9006 10.4549 13.9707C10.4577 14.0409 10.4332 14.1094 10.3866 14.1618C10.3783 14.1703 9.56305 15.0227 8.67458 16.0915C8.25376 16.5973 7.85024 16.7458 7.5216 16.7458ZM19.3172 14.4616C19.268 14.4617 19.2197 14.4483 19.1775 14.423C19.1353 14.3977 19.1008 14.3613 19.0777 14.3178C19.0546 14.2744 19.0437 14.2254 19.0464 14.1763C19.049 14.1271 19.065 14.0796 19.0926 14.0389C21.6177 10.2918 22.5041 5.76442 21.7449 4.79453C20.7894 3.57362 19.44 2.93574 17.7346 2.89925C16.4717 2.87183 15.4678 3.19435 15.3039 3.25067L15.2628 3.26734C15.0978 3.31923 14.9713 3.22874 14.9236 3.12306C14.8964 3.06251 14.8923 2.99412 14.9121 2.93076C14.9318 2.8674 14.974 2.81343 15.0308 2.77902L15.1037 2.74906L15.1002 2.75012L15.104 2.74885C15.3826 2.64697 16.4016 2.34111 17.6641 2.35567C19.5514 2.37549 21.1102 3.10344 22.1721 4.46019C22.6745 5.10228 22.6756 6.58159 22.1752 8.51863C21.6652 10.4934 20.7054 12.6161 19.5423 14.342C19.5175 14.3789 19.484 14.4091 19.4447 14.43C19.4055 14.4508 19.3617 14.4617 19.3172 14.4616ZM19.4461 16.1961C19.015 16.1961 18.6285 16.1356 18.3971 15.9968C18.1592 15.8544 18.1138 15.6605 18.1079 15.5578C18.043 14.4179 18.672 14.2194 18.9928 14.1289C18.9481 14.0614 18.8844 13.9819 18.8188 13.8999C18.6317 13.6661 18.3756 13.3459 18.1782 12.8671C18.1474 12.7924 18.0503 12.6184 17.9381 12.4172C17.33 11.3268 16.0648 9.05778 16.8775 7.89573C17.2538 7.35805 18.0027 7.14648 19.1063 7.2646C18.7817 6.27552 17.2355 3.18128 13.5673 3.12116C12.4639 3.1026 11.5589 3.44199 10.8791 4.12838C9.35676 5.66591 9.41202 8.44775 9.41265 8.47538C9.41358 8.51097 9.40749 8.54638 9.39473 8.57961C9.38197 8.61284 9.36279 8.64323 9.33829 8.66904C9.31379 8.69486 9.28444 8.7156 9.25192 8.73007C9.2194 8.74454 9.18435 8.75247 9.14877 8.7534C9.11319 8.75433 9.07777 8.74824 9.04455 8.73548C9.01132 8.72272 8.98093 8.70354 8.95511 8.67904C8.9293 8.65453 8.90856 8.62519 8.89408 8.59267C8.87961 8.56015 8.87168 8.5251 8.87076 8.48952C8.86738 8.36612 8.81043 5.44695 10.4939 3.7468C11.2818 2.95114 12.3187 2.55838 13.5761 2.57884C15.9235 2.61744 17.434 3.8105 18.2881 4.80486C19.2187 5.88824 19.6752 7.08341 19.7127 7.48208C19.7408 7.77866 19.528 7.83814 19.4849 7.84679L19.3873 7.84911C18.3041 7.67572 17.6093 7.79595 17.322 8.20665C16.7037 9.09006 17.9006 11.2363 18.4117 12.1531C18.5422 12.3868 18.6363 12.5558 18.6793 12.6602C18.8473 13.0673 19.0662 13.3409 19.2421 13.5607C19.3967 13.7541 19.5309 13.9216 19.579 14.1186C19.6011 14.1576 19.9171 14.6246 21.7913 14.2378C22.2611 14.141 22.5427 14.2239 22.6287 14.4841C22.7981 14.9965 21.8478 15.5939 21.3218 15.8384C20.8497 16.0575 20.0973 16.1961 19.4461 16.1961ZM18.6486 15.5131C18.7078 15.5732 19.0052 15.6766 19.6214 15.6502C20.169 15.6266 20.7467 15.5074 21.0935 15.3467C21.5369 15.1408 21.8327 14.9107 21.986 14.7535L21.9008 14.7691C20.7025 15.0166 19.8549 14.9837 19.3818 14.671C19.3499 14.6501 19.3193 14.6273 19.29 14.6029C19.2388 14.6232 19.1913 14.6364 19.1575 14.6459C18.889 14.7212 18.6114 14.7991 18.6486 15.5131ZM10.9078 17.0274C10.6101 17.0274 10.2969 16.9871 9.97691 16.9068C9.64553 16.8239 9.08654 16.5743 9.09519 16.1645C9.10469 15.7044 9.77357 15.5665 10.0256 15.5146C10.9352 15.3273 10.9945 15.2522 11.2788 14.8913C11.3617 14.786 11.4649 14.655 11.6054 14.4979C11.8142 14.2644 12.0424 14.1458 12.2837 14.1458C12.4516 14.1458 12.5896 14.203 12.6805 14.2405C12.9707 14.3608 13.2129 14.6514 13.3125 14.9995C13.4023 15.3133 13.3595 15.6154 13.1918 15.85C12.6417 16.6205 11.8519 17.0274 10.9078 17.0274ZM9.68076 16.1879C9.7626 16.251 9.92629 16.3353 10.1083 16.3811C10.3855 16.4503 10.6542 16.4855 10.9078 16.4855C11.6802 16.4855 12.3002 16.1655 12.7507 15.535C12.8446 15.4034 12.8166 15.2366 12.7915 15.1486C12.7387 14.9647 12.6079 14.7974 12.4731 14.7413C12.4 14.7109 12.3394 14.6877 12.2837 14.6877C12.2538 14.6877 12.1629 14.6877 12.0095 14.8592C11.88 15.0039 11.787 15.122 11.7045 15.2264C11.3505 15.6759 11.1883 15.8285 10.1349 16.0455C9.87798 16.0987 9.74615 16.1522 9.68076 16.1879ZM11.7652 14.9375C11.7005 14.9374 11.638 14.9141 11.5889 14.872C11.5398 14.8298 11.5074 14.7715 11.4976 14.7075C11.4906 14.6625 11.4861 14.6172 11.4841 14.5717C10.7935 14.5586 10.1273 14.2625 9.62169 13.7347C8.98234 13.0675 8.69125 12.1432 8.8233 11.1988C8.96673 10.1732 8.91315 9.26788 8.88426 8.78146C8.87703 8.6814 8.87259 8.58117 8.87097 8.48087C8.87139 8.39523 8.87308 8.16763 9.63351 7.78224C9.90393 7.64513 10.4462 7.40593 11.0386 7.34455C12.0203 7.2433 12.6672 7.68036 12.8609 8.57558C13.3836 10.9929 12.9022 12.0622 12.5508 12.8428C12.4852 12.988 12.4234 13.1255 12.374 13.2584L12.3303 13.3759C12.1447 13.8737 11.9842 14.3038 12.0336 14.6253C12.0444 14.6963 12.0266 14.7688 11.9841 14.8268C11.9416 14.8847 11.8778 14.9235 11.8068 14.9345L11.7652 14.9375ZM9.41476 8.55575L9.42552 8.74939C9.45547 9.25459 9.51116 10.1949 9.36013 11.2741C9.25129 12.0529 9.48922 12.8133 10.013 13.3599C10.4268 13.7919 10.9719 14.0302 11.5319 14.0302H11.5435C11.6064 13.7659 11.7104 13.487 11.8224 13.1865L11.8659 13.0698C11.9218 12.9196 11.9871 12.7743 12.0563 12.6205C12.3947 11.8687 12.8157 10.933 12.3308 8.69012C12.2346 8.2461 12.0017 7.98896 11.6188 7.90417C10.8325 7.73035 9.66072 8.32182 9.41476 8.55575ZM11.0508 8.44079C11.0373 8.53656 11.2265 8.79242 11.4729 8.8266C11.719 8.86098 11.9298 8.66101 11.9431 8.56524C11.9563 8.46927 11.7674 8.3638 11.5208 8.32942C11.2746 8.29503 11.0639 8.34481 11.0508 8.44079ZM11.5296 8.9211L11.4604 8.91624C11.3075 8.89494 11.1529 8.79854 11.0472 8.65827C11.0101 8.60912 10.9493 8.51335 10.9614 8.42813C10.9787 8.30305 11.131 8.22838 11.3691 8.22838C11.4225 8.22838 11.4777 8.23238 11.5336 8.23998C11.6636 8.25812 11.7844 8.29567 11.8737 8.34545C12.0283 8.43193 12.0397 8.52812 12.0327 8.57811C12.0135 8.71585 11.7937 8.9211 11.5296 8.9211ZM11.1407 8.45682C11.1485 8.51588 11.2946 8.711 11.4853 8.73737L11.5294 8.74053C11.7053 8.74053 11.837 8.60195 11.8524 8.5566C11.8361 8.5258 11.7231 8.44881 11.5083 8.41928C11.4621 8.41264 11.4155 8.40925 11.3689 8.40915C11.2314 8.40894 11.1577 8.43995 11.1407 8.45682ZM18.549 8.24525C18.5623 8.34123 18.3735 8.5971 18.1269 8.63127C17.8805 8.66544 17.6698 8.46568 17.6563 8.36971C17.6432 8.27394 17.8322 8.16826 18.0786 8.13409C18.325 8.09949 18.5355 8.1497 18.549 8.24525ZM18.0702 8.68021C17.8329 8.68021 17.6285 8.49563 17.6116 8.37603C17.5922 8.23238 17.8286 8.12312 18.0725 8.08937C18.1261 8.08177 18.1792 8.07798 18.2305 8.07798C18.4408 8.07798 18.58 8.13978 18.5939 8.23913C18.603 8.30368 18.5536 8.40303 18.4684 8.49247C18.4123 8.55153 18.2942 8.65384 18.1334 8.67599L18.0702 8.68021ZM18.2303 8.16826C18.1832 8.16826 18.1343 8.17185 18.0847 8.1786C17.8396 8.21256 17.6938 8.31106 17.7008 8.3638C17.709 8.4216 17.8653 8.58992 18.07 8.58992L18.1204 8.58634C18.2541 8.56756 18.3545 8.48045 18.4024 8.43003C18.4775 8.35093 18.5074 8.27668 18.5038 8.25116C18.4994 8.21804 18.4091 8.16826 18.2303 8.16826ZM18.904 13.7482C18.8549 13.7482 18.8067 13.7348 18.7646 13.7095C18.7225 13.6843 18.6881 13.648 18.665 13.6047C18.6419 13.5614 18.631 13.5126 18.6334 13.4636C18.6359 13.4146 18.6516 13.3671 18.6789 13.3263C19.2561 12.4642 19.1504 11.5848 19.0483 10.7347C19.0046 10.3723 18.9597 9.99793 18.9715 9.63828C18.9833 9.26851 19.0301 8.96349 19.0757 8.66818C19.1295 8.31866 19.1803 7.98812 19.1592 7.5962C19.1577 7.52576 19.1836 7.45748 19.2315 7.40581C19.2794 7.35415 19.3455 7.32314 19.4159 7.31936C19.4862 7.31557 19.5553 7.33931 19.6084 7.38555C19.6616 7.43178 19.6947 7.49689 19.7007 7.56709C19.7248 8.01512 19.6672 8.3889 19.6115 8.75066C19.5685 9.02973 19.5239 9.31829 19.5132 9.65558C19.5028 9.97389 19.5436 10.312 19.5866 10.6698C19.6954 11.5741 19.8184 12.599 19.1295 13.6277C19.0772 13.7058 18.9913 13.7482 18.904 13.7482Z" fill="white"/>
<path d="M0.598145 22.7438C0.901007 22.6947 1.20743 22.6709 1.51425 22.6725C1.98569 22.6725 2.33142 22.7822 2.55079 22.9797C2.75371 23.1552 2.87437 23.4239 2.87437 23.7532C2.87437 24.0877 2.77544 24.351 2.58897 24.5429C2.33669 24.8117 1.92536 24.9488 1.45919 24.9488C1.3166 24.9488 1.18497 24.9433 1.0755 24.9159V26.3968H0.598145V22.7438ZM1.0755 24.5263C1.1797 24.5537 1.31132 24.5646 1.47037 24.5646C2.04602 24.5646 2.39723 24.2849 2.39723 23.7749C2.39723 23.2868 2.05171 23.051 1.52521 23.051C1.31681 23.051 1.15776 23.0674 1.0755 23.0893V24.5263ZM5.76464 25.0473C5.76464 26.029 5.08436 26.457 4.44269 26.457C3.72424 26.457 3.17032 25.9305 3.17032 25.0911C3.17032 24.2027 3.75166 23.6817 4.48657 23.6817C5.2491 23.6814 5.76464 24.2356 5.76464 25.0473ZM3.65864 25.0747C3.65864 25.656 3.99318 26.0948 4.46484 26.0948C4.92553 26.0948 5.27083 25.6615 5.27083 25.0637C5.27083 24.614 5.04618 24.0436 4.4756 24.0436C3.90501 24.0436 3.65864 24.5701 3.65864 25.0747ZM6.30738 25.9028C6.44997 25.9961 6.70225 26.0948 6.94357 26.0948C7.29457 26.0948 7.4591 25.9193 7.4591 25.6999C7.4591 25.4696 7.3222 25.3434 6.9655 25.2118C6.48836 25.0418 6.2635 24.7785 6.2635 24.4604C6.2635 24.0327 6.60902 23.6817 7.17939 23.6817C7.44813 23.6817 7.68417 23.7584 7.83225 23.8462L7.71159 24.1972C7.54836 24.0966 7.36037 24.0434 7.16864 24.0436C6.88345 24.0436 6.7244 24.2082 6.7244 24.4056C6.7244 24.625 6.88366 24.7237 7.22918 24.8553C7.68986 25.0308 7.92569 25.2612 7.92569 25.656C7.92569 26.1222 7.56372 26.4513 6.93302 26.4513C6.64235 26.4513 6.37361 26.38 6.18714 26.2703L6.30738 25.9028ZM9.12656 22.9794V23.7418H9.81738V24.1092H9.12656V25.5407C9.12656 25.8697 9.21958 26.0562 9.48853 26.0562C9.5828 26.0575 9.67684 26.0465 9.76823 26.0233L9.79017 26.3852C9.69714 26.4236 9.54885 26.4511 9.3626 26.4511C9.13774 26.4511 8.95654 26.3798 8.84137 26.2481C8.70447 26.1055 8.6549 25.8697 8.6549 25.5571V24.1092H8.24357V23.7418H8.6549V23.1056L9.12656 22.9794ZM12.6146 23.742C12.6034 23.9339 12.5927 24.1478 12.5927 24.4714V26.0125C12.5927 26.6213 12.472 26.9942 12.2143 27.2248C11.9565 27.4661 11.5836 27.5429 11.249 27.5429C10.9309 27.5429 10.5799 27.4661 10.3658 27.3235L10.4865 26.956C10.662 27.0657 10.9362 27.1644 11.2653 27.1644C11.7588 27.1644 12.1208 26.9067 12.1208 26.2376V25.9414H12.1098C11.9618 26.1882 11.6766 26.3857 11.2653 26.3857C10.6071 26.3857 10.1355 25.8263 10.1355 25.0911C10.1355 24.1917 10.7223 23.6817 11.3311 23.6817C11.792 23.6817 12.0442 23.923 12.1594 24.1423H12.1704L12.1923 23.742H12.6146ZM12.1155 24.7895C12.1155 24.7072 12.1101 24.6359 12.0881 24.5701C12.0004 24.2904 11.7645 24.0601 11.4135 24.0601C10.9526 24.0601 10.6238 24.4495 10.6238 25.0637C10.6238 25.5847 10.887 26.018 11.4081 26.018C11.7042 26.018 11.9729 25.8315 12.0772 25.5244C12.1046 25.4421 12.1158 25.3489 12.1158 25.2666L12.1155 24.7895ZM13.3603 24.5701C13.3603 24.2575 13.3548 23.9888 13.3383 23.742H13.7609L13.7771 24.263H13.799C13.9197 23.9065 14.2104 23.6817 14.5339 23.6817C14.5888 23.6817 14.627 23.6871 14.6708 23.6981V24.1533C14.6169 24.1416 14.5617 24.1361 14.5065 24.1369C14.1665 24.1369 13.925 24.3946 13.8594 24.7566C13.8458 24.8308 13.8385 24.906 13.8374 24.9815V26.3964H13.3603V24.5701ZM15.3678 25.157C15.3787 25.8096 15.7953 26.0783 16.278 26.0783C16.6237 26.0783 16.8319 26.018 17.0129 25.9412L17.0951 26.2867C16.9251 26.3635 16.6345 26.4513 16.2122 26.4513C15.395 26.4513 14.9069 25.9138 14.9069 25.1131C14.9069 24.3124 15.3785 23.6814 16.1518 23.6814C17.0184 23.6814 17.2487 24.4438 17.2487 24.9319C17.2487 25.0306 17.2377 25.1074 17.2323 25.1567L15.3678 25.157ZM16.7827 24.8114C16.788 24.5043 16.6564 24.0272 16.1137 24.0272C15.6255 24.0272 15.4117 24.4769 15.373 24.8114H16.7827Z" fill="black"/>
<path d="M17.7971 25.8151C18.0557 25.9704 18.3511 26.0537 18.6527 26.0564C19.1408 26.0564 19.426 25.7986 19.426 25.4257C19.426 25.0802 19.2286 24.8827 18.7295 24.6908C18.1262 24.4769 17.7533 24.1643 17.7533 23.6433C17.7533 23.0674 18.2304 22.6396 18.9489 22.6396C19.3273 22.6396 19.6015 22.7274 19.766 22.8206L19.6344 23.21C19.4186 23.094 19.1774 23.0337 18.9324 23.0345C18.4278 23.0345 18.2359 23.3361 18.2359 23.5884C18.2359 23.9339 18.4605 24.104 18.9708 24.3014C19.596 24.5429 19.9141 24.8443 19.9141 25.3873C19.9141 25.9577 19.4918 26.4513 18.6198 26.4513C18.2633 26.4513 17.8739 26.3471 17.6763 26.2154L17.7971 25.8151ZM23.6161 26.9394C23.1393 26.8143 22.6673 26.6716 22.2011 26.5116C22.1243 26.4842 22.0475 26.4568 21.9762 26.4568C21.0987 26.4238 20.3474 25.7767 20.3474 24.5866C20.3474 23.402 21.0713 22.6396 22.0695 22.6396C23.0731 22.6396 23.726 23.4184 23.726 24.5098C23.726 25.4586 23.2872 26.0674 22.673 26.2813V26.3032C23.0404 26.3964 23.4408 26.4842 23.7534 26.539L23.6161 26.9394ZM23.2212 24.5317C23.2212 23.7913 22.8375 23.0288 22.053 23.0288C21.2468 23.0288 20.8519 23.7747 20.8574 24.5756C20.8519 25.3599 21.2852 26.0674 22.0311 26.0674C22.7936 26.0674 23.2212 25.3763 23.2212 24.5317ZM24.3453 22.7H24.8226V25.9961H26.4021V26.3964H24.3453V22.7Z" fill="#336791"/>
</g>
<defs>
<clipPath id="clip0_531_23967">
<rect width="27" height="27" fill="white" transform="translate(0 0.978455)"/>
</clipPath>
</defs>
</svg>
