<svg width="32" height="33" viewBox="0 0 32 33" fill="none" xmlns="http://www.w3.org/2000/svg">
<g clip-path="url(#clip0_509_24964)">
<path d="M15.8478 3.6126C14.7923 3.6176 13.7848 3.70735 12.8978 3.86435C10.2853 4.32585 9.8113 5.29185 9.8113 7.0736V9.42634H15.9846V10.2106H7.4943C5.7003 10.2106 4.1293 11.2888 3.6378 13.3408C3.0708 15.6921 3.0458 17.1596 3.6378 19.6148C4.07655 21.4426 5.12455 22.7446 6.9188 22.7446H9.04155V19.9241C9.04155 17.8863 10.8043 16.0891 12.8981 16.0891H19.0643C20.7808 16.0891 22.1508 14.6756 22.1508 12.9521V7.07385C22.1508 5.4006 20.7393 4.14385 19.0643 3.8646C18.0033 3.6881 16.9031 3.60785 15.8478 3.6126ZM12.5093 5.50485C13.1468 5.50485 13.6678 6.0341 13.6678 6.6851C13.6678 7.33334 13.147 7.85759 12.5093 7.85759C11.8693 7.85759 11.3511 7.33334 11.3511 6.6851C11.3508 6.0341 11.8693 5.50485 12.5093 5.50485Z" fill="url(#paint0_linear_509_24964)"/>
<path d="M22.9203 10.2106V12.9521C22.9203 15.0771 21.1183 16.8658 19.0638 16.8658H12.8975C11.2085 16.8658 9.81104 18.3116 9.81104 20.0031V25.8818C9.81104 27.5546 11.2655 28.5388 12.8975 29.0186C14.8515 29.5928 16.7255 29.6968 19.0638 29.0186C20.6178 28.5683 22.1503 27.6628 22.1503 25.8818V23.5288H15.9843V22.7443H25.2373C27.0313 22.7443 27.7003 21.4931 28.3243 19.6146C28.9688 17.6808 28.941 15.8211 28.3243 13.3406C27.8808 11.5543 27.034 10.2103 25.2373 10.2103L22.9203 10.2106ZM19.452 25.0973C20.0923 25.0973 20.6105 25.6216 20.6105 26.2703C20.6105 26.9208 20.092 27.4501 19.452 27.4501C18.8145 27.4501 18.2938 26.9208 18.2938 26.2703C18.2938 25.6216 18.8145 25.0973 19.452 25.0973Z" fill="url(#paint1_linear_509_24964)"/>
<path opacity="0.444" d="M24.3275 30.4498C24.3275 31.3356 20.6235 32.0538 16.0547 32.0538C11.4857 32.0538 7.78174 31.3356 7.78174 30.4498C7.78174 29.5638 11.4855 28.8456 16.0547 28.8456C20.6235 28.8456 24.3275 29.5636 24.3275 30.4498Z" fill="url(#paint2_radial_509_24964)"/>
</g>
<defs>
<linearGradient id="paint0_linear_509_24964" x1="2.58427" y1="4.34825" x2="16.8227" y2="16.4907" gradientUnits="userSpaceOnUse">
<stop stop-color="#5A9FD4"/>
<stop offset="1" stop-color="#306998"/>
</linearGradient>
<linearGradient id="paint1_linear_509_24964" x1="22.1795" y1="24.0387" x2="17.0734" y2="16.8781" gradientUnits="userSpaceOnUse">
<stop stop-color="#FFD43B"/>
<stop offset="1" stop-color="#FFE873"/>
</linearGradient>
<radialGradient id="paint2_radial_509_24964" cx="0" cy="0" r="1" gradientUnits="userSpaceOnUse" gradientTransform="translate(16.0213 30.4039) rotate(-90) scale(1.60458 7.05347)">
<stop stop-color="#B8B8B8" stop-opacity="0.498"/>
<stop offset="1" stop-color="#7F7F7F" stop-opacity="0"/>
</radialGradient>
<clipPath id="clip0_509_24964">
<rect width="32" height="32" fill="white" transform="translate(0 0.550598)"/>
</clipPath>
</defs>
</svg>
