<svg width="26" height="28" viewBox="0 0 26 28" fill="none" xmlns="http://www.w3.org/2000/svg">
<g clip-path="url(#clip0_526_23215)">
<path d="M20.6459 8.14135L18.7583 10.1016C21.9044 13.3687 21.9044 18.6893 18.7583 21.9564C15.6122 25.2235 10.4886 25.2235 7.34255 21.9564C4.19648 18.6893 4.19648 13.3687 7.34255 10.1016L12.3763 4.87428L13.0055 4.12752V0.207031L5.36502 8.14135C4.36109 9.17338 3.56413 10.4019 3.02023 11.7557C2.47634 13.1096 2.19629 14.562 2.19629 16.029C2.19629 17.496 2.47634 18.9484 3.02023 20.3023C3.56413 21.6561 4.36109 22.8846 5.36502 23.9166C6.35883 24.9592 7.54181 25.7868 8.84554 26.3516C10.1493 26.9164 11.5479 27.2072 12.9605 27.2072C14.3732 27.2072 15.7718 26.9164 17.0755 26.3516C18.3793 25.7868 19.5622 24.9592 20.556 23.9166C24.8707 19.5294 24.8707 12.4352 20.6459 8.14135Z" fill="#EE4C2C"/>
<path d="M16.8708 7.58128C17.6651 7.58128 18.309 6.9126 18.309 6.08776C18.309 5.26291 17.6651 4.59424 16.8708 4.59424C16.0765 4.59424 15.4326 5.26291 15.4326 6.08776C15.4326 6.9126 16.0765 7.58128 16.8708 7.58128Z" fill="#EE4C2C"/>
</g>
<defs>
<clipPath id="clip0_526_23215">
<rect width="26" height="27" fill="white" transform="translate(0 0.207031)"/>
</clipPath>
</defs>
</svg>
