<svg width="29" height="22" viewBox="0 0 29 22" fill="none" xmlns="http://www.w3.org/2000/svg">
<g clip-path="url(#clip0_509_25010)">
<path d="M4.08188 0.780365H28.2334V17.8028C26.9364 19.1328 25.6352 20.4584 24.331 21.7804H0.233398V4.70718C1.51097 3.39329 2.79946 2.0893 4.08188 0.780365Z" fill="#41CD52"/>
<path d="M7.65 5.19904C8.56697 4.57895 9.70091 4.42222 10.7791 4.43214C11.8058 4.44515 12.8833 4.62913 13.7342 5.25541C14.3524 5.69957 14.7542 6.38532 15.0221 7.09461C15.4555 8.25922 15.5827 9.51674 15.5973 10.7544C15.5991 12.0008 15.5439 13.2744 15.1403 14.462C14.87 15.2697 14.3555 15.9871 13.6767 16.4851C14.1652 17.2942 14.6633 18.097 15.1518 18.906C14.5379 19.1953 13.9258 19.4865 13.3112 19.7745C12.7882 18.8924 12.2676 18.0084 11.7427 17.1275C11.033 17.2465 10.307 17.2372 9.59364 17.1566C8.73909 17.052 7.86818 16.7856 7.20879 16.1977C6.70212 15.7492 6.38394 15.1217 6.16636 14.4836C5.81 13.4045 5.71424 12.256 5.69788 11.1236C5.68939 9.89957 5.76576 8.6563 6.12697 7.48178C6.40636 6.59842 6.86879 5.71692 7.65 5.19904Z" fill="white"/>
<path d="M18.0595 5.1594C18.7019 5.15878 19.3444 5.15878 19.9868 5.1594C19.9886 6.0279 19.9862 6.89577 19.988 7.76427C20.8092 7.76551 21.6304 7.76427 22.4516 7.76489C22.4377 8.3286 22.4225 8.89232 22.4068 9.45604C21.5862 9.4579 20.7662 9.45542 19.9456 9.45728C19.9474 10.8808 19.9413 12.3044 19.9486 13.7279C19.9644 14.1175 19.9559 14.5289 20.1237 14.8888C20.2462 15.1663 20.5759 15.2375 20.8444 15.2468C21.3504 15.245 21.8559 15.2146 22.3619 15.2053C22.3928 15.7232 22.4225 16.2417 22.4516 16.7596C21.445 16.9324 20.3886 17.1393 19.3886 16.8159C18.9674 16.6883 18.5747 16.4028 18.4037 15.9772C18.0977 15.253 18.0728 14.4471 18.0595 13.6697C18.0583 12.2653 18.0595 10.8616 18.0589 9.45728C17.611 9.45604 17.1631 9.4579 16.7153 9.45604C16.7141 8.89294 16.7141 8.32922 16.7153 7.76551C17.1631 7.76365 17.6104 7.76613 18.0583 7.76427C18.0601 6.89577 18.0577 6.0279 18.0595 5.1594Z" fill="white"/>
<path d="M9.96116 6.21311C10.5848 6.1301 11.2393 6.1524 11.8296 6.39338C12.3078 6.58665 12.7139 6.96515 12.9284 7.44462C13.2575 8.17125 13.3836 8.97346 13.4472 9.76577C13.5163 10.8201 13.5066 11.8843 13.3642 12.9325C13.2642 13.5563 13.1218 14.2136 12.7084 14.7054C12.289 15.1991 11.6424 15.411 11.0218 15.4605C10.3672 15.5095 9.67692 15.4605 9.08601 15.144C8.74116 14.9563 8.44843 14.662 8.27752 14.3015C8.07025 13.8697 7.95631 13.3983 7.87631 12.9263C7.6351 11.4297 7.57692 9.88099 7.90662 8.39302C8.04237 7.83178 8.23995 7.25568 8.64116 6.83258C8.99025 6.47019 9.47631 6.28311 9.96116 6.21311Z" fill="#41CD52"/>
</g>
<defs>
<clipPath id="clip0_509_25010">
<rect width="28" height="21" fill="white" transform="translate(0.233398 0.780365)"/>
</clipPath>
</defs>
</svg>
