<svg width="33" height="34" viewBox="0 0 33 34" fill="none" xmlns="http://www.w3.org/2000/svg">
<path d="M19.1951 17.4198C19.1951 18.9107 17.9876 20.1182 16.4967 20.1182C15.0058 20.1182 13.7983 18.9093 13.7983 17.4198C13.7983 15.9289 15.0072 14.7214 16.4967 14.7214C17.9862 14.7214 19.1951 15.9289 19.1951 17.4198Z" fill="#263238"/>
<path d="M28.475 10.5024C27.8883 9.49332 27.1754 8.56221 26.3548 7.73172L23.2355 9.533C22.2633 8.70251 21.1579 8.06618 19.9788 7.64526C18.913 8.72519 18.0669 9.93124 17.4575 11.2422C20.9297 11.0055 24.5167 12.2626 27.8457 14.8646L29.8086 13.7308C29.5025 12.6027 29.0546 11.5185 28.475 10.5024Z" fill="#1976D2"/>
<path d="M28.475 24.3359C29.0561 23.3226 29.5067 22.2398 29.8157 21.1145L26.6964 19.3132C26.9302 18.0562 26.9274 16.7807 26.7021 15.5491C25.2352 15.1664 23.767 15.0361 22.3257 15.165C24.2673 18.0547 24.9716 21.7891 24.3835 25.9728L26.3463 27.1065C27.1712 26.2746 27.8869 25.3449 28.475 24.3359Z" fill="#42A5F5"/>
<path d="M16.4964 31.2519C17.6642 31.2491 18.8264 31.0974 19.9559 30.8012V27.1986C21.1619 26.7721 22.2645 26.1329 23.2197 25.3222C22.8173 23.8597 22.1965 22.5247 21.3646 21.3399C19.8326 24.4648 16.9514 26.9435 13.0342 28.5266V30.7941C14.1637 31.0932 15.3272 31.2462 16.4964 31.2519Z" fill="#1976D2"/>
<path d="M4.51671 24.3373C5.10344 25.3463 5.8163 26.2774 6.63687 27.1079L9.75617 25.3066C10.7284 26.1371 11.8338 26.7735 13.0129 27.1944C14.0787 26.1145 14.9248 24.9084 15.5342 23.5975C12.062 23.8342 8.47501 22.5771 5.14596 19.9751L3.18311 21.1088C3.48923 22.237 3.93707 23.3211 4.51671 24.3373Z" fill="#42A5F5"/>
<path d="M4.5155 10.5038C3.93444 11.5171 3.48376 12.5999 3.1748 13.7251L6.29411 15.5264C6.06027 16.7835 6.0631 18.059 6.28844 19.2906C7.75526 19.6732 9.2235 19.8036 10.6648 19.6746C8.72322 16.7849 8.01886 13.0505 8.60701 8.8669L6.64416 7.73312C5.82075 8.56361 5.10506 9.49473 4.5155 10.5038Z" fill="#1976D2"/>
<path d="M16.4953 3.58775C15.3275 3.59059 14.1654 3.74223 13.0358 4.03843V7.641C11.8298 8.06759 10.7272 8.70675 9.77197 9.5174C10.1745 10.98 10.7952 12.315 11.6271 13.4998C13.1591 10.3748 16.0403 7.8961 19.9575 6.31307V4.04551C18.828 3.74648 17.6645 3.59342 16.4953 3.58775Z" fill="#42A5F5"/>
</svg>
