<svg width="18" height="20" viewBox="0 0 18 20" fill="none" xmlns="http://www.w3.org/2000/svg">
<g clip-path="url(#clip0_526_23340)">
<path d="M16.807 8.1359H11.1502C11.0144 8.1359 10.8842 8.07897 10.7882 7.97764C10.6922 7.87631 10.6383 7.73888 10.6383 7.59559V1.3722C10.6383 0.909075 10.2859 0.537384 9.84744 0.537384H7.82666C7.38791 0.537384 7.03579 0.909372 7.03579 1.3722V7.55373C7.03579 7.87643 6.78997 8.1362 6.48397 8.1362L4.62941 8.14332C4.32369 8.14332 4.07113 7.88385 4.0776 7.56085L4.09081 1.37249C4.09081 0.909365 3.73841 0.537683 3.29994 0.537683H1.27916C0.84041 0.537683 0.488281 0.909662 0.488281 1.37249V18.7937C0.488281 19.2004 0.80047 19.5374 1.19281 19.5374H16.8067C17.192 19.5374 17.5112 19.2079 17.5112 18.7937V8.87927C17.5118 8.78145 17.4939 8.68448 17.4587 8.59399C17.4235 8.50349 17.3716 8.42128 17.3061 8.35211C17.2406 8.28293 17.1627 8.22818 17.077 8.19101C16.9912 8.15385 16.8994 8.13501 16.8067 8.1356L16.807 8.1359ZM14.1548 14.6752C14.1541 14.9318 14.0572 15.1776 13.8853 15.359C13.7134 15.5405 13.4804 15.6426 13.2373 15.6433H11.6421C11.3991 15.6426 11.1662 15.5403 10.9943 15.3589C10.8224 15.1775 10.7256 14.9317 10.7249 14.6752V12.9913C10.7256 12.7348 10.8224 12.4889 10.9943 12.3075C11.1662 12.1261 11.3991 12.0239 11.6421 12.0232H13.2373C13.4804 12.0238 13.7134 12.126 13.8853 12.3074C14.0572 12.4888 14.1541 12.7347 14.1548 12.9913V14.6752Z" fill="#FF6600"/>
</g>
<defs>
<clipPath id="clip0_526_23340">
<rect width="18" height="19" fill="white" transform="translate(0 0.537079)"/>
</clipPath>
</defs>
</svg>
