<svg width="24" height="26" viewBox="0 0 24 26" fill="none" xmlns="http://www.w3.org/2000/svg">
<g clip-path="url(#clip0_532_24607)">
<path d="M3.27057 25.2199C3.27057 25.2199 3.30582 19.4508 3.30582 13.5863C3.30582 2.22712 2.38688 1.38103 7.2797 1.38103H20.8988V17.7656C20.8988 23.1592 21.8666 25.272 16.4252 25.272C10.9838 25.2722 3.27057 25.2199 3.27057 25.2199Z" fill="#A62C39"/>
<path d="M14.4995 3.524C14.4995 3.524 15.3723 3.70603 16.1285 5.03904C16.8849 6.37225 20.8993 16.7355 20.8993 16.7355V8.3115L17.1759 2.00877L18.2231 3.34216L20.2012 1.64509L17.6413 1.46346L14.4995 3.524Z" fill="url(#paint0_linear_532_24607)"/>
<path opacity="0.668" d="M6.76172 1.524C6.76172 1.524 12.5215 5.52381 15.3142 6.3117C17.2166 6.84994 19.1171 7.39539 21.0157 7.94802L14.3832 24.9168L17.234 25.0381L20.9577 15.4627L20.8411 1.46346L6.76172 1.524Z" fill="url(#paint1_radial_532_24607)"/>
<path d="M12.1139 19.4019L18.1057 25.4045L6.93609 25.1592C6.93609 25.1592 6.58715 21.4625 6.7034 19.5232L7.40146 17.584L12.1139 19.4019Z" fill="white" fill-opacity="0.44"/>
<path d="M17.6412 25.2806L12.2307 19.4627L7.28536 17.5234L3.44554 8.61482L7.51823 1.52419L4.78373 1.4029L3.67823 2.49392L3.27098 3.34236L2.97998 25.4019L17.6412 25.2806Z" fill="black" fill-opacity="0.362"/>
<path opacity="0.5" d="M20.9573 16.0082C20.9573 16.0082 15.4885 17.8263 12.2305 19.5232C8.97249 21.2201 7.22705 25.341 7.22705 25.341C7.22705 25.341 14.2084 24.9775 16.8265 25.0986C19.4446 25.2199 20.6663 25.2199 20.899 21.4019C21.1317 17.584 20.9573 16.0082 20.9573 16.0082Z" fill="#83222D"/>
<path d="M4.95654 19.6277V23.207H5.83292V22.2748L6.63054 23.1056H7.97529L6.90879 21.9947C6.90879 21.9947 7.67623 21.9816 7.73417 20.826C7.73417 19.7654 6.96598 19.6279 6.07854 19.6279L4.95654 19.6277ZM5.87473 20.5986H6.63054V21.2363H5.87473V20.5986ZM9.66786 19.6422C9.18804 19.6392 8.5226 19.6857 8.5226 20.6275V23.1152H9.42204V22.5066H10.2939V23.1008H11.198V20.4926C11.198 19.6744 10.3254 19.6424 9.85798 19.6424L9.66786 19.6422ZM9.43592 20.5406H10.2799V21.5213H9.43592V20.5406ZM12.0995 19.6443H13.0303V23.0683H12.0995V19.6443ZM14.0047 19.69V23.114H16.2448V22.2051H14.9212V19.6748L14.0047 19.69ZM19.2118 19.6595V20.5838H17.7137V20.9172H18.3536C18.6883 20.9172 19.3864 20.9021 19.3864 21.9929C19.3864 23.0838 18.9062 23.1445 17.9317 23.1445H16.7537V22.3111H18.1063C18.5135 22.3111 18.536 22.1728 18.536 22.0525C18.536 21.9324 18.3279 21.8763 17.9044 21.8763C17.4808 21.8763 16.6955 21.6595 16.6955 20.8111C16.6955 19.9627 17.1028 19.6445 17.9173 19.6445C18.732 19.6443 19.2118 19.6595 19.2118 19.6595Z" fill="white"/>
<path d="M5.77253 18.6142H13.5105C13.5105 18.6142 11.7941 14.5539 12.2306 10.8265C12.6667 7.09958 15.4886 5.40251 17.0885 5.22068C18.6885 5.03884 19.5611 6.06912 19.5611 6.06912L19.91 5.5238C19.91 5.5238 17.612 3.09958 14.703 3.37244C11.7941 3.6449 9.7869 5.6449 8.53609 8.06892C7.28528 10.4931 6.55797 12.1902 6.06334 14.7353C5.5689 17.2808 5.77253 18.6142 5.77253 18.6142ZM4.2309 14.5539L5.74328 14.675L5.48153 16.2508L4.05615 16.0689L4.2309 14.5539ZM6.61609 11.2205L7.02334 10.0388L5.68515 9.49333L5.24884 10.766L6.61609 11.2205ZM8.50684 7.16013L9.29228 6.1904L8.27415 5.49353L7.45984 6.43298L8.50684 7.16013ZM10.5722 3.4029L11.2704 4.28162L12.2304 3.70603L11.5322 2.88787L10.5722 3.4029ZM13.9758 2.4029L14.1502 3.28162L15.3429 3.25134L15.2267 2.46345L13.9758 2.4029Z" fill="white"/>
<path d="M18.0189 3.34216L17.9898 3.88748L18.8041 4.34216L18.9787 4.06951L18.0189 3.34216ZM17.8445 5.67537V6.12986L18.6299 6.22068V5.8572L17.8445 5.67537ZM15.3427 6.06912L15.7209 6.79646L16.2736 6.34197L16.1572 5.8572L15.3427 6.06912ZM14.15 7.00857L14.7318 7.91775L14.3827 8.55388L13.5391 7.58416L14.15 7.00857ZM12.9864 9.5238L12.6082 10.3115L13.5972 11.1904L13.8299 10.1902L12.9864 9.5238ZM12.5791 12.281L12.521 13.3416L13.7427 13.8869L13.6844 12.8871L12.5791 12.281ZM12.9282 16.0385L13.2192 17.1295L14.7611 17.2203L14.2081 16.0385H12.9282Z" fill="white"/>
<path d="M3.27057 25.2199C3.27057 25.2199 3.30582 19.4508 3.30582 13.5863C3.30582 2.22712 2.38688 1.38103 7.2797 1.38103H20.8988V17.7656C20.8988 23.1592 21.6339 25.272 16.4252 25.272C11.2164 25.2722 3.27057 25.2199 3.27057 25.2199Z" stroke="#5E000E"/>
</g>
<defs>
<linearGradient id="paint0_linear_532_24607" x1="16.3859" y1="10.6732" x2="20.6794" y2="8.51421" gradientUnits="userSpaceOnUse">
<stop stop-color="white"/>
<stop offset="1" stop-color="#C0815E"/>
</linearGradient>
<radialGradient id="paint1_radial_532_24607" cx="0" cy="0" r="1" gradientUnits="userSpaceOnUse" gradientTransform="translate(13.8886 13.1526) scale(7.20112 11.8669)">
<stop stop-color="white"/>
<stop offset="1" stop-color="#A94436"/>
</radialGradient>
<clipPath id="clip0_532_24607">
<rect width="24" height="25" fill="white" transform="translate(0 0.795288)"/>
</clipPath>
</defs>
</svg>
