<svg width="23" height="24" viewBox="0 0 23 24" fill="none" xmlns="http://www.w3.org/2000/svg">
<g clip-path="url(#clip0_509_24909)">
<path d="M11.5002 10.4502C12.4231 10.4502 13.1713 9.70198 13.1713 8.77906C13.1713 7.85615 12.4231 7.10797 11.5002 7.10797C10.5773 7.10797 9.8291 7.85615 9.8291 8.77906C9.8291 9.70198 10.5773 10.4502 11.5002 10.4502Z" fill="#61DAFB"/>
<path d="M11.5001 14.9244C12.8118 16.2002 14.1056 16.9548 15.1478 16.9548C15.4892 16.9548 15.8126 16.883 16.0821 16.7212C17.0165 16.1822 17.3579 14.8345 17.0345 12.9119C16.9806 12.5705 16.9087 12.2291 16.8188 11.8697C17.1782 11.7619 17.5017 11.6541 17.8251 11.5462C19.6399 10.8455 20.6462 9.87515 20.6462 8.815C20.6462 7.73687 19.6399 6.76656 17.8251 6.08375C17.5017 5.95796 17.1782 5.85015 16.8188 5.76031C16.9087 5.40093 16.9806 5.05953 17.0345 4.71812C17.3399 2.75953 16.9985 1.3939 16.0642 0.85484C15.7946 0.693121 15.4712 0.621246 15.1298 0.621246C14.1056 0.621246 12.7938 1.37593 11.4821 2.65172C10.1884 1.37593 8.89463 0.621246 7.85244 0.621246C7.51104 0.621246 7.1876 0.693121 6.91807 0.85484C5.98369 1.3939 5.64229 2.74156 5.96572 4.66422C6.01963 5.00562 6.0915 5.34703 6.18135 5.7064C5.82197 5.81422 5.49853 5.92203 5.1751 6.02984C3.36025 6.73062 2.354 7.70093 2.354 8.76109C2.354 9.83922 3.36025 10.8095 5.1751 11.4923C5.49853 11.6181 5.82197 11.7259 6.18135 11.8158C6.0915 12.1752 6.01963 12.5166 5.96572 12.858C5.66025 14.7806 6.00166 16.1462 6.91807 16.6673C7.1876 16.8291 7.51104 16.9009 7.85244 16.9009C8.89463 16.9369 10.1884 16.1822 11.5001 14.9244ZM10.4938 12.4986C10.8173 12.5166 11.1587 12.5166 11.5001 12.5166C11.8415 12.5166 12.1829 12.5166 12.5063 12.4986C12.1829 12.9298 11.8415 13.3252 11.5001 13.7025C11.1587 13.3252 10.8173 12.9298 10.4938 12.4986ZM8.26572 10.6478C8.44541 10.9533 8.60713 11.2408 8.80479 11.5283C8.24775 11.4564 7.72666 11.3666 7.22354 11.2587C7.38525 10.7736 7.56494 10.2705 7.78057 9.76734C7.92432 10.0548 8.08604 10.3603 8.26572 10.6478ZM7.22354 6.31734C7.72666 6.20953 8.24775 6.11968 8.80479 6.04781C8.6251 6.33531 8.44541 6.62281 8.26572 6.92828C8.08604 7.23375 7.92432 7.52125 7.78057 7.82672C7.54697 7.30562 7.36729 6.8025 7.22354 6.31734ZM8.21182 8.77906C8.44541 8.2939 8.69697 7.80875 8.98447 7.32359C9.254 6.8564 9.55947 6.38921 9.86494 5.92203C10.404 5.88609 10.9431 5.86812 11.5001 5.86812C12.0751 5.86812 12.6142 5.88609 13.1353 5.92203C13.4587 6.38921 13.7462 6.8564 14.0157 7.32359C14.3032 7.80875 14.5548 8.2939 14.7884 8.77906C14.5548 9.26422 14.3032 9.74937 14.0157 10.2345C13.7462 10.7017 13.4407 11.1689 13.1353 11.6361C12.5962 11.672 12.0571 11.69 11.5001 11.69C10.9251 11.69 10.386 11.672 9.86494 11.6361C9.5415 11.1689 9.254 10.7017 8.98447 10.2345C8.69697 9.74937 8.44541 9.26422 8.21182 8.77906ZM15.2376 7.80875L14.7524 6.91031C14.5728 6.60484 14.411 6.31734 14.2134 6.02984C14.7704 6.10172 15.2915 6.19156 15.7946 6.29937C15.6329 6.8025 15.4532 7.30562 15.2376 7.80875ZM15.2376 9.74937C15.4532 10.2525 15.6329 10.7556 15.7946 11.2408C15.2915 11.3486 14.7704 11.4384 14.2134 11.5103C14.3931 11.2228 14.5728 10.9353 14.7524 10.6298C14.9142 10.3603 15.0759 10.0548 15.2376 9.74937ZM15.6509 15.9845C15.5071 16.0744 15.3274 16.1103 15.1298 16.1103C14.2493 16.1103 13.1532 15.3916 12.0751 14.3134C12.5962 13.7564 13.0993 13.1275 13.6024 12.4267C14.447 12.3548 15.2556 12.2291 16.0103 12.0494C16.1001 12.3728 16.154 12.6962 16.2079 13.0197C16.4595 14.547 16.2618 15.6431 15.6509 15.9845ZM16.5853 6.515C18.5978 7.09 19.8017 7.97047 19.8017 8.77906C19.8017 9.47984 18.9751 10.1806 17.5196 10.7377C17.2321 10.8455 16.9087 10.9533 16.5853 11.0431C16.3517 10.3064 16.0642 9.55172 15.7048 8.77906C16.0642 8.0064 16.3696 7.25172 16.5853 6.515ZM15.1478 1.44781C15.3454 1.44781 15.5071 1.48375 15.6688 1.57359C16.2618 1.915 16.4774 2.99312 16.2259 4.53843C16.172 4.8439 16.1001 5.16734 16.0282 5.50875C15.2735 5.34703 14.4649 5.22125 13.6204 5.1314C13.1353 4.43062 12.6142 3.80172 12.0931 3.24468C13.1712 2.18453 14.2673 1.44781 15.1478 1.44781ZM12.5063 5.05953C12.1829 5.04156 11.8415 5.04156 11.5001 5.04156C11.1587 5.04156 10.8173 5.04156 10.4938 5.05953C10.8173 4.62828 11.1587 4.23296 11.5001 3.85562C11.8415 4.23296 12.1829 4.64625 12.5063 5.05953ZM7.34932 1.57359C7.49307 1.48375 7.67275 1.44781 7.87041 1.44781C8.75088 1.44781 9.84697 2.16656 10.9251 3.24468C10.404 3.80172 9.90088 4.43062 9.39775 5.1314C8.55322 5.20328 7.74463 5.32906 6.98994 5.50875C6.9001 5.18531 6.84619 4.86187 6.79228 4.53843C6.54072 3.01109 6.73838 1.93297 7.34932 1.57359ZM6.41494 11.0431C4.40244 10.4681 3.19853 9.58765 3.19853 8.77906C3.19853 8.07828 4.0251 7.3775 5.48057 6.82047C5.76807 6.71265 6.0915 6.60484 6.41494 6.515C6.64854 7.25172 6.93603 8.0064 7.29541 8.77906C6.93603 9.55172 6.63057 10.3244 6.41494 11.0431ZM6.79228 13.0197C6.84619 12.7142 6.91807 12.3908 6.98994 12.0494C7.74463 12.2111 8.55322 12.3369 9.39775 12.4267C9.88291 13.1275 10.404 13.7564 10.9251 14.3134C9.84697 15.3736 8.75088 16.1103 7.87041 16.1103C7.67275 16.1103 7.51104 16.0744 7.34932 15.9845C6.73838 15.6431 6.54072 14.547 6.79228 13.0197ZM6.0376 20.4228C6.43291 19.9377 6.45088 19.3986 6.23525 18.8595C6.01963 18.3205 5.57041 18.0689 5.01338 18.0509C4.34854 18.033 3.66572 18.0509 3.00088 18.0509H2.8751V22.7048H3.41416V20.9439H4.25869C4.3665 20.9439 4.45635 20.9798 4.51025 21.0697L5.58838 22.7408C5.60635 22.7767 5.66025 22.8306 5.69619 22.8306H6.39697C5.96572 22.1658 5.55244 21.5369 5.12119 20.89C5.49854 20.8361 5.82197 20.7103 6.0376 20.4228ZM3.41416 20.3869V18.608H3.61182C4.0251 18.608 4.45635 18.59 4.86963 18.6259C5.35479 18.6439 5.69619 19.0212 5.69619 19.5064C5.69619 19.9916 5.30088 20.3689 4.81572 20.3869C4.38447 20.4048 3.95322 20.3869 3.41416 20.3869ZM10.3681 20.6205C10.0806 19.3627 8.93057 19.0392 8.0501 19.4345C7.36728 19.74 7.06182 20.333 7.04385 21.0697C7.02588 21.6267 7.1876 22.1298 7.61885 22.5072C8.104 22.9384 8.69697 22.9923 9.30791 22.8845C9.64932 22.8127 9.95478 22.6509 10.1884 22.3994C10.0985 22.2736 10.0087 22.1478 9.91885 22.04C9.41572 22.4712 8.85869 22.615 8.24775 22.3275C7.85244 22.1298 7.65479 21.6447 7.61885 21.2853H10.404V21.0517C10.422 20.89 10.404 20.7462 10.3681 20.6205ZM7.65478 20.908C7.60088 20.3689 8.13994 19.7939 8.73291 19.7939C9.41572 19.7759 9.84697 20.1892 9.86494 20.908H7.65478ZM13.1712 19.3447C12.9017 19.2908 12.6142 19.2728 12.3446 19.2908C11.9134 19.3267 11.536 19.5244 11.2306 19.8478C11.3204 19.9736 11.3923 20.0994 11.5001 20.2431C11.536 20.2072 11.572 20.1712 11.6079 20.1533C11.8954 19.8837 12.2368 19.74 12.6501 19.7759C12.9735 19.7939 13.279 19.9017 13.3688 20.2252C13.4407 20.4767 13.4228 20.7462 13.4407 21.0158C13.3868 21.0158 13.3688 20.9978 13.3509 20.9798C12.9196 20.6205 12.4345 20.5486 11.9134 20.6744C11.4282 20.8002 11.1228 21.1775 11.0868 21.6627C11.0509 22.2197 11.3024 22.633 11.7876 22.8306C12.0931 22.9564 12.4345 22.9564 12.7579 22.8845C13.0095 22.8306 13.1173 22.6869 13.4767 22.4892V22.7228H13.9798C13.9798 22.0041 13.9978 21.1236 13.9798 20.297C13.9798 19.7759 13.6743 19.4525 13.1712 19.3447ZM13.4228 21.6087C13.4048 21.6627 13.4228 21.7166 13.4228 21.7705C13.4228 22.1478 13.3329 22.2736 12.9735 22.4173C12.722 22.5072 12.4524 22.5431 12.1829 22.4533C11.8774 22.3634 11.6618 22.0939 11.6618 21.7884C11.6438 21.483 11.8415 21.1775 12.147 21.0877C12.5603 20.9439 12.9376 21.0337 13.279 21.2853C13.3868 21.3752 13.4587 21.465 13.4228 21.6087ZM16.2259 19.8298C16.6931 19.6861 17.1243 19.7759 17.4478 20.1712L17.5017 20.2072C17.6274 20.0994 17.7353 19.9916 17.879 19.8658C17.8251 19.8119 17.8071 19.7759 17.7712 19.722C17.2501 19.165 16.2259 19.0931 15.597 19.5423C14.7165 20.1892 14.7345 21.447 15.1657 22.1119C15.579 22.7408 16.172 22.9564 16.8728 22.8666C17.286 22.8127 17.6274 22.615 17.897 22.2736C17.7712 22.1658 17.6454 22.058 17.5196 21.9322C17.4837 21.9681 17.4657 21.9861 17.4478 22.022C16.9626 22.5611 16.154 22.5072 15.7228 21.9322C15.4712 21.5908 15.4173 21.1955 15.4892 20.8002C15.5251 20.3509 15.7587 19.9916 16.2259 19.8298ZM19.9634 22.2736C19.9274 22.2916 19.9095 22.3095 19.9095 22.3095C19.7657 22.4173 19.622 22.4353 19.4603 22.3814C19.2985 22.3095 19.2806 22.1658 19.2626 22.022V19.9736C19.2626 19.9377 19.2626 20.0095 19.2806 19.8298H19.9634V19.2908H19.2446V18.3923H18.7056V19.3627H18.2384C18.2024 19.3627 18.1485 19.3986 18.1485 19.4345C18.1306 19.5603 18.1485 19.6502 18.1485 19.8298H18.7235V22.1298C18.7235 22.4173 18.7954 22.6689 19.047 22.8127C19.3165 22.9744 19.8376 22.9384 20.0712 22.7408C20.1071 22.7228 20.1251 22.6509 20.1251 22.633C20.0712 22.5252 20.0173 22.3994 19.9634 22.2736Z" fill="#61DAFB"/>
</g>
<defs>
<clipPath id="clip0_509_24909">
<rect width="23" height="23" fill="white" transform="translate(0 0.243896)"/>
</clipPath>
</defs>
</svg>
