<svg width="24" height="24" viewBox="0 0 24 24" fill="none" xmlns="http://www.w3.org/2000/svg">
<g clip-path="url(#clip0_551_36818)">
<path d="M11.7707 10.9573C12.6936 10.9573 13.4418 10.2091 13.4418 9.28618C13.4418 8.36326 12.6936 7.61508 11.7707 7.61508C10.8478 7.61508 10.0996 8.36326 10.0996 9.28618C10.0996 10.2091 10.8478 10.9573 11.7707 10.9573Z" fill="#61DAFB"/>
<path d="M11.7706 15.4315C13.0823 16.7073 14.3761 17.462 15.4183 17.462C15.7597 17.462 16.0831 17.3901 16.3526 17.2284C17.287 16.6893 17.6284 15.3416 17.305 13.419C17.2511 13.0776 17.1792 12.7362 17.0894 12.3768C17.4487 12.269 17.7722 12.1612 18.0956 12.0534C19.9104 11.3526 20.9167 10.3823 20.9167 9.32211C20.9167 8.24398 19.9104 7.27367 18.0956 6.59086C17.7722 6.46508 17.4487 6.35726 17.0894 6.26742C17.1792 5.90804 17.2511 5.56664 17.305 5.22523C17.6104 3.26664 17.269 1.90101 16.3347 1.36195C16.0651 1.20023 15.7417 1.12836 15.4003 1.12836C14.3761 1.12836 13.0644 1.88304 11.7526 3.15883C10.4589 1.88304 9.16514 1.12836 8.12295 1.12836C7.78154 1.12836 7.45811 1.20023 7.18857 1.36195C6.2542 1.90101 5.91279 3.24867 6.23623 5.17133C6.29014 5.51273 6.36201 5.85414 6.45186 6.21351C6.09248 6.32133 5.76904 6.42914 5.44561 6.53695C3.63076 7.23773 2.62451 8.20805 2.62451 9.2682C2.62451 10.3463 3.63076 11.3166 5.44561 11.9995C5.76904 12.1252 6.09248 12.233 6.45186 12.3229C6.36201 12.6823 6.29014 13.0237 6.23623 13.3651C5.93076 15.2877 6.27217 16.6534 7.18857 17.1745C7.45811 17.3362 7.78154 17.408 8.12295 17.408C9.16514 17.444 10.4589 16.6893 11.7706 15.4315ZM10.7644 13.0057C11.0878 13.0237 11.4292 13.0237 11.7706 13.0237C12.112 13.0237 12.4534 13.0237 12.7769 13.0057C12.4534 13.437 12.112 13.8323 11.7706 14.2096C11.4292 13.8323 11.0878 13.437 10.7644 13.0057ZM8.53623 11.1549C8.71592 11.4604 8.87764 11.7479 9.07529 12.0354C8.51826 11.9635 7.99717 11.8737 7.49404 11.7659C7.65576 11.2807 7.83545 10.7776 8.05107 10.2745C8.19482 10.562 8.35654 10.8674 8.53623 11.1549ZM7.49404 6.82445C7.99717 6.71664 8.51826 6.62679 9.07529 6.55492C8.89561 6.84242 8.71592 7.12992 8.53623 7.43539C8.35654 7.74086 8.19482 8.02836 8.05107 8.33383C7.81748 7.81273 7.63779 7.30961 7.49404 6.82445ZM8.48232 9.28617C8.71592 8.80101 8.96748 8.31586 9.25498 7.8307C9.52451 7.36351 9.82998 6.89633 10.1354 6.42914C10.6745 6.3932 11.2136 6.37523 11.7706 6.37523C12.3456 6.37523 12.8847 6.3932 13.4058 6.42914C13.7292 6.89633 14.0167 7.36351 14.2862 7.8307C14.5737 8.31586 14.8253 8.80101 15.0589 9.28617C14.8253 9.77133 14.5737 10.2565 14.2862 10.7416C14.0167 11.2088 13.7112 11.676 13.4058 12.1432C12.8667 12.1791 12.3276 12.1971 11.7706 12.1971C11.1956 12.1971 10.6565 12.1791 10.1354 12.1432C9.81201 11.676 9.52451 11.2088 9.25498 10.7416C8.96748 10.2565 8.71592 9.77133 8.48232 9.28617ZM15.5081 8.31586L15.0229 7.41742C14.8433 7.11195 14.6815 6.82445 14.4839 6.53695C15.0409 6.60883 15.562 6.69867 16.0651 6.80648C15.9034 7.30961 15.7237 7.81273 15.5081 8.31586ZM15.5081 10.2565C15.7237 10.7596 15.9034 11.2627 16.0651 11.7479C15.562 11.8557 15.0409 11.9455 14.4839 12.0174C14.6636 11.7299 14.8433 11.4424 15.0229 11.137C15.1847 10.8674 15.3464 10.562 15.5081 10.2565ZM15.9214 16.4916C15.7776 16.5815 15.5979 16.6174 15.4003 16.6174C14.5198 16.6174 13.4237 15.8987 12.3456 14.8205C12.8667 14.2635 13.3698 13.6346 13.8729 12.9338C14.7175 12.862 15.5261 12.7362 16.2808 12.5565C16.3706 12.8799 16.4245 13.2034 16.4784 13.5268C16.73 15.0541 16.5323 16.1502 15.9214 16.4916ZM16.8558 7.02211C18.8683 7.59711 20.0722 8.47758 20.0722 9.28617C20.0722 9.98695 19.2456 10.6877 17.7901 11.2448C17.5026 11.3526 17.1792 11.4604 16.8558 11.5502C16.6222 10.8135 16.3347 10.0588 15.9753 9.28617C16.3347 8.51351 16.6401 7.75883 16.8558 7.02211ZM15.4183 1.95492C15.6159 1.95492 15.7776 1.99086 15.9394 2.0807C16.5323 2.42211 16.7479 3.50023 16.4964 5.04554C16.4425 5.35101 16.3706 5.67445 16.2987 6.01586C15.544 5.85414 14.7354 5.72836 13.8909 5.63851C13.4058 4.93773 12.8847 4.30883 12.3636 3.75179C13.4417 2.69164 14.5378 1.95492 15.4183 1.95492ZM12.7769 5.56664C12.4534 5.54867 12.112 5.54867 11.7706 5.54867C11.4292 5.54867 11.0878 5.54867 10.7644 5.56664C11.0878 5.13539 11.4292 4.74008 11.7706 4.36273C12.112 4.74008 12.4534 5.15336 12.7769 5.56664ZM7.61982 2.0807C7.76357 1.99086 7.94326 1.95492 8.14092 1.95492C9.02139 1.95492 10.1175 2.67367 11.1956 3.75179C10.6745 4.30883 10.1714 4.93773 9.66826 5.63851C8.82373 5.71039 8.01514 5.83617 7.26045 6.01586C7.17061 5.69242 7.1167 5.36898 7.06279 5.04554C6.81123 3.5182 7.00889 2.44008 7.61982 2.0807ZM6.68545 11.5502C4.67295 10.9752 3.46904 10.0948 3.46904 9.28617C3.46904 8.58539 4.29561 7.88461 5.75107 7.32758C6.03857 7.21976 6.36201 7.11195 6.68545 7.02211C6.91904 7.75883 7.20654 8.51351 7.56592 9.28617C7.20654 10.0588 6.90107 10.8315 6.68545 11.5502ZM7.06279 13.5268C7.1167 13.2213 7.18857 12.8979 7.26045 12.5565C8.01514 12.7182 8.82373 12.844 9.66826 12.9338C10.1534 13.6346 10.6745 14.2635 11.1956 14.8205C10.1175 15.8807 9.02139 16.6174 8.14092 16.6174C7.94326 16.6174 7.78154 16.5815 7.61982 16.4916C7.00889 16.1502 6.81123 15.0541 7.06279 13.5268ZM6.30811 20.9299C6.70342 20.4448 6.72139 19.9057 6.50576 19.3666C6.29014 18.8276 5.84092 18.576 5.28389 18.558C4.61904 18.5401 3.93623 18.558 3.27139 18.558H3.14561V23.212H3.68467V21.451H4.5292C4.63701 21.451 4.72686 21.487 4.78076 21.5768L5.85889 23.2479C5.87686 23.2838 5.93076 23.3377 5.9667 23.3377H6.66748C6.23623 22.6729 5.82295 22.044 5.3917 21.3971C5.76904 21.3432 6.09248 21.2174 6.30811 20.9299ZM3.68467 20.894V19.1151H3.88232C4.29561 19.1151 4.72686 19.0971 5.14014 19.133C5.62529 19.151 5.9667 19.5284 5.9667 20.0135C5.9667 20.4987 5.57139 20.876 5.08623 20.894C4.65498 20.912 4.22373 20.894 3.68467 20.894ZM10.6386 21.1276C10.3511 19.8698 9.20107 19.5463 8.32061 19.9416C7.63779 20.2471 7.33232 20.8401 7.31436 21.5768C7.29639 22.1338 7.45811 22.637 7.88936 23.0143C8.37451 23.4455 8.96748 23.4995 9.57842 23.3916C9.91982 23.3198 10.2253 23.158 10.4589 22.9065C10.369 22.7807 10.2792 22.6549 10.1894 22.5471C9.68623 22.9784 9.1292 23.1221 8.51826 22.8346C8.12295 22.637 7.92529 22.1518 7.88936 21.7924H10.6745V21.5588C10.6925 21.3971 10.6745 21.2534 10.6386 21.1276ZM7.92529 21.4151C7.87139 20.876 8.41045 20.301 9.00342 20.301C9.68623 20.283 10.1175 20.6963 10.1354 21.4151H7.92529ZM13.4417 19.8518C13.1722 19.7979 12.8847 19.7799 12.6151 19.7979C12.1839 19.8338 11.8065 20.0315 11.5011 20.3549C11.5909 20.4807 11.6628 20.6065 11.7706 20.7502C11.8065 20.7143 11.8425 20.6784 11.8784 20.6604C12.1659 20.3909 12.5073 20.2471 12.9206 20.283C13.244 20.301 13.5495 20.4088 13.6394 20.7323C13.7112 20.9838 13.6933 21.2534 13.7112 21.5229C13.6573 21.5229 13.6394 21.5049 13.6214 21.487C13.1901 21.1276 12.705 21.0557 12.1839 21.1815C11.6987 21.3073 11.3933 21.6846 11.3573 22.1698C11.3214 22.7268 11.5729 23.1401 12.0581 23.3377C12.3636 23.4635 12.705 23.4635 13.0284 23.3916C13.28 23.3377 13.3878 23.194 13.7472 22.9963V23.2299H14.2503C14.2503 22.5112 14.2683 21.6307 14.2503 20.8041C14.2503 20.283 13.9448 19.9596 13.4417 19.8518ZM13.6933 22.1159C13.6753 22.1698 13.6933 22.2237 13.6933 22.2776C13.6933 22.6549 13.6034 22.7807 13.244 22.9245C12.9925 23.0143 12.7229 23.0502 12.4534 22.9604C12.148 22.8705 11.9323 22.601 11.9323 22.2955C11.9144 21.9901 12.112 21.6846 12.4175 21.5948C12.8308 21.451 13.2081 21.5409 13.5495 21.7924C13.6573 21.8823 13.7292 21.9721 13.6933 22.1159ZM16.4964 20.337C16.9636 20.1932 17.3948 20.283 17.7183 20.6784L17.7722 20.7143C17.898 20.6065 18.0058 20.4987 18.1495 20.3729C18.0956 20.319 18.0776 20.283 18.0417 20.2291C17.5206 19.6721 16.4964 19.6002 15.8675 20.0495C14.987 20.6963 15.005 21.9541 15.4362 22.619C15.8495 23.2479 16.4425 23.4635 17.1433 23.3737C17.5565 23.3198 17.8979 23.1221 18.1675 22.7807C18.0417 22.6729 17.9159 22.5651 17.7901 22.4393C17.7542 22.4752 17.7362 22.4932 17.7183 22.5291C17.2331 23.0682 16.4245 23.0143 15.9933 22.4393C15.7417 22.0979 15.6878 21.7026 15.7597 21.3073C15.7956 20.858 16.0292 20.4987 16.4964 20.337ZM20.2339 22.7807C20.1979 22.7987 20.18 22.8166 20.18 22.8166C20.0362 22.9245 19.8925 22.9424 19.7308 22.8885C19.569 22.8166 19.5511 22.6729 19.5331 22.5291V20.4807C19.5331 20.4448 19.5331 20.5166 19.5511 20.337H20.2339V19.7979H19.5151V18.8995H18.9761V19.8698H18.5089C18.4729 19.8698 18.419 19.9057 18.419 19.9416C18.4011 20.0674 18.419 20.1573 18.419 20.337H18.994V22.637C18.994 22.9245 19.0659 23.176 19.3175 23.3198C19.587 23.4815 20.1081 23.4455 20.3417 23.2479C20.3776 23.2299 20.3956 23.158 20.3956 23.1401C20.3417 23.0323 20.2878 22.9065 20.2339 22.7807Z" fill="#61DAFB"/>
</g>
<defs>
<clipPath id="clip0_551_36818">
<rect width="23" height="23" fill="white" transform="translate(0.270508 0.751007)"/>
</clipPath>
</defs>
</svg>
