<svg width="24" height="24" viewBox="0 0 24 24" fill="none" xmlns="http://www.w3.org/2000/svg">
<g clip-path="url(#clip0_531_23874)">
<path d="M12 23.0434C18.6274 23.0434 24 17.8947 24 11.5434C24 5.19212 18.6274 0.043396 12 0.043396C5.37258 0.043396 0 5.19212 0 11.5434C0 17.8947 5.37258 23.0434 12 23.0434Z" fill="white"/>
<mask id="mask0_531_23874" style="mask-type:luminance" maskUnits="userSpaceOnUse" x="0" y="0" width="24" height="24">
<path d="M12 23.0434C18.6274 23.0434 24 17.8947 24 11.5434C24 5.19212 18.6274 0.043396 12 0.043396C5.37258 0.043396 0 5.19212 0 11.5434C0 17.8947 5.37258 23.0434 12 23.0434Z" fill="white"/>
</mask>
<g mask="url(#mask0_531_23874)">
<path d="M17.2114 1.07487C15.633 0.355883 13.8671 -0.0464478 12.0032 -0.0464478C8.75157 -0.0464478 5.79836 1.17794 3.61818 3.17188C1.30029 5.29176 21.314 2.94364 17.2114 1.07487Z" fill="#FCC397"/>
<path d="M21.5064 4.33134C21.5203 4.34796 20.5157 5.63471 17.4964 6.00001C11.4021 6.73734 0.939326 6.8153 0.955096 6.78209C1.60234 5.41914 2.5158 4.19682 3.63181 3.17615C4.94675 3.56959 6.378 3.66764 7.7318 3.42855C9.96717 3.03664 11.956 1.79882 14.1671 1.29439C15.1485 1.06843 16.2178 1.00243 17.2248 1.07909C18.8982 1.8413 20.3609 2.95941 21.5064 4.33134Z" fill="#FC9F95"/>
<path d="M23.9964 9.77735C24.0041 9.82424 10.2539 11.0629 3.55442 10.7019C1.37166 10.5842 0.083497 9.31952 0.0982702 9.25046C0.282372 8.38995 0.565557 7.56404 0.9359 6.78419C2.8714 5.76892 5.14851 5.18301 7.35655 5.20613C10.1255 5.23329 12.8419 6.118 15.6109 6.05203C17.6672 6.00191 19.7399 5.37294 21.4872 4.33344C22.7749 5.87567 23.6617 7.73865 23.9964 9.77735Z" fill="#F77C88"/>
<path d="M24.1061 11.5353C24.1061 11.5998 24.1044 11.7285 24.1044 11.7285C24.1044 11.7285 20.2853 12.6516 15.3667 12.5965C8.47755 12.5194 -0.187672 11.4545 -0.1875 11.4349C-0.180693 10.6626 -0.0953939 9.90814 0.061126 9.17861C1.71167 10.1546 3.71337 10.6326 5.63998 10.4314C7.172 10.2723 8.62722 9.72907 10.0461 9.15091C11.4649 8.57274 12.8756 7.95189 14.3753 7.61819C16.5784 7.12927 18.935 7.3 21.041 8.09547C22.0656 8.48267 23.0821 9.03933 23.9577 9.71059C24.0554 10.3051 24.1061 10.9145 24.1061 11.5353Z" fill="#F25192"/>
<path d="M10.3307 15.3184C6.68633 15.9633 0.432116 15.2194 0.416355 15.1734C0.0244769 14.0298 -0.1875 12.8079 -0.1875 11.5387C-0.1875 11.5051 -0.187352 11.4717 -0.187057 11.4382C0.366189 11.0178 1.01242 10.6429 1.64327 10.3516C3.20359 9.626 4.9741 9.32334 6.70015 9.48631C8.40599 9.64928 10.035 10.2546 11.6115 10.9065C12.9397 11.4557 14.2593 12.049 15.6379 12.4589C15.773 12.4991 14.3423 14.6084 10.3307 15.3184Z" fill="#D34CA3"/>
<path d="M23.6829 14.6747C23.4285 15.0865 21.0082 16.474 17.7274 16.7116C13.3835 17.0262 8.25189 15.7679 9.95416 15.1275C12.6342 14.1186 14.9585 12.3065 17.7274 11.5498C19.796 10.982 22.0889 11.0718 24.1195 11.7579C24.1024 12.7666 23.9515 13.744 23.6829 14.6747Z" fill="#9A50A5"/>
<path d="M22.5554 17.3449C20.4579 20.8347 5.24556 21.7098 3.02325 19.3623C1.89202 18.1674 1.01637 16.7461 0.479004 15.1778C2.34715 14.1546 4.53402 13.72 6.636 13.9955C9.35644 14.3525 11.7939 15.8076 14.478 16.3741C16.6447 16.832 18.9407 16.6884 21.0265 15.9667C21.9694 15.6379 22.9043 15.1973 23.731 14.6526C23.4564 15.6045 23.0587 16.5075 22.5554 17.3449Z" fill="#59569E"/>
<path d="M22.5054 17.296C20.4123 20.8019 16.4714 23.1644 11.9547 23.1644C8.38611 23.1644 5.17694 21.6896 2.95459 19.3414C3.32338 19.4765 3.73586 19.5933 4.11391 19.6954C6.22802 20.2541 8.50381 20.2386 10.6058 19.6449C11.9519 19.2647 13.2171 18.6593 14.5389 18.2015C17.0612 17.3298 19.8375 17.0228 22.5054 17.296Z" fill="#39477F"/>
</g>
</g>
<defs>
<clipPath id="clip0_531_23874">
<rect width="24" height="23" fill="white" transform="translate(0 0.043396)"/>
</clipPath>
</defs>
</svg>
