<svg width="23" height="25" viewBox="0 0 23 25" fill="none" xmlns="http://www.w3.org/2000/svg">
<g clip-path="url(#clip0_531_23974)">
<path d="M3.84541 18.7857C3.84541 19.1232 3.57588 19.442 3.2165 19.442C2.94697 19.442 2.71338 19.517 2.49775 19.6857C2.26416 19.8357 2.10244 20.042 1.95869 20.2857C1.67119 20.6795 1.52744 21.1482 1.47354 21.317V23.6607C1.47354 24.017 1.18604 24.317 0.82666 24.317C0.485254 24.317 0.197754 24.017 0.197754 23.6607V18.7857C0.197754 18.4295 0.485254 18.1482 0.82666 18.1482C1.18604 18.1482 1.47354 18.4295 1.47354 18.7857V18.8795C1.54541 18.7857 1.63525 18.692 1.7251 18.6357C2.12041 18.3732 2.62353 18.1482 3.2165 18.1482C3.57588 18.1482 3.84541 18.4295 3.84541 18.7857ZM3.504 21.2232C3.52197 19.5357 4.76182 18.1295 6.39697 18.1295C7.94229 18.1295 9.14619 19.3295 9.254 20.9982V21.0545C9.254 21.0732 9.254 21.1482 9.23604 21.167C9.2001 21.467 8.94853 21.6545 8.6251 21.6545H4.85166C4.90557 21.9357 5.04932 22.2545 5.24697 22.4607C5.49854 22.7607 5.96572 22.9857 6.379 23.0232C6.81025 23.0607 7.31338 22.9482 7.60088 22.7232C7.85244 22.4607 8.3376 22.4795 8.48135 22.6857C8.64307 22.8545 8.75088 23.2295 8.48135 23.492C7.90635 24.0545 7.20557 24.2982 6.36104 24.2982C4.76182 24.2982 3.504 22.892 3.504 21.2232ZM4.77979 20.6232H8.12197C7.99619 20.1357 7.40322 19.4045 6.379 19.3107C5.37275 19.3482 4.8876 20.117 4.77979 20.6232ZM15.2556 23.642C15.2556 23.9982 14.9681 24.317 14.6087 24.317C14.2853 24.317 14.0337 24.0732 13.9798 23.792C13.5306 24.1107 12.9556 24.317 12.3626 24.317C10.7634 24.317 9.4876 22.9107 9.4876 21.242C9.4876 19.5545 10.7634 18.1482 12.3626 18.1482C12.9376 18.1482 13.5126 18.3545 13.9438 18.6732V16.3295C13.9438 15.9732 14.2313 15.6545 14.5907 15.6545C14.9501 15.6545 15.2376 15.9545 15.2376 16.3295V21.242L15.2556 23.642ZM12.3806 19.4795C11.9493 19.4795 11.572 19.667 11.2665 19.9857C10.979 20.2857 10.7993 20.7357 10.7993 21.2232C10.7993 21.692 10.979 22.142 11.2665 22.442C11.554 22.7607 11.9493 22.9482 12.3806 22.9482C12.8118 22.9482 13.1892 22.7607 13.4946 22.442C13.7821 22.142 13.9618 21.692 13.9618 21.2232C13.9618 20.7357 13.7821 20.2857 13.4946 19.9857C13.2071 19.667 12.8298 19.4795 12.3806 19.4795ZM17.5196 16.592C17.5196 16.967 17.2501 17.267 16.8728 17.267C16.5134 17.267 16.2259 16.967 16.2259 16.592V16.3295C16.2259 15.9545 16.5134 15.6545 16.8728 15.6545C17.2321 15.6545 17.5196 15.9545 17.5196 16.3295V16.592ZM17.5196 18.8232V23.642C17.5196 24.017 17.2501 24.317 16.8728 24.317C16.5134 24.317 16.2259 24.017 16.2259 23.642V18.8232C16.2259 18.4295 16.5134 18.1482 16.8728 18.1482C17.2501 18.1482 17.5196 18.4295 17.5196 18.8232ZM18.3282 22.5357C18.5438 22.2357 18.9571 22.1982 19.2087 22.442C19.5142 22.7045 20.0532 23.0045 20.5024 22.9857C20.8259 22.9857 21.1134 22.8732 21.311 22.742C21.4728 22.592 21.5267 22.4795 21.5267 22.367C21.5267 22.3107 21.5087 22.2732 21.4907 22.2357C21.4728 22.1982 21.4368 22.142 21.329 22.0857C21.1673 21.9545 20.8079 21.8232 20.3767 21.7482H20.3587C19.9993 21.6732 19.6399 21.5795 19.3345 21.4295C19.011 21.2607 18.7235 21.0545 18.5259 20.717C18.4001 20.492 18.3282 20.2295 18.3282 19.9482C18.3282 19.3857 18.6337 18.8982 19.029 18.5982C19.4423 18.2982 19.9454 18.1482 20.4845 18.1482C21.2931 18.1482 21.886 18.5607 22.2634 18.8232C22.5509 19.0295 22.6228 19.4232 22.461 19.742C22.2634 20.042 21.886 20.117 21.5806 19.9107C21.2032 19.6482 20.8618 19.4607 20.4845 19.4607C20.197 19.4607 19.9274 19.5545 19.7657 19.6857C19.604 19.7982 19.5681 19.9107 19.5681 19.967C19.5681 20.0232 19.5681 20.0232 19.586 20.0607C19.604 20.0795 19.6399 20.1357 19.7118 20.192C19.8735 20.3045 20.179 20.417 20.5743 20.492L20.5923 20.5107H20.6103C21.0056 20.5857 21.3649 20.6982 21.7063 20.867C22.0298 21.017 22.3532 21.242 22.5509 21.5982C22.6946 21.842 22.7845 22.1232 22.7845 22.4045C22.7845 23.0045 22.461 23.5107 22.0478 23.8295C21.6165 24.1295 21.0954 24.317 20.5024 24.317C19.586 24.2982 18.8673 23.867 18.4001 23.4732C18.1485 23.2295 18.1126 22.817 18.3282 22.5357Z" fill="#636466"/>
<path d="M19.2085 12.242C18.3101 12.7295 13.6921 14.717 12.7038 15.242C11.7155 15.7857 11.1765 15.767 10.4038 15.392C9.61318 14.9982 4.70772 12.9357 3.80928 12.4857C3.36006 12.2607 3.12646 12.0732 3.12646 11.9045V10.142C3.12646 10.142 9.52334 8.67947 10.5655 8.30447C11.6077 7.91072 11.9671 7.91072 12.8296 8.24822C13.7101 8.58572 18.9749 9.57947 19.8374 9.89822V11.642C19.8554 11.8107 19.6577 11.9982 19.2085 12.242Z" fill="#A41E11"/>
<path d="M19.2087 10.4795C18.3102 10.967 13.6922 12.9545 12.704 13.4795C11.7157 14.0232 11.1766 14.0045 10.404 13.6295C9.61334 13.2357 4.70787 11.1732 3.80943 10.7232C2.92896 10.2732 2.911 9.97322 3.7735 9.61697C4.636 9.26072 9.54146 7.25447 10.5657 6.87947C11.6079 6.48572 11.9672 6.48572 12.8297 6.82322C13.7102 7.16072 18.3102 9.07322 19.1727 9.39197C20.0712 9.72947 20.1071 9.99197 19.2087 10.4795Z" fill="#D82C20"/>
<path d="M19.2085 9.37322C18.3101 9.86072 13.6921 11.8482 12.7038 12.3732C11.7155 12.917 11.1765 12.8982 10.4038 12.5232C9.61318 12.1295 4.70772 10.0482 3.80928 9.61697C3.36006 9.39197 3.12646 9.20446 3.12646 9.03571V7.27322C3.12646 7.27322 9.52334 5.81071 10.5655 5.43571C11.6077 5.04196 11.9671 5.04196 12.8296 5.37946C13.7101 5.71696 18.9749 6.71072 19.8374 7.02947V8.77322C19.8554 8.94197 19.6577 9.12947 19.2085 9.37322Z" fill="#A41E11"/>
<path d="M19.2088 7.61072C18.3103 8.09822 13.6923 10.0857 12.7041 10.6107C11.7158 11.1545 11.1767 11.1357 10.4041 10.7607C9.63141 10.367 4.70797 8.30447 3.8275 7.85447C2.94703 7.40447 2.92906 7.10447 3.79156 6.74822C4.65406 6.39197 9.55953 4.38572 10.5838 4.01072C11.6259 3.61697 11.9853 3.61697 12.8478 3.95447C13.7283 4.29197 18.3283 6.20447 19.1908 6.52322C20.0713 6.84197 20.1072 7.12322 19.2088 7.61072Z" fill="#D82C20"/>
<path d="M19.2086 6.39197C18.3102 6.87947 13.6922 8.86697 12.7039 9.39197C11.7156 9.93572 11.1766 9.91697 10.4039 9.54197C9.63125 9.14822 4.70781 7.08572 3.82734 6.63572C3.37812 6.41072 3.14453 6.22322 3.14453 6.05447V4.29197C3.14453 4.29197 9.54141 2.82947 10.5836 2.45447C11.6258 2.06072 11.9852 2.06072 12.8477 2.39822C13.7281 2.73572 18.993 3.72947 19.8555 4.04822V5.79197C19.8555 5.94197 19.6578 6.14822 19.2086 6.39197Z" fill="#A41E11"/>
<path d="M19.2088 4.62947C18.3103 5.11697 13.6923 7.10446 12.7041 7.62946C11.7158 8.17321 11.1767 8.15446 10.4041 7.77946C9.63141 7.38572 4.70797 5.32322 3.8275 4.87321C2.94703 4.42321 2.92906 4.12321 3.79156 3.76696C4.65406 3.41072 9.55953 1.40446 10.5838 1.02946C11.6259 0.635715 11.9853 0.635715 12.8478 0.973215C13.7283 1.31071 18.3283 3.22321 19.1908 3.54196C20.0713 3.86071 20.1072 4.14197 19.2088 4.62947Z" fill="#D82C20"/>
<path d="M13.692 2.92322L12.2365 3.07322L11.9131 3.89822L11.392 2.97947L9.7209 2.82947L10.9607 2.36072L10.6014 1.64822L11.7693 2.11697L12.8654 1.74197L12.56 2.49197L13.692 2.92322ZM11.8232 6.87947L9.12793 5.69822L13.0092 5.07947L11.8232 6.87947Z" fill="white"/>
<path d="M8.08594 5.06071C9.22718 5.06071 10.1523 4.68296 10.1523 4.21696C10.1523 3.75097 9.22718 3.37321 8.08594 3.37321C6.94469 3.37321 6.01953 3.75097 6.01953 4.21696C6.01953 4.68296 6.94469 5.06071 8.08594 5.06071Z" fill="white"/>
<path d="M15.3994 3.14822L17.6994 4.08572L15.3994 5.04197V3.14822Z" fill="#7A0C00"/>
<path d="M12.8657 4.19822L15.3993 3.14822V5.04197L15.1657 5.13572L12.8657 4.19822Z" fill="#AD2115"/>
</g>
<defs>
<clipPath id="clip0_531_23974">
<rect width="23" height="24" fill="white" transform="translate(0 0.485718)"/>
</clipPath>
</defs>
</svg>
