<svg width="30" height="29" viewBox="0 0 30 29" fill="none" xmlns="http://www.w3.org/2000/svg">
<path d="M29.3067 14.168L28.0968 13.4184C28.0866 13.3009 28.0752 13.1834 28.0625 13.0661L29.1022 12.0958C29.1546 12.0477 29.1938 11.987 29.2159 11.9193C29.238 11.8517 29.2424 11.7796 29.2285 11.7098C29.2147 11.64 29.1831 11.5749 29.1368 11.5209C29.0906 11.4669 29.0312 11.4256 28.9644 11.4012L27.6346 10.9039C27.6014 10.7891 27.5669 10.6746 27.531 10.5606L28.3598 9.40833C28.4015 9.35081 28.4277 9.28359 28.4361 9.21307C28.4444 9.14254 28.4346 9.07105 28.4075 9.0054C28.3804 8.93976 28.337 8.88213 28.2813 8.83801C28.2257 8.79389 28.1596 8.76475 28.0895 8.75334L26.6868 8.52541C26.6327 8.4191 26.576 8.31459 26.5183 8.21008L27.1075 6.91723C27.1376 6.85268 27.1506 6.78146 27.1452 6.71045C27.1397 6.63943 27.1161 6.57102 27.0765 6.5118C27.0369 6.45258 26.9828 6.40456 26.9192 6.37237C26.8557 6.34017 26.785 6.3249 26.7138 6.32801L25.2912 6.37756C25.2176 6.2857 25.1425 6.19499 25.066 6.10548L25.393 4.71893C25.4096 4.64982 25.4082 4.57759 25.389 4.50917C25.3697 4.44074 25.3332 4.37842 25.2829 4.32815C25.2326 4.27788 25.1703 4.24136 25.1019 4.22208C25.0334 4.20279 24.9612 4.20139 24.8921 4.21801L23.5065 4.54415C23.4164 4.46847 23.3263 4.39369 23.2335 4.31892L23.283 2.89723C23.2861 2.82608 23.2709 2.75532 23.2387 2.69179C23.2065 2.62826 23.1585 2.57409 23.0992 2.53452C23.04 2.49495 22.9716 2.47131 22.9006 2.46588C22.8296 2.46045 22.7584 2.47341 22.6938 2.50352L21.401 3.09274C21.2965 3.03503 21.1914 2.97857 21.0856 2.92336L20.8577 1.5215C20.8463 1.45147 20.8173 1.38551 20.7733 1.32987C20.7293 1.27424 20.6718 1.23077 20.6062 1.2036C20.5407 1.17643 20.4693 1.16646 20.3989 1.17464C20.3284 1.18281 20.2612 1.20886 20.2036 1.25031L19.0504 2.07918C18.9368 2.04306 18.8226 2.00852 18.708 1.97557L18.2107 0.645783C18.1862 0.579074 18.145 0.519777 18.0909 0.473567C18.0369 0.427358 17.972 0.395781 17.9023 0.381859C17.8326 0.367937 17.7605 0.372136 17.6929 0.394053C17.6252 0.41597 17.5644 0.454872 17.5161 0.507037L16.5458 1.54852C16.4287 1.53591 16.3116 1.5233 16.1935 1.51429L15.4439 0.303424C15.4066 0.243071 15.3545 0.193253 15.2926 0.158704C15.2306 0.124154 15.1608 0.106018 15.0899 0.106018C15.0189 0.106018 14.9492 0.124154 14.8872 0.158704C14.8252 0.193253 14.7731 0.243071 14.7358 0.303424L13.9862 1.51429C13.8691 1.5233 13.7511 1.53591 13.634 1.54852L12.6636 0.507937C12.6151 0.456462 12.5542 0.418161 12.4868 0.396621C12.4194 0.37508 12.3476 0.371005 12.2782 0.384781C12.2088 0.398556 12.144 0.42973 12.0899 0.47538C12.0359 0.52103 11.9943 0.579663 11.969 0.645783L11.4717 1.97557C11.3564 2.00891 11.242 2.04404 11.1293 2.08008L9.97614 1.25031C9.91877 1.20814 9.85149 1.18145 9.78081 1.17284C9.71012 1.16423 9.63841 1.17397 9.57259 1.20113C9.50676 1.2283 9.44905 1.27196 9.40501 1.32792C9.36097 1.38387 9.33209 1.45023 9.32115 1.52059L9.09232 2.92336C8.98691 2.97832 8.8824 3.03508 8.77699 3.09274L7.48504 2.50352C7.42056 2.47346 7.34943 2.4605 7.27849 2.46589C7.20756 2.47128 7.1392 2.49484 7.08001 2.5343C7.02082 2.57376 6.97278 2.62779 6.94052 2.6912C6.90826 2.75461 6.89287 2.82525 6.89582 2.89633L6.94537 4.31982C6.85348 4.39369 6.76248 4.46847 6.67239 4.54505L5.28674 4.21801C5.21767 4.20199 5.14565 4.20381 5.07747 4.2233C5.00928 4.24278 4.94718 4.27928 4.89699 4.32938C4.8468 4.37948 4.81019 4.44152 4.79058 4.50966C4.77098 4.57781 4.76903 4.64983 4.78492 4.71893L5.11196 6.10548C5.03538 6.19557 4.9606 6.28567 4.88673 6.37756L3.46414 6.32801C3.39316 6.32541 3.32269 6.34102 3.25944 6.37335C3.19619 6.40568 3.14227 6.45366 3.10281 6.51272C3.06334 6.57178 3.03965 6.63995 3.03398 6.71076C3.02832 6.78156 3.04086 6.85264 3.07043 6.91723L3.65964 8.21098C3.60289 8.31459 3.54613 8.4191 3.49117 8.52631L2.08931 8.75334C2.01913 8.76462 1.95302 8.79367 1.89725 8.83774C1.84149 8.88181 1.79794 8.93942 1.77075 9.00508C1.74356 9.07075 1.73364 9.14229 1.74193 9.21287C1.75023 9.28346 1.77646 9.35075 1.81812 9.40833L2.64699 10.5606C2.61095 10.6741 2.57672 10.7886 2.54338 10.903L1.21359 11.4012C1.14713 11.426 1.08811 11.4675 1.04216 11.5215C0.996199 11.5756 0.964826 11.6405 0.951015 11.7101C0.937204 11.7797 0.941414 11.8517 0.963245 11.9192C0.985076 11.9867 1.0238 12.0475 1.07575 12.0958L2.11633 13.0661C2.10282 13.1833 2.09111 13.3004 2.0812 13.4184L0.871234 14.168C0.810881 14.2053 0.761064 14.2574 0.726514 14.3194C0.691964 14.3813 0.673828 14.4511 0.673828 14.5221C0.673828 14.593 0.691964 14.6628 0.726514 14.7248C0.761064 14.7867 0.810881 14.8388 0.871234 14.8761L2.0812 15.6248C2.09111 15.7428 2.10282 15.8609 2.11633 15.978L1.07575 16.9483C1.0238 16.9966 0.985076 17.0574 0.963245 17.125C0.941414 17.1925 0.937204 17.2644 0.951015 17.334C0.964826 17.4036 0.996199 17.4685 1.04216 17.5226C1.08811 17.5767 1.14713 17.6181 1.21359 17.6429L2.54338 18.1402C2.57672 18.2556 2.61185 18.37 2.64789 18.4826L1.81812 19.6358C1.77667 19.6934 1.75062 19.7606 1.74245 19.831C1.73427 19.9015 1.74424 19.9729 1.77141 20.0384C1.79858 20.104 1.84205 20.1615 1.89768 20.2055C1.95332 20.2495 2.01928 20.2785 2.08931 20.2899L3.49117 20.5178C3.54613 20.6241 3.60199 20.7295 3.66055 20.8332L3.07043 22.126C3.04086 22.1906 3.02832 22.2617 3.03398 22.3325C3.03965 22.4033 3.06334 22.4715 3.10281 22.5305C3.14227 22.5896 3.19619 22.6376 3.25944 22.6699C3.32269 22.7022 3.39316 22.7178 3.46414 22.7152L4.88673 22.6657C4.9606 22.7585 5.03538 22.8486 5.11196 22.9386L4.78492 24.3252C4.76816 24.3944 4.76949 24.4667 4.7888 24.5352C4.80812 24.6037 4.84475 24.6661 4.89518 24.7164C4.9456 24.7666 5.00812 24.803 5.0767 24.8221C5.14529 24.8412 5.21762 24.8422 5.28674 24.8252L6.67239 24.4991C6.76248 24.5757 6.85348 24.6495 6.94537 24.7234L6.89582 26.1469C6.89313 26.2179 6.90869 26.2884 6.94101 26.3517C6.97334 26.4149 7.02136 26.4688 7.08047 26.5082C7.13958 26.5476 7.20782 26.5712 7.27865 26.5767C7.34948 26.5823 7.42054 26.5695 7.48504 26.5397L8.77789 25.9505C8.8815 26.0082 8.98691 26.0649 9.09322 26.1199L9.32115 27.5208C9.33206 27.5912 9.36089 27.6576 9.40486 27.7136C9.44884 27.7697 9.50648 27.8134 9.57225 27.8408C9.63803 27.8681 9.70973 27.878 9.78045 27.8697C9.85118 27.8613 9.91857 27.8349 9.97614 27.7929L11.1284 26.9622C11.242 26.9983 11.3564 27.0343 11.4708 27.0668L11.9681 28.3965C11.9925 28.4634 12.0338 28.5228 12.0878 28.569C12.1419 28.6153 12.2069 28.6469 12.2767 28.6607C12.3465 28.6746 12.4186 28.6702 12.4863 28.6481C12.5539 28.626 12.6146 28.5868 12.6627 28.5344L13.634 27.4938C13.7511 27.5073 13.8682 27.519 13.9862 27.5298L14.7358 28.7398C14.7733 28.7999 14.8254 28.8496 14.8874 28.884C14.9493 28.9184 15.019 28.9364 15.0899 28.9364C15.1607 28.9364 15.2304 28.9184 15.2924 28.884C15.3543 28.8496 15.4065 28.7999 15.4439 28.7398L16.1926 27.5289C16.3106 27.519 16.4287 27.5073 16.5458 27.4938L17.5161 28.5344C17.5642 28.5866 17.6249 28.6256 17.6925 28.6476C17.76 28.6696 17.832 28.6739 17.9016 28.66C17.9713 28.6462 18.0362 28.6147 18.0902 28.5685C18.1441 28.5224 18.1853 28.4632 18.2098 28.3965L18.708 27.0668C18.8225 27.0343 18.9369 26.9983 19.0504 26.9622L20.2036 27.7929C20.2613 27.8341 20.3286 27.8599 20.399 27.8679C20.4695 27.8759 20.5408 27.8658 20.6062 27.8386C20.6717 27.8114 20.7292 27.7679 20.7731 27.7123C20.8171 27.6567 20.8462 27.5908 20.8577 27.5208L21.0865 26.119C21.1919 26.0649 21.2965 26.0073 21.401 25.9505L22.6938 26.5397C22.7584 26.5695 22.8295 26.5823 22.9004 26.5767C22.9713 26.5712 23.0396 26.5475 23.0988 26.508C23.1579 26.4685 23.2059 26.4145 23.2382 26.3511C23.2704 26.2877 23.2859 26.2171 23.283 26.146L23.2335 24.7225C23.3254 24.6504 23.4164 24.5757 23.5065 24.4991L24.8921 24.8252C24.9612 24.842 25.0334 24.8408 25.1018 24.8217C25.1703 24.8025 25.2327 24.7661 25.283 24.7159C25.3333 24.6657 25.3698 24.6033 25.3891 24.5349C25.4084 24.4665 25.4097 24.3943 25.393 24.3252L25.0669 22.9386C25.1426 22.8486 25.2173 22.7585 25.2912 22.6657L26.7147 22.7152C26.7858 22.7182 26.8564 22.7028 26.9198 22.6705C26.9832 22.6383 27.0373 22.5902 27.0767 22.531C27.1162 22.4718 27.1398 22.4035 27.1452 22.3325C27.1505 22.2616 27.1376 22.1905 27.1075 22.126L26.5183 20.8332C26.576 20.7295 26.6318 20.6241 26.6868 20.5178L28.0886 20.2899C28.1589 20.279 28.2252 20.2502 28.2812 20.2063C28.3371 20.1623 28.3808 20.1048 28.4081 20.0391C28.4353 19.9734 28.4452 19.9017 28.4367 19.8311C28.4283 19.7605 28.4018 19.6932 28.3598 19.6358L27.531 18.4826C27.5668 18.3689 27.6013 18.2547 27.6346 18.1402L28.9644 17.6429C29.0312 17.6185 29.0906 17.5773 29.1368 17.5232C29.1831 17.4692 29.2147 17.4041 29.2285 17.3344C29.2424 17.2646 29.238 17.1924 29.2159 17.1248C29.1938 17.0572 29.1546 16.9964 29.1022 16.9483L28.0616 15.978C28.0742 15.8609 28.0859 15.7428 28.0968 15.6248L29.3067 14.8761C29.3671 14.8388 29.4169 14.7867 29.4514 14.7248C29.486 14.6628 29.5041 14.593 29.5041 14.5221C29.5041 14.4511 29.486 14.3813 29.4514 14.3194C29.4169 14.2574 29.3671 14.2053 29.3067 14.168ZM21.2064 24.2081C20.9893 24.1553 20.8013 24.0199 20.6825 23.8307C20.5637 23.6414 20.5235 23.4133 20.5703 23.1948C20.6172 22.9764 20.7474 22.7848 20.9333 22.6609C21.1192 22.537 21.3462 22.4906 21.5658 22.5314C21.7838 22.5835 21.9727 22.7188 22.0921 22.9084C22.2116 23.098 22.2521 23.3268 22.205 23.5459C22.1579 23.7649 22.027 23.9569 21.8402 24.0806C21.6534 24.2044 21.4265 24.2501 21.2064 24.2081ZM20.7946 21.4269C20.6944 21.4054 20.591 21.404 20.4902 21.4225C20.3894 21.4411 20.2933 21.4793 20.2073 21.535C20.1212 21.5907 20.0471 21.6629 19.9889 21.7473C19.9308 21.8317 19.8899 21.9267 19.8685 22.0269L19.4387 24.0324C18.0724 24.652 16.5892 24.9715 15.089 24.9694C13.5033 24.9694 11.9987 24.618 10.6482 23.99L10.2185 21.9855C10.1972 21.8852 10.1563 21.79 10.0982 21.7055C10.0402 21.621 9.96598 21.5488 9.87997 21.493C9.79395 21.4372 9.69778 21.3989 9.59694 21.3803C9.49611 21.3617 9.3926 21.3631 9.29232 21.3845L7.52198 21.7647C7.19302 21.4262 6.88721 21.0659 6.60662 20.6863H15.2205C15.3178 20.6863 15.3827 20.6683 15.3827 20.58V17.533C15.3827 17.4438 15.3178 17.4267 15.2205 17.4267H12.7015V15.4942H15.4259C15.6746 15.4942 16.7557 15.5654 17.1017 16.9474C17.2098 17.3717 17.4476 18.7547 17.6098 19.197C17.772 19.6935 18.4315 20.6854 19.1342 20.6854H23.4263C23.4786 20.6849 23.5307 20.6798 23.5821 20.6701C23.2848 21.0746 22.9578 21.4575 22.6064 21.8143L20.7955 21.426L20.7946 21.4269ZM8.8815 24.1657C8.66184 24.2066 8.4349 24.1601 8.24898 24.0362C8.06306 23.9123 7.93282 23.7208 7.88598 23.5023C7.83914 23.2838 7.8794 23.0557 7.99819 22.8665C8.11698 22.6773 8.30492 22.5419 8.52202 22.4891C8.63217 22.4655 8.74588 22.4639 8.85665 22.4843C8.96743 22.5047 9.0731 22.5467 9.16764 22.608C9.26217 22.6692 9.34372 22.7485 9.40762 22.8412C9.47153 22.934 9.51654 23.0384 9.54008 23.1486C9.56363 23.2587 9.56525 23.3724 9.54485 23.4832C9.52445 23.594 9.48242 23.6996 9.42119 23.7942C9.35995 23.8887 9.28069 23.9703 9.18793 24.0342C9.09518 24.0981 8.99074 24.1431 8.88059 24.1666L8.8815 24.1657ZM5.61378 10.9156C5.65939 11.0184 5.68432 11.1291 5.68713 11.2415C5.68995 11.3539 5.6706 11.4657 5.63019 11.5706C5.58978 11.6755 5.52911 11.7714 5.45163 11.8529C5.37415 11.9344 5.28139 11.9998 5.17863 12.0454C5.07588 12.091 4.96514 12.1159 4.85276 12.1187C4.74037 12.1215 4.62853 12.1022 4.52362 12.0618C4.41871 12.0214 4.32278 11.9607 4.24132 11.8832C4.15986 11.8057 4.09446 11.713 4.04885 11.6102C3.95674 11.4027 3.95084 11.1671 4.03244 10.9552C4.11405 10.7433 4.27648 10.5726 4.48401 10.4804C4.69153 10.3883 4.92714 10.3824 5.13902 10.464C5.35089 10.5456 5.52167 10.7081 5.61378 10.9156ZM4.60924 13.2968L6.45346 12.4769C6.64272 12.3926 6.79077 12.2366 6.86509 12.0432C6.93942 11.8497 6.93394 11.6347 6.84987 11.4454L6.47058 10.5868H7.96434V17.3204H4.95069C4.57865 16.0137 4.46331 14.6475 4.60924 13.2968ZM12.7024 12.6427V10.6579H16.2593C16.4431 10.6579 17.5566 10.8706 17.5566 11.703C17.5566 12.394 16.7026 12.6427 15.9998 12.6427H12.7024ZM25.63 14.4293C25.63 14.6923 25.6201 14.9527 25.6002 15.2113H24.5191C24.411 15.2113 24.3678 15.2834 24.3678 15.3888V15.8852C24.3678 17.0546 23.7083 17.3087 23.1308 17.3735C22.5812 17.4348 21.9704 17.1429 21.8956 16.8059C21.5712 14.9815 21.0307 14.5914 20.1766 13.9175C21.2361 13.2454 22.3388 12.2526 22.3388 10.9237C22.3388 9.48851 21.355 8.58487 20.6847 8.14161C19.7441 7.52176 18.7026 7.39743 18.4216 7.39743H7.23728C8.78267 5.66894 10.8555 4.49904 13.1339 4.06936L14.452 5.4523C14.7502 5.76402 15.2448 5.77664 15.5557 5.47752L17.0314 4.06665C18.5348 4.34893 19.9588 4.95474 21.2047 5.8421C22.4507 6.72946 23.4888 7.87715 24.247 9.20562L23.2371 11.4868C23.1533 11.6762 23.1479 11.8911 23.2222 12.0845C23.2965 12.2778 23.4444 12.4338 23.6335 12.5184L25.5786 13.3815C25.612 13.7265 25.63 14.0752 25.63 14.4293ZM14.4529 2.89273C14.5342 2.81499 14.63 2.75404 14.7349 2.71337C14.8398 2.67269 14.9517 2.65309 15.0641 2.65569C15.1766 2.65828 15.2874 2.68302 15.3903 2.72848C15.4932 2.77395 15.5861 2.83925 15.6638 2.92066C15.7415 3.00217 15.8024 3.0982 15.843 3.20326C15.8837 3.30832 15.9032 3.42035 15.9005 3.53296C15.8978 3.64557 15.873 3.75655 15.8274 3.85956C15.7819 3.96257 15.7165 4.05559 15.6349 4.13332C15.5537 4.21098 15.4579 4.27184 15.353 4.31242C15.2482 4.35301 15.1364 4.37252 15.024 4.36984C14.9116 4.36716 14.8008 4.34235 14.6981 4.29682C14.5953 4.25128 14.5025 4.18593 14.425 4.10449C14.2684 3.93991 14.1834 3.71997 14.1886 3.49284C14.1938 3.26571 14.2889 3.04992 14.4529 2.89273ZM24.4741 10.957C24.5663 10.7495 24.7372 10.5871 24.9492 10.5056C25.1611 10.4241 25.3968 10.4301 25.6043 10.5223C25.8118 10.6146 25.9742 10.7855 26.0557 10.9974C26.1373 11.2094 26.1312 11.445 26.039 11.6526C25.9933 11.7553 25.9279 11.8481 25.8464 11.9255C25.7648 12.003 25.6689 12.0636 25.5639 12.104C25.459 12.1444 25.3471 12.1637 25.2347 12.1608C25.1223 12.1579 25.0115 12.1329 24.9088 12.0873C24.806 12.0416 24.7133 11.9761 24.6358 11.8946C24.5584 11.8131 24.4977 11.7171 24.4573 11.6122C24.417 11.5072 24.3977 11.3954 24.4005 11.283C24.4034 11.1705 24.4284 11.0598 24.4741 10.957Z" fill="black"/>
</svg>
