<svg width="24" height="26" viewBox="0 0 24 26" fill="none" xmlns="http://www.w3.org/2000/svg">
<g clip-path="url(#clip0_509_24850)">
<path fill-rule="evenodd" clip-rule="evenodd" d="M0.228027 11.8526C0.228027 11.9899 0.26684 12.0805 0.28859 12.1686C0.43034 12.7414 0.735027 13.233 1.09653 13.6815C1.6114 14.3205 2.24196 14.835 2.8879 15.3188C3.44815 15.7383 4.01984 16.1484 4.58234 16.5649C4.6789 16.6363 4.77021 16.7186 4.87503 16.8063C4.78484 16.857 4.70984 16.9018 4.63184 16.943C3.88953 17.3352 3.17534 17.7748 2.51703 18.3074C2.12028 18.6285 1.73665 18.9697 1.46571 19.4156C1.02978 20.1328 0.875465 20.8969 1.2004 21.7127C1.29528 21.951 1.44003 22.1569 1.64421 22.309C1.7104 22.3582 1.78465 22.407 1.86209 22.4262C2.06046 22.4748 2.26259 22.5067 2.4634 22.5451L3.03209 22.5447C3.66096 22.4863 4.2334 22.2619 4.75071 21.8901C5.55921 21.3088 6.1039 20.5295 6.33809 19.5293C6.50834 18.8024 6.51528 18.0746 6.31465 17.351C6.29545 17.2839 6.2733 17.2179 6.24828 17.1529C6.2239 17.0879 6.19521 17.0246 6.16146 16.9436L7.45071 16.1713L7.47003 16.1885C7.44659 16.2684 7.42165 16.3481 7.40046 16.4287C7.24728 17.0115 7.14546 17.6045 7.18203 18.2094C7.22103 18.8539 7.39371 19.4572 7.75596 19.9957C8.04884 20.4313 8.74671 20.4475 9.05796 20.0104C9.1684 19.8551 9.27546 19.6928 9.3559 19.5195C9.56609 19.0674 9.76071 18.6072 9.96153 18.1502L9.99659 18.0666C9.98215 18.283 9.96528 18.4731 9.95759 18.6633C9.94559 18.9604 9.96228 19.2557 10.0598 19.5383C10.1432 19.7801 10.2852 19.9608 10.551 19.9926C10.7329 20.0143 10.8778 19.9276 11.0115 19.8176C11.2186 19.6471 11.3903 19.4345 11.5161 19.1928C11.8725 18.511 12.2385 17.8332 12.5616 17.1342C12.9111 16.3781 13.2167 15.6 13.5413 14.8311L13.5949 14.6947C13.6716 15.0086 13.725 15.316 13.8235 15.607C13.9378 15.9447 14.0794 16.2744 14.2335 16.5949C14.3065 16.7463 14.298 16.8445 14.197 16.9715C13.774 17.5027 13.3583 18.0404 12.9422 18.5776C12.8502 18.6961 12.7585 18.8168 12.6818 18.9463C12.6353 19.0281 12.6047 19.1186 12.5918 19.2127C12.5789 19.2993 12.5987 19.3878 12.647 19.4596C12.6954 19.5314 12.7685 19.5808 12.8511 19.5977C13.0178 19.6351 13.1887 19.6478 13.3588 19.6354C13.9395 19.5908 14.4668 19.3785 14.9329 19.0188C15.5368 18.5527 15.7307 17.9168 15.5845 17.1631C15.5449 16.9586 15.475 16.7598 15.4069 16.5627C15.3763 16.4738 15.3743 16.4115 15.43 16.3287C15.9128 15.6106 16.3253 14.8486 16.7089 14.0692C16.7241 14.0385 16.7397 14.0078 16.7663 13.975C16.8906 14.6488 17.0777 15.2983 17.413 15.8875C17.242 16.0592 17.0727 16.2149 16.9195 16.3863C16.5822 16.7641 16.2896 17.1742 16.137 17.6744C16.0714 17.8901 16.021 18.1092 16.0502 18.3395C16.0956 18.6971 16.3768 18.9295 16.7145 18.8481C17.4372 18.6738 18.061 18.3192 18.5168 17.6908C18.8235 17.2678 18.8515 16.7959 18.723 16.3016C18.6878 16.1672 18.646 16.035 18.601 15.8809C18.7793 15.8233 18.9531 15.7541 19.1329 15.7113C20.0665 15.4895 20.9899 15.5281 21.8895 15.8793C22.4147 16.0844 22.839 16.4276 23.0907 16.9674C23.398 17.6274 23.2281 18.2535 22.6309 18.6707C22.5752 18.7096 22.5115 18.7402 22.4653 18.7889C22.4506 18.8067 22.4395 18.8276 22.4329 18.8501C22.4263 18.8726 22.4242 18.8963 22.4269 18.9197C22.4308 18.9438 22.4918 18.9738 22.5268 18.9735C22.7232 18.9719 22.8823 18.8647 23.0352 18.7545C23.418 18.4785 23.6974 18.1072 23.7576 17.6184L23.7694 17.5817L23.755 17.2633C23.7492 17.2449 23.7593 17.2268 23.758 17.2129C23.6766 16.501 23.3115 15.9488 22.7805 15.516C22.1655 15.0151 21.4393 14.8088 20.6713 14.7762C20.0485 14.7483 19.4264 14.848 18.8404 15.0697C18.6722 15.1332 18.5055 15.2084 18.3364 15.2793C18.3137 15.2365 18.2893 15.1955 18.2693 15.1531C18.0957 14.7828 17.8853 14.4289 17.8388 14.0043C17.8058 13.7027 17.7653 13.4016 17.8341 13.1033C17.9003 12.8164 17.9865 12.5344 18.0677 12.2514C18.1095 12.1057 18.0801 12.024 17.9466 11.9584C17.9001 11.9342 17.8504 11.9173 17.7992 11.908C17.4711 11.8584 17.1475 11.8867 16.8297 11.983C16.7172 12.0172 16.6354 12.0828 16.6105 12.2125C16.5962 12.2869 16.5672 12.3582 16.5469 12.4317C16.4638 12.7369 16.405 13.0481 16.2707 13.3389C15.9343 14.0684 15.5503 14.7703 15.1573 15.4672C15.1148 15.5424 15.07 15.6162 15.0163 15.7074C14.8783 15.4067 14.7312 15.1367 14.6865 14.8203C14.6361 14.4625 14.5963 14.1053 14.6818 13.7502C14.7454 13.4854 14.8285 13.2254 14.905 12.9641C14.9412 12.8399 14.9245 12.7746 14.8165 12.7092C14.7619 12.6762 14.7002 12.6469 14.6387 12.6373C14.3023 12.5839 13.9585 12.6132 13.6348 12.7229C13.533 12.7572 13.4796 12.8258 13.4485 12.9352C13.357 13.2578 13.279 13.5883 13.1505 13.8951C12.6304 15.1373 12.0953 16.3731 11.5607 17.6086C11.4492 17.8666 11.3185 18.1156 11.1927 18.3668C11.1608 18.4305 11.1143 18.4865 11.0745 18.5463C11.0427 18.507 11.0303 18.4801 11.0305 18.4531C11.0314 18.2943 11.0132 18.1309 11.0423 17.9774C11.1315 17.5131 11.2302 17.0508 11.3382 16.5908C11.4263 16.2108 11.5288 15.8342 11.6265 15.4567C11.6593 15.3303 11.6599 15.2121 11.5727 15.1059C11.4263 14.9279 11.1203 14.8889 10.9388 15.026L10.8585 15.0733L10.8741 14.9385C10.9123 14.6496 10.92 14.3617 10.8439 14.0772C10.749 13.7225 10.506 13.5184 10.1528 13.5297C9.98815 13.535 9.81528 13.5643 9.66284 13.6268C9.02178 13.8885 8.52884 14.352 8.10921 14.9096C8.07031 14.9614 8.0221 15.0047 7.96728 15.0373C7.42484 15.3506 6.88071 15.66 6.33678 15.9705L5.73134 16.316C5.56896 16.1547 5.4214 15.9873 5.25396 15.8453C4.74265 15.4109 4.22309 14.9873 3.70821 14.5578C3.25184 14.1772 2.80971 13.7807 2.47146 13.2766C2.21984 12.9016 2.05765 12.4912 2.04209 12.0276C2.0224 11.4367 2.18328 10.8969 2.47203 10.3943C2.8414 9.75138 3.34521 9.23536 3.89909 8.76798C4.48503 8.27384 5.11878 7.85431 5.77559 7.4713C6.69453 6.93556 7.63971 6.46134 8.65315 6.14825C9.69228 5.82716 10.7466 5.64337 11.8341 5.7715C12.2616 5.82189 12.6767 5.92384 13.0579 6.14161C13.3498 6.30822 13.5893 6.52638 13.7007 6.8674C13.8105 7.20294 13.8072 7.54298 13.731 7.8838C13.5763 8.57404 13.2135 9.14298 12.757 9.65138C12.0081 10.4848 11.0946 11.0522 10.0662 11.427C9.47483 11.6428 8.8596 11.7795 8.23521 11.8338C7.72353 11.8785 7.22253 11.8313 6.73803 11.6459C6.41721 11.5231 6.13784 11.3352 5.91321 11.0625C5.87309 11.0137 5.82171 10.9608 5.7469 11.0065C5.67359 11.0514 5.66065 11.124 5.68521 11.1977C5.72628 11.3199 5.76415 11.4473 5.82809 11.5567C5.98878 11.8311 6.22315 12.0301 6.48115 12.2008C6.97671 12.5291 7.53059 12.6395 8.1049 12.6651C8.9764 12.7043 9.82671 12.5688 10.665 12.3252C11.8618 11.9776 12.9025 11.3635 13.737 10.3947C14.4319 9.5881 14.9282 8.67775 15.0345 7.57853C15.0865 7.042 15.0312 6.51642 14.79 6.02697C14.5285 5.49669 14.1126 5.10236 13.6153 4.83068C12.8912 4.43517 12.1097 4.2049 11.3031 4.2049H10.495C9.51809 4.2049 8.57365 4.4965 7.65565 4.84435C6.96078 5.10782 6.2794 5.41876 5.6179 5.7629C4.17734 6.51271 2.83578 7.41681 1.73384 8.65997C1.18484 9.27931 0.720027 9.96271 0.452652 10.7674C0.371953 11.0076 0.302435 11.2518 0.24434 11.499M5.46415 18.5328C5.40171 19.4037 5.02278 20.1098 4.40346 20.6817C4.05509 21.0031 3.65553 21.232 3.19015 21.3125C3.0214 21.3416 2.84871 21.3486 2.68503 21.2758C2.45159 21.1719 2.39928 20.9561 2.39478 20.7262C2.38784 20.3598 2.51103 20.0285 2.67996 19.7133C2.90046 19.3024 3.22371 18.9891 3.5689 18.6965C4.11265 18.2354 4.70253 17.8451 5.30665 17.4768L5.35221 17.4572C5.44559 17.8166 5.49003 18.1715 5.46415 18.5328ZM10.1813 14.7479C10.1372 15.026 10.0821 15.3043 10.0041 15.5738C9.73446 16.5068 9.38815 17.411 9.01371 18.3029C8.94453 18.468 8.84384 18.6186 8.75628 18.775C8.74138 18.7991 8.72354 18.821 8.70321 18.8402C8.59484 18.9518 8.49209 18.9459 8.43734 18.8C8.37359 18.6305 8.3344 18.449 8.30065 18.2695C8.27796 18.149 8.2834 18.0225 8.27628 17.899C8.28359 17.0213 8.54065 16.2236 8.97678 15.4811C9.15659 15.1748 9.35234 14.883 9.6514 14.6893C9.74444 14.629 9.8451 14.5826 9.95046 14.5514C10.1098 14.5047 10.2077 14.5815 10.1813 14.7479ZM13.3995 19.019L14.5562 17.6121C14.6044 18.1346 13.7518 19.1776 13.3995 19.019ZM17.0938 18.0723C17.0121 18.1211 16.923 18.1563 16.8392 18.2014C16.7625 18.2428 16.7372 18.201 16.735 18.1322C16.7338 18.0846 16.7397 18.0372 16.7524 17.9914C16.9086 17.4176 17.196 16.9277 17.6237 16.5293L17.6537 16.5133C17.8571 17.1061 17.622 17.757 17.0938 18.0723Z" fill="#CB6699"/>
</g>
<defs>
<clipPath id="clip0_509_24850">
<rect width="24" height="25" fill="white" transform="translate(-0.000488281 0.884583)"/>
</clipPath>
</defs>
</svg>
