<svg width="26" height="27" viewBox="0 0 26 27" fill="none" xmlns="http://www.w3.org/2000/svg">
<g clip-path="url(#clip0_509_24968)">
<path d="M5.07812 23.1533V19.9921H6.21887C6.8512 19.9921 7.85444 19.9509 8.45934 19.8958L9.53144 19.8134L8.10184 19.4286C7.30478 19.2225 6.30134 18.92 5.87539 18.7551L5.07812 18.4666V12.0201H6.35639C7.04356 12.0201 8.047 11.9788 8.56923 11.924L9.53144 11.8415L7.84083 11.3879C6.90625 11.1545 5.91662 10.8383 5.61417 10.7146L5.07812 10.4672V4.22717L5.50428 4.13109C5.73787 4.08985 6.31516 4.04862 6.78255 4.04862C9.09147 4.04862 14.5756 3.29259 17.2695 2.60542C19.1525 2.1106 20.4581 1.61579 20.9117 1.20345C21.1453 0.997277 21.1591 1.12098 21.1591 4.15851V7.33336L20.8292 7.58096L20.4994 7.84198L21.1591 8.41926V15.3052L20.8292 15.5526L20.4994 15.8138L21.1591 16.3911V23.277L20.8016 23.5519C20.4169 23.8543 18.9325 24.363 17.2421 24.7889C14.6031 25.4487 8.15689 26.3146 5.95766 26.3146H5.07812V23.1533Z" fill="#390D09"/>
<path d="M5.07812 23.1808V20.0333L7.48353 19.9371C9.98502 19.841 11.8406 19.6348 14.5618 19.1674C17.6544 18.6314 20.7055 17.6694 21.0218 17.1195C21.1043 16.982 21.1591 18.0405 21.1591 20.0884V23.2771L20.8016 23.5519C20.4169 23.8543 18.9325 24.363 17.2421 24.7889C14.6031 25.4487 8.15689 26.3146 5.95766 26.3146H5.07812V23.1808ZM5.07812 15.2091V12.0613L7.48353 11.9788C10.15 11.8689 12.2253 11.6353 14.9742 11.1267C18.0529 10.5494 20.8567 9.61486 21.063 9.10624C21.1043 9.01016 21.1455 10.3433 21.1455 12.0751C21.1591 14.824 21.1317 15.2638 20.9255 15.4836C20.4445 16.0198 16.7334 16.9818 12.9125 17.5729C10.5897 17.9304 6.74131 18.3427 5.66902 18.3427H5.07812V15.2091ZM5.07812 7.29233V4.21357L5.50428 4.1311C5.73787 4.08986 6.31516 4.04863 6.78255 4.04863C9.09147 4.04863 14.5756 3.2926 17.2695 2.60543C19.1525 2.11061 20.4581 1.6158 20.9117 1.20346C21.1453 0.997284 21.1591 1.12099 21.1591 4.14471C21.1591 7.09977 21.1455 7.31955 20.8981 7.53974C20.527 7.88322 17.9843 8.66668 16.0048 9.06521C12.8026 9.69754 7.48353 10.3711 5.66922 10.3711H5.07812V7.29233Z" fill="#DE3423"/>
</g>
<defs>
<clipPath id="clip0_509_24968">
<rect width="26" height="26" fill="white" transform="translate(0 0.720825)"/>
</clipPath>
</defs>
</svg>
