<svg width="31" height="18" viewBox="0 0 31 18" fill="none" xmlns="http://www.w3.org/2000/svg">
<g clip-path="url(#clip0_526_23364)">
<path d="M23.7779 14.6809C27.5639 10.8314 28.1931 5.22993 25.1832 2.16954C22.1738 -0.890502 16.6653 -0.25078 12.8795 3.59858C9.09374 7.44805 10.1889 14.8026 11.4744 16.11C12.5132 17.1663 19.9923 18.5303 23.7779 14.6809Z" fill="#F89939"/>
<path d="M8.24314 9.11839C6.0468 6.88505 2.85044 6.51324 1.1038 8.28918C-0.642382 10.0649 -0.277294 13.3156 1.91949 15.5486C4.11628 17.7826 8.31301 17.1364 9.05839 16.3778C9.66158 15.7654 10.4402 11.352 8.24314 9.11839Z" fill="#3499CD"/>
<path d="M15.8212 13.7374C15.4332 14.1006 15.0928 14.3686 14.8003 14.5408C14.5078 14.7136 14.2287 14.7998 13.9633 14.7998C13.6579 14.7998 13.4115 14.6795 13.2247 14.4386C13.0376 14.1975 12.9443 13.8742 12.9443 13.4675C12.9443 12.8582 13.0742 12.1266 13.334 11.2736C13.5934 10.42 13.9091 9.63342 14.28 8.91379L15.3676 8.50436C15.4017 8.49276 15.4276 8.48685 15.4448 8.48685C15.5273 8.48685 15.5955 8.54869 15.6478 8.67179C15.7007 8.79546 15.7273 8.96164 15.7273 9.17056C15.7273 9.76266 15.5933 10.3359 15.3247 10.8902C15.0562 11.4448 14.6368 12.0367 14.066 12.6665C14.0431 12.9684 14.0317 13.1758 14.0317 13.2891C14.0317 13.5418 14.0773 13.7417 14.1686 13.8898C14.26 14.0382 14.3812 14.1118 14.5326 14.1118C14.6869 14.1118 14.8509 14.0557 15.0251 13.9424C15.1989 13.829 15.4644 13.5942 15.8211 13.2369V13.7374H15.8212ZM14.1816 12.0354C14.544 11.6257 14.8383 11.1661 15.0637 10.6577C15.289 10.149 15.4016 9.71151 15.4016 9.34493C15.4016 9.23808 15.386 9.15124 15.3549 9.086C15.3234 9.02064 15.2832 8.98779 15.2348 8.98779C15.1296 8.98779 14.9759 9.25513 14.7746 9.78994C14.5733 10.3246 14.3756 11.0732 14.1816 12.0354Z" fill="#010101"/>
<path d="M19.024 13.7374C18.6616 14.1006 18.3363 14.3686 18.0479 14.5408C17.7595 14.7136 17.4416 14.7998 17.0932 14.7998C16.7049 14.7998 16.3917 14.6736 16.1531 14.4213C15.9148 14.1684 15.7959 13.8364 15.7959 13.4241C15.7959 12.809 16.0055 12.2523 16.4256 11.7546C16.8448 11.2566 17.3102 11.0078 17.8211 11.0078C18.0866 11.0078 18.299 11.0777 18.4591 11.2169C18.6189 11.3564 18.6988 11.5391 18.6988 11.7655C18.6988 12.3664 18.0709 12.8537 16.815 13.2283C16.9291 13.794 17.2273 14.0773 17.7098 14.0773C17.8982 14.0773 18.0779 14.0258 18.249 13.923C18.4206 13.8198 18.6787 13.5909 19.0241 13.237L19.024 13.7374ZM16.7805 12.9322C17.511 12.723 17.8765 12.3372 17.8765 11.7741C17.8765 11.4955 17.7765 11.3563 17.577 11.3563C17.3885 11.3563 17.2089 11.5019 17.0377 11.7939C16.866 12.0855 16.7805 12.4647 16.7805 12.9322Z" fill="#010101"/>
<path d="M23.5966 13.7374C23.1399 14.1785 22.813 14.4662 22.6163 14.5999C22.4193 14.7333 22.2309 14.8 22.051 14.8C21.5999 14.8 21.3874 14.3952 21.413 13.5853C21.1276 14.0002 20.8642 14.3064 20.6229 14.5042C20.3819 14.7015 20.133 14.8 19.8758 14.8C19.6249 14.8 19.4116 14.6805 19.2358 14.441C19.06 14.2015 18.9727 13.9078 18.9727 13.5592C18.9727 13.124 19.0901 12.7089 19.3254 12.3139C19.5612 11.9192 19.863 11.6002 20.2311 11.3564C20.5992 11.1126 20.925 10.9905 21.2072 10.9905C21.5642 10.9905 21.814 11.1575 21.9567 11.4911L22.8318 10.9994H23.0719L22.694 12.2748C22.4999 12.9165 22.4025 13.3563 22.4025 13.5942C22.4025 13.8437 22.4894 13.9685 22.6637 13.9685C22.7746 13.9685 22.8973 13.9083 23.0316 13.7877C23.1658 13.6671 23.3538 13.4836 23.5964 13.2369V13.7374H23.5966ZM20.4625 13.9771C20.7479 13.9771 21.0169 13.7298 21.2699 13.235C21.5226 12.74 21.6488 12.2832 21.6488 11.8654C21.6488 11.7031 21.6128 11.5759 21.5418 11.4846C21.4701 11.3929 21.3746 11.3474 21.255 11.3474C20.9693 11.3474 20.6986 11.5941 20.4436 12.0876C20.1882 12.5812 20.0602 13.0354 20.0602 13.45C20.0602 13.607 20.0982 13.734 20.1738 13.8313C20.2493 13.9286 20.3453 13.9771 20.4625 13.9771Z" fill="#010101"/>
<path d="M26.7952 13.7374C26.0786 14.4513 25.5262 14.8086 25.1381 14.8086C24.9638 14.8086 24.8167 14.7338 24.6971 14.5848C24.5775 14.4352 24.5172 14.25 24.5172 14.0293C24.5172 13.6201 24.733 13.0718 25.1639 12.3837C24.9525 12.4941 24.7216 12.5707 24.4703 12.6144C24.2847 12.9626 23.9934 13.3372 23.5968 13.7373H23.4985V13.3459C23.721 13.1109 23.9223 12.8582 24.1022 12.5882C23.8564 12.4778 23.7338 12.3138 23.7338 12.0965C23.7338 11.8727 23.8085 11.6341 23.9588 11.3798C24.1085 11.1261 24.3147 10.9993 24.5775 10.9993C24.8002 10.9993 24.9113 11.115 24.9113 11.3473C24.9113 11.5302 24.8471 11.7913 24.7184 12.131C25.1922 12.0786 25.6061 11.7104 25.9603 11.0252L26.3497 11.0077L25.9515 12.1222C25.7861 12.5924 25.679 12.9127 25.6306 13.0823C25.5822 13.2519 25.5577 13.4024 25.5577 13.5328C25.5577 13.6549 25.5857 13.7524 25.6411 13.8245C25.6968 13.8975 25.7719 13.9335 25.866 13.9335C25.9686 13.9335 26.0673 13.8978 26.1615 13.8271C26.2556 13.7554 26.4669 13.5589 26.7953 13.2368V13.7374H26.7952Z" fill="#010101"/>
<path d="M30.9997 13.7374C30.3403 14.446 29.7748 14.8 29.3041 14.8C29.1128 14.8 28.9587 14.7318 28.8417 14.5952C28.7244 14.459 28.6659 14.2762 28.6659 14.0469C28.6659 13.7364 28.7917 13.2617 29.043 12.6234C29.177 12.2809 29.2443 12.0628 29.2443 11.9703C29.2443 11.8773 29.2083 11.8308 29.1373 11.8308C29.0974 11.8308 29.0443 11.8513 28.9788 11.8917C28.9186 11.9322 28.8487 11.9893 28.7688 12.0617C28.6976 12.1283 28.6174 12.2096 28.529 12.3051C28.4517 12.387 28.3689 12.4798 28.2809 12.5839L28.0408 12.8671C27.9354 12.9976 27.8697 13.1353 27.8441 13.2806C27.8011 13.5272 27.7727 13.7539 27.7582 13.9602C27.7495 14.1136 27.7454 14.321 27.7454 14.5827L26.7991 14.8087C26.7679 14.4169 26.752 14.1251 26.752 13.9338C26.752 13.4665 26.8055 13.0238 26.9127 12.6059C27.0197 12.1876 27.1915 11.7177 27.4286 11.1951L28.4731 10.9906C28.2534 11.5916 28.1094 12.0644 28.0408 12.4096C28.509 11.8786 28.8801 11.511 29.1552 11.306C29.4299 11.1013 29.6744 10.9995 29.8882 10.9995C30.0334 10.9995 30.1548 11.0552 30.2515 11.1667C30.3486 11.2783 30.3969 11.4185 30.3969 11.586C30.3969 11.8644 30.2742 12.323 30.029 12.9618C29.8605 13.3999 29.7762 13.6842 29.7762 13.8155C29.7762 13.9902 29.8463 14.0775 29.9864 14.0775C30.1951 14.0775 30.5332 13.7973 30.9997 13.2371V13.7374Z" fill="#010101"/>
<path d="M17.4996 9.42107C17.5076 9.5113 17.5301 9.58048 17.5672 9.62861C17.6354 9.71583 17.7537 9.75945 17.9222 9.75945C18.0224 9.75945 18.1107 9.73789 18.1869 9.69478C18.2631 9.65066 18.3012 9.58299 18.3012 9.49175C18.3012 9.42257 18.2706 9.36993 18.2094 9.33384C18.1703 9.31178 18.0931 9.28622 17.9778 9.25714L17.7628 9.203C17.6254 9.16891 17.5241 9.13081 17.459 9.0887C17.3427 9.01551 17.2845 8.91425 17.2845 8.78492C17.2845 8.63252 17.3392 8.5092 17.4484 8.41495C17.5587 8.32071 17.7066 8.27359 17.8921 8.27359C18.1347 8.27359 18.3097 8.34477 18.417 8.48714C18.4841 8.57738 18.5167 8.67463 18.5147 8.7789H18.259C18.254 8.71774 18.2325 8.6621 18.1944 8.61197C18.1322 8.54078 18.0244 8.50519 17.871 8.50519C17.7688 8.50519 17.6911 8.52474 17.6379 8.56384C17.5858 8.60294 17.5597 8.65458 17.5597 8.71874C17.5597 8.78893 17.5943 8.84507 17.6635 8.88718C17.7036 8.91225 17.7628 8.9343 17.841 8.95335L18.0199 8.99697C18.2144 9.04409 18.3448 9.08971 18.4109 9.13382C18.5162 9.203 18.5688 9.31178 18.5688 9.46017C18.5688 9.60354 18.5142 9.72736 18.4049 9.83163C18.2966 9.9359 18.1312 9.98804 17.9086 9.98804C17.669 9.98804 17.4991 9.9339 17.3988 9.82562C17.2996 9.71633 17.2464 9.58148 17.2394 9.42107H17.4996ZM19.4998 8.26908C19.6812 8.26908 19.8286 8.31319 19.9419 8.40142C20.0562 8.48965 20.1249 8.64154 20.1479 8.8571H19.8848C19.8687 8.75785 19.8321 8.67563 19.775 8.61046C19.7178 8.54429 19.6261 8.5112 19.4998 8.5112C19.3273 8.5112 19.204 8.59542 19.1298 8.76386C19.0817 8.87314 19.0576 9.00799 19.0576 9.16841C19.0576 9.32983 19.0917 9.46568 19.1599 9.57597C19.2281 9.68626 19.3353 9.7414 19.4817 9.7414C19.594 9.7414 19.6827 9.70731 19.7479 9.63913C19.8141 9.56995 19.8597 9.47571 19.8848 9.3564H20.1479C20.1179 9.56995 20.0427 9.72636 19.9224 9.82562C19.8021 9.92387 19.6482 9.973 19.4607 9.973C19.2501 9.973 19.0822 9.8963 18.9569 9.7429C18.8315 9.5885 18.7689 9.396 18.7689 9.1654C18.7689 8.88267 18.8375 8.6626 18.9749 8.50519C19.1123 8.34778 19.2872 8.26908 19.4998 8.26908ZM20.4187 8.32322H20.6939V9.92638H20.4187V8.32322ZM20.4187 7.71714H20.6939V8.02394H20.4187V7.71714ZM21.0984 7.71714H21.3586V8.99997L22.0534 8.3157H22.3993L21.7827 8.91876L22.4339 9.92638H22.088L21.5857 9.11427L21.3586 9.32181V9.92638H21.0984V7.71714ZM22.6444 8.32322H22.9196V9.92638H22.6444V8.32322ZM22.6444 7.71714H22.9196V8.02394H22.6444V7.71714ZM23.3844 7.86603H23.6581V8.3157H23.9152V8.53677H23.6581V9.588C23.6581 9.64415 23.6771 9.68174 23.7152 9.70079C23.7363 9.71182 23.7714 9.71734 23.8205 9.71734C23.8335 9.71734 23.8476 9.71734 23.8626 9.71734C23.8776 9.71633 23.8952 9.71483 23.9152 9.71283V9.92638C23.8842 9.9354 23.8516 9.94192 23.8175 9.94593C23.7844 9.94994 23.7483 9.95195 23.7092 9.95195C23.5829 9.95195 23.4971 9.91986 23.452 9.8557C23.4069 9.79053 23.3844 9.70631 23.3844 9.60304V8.53677H23.1663V8.3157H23.3844V7.86603Z" fill="white"/>
</g>
<defs>
<clipPath id="clip0_526_23364">
<rect width="31" height="17" fill="white" transform="translate(0 0.235168)"/>
</clipPath>
</defs>
</svg>
