<svg width="33" height="32" viewBox="0 0 33 32" fill="none" xmlns="http://www.w3.org/2000/svg">
<path d="M24.0283 29.9752C23.7007 30.1047 23.3437 30.1488 22.993 30.1029C18.5909 29.5305 14.4035 27.9111 10.8048 25.3891C7.11593 22.7797 4.18258 19.2943 2.28714 15.2685C2.13995 14.9531 2.08157 14.6056 2.11793 14.2613C2.1543 13.917 2.28412 13.5881 2.4942 13.3082C5.24758 9.66504 8.94114 6.78707 13.2046 4.96278C17.4681 3.13849 22.1517 2.43197 26.786 2.91406C27.1477 2.95394 27.4917 3.08764 27.7815 3.30107C28.0714 3.51449 28.2965 3.79973 28.433 4.12671C30.1734 8.33557 30.7382 12.9144 30.0707 17.402C29.4057 21.7499 27.6116 25.8629 24.8566 29.3552C24.6417 29.629 24.356 29.8429 24.0283 29.9752Z" fill="url(#paint0_linear_544_36218)"/>
<path d="M24.0284 20.9488L23.8213 20.9032C23.6859 20.8571 23.5612 20.7857 23.4544 20.693C23.3475 20.6002 23.2605 20.488 23.1985 20.3627C23.1364 20.2373 23.1005 20.1014 23.0927 19.9626C23.0849 19.8238 23.1054 19.6849 23.1531 19.5538C23.4919 18.6146 23.1719 18.1861 23.0684 18.0493C22.2307 16.9005 19.3696 16.8002 18.1837 16.8093C15.2755 16.8276 13.3272 16.1346 12.386 14.7488C11.4449 13.3629 11.8119 11.8858 12.1413 11.1746C12.2691 10.9363 12.4856 10.754 12.747 10.6647C13.0083 10.5753 13.295 10.5856 13.5488 10.6935C13.8027 10.8014 14.0046 10.9987 14.1138 11.2455C14.2229 11.4924 14.2311 11.7702 14.1366 12.0226C14.1272 12.0499 13.7602 12.9435 14.2119 13.5999C14.6637 14.2564 16.1131 14.7123 18.1649 14.6941C21.5437 14.6758 23.7837 15.387 24.8472 16.8185C25.5531 17.7758 25.6755 18.9611 25.2049 20.2558C25.1222 20.4856 24.9597 20.6804 24.745 20.8069C24.5304 20.9333 24.277 20.9835 24.0284 20.9488Z" fill="white"/>
<path opacity="0.7" d="M15.3415 9.88905C16.3048 9.57407 17.318 9.42592 18.3344 9.4514C20.5932 9.51523 21.9297 10.2538 23.3415 12.0408C23.4857 12.225 23.6923 12.3541 23.925 12.4055C24.1313 12.4562 24.3488 12.4429 24.5468 12.3674C24.7449 12.292 24.9135 12.1582 25.0289 11.985C25.1443 11.8117 25.2006 11.6078 25.19 11.4019C25.1794 11.196 25.1023 10.9985 24.9697 10.8373C22.7203 7.99258 20.3956 7.5367 18.4003 7.47287C17.104 7.43494 15.8117 7.62969 14.5885 8.04729C14.4528 8.08722 14.3272 8.15398 14.2194 8.24334C14.1117 8.3327 14.0243 8.44272 13.9627 8.56647C13.9011 8.69021 13.8666 8.82498 13.8615 8.96228C13.8564 9.09957 13.8807 9.2364 13.9329 9.36414C13.9851 9.49187 14.0641 9.60772 14.1649 9.70439C14.2657 9.80105 14.386 9.87643 14.5184 9.92576C14.6508 9.97508 14.7922 9.99729 14.9339 9.99097C15.0756 9.98465 15.2143 9.94995 15.3415 9.88905Z" fill="white"/>
<path opacity="0.7" d="M21.9673 21.5688C21.0018 21.8884 19.9847 22.0367 18.9649 22.0064C16.7061 21.9426 14.852 21.0035 13.4402 19.2164C13.3652 19.0985 13.2655 18.9971 13.1477 18.9187C13.0298 18.8402 12.8963 18.7866 12.7557 18.7611C12.6152 18.7356 12.4707 18.7388 12.3315 18.7706C12.1924 18.8024 12.0616 18.862 11.9476 18.9456C11.8336 19.0292 11.7389 19.135 11.6696 19.2562C11.6003 19.3773 11.5579 19.5112 11.5451 19.6491C11.5323 19.7871 11.5495 19.9261 11.5954 20.0573C11.6414 20.1885 11.7151 20.3089 11.812 20.4108C13.4308 22.4714 15.3696 23.3832 17.0731 23.757C17.6759 23.8899 18.2905 23.9663 18.9084 23.9849C20.2019 24.0275 21.4921 23.8326 22.7108 23.4105C22.9629 23.315 23.1655 23.1264 23.2741 22.8861C23.3826 22.6459 23.3882 22.3737 23.2896 22.1295C23.191 21.8853 22.9963 21.689 22.7483 21.5838C22.5003 21.4787 22.2194 21.4732 21.9673 21.5688Z" fill="white"/>
<defs>
<linearGradient id="paint0_linear_544_36218" x1="2.10832" y1="16.4446" x2="30.3436" y2="16.4446" gradientUnits="userSpaceOnUse">
<stop stop-color="#007C42"/>
<stop offset="1" stop-color="#6CCE7A"/>
</linearGradient>
</defs>
</svg>
