<svg width="31" height="29" viewBox="0 0 31 29" fill="none" xmlns="http://www.w3.org/2000/svg">
<g clip-path="url(#clip0_544_35446)">
<path d="M23.11 28.0578L5.16116 27.5398C2.98814 27.4457 0.482105 24.8291 0.513475 22.6449L0.599141 4.38583C0.630512 2.1943 3.08949 0.120049 5.25527 0.143259L22.9628 0.802916C25.1201 0.834678 27.596 2.85396 27.5646 5.03816V23.682C27.5646 26.0617 25.6945 28.0578 23.11 28.0578Z" fill="url(#paint0_radial_544_35446)" stroke="#2C2C2C" stroke-width="0.97" stroke-miterlimit="10"/>
<path d="M2.05762 21.2145L4.91355 20.5157C5.02938 20.8614 5.48788 21.7177 5.89087 22.0635C6.29386 22.4092 7.42683 22.5973 8.17972 22.5264C8.93262 22.4556 9.30545 21.7874 9.34406 21.2926C9.37543 20.8052 9.14256 20.4595 8.69975 20.2323C8.25694 20.0051 7.76104 19.8707 7.06244 19.6594C6.36384 19.4554 5.11505 19.172 4.12929 18.4964C3.15197 17.8209 2.91066 16.2731 2.90342 15.7234C2.89618 15.1737 3.02769 14.3638 3.37639 13.775C3.72629 13.1776 4.8665 11.8889 7.13242 11.8889C9.39835 11.8889 10.3455 12.6194 10.8643 13.0433C11.3844 13.4671 12.2145 14.9844 12.2145 14.9844L9.60709 15.9348C9.16428 14.6228 8.34261 14.1744 7.21688 14.1744C6.09116 14.1744 5.82813 14.8976 5.82813 15.3288C5.82813 15.7613 6.07668 16.2792 7.1469 16.5626C8.21712 16.8461 9.98715 17.2932 10.833 17.8429C11.6788 18.3926 12.4546 19.5323 12.4546 20.8602C12.4546 22.1881 11.943 22.9112 11.5002 23.406C11.0574 23.8934 9.98715 25.0246 7.70554 25.0246C5.5108 25.0173 3.29193 24.0351 2.05762 21.2145ZM21.8996 20.8846C21.8996 20.8846 22.3267 15.5109 17.3677 15.5109C12.8829 15.5109 13.053 20.17 13.053 20.4913C13.053 21.835 13.8289 25.2836 17.6163 25.2836C21.4037 25.2836 21.8996 22.0622 21.8996 22.0622L19.3151 21.7556C19.1908 22.0854 18.935 23.2716 17.7248 23.2716C16.5147 23.2716 16.1262 22.2821 16.0332 21.9596C15.9403 21.6371 15.9633 20.8834 15.9633 20.8834L21.8996 20.8846ZM15.9403 19.3283C15.9403 19.3283 15.8704 17.2932 17.609 17.2932C19.3477 17.2932 19.2306 19.3283 19.2306 19.3283H15.9403Z" fill="white" stroke="#2C2C2C" stroke-width="0.49" stroke-miterlimit="10"/>
<path d="M1.49072 6.27929V15.3215C1.49072 15.3215 2.54647 20.0979 5.85124 20.1919C9.15602 20.286 21.5112 20.7966 22.6285 20.7417C23.7458 20.6867 26.6874 19.1316 26.6874 16.1143V7.16738C26.6874 5.4315 25.6944 2.05259 21.907 1.8718C18.1208 1.691 7.48131 1.41615 6.27957 1.41615C4.31529 1.4076 1.49072 2.16987 1.49072 6.27929Z" fill="url(#paint1_radial_544_35446)"/>
<path d="M12.9604 7.64628L18.1668 14.2856L30.4351 3.94609L28.7435 0.504883L18.5553 9.28809L14.9235 5.13225L12.9604 7.64628Z" fill="url(#paint2_linear_544_35446)" stroke="#0C0000" stroke-width="0.65" stroke-miterlimit="10"/>
<path d="M13.2476 7.57543L18.3308 12.2419L26.6573 5.60257L25.6957 3.37073L18.5335 9.54585L14.9247 5.4291L13.2476 7.57543Z" fill="url(#paint3_radial_544_35446)"/>
</g>
<defs>
<radialGradient id="paint0_radial_544_35446" cx="0" cy="0" r="1" gradientUnits="userSpaceOnUse" gradientTransform="translate(3.71859 26.2711) scale(21.7732 22.0443)">
<stop stop-color="#2B2B2B"/>
<stop offset="1" stop-color="#838383"/>
</radialGradient>
<radialGradient id="paint1_radial_544_35446" cx="0" cy="0" r="1" gradientUnits="userSpaceOnUse" gradientTransform="translate(9.49002 -1.57639) scale(21.04 21.302)">
<stop stop-color="white" stop-opacity="0.8"/>
<stop offset="1" stop-color="white" stop-opacity="0.2"/>
</radialGradient>
<linearGradient id="paint2_linear_544_35446" x1="14.0131" y1="14.8556" x2="24.0757" y2="3.16997" gradientUnits="userSpaceOnUse">
<stop stop-color="#227716"/>
<stop offset="1" stop-color="#20B228"/>
</linearGradient>
<radialGradient id="paint3_radial_544_35446" cx="0" cy="0" r="1" gradientUnits="userSpaceOnUse" gradientTransform="translate(18.6587 10.659) rotate(-38.5435) scale(6.91548 19.7243)">
<stop stop-color="white" stop-opacity="0.4"/>
<stop offset="0.998" stop-color="white" stop-opacity="0"/>
</radialGradient>
<clipPath id="clip0_544_35446">
<rect width="30" height="28" fill="white" transform="translate(0.471191 0.100525)"/>
</clipPath>
</defs>
</svg>
