<svg width="33" height="33" viewBox="0 0 33 33" fill="none" xmlns="http://www.w3.org/2000/svg">
<g clip-path="url(#clip0_544_35348)">
<path fill-rule="evenodd" clip-rule="evenodd" d="M7.54368 3.51736L16.5612 2.57269L25.5788 3.51736L32.5606 12.8044L16.5619 31.266L0.5625 12.8044L7.54368 3.51736Z" fill="#FDB300"/>
<path fill-rule="evenodd" clip-rule="evenodd" d="M7.04327 12.9161L16.5619 31.2667L0.5625 12.9161H7.04327Z" fill="#EA6C00"/>
<path fill-rule="evenodd" clip-rule="evenodd" d="M26.0817 12.9161L16.5625 31.2667L32.5625 12.9161H26.0817Z" fill="#EA6C00"/>
<path fill-rule="evenodd" clip-rule="evenodd" d="M6.89795 12.9161H25.8973L16.3976 31.2667L6.89795 12.9161Z" fill="#FDAD00"/>
<path fill-rule="evenodd" clip-rule="evenodd" d="M16.2373 2.57269L7.3889 3.52745L6.89795 12.9154L16.2373 2.57269Z" fill="#FDD231"/>
<path fill-rule="evenodd" clip-rule="evenodd" d="M16.5527 2.57269L25.4011 3.52745L25.8921 12.9154L16.5527 2.57269Z" fill="#FDD231"/>
<path fill-rule="evenodd" clip-rule="evenodd" d="M32.5625 12.9161L25.5624 3.57355L26.0647 12.9161H32.5625Z" fill="#FDAD00"/>
<path fill-rule="evenodd" clip-rule="evenodd" d="M0.562988 12.9162L7.56247 3.57367L7.06016 12.9162H0.562988Z" fill="#FDAD00"/>
<path fill-rule="evenodd" clip-rule="evenodd" d="M16.3981 2.57275L6.89844 12.9155H25.8978L16.3981 2.57275Z" fill="#FEEEB7"/>
</g>
<defs>
<clipPath id="clip0_544_35348">
<rect width="32" height="32" fill="white" transform="translate(0.5625 0.919678)"/>
</clipPath>
</defs>
</svg>
