<svg width="24" height="25" viewBox="0 0 24 25" fill="none" xmlns="http://www.w3.org/2000/svg">
<g clip-path="url(#clip0_526_23352)">
<path d="M21.8248 1.54241C21.4887 2.34836 21.0583 3.11167 20.5427 3.81641C19.4171 2.68611 18.078 1.79084 16.6033 1.18266C15.1286 0.574488 13.5477 0.26554 11.9526 0.273781C10.3574 0.282023 8.7798 0.60729 7.31147 1.23067C5.84315 1.85405 4.51339 2.76311 3.39952 3.90499C2.28566 5.04687 1.4099 6.39878 0.823171 7.88214C0.236442 9.36549 -0.0495506 10.9507 -0.0181801 12.5456C0.0131903 14.1404 0.361298 15.7131 1.0059 17.1723C1.65051 18.6314 2.57875 19.9478 3.73666 21.045L4.18141 21.4377C5.87862 22.8677 7.93835 23.8004 10.1327 24.1326C12.3271 24.4647 14.5706 24.1833 16.615 23.3196C18.6594 22.4558 20.425 21.0434 21.7165 19.2385C23.008 17.4336 23.775 15.3066 23.9327 13.0928C24.2608 10.029 23.3612 6.15154 21.8252 1.54279L21.8248 1.54241ZM5.44854 21.1148C5.32047 21.273 5.14834 21.3897 4.95393 21.4501C4.75952 21.5105 4.55157 21.5119 4.35638 21.4541C4.16119 21.3962 3.98754 21.2818 3.8574 21.1253C3.72726 20.9687 3.64647 20.7771 3.62527 20.5746C3.60406 20.3722 3.64338 20.168 3.73826 19.9879C3.83314 19.8078 3.97931 19.6598 4.15828 19.5628C4.33725 19.4658 4.54098 19.424 4.74368 19.4428C4.94639 19.4616 5.13896 19.5401 5.29704 19.6684C5.50878 19.8402 5.64366 20.0891 5.67207 20.3603C5.70047 20.6314 5.62008 20.9028 5.44854 21.1148ZM21.7753 17.511C18.8053 21.4673 12.464 20.1323 8.39829 20.3243C8.39829 20.3243 7.67754 20.3667 6.95191 20.4855C6.95191 20.4855 7.22566 20.3693 7.57554 20.2369C10.4308 19.2432 11.7804 19.0519 13.5148 18.1594C16.7803 16.4993 20.0105 12.8637 20.6818 9.08441C19.4394 12.72 15.6669 15.8464 12.233 17.1162C9.87954 17.9835 5.62779 18.8284 5.62779 18.8284L5.45641 18.7365C2.56366 17.3303 2.47441 11.0652 7.73529 9.04466C10.0389 8.15741 12.2428 8.64454 14.7305 8.05091C17.387 7.41979 20.4605 5.42966 21.7112 2.83241C23.1099 6.98741 24.7952 13.4907 21.7734 17.5137L21.7753 17.511Z" fill="#68BD45"/>
</g>
<defs>
<clipPath id="clip0_526_23352">
<rect width="24" height="24" fill="white" transform="translate(0 0.280518)"/>
</clipPath>
</defs>
</svg>
