<svg width="30" height="31" viewBox="0 0 30 31" fill="none" xmlns="http://www.w3.org/2000/svg">
<g clip-path="url(#clip0_531_23851)">
<path d="M22.7025 1.89733H3.87866C2.6155 1.89733 1.59033 2.93166 1.59033 4.18566V24.9454C1.59033 26.2085 2.62466 27.2337 3.87866 27.2337H16.2814C16.1441 21.0644 18.2494 9.09184 22.707 1.87903L22.7025 1.89733Z" fill="#0F80CC"/>
<path d="M22.0159 2.5701H3.87862C2.9816 2.5701 2.25391 3.30236 2.25391 4.19481V23.4397C6.36375 21.8607 12.5285 20.5014 16.794 20.5655C18.1089 14.4511 19.8509 8.4376 22.0159 2.5701Z" fill="url(#paint0_linear_531_23851)"/>
<path d="M27.0959 1.21998C25.8053 0.0758117 24.2447 0.533477 22.7023 1.89732L22.0158 2.56551C19.3797 5.35728 16.9815 10.5381 16.176 14.4969C16.463 15.1238 16.6898 15.7767 16.8534 16.4465L16.9541 16.9042L17.0547 17.371C17.0547 17.371 17.0319 17.2795 16.9358 17.0049L16.8717 16.8218C16.8588 16.7879 16.8451 16.7543 16.8305 16.7211C16.6566 16.3229 16.1898 15.4763 15.9747 15.1101C15.8081 15.5968 15.651 16.0866 15.5033 16.5792C16.1074 17.6868 16.4735 19.5815 16.4735 19.5815C16.4735 19.5815 16.4415 19.458 16.2904 19.0323C16.1531 18.6525 15.485 17.4763 15.3293 17.2017C15.0547 18.2085 14.9495 18.8859 15.0456 19.0506C15.2287 19.371 15.4117 19.966 15.5719 20.5335C15.8191 21.5399 16.0206 22.5569 16.176 23.5815L16.1989 23.8653C16.1515 25.0098 16.1744 26.1561 16.2676 27.2978C16.3866 28.7303 16.6108 29.9614 16.8946 30.6204L17.0868 30.5152C16.6749 29.2154 16.501 27.5175 16.5742 25.5541C16.6886 22.5564 17.3751 18.9408 18.652 15.1742C20.8168 9.43965 23.8007 4.87215 26.5376 2.69366C24.0433 4.94538 20.6703 12.2314 19.6634 14.9271C18.533 17.9477 17.7321 20.7852 17.247 23.4992C18.0799 20.9545 20.771 19.8561 20.771 19.8561C20.771 19.8561 22.0982 18.2268 23.636 15.8973L20.684 16.6845L19.7321 17.1056C19.7321 17.1056 22.1577 15.6273 24.2493 14.9545C27.1188 10.4374 30.2447 4.01631 27.0959 1.2154" fill="#003B57"/>
</g>
<defs>
<linearGradient id="paint0_linear_531_23851" x1="13.6544" y1="2.99573" x2="13.6544" y2="22.2818" gradientUnits="userSpaceOnUse">
<stop stop-color="#97D9F6"/>
<stop offset="0.92024" stop-color="#0F80CC"/>
<stop offset="1" stop-color="#0F80CC"/>
</linearGradient>
<clipPath id="clip0_531_23851">
<rect width="30" height="30" fill="white" transform="translate(0 0.570099)"/>
</clipPath>
</defs>
</svg>
