<svg width="21" height="26" viewBox="0 0 21 26" fill="none" xmlns="http://www.w3.org/2000/svg">
<g clip-path="url(#clip0_509_24927)">
<path d="M19.6514 4.08567C17.3181 0.759402 12.6728 -0.215174 9.33335 1.88228L3.4465 5.6111C1.84099 6.60686 0.727841 8.23822 0.40674 10.0814C0.128453 11.628 0.363927 13.217 1.11316 14.5941C0.599401 15.3569 0.256893 16.2043 0.107046 17.0941C-0.235462 18.9797 0.21408 20.9289 1.32723 22.4755C3.68197 25.8018 8.30582 26.7764 11.6453 24.6789L17.5321 20.9713C19.1376 19.9755 20.2508 18.3441 20.5719 16.5009C20.8502 14.9543 20.6147 13.3653 19.8655 11.9882C20.3792 11.2255 20.7217 10.378 20.8716 9.48822C21.2355 7.58144 20.7859 5.63228 19.6514 4.08567Z" fill="#FF3E00"/>
<path d="M8.75512 22.7933C6.84992 23.2806 4.85909 22.539 3.74594 20.9501C3.06093 20.0179 2.80405 18.8526 2.99671 17.7085C3.03952 17.5179 3.08234 17.3484 3.12515 17.1577L3.23218 16.8187L3.53188 17.0306C4.2383 17.539 5.00894 17.9204 5.8438 18.1746L6.05787 18.2382L6.03646 18.4501C6.01506 18.7467 6.10068 19.0645 6.27194 19.3187C6.61445 19.806 7.21384 20.039 7.79182 19.8907C7.92026 19.8484 8.0487 19.806 8.15573 19.7424L14.0212 16.0348C14.3209 15.8441 14.5135 15.5687 14.5777 15.2297C14.642 14.8907 14.5563 14.5306 14.3637 14.2551C14.0212 13.7679 13.4218 13.556 12.8438 13.7043C12.7154 13.7467 12.5869 13.789 12.4799 13.8526L10.2322 15.2721C9.86827 15.5051 9.46154 15.6746 9.03341 15.7806C7.12821 16.2679 5.13738 15.5263 4.02423 13.9373C3.36062 13.0051 3.08234 11.8399 3.2964 10.6958C3.48906 9.59413 4.17408 8.59837 5.13738 8.00515L11.0242 4.29752C11.3881 4.06447 11.7949 3.89498 12.223 3.76786C14.1282 3.28057 16.119 4.02209 17.2322 5.61108C17.9172 6.54328 18.1741 7.70853 17.9814 8.8526C17.9386 9.04328 17.8958 9.21277 17.8316 9.40345L17.7245 9.74243L17.4248 9.53057C16.7184 9.02209 15.9478 8.64074 15.1129 8.3865L14.8989 8.32294L14.9203 8.11108C14.9417 7.81447 14.856 7.49667 14.6848 7.24243C14.3423 6.75515 13.7429 6.54328 13.1649 6.69159C13.0365 6.73396 12.908 6.77633 12.801 6.83989L6.93555 10.5475C6.63585 10.7382 6.44319 11.0136 6.37897 11.3526C6.31475 11.6916 6.40038 12.0518 6.59304 12.3272C6.93555 12.8145 7.53494 13.0263 8.11292 12.878C8.24136 12.8357 8.3698 12.7933 8.47683 12.7297L10.7245 11.3102C11.0885 11.0772 11.4952 10.9077 11.9233 10.7806C13.8285 10.2933 15.8193 11.0348 16.9325 12.6238C17.6175 13.556 17.8744 14.7212 17.6817 15.8653C17.4891 16.967 16.804 17.9628 15.8407 18.556L9.9539 22.2636C9.58998 22.4967 9.18325 22.6662 8.75512 22.7933Z" fill="white"/>
</g>
<defs>
<clipPath id="clip0_509_24927">
<rect width="21" height="25" fill="white" transform="translate(0 0.780579)"/>
</clipPath>
</defs>
</svg>
