<svg width="36" height="41" viewBox="0 0 36 41" fill="none" xmlns="http://www.w3.org/2000/svg">
<path d="M27.793 16.016C27.793 21.5557 23.3182 26.0465 17.7979 26.0465C12.2779 26.0465 7.80322 21.5557 7.80322 16.016C7.80322 10.4772 12.2777 5.98691 17.7979 5.98691C23.3182 5.98691 27.793 10.4772 27.793 16.016Z" fill="black"/>
<path d="M22.1679 9.6978C21.1526 9.73267 20.2664 10.2951 19.6064 11.0713C18.8757 11.9234 18.3903 12.9332 18.0397 13.9649C17.4135 13.4495 16.9307 12.7826 15.9253 12.4925C15.1485 12.2684 14.3328 12.3607 13.5825 12.9215C13.2275 13.1878 12.9824 13.59 12.866 13.9693C12.5645 14.9526 13.1829 15.8285 13.4638 16.1424L14.0781 16.8025C14.2045 16.9322 14.5097 17.2698 14.3604 17.7537C14.2 18.2808 13.5672 18.6211 12.9183 18.421C12.6283 18.3317 12.212 18.1152 12.3054 17.8106C12.3437 17.6856 12.4328 17.5915 12.4807 17.4849C12.5242 17.3918 12.5454 17.3227 12.5588 17.2811C12.6773 16.8932 12.5151 16.388 12.1008 16.2594C11.7139 16.1403 11.3182 16.2347 11.1648 16.7342C10.9907 17.3018 11.2616 18.3321 12.7119 18.7803C14.4112 19.3052 15.848 18.3763 16.052 17.1661C16.1805 16.408 15.8391 15.8441 15.2142 15.12L14.7047 14.5543C14.3964 14.2451 14.2905 13.7179 14.6097 13.3128C14.8792 12.9709 15.2627 12.8253 15.8913 12.9966C16.8091 13.2463 17.2178 13.8853 17.9 14.4007C17.6188 15.3283 17.4343 16.2592 17.2678 17.0938L17.1655 17.7164C16.6779 20.283 16.3055 21.6928 15.3377 22.5021C15.1428 22.6414 14.864 22.8495 14.4442 22.8646C14.2235 22.8712 14.1524 22.719 14.1494 22.6525C14.1446 22.4978 14.2747 22.4264 14.3611 22.357C14.4907 22.2862 14.6862 22.1687 14.6726 21.7926C14.6587 21.3484 14.2918 20.963 13.7618 20.9805C13.3645 20.9939 12.7593 21.3688 12.7821 22.0555C12.8055 22.765 13.4641 23.2963 14.4575 23.2627C14.9884 23.2444 16.1743 23.028 17.3425 21.6343C18.7025 20.0364 19.083 18.2051 19.3692 16.8646L19.6888 15.0946C19.8655 15.1159 20.0557 15.1304 20.2621 15.1354C21.9559 15.1713 22.8028 14.2913 22.8156 13.6507C22.8243 13.2631 22.5625 12.8813 22.1956 12.8904C21.9334 12.8977 21.6039 13.0732 21.5251 13.4371C21.4474 13.7939 22.0639 14.1164 21.5821 14.4302C21.24 14.6523 20.6267 14.8086 19.7627 14.6818L19.9197 13.8105C20.2403 12.1584 20.6358 10.1265 22.136 10.0768C22.2456 10.0716 22.6452 10.0814 22.6547 10.3472C22.6572 10.4353 22.6352 10.4586 22.5319 10.6614C22.4264 10.8195 22.3868 10.9547 22.392 11.1092C22.4062 11.5305 22.7258 11.8081 23.1888 11.792C23.8077 11.7712 23.9852 11.1668 23.9751 10.8561C23.9491 10.1256 23.1822 9.66418 22.1679 9.6978Z" fill="white"/>
<path d="M21.5089 30.2223C22.5183 30.2223 23.1957 30.9545 23.1957 31.9671C23.1957 32.9217 22.5055 33.7122 21.5089 33.7122C20.506 33.7122 19.8154 32.9217 19.8154 31.9671C19.8156 30.9545 20.4928 30.2223 21.5089 30.2223ZM21.5089 33.2157C22.2249 33.2157 22.5441 32.5622 22.5441 31.9671C22.5441 31.3335 22.1602 30.719 21.5089 30.719C20.8514 30.719 20.467 31.3335 20.467 31.9671C20.4672 32.5622 20.786 33.2157 21.5089 33.2157Z" fill="black"/>
<path d="M19.7315 30.5324V30.3005H18.8522V29.9838C18.8522 29.5329 18.9172 29.1926 19.4446 29.1926C19.4547 29.1926 19.4647 29.1933 19.4749 29.1937C19.4759 29.1937 19.4759 29.1922 19.4773 29.1922C19.6231 29.2031 19.745 29.0833 19.7534 28.9365L19.7643 28.7353C19.6404 28.7154 19.5098 28.6958 19.3538 28.6958C18.4489 28.6958 18.2403 29.2253 18.2403 30.036V30.3005H17.4585V30.5593C17.4783 30.6934 17.5929 30.7968 17.7324 30.7968C17.7331 30.7968 17.7338 30.7975 17.7346 30.7975H18.2403V33.6337H18.5777C18.5784 33.6337 18.5781 33.6333 18.5788 33.6333C18.7187 33.6333 18.8336 33.5282 18.8523 33.3926V30.7973H19.4647C19.6092 30.7926 19.7249 30.6771 19.7315 30.5324Z" fill="black"/>
<path d="M11.5772 30.3005C11.5759 30.3005 11.5754 30.3012 11.5739 30.3012C11.4447 30.3012 11.3198 30.3903 11.2655 30.5104L10.4228 33.0589H10.4098L9.58593 30.5119C9.53211 30.391 9.40646 30.3012 9.27672 30.3012C9.27547 30.3012 9.27494 30.3005 9.27351 30.3005H8.84668L9.97337 33.4116C10.0128 33.5226 10.0908 33.6927 10.0908 33.7644C10.0908 33.8297 9.90832 34.588 9.36102 34.588C9.34747 34.588 9.33393 34.5865 9.32038 34.5854C9.18084 34.5778 9.07533 34.6756 9.05181 34.8262L9.03523 35.0388C9.14591 35.0583 9.25694 35.0846 9.45244 35.0846C10.2598 35.0846 10.5009 34.3458 10.7288 33.7056L11.9534 30.3003H11.5772V30.3005Z" fill="black"/>
<path d="M7.68516 30.9777C7.17938 30.7182 6.62637 30.5417 6.61657 30.0197C6.61817 29.4646 7.12609 29.319 7.51763 29.3197C7.51924 29.3194 7.52102 29.3194 7.52173 29.3194C7.69175 29.3194 7.82773 29.3362 7.96033 29.3655C7.96229 29.3655 7.96193 29.3634 7.96407 29.3634C8.10433 29.3736 8.22195 29.2634 8.2387 29.1248L8.24975 28.9233C7.9933 28.8594 7.7249 28.8269 7.49161 28.8269C6.64027 28.832 6.00849 29.2622 6.00635 30.0819C6.00742 30.7991 6.48914 31.0766 7.00686 31.3286C7.51496 31.5735 8.07118 31.7761 8.07599 32.3675C8.07278 32.985 7.47932 33.2129 7.07013 33.2134C6.83078 33.2127 6.57094 33.1526 6.35227 33.0834C6.21504 33.0607 6.10259 33.1823 6.08494 33.3429L6.06641 33.5224C6.36724 33.6203 6.67573 33.705 6.98583 33.705C6.98583 33.705 6.98619 33.705 6.98672 33.705C6.98761 33.705 6.98833 33.705 6.98975 33.705C7.94322 33.698 8.68407 33.3166 8.68692 32.326C8.6855 31.5615 8.20074 31.2408 7.68516 30.9777Z" fill="black"/>
<path d="M16.945 33.6338C16.9453 33.6338 16.9453 33.6335 16.9457 33.6335C17.0779 33.6335 17.1879 33.5408 17.2162 33.4162V31.4969C17.2162 30.7714 16.9102 30.2223 16.063 30.2223C15.7636 30.2223 15.2624 30.3924 15.0345 30.8695C14.8584 30.4183 14.4744 30.2223 14.0901 30.2223C13.6014 30.2223 13.2694 30.3987 13.0352 30.7844H13.0221V30.5773C13.0199 30.4246 12.8971 30.3014 12.7446 30.3014C12.7435 30.3014 12.7428 30.3007 12.7417 30.3007H12.4487V33.634H12.7802C12.7806 33.634 12.7806 33.6337 12.7809 33.6337C12.9344 33.6337 13.0588 33.509 13.0588 33.3552C13.0588 33.3511 13.0602 33.3493 13.0611 33.3465V31.9546C13.0611 31.3335 13.3083 30.7191 13.9335 30.7191C14.4284 30.7191 14.5266 31.2354 14.5266 31.6471V33.6338H14.8625C14.8629 33.6338 14.8629 33.6335 14.8636 33.6335C15.0083 33.6335 15.1257 33.5221 15.1386 33.3803V31.9544C15.1386 31.3333 15.3861 30.719 16.0111 30.719C16.506 30.719 16.6039 31.2353 16.6039 31.647V33.6337L16.945 33.6338Z" fill="black"/>
<path d="M26.4056 33.6338C26.4063 33.6338 26.4063 33.6335 26.4066 33.6335C26.5556 33.6335 26.6761 33.5155 26.683 33.3677V31.6538C26.683 30.7585 26.2984 30.2223 25.4387 30.2223C24.9764 30.2223 24.5341 30.4511 24.3512 30.8304H24.3384V30.5813C24.3384 30.5809 24.3377 30.5809 24.3377 30.5802C24.3377 30.4262 24.2135 30.301 24.0602 30.301C24.0588 30.301 24.0581 30.3003 24.057 30.3003H23.7451V33.6337H24.0818C24.0818 33.6337 24.0818 33.6333 24.0825 33.6333C24.2279 33.6333 24.3462 33.5201 24.3578 33.3769V32.0912C24.3578 31.2812 24.6708 30.7188 25.3673 30.7188C25.9016 30.7517 26.0703 31.1306 26.0703 31.9081V33.6335H26.4056V33.6338Z" fill="black"/>
<path d="M29.7008 30.3005C29.6998 30.3005 29.6994 30.3012 29.6976 30.3012C29.5688 30.3012 29.4435 30.3903 29.3893 30.5104L28.5472 33.0589H28.5337L27.7098 30.5119C27.6558 30.391 27.5301 30.3012 27.4004 30.3012C27.3993 30.3012 27.3986 30.3005 27.3975 30.3005H26.9707L28.0974 33.4116C28.1364 33.5226 28.215 33.6927 28.215 33.7644C28.215 33.8297 28.0323 34.588 27.485 34.588C27.4715 34.588 27.458 34.5865 27.4442 34.5854C27.305 34.5778 27.1995 34.6756 27.1758 34.8262L27.1594 35.0388C27.2701 35.0583 27.3811 35.0846 27.5761 35.0846C28.384 35.0846 28.6249 34.3458 28.8529 33.7056L30.0774 30.3003H29.7008V30.3005Z" fill="black"/>
</svg>
