<svg width="29" height="30" viewBox="0 0 29 30" fill="none" xmlns="http://www.w3.org/2000/svg">
<path fill-rule="evenodd" clip-rule="evenodd" d="M7.25 12.4071C8.21652 8.54055 10.6335 6.60707 14.5 6.60707C20.3 6.60707 21.025 10.9571 23.925 11.6821C25.8585 12.1656 27.55 11.4406 29 9.50707C28.0335 13.3736 25.6165 15.3071 21.75 15.3071C15.95 15.3071 15.225 10.9571 12.325 10.2321C10.3915 9.74858 8.7 10.4736 7.25 12.4071ZM0 21.1071C0.966516 17.2406 3.38348 15.3071 7.25 15.3071C13.05 15.3071 13.775 19.6571 16.675 20.3821C18.6085 20.8656 20.3 20.1406 21.75 18.2071C20.7835 22.0736 18.3665 24.0071 14.5 24.0071C8.7 24.0071 7.975 19.6571 5.075 18.9321C3.14152 18.4486 1.45 19.1736 0 21.1071Z" fill="url(#paint0_linear_509_25084)"/>
<defs>
<linearGradient id="paint0_linear_509_25084" x1="7.20637e-07" y1="-8.85945" x2="29" y2="39.4736" gradientUnits="userSpaceOnUse">
<stop stop-color="#2383AE"/>
<stop offset="1" stop-color="#6DD7B9"/>
</linearGradient>
</defs>
</svg>
