<svg width="25" height="26" viewBox="0 0 25 26" fill="none" xmlns="http://www.w3.org/2000/svg">
<g clip-path="url(#clip0_526_23258)">
<path d="M10.833 14.3836L14.208 12.4254L17.5412 14.3836L14.208 16.3004L10.833 14.4254V14.3836ZM0.708008 8.59221L14.208 0.925415L24.2498 6.63362L20.9166 12.4254L14.2084 8.59221L4.0834 14.3422L0.708008 8.59221Z" fill="#F6BD3A"/>
<path d="M10.833 22.0504V18.2172L14.1662 16.3004L17.5412 14.3836V18.2168L14.208 20.1336V23.9668L10.833 25.9254V22.0504ZM10.833 14.3836L7.45801 12.4668L4.08301 14.3418V10.5086L14.208 4.75862V12.4254L10.833 14.3836ZM20.8748 10.5086V8.59182L24.2498 6.63362L24.2916 10.4668L20.9166 12.425L20.8748 10.5086Z" fill="#EB8C23"/>
<path d="M7.45801 23.8836V12.4672L10.7912 10.5922L10.833 14.384L14.208 16.259V20.134L10.833 18.3422V25.9254L7.45801 23.8836ZM2.3748 13.3422L0.708008 12.3422V8.59222L4.08301 10.509V14.3422L2.3748 13.3422ZM14.208 8.59222V4.75862L20.8748 8.59182L20.9166 12.425L14.2084 8.59182L14.208 8.59222Z" fill="#E35A2B"/>
</g>
<defs>
<clipPath id="clip0_526_23258">
<rect width="25" height="25" fill="white" transform="translate(0 0.925415)"/>
</clipPath>
</defs>
</svg>
