<svg width="27" height="28" viewBox="0 0 27 28" fill="none" xmlns="http://www.w3.org/2000/svg">
<g clip-path="url(#clip0_531_24130)">
<path d="M6.45019 12.5546C6.45019 12.5546 2.24926 15.5115 2.08496 16.638L2.40019 16.5732C2.40019 16.5732 7.43083 13.2387 11.4186 12.8337L11.509 12.3274L6.45032 12.556L6.45019 12.5546ZM13.0449 12.1321L9.73743 14.479L9.91631 14.6225C10.0513 14.5137 15.7942 12.7598 15.7942 12.7598L17.0052 12.0007C16.1927 12.102 13.0467 12.1321 13.0467 12.1321H13.0449ZM15.9207 14.9708C18.2704 14.9708 21.7925 12.6696 21.7925 12.6696L20.6539 12.453C20.5976 12.5093 18.8179 12.3906 18.8179 12.3906L17.9731 12.156L15.9549 14.4558L15.7906 14.8549C15.9357 14.7959 15.9208 14.971 15.9208 14.971L15.9207 14.9708ZM23.5882 22.3097L22.8623 22.5141L19.5085 22.4416L17.4106 20.8101L14.8747 21.4446L11.9417 21.1908L10.2993 22.9855L7.21753 23.9062L5.6788 23.4291L5.60131 23.3624L6.29197 25.0536C6.29197 25.0536 7.85635 26.7308 8.73007 26.9281C9.60379 27.1253 11.1823 26.9139 12.3663 26.7306C13.5502 26.5472 14.4944 26.1231 14.8749 25.4342C15.2553 24.7452 15.3117 24.5461 15.3117 24.5461C15.3117 24.5461 16.4394 26.1387 17.4118 26.322C18.3842 26.5054 21.2735 25.5185 21.2735 25.5185C21.2735 25.5185 23.0352 25.0393 23.3452 24.4334C23.6551 23.8275 24.4728 21.8414 24.4728 21.8414L23.5882 22.3112V22.3097ZM6.00145 23.6875L5.95285 23.6651L5.68109 23.4308L6.00145 23.6875Z" fill="#CB3349"/>
<path d="M26.4372 10.3289L26.4102 10.0575L26.3812 9.86527C26.1392 9.66142 25.8642 9.48053 25.5777 9.31582C25.2672 9.13452 24.9427 8.97211 24.6111 8.82132L23.604 8.38837L23.0913 8.18898L22.5735 7.99674L23.6556 8.23164L24.3495 8.43103C22.7143 4.15761 18.805 1.37458 14.5367 1.37458C10.2684 1.37458 6.35882 4.15761 4.72411 8.43103C4.95401 8.35921 5.1854 8.29198 5.4176 8.23164C5.77576 8.13957 6.13621 8.05695 6.50003 7.99674L5.98163 8.18898L5.46742 8.38824C5.12722 8.5254 4.79026 8.66593 4.46032 8.82118C4.12957 8.97198 3.80462 9.13438 3.49426 9.31569C3.20806 9.48039 2.93306 9.66156 2.69006 9.86514C2.67994 9.92684 2.66981 9.99339 2.66306 10.0574C2.65226 10.1474 2.64214 10.238 2.63606 10.3287C2.62013 10.511 2.61365 10.6936 2.61217 10.8768C2.60852 11.2431 2.63323 11.6093 2.67967 11.9703C2.72962 12.3337 2.79631 12.6947 2.89499 13.0436C2.94359 13.2184 2.99867 13.3908 3.06239 13.5577C3.09439 13.641 3.12922 13.723 3.16553 13.8028C3.18345 13.842 3.20204 13.8809 3.22129 13.9195L3.24451 13.9637L3.32645 14.0042L3.48899 14.0819L3.80867 14.2304C3.81446 14.2255 3.82 14.2204 3.82528 14.215L3.52355 13.0657C3.58754 13.0482 4.16048 12.9003 5.14787 12.7124C5.06687 12.6973 4.98776 12.68 4.90865 12.6611C4.68388 12.6052 4.4618 12.5369 4.24715 12.45C4.13915 12.405 4.03547 12.3559 3.9353 12.2995C3.83513 12.242 3.73658 12.1769 3.66031 12.0905C4.74517 12.4444 6.98671 12.2841 8.97931 12.0783C10.8018 11.8907 12.6284 11.7688 14.4644 11.7651C16.3006 11.7688 18.1279 11.8907 19.9494 12.0783C21.9428 12.2842 24.1844 12.4446 25.2691 12.0905C25.1929 12.1769 25.0945 12.2421 24.9944 12.2995C24.8934 12.3555 24.7894 12.4058 24.6828 12.45C24.4679 12.5371 24.2462 12.6052 24.0213 12.6611C23.9879 12.6692 23.9543 12.6764 23.921 12.6835C25.0037 12.8844 25.6341 13.0476 25.7014 13.0656L25.4127 14.1591L25.5882 14.0816L25.7505 14.004L25.8324 13.9635L25.8549 13.9192C25.8748 13.8809 25.8937 13.842 25.9114 13.8026C25.9479 13.7229 25.9827 13.6405 26.0146 13.5574C26.0784 13.3905 26.1336 13.2181 26.182 13.0433C26.2805 12.6943 26.3473 12.3332 26.3973 11.9701C26.4439 11.6076 26.4683 11.2413 26.4648 10.8766C26.4634 10.6935 26.4567 10.5121 26.4405 10.3285L26.4372 10.3289Z" fill="#F4EDAE"/>
<path d="M15.7662 25.5265L15.336 25.5771L15.0579 25.5909L15.0253 25.5916L15.2845 25.0057L15.7662 25.5264V25.5265ZM16.0784 25.8448C16.5244 26.2865 17.0771 26.5395 17.6854 26.5846C16.6635 26.9996 15.7007 27.1597 14.9589 27.2097C14.2193 27.2592 13.4695 27.1719 12.7349 26.9707C12.7883 26.9607 12.842 26.9522 12.8959 26.9451C12.9563 26.9378 14.2737 26.7659 14.8676 25.8829H14.9233H15.0691C15.1677 25.8829 15.2575 25.8748 15.3518 25.8711C15.573 25.8519 15.7928 25.8202 16.0104 25.7762L16.0784 25.8437V25.8448Z" fill="#E6CCAD"/>
<path d="M17.3425 12.6218L17.201 12.8031C16.94 13.1331 16.5781 13.5551 16.1488 13.9678L14.6092 13.9439C13.7371 13.9439 12.9008 13.9668 12.1068 14.0056C13.2273 13.5398 14.5767 13.0852 16.0353 12.8119C16.4616 12.7312 16.8993 12.6667 17.3412 12.6218H17.3425ZM10.7755 13.1243C10.3751 13.4057 9.92272 13.7648 9.48411 14.2003C8.3609 14.3127 7.38108 14.4489 6.57256 14.5783C7.81551 14.0069 9.23382 13.4811 10.7755 13.123V13.1243ZM24.4996 15.4433L24.0428 18.6401L21.8542 20.1731L16.146 19.5241L15.2867 16.6945C15.2664 16.627 15.2084 16.575 15.1371 16.5636C14.9256 16.5294 14.7384 16.512 14.5825 16.512C14.4266 16.512 14.2396 16.5296 14.027 16.5636C13.9565 16.5752 13.8987 16.6257 13.8777 16.6945L13.0407 19.4553L7.36434 20.7185L5.11362 19.1423L4.67041 15.5551L4.96417 15.3931L5.4333 15.2981L5.85099 18.6829C5.85429 18.709 5.86304 18.7341 5.87667 18.7566C5.89029 18.7791 5.9085 18.7985 5.9301 18.8135L7.47747 19.8978C7.50933 19.9194 7.54713 19.931 7.58479 19.931C7.59829 19.931 7.61179 19.9297 7.6261 19.9266L12.293 18.8881C12.3092 18.8845 12.3248 18.8789 12.3395 18.8714C12.3615 18.8598 12.3809 18.844 12.3967 18.8248C12.4125 18.8056 12.4244 18.7835 12.4316 18.7598L13.2719 15.9925C13.4974 15.9345 14.0748 15.7995 14.5822 15.7995C15.0885 15.7995 15.6663 15.9345 15.8917 15.9925L16.7321 18.7598C16.7537 18.8316 16.8164 18.8829 16.8909 18.8916L21.5578 19.4218C21.6031 19.4268 21.6492 19.415 21.6864 19.3891L23.2348 18.3057C23.2555 18.2906 23.273 18.2715 23.2862 18.2496C23.2995 18.2277 23.3083 18.2034 23.3122 18.178L23.7255 15.2863L24.4995 15.4446L24.4996 15.4433ZM25.0761 13.4386L24.6743 14.9641C23.8527 14.7829 22.0477 14.4275 19.591 14.1882C20.3937 13.846 21.211 13.4167 21.9576 12.8787C23.4196 13.0853 24.4929 13.3067 25.0761 13.4386Z" fill="#656C67"/>
<path d="M8.61851 18.2068C8.93671 18.0348 9.29621 18.0603 9.86051 18.061L10.0495 18.0603L10.2193 18.0573C10.7993 18.0517 11.2818 18.1068 11.2732 17.196C11.2645 16.2853 10.8598 15.5493 10.2804 15.5551C9.70027 15.5601 9.13907 16.3063 9.17377 17.2164C9.18322 17.4535 9.21805 17.6245 9.27394 17.7479C8.76836 17.8746 8.62904 18.1872 8.62121 18.2069L8.61851 18.2068ZM15.5922 14.4605C15.3674 14.6428 15.1305 14.8115 14.8835 14.9617L14.0604 15.4585C13.5441 15.5214 13.0961 15.6491 13.0708 15.6565C13.0557 15.6606 13.0411 15.6673 13.028 15.6754C12.9881 15.6984 12.9578 15.7368 12.943 15.7826L12.1046 18.5447L7.62464 19.541L6.21362 18.5528L5.80322 15.2272C6.60458 15.0787 7.67621 14.9097 8.96222 14.7655C8.82425 14.9309 8.69033 15.1041 8.5633 15.2859L7.7969 16.3862L8.91281 15.6423C8.92942 15.6307 9.64006 15.1631 10.8025 14.5947C11.9611 14.5078 13.2397 14.4516 14.6079 14.4516L15.5907 14.4611L15.5922 14.4605Z" fill="#E5CAA3"/>
<path d="M20.4976 17.8335C20.4919 17.8119 20.37 17.4457 19.8304 17.5099C19.8925 17.3745 19.9203 17.1919 19.9006 16.9429C19.8294 16.0344 19.3008 15.3121 18.7214 15.3324C18.142 15.3526 17.7707 16.1059 17.8027 17.0169C17.8346 17.9268 18.3211 17.9206 18.9006 17.9002C19.6795 17.8858 20.1075 17.6464 20.4976 17.835V17.8335ZM23.3569 15.2165L22.953 18.044L21.5301 19.0403L17.0562 18.5319L16.2215 15.7829C16.2122 15.753 16.1957 15.7258 16.1735 15.7039C16.1512 15.6819 16.1239 15.6657 16.0939 15.6568C16.0662 15.6487 15.5123 15.4907 14.9248 15.4398L15.0321 15.4327C15.1249 15.4259 16.6681 15.2369 18.5107 14.6015C20.5512 14.7581 22.2175 15.0092 23.3568 15.2167L23.3569 15.2165Z" fill="#E5CAA3"/>
<path d="M8.61851 18.2068C8.93671 18.0348 9.29621 18.0603 9.86051 18.061L10.0495 18.0603L10.2193 18.0573C10.7993 18.0517 11.2818 18.1068 11.2732 17.196C11.2645 16.2853 10.8598 15.5493 10.2804 15.5551C9.70027 15.5601 9.13907 16.3063 9.17377 17.2164C9.18322 17.4535 9.21805 17.6245 9.27394 17.7479C8.76836 17.8746 8.62904 18.1872 8.62121 18.2069L8.61851 18.2068ZM15.5922 14.4605C15.3674 14.6428 15.1305 14.8115 14.8835 14.9617L14.0604 15.4585C13.5441 15.5214 13.0961 15.6491 13.0708 15.6565C13.0557 15.6606 13.0411 15.6673 13.028 15.6754C12.9881 15.6984 12.9578 15.7368 12.943 15.7826L12.1046 18.5447L7.62464 19.541L6.21362 18.5528L5.80322 15.2272C6.60458 15.0787 7.67621 14.9097 8.96222 14.7655C8.82425 14.9309 8.69033 15.1041 8.5633 15.2859L7.7969 16.3862L8.91281 15.6423C8.92942 15.6307 9.64006 15.1631 10.8025 14.5947C11.9611 14.5078 13.2397 14.4516 14.6079 14.4516L15.5907 14.4611L15.5922 14.4605Z" fill="#C7B39A"/>
<path d="M20.4976 17.8335C20.4919 17.8119 20.37 17.4457 19.8304 17.5099C19.8925 17.3745 19.9203 17.1919 19.9006 16.9429C19.8294 16.0344 19.3008 15.3121 18.7214 15.3324C18.142 15.3526 17.7707 16.1059 17.8027 17.0169C17.8346 17.9268 18.3211 17.9206 18.9006 17.9002C19.6795 17.8858 20.1075 17.6464 20.4976 17.835V17.8335ZM23.3569 15.2165L22.953 18.044L21.5301 19.0403L17.0562 18.5319L16.2215 15.7829C16.2122 15.753 16.1957 15.7258 16.1735 15.7039C16.1512 15.6819 16.1239 15.6657 16.0939 15.6568C16.0662 15.6487 15.5123 15.4907 14.9248 15.4398L15.0321 15.4327C15.1249 15.4259 16.6681 15.2369 18.5107 14.6015C20.5512 14.7581 22.2175 15.0092 23.3568 15.2167L23.3569 15.2165Z" fill="#C7B39A"/>
<path d="M25.3097 16.4602C25.3783 16.5169 25.4312 16.6632 25.3712 17.3455C25.2956 18.1809 24.9446 19.6472 24.7273 19.8835C24.4873 19.9299 23.9841 19.8748 23.6773 19.8032C23.7303 19.5926 23.7454 19.4919 23.7882 19.2767L24.3249 18.9014C24.3459 18.8867 24.3637 18.8678 24.3772 18.846C24.3906 18.8241 24.3995 18.7997 24.4032 18.7743L24.7782 16.1464C25.0058 16.2695 25.2399 16.4029 25.3098 16.4603L25.3097 16.4602ZM5.52638 19.89L5.61062 20.1735C5.32172 20.2582 4.73379 20.3395 4.46784 20.2931C4.24739 20.071 3.83604 18.5427 3.74627 17.731C3.67296 17.0736 3.7244 16.9313 3.79122 16.876C3.86885 16.8108 4.1595 16.6454 4.41128 16.5105L4.75148 19.2713C4.75796 19.3243 4.78617 19.3712 4.83059 19.4018L5.52651 19.8901L5.52638 19.89ZM16.3804 19.9286L16.3601 20.1048C16.3601 20.1048 15.7418 20.6782 14.7461 20.8068C13.7503 20.9353 12.9681 20.3232 12.9681 20.3232C13.0008 20.4296 13.0472 20.6697 13.2727 20.8748C13.0074 20.8431 12.7209 20.8217 12.4204 20.8217C12.3123 20.8219 12.2043 20.8246 12.0963 20.83C11.4834 20.862 10.6215 21.7885 10.0154 22.7219L7.7123 23.4289C6.7079 22.0384 6.21407 20.6152 6.16385 20.468L6.16452 20.4672L6.10512 20.296L6.36338 20.4767V20.4774L7.00139 20.9229L7.21469 21.0714C7.24655 21.0939 7.28421 21.1055 7.32188 21.1055C7.33571 21.1055 7.3495 21.1041 7.36305 21.1013L13.2268 19.7959C13.2925 19.7814 13.3456 19.732 13.3652 19.6676L14.2013 16.9136C14.3458 16.894 14.4724 16.8839 14.5812 16.8839C14.69 16.8839 14.8169 16.894 14.9613 16.9136L15.8217 19.7482C15.8436 19.82 15.906 19.8724 15.9797 19.8801L16.3806 19.926L16.3804 19.9286ZM23.075 19.7763L23.2643 19.6435L23.1635 20.0344C22.9002 20.8779 22.5897 21.6239 22.2448 22.283C22.1639 22.2885 22.0829 22.2913 22.0018 22.2912C21.7356 22.2912 21.4637 22.2687 21.1628 22.2413L19.55 22.0681L17.9111 20.77L17.843 20.7133C17.73 20.6178 17.6 20.5091 17.3412 20.5091C17.1049 20.5091 16.7596 20.5952 15.9237 20.8477C16.3573 20.5237 16.3601 20.1052 16.3601 20.1052L16.3804 19.929L21.8814 20.554C21.9268 20.559 21.9726 20.5475 22.0103 20.5215L23.0734 19.7766L23.075 19.7763Z" fill="#E6CCAD"/>
<path d="M19.0266 8.20288C19.0434 8.69226 19.0311 9.57907 18.8032 10.4095C18.794 10.4415 18.7954 10.4743 18.8032 10.5045L17.933 10.4235C18.2586 9.74121 18.3296 9.01464 18.345 8.75868C18.595 8.58088 18.844 8.36772 19.0268 8.20167L19.0266 8.20288ZM10.7268 8.75976C10.742 9.01572 10.813 9.7408 11.138 10.4226L10.2686 10.503C10.2765 10.4733 10.2774 10.4413 10.2686 10.4093C10.041 9.58042 10.0294 8.69293 10.0454 8.20275C10.228 8.3688 10.4774 8.58075 10.7271 8.75976H10.7268Z" fill="#EBD599"/>
<path d="M20.4978 17.8335C20.1063 17.6451 19.6797 17.8844 18.901 17.8989C18.3216 17.9191 17.835 17.9256 17.8032 17.0155C17.7712 16.1047 18.1424 15.3515 18.7219 15.331C19.3013 15.3105 19.8298 16.033 19.9011 16.9416C19.9207 17.1919 19.893 17.3745 19.8309 17.5086C20.3703 17.4442 20.4924 17.8103 20.4978 17.832V17.8335ZM18.6769 16.5C18.8403 16.4963 18.9705 16.3615 18.9677 16.1983C18.9649 16.035 18.83 15.904 18.666 15.9076C18.6271 15.9083 18.5887 15.9166 18.553 15.9321C18.5174 15.9477 18.4851 15.9701 18.4581 15.9981C18.4311 16.0261 18.4099 16.0592 18.3957 16.0954C18.3816 16.1316 18.3747 16.1703 18.3755 16.2092C18.3782 16.3723 18.5132 16.503 18.6769 16.5Z" fill="#2D3136"/>
<path d="M18.6766 16.4988C18.8401 16.4958 18.9703 16.3608 18.9673 16.1972C18.9643 16.0337 18.8293 15.9035 18.6658 15.9065C18.5022 15.9095 18.3721 16.0445 18.375 16.208C18.378 16.3716 18.5131 16.5018 18.6766 16.4988Z" fill="#EDF6FA"/>
<path d="M11.2705 17.196C11.279 18.1069 10.7966 18.0519 10.2167 18.0573L10.0468 18.0603C9.9843 18.062 9.92173 18.0622 9.85919 18.061C9.29651 18.0603 8.93673 18.0348 8.61719 18.2068C8.62502 18.1872 8.76569 17.8747 9.26991 17.7478C9.21402 17.6244 9.17906 17.4535 9.16974 17.2163C9.13505 16.3064 9.69624 15.5598 10.2763 15.555C10.8564 15.5501 11.2605 16.2853 11.2691 17.196H11.2705ZM10.3749 16.7195C10.5382 16.7154 10.6672 16.5787 10.6628 16.4157C10.6584 16.2519 10.5224 16.1228 10.3591 16.1273C10.1951 16.1313 10.0659 16.2677 10.0702 16.431C10.0745 16.595 10.2109 16.724 10.3748 16.7196L10.3749 16.7195Z" fill="#2D3136"/>
<path d="M10.3745 16.7201C10.5381 16.7159 10.6673 16.5799 10.6631 16.4163C10.6589 16.2527 10.5228 16.1234 10.3592 16.1276C10.1956 16.1318 10.0664 16.2679 10.0706 16.4315C10.0748 16.5951 10.2108 16.7243 10.3745 16.7201Z" fill="#EDF6FA"/>
<path opacity="0.8" d="M6.84454 11.0133C6.84454 11.0133 6.93458 9.8399 7.11859 9.39021C7.21336 9.15842 7.79305 9.01221 8.23585 8.90421C8.67865 8.79621 9.38443 8.58804 9.52159 9.20985C9.65875 9.83166 9.87974 10.2849 10.0273 10.4851L9.83776 7.92411L6.79054 8.66297L6.59033 10.9289L6.68524 11.1081L6.84319 11.0132M22.2555 11.0133C22.2555 11.0133 22.1656 9.8399 21.9814 9.39021C21.8865 9.15842 21.3068 9.01221 20.8643 8.90421C20.4218 8.79621 19.7168 8.58804 19.5783 9.20985C19.4398 9.83166 19.22 10.2849 19.0723 10.4851L19.2622 7.92411L22.3081 8.66175L22.5083 10.9279L22.4134 11.107L22.2555 11.0121" fill="#EBD599"/>
<path opacity="0.75" d="M17.9503 3.34842C17.9503 3.34842 17.8696 9.49092 16.4351 9.49092H12.7054C11.2709 9.49092 11.1551 3.35247 11.1551 3.35247L10.449 5.43525L10.4605 8.29495L10.961 8.6928L11.1884 9.92076L11.5066 10.6372L17.6467 10.6485L17.9309 10.1355L18.1698 9.27154L18.2041 8.72574L18.8822 6.78984L17.9491 3.34734L17.9503 3.34842ZM22.4681 9.07458C22.4681 9.07458 22.7633 11.193 23.5446 11.575L22.4507 11.2451L22.4682 9.07458H22.4681ZM6.60262 9.07458C6.60262 9.07458 6.30737 11.193 5.52599 11.575L6.62003 11.2451L6.60262 9.07458Z" fill="#EBD599"/>
<path d="M22.6785 11.2354C23.0504 11.3572 23.4245 11.4862 23.7633 11.6843C23.582 11.6124 23.3948 11.561 23.2063 11.5146L22.6393 11.3898L21.4921 11.2107L20.3384 11.0859L19.181 10.9982C17.6358 10.9032 16.0863 10.8794 14.537 10.8778C12.9868 10.8786 11.4372 10.9075 9.89304 10.9989C9.50667 11.0213 9.12151 11.0529 8.73582 11.0866C8.35032 11.1191 7.96564 11.1606 7.58211 11.2112C7.19776 11.2578 6.81558 11.3187 6.43488 11.3904C6.24442 11.4261 6.05507 11.4675 5.86707 11.5144C5.67807 11.5609 5.49136 11.6123 5.31006 11.6841C5.64756 11.4862 6.02286 11.3565 6.39546 11.2346C6.42678 11.2245 6.4585 11.2157 6.49036 11.2057C6.48834 11.1976 6.48604 11.1904 6.48456 11.1818C6.47808 11.139 6.34011 10.1207 6.57906 8.66472C6.59067 8.59506 6.64062 8.53849 6.70893 8.51959L7.10272 8.40754C7.18831 5.35317 8.44624 3.91663 8.48553 3.87235C7.36152 5.68095 7.37178 7.82596 7.39122 8.32546L9.8385 7.62994C9.84066 7.62927 9.84201 7.62927 9.84417 7.62859C9.85443 7.62643 9.86442 7.62495 9.87468 7.62427C9.87738 7.62427 9.88143 7.62346 9.8848 7.62346C9.89827 7.62299 9.91174 7.62422 9.9249 7.62711C9.92692 7.62711 9.92895 7.62846 9.93205 7.62927C9.94218 7.63143 9.95163 7.63494 9.96229 7.63939C9.96675 7.64155 9.96958 7.64385 9.9739 7.64614C9.98216 7.65072 9.99013 7.65576 9.9978 7.66126C9.99996 7.66261 10.0024 7.66342 10.0045 7.66572C10.0059 7.66707 10.0072 7.66869 10.0089 7.67004C10.011 7.6722 10.0139 7.67368 10.0162 7.67598C10.0721 7.7313 10.1289 7.78576 10.1865 7.83933C10.162 7.03297 10.2003 4.71975 11.3019 2.80383C11.2787 2.87106 10.4047 5.42661 10.7059 8.2909C10.8031 8.36918 10.9035 8.44345 11.0068 8.51352C11.0307 8.52998 11.0504 8.55192 11.0641 8.57751C11.0779 8.60311 11.0853 8.63162 11.0858 8.66067C11.0866 8.67012 11.1074 9.58312 11.5107 10.3598C11.5164 10.3714 11.5207 10.3837 11.5245 10.396C12.5276 10.3278 13.533 10.3015 14.5366 10.2996C15.5405 10.3002 16.5454 10.3293 17.5481 10.3981C17.5515 10.3848 17.5565 10.3719 17.5629 10.3596C17.966 9.58299 17.9871 8.66998 17.9871 8.66053C17.9884 8.60167 18.0181 8.54673 18.0681 8.51203C18.1709 8.44158 18.2711 8.36728 18.3683 8.28928C18.6699 5.42499 17.7959 2.86944 17.7743 2.80221C18.875 4.71921 18.9143 7.03257 18.8897 7.83771L19.0598 7.67571C19.062 7.67355 19.0652 7.67206 19.067 7.66977C19.0686 7.66842 19.0694 7.66707 19.0714 7.66545C19.0734 7.66383 19.0759 7.66248 19.0782 7.66099C19.0863 7.65532 19.0944 7.65019 19.1021 7.64506C19.1058 7.64371 19.1094 7.64142 19.1129 7.63926C19.1232 7.63486 19.1338 7.63125 19.1447 7.62846C19.1469 7.62846 19.1492 7.62711 19.1515 7.62711C19.1646 7.62415 19.178 7.62293 19.1914 7.62346C19.1951 7.62346 19.1982 7.62427 19.2009 7.62427C19.2113 7.62497 19.2217 7.62642 19.2319 7.62859C19.2336 7.6294 19.2357 7.6294 19.2376 7.62994L21.6852 8.32546C21.7049 7.82596 21.7149 5.67946 20.5911 3.87235C20.6316 3.91663 21.8871 5.3533 21.9731 8.40754L22.3676 8.51959C22.4007 8.52902 22.4305 8.54767 22.4535 8.57335C22.4765 8.59904 22.4917 8.63072 22.4974 8.66472C22.7373 10.1208 22.599 11.139 22.593 11.1818C22.5916 11.1901 22.5897 11.1983 22.5874 11.2064L22.6828 11.2354H22.6785ZM22.2334 11.1047C22.2523 10.9418 22.3414 10.0517 22.1524 8.83671L19.3835 8.04939C19.4084 8.51851 19.4193 9.53601 19.1531 10.5064C19.1496 10.5184 19.145 10.53 19.1395 10.5412C19.1669 10.5439 19.1945 10.5462 19.2213 10.5499C20.0002 10.639 20.7738 10.7637 21.5433 10.9319C21.7744 10.9856 22.0058 11.043 22.235 11.1051L22.2334 11.1047ZM18.8044 10.4095C19.0323 9.57921 19.0447 8.69226 19.0278 8.20288C18.8452 8.36893 18.5962 8.58088 18.3461 8.75976C18.3307 9.01572 18.2597 9.74229 17.934 10.4246L18.8043 10.5056C18.7957 10.4745 18.7957 10.4417 18.8043 10.4107L18.8044 10.4095ZM11.1391 10.4227C10.814 9.74094 10.743 9.01572 10.7279 8.75989C10.477 8.58223 10.2289 8.36907 10.0461 8.20302C10.0299 8.69307 10.0418 9.58083 10.2694 10.4096C10.2782 10.4416 10.2772 10.4734 10.2694 10.5033L11.1388 10.4227H11.1391ZM9.93313 10.5393C9.92783 10.5286 9.92341 10.5174 9.9199 10.506C9.65328 9.53574 9.6634 8.51838 9.68878 8.04898L6.91818 8.83644C6.73188 10.049 6.81882 10.9401 6.83758 11.104C7.06749 11.0417 7.29658 10.9843 7.53013 10.9307C7.91286 10.8459 8.29869 10.7749 8.68519 10.7096C9.07264 10.645 9.46104 10.5958 9.8497 10.5486C9.87738 10.545 9.90424 10.543 9.93178 10.5392L9.93313 10.5393ZM17.4561 3.42888V5.72725H15.827V5.05576H15.4598V8.15806H16.0133V9.89281H13.1648V8.15806H13.7172V5.05576H13.3527V5.72739H11.7246V3.42874H17.4576L17.4561 3.42888ZM16.9666 5.23896V3.91596H12.21V5.23896H12.8602V4.56747H14.2053V8.64784H13.6518V9.40465H15.5236V8.64784H14.9701V4.56733H16.3153V5.23882H16.9653L16.9666 5.23896Z" fill="#2D3136"/>
<path d="M12.21 5.23869V3.91569H16.9652V5.23869H16.315V4.5672H14.9699V8.64757H15.5234V9.40438H13.6518V8.64757H14.2053V4.56733H12.8603V5.23882L12.21 5.23869Z" fill="#CB3349"/>
<path d="M4.14382 13.4386L5.09557 13.2401L4.2556 13.8607L4.14355 13.4386H4.14382Z" fill="#656C67"/>
<path d="M12.8382 19.7377C12.8382 19.7377 12.9046 20.165 12.3065 20.3479C11.7085 20.5308 7.92146 21.6595 7.48946 21.5984C7.05746 21.5372 5.96126 20.8054 5.96126 20.8054L5.69531 19.8599L7.31747 20.8713L12.8379 19.7378L12.8382 19.7377ZM16.231 19.6549C16.231 19.6549 16.1832 20.0845 16.7885 20.2415C17.3939 20.3985 21.2267 21.3613 21.6553 21.2815C22.0839 21.2018 23.1474 20.4229 23.1474 20.4229L23.3719 19.4666L21.8809 20.356L16.2308 19.6551L16.231 19.6549Z" fill="#C7B39A"/>
<path d="M3.83545 18.9514C3.83545 18.9514 4.36019 20.0011 5.20786 19.6377L5.81333 19.8597L5.75285 20.3052L4.48115 20.4666L4.13825 20.2649L3.83545 18.9527V18.9514ZM25.3191 18.6634C25.3191 18.6634 24.4614 19.7589 23.6138 19.3956L23.3411 19.5714L23.4015 20.0169L24.6732 20.1783L25.0161 19.9765L25.3191 18.6648V18.6634ZM12.0526 26.9094C12.0526 26.9094 15.1617 28.4754 18.6819 26.3441L17.5514 26.2671C17.5514 26.2671 15.0847 27.2434 13.1318 26.7038L12.0526 26.9094Z" fill="#C7B39A"/>
<path d="M15.2045 24.0212L15.4197 24.2777C15.4246 24.284 15.9026 24.8528 16.487 25.4323C16.8758 25.8174 17.3452 26.0124 17.8833 26.0124C18.0669 26.0124 18.26 25.9887 18.455 25.9417L19.0338 25.8027L20.9829 25.3198C21.0619 25.2974 21.15 25.2773 21.2428 25.2561C21.774 25.1332 22.5023 24.9641 22.888 24.1909L23.8596 22.3063C23.6081 22.4224 23.3445 22.5493 23.1572 22.6465C22.8686 22.7981 22.4906 22.8716 22.0019 22.8716C21.7114 22.8716 21.426 22.8473 21.1102 22.8189C20.4791 22.7609 19.4111 22.6353 19.4002 22.6337L19.3184 22.6247L19.2538 22.573C19.2444 22.5659 18.3084 21.8203 17.552 21.2257L17.4683 21.1564C17.3873 21.0885 17.3873 21.0885 17.3412 21.0885C17.0986 21.0885 16.3935 21.3072 14.8488 21.786L14.7539 21.8162L14.6607 21.781C14.6502 21.7775 13.6368 21.403 12.4224 21.403C12.3241 21.403 12.2257 21.4056 12.1275 21.4106C12.006 21.4168 11.3231 21.7411 10.4501 23.1224L10.3934 23.2111L10.2935 23.2432C10.279 23.2482 8.77635 23.7333 7.18281 24.1889L7.0794 24.2183L6.98153 24.1728C6.97113 24.1688 6.34757 23.8794 5.75438 23.6067C6.07797 24.0846 6.49175 24.681 6.85598 25.1486C7.49183 25.9677 8.29373 26.7246 9.83057 26.7246C10.0337 26.7241 10.2367 26.7122 10.4385 26.6888C12.0018 26.512 12.4045 26.4408 12.6212 26.403C12.6945 26.3906 12.7525 26.3801 12.8266 26.3709C12.8385 26.3696 14.1186 26.2039 14.4779 25.3981L14.9261 24.3654L15.0568 24.0167C15.0568 24.0167 15.073 23.9262 15.0996 23.8983L15.1029 23.901C15.144 23.9307 15.2051 24.0227 15.2051 24.0227L15.2045 24.0212ZM5.4675 8.38689C5.12784 8.52378 4.79034 8.66499 4.4604 8.82024C4.12965 8.97144 3.80484 9.13344 3.49448 9.31434C3.20828 9.47931 2.93328 9.66035 2.69069 9.8646C2.68029 9.92603 2.67044 9.99312 2.66234 10.0567L2.63426 10.3281C2.61806 10.5098 2.61185 10.693 2.60996 10.8762C2.60645 11.2424 2.63156 11.6087 2.67773 11.9713C2.72795 12.3347 2.79437 12.6962 2.89292 13.0448C2.94192 13.2196 2.99646 13.3922 3.06072 13.5583C3.09218 13.6424 3.12714 13.7241 3.16359 13.8038C3.1815 13.843 3.20009 13.8818 3.21935 13.9204L3.24256 13.9644C3.26956 13.9784 3.29679 13.9919 3.32424 14.0049L3.48705 14.0824L3.80646 14.23C3.81267 14.225 3.81834 14.2194 3.8232 14.2146L3.52215 13.0657C3.5856 13.0482 4.15895 12.9001 5.14647 12.712C5.06547 12.6972 4.98582 12.6799 4.90685 12.6607C4.68248 12.605 4.46 12.5365 4.24562 12.4497C4.13937 12.4044 4.03367 12.3552 3.93377 12.2985C3.83387 12.2418 3.73532 12.1763 3.65904 12.0897C4.74349 12.445 6.9849 12.2843 8.9775 12.0791C10.8 11.8911 12.6263 11.7696 14.4623 11.7653C16.2983 11.7693 18.1259 11.8908 19.9473 12.0791C21.9413 12.2846 24.1828 12.4454 25.2671 12.091C25.191 12.1777 25.0926 12.2425 24.9926 12.2999C24.8925 12.3572 24.7871 12.4054 24.6807 12.4511C24.4654 12.5377 24.2438 12.6063 24.0188 12.6621L23.9189 12.6845C25.0016 12.8851 25.632 13.0486 25.699 13.0668L25.4104 14.1612L25.5843 14.0838L25.7472 14.0063L25.829 13.9658L25.8514 13.9218C25.8712 13.8833 25.89 13.8444 25.908 13.8051C25.9444 13.7255 25.9793 13.6437 26.0115 13.5597C26.0753 13.3913 26.131 13.2199 26.1784 13.0461C26.2769 12.6974 26.3442 12.336 26.3937 11.9726C26.4404 11.61 26.465 11.2436 26.4615 10.8775C26.4601 10.6944 26.4531 10.5112 26.4377 10.3294C26.43 10.2385 26.4202 10.1485 26.409 10.0581C26.4009 9.9938 26.3913 9.92974 26.3802 9.86595C26.1376 9.66169 25.8632 9.48079 25.5764 9.31569C25.2659 9.13479 24.9414 8.97279 24.6098 8.82159C24.2807 8.66634 23.9425 8.52526 23.6027 8.38824L23.0897 8.18898L22.572 7.99688C22.936 8.05695 23.297 8.13997 23.6538 8.23177C23.8868 8.2925 24.1182 8.35917 24.3478 8.43171C22.7143 4.15788 18.8033 1.37499 14.5353 1.37499C10.2663 1.37499 6.35756 4.15788 4.72298 8.43171C4.95275 8.35976 5.18413 8.29198 5.4162 8.23191C5.77395 8.14038 6.13467 8.05722 6.4989 7.99701L5.98023 8.18912C5.80838 8.25317 5.63741 8.31955 5.46737 8.38824L5.4675 8.38689ZM26.9906 10.8595C27.0103 11.2529 26.9997 11.647 26.9557 12.0385C26.9145 12.4292 26.8404 12.8164 26.737 13.2002C26.6832 13.3921 26.6199 13.5812 26.5475 13.7669C26.5104 13.8605 26.4705 13.9536 26.426 14.0464C26.4039 14.0932 26.3804 14.1394 26.3554 14.1847L26.317 14.2539C26.303 14.279 26.2918 14.2979 26.2701 14.3313L26.2304 14.393L26.1683 14.425C26.1085 14.4557 26.0481 14.4851 25.9871 14.5132L25.8119 14.5922C25.6947 14.642 25.5768 14.6899 25.4582 14.7359L25.2338 14.8269L25.0389 15.5677L24.8657 15.5251L24.8551 15.6026C25.0703 15.7151 25.4931 15.9431 25.6372 16.062C25.9272 16.3017 25.9477 16.6813 25.8833 17.3904C25.8503 17.7545 25.7294 18.4632 25.562 19.114C25.2725 20.2342 25.1188 20.3658 24.9203 20.4167C24.7875 20.4499 24.6512 20.4672 24.5142 20.4684C24.2083 20.4684 23.7916 20.477 23.5112 20.409C23.4392 20.6639 23.2338 21.3287 22.827 22.1589C22.8473 22.1491 22.8675 22.1407 22.8857 22.131C23.3875 21.8675 24.3518 21.4473 24.3926 21.429L25.1544 21.0979L24.7629 21.8317C24.7539 21.8476 23.9173 23.421 23.4048 24.4484C22.8959 25.466 21.9421 25.6877 21.371 25.8186L21.1371 25.876C20.7274 25.9913 19.8978 26.1892 19.1661 26.3651C19.1574 26.3673 19.1485 26.3696 19.1395 26.3708C18.6893 26.6489 18.198 26.8973 17.6606 27.1011C15.6939 27.8461 13.621 27.8042 11.7416 27.1136L10.5006 27.2616C10.2771 27.2872 10.0525 27.3003 9.82759 27.3009C8.03695 27.3009 7.08791 26.3916 6.39522 25.5014C5.65367 24.548 4.7466 23.1327 4.70813 23.0734L4.185 22.2549L5.07398 22.6545L7.12665 23.5995L7.21332 23.5744C6.61163 22.7162 6.1182 21.7377 5.7695 20.6538C5.47317 20.7432 5.01674 20.8124 4.66168 20.8124C4.53208 20.8124 4.41572 20.8027 4.32635 20.7816C4.1279 20.7363 3.90137 20.5449 3.5933 19.4593C3.41442 18.8291 3.28091 18.1412 3.24189 17.7871C3.16494 17.0959 3.17898 16.7254 3.46626 16.4862C3.63947 16.3418 4.22361 16.0348 4.34471 15.9719L4.31879 15.7586C2.46253 16.8494 1.35013 17.8133 1.32759 17.833L0 18.9982L0.945675 17.5068C1.69412 16.3249 2.55866 15.3695 3.35407 14.6335L3.25958 14.5938L3.08407 14.5148C3.024 14.4867 2.96933 14.4608 2.90318 14.4267L2.84108 14.3947L2.80125 14.333C2.77884 14.2992 2.76912 14.2806 2.75441 14.2555L2.71391 14.1864L2.64398 14.048C2.60054 13.9563 2.56046 13.863 2.52383 13.7684C2.45133 13.5827 2.38808 13.3936 2.33429 13.2017C2.23034 12.8179 2.15676 12.4322 2.11559 12.04C2.07239 11.6485 2.06105 11.2543 2.08049 10.861C2.09104 10.6644 2.10991 10.4683 2.13705 10.2732C2.15109 10.1754 2.16581 10.0775 2.18538 9.9803C2.2051 9.87955 2.22843 9.77954 2.25531 9.68046L2.27624 9.60432L2.33078 9.56153C2.64047 9.31826 2.97446 9.13452 3.31412 8.97157C3.59288 8.8416 3.87714 8.72377 4.1661 8.61841C4.96841 6.39186 6.34797 4.41748 8.16075 3.04156C10.0355 1.61934 12.2396 0.86739 14.5354 0.86739C16.8313 0.86739 19.0355 1.61934 20.9099 3.0417C22.7229 4.41775 24.1026 6.3924 24.9043 8.61814C25.1922 8.72439 25.4767 8.83955 25.7569 8.97184C26.0964 9.13465 26.4319 9.31839 26.7401 9.5618L26.7947 9.60459L26.8157 9.68073C26.8432 9.77965 26.8665 9.87968 26.8855 9.98057C26.9049 10.0776 26.9209 10.1754 26.9337 10.2735C26.9615 10.4684 26.9803 10.6644 26.9903 10.861L26.9906 10.8595ZM25.3712 17.3436C25.4328 16.6616 25.3791 16.5147 25.3098 16.4588C25.2405 16.4008 25.0065 16.2682 24.7786 16.1443L24.4033 18.7719C24.3996 18.7973 24.3908 18.8217 24.3773 18.8436C24.3639 18.8655 24.346 18.8844 24.325 18.8991L23.7881 19.2744C23.7456 19.4894 23.73 19.5909 23.6778 19.8013C23.9846 19.8726 24.4878 19.9279 24.7274 19.8816C24.945 19.6456 25.2963 18.1806 25.3711 17.3433L25.3712 17.3436ZM24.6746 14.9611L25.0765 13.4356C24.4936 13.3036 23.4201 13.0826 21.958 12.8756C21.2115 13.4124 20.3944 13.8416 19.5915 14.1838C22.0485 14.4227 23.8534 14.7786 24.6746 14.9596V14.9611ZM24.0428 18.6381L24.4998 15.4419L23.7263 15.2839L23.3132 18.1759C23.3055 18.2269 23.2774 18.2738 23.2355 18.3032L21.6868 19.3863C21.6496 19.4123 21.6041 19.424 21.559 19.4191L16.8917 18.8885C16.8553 18.8845 16.8209 18.8699 16.7927 18.8466C16.7645 18.8233 16.7437 18.7922 16.733 18.7572L15.8923 15.9897C15.6672 15.9316 15.0891 15.7966 14.5834 15.7966C14.0752 15.7966 13.498 15.9316 13.2728 15.9897L12.432 18.7572C12.4247 18.7808 12.4129 18.8028 12.3971 18.8219C12.3813 18.8409 12.3619 18.8566 12.3399 18.8682C12.3259 18.8759 12.3098 18.8814 12.2936 18.885L7.6275 19.9253C7.61265 19.9283 7.60023 19.9298 7.58619 19.9298C7.5479 19.93 7.51052 19.9182 7.47927 19.896L5.93123 18.812C5.88803 18.7819 5.85914 18.7344 5.85225 18.6813L5.4351 15.2966L4.9653 15.3915L4.67181 15.5553L5.11461 19.1419L7.36452 20.7181L13.0409 19.4553L13.8788 16.6945C13.8889 16.6607 13.9082 16.6305 13.9347 16.6072C13.9611 16.5839 13.9936 16.5686 14.0284 16.5629C14.2409 16.5287 14.4266 16.5113 14.5841 16.5113C14.7397 16.5113 14.9264 16.5289 15.1382 16.5629C15.2095 16.5741 15.2674 16.625 15.2878 16.6945L16.1472 19.5236L21.8553 20.1727L24.0436 18.6395L24.0428 18.6381ZM22.9534 18.0428L23.3573 15.2148C22.2179 15.0074 20.552 14.7566 18.5112 14.6C16.6689 15.2354 15.1258 15.4246 15.0328 15.4309L14.9252 15.4386C15.5129 15.4891 16.0665 15.6471 16.0943 15.6553C16.1553 15.6735 16.2028 15.7201 16.2217 15.7812L17.0568 18.5307L21.5305 19.0388L22.9534 18.0428ZM23.2643 19.6418L23.0747 19.7745L22.0118 20.5197C21.974 20.5457 21.928 20.5575 21.883 20.5525L15.9818 19.8816C15.9455 19.8774 15.9112 19.8627 15.8831 19.8393C15.855 19.8158 15.8344 19.7847 15.8238 19.7497L14.9629 16.915C14.819 16.8954 14.691 16.8853 14.5849 16.8853C14.4755 16.8853 14.3486 16.8951 14.2046 16.915L13.3686 19.6679C13.3491 19.7322 13.296 19.7813 13.2303 19.7956L7.36493 21.1039C7.35136 21.1065 7.33757 21.1079 7.32375 21.1079C7.28595 21.1079 7.24815 21.0967 7.21602 21.0738L7.00299 20.9256L6.36498 20.4791V20.4778L6.10848 20.2975C6.12671 20.3556 6.14763 20.4123 6.16788 20.4687L6.16707 20.4695C6.21675 20.6169 6.71085 22.0385 7.71512 23.4301L10.0178 22.7235C10.6237 21.7897 11.4862 20.8636 12.0992 20.8316C12.2073 20.8263 12.3154 20.8236 12.4235 20.8234C12.7083 20.8243 12.9927 20.842 13.2754 20.8764C13.0499 20.6716 13.0036 20.4312 12.9708 20.3249C12.9708 20.3249 13.7529 20.9365 14.7488 20.8088C15.7448 20.6801 16.3633 20.1062 16.3633 20.1062C16.3633 20.1062 16.3607 20.525 15.9265 20.8491C16.7611 20.5967 17.1064 20.5103 17.3426 20.5103C17.6032 20.5103 17.7318 20.6194 17.8444 20.7155C17.866 20.733 17.8879 20.7517 17.9129 20.7722L19.5518 22.0701L21.1641 22.2433C21.4651 22.2703 21.7372 22.2935 22.0034 22.2935C22.0894 22.2935 22.1698 22.29 22.246 22.285C22.5913 21.6262 22.9017 20.8797 23.1651 20.0368C23.2009 19.9069 23.2343 19.7764 23.2654 19.6452L23.2643 19.6418ZM21.2347 12.6768C21.2333 12.676 21.232 12.6752 21.2306 12.6752L19.9041 12.5874L18.0591 12.4972C17.9901 12.5987 17.9193 12.6988 17.8466 12.7976C17.5118 13.2505 16.8479 14.0801 15.9966 14.7862C17.2016 14.5702 19.2919 14.0356 21.1 12.774L21.235 12.6771L21.2347 12.6768ZM17.2014 12.8018L17.3424 12.6209C16.9047 12.6653 16.4691 12.7287 16.0369 12.811C14.577 13.0842 13.2289 13.5386 12.1084 14.004C12.9421 13.9633 13.7766 13.9428 14.6113 13.9425C15.1389 13.9425 15.6519 13.9516 16.1509 13.9663C16.5802 13.5537 16.942 13.1317 17.2028 12.8018H17.2014ZM17.6857 26.5833C17.0778 26.5385 16.5249 26.2856 16.0788 25.8439L16.011 25.7748C15.7933 25.8187 15.5733 25.8504 15.3521 25.8698C15.2578 25.8733 15.1685 25.8815 15.0699 25.8815L14.9237 25.8829L14.868 25.8815C14.2745 26.7644 12.9564 26.9363 12.8963 26.944C12.8419 26.9502 12.7972 26.9579 12.7356 26.9691C13.4703 27.1702 14.2201 27.2577 14.9596 27.208C15.701 27.1585 16.6643 26.9977 17.6859 26.5833H17.6857ZM15.3367 25.5762C15.4792 25.565 15.6225 25.5467 15.7665 25.5251C15.6027 25.3546 15.4421 25.181 15.2848 25.0044L15.0256 25.5903H15.0584C15.1473 25.5905 15.2445 25.5809 15.3365 25.5763L15.3367 25.5762ZM14.8839 14.9609C15.1305 14.8119 15.3675 14.6414 15.5926 14.4597L14.6101 14.45C13.3403 14.4502 12.0709 14.498 10.8046 14.5932C9.64359 15.1616 8.93147 15.629 8.91486 15.6408L7.79868 16.3852L8.56548 15.285C8.69198 15.1023 8.82603 14.9291 8.96454 14.7643C7.67718 14.9082 6.60515 15.0788 5.80554 15.2263L6.21567 18.5516L7.62683 19.5398L12.1067 18.5438L12.9453 15.7811C12.9593 15.7356 12.9898 15.6974 13.0299 15.6741C13.0431 15.6656 13.0574 15.6592 13.0725 15.6552C13.0984 15.6481 13.545 15.5202 14.0628 15.4574L14.8855 14.9606L14.8839 14.9609ZM15.399 12.4245L14.4624 12.4161L13.0868 12.431L12.2403 12.8319C12.2396 12.8326 12.2349 12.8346 12.2284 12.8384C12.1013 12.9005 10.9899 13.4611 9.94424 14.4611C10.8815 13.9683 12.2589 13.3247 13.8799 12.8256C14.3655 12.6768 14.8743 12.5396 15.3986 12.4243L15.399 12.4245ZM9.48375 14.2C9.9225 13.7646 10.3754 13.4054 10.7753 13.1244C9.23427 13.4822 7.81569 14.0078 6.57302 14.5795C7.38167 14.4488 8.36069 14.3126 9.48362 14.2001L9.48375 14.2ZM9.77535 12.8567C10.2917 12.712 10.8243 12.5854 11.3701 12.4793L9.02205 12.5884L7.66328 12.6784L6.98733 12.7385C6.92307 12.7447 6.86016 12.7517 6.7959 12.7601C6.20595 13.113 3.94376 14.5332 2.39085 16.3902C3.90015 15.3413 6.52914 13.7653 9.77535 12.8567ZM5.6106 20.1737C5.58115 20.0796 5.5532 19.985 5.52677 19.89L4.8299 19.4024C4.80827 19.3873 4.79004 19.3679 4.77641 19.3454C4.76278 19.3228 4.75405 19.2977 4.75079 19.2715L4.41113 16.5108C4.15948 16.6458 3.86883 16.8112 3.79121 16.8762C3.72411 16.9316 3.67308 17.0733 3.74585 17.7311C3.83602 18.541 4.24697 20.071 4.46783 20.2934C4.73351 20.3402 5.32197 20.2585 5.6106 20.1737ZM5.09557 13.2401L4.14383 13.4386L4.25588 13.8607C4.52807 13.6435 4.80825 13.4365 5.09585 13.2401H5.09557Z" fill="#2D3136"/>
</g>
<defs>
<clipPath id="clip0_531_24130">
<rect width="27" height="27" fill="white" transform="translate(0 0.858765)"/>
</clipPath>
</defs>
</svg>
