<svg width="27" height="27" viewBox="0 0 27 27" fill="none" xmlns="http://www.w3.org/2000/svg">
<g clip-path="url(#clip0_509_24983)">
<path d="M4.90088 9.85931H25.1463V24.8235H4.90088V9.85931Z" fill="white"/>
<path d="M0.600586 13.2942V25.9895H25.9912V0.598846H0.600586V13.2942ZM21.0614 12.2785C21.6695 12.4197 22.2222 12.7377 22.6498 13.1926C22.8852 13.4377 23.0898 13.7105 23.2592 14.0051C23.2592 14.0376 22.1623 14.779 21.494 15.1934C21.4696 15.2096 21.3721 15.104 21.2645 14.9435C21.1425 14.733 20.9692 14.5569 20.7607 14.4315C20.5522 14.3061 20.3153 14.2356 20.0721 14.2265C19.3023 14.1737 18.8067 14.5779 18.8107 15.2421C18.8044 15.4075 18.8422 15.5716 18.9204 15.7174C19.089 16.0688 19.4039 16.2781 20.3911 16.7046C22.209 17.4867 22.987 18.0026 23.4704 18.7359C24.0107 19.5484 24.1306 20.8606 23.765 21.8315C23.3587 22.8878 22.3634 23.6048 20.9557 23.8424C20.3128 23.9161 19.6632 23.9093 19.022 23.8221C18.0392 23.6601 17.1339 23.1883 16.4382 22.4754C16.2046 22.2174 15.7496 21.5451 15.7781 21.4963C15.8522 21.4413 15.9303 21.3917 16.0117 21.3481L16.9521 20.8281L17.6814 20.4056L17.8337 20.631C18.0908 20.9988 18.418 21.3122 18.7965 21.5532C19.609 21.9798 20.7181 21.9209 21.2665 21.4273C21.4507 21.2464 21.5655 21.0067 21.5911 20.7499C21.6168 20.493 21.5515 20.2353 21.4067 20.0217C21.2036 19.7393 20.7973 19.5017 19.6618 19.006C18.3517 18.4413 17.787 18.092 17.2711 17.5354C16.949 17.1681 16.7112 16.7348 16.5743 16.2659C16.4723 15.7301 16.4572 15.1814 16.5296 14.6409C16.7998 13.3754 17.7484 12.4918 19.1337 12.2298C19.7753 12.1504 20.4251 12.1682 21.0614 12.2826V12.2785ZM15.1017 13.3429V14.3829H11.805V23.7734H9.46699V14.3809H6.16215V13.3653C6.15185 13.015 6.15999 12.6645 6.18652 12.3151C6.20277 12.2968 8.21777 12.2968 10.6553 12.2968H15.0895L15.1017 13.3429Z" fill="#007ACC"/>
</g>
<defs>
<clipPath id="clip0_509_24983">
<rect width="26" height="26" fill="white" transform="translate(0.295898 0.312439)"/>
</clipPath>
</defs>
</svg>
