<svg width="26" height="25" viewBox="0 0 26 25" fill="none" xmlns="http://www.w3.org/2000/svg">
<g clip-path="url(#clip0_544_36190)">
<path d="M25.6831 9.9201L22.9072 -0.00958252L12.541 2.65214L11.0074 5.24471L7.90077 5.22323L0.316895 12.4924L7.90158 19.7596L11.0126 19.7373L12.5483 22.3299L22.9076 24.99L25.6831 15.0611L24.1069 12.4904L25.6831 9.9201ZM19.1831 3.70917L14.6396 11.2639H5.54289L11.2686 5.66229L19.1831 3.70917ZM14.6396 13.7189L19.188 21.2728L11.2633 19.315L5.53721 13.7209H14.634L14.6396 13.7189ZM16.861 12.4924L21.4094 4.93768L23.6084 12.4924L21.4094 20.0451L16.861 12.4924Z" fill="#222C37"/>
</g>
<defs>
<clipPath id="clip0_544_36190">
<rect width="26" height="25" fill="white" transform="translate(0 -0.00958252)"/>
</clipPath>
</defs>
</svg>
