<svg width="25" height="25" viewBox="0 0 25 25" fill="none" xmlns="http://www.w3.org/2000/svg">
<g clip-path="url(#clip0_544_36192)">
<path d="M12.8887 0.249268C6.26167 0.249268 0.888672 5.62227 0.888672 12.2493C0.888672 18.8763 6.26167 24.2493 12.8887 24.2493C19.5157 24.2493 24.8887 18.8763 24.8887 12.2493C24.8887 5.62227 19.5157 0.249268 12.8887 0.249268ZM12.8887 2.09527C18.4837 2.10227 23.0167 6.64027 23.0167 12.2363C23.0167 17.8373 18.4767 22.3773 12.8757 22.3773C7.27467 22.3773 2.73467 17.8373 2.73467 12.2363C2.73467 9.43627 3.86967 6.90127 5.70467 5.06627C7.54167 3.23127 10.0787 2.09627 12.8807 2.09627H12.8877L12.8887 2.09527ZM12.8887 4.86527C8.49667 5.63927 4.58067 9.68927 4.58067 14.0953C6.72967 10.3013 8.16467 10.0283 8.56167 10.0283C8.95867 10.0283 9.16767 10.2343 9.16767 10.6913V16.3453C9.16767 17.0483 7.80167 16.9333 7.34967 16.8643C9.01967 19.3493 12.8887 19.6343 12.8887 19.6343L14.7347 17.7883L16.5807 18.7113C19.4947 17.3773 21.1957 14.5213 21.1957 14.0963C20.4947 14.9643 19.5497 15.6113 18.4647 15.9323L18.4257 15.9423C18.1807 15.9423 17.5027 15.8163 17.5027 15.4803V8.78727C17.5027 8.20627 18.8447 6.43327 19.3487 5.78727C16.0167 6.66027 15.0507 8.18127 15.0507 8.18127C15.0507 8.18127 14.7977 7.63327 13.8107 7.63327C14.3117 8.10627 14.6487 8.74727 14.7327 9.46527L14.7337 9.47927V15.1333C14.2087 15.5063 13.5897 15.7863 12.9207 15.9343L12.8867 15.9403C12.2467 15.9403 11.9347 15.6803 11.9347 15.1903C11.9347 14.7003 11.9637 8.55627 11.9637 8.55627C11.9637 8.55627 11.0407 8.89527 11.0407 6.99827C11.0407 6.04927 12.8867 4.86327 12.8867 4.86327L12.8887 4.86527Z" fill="black"/>
</g>
<defs>
<clipPath id="clip0_544_36192">
<rect width="24" height="24" fill="white" transform="translate(0.888672 0.249268)"/>
</clipPath>
</defs>
</svg>
