<svg width="26" height="27" viewBox="0 0 26 27" fill="none" xmlns="http://www.w3.org/2000/svg">
<g clip-path="url(#clip0_531_23717)">
<path d="M15.2653 17.3932L12.9903 18.9719V26.1926L17.8897 23.3675L25.5645 4.5744V2.19378L19.8478 5.51853V7.52703L15.2653 17.3932ZM6.12305 5.51934V7.52784L10.6942 17.8255L12.9814 16.688V13.8263L9.55261 5.82565V3.56121L9.52823 3.5474L6.12305 5.51934Z" fill="#1159CC"/>
<path d="M16.4109 3.53765V5.82484L12.9821 13.8255V16.4987L10.6949 17.8255L6.123 7.52784V5.51609L9.55175 3.54171L3.835 0.192589L0.40625 2.19459V4.64509L8.125 23.3895L12.9813 26.1926V19.1531L15.2644 17.8263L15.2376 17.81L19.8388 7.52865V5.51609L25.5556 2.19459L22.1268 0.192589L16.4133 3.53765H16.4109Z" fill="#127EFF"/>
</g>
<defs>
<clipPath id="clip0_531_23717">
<rect width="26" height="26" fill="white" transform="translate(0 0.192589)"/>
</clipPath>
</defs>
</svg>
