<svg width="29" height="28" viewBox="0 0 29 28" fill="none" xmlns="http://www.w3.org/2000/svg">
<g clip-path="url(#clip0_509_24922)">
<path d="M8.01008 21.0506C7.92803 21.0505 7.84777 21.0736 7.77929 21.1172C7.70951 21.1617 7.64564 21.2385 7.64564 21.3368C7.64564 21.3499 7.63776 21.379 7.66401 21.4296L7.65723 21.4136L9.05942 25.8005C9.08458 25.8827 9.14473 25.9456 9.21254 25.9819C9.28036 26.0181 9.3543 26.0314 9.42648 26.0314C9.57961 26.0314 9.74804 25.961 9.79945 25.8019V25.8015L11.2003 21.3982V21.3822C11.2003 21.4045 11.2071 21.3917 11.2071 21.3436C11.2071 21.2434 11.1408 21.1697 11.07 21.1236C10.999 21.0765 10.9152 21.0511 10.8291 21.0506C10.7219 21.0506 10.599 21.1132 10.5579 21.2326L10.557 21.2339L9.42605 24.8734L8.29073 21.2404C8.27389 21.1754 8.22861 21.1212 8.17589 21.0909C8.12317 21.0605 8.06564 21.0506 8.01008 21.0506ZM19.1784 21.2767C18.9552 21.2767 18.7671 21.4416 18.7671 21.6479C18.7671 21.8542 18.9522 22.0249 19.1784 22.0249C19.4002 22.0249 19.5765 21.8511 19.5765 21.6479C19.5765 21.4448 19.3971 21.2767 19.1784 21.2767ZM15.8908 22.6811C15.1278 22.6811 14.4993 23.2701 14.4993 23.9777V24.703C14.4993 25.0993 14.6629 25.4391 14.9412 25.6735C15.219 25.908 15.607 26.0378 16.0518 26.0378C16.3803 26.0378 16.6483 25.9667 16.8397 25.8705C16.9355 25.8222 17.0125 25.7682 17.0692 25.7093C17.126 25.6503 17.1676 25.5859 17.1676 25.5054C17.1676 25.4315 17.1383 25.3674 17.0904 25.3098C17.0427 25.2522 16.9675 25.1993 16.8703 25.1993C16.8003 25.1993 16.7465 25.2278 16.6999 25.2554C16.6533 25.2828 16.6096 25.3134 16.5569 25.3427C16.4514 25.4012 16.3119 25.4581 16.0651 25.4581C15.7904 25.4581 15.5615 25.3826 15.4036 25.2556C15.2461 25.129 15.1542 24.9529 15.1542 24.7221V24.588H16.5619C16.7122 24.588 16.8791 24.588 17.0235 24.4994C17.1678 24.4104 17.2553 24.2336 17.2553 23.9651C17.2553 23.2205 16.6113 22.6811 15.8908 22.6811ZM21.1815 22.6811C20.7759 22.6811 20.4775 22.8077 20.2859 22.9979C20.0943 23.1882 20.0116 23.4358 20.0116 23.667C20.0116 23.9619 20.1352 24.1733 20.3119 24.3085C20.4889 24.4441 20.709 24.5123 20.9183 24.573C21.1276 24.634 21.328 24.688 21.4625 24.7679C21.5971 24.8481 21.6693 24.9343 21.6693 25.1168C21.6693 25.2149 21.6386 25.2929 21.5562 25.3566C21.4735 25.4206 21.3265 25.4708 21.0874 25.4708C20.8045 25.4708 20.6464 25.4035 20.5311 25.3349C20.4736 25.3005 20.4272 25.2649 20.3795 25.233C20.3318 25.2012 20.2776 25.1668 20.2017 25.1668C20.1105 25.1668 20.0431 25.221 20.0022 25.2771C19.9607 25.3322 19.9382 25.3983 19.9376 25.4663C19.9376 25.5518 19.981 25.6269 20.042 25.692C20.1032 25.7572 20.1857 25.8152 20.2872 25.8658C20.49 25.9671 20.7693 26.0378 21.101 26.0378C21.4612 26.0378 21.7574 25.953 21.9672 25.7884C22.1768 25.6239 22.291 25.3794 22.291 25.0976C22.291 24.7791 22.1709 24.5502 21.9941 24.3988C21.8171 24.2475 21.5938 24.1695 21.3814 24.1066C21.169 24.044 20.9645 23.995 20.8277 23.9263C20.6908 23.8575 20.6265 23.794 20.6265 23.6478C20.6265 23.5687 20.6593 23.4692 20.7426 23.3905C20.826 23.3122 20.962 23.2485 21.1882 23.2485C21.3689 23.2485 21.5032 23.2886 21.6109 23.3308C21.6647 23.3521 21.7115 23.3743 21.7557 23.3928C21.8001 23.4112 21.841 23.4293 21.8996 23.4293C22.0057 23.4293 22.0785 23.3618 22.1219 23.2992C22.1652 23.2365 22.1901 23.1747 22.1901 23.1038C22.1901 23.0152 22.133 22.9524 22.0698 22.9056C22.0066 22.8587 21.927 22.8208 21.8351 22.7883C21.6513 22.7233 21.4168 22.6811 21.1815 22.6811ZM11.5877 22.7203C11.4103 22.7203 11.257 22.8277 11.257 22.9874V24.7156C11.257 25.4168 11.8752 26.0378 12.6417 26.0378C13.3955 26.0378 14.0264 25.4239 14.0264 24.7156V22.9811C14.0264 22.9013 13.9809 22.8319 13.9209 22.7878C13.861 22.744 13.7849 22.7203 13.7022 22.7203C13.6195 22.7203 13.5429 22.7436 13.4817 22.7868C13.4204 22.8298 13.3714 22.8986 13.3714 22.9811V24.7156C13.3714 25.0831 13.0394 25.4387 12.6417 25.4387C12.2376 25.4387 11.9121 25.0767 11.9121 24.7156V22.9874C11.9121 22.9045 11.8651 22.8408 11.8071 22.7954C11.7492 22.7501 11.6726 22.7203 11.5877 22.7203ZM19.1786 22.7203C19.0955 22.7203 19.0189 22.741 18.9576 22.7855C18.8964 22.8298 18.8548 22.9032 18.8548 22.9811V26.1654C18.8548 26.4044 18.8373 26.6048 18.7829 26.7263C18.7286 26.8476 18.6643 26.9013 18.481 26.9013C18.3189 26.9013 18.1835 27.0378 18.1835 27.2013C18.1835 27.269 18.2062 27.3437 18.2638 27.4017C18.3213 27.4597 18.4108 27.4941 18.5142 27.4941C18.8629 27.4941 19.1298 27.3449 19.2886 27.1028C19.4479 26.8604 19.5095 26.5364 19.5095 26.1654V22.9811C19.5095 22.8982 19.4605 22.826 19.398 22.7834C19.3334 22.741 19.2567 22.7189 19.1786 22.7203ZM15.884 23.242C16.3195 23.242 16.6137 23.5936 16.6137 23.9518C16.6137 23.9908 16.6094 24.0163 16.605 24.028C16.601 24.0396 16.6015 24.0381 16.5954 24.0421C16.5833 24.0497 16.516 24.0663 16.3873 24.0663H15.1542V23.9259C15.1542 23.551 15.4791 23.242 15.884 23.242ZM17.9647 25.2185C17.7267 25.2185 17.5465 25.4083 17.5465 25.6281C17.5465 25.8391 17.7241 26.0314 17.9647 26.0314C18.1927 26.0314 18.376 25.845 18.376 25.6281C18.376 25.4031 18.1896 25.2185 17.9647 25.2185Z" fill="#35495E"/>
<path d="M7.83789 0.47171L12.1536 0.472976L14.9746 4.98851L17.7858 0.473609L22.0978 0.472554L14.9963 12.3509L7.83789 0.47171Z" fill="#35495E"/>
<path d="M3.13086 0.503362L7.83398 0.472565L14.9919 12.3515L22.0939 0.473198L26.8051 0.478049L14.991 20.0286L3.13086 0.503362Z" fill="#41B883"/>
</g>
<defs>
<clipPath id="clip0_509_24922">
<rect width="28" height="27" fill="white" transform="translate(0.968262 0.388611)"/>
</clipPath>
</defs>
</svg>
