<svg width="30" height="28" viewBox="0 0 30 28" fill="none" xmlns="http://www.w3.org/2000/svg">
<path d="M26.8888 21.3832L15.3474 27.7414V22.7849L22.5432 18.9279L26.8982 21.374L26.8888 21.3832ZM27.679 20.6869V7.38426L23.4556 9.75712V18.3049L27.7072 20.6869H27.679ZM2.79012 21.3832L14.3315 27.7414V22.7849L7.13579 18.937L2.79012 21.3832ZM2 20.6869V7.38426L6.22339 9.75712V18.3049L2 20.6869ZM2.49853 6.52307L14.3409 0V4.78236L6.75014 8.85012H6.6937L2.49853 6.52307ZM27.1898 6.52307L15.3474 0V4.78236L22.9288 8.84096L23.0041 8.90509L27.1992 6.55055L27.1898 6.52307Z" fill="#8ED6FB"/>
<path d="M14.0923 22.0145L7 18.2124V10.6816L14.1017 14.6761L14.0923 22.0145ZM15.1082 22.0145L22.2098 18.2124V10.6816L15.1082 14.6761V22.0145ZM7.47972 9.81123L14.6002 6L21.7301 9.81123L14.6002 13.8423L7.47972 9.81123Z" fill="#1C78C0"/>
</svg>
