<svg width="30" height="26" viewBox="0 0 30 26" fill="none" xmlns="http://www.w3.org/2000/svg">
<g clip-path="url(#clip0_526_23274)">
<path d="M9.35594 0.93692C8.57272 0.938565 7.80603 1.36885 7.41181 2.02519L1.27944 12.3341C0.891228 12.9922 0.891228 13.8525 1.27944 14.5106L7.41181 24.8196C7.80603 25.476 8.57272 25.9064 9.35594 25.9079H21.6207C22.4039 25.9062 23.1706 25.476 23.5648 24.8196L29.6972 14.5106C30.0854 13.8525 30.0853 12.9922 29.6972 12.3341L23.5648 2.02519C23.1706 1.36874 22.4039 0.938455 21.6207 0.93692H9.35594ZM9.4673 6.96786C9.48418 6.96622 9.50185 6.96622 9.51873 6.96786H11.6341C11.6811 6.96934 11.727 6.98229 11.7674 7.00552C11.8079 7.02875 11.8416 7.0615 11.8655 7.10073L15.4541 13.2894C15.4722 13.3201 15.4838 13.3541 15.4881 13.3892C15.4926 13.3541 15.5042 13.3201 15.5223 13.2894L19.1023 7.10073C19.127 7.06039 19.1621 7.02694 19.2041 7.00365C19.2461 6.98036 19.2937 6.96803 19.3421 6.96786H21.4577C21.6449 6.9694 21.7853 7.19775 21.6975 7.35825L18.1945 13.4224L21.6975 19.4782C21.7935 19.6396 21.6499 19.8785 21.4577 19.8769H19.3421C19.2929 19.8759 19.2447 19.8624 19.2026 19.8376C19.1605 19.8128 19.1259 19.7776 19.1023 19.7357L15.5223 13.5469C15.5042 13.5164 15.4926 13.4823 15.4882 13.4473C15.4838 13.4824 15.4722 13.5163 15.4541 13.5471L11.8653 19.7357C11.8425 19.7765 11.8093 19.8108 11.7688 19.8355C11.7284 19.8603 11.682 19.8745 11.6343 19.8769H9.51861C9.32638 19.8786 9.18274 19.6396 9.2788 19.4782L12.7818 13.4224L9.2788 7.35825C9.19486 7.21178 9.29738 6.99911 9.4673 6.96786Z" fill="#3498DB"/>
</g>
<defs>
<clipPath id="clip0_526_23274">
<rect width="29" height="25" fill="white" transform="translate(0.988281 0.934387)"/>
</clipPath>
</defs>
</svg>
