<svg width="22" height="23" viewBox="0 0 22 23" fill="none" xmlns="http://www.w3.org/2000/svg">
<g clip-path="url(#clip0_544_36188)">
<path d="M21.7272 9.49336H15.2733L19.8084 4.95826C19.4595 4.43508 19.1106 4.08617 18.7617 3.56264C18.2597 3.19983 17.7926 2.79106 17.3664 2.34164L12.832 6.87708V0.597795C12.2625 0.453625 11.6747 0.39489 11.0878 0.423514C10.5006 0.385655 9.91112 0.444533 9.34297 0.597795V7.0517L4.63359 2.34233C4.09209 2.65271 3.61769 3.06763 3.23797 3.56298C2.88906 4.08617 2.36587 4.43508 2.01697 4.95861L6.55172 9.49336H0.272778L0.0984968 11.2375C0.0607133 11.8246 0.119591 12.4138 0.272778 12.9817H6.72703L2.01765 17.6911C2.70675 18.7288 3.59626 19.6183 4.63393 20.3074L9.16903 15.7723V22.2265C9.73858 22.3707 10.3264 22.4295 10.9132 22.4008C11.5002 22.4386 12.0895 22.3797 12.6574 22.2265V15.773L17.1922 20.3084C17.7336 19.9979 18.2078 19.5829 18.5874 19.0874C19.0369 18.6612 19.4456 18.1941 19.8084 17.6921L15.2733 13.1564H21.7272C21.8715 12.5868 21.9304 11.999 21.9019 11.4122C21.9388 10.7675 21.8797 10.1209 21.7272 9.49336ZM13.7034 11.2375C13.6861 12.0054 13.5688 12.7677 13.3545 13.5053C12.6337 13.7879 11.8592 13.9071 11.0868 13.8542C10.319 13.8368 9.55664 13.7195 8.81909 13.5053C8.53646 12.7845 8.4173 12.01 8.47018 11.2375C8.48752 10.4697 8.60481 9.70737 8.81909 8.96983C9.53988 8.6872 10.3144 8.56803 11.0868 8.62092C11.8547 8.63825 12.617 8.75554 13.3545 8.96983C13.5557 9.71021 13.6728 10.4709 13.7034 11.2375Z" fill="#FF4A00"/>
</g>
<defs>
<clipPath id="clip0_544_36188">
<rect width="22" height="22" fill="white" transform="translate(0 0.41217)"/>
</clipPath>
</defs>
</svg>
