<svg width="16" height="136" viewBox="0 0 16 136" fill="none" xmlns="http://www.w3.org/2000/svg">
<path d="M0.400548 0.61414L14.9457 0.522321L14.9809 6.09039C14.9875 7.14151 14.8273 8.01612 14.5003 8.71422C14.178 9.41702 13.7339 9.94304 13.1679 10.2923C12.6019 10.6462 11.9591 10.8255 11.2394 10.83C10.6476 10.8337 10.1402 10.7233 9.71739 10.4987C9.2993 10.2741 8.95884 9.97081 8.696 9.58894C8.43317 9.20707 8.24344 8.77976 8.12682 8.307L7.98478 8.3079C7.95963 8.82416 7.80414 9.31995 7.51831 9.79524C7.23724 10.2752 6.83725 10.6684 6.31834 10.9747C5.79943 11.281 5.17067 11.4365 4.43204 11.4412C3.67922 11.4459 3.001 11.2679 2.39738 10.9071C1.7985 10.5463 1.32393 10.0001 0.973656 9.26837C0.623386 8.53666 0.444739 7.61447 0.437715 6.50181L0.400548 0.61414ZM2.61884 3.23513L2.63673 6.06888C2.64277 7.0253 2.82941 7.71306 3.19664 8.13215C3.56864 8.55595 4.04346 8.76602 4.6211 8.76238C5.05197 8.75966 5.43954 8.65067 5.78383 8.43543C6.13286 8.22015 6.40556 7.91539 6.60194 7.52115C6.80306 7.12688 6.9019 6.6575 6.89846 6.113L6.88012 3.20823L2.61884 3.23513ZM8.77639 3.19626L8.79284 5.80274C8.79571 6.25728 8.88116 6.66631 9.04918 7.02984C9.22193 7.39334 9.46284 7.67829 9.77192 7.88467C10.0858 8.09576 10.4557 8.19996 10.8819 8.19727C11.4453 8.19372 11.9081 7.99193 12.2701 7.59191C12.6322 7.19662 12.8108 6.61073 12.8059 5.83423L12.7891 3.17093L8.77639 3.19626ZM0.483524 13.7584L15.0287 13.6666L15.0453 16.3015L2.70892 16.3794L2.74936 22.7855L0.540598 22.7994L0.483524 13.7584ZM7.90609 37.4709C6.33888 37.4808 4.99473 37.1957 3.87362 36.6157C2.75728 36.0403 1.9 35.2503 1.30179 34.2455C0.703607 33.2455 0.400497 32.1086 0.392456 30.835C0.384416 29.5613 0.673135 28.4184 1.25861 27.4061C1.84886 26.3986 2.69846 25.5978 3.80742 25.0036C4.92114 24.4142 6.25924 24.1146 7.82171 24.1047C9.38891 24.0948 10.7307 24.3775 11.847 24.9529C12.9681 25.5329 13.8278 26.323 14.426 27.323C15.0242 28.3278 15.3273 29.467 15.3353 30.7406C15.3434 32.0143 15.0546 33.1549 14.4691 34.1624C13.8837 35.1746 13.0341 35.9754 11.9203 36.5649C10.8114 37.159 9.47329 37.461 7.90609 37.4709ZM7.88936 34.8218C8.99256 34.8148 9.92185 34.6362 10.6772 34.2857C11.4374 33.94 12.0097 33.4629 12.3941 32.8544C12.7832 32.2459 12.9753 31.5463 12.9703 30.7556C12.9653 29.9649 12.7644 29.2677 12.3676 28.6642C11.9756 28.0606 11.3973 27.5883 10.6328 27.2475C9.87309 26.9114 8.94163 26.7468 7.83843 26.7538C6.73524 26.7608 5.80356 26.9371 5.04342 27.2828C4.28804 27.6332 3.71577 28.1127 3.32662 28.7212C2.94219 29.3297 2.75247 30.0293 2.75747 30.82C2.76246 31.6107 2.96099 32.3079 3.35307 32.9115C3.74988 33.5151 4.32814 33.9849 5.08785 34.321C5.85233 34.6618 6.78617 34.8288 7.88936 34.8218ZM10.3654 52.3971L10.3486 49.7409C10.7838 49.6624 11.1688 49.5203 11.5037 49.3146C11.8433 49.1088 12.1305 48.8537 12.3653 48.5492C12.6001 48.2446 12.7755 47.8979 12.8914 47.5089C13.0121 47.1246 13.071 46.7099 13.0682 46.2648C13.0632 45.4741 12.86 44.7747 12.4584 44.1664C12.0615 43.5581 11.4809 43.0835 10.7164 42.7427C9.95667 42.4018 9.02993 42.2349 7.9362 42.2418C6.82354 42.2488 5.88715 42.4275 5.12703 42.778C4.37168 43.1331 3.8018 43.615 3.41737 44.2235C3.03771 44.8367 2.85037 45.5362 2.85533 46.3222C2.85808 46.7578 2.91746 47.1646 3.03349 47.5427C3.15428 47.9255 3.32927 48.2676 3.55845 48.5692C3.78766 48.8756 4.06864 49.1318 4.40138 49.3381C4.73416 49.5491 5.11387 49.6934 5.54051 49.7712L5.54307 52.4275C4.85117 52.3325 4.20115 52.1211 3.59301 51.7935C2.98489 51.4706 2.44716 51.0455 1.97981 50.5182C1.51719 49.9908 1.15343 49.3728 0.888538 48.6642C0.628378 47.9556 0.495563 47.1681 0.490093 46.3016C0.482023 45.0232 0.770742 43.8803 1.35625 42.8728C1.94176 41.8653 2.79139 41.0692 3.90514 40.4845C5.0189 39.8998 6.35701 39.6025 7.91948 39.5927C9.48669 39.5828 10.8285 39.8655 11.9448 40.4409C13.0659 41.0162 13.9255 41.8039 14.5237 42.8039C15.1219 43.8039 15.425 44.9384 15.433 46.2073C15.4381 47.0169 15.3292 47.7705 15.1063 48.4679C14.8835 49.1654 14.5536 49.7877 14.1167 50.335C13.6845 50.8823 13.1523 51.3331 12.5201 51.6874C11.8926 52.0465 11.1744 52.2831 10.3654 52.3971ZM0.743056 54.8709L15.2882 54.7791L15.3049 57.4139L8.62175 57.4561L8.62287 57.6337L15.3418 63.2661L15.3621 66.4834L8.79974 60.8997L0.817256 66.6249L0.79726 63.4574L7.00554 59.0786L5.09199 57.4784L0.75969 57.5058L0.743056 54.8709ZM10.576 85.7558L10.5592 83.0996C10.9944 83.0211 11.3794 82.879 11.7142 82.6733C12.0539 82.4675 12.3411 82.2124 12.5759 81.9079C12.8107 81.6033 12.9861 81.2566 13.102 80.8676C13.2227 80.4833 13.2816 80.0686 13.2788 79.6236C13.2738 78.8329 13.0705 78.1334 12.669 77.5251C12.2721 76.9168 11.6915 76.4422 10.927 76.1014C10.1673 75.7605 9.24052 75.5936 8.14679 75.6005C7.03412 75.6075 6.09773 75.7862 5.33762 76.1367C4.58227 76.4918 4.01238 76.9737 3.62796 77.5822C3.2483 78.1954 3.06095 78.895 3.06591 79.6809C3.06866 80.1165 3.12805 80.5234 3.24407 80.9014C3.36486 81.2842 3.53985 81.6264 3.76903 81.928C3.99824 82.2343 4.27922 82.4906 4.61197 82.6968C4.94475 82.9078 5.32445 83.0522 5.75109 83.13L5.75365 85.7862C5.06175 85.6912 4.41173 85.4798 3.80359 85.1522C3.19548 84.8294 2.65775 84.4042 2.19039 83.8769C1.72777 83.3495 1.36402 82.7315 1.09912 82.0229C0.838963 81.3143 0.706148 80.5268 0.700678 79.6603C0.692608 78.382 0.981327 77.239 1.56683 76.2315C2.15234 75.224 3.00197 74.4279 4.11573 73.8432C5.22949 73.2585 6.5676 72.9612 8.13007 72.9514C9.69727 72.9415 11.039 73.2242 12.1554 73.7996C13.2765 74.3749 14.1361 75.1626 14.7343 76.1626C15.3325 77.1626 15.6356 78.2971 15.6436 79.566C15.6487 80.3757 15.5398 81.1292 15.3169 81.8266C15.094 82.5241 14.7642 83.1464 14.3273 83.6937C13.8951 84.241 13.3629 84.6918 12.7307 85.0462C12.1032 85.4052 11.385 85.6418 10.576 85.7558ZM0.953641 88.2296L15.4988 88.1378L15.5154 90.7727L9.35789 90.8115L9.40044 97.5514L15.558 97.5126L15.5747 100.155L1.0295 100.246L1.01282 97.6044L7.19168 97.5654L7.14913 90.8255L0.970274 90.8645L0.953641 88.2296ZM1.05938 104.98L1.04163 102.168L15.6191 107.196L15.6397 110.449L1.12686 115.669L1.1091 112.856L12.6468 108.898L12.6461 108.785L1.05938 104.98ZM6.76298 105.036L6.8114 112.707L4.69496 112.72L4.64654 105.05L6.76298 105.036ZM15.7007 120.128L1.15558 120.219L1.13895 117.584L15.6841 117.493L15.7007 120.128ZM15.7942 134.934L1.24905 135.026L1.23426 132.682L11.0985 125.766L11.0977 125.645L1.19023 125.708L1.1736 123.073L15.7188 122.981L15.7336 125.339L5.86229 132.248L5.8631 132.376L15.7777 132.313L15.7942 134.934Z" fill="#3A3A3A"/>
</svg>
