<svg width="20" height="21" viewBox="0 0 20 21" fill="none" xmlns="http://www.w3.org/2000/svg">
<path fill-rule="evenodd" clip-rule="evenodd" d="M4.72349 10.0264C4.13095 10.0264 3.65063 10.4908 3.65063 11.0638V12.1013C3.65063 12.6743 4.13095 13.1388 4.72349 13.1388H5.79634C6.38887 13.1388 6.86919 12.6743 6.86919 12.1013V11.0638C6.86919 10.4908 6.38887 10.0264 5.79634 10.0264H4.72349ZM4.72349 11.0638V12.1013H5.79634V11.0638H4.72349ZM7.94204 11.0638C7.94204 10.4908 8.42236 10.0264 9.01489 10.0264H10.0877C10.6803 10.0264 11.1606 10.4908 11.1606 11.0638V12.1013C11.1606 12.6743 10.6803 13.1388 10.0877 13.1388H9.01489C8.42236 13.1388 7.94204 12.6743 7.94204 12.1013V11.0638ZM9.01489 11.0638H10.0877V12.1013H9.01489V11.0638ZM13.3063 10.0264C12.7138 10.0264 12.2334 10.4908 12.2334 11.0638V12.1013C12.2334 12.6743 12.7138 13.1388 13.3063 13.1388H14.3791C14.9717 13.1388 15.452 12.6743 15.452 12.1013V11.0638C15.452 10.4908 14.9717 10.0264 14.3791 10.0264H13.3063ZM13.3063 11.0638V12.1013H14.3791V11.0638H13.3063ZM3.65063 15.2138C3.65063 14.6408 4.13095 14.1763 4.72349 14.1763H5.79634C6.38887 14.1763 6.86919 14.6408 6.86919 15.2138V16.2513C6.86919 16.8243 6.38887 17.2887 5.79634 17.2887H4.72349C4.13095 17.2887 3.65063 16.8243 3.65063 16.2513V15.2138ZM4.72349 16.2513V15.2138H5.79634V16.2513H4.72349ZM9.01489 14.1763C8.42236 14.1763 7.94204 14.6408 7.94204 15.2138V16.2513C7.94204 16.8243 8.42236 17.2887 9.01489 17.2887H10.0877C10.6803 17.2887 11.1606 16.8243 11.1606 16.2513V15.2138C11.1606 14.6408 10.6803 14.1763 10.0877 14.1763H9.01489ZM10.0877 15.2138H9.01489V16.2513H10.0877V15.2138ZM12.2334 15.2138C12.2334 14.6408 12.7138 14.1763 13.3063 14.1763H14.3791C14.9717 14.1763 15.452 14.6408 15.452 15.2138V16.2513C15.452 16.8243 14.9717 17.2887 14.3791 17.2887H13.3063C12.7138 17.2887 12.2334 16.8243 12.2334 16.2513V15.2138ZM13.3063 16.2513V15.2138H14.3791V16.2513H13.3063Z" fill="#868484"/>
<path fill-rule="evenodd" clip-rule="evenodd" d="M5.06581 0.0405273C4.75614 0.0405273 4.50512 0.288907 4.50512 0.595292V2.25959H2.26232C1.02366 2.25959 0.0195312 3.25312 0.0195312 4.47865V17.793C0.0195312 19.0186 1.02366 20.0121 2.26232 20.0121H16.8405C18.0791 20.0121 19.0833 19.0186 19.0833 17.793V4.47865C19.0833 3.25312 18.0791 2.25959 16.8405 2.25959H15.7191V3.92388C15.7191 4.23028 15.4681 4.47865 15.1584 4.47865C14.8487 4.47865 14.5977 4.23028 14.5977 3.92388V0.595292C14.5977 0.288907 14.3467 0.0405273 14.037 0.0405273C13.7273 0.0405273 13.4763 0.288907 13.4763 0.595292V2.25959H6.74791V3.92388C6.74791 4.23028 6.49689 4.47865 6.18721 4.47865C5.87754 4.47865 5.62651 4.23028 5.62651 3.92388V0.595292C5.62651 0.288907 5.37549 0.0405273 5.06581 0.0405273ZM1.14093 17.793V8.362H17.9619V17.793C17.9619 18.4058 17.4598 18.9025 16.8405 18.9025H2.26232C1.64299 18.9025 1.14093 18.4058 1.14093 17.793Z" fill="#868484"/>
</svg>
