<svg width="20" height="30" viewBox="0 0 20 30" fill="none" xmlns="http://www.w3.org/2000/svg">
<path d="M18.7355 17.3027L16.2604 9.985C17.1268 9.87335 17.7985 9.13159 17.7985 8.23535C17.7985 7.26229 17.0069 6.47065 16.0338 6.47065H15.3302L16.3802 0.693529C16.4114 0.521941 16.3648 0.345294 16.2531 0.211412C16.1413 0.0774118 15.9759 0 15.8015 0H12.8606C12.7921 0 12.7241 0.012 12.6596 0.0354118L9.62535 1.13876L6.59105 0.0354118C6.52664 0.012 6.45858 0 6.39005 0H3.44888C3.27447 0 3.10905 0.0774118 2.99723 0.211353C2.88547 0.345235 2.83894 0.521882 2.87011 0.693471L3.92047 6.47059H3.09264C2.11958 6.47059 1.32794 7.26224 1.32794 8.23529C1.32794 9.20835 2.11958 10 3.09264 10H3.40264L0.688701 16.835C0.0814653 18.3644 -0.125711 19.9529 0.0731123 21.5562C0.259289 23.0579 0.811583 24.5202 1.67017 25.785C2.52876 27.0498 3.68405 28.1027 5.01111 28.8299C6.42788 29.6064 7.98064 30 9.62623 30C12.7632 30 15.6111 28.5381 17.4397 25.9892C19.2683 23.4404 19.7406 20.2742 18.7355 17.3027ZM4.1537 1.17647H6.28641L9.42429 2.31753C9.55423 2.36482 9.69652 2.36476 9.82629 2.31753L12.9643 1.17647H15.0967L14.1345 6.47059H10.2353V4.11765C10.2353 3.79276 9.97188 3.52941 9.64705 3.52941C9.32217 3.52941 9.05882 3.79276 9.05882 4.11765V6.47059H5.11629L4.1537 1.17647ZM2.50441 8.23529C2.50441 7.91094 2.76829 7.64706 3.09264 7.64706H4.62535H14.6253H16.0338C16.3581 7.64706 16.622 7.91094 16.622 8.23529C16.622 8.55965 16.3581 8.82353 16.0338 8.82353H15.4455H4.26905H3.09258C2.76829 8.82353 2.50441 8.55965 2.50441 8.23529ZM16.4838 25.3035C14.8789 27.5405 12.3794 28.8235 9.62623 28.8235C6.7847 28.8235 4.23958 27.4752 2.64352 25.1242C1.04747 22.7732 0.733524 19.9101 1.78211 17.2692L4.66847 10H9.58823V12.3529C9.58823 12.6778 9.85164 12.9412 10.1765 12.9412C10.5013 12.9412 10.7647 12.6778 10.7647 12.3529V10H12.5294V12.9412C12.5294 13.2661 12.7928 13.5294 13.1176 13.5294C13.4425 13.5294 13.7059 13.2661 13.7059 12.9412V10H15.0235L17.6211 17.6796C18.5032 20.2876 18.0887 23.0665 16.4838 25.3035Z" fill="url(#paint0_linear_54_6863)"/>
<path d="M9.26917 14.1176C5.70129 14.1176 2.79858 17.0204 2.79858 20.5882C2.79858 24.1561 5.70129 27.0588 9.26917 27.0588C12.8371 27.0588 15.7398 24.1561 15.7398 20.5882C15.7398 17.0204 12.837 14.1176 9.26917 14.1176ZM9.26917 25.8824C6.35 25.8824 3.97505 23.5074 3.97505 20.5882C3.97505 17.6691 6.35 15.2941 9.26917 15.2941C12.1883 15.2941 14.5633 17.6691 14.5633 20.5882C14.5633 23.5074 12.1883 25.8824 9.26917 25.8824Z" fill="url(#paint1_linear_54_6863)"/>
<path d="M9.26916 18.8235H10.4456C10.7705 18.8235 11.0339 18.5601 11.0339 18.2353C11.0339 17.9105 10.7705 17.6471 10.4456 17.6471H9.88239V17.0588C9.88239 16.734 9.61904 16.4706 9.29416 16.4706C8.96928 16.4706 8.70592 16.734 8.70592 17.0588V17.7471C8.00004 17.989 7.51528 18.6437 7.51528 19.4118C7.51528 20.3848 8.30151 21.1765 9.27457 21.1765C9.59892 21.1765 9.86004 21.4403 9.86004 21.7647C9.86004 22.0891 9.59345 22.3529 9.2691 22.3529H8.09263C7.76775 22.3529 7.50439 22.6163 7.50439 22.9412C7.50439 23.266 7.76775 23.5294 8.09263 23.5294H8.70592V24.1176C8.70592 24.4425 8.96928 24.7059 9.29416 24.7059C9.61904 24.7059 9.88239 24.4425 9.88239 24.1176V23.4271C10.5295 23.1833 11.0447 22.5303 11.0447 21.7647C11.0447 20.7916 10.2476 20 9.27457 20C8.95022 20 8.68363 19.7361 8.68363 19.4118C8.68363 19.0874 8.94481 18.8235 9.26916 18.8235Z" fill="url(#paint2_linear_54_6863)"/>
<defs>
<linearGradient id="paint0_linear_54_6863" x1="9.62662" y1="0" x2="9.64706" y2="31.2941" gradientUnits="userSpaceOnUse">
<stop stop-color="#5D6271"/>
<stop offset="1" stop-color="#DCDCDD"/>
</linearGradient>
<linearGradient id="paint1_linear_54_6863" x1="9.26917" y1="14.1176" x2="9.27483" y2="27.6171" gradientUnits="userSpaceOnUse">
<stop stop-color="#5D6271"/>
<stop offset="1" stop-color="#DCDCDD"/>
</linearGradient>
<linearGradient id="paint2_linear_54_6863" x1="9.27454" y1="16.4706" x2="9.28292" y2="25.0611" gradientUnits="userSpaceOnUse">
<stop stop-color="#5D6271"/>
<stop offset="1" stop-color="#DCDCDD"/>
</linearGradient>
</defs>
</svg>
