<svg width="21" height="21" viewBox="0 0 21 21" fill="none" xmlns="http://www.w3.org/2000/svg">
<path d="M19.3571 16.7927C18.8831 15.67 18.1953 14.6502 17.3319 13.7902C16.4712 12.9276 15.4516 12.2399 14.3294 11.765C14.3194 11.76 14.3093 11.7575 14.2993 11.7525C15.8646 10.6218 16.8822 8.78011 16.8822 6.70223C16.8822 3.26001 14.0932 0.471069 10.651 0.471069C7.20882 0.471069 4.41988 3.26001 4.41988 6.70223C4.41988 8.78011 5.43747 10.6218 7.00279 11.755C6.99274 11.76 6.98269 11.7625 6.97264 11.7676C5.84701 12.2424 4.83696 12.9233 3.97013 13.7927C3.10759 14.6534 2.41989 15.673 1.945 16.7952C1.47848 17.8938 1.22687 19.0717 1.2038 20.265C1.20313 20.2919 1.20783 20.3185 1.21763 20.3435C1.22743 20.3685 1.24213 20.3912 1.26086 20.4104C1.2796 20.4296 1.30198 20.4449 1.3267 20.4553C1.35142 20.4657 1.37798 20.4711 1.4048 20.4711H2.91234C3.02289 20.4711 3.11083 20.3831 3.11335 20.2751C3.1636 18.3354 3.94249 16.5188 5.31938 15.1419C6.744 13.7173 8.63596 12.9334 10.651 12.9334C12.6661 12.9334 14.5581 13.7173 15.9827 15.1419C17.3596 16.5188 18.1385 18.3354 18.1887 20.2751C18.1912 20.3856 18.2792 20.4711 18.3897 20.4711H19.8973C19.9241 20.4711 19.9506 20.4657 19.9754 20.4553C20.0001 20.4449 20.0225 20.4296 20.0412 20.4104C20.0599 20.3912 20.0746 20.3685 20.0844 20.3435C20.0942 20.3185 20.0989 20.2919 20.0983 20.265C20.0731 19.064 19.8244 17.8957 19.3571 16.7927ZM10.651 11.0238C9.49777 11.0238 8.41234 10.5741 7.59576 9.7575C6.77917 8.94092 6.32943 7.85549 6.32943 6.70223C6.32943 5.54896 6.77917 4.46353 7.59576 3.64695C8.41234 2.83037 9.49777 2.38062 10.651 2.38062C11.8043 2.38062 12.8897 2.83037 13.7063 3.64695C14.5229 4.46353 14.9726 5.54896 14.9726 6.70223C14.9726 7.85549 14.5229 8.94092 13.7063 9.7575C12.8897 10.5741 11.8043 11.0238 10.651 11.0238Z" fill="#787878"/>
</svg>
