<svg width="21" height="21" viewBox="0 0 21 21" fill="none" xmlns="http://www.w3.org/2000/svg">
<path d="M10.151 0.9104C7.41363 0.9104 5.18662 3.13741 5.18662 5.87475V8.85336H4.19375C3.09861 8.85336 2.20801 9.74397 2.20801 10.8391V18.7821C2.20801 19.8772 3.09861 20.7678 4.19375 20.7678H16.1082C17.2033 20.7678 18.0939 19.8772 18.0939 18.7821V10.8391C18.0939 9.74397 17.2033 8.85336 16.1082 8.85336H15.1153V5.87475C15.1153 3.13741 12.8883 0.9104 10.151 0.9104ZM16.1082 10.8391L16.1102 18.7821H4.19375V10.8391H16.1082ZM7.17236 8.85336V5.87475C7.17236 4.23254 8.50876 2.89614 10.151 2.89614C11.7932 2.89614 13.1296 4.23254 13.1296 5.87475V8.85336H7.17236Z" fill="#787878"/>
</svg>
