<svg width="75" height="76" viewBox="0 0 75 76" fill="none" xmlns="http://www.w3.org/2000/svg">
<g filter="url(#filter0_bdd_1_285)">
<rect x="50.0056" y="15.7684" width="35" height="35" rx="12" transform="rotate(90 50.0056 15.7684)" fill="#FF867A"/>
</g>
<path d="M17.9109 68.8901C17.5643 68.8893 17.2958 68.7933 17.1056 68.6021C16.9241 68.411 16.8337 68.1421 16.8346 67.7955L16.8521 60.5805C16.8529 60.2252 16.9532 59.9567 17.153 59.7752C17.3528 59.585 17.6347 59.4904 17.9987 59.4913C18.302 59.492 18.5402 59.5533 18.7133 59.675C18.895 59.7881 19.0592 59.9792 19.2059 60.2482L21.9887 65.273L21.5337 65.2719L24.3279 60.2606C24.4845 59.9923 24.6496 59.8021 24.8233 59.6898C25.0055 59.5689 25.2484 59.5089 25.5517 59.5096C25.8984 59.5104 26.1625 59.6064 26.344 59.7975C26.5342 59.98 26.6289 60.2489 26.628 60.6042L26.6105 67.8192C26.6097 68.1659 26.518 68.4343 26.3356 68.6245C26.1531 68.8147 25.8842 68.9094 25.5289 68.9086C25.1822 68.9077 24.9138 68.8117 24.7236 68.6206C24.5421 68.4295 24.4517 68.1606 24.4525 67.814L24.4634 63.342L24.7364 63.3426L22.6346 66.9775C22.5128 67.1679 22.3824 67.3106 22.2435 67.4056C22.1133 67.5006 21.9355 67.5478 21.7102 67.5473C21.4935 67.5468 21.316 67.4987 21.1775 67.403C21.0391 67.3073 20.9138 67.164 20.8016 66.9731L18.7044 63.315L19.0034 63.3157L18.9926 67.8007C18.9917 68.1474 18.9001 68.4158 18.7176 68.606C18.5351 68.7963 18.2663 68.891 17.9109 68.8901ZM31.3761 68.9488C30.6654 68.947 30.0461 68.8112 29.5181 68.5412C28.99 68.2713 28.5793 67.8846 28.2859 67.3813C27.9924 66.8779 27.8465 66.2838 27.8482 65.5992C27.8494 65.0792 27.9329 64.6157 28.0986 64.2088C28.2642 63.7932 28.5034 63.4428 28.8161 63.1575C29.1288 62.8636 29.502 62.6435 29.9357 62.4972C30.3694 62.3423 30.8549 62.2655 31.3923 62.2668C32.1029 62.2685 32.7223 62.4043 33.2503 62.6743C33.7783 62.9442 34.1847 63.3309 34.4695 63.8342C34.763 64.329 34.9088 64.923 34.9072 65.6163C34.9059 66.1276 34.8225 66.5911 34.6568 67.0067C34.4911 67.4223 34.2519 67.7771 33.9392 68.071C33.6352 68.3562 33.262 68.5763 32.8196 68.7313C32.3859 68.8775 31.9047 68.95 31.3761 68.9488ZM31.3802 67.2458C31.6142 67.2463 31.8223 67.1905 32.0046 67.0783C32.1869 66.9574 32.326 66.78 32.4219 66.5463C32.5265 66.3039 32.5792 65.992 32.5802 65.6107C32.5816 65.03 32.4699 64.6137 32.2452 64.3618C32.0205 64.1013 31.7348 63.9706 31.3881 63.9698C31.1542 63.9692 30.946 64.025 30.7637 64.1373C30.5815 64.2495 30.438 64.4268 30.3335 64.6692C30.2289 64.903 30.1761 65.2148 30.1752 65.6048C30.1738 66.1768 30.2855 66.5931 30.5102 66.8536C30.7349 67.1142 31.0249 67.2449 31.3802 67.2458ZM37.1424 68.9367C36.7611 68.9358 36.4667 68.8354 36.2592 68.6356C36.0603 68.4358 35.9613 68.1452 35.9623 67.7639L35.9727 63.4609C35.9736 63.0882 36.0696 62.8024 36.2608 62.6036C36.4606 62.4047 36.7425 62.3057 37.1065 62.3066C37.4705 62.3075 37.7476 62.4079 37.9378 62.6076C38.128 62.8074 38.2226 63.0937 38.2217 63.4663L38.2204 63.9993L38.0904 63.999C38.1783 63.4792 38.4003 63.0681 38.7564 62.7656C39.1211 62.4632 39.5722 62.3039 40.1096 62.2879C40.3609 62.2799 40.5471 62.3453 40.6681 62.4843C40.7978 62.6146 40.8665 62.8617 40.8743 63.2258C40.8735 63.5378 40.8079 63.7846 40.6775 63.9663C40.5471 64.148 40.2998 64.2557 39.9357 64.2895L39.6367 64.3148C39.1772 64.357 38.8432 64.4862 38.6347 64.7023C38.4262 64.9098 38.3214 65.2216 38.3204 65.6376L38.3153 67.7696C38.3143 68.1509 38.214 68.441 38.0142 68.6398C37.8143 68.8387 37.5238 68.9377 37.1424 68.9367ZM44.9658 68.9817C44.1858 68.9798 43.5101 68.8438 42.9388 68.5738C42.3761 68.2951 41.9437 67.904 41.6416 67.4006C41.3395 66.8972 41.1893 66.3032 41.191 65.6185C41.1926 64.9599 41.3369 64.3839 41.6241 63.8906C41.92 63.3886 42.3196 62.9996 42.823 62.7235C43.335 62.4387 43.916 62.2971 44.566 62.2987C45.0427 62.2999 45.4758 62.3789 45.8654 62.5359C46.2551 62.6842 46.5882 62.906 46.8648 63.2013C47.1415 63.488 47.3486 63.8351 47.4863 64.2428C47.6327 64.6505 47.7052 65.1057 47.704 65.6083C47.7036 65.7817 47.6556 65.9116 47.5601 65.998C47.4645 66.0758 47.3128 66.1144 47.1048 66.1139L43.1268 66.1042L43.1294 65.0122L46.0154 65.0192L45.807 65.1877C45.8078 64.8671 45.7651 64.607 45.6789 64.4074C45.5927 64.2079 45.4631 64.0559 45.29 63.9515C45.1256 63.8471 44.9177 63.7946 44.6664 63.794C44.3977 63.7933 44.1636 63.8577 43.9639 63.9873C43.773 64.1081 43.6252 64.2898 43.5206 64.5322C43.416 64.7746 43.3633 65.0778 43.3624 65.4418L43.3621 65.5588C43.3606 66.1741 43.4939 66.6165 43.7619 66.8858C44.0386 67.1465 44.4629 67.2775 45.0349 67.2789C45.2256 67.2793 45.4423 67.2582 45.6851 67.2154C45.9366 67.1641 46.1751 67.0953 46.4006 67.0092C46.6261 66.9231 46.8212 66.9105 46.9857 66.9716C47.1502 67.024 47.2757 67.1196 47.362 67.2585C47.457 67.3887 47.5086 67.5405 47.5169 67.7139C47.5252 67.8786 47.4858 68.0432 47.3987 68.2076C47.3116 68.3634 47.1684 68.4844 46.9688 68.5706C46.6651 68.7085 46.3399 68.8117 45.9931 68.8802C45.6549 68.9487 45.3125 68.9826 44.9658 68.9817Z" fill="#5D6271"/>
<path d="M24.9075 31.3812L32.2233 38.8446L39.3914 31.0574" stroke="white" stroke-width="2" stroke-linecap="round"/>
<defs>
<filter id="filter0_bdd_1_285" x="0.00561523" y="0.768433" width="75" height="75" filterUnits="userSpaceOnUse" color-interpolation-filters="sRGB">
<feFlood flood-opacity="0" result="BackgroundImageFix"/>
<feGaussianBlur in="BackgroundImageFix" stdDeviation="2"/>
<feComposite in2="SourceAlpha" operator="in" result="effect1_backgroundBlur_1_285"/>
<feColorMatrix in="SourceAlpha" type="matrix" values="0 0 0 0 0 0 0 0 0 0 0 0 0 0 0 0 0 0 127 0" result="hardAlpha"/>
<feOffset dx="5" dy="5"/>
<feGaussianBlur stdDeviation="10"/>
<feComposite in2="hardAlpha" operator="out"/>
<feColorMatrix type="matrix" values="0 0 0 0 0 0 0 0 0 0 0 0 0 0 0 0 0 0 0.2 0"/>
<feBlend mode="normal" in2="effect1_backgroundBlur_1_285" result="effect2_dropShadow_1_285"/>
<feColorMatrix in="SourceAlpha" type="matrix" values="0 0 0 0 0 0 0 0 0 0 0 0 0 0 0 0 0 0 127 0" result="hardAlpha"/>
<feOffset dx="-1" dy="-1"/>
<feGaussianBlur stdDeviation="7"/>
<feComposite in2="hardAlpha" operator="out"/>
<feColorMatrix type="matrix" values="0 0 0 0 1 0 0 0 0 1 0 0 0 0 1 0 0 0 0.8 0"/>
<feBlend mode="normal" in2="effect2_dropShadow_1_285" result="effect3_dropShadow_1_285"/>
<feBlend mode="normal" in="SourceGraphic" in2="effect3_dropShadow_1_285" result="shape"/>
</filter>
</defs>
</svg>
