<svg width="75" height="75" viewBox="0 0 75 75" fill="none" xmlns="http://www.w3.org/2000/svg">
<g filter="url(#filter0_bdd_54_6468)">
<rect x="15" y="15" width="35" height="35" rx="12" fill="#8AB1C8"/>
</g>
<path d="M58.5474 48.1868L58.5534 45.7216L64.912 43.1333L64.9123 43.0225L58.5663 40.4034L58.5723 37.9382L68.0268 37.9612L68.0221 39.9001L61.8684 39.8851L61.8682 39.9636L67.9698 42.4252L67.9666 43.7455L61.83 46.1773L61.8298 46.2558L68.0067 46.2708L68.002 48.2097L58.5474 48.1868ZM68.177 33.1477C68.1752 33.8648 68.0214 34.4845 67.7154 35.007C67.4064 35.5264 66.9776 35.927 66.4291 36.2088C65.8776 36.4906 65.2386 36.6306 64.5123 36.6289C63.7798 36.6271 63.14 36.484 62.5929 36.1995C62.0426 35.915 61.6158 35.5123 61.3124 34.9915C61.0059 34.4675 60.8535 33.847 60.8553 33.1299C60.857 32.4128 61.0124 31.7946 61.3214 31.2752C61.6274 30.7528 62.0561 30.3506 62.6077 30.0688C63.1562 29.787 63.7967 29.647 64.5292 29.6488C65.2555 29.6505 65.8938 29.7936 66.444 30.0781C66.9911 30.3626 67.418 30.7668 67.7245 31.2907C68.0279 31.8116 68.1787 32.4306 68.177 33.1477ZM66.6536 33.1347C66.6544 32.8085 66.5627 32.5359 66.3786 32.317C66.1914 32.098 65.9363 31.9327 65.6134 31.8211C65.2906 31.7065 64.9229 31.6487 64.5105 31.6477C64.0981 31.6467 63.7302 31.7027 63.4068 31.8158C63.0833 31.9258 62.8275 32.0898 62.6392 32.3079C62.451 32.526 62.3564 32.7981 62.3556 33.1243C62.3548 33.4536 62.448 33.7308 62.6352 33.956C62.8224 34.178 63.0775 34.3464 63.4003 34.461C63.7232 34.5726 64.0909 34.6289 64.5033 34.6299C64.9157 34.6309 65.2836 34.5764 65.607 34.4664C65.9304 34.3533 66.1863 34.1862 66.3746 33.965C66.5598 33.7408 66.6528 33.4641 66.6536 33.1347ZM68.0501 28.3785L60.9592 28.3613L60.9638 26.4547L62.201 26.4577L62.2012 26.3839C61.7614 26.2535 61.4295 26.0358 61.2056 25.7305C60.9786 25.4253 60.8656 25.0742 60.8665 24.6772C60.8668 24.5787 60.8732 24.4725 60.8858 24.3587C60.8984 24.2448 60.9155 24.1448 60.9373 24.0587L62.6823 24.0629C62.6544 24.1552 62.6295 24.2829 62.6075 24.4459C62.5856 24.609 62.5744 24.7582 62.5741 24.8937C62.5734 25.1829 62.6359 25.4416 62.7615 25.6697C62.8841 25.8946 63.056 26.0736 63.2773 26.2064C63.4985 26.3362 63.7538 26.4015 64.0431 26.4022L68.0548 26.4119L68.0501 28.3785ZM68.2085 20.1581C68.2067 20.8875 68.0575 21.515 67.7607 22.0405C67.4609 22.563 67.0383 22.9652 66.4929 23.247C65.9444 23.5288 65.2962 23.6688 64.5483 23.667C63.8189 23.6652 63.1791 23.5221 62.6289 23.2376C62.0787 22.9531 61.6503 22.5535 61.3438 22.0388C61.0373 21.521 60.8849 20.9144 60.8866 20.2188C60.8877 19.751 60.9642 19.3157 61.116 18.9129C61.2647 18.507 61.4887 18.1536 61.7879 17.8527C62.0872 17.5488 62.4632 17.3127 62.9161 17.1445C63.3658 16.9764 63.8923 16.893 64.4955 16.8945L65.0356 16.8958L65.0211 22.8833L63.8024 22.8804L63.8124 18.744C63.5293 18.7433 63.2783 18.8043 63.0595 18.9269C62.8407 19.0494 62.6694 19.2198 62.5458 19.438C62.4191 19.6532 62.3554 19.9038 62.3547 20.1901C62.354 20.4886 62.4226 20.7534 62.5605 20.9846C62.6954 21.2127 62.8781 21.3916 63.1086 21.5214C63.336 21.6513 63.5897 21.718 63.8698 21.7218L65.0285 21.7246C65.3794 21.7255 65.6827 21.6616 65.9385 21.5329C66.1942 21.4012 66.3916 21.2155 66.5307 20.9758C66.6698 20.736 66.7397 20.4515 66.7405 20.1222C66.7411 19.9037 66.7108 19.7036 66.6497 19.5219C66.5885 19.3401 66.4966 19.1845 66.3738 19.0549C66.251 18.9254 66.1004 18.8265 65.9221 18.7584L66.0465 16.9398C66.4833 17.0332 66.8645 17.2234 67.19 17.5104C67.5125 17.7943 67.764 18.1612 67.9445 18.6109C68.1219 19.0576 68.2099 19.5733 68.2085 20.1581Z" fill="#5D6271"/>
<path d="M30.6128 40.0981L38.0762 32.7822L30.289 25.6141" stroke="#5D6271" stroke-width="2" stroke-linecap="round"/>
<defs>
<filter id="filter0_bdd_54_6468" x="0" y="1.52588e-05" width="75" height="75" filterUnits="userSpaceOnUse" color-interpolation-filters="sRGB">
<feFlood flood-opacity="0" result="BackgroundImageFix"/>
<feGaussianBlur in="BackgroundImageFix" stdDeviation="2"/>
<feComposite in2="SourceAlpha" operator="in" result="effect1_backgroundBlur_54_6468"/>
<feColorMatrix in="SourceAlpha" type="matrix" values="0 0 0 0 0 0 0 0 0 0 0 0 0 0 0 0 0 0 127 0" result="hardAlpha"/>
<feOffset dx="5" dy="5"/>
<feGaussianBlur stdDeviation="10"/>
<feComposite in2="hardAlpha" operator="out"/>
<feColorMatrix type="matrix" values="0 0 0 0 0 0 0 0 0 0 0 0 0 0 0 0 0 0 0.2 0"/>
<feBlend mode="normal" in2="effect1_backgroundBlur_54_6468" result="effect2_dropShadow_54_6468"/>
<feColorMatrix in="SourceAlpha" type="matrix" values="0 0 0 0 0 0 0 0 0 0 0 0 0 0 0 0 0 0 127 0" result="hardAlpha"/>
<feOffset dx="-1" dy="-1"/>
<feGaussianBlur stdDeviation="7"/>
<feComposite in2="hardAlpha" operator="out"/>
<feColorMatrix type="matrix" values="0 0 0 0 1 0 0 0 0 1 0 0 0 0 1 0 0 0 0.8 0"/>
<feBlend mode="normal" in2="effect2_dropShadow_54_6468" result="effect3_dropShadow_54_6468"/>
<feBlend mode="normal" in="SourceGraphic" in2="effect3_dropShadow_54_6468" result="shape"/>
</filter>
</defs>
</svg>
