<svg width="201" height="74" viewBox="0 0 201 74" fill="none" xmlns="http://www.w3.org/2000/svg">
<g filter="url(#filter0_di_314_6645)">
<rect width="160.137" height="31.401" rx="8" transform="matrix(0.99991 0.0133892 0.000854935 1 15 15)" fill="#C1D5E0"/>
</g>
<path d="M38.0007 26.6433L38.1042 37.5519L36.8258 37.5592L30.8001 29.0285L30.6936 29.0291L30.7748 37.594L29.4538 37.6016L29.3503 26.693L30.6287 26.6857L36.676 35.2376L36.7825 35.237L36.7011 26.6508L38.0007 26.6433ZM44.0091 37.6884C43.2207 37.6929 42.539 37.5228 41.964 37.1781C41.3925 36.8298 40.9493 36.3423 40.6344 35.7156C40.323 35.0853 40.1633 34.3511 40.1554 33.5131C40.1474 32.675 40.2931 31.9355 40.5925 31.2946C40.8953 30.6501 41.3202 30.1469 41.8673 29.7851C42.4178 29.4197 43.0624 29.2349 43.801 29.2307C44.2271 29.2282 44.6486 29.2968 45.0654 29.4365C45.4822 29.5761 45.8626 29.8048 46.2066 30.1224C46.5505 30.4365 46.8261 30.8539 47.0335 31.3747C47.2408 31.8956 47.3481 32.5377 47.3554 33.3012L47.3604 33.8338L41.0537 33.8701L41.0434 32.7835L46.0717 32.7546C46.0673 32.293 45.9711 31.8816 45.783 31.5204C45.5985 31.1593 45.3365 30.8749 44.9972 30.6673C44.6614 30.4598 44.2662 30.3573 43.8117 30.3599C43.311 30.3628 42.8789 30.4895 42.5155 30.7402C42.1557 30.9873 41.8799 31.3085 41.6884 31.7038C41.4968 32.0991 41.4031 32.5222 41.4074 32.9732L41.4143 33.6976C41.4202 34.3154 41.5317 34.8386 41.7488 35.267C41.9695 35.6919 42.2726 36.0151 42.6582 36.2366C43.0438 36.4546 43.4906 36.5621 43.9984 36.5592C44.3286 36.5573 44.6265 36.5094 44.8919 36.4155C45.1609 36.3181 45.3921 36.1747 45.5857 35.9854C45.7792 35.7925 45.9278 35.5537 46.0317 35.269L47.2494 35.6029C47.1254 36.0156 46.914 36.379 46.6151 36.6933C46.3162 37.0039 45.9457 37.2475 45.5034 37.4241C45.0612 37.5971 44.563 37.6852 44.0091 37.6884ZM51.1611 37.4768L48.5906 29.3097L49.9116 29.3021L51.7395 35.5558L51.8247 35.5553L53.5124 29.2813L54.8547 29.2736L56.6398 35.5063L56.725 35.5058L58.4342 29.253L59.7552 29.2454L57.34 37.4412L56.1042 37.4483L54.2548 31.1734L54.127 31.1741L52.3969 37.4697L51.1611 37.4768ZM65.7804 26.4835L67.3571 26.4744L71.1503 35.5081L71.2781 35.5073L74.8995 26.431L76.4762 26.422L76.5797 37.3306L75.3439 37.3377L75.2653 29.0497L75.1588 29.0503L71.8284 37.3579L70.6352 37.3648L67.1475 29.0964L67.041 29.097L67.1196 37.385L65.8839 37.3921L65.7804 26.4835ZM82.4899 37.467C81.7015 37.4716 81.0199 37.3015 80.4448 36.9568C79.8733 36.6085 79.4301 36.121 79.1152 35.4942C78.8038 34.8639 78.6442 34.1297 78.6362 33.2917C78.6283 32.4537 78.7739 31.7142 79.0733 31.0733C79.3761 30.4288 79.801 29.9256 80.3481 29.5638C80.8986 29.1984 81.5432 29.0136 82.2818 29.0093C82.7079 29.0069 83.1294 29.0755 83.5462 29.2151C83.9631 29.3548 84.3434 29.5834 84.6874 29.901C85.0313 30.2151 85.3069 30.6326 85.5143 31.1534C85.7216 31.6742 85.8289 32.3164 85.8362 33.0798L85.8412 33.6125L79.5345 33.6488L79.5242 32.5622L84.5525 32.5332C84.5481 32.0716 84.4519 31.6602 84.2638 31.2991C84.0793 30.9379 83.8173 30.6536 83.478 30.446C83.1422 30.2384 82.747 30.1359 82.2925 30.1385C81.7918 30.1414 81.3598 30.2682 80.9964 30.5189C80.6365 30.766 80.3607 31.0872 80.1692 31.4824C79.9776 31.8777 79.884 32.3009 79.8882 32.7518L79.8951 33.4762C79.901 34.0941 80.0125 34.6173 80.2296 35.0457C80.4503 35.4706 80.7534 35.7938 81.1391 36.0153C81.5247 36.2332 81.9714 36.3407 82.4792 36.3378C82.8094 36.3359 83.1073 36.288 83.3727 36.1942C83.6417 36.0967 83.8729 35.9534 84.0665 35.764C84.26 35.5712 84.4086 35.3324 84.5125 35.0477L85.7302 35.3816C85.6062 35.7942 85.3948 36.1577 85.0959 36.4719C84.797 36.7826 84.4265 37.0262 83.9842 37.2027C83.542 37.3757 83.0438 37.4638 82.4899 37.467ZM91.2202 37.4168C90.4319 37.4213 89.7502 37.2513 89.1752 36.9065C88.6036 36.5583 88.1604 36.0708 87.8455 35.444C87.5341 34.8137 87.3745 34.0795 87.3665 33.2415C87.3586 32.4035 87.5043 31.664 87.8036 31.023C88.1064 30.3785 88.5314 29.8754 89.0784 29.5136C89.6289 29.1482 90.2735 28.9634 91.0121 28.9591C91.4383 28.9567 91.8597 29.0253 92.2766 29.1649C92.6934 29.3046 93.0738 29.5332 93.4177 29.8508C93.7616 30.1649 94.0372 30.5824 94.2446 31.1032C94.452 31.624 94.5593 32.2662 94.5665 33.0296L94.5715 33.5623L88.2648 33.5985L88.2545 32.5119L93.2829 32.483C93.2785 32.0214 93.1822 31.61 92.9941 31.2489C92.8096 30.8877 92.5477 30.6033 92.2083 30.3958C91.8725 30.1882 91.4774 30.0857 91.0228 30.0883C90.5221 30.0912 90.0901 30.218 89.7267 30.4686C89.3668 30.7158 89.0911 31.0369 88.8995 31.4322C88.7079 31.8275 88.6143 32.2506 88.6186 32.7016L88.6254 33.426C88.6313 34.0439 88.7428 34.567 88.9599 34.9955C89.1806 35.4203 89.4837 35.7435 89.8694 35.965C90.255 36.183 90.7017 36.2905 91.2095 36.2876C91.5397 36.2857 91.8376 36.2378 92.103 36.144C92.372 36.0465 92.6033 35.9031 92.7968 35.7138C92.9903 35.5209 93.1389 35.2822 93.2428 34.9975L94.4605 35.3314C94.3366 35.744 94.1252 36.1075 93.8263 36.4217C93.5274 36.7324 93.1568 36.976 92.7146 37.1525C92.2723 37.3255 91.7742 37.4136 91.2202 37.4168ZM99.9991 29.014L100.009 30.0792L95.7693 30.1036L95.7591 29.0383L99.9991 29.014ZM96.9763 27.0711L98.2334 27.0639L98.3074 34.8618C98.3108 35.2169 98.3648 35.4829 98.4694 35.6599C98.5776 35.8333 98.7137 35.9497 98.8776 36.0091C99.045 36.065 99.2211 36.0924 99.4057 36.0913C99.5442 36.0905 99.6578 36.0827 99.7464 36.068C99.835 36.0498 99.9059 36.0352 99.9591 36.0242L100.225 37.1519C100.141 37.1844 100.022 37.217 99.8695 37.2499C99.7172 37.2862 99.5238 37.3051 99.2894 37.3065C98.9343 37.3085 98.5856 37.2342 98.2432 37.0834C97.9044 36.9327 97.6217 36.7017 97.395 36.3905C97.1719 36.0793 97.0581 35.6858 97.0535 35.2099L96.9763 27.0711ZM101.968 37.1845L101.89 29.0031L103.147 28.9958L103.225 37.1773L101.968 37.1845ZM102.516 27.6358C102.271 27.6372 102.059 27.555 101.88 27.3891C101.705 27.2232 101.616 27.0231 101.613 26.7887C101.611 26.5544 101.696 26.3532 101.869 26.1853C102.045 26.0174 102.255 25.9328 102.5 25.9314C102.745 25.9299 102.956 26.0122 103.131 26.1781C103.31 26.344 103.401 26.5441 103.403 26.7784C103.405 27.0128 103.318 27.2139 103.143 27.3819C102.97 27.5498 102.761 27.6344 102.516 27.6358ZM106.738 32.2352L106.784 37.1568L105.527 37.164L105.45 28.9826L106.664 28.9756L106.676 30.254L106.783 30.2534C106.971 29.8368 107.259 29.5013 107.647 29.247C108.035 28.989 108.538 28.8583 109.156 28.8547C109.71 28.8516 110.196 28.9624 110.613 29.1873C111.031 29.4086 111.357 29.7476 111.592 30.2044C111.828 30.6576 111.948 31.2322 111.955 31.9282L112.004 37.1268L110.747 37.134L110.699 32.0206C110.693 31.3779 110.521 30.8782 110.184 30.5214C109.847 30.1612 109.387 29.9827 108.804 29.986C108.403 29.9883 108.045 30.0774 107.731 30.2532C107.42 30.429 107.176 30.6843 106.998 31.0192C106.82 31.354 106.733 31.7593 106.738 32.2352ZM117.635 40.3331C117.027 40.3366 116.505 40.2614 116.066 40.1077C115.628 39.9575 115.262 39.7572 114.969 39.5068C114.679 39.2599 114.447 38.9949 114.274 38.7118L115.269 38.0029C115.384 38.1514 115.529 38.321 115.705 38.5118C115.881 38.7061 116.12 38.8734 116.424 39.0137C116.73 39.1575 117.131 39.228 117.624 39.2252C118.285 39.2214 118.828 39.0584 119.255 38.7364C119.682 38.4143 119.892 37.9124 119.885 37.2306L119.869 35.5688L119.763 35.5694C119.672 35.719 119.542 35.9044 119.374 36.1256C119.209 36.3432 118.969 36.5381 118.655 36.7103C118.344 36.879 117.922 36.9649 117.39 36.968C116.729 36.9718 116.135 36.8189 115.606 36.5095C115.081 36.2 114.663 35.7478 114.352 35.153C114.045 34.5582 113.887 33.8347 113.879 32.9824C113.871 32.1444 114.011 31.4138 114.3 30.7907C114.589 30.1641 114.994 29.6788 115.517 29.3349C116.039 28.9874 116.645 28.8117 117.334 28.8077C117.866 28.8046 118.29 28.891 118.604 29.0667C118.922 29.2389 119.165 29.4364 119.334 29.6591C119.506 29.8783 119.64 30.0587 119.733 30.2002L119.861 30.1994L119.849 28.8998L121.063 28.8928L121.143 37.3086C121.15 38.0117 120.995 38.5843 120.68 39.0265C120.368 39.4722 119.945 39.7995 119.411 40.0086C118.88 40.2211 118.288 40.3293 117.635 40.3331ZM117.549 35.8378C118.054 35.8349 118.479 35.717 118.825 35.4842C119.17 35.2514 119.432 34.9179 119.609 34.4836C119.786 34.0493 119.871 33.5304 119.866 32.9267C119.86 32.3372 119.766 31.8175 119.585 31.3676C119.403 30.9176 119.137 30.5658 118.786 30.3121C118.436 30.0585 118.005 29.9331 117.493 29.9361C116.961 29.9391 116.518 30.0766 116.166 30.3485C115.817 30.6204 115.556 30.9841 115.382 31.4397C115.213 31.8952 115.13 32.4 115.136 32.9539C115.141 33.5221 115.235 34.024 115.416 34.4598C115.601 34.8919 115.871 35.2313 116.225 35.4779C116.582 35.7208 117.024 35.8408 117.549 35.8378Z" fill="#5D6271"/>
<path d="M144.735 25.2965L144.639 43.0604L148.174 43.0794L148.269 25.3155L144.735 25.2965ZM137.588 32.3797L137.569 35.9141L155.333 36.0095L155.352 32.4751L137.588 32.3797Z" fill="#5D6271"/>
<defs>
<filter id="filter0_di_314_6645" x="0.00683594" y="0.106445" width="200.136" height="73.3325" filterUnits="userSpaceOnUse" color-interpolation-filters="sRGB">
<feFlood flood-opacity="0" result="BackgroundImageFix"/>
<feColorMatrix in="SourceAlpha" type="matrix" values="0 0 0 0 0 0 0 0 0 0 0 0 0 0 0 0 0 0 127 0" result="hardAlpha"/>
<feOffset dx="5" dy="5"/>
<feGaussianBlur stdDeviation="10"/>
<feComposite in2="hardAlpha" operator="out"/>
<feColorMatrix type="matrix" values="0 0 0 0 0 0 0 0 0 0 0 0 0 0 0 0 0 0 0.2 0"/>
<feBlend mode="normal" in2="BackgroundImageFix" result="effect1_dropShadow_314_6645"/>
<feBlend mode="normal" in="SourceGraphic" in2="effect1_dropShadow_314_6645" result="shape"/>
<feColorMatrix in="SourceAlpha" type="matrix" values="0 0 0 0 0 0 0 0 0 0 0 0 0 0 0 0 0 0 127 0" result="hardAlpha"/>
<feOffset dx="-5" dy="-5"/>
<feGaussianBlur stdDeviation="10"/>
<feComposite in2="hardAlpha" operator="arithmetic" k2="-1" k3="1"/>
<feColorMatrix type="matrix" values="0 0 0 0 1 0 0 0 0 1 0 0 0 0 1 0 0 0 0.8 0"/>
<feBlend mode="normal" in2="shape" result="effect2_innerShadow_314_6645"/>
</filter>
</defs>
</svg>
