<svg width="201" height="76" viewBox="0 0 201 76" fill="none" xmlns="http://www.w3.org/2000/svg">
<g filter="url(#filter0_di_45_137)">
<rect x="15.1667" y="15.5474" width="160.113" height="33.9933" rx="8" transform="rotate(0.307676 15.1667 15.5474)" fill="#C1D5E0"/>
</g>
<path d="M151.607 42.1327L151.703 24.3688L155.237 24.3878L155.142 42.1517L151.607 42.1327ZM144.537 34.9732L144.556 31.4388L162.32 31.5342L162.301 35.0686L144.537 34.9732Z" fill="#5D6271"/>
<path d="M35.9608 27.5367L36.0424 38.4455L34.764 38.4551L28.7555 29.9344L28.649 29.9352L28.7131 38.5003L27.3921 38.5102L27.3104 27.6014L28.5888 27.5919L34.6188 36.1336L34.7253 36.1328L34.6611 27.5464L35.9608 27.5367ZM41.9468 38.5718C41.1585 38.5777 40.4772 38.4087 39.9029 38.065C39.3321 37.7177 38.8898 37.231 38.5762 36.6047C38.2661 35.9749 38.1079 35.241 38.1016 34.403C38.0953 33.5649 38.2425 32.8252 38.5431 32.1837C38.8472 31.5386 39.2732 31.0347 39.8209 30.672C40.3721 30.3056 41.0171 30.1197 41.7557 30.1141C42.1818 30.111 42.6031 30.1788 43.0197 30.3178C43.4362 30.4567 43.8161 30.6847 44.1594 31.0017C44.5027 31.3152 44.7775 31.7322 44.9838 32.2527C45.1901 32.7732 45.2961 33.4152 45.3018 34.1786L45.3058 34.7113L38.9992 34.7585L38.991 33.6719L44.0193 33.6342C44.0159 33.1726 43.9204 32.7614 43.7331 32.4005C43.5493 32.0397 43.2879 31.7558 42.949 31.5488C42.6136 31.3418 42.2187 31.24 41.7641 31.2434C41.2634 31.2471 40.8311 31.3746 40.4672 31.626C40.1069 31.8737 39.8305 32.1954 39.6382 32.591C39.4458 32.9866 39.3513 33.4099 39.3547 33.8609L39.3601 34.5853C39.3647 35.2032 39.4752 35.7262 39.6915 36.1543C39.9113 36.5788 40.2138 36.9014 40.5989 37.1223C40.9841 37.3396 41.4306 37.4463 41.9384 37.4425C42.2686 37.4401 42.5666 37.3917 42.8322 37.2973C43.1014 37.1994 43.3329 37.0557 43.5268 36.866C43.7207 36.6728 43.8698 36.4337 43.9742 36.1488L45.1912 36.4807C45.0665 36.8935 44.8543 37.2573 44.5548 37.5721C44.2553 37.8833 43.8843 38.1276 43.4417 38.3049C42.9991 38.4786 42.5008 38.5676 41.9468 38.5718ZM49.0991 38.3478L46.5451 30.1848L47.866 30.1749L49.6813 36.4257L49.7666 36.4251L51.4668 30.148L52.8091 30.1379L54.5816 36.3678L54.6668 36.3671L56.3885 30.1112L57.7095 30.1013L55.2779 38.3015L54.0422 38.3108L52.2054 32.0388L52.0776 32.0398L50.3349 38.3385L49.0991 38.3478ZM63.7401 27.3288L65.3167 27.317L69.0918 36.3444L69.2196 36.3434L72.8591 27.2605L74.4358 27.2487L74.5174 38.1575L73.2817 38.1668L73.2196 29.8787L73.1131 29.8794L69.7662 38.1931L68.573 38.202L65.102 29.9394L64.9954 29.9402L65.0575 38.2283L63.8217 38.2376L63.7401 27.3288ZM80.4272 38.2838C79.6389 38.2897 78.9575 38.1207 78.3832 37.777C77.8124 37.4297 77.3702 36.943 77.0566 36.3167C76.7464 35.6869 76.5882 34.953 76.582 34.115C76.5757 33.2769 76.7229 32.5372 77.0235 31.8957C77.3276 31.2506 77.7535 30.7467 78.3013 30.384C78.8525 30.0176 79.4974 29.8317 80.2361 29.8261C80.6622 29.8229 81.0835 29.8908 81.5 30.0298C81.9166 30.1687 82.2965 30.3967 82.6398 30.7137C82.983 31.0272 83.2578 31.4442 83.4642 31.9647C83.6705 32.4852 83.7765 33.1271 83.7822 33.8906L83.7862 34.4233L77.4795 34.4705L77.4714 33.3839L82.4997 33.3462C82.4962 32.8846 82.4008 32.4734 82.2134 32.1125C82.0296 31.7517 81.7683 31.4678 81.4294 31.2608C81.094 31.0538 80.699 30.952 80.2445 30.9554C79.7438 30.9591 79.3115 31.0866 78.9476 31.338C78.5872 31.5857 78.3109 31.9074 78.1185 32.303C77.9262 32.6986 77.8317 33.1219 77.835 33.5729L77.8405 34.2973C77.8451 34.9152 77.9555 35.4382 78.1718 35.8663C78.3916 36.2908 78.6941 36.6134 79.0793 36.8343C79.4645 37.0516 79.9109 37.1583 80.4187 37.1545C80.749 37.152 81.0469 37.1037 81.3126 37.0093C81.5817 36.9114 81.8133 36.7677 82.0072 36.578C82.201 36.3848 82.3502 36.1457 82.4546 35.8608L83.6716 36.1926C83.5468 36.6055 83.3347 36.9693 83.0352 37.2841C82.7357 37.5953 82.3646 37.8396 81.922 38.0169C81.4794 38.1906 80.9812 38.2796 80.4272 38.2838ZM89.1574 38.2184C88.3691 38.2243 87.6878 38.0554 87.1134 37.7117C86.5426 37.3644 86.1004 36.8776 85.7868 36.2514C85.4767 35.6216 85.3185 34.8877 85.3122 34.0496C85.3059 33.2116 85.4531 32.4718 85.7537 31.8304C86.0578 31.1853 86.4838 30.6814 87.0315 30.3186C87.5827 29.9523 88.2277 29.7663 88.9663 29.7608C89.3924 29.7576 89.8137 29.8255 90.2303 29.9644C90.6468 30.1033 91.0267 30.3313 91.37 30.6484C91.7133 30.9619 91.9881 31.3789 92.1944 31.8993C92.4007 32.4198 92.5067 33.0618 92.5124 33.8253L92.5164 34.3579L86.2098 34.4051L86.2016 33.3185L91.2299 33.2809C91.2264 32.8193 91.131 32.408 90.9437 32.0472C90.7599 31.6863 90.4985 31.4024 90.1596 31.1954C89.8242 30.9884 89.4293 30.8866 88.9747 30.89C88.474 30.8938 88.0417 31.0213 87.6778 31.2726C87.3175 31.5203 87.0411 31.842 86.8487 32.2377C86.6564 32.6333 86.5619 33.0566 86.5653 33.5076L86.5707 34.232C86.5753 34.8499 86.6858 35.3728 86.902 35.8009C87.1219 36.2254 87.4243 36.5481 87.8095 36.7689C88.1947 36.9862 88.6412 37.093 89.149 37.0892C89.4792 37.0867 89.7772 37.0383 90.0428 36.944C90.312 36.8461 90.5435 36.7023 90.7374 36.5126C90.9313 36.3194 91.0804 36.0804 91.1848 35.7955L92.4018 36.1273C92.2771 36.5402 92.0649 36.904 91.7654 37.2187C91.4659 37.5299 91.0948 37.7742 90.6523 37.9515C90.2097 38.1253 89.7114 38.2143 89.1574 38.2184ZM97.953 29.8001L97.9609 30.8654L93.721 30.8971L93.713 29.8318L97.953 29.8001ZM94.9341 27.8624L96.1912 27.853L96.2496 35.6511C96.2522 36.0062 96.3057 36.2721 96.41 36.4489C96.5178 36.6221 96.6537 36.7383 96.8175 36.7974C96.9848 36.853 97.1608 36.8801 97.3454 36.8787C97.4839 36.8776 97.5975 36.8697 97.6862 36.8548C97.7748 36.8364 97.8457 36.8217 97.8989 36.8106L98.163 37.9379C98.078 37.9705 97.9593 38.0034 97.8069 38.0365C97.6544 38.0731 97.461 38.0923 97.2267 38.0941C96.8716 38.0968 96.523 38.023 96.181 37.8729C95.8425 37.7227 95.5602 37.4922 95.3341 37.1814C95.1116 36.8705 94.9986 36.4772 94.995 36.0014L94.9341 27.8624ZM99.9051 37.9675L99.8439 29.7859L101.101 29.7765L101.162 37.9581L99.9051 37.9675ZM100.473 28.4175C100.228 28.4194 100.016 28.3375 99.8371 28.1719C99.6619 28.0063 99.5734 27.8064 99.5716 27.572C99.5699 27.3376 99.6554 27.1363 99.8281 26.9681C100.004 26.7999 100.215 26.7149 100.46 26.713C100.705 26.7112 100.915 26.7931 101.091 26.9587C101.269 27.1243 101.36 27.3242 101.361 27.5586C101.363 27.793 101.276 27.9943 101.1 28.1625C100.927 28.3307 100.718 28.4157 100.473 28.4175ZM104.685 33.0097L104.722 37.9315L103.465 37.9409L103.403 29.7593L104.618 29.7502L104.627 31.0286L104.734 31.0278C104.923 30.6109 105.211 30.2749 105.6 30.0198C105.989 29.7612 106.492 29.6296 107.11 29.625C107.664 29.6209 108.149 29.7309 108.567 29.955C108.984 30.1756 109.309 30.5141 109.544 30.9705C109.778 31.4233 109.898 31.9977 109.903 32.6937L109.942 37.8924L108.685 37.9018L108.646 32.7883C108.642 32.1456 108.471 31.6461 108.134 31.29C107.798 30.9303 107.338 30.7526 106.756 30.7569C106.355 30.7599 105.997 30.8496 105.682 31.026C105.371 31.2023 105.126 31.4581 104.947 31.7932C104.769 32.1284 104.681 32.5339 104.685 33.0097ZM115.565 41.089C114.958 41.0936 114.436 41.0194 113.998 40.8664C113.56 40.717 113.194 40.5173 112.901 40.2673C112.612 40.0209 112.381 39.7563 112.208 39.4735L113.204 38.7629C113.319 38.9112 113.464 39.0806 113.64 39.271C113.815 39.465 114.054 39.6319 114.357 39.7717C114.664 39.915 115.064 39.9848 115.557 39.9811C116.218 39.9762 116.762 39.8123 117.189 39.4895C117.616 39.1667 117.827 38.6644 117.822 37.9826L117.81 36.3207L117.703 36.3215C117.612 36.4713 117.482 36.6569 117.313 36.8784C117.148 37.0963 116.908 37.2916 116.593 37.4644C116.282 37.6336 115.86 37.7203 115.327 37.7242C114.667 37.7292 114.073 37.5774 113.545 37.2688C113.02 36.9602 112.603 36.5088 112.293 35.9145C111.987 35.3202 111.831 34.5969 111.824 33.7447C111.818 32.9066 111.96 32.1758 112.25 31.5521C112.54 30.925 112.947 30.4389 113.47 30.0941C113.993 29.7457 114.599 29.569 115.287 29.5638C115.82 29.5598 116.243 29.6454 116.557 29.8206C116.875 29.9923 117.117 30.1893 117.286 30.4118C117.458 30.6307 117.591 30.8108 117.684 30.9521L117.812 30.9512L117.802 29.6515L119.017 29.6424L119.08 38.0584C119.085 38.7615 118.93 39.3344 118.613 39.7771C118.301 40.2234 117.877 40.5515 117.342 40.7614C116.811 40.9749 116.219 41.0841 115.565 41.089ZM115.489 36.5937C115.993 36.59 116.419 36.4714 116.765 36.2379C117.111 36.0045 117.373 35.6705 117.551 35.2359C117.729 34.8014 117.816 34.2822 117.811 33.6785C117.807 33.0891 117.714 32.5695 117.533 32.1199C117.352 31.6702 117.087 31.3188 116.737 31.0658C116.387 30.8127 115.956 30.6881 115.445 30.6919C114.912 30.6959 114.47 30.8342 114.116 31.1067C113.767 31.3792 113.505 31.7434 113.331 32.1993C113.16 32.6551 113.077 33.16 113.081 33.7139C113.085 34.2821 113.178 34.7839 113.359 35.2194C113.543 35.6512 113.812 35.9901 114.165 36.2361C114.522 36.4785 114.964 36.5977 115.489 36.5937Z" fill="#5D6271"/>
<defs>
<filter id="filter0_di_45_137" x="0.0270996" y="0.590332" width="200.207" height="74.7666" filterUnits="userSpaceOnUse" color-interpolation-filters="sRGB">
<feFlood flood-opacity="0" result="BackgroundImageFix"/>
<feColorMatrix in="SourceAlpha" type="matrix" values="0 0 0 0 0 0 0 0 0 0 0 0 0 0 0 0 0 0 127 0" result="hardAlpha"/>
<feOffset dx="5" dy="5"/>
<feGaussianBlur stdDeviation="10"/>
<feComposite in2="hardAlpha" operator="out"/>
<feColorMatrix type="matrix" values="0 0 0 0 0 0 0 0 0 0 0 0 0 0 0 0 0 0 0.2 0"/>
<feBlend mode="normal" in2="BackgroundImageFix" result="effect1_dropShadow_45_137"/>
<feBlend mode="normal" in="SourceGraphic" in2="effect1_dropShadow_45_137" result="shape"/>
<feColorMatrix in="SourceAlpha" type="matrix" values="0 0 0 0 0 0 0 0 0 0 0 0 0 0 0 0 0 0 127 0" result="hardAlpha"/>
<feOffset dx="-5" dy="-5"/>
<feGaussianBlur stdDeviation="10"/>
<feComposite in2="hardAlpha" operator="arithmetic" k2="-1" k3="1"/>
<feColorMatrix type="matrix" values="0 0 0 0 1 0 0 0 0 1 0 0 0 0 1 0 0 0 0.8 0"/>
<feBlend mode="normal" in2="shape" result="effect2_innerShadow_45_137"/>
</filter>
</defs>
</svg>
