<svg width="17" height="17" viewBox="0 0 17 17" fill="none" xmlns="http://www.w3.org/2000/svg">
<path d="M16.8822 5.695C16.8256 5.62345 16.7536 5.56555 16.6715 5.52561C16.5894 5.48567 16.4994 5.46471 16.4081 5.46429H14.585V3.03571C14.585 2.87469 14.521 2.72026 14.407 2.6064C14.2931 2.49254 14.1385 2.42857 13.9773 2.42857H5.84616L4.79483 0.333929C4.74432 0.233802 4.66706 0.149602 4.57159 0.0906605C4.47613 0.0317194 4.36619 0.000339821 4.25396 0H0.607709C0.446535 0 0.291961 0.0639666 0.177994 0.177828C0.0640263 0.291689 0 0.446119 0 0.607143V16.4657C0.0135918 16.5539 0.0445765 16.6385 0.0911564 16.7146C0.0911564 16.7146 0.0911564 16.7511 0.121542 16.7693C0.160245 16.814 0.205287 16.8529 0.255238 16.8846L0.322086 16.9271C0.410455 16.973 0.508174 16.9979 0.607709 17H13.9773C14.0522 16.9994 14.1264 16.985 14.1961 16.9575L14.2629 16.9211L14.3784 16.8421C14.4018 16.8229 14.4222 16.8004 14.4392 16.7754C14.4663 16.7409 14.4906 16.7043 14.5121 16.6661L14.5486 16.5871C14.5511 16.569 14.5511 16.5506 14.5486 16.5325L16.9794 6.21107C17.0029 6.12326 17.0063 6.03131 16.9895 5.94199C16.9727 5.85267 16.936 5.76826 16.8822 5.695ZM3.87718 1.21429L4.92852 3.30893C4.97902 3.40906 5.05629 3.49326 5.15175 3.5522C5.24722 3.61114 5.35716 3.64252 5.46938 3.64286H13.3696V5.46429H3.03855C2.8989 5.46056 2.76223 5.50501 2.65155 5.59015C2.54086 5.6753 2.46292 5.79595 2.43084 5.93179L1.21542 11.1593V1.21429H3.87718Z" fill="url(#paint0_linear_30_6635)"/>
<defs>
<linearGradient id="paint0_linear_30_6635" x1="8.50793" y1="3.39132e-07" x2="15" y2="19" gradientUnits="userSpaceOnUse">
<stop stop-color="#5D6271"/>
<stop offset="1" stop-color="#DCDCDD" stop-opacity="0.87"/>
</linearGradient>
</defs>
</svg>
