<svg width="116" height="53" viewBox="0 0 116 53" fill="none" xmlns="http://www.w3.org/2000/svg">
<g filter="url(#filter0_d_40_28)">
<rect x="5.72595" y="0.214111" width="105.274" height="41.9178" rx="12" fill="url(#paint0_linear_40_28)"/>
</g>
<path d="M52.6073 28.3851C52.0753 28.3851 51.67 28.2458 51.3913 27.9671C51.1127 27.6884 50.9733 27.2768 50.9733 26.7321V16.3771C50.9733 15.8198 51.1127 15.3954 51.3913 15.1041C51.67 14.8001 52.0373 14.6481 52.4933 14.6481C52.8987 14.6481 53.2153 14.7241 53.4433 14.8761C53.6713 15.0281 53.9247 15.2814 54.2033 15.6361L60.2263 23.1601H59.6943V16.2821C59.6943 15.7501 59.8273 15.3448 60.0933 15.0661C60.372 14.7874 60.7773 14.6481 61.3093 14.6481C61.8413 14.6481 62.2403 14.7874 62.5063 15.0661C62.785 15.3448 62.9243 15.7501 62.9243 16.2821V26.8081C62.9243 27.2894 62.7977 27.6758 62.5443 27.9671C62.291 28.2458 61.949 28.3851 61.5183 28.3851C61.0877 28.3851 60.7457 28.3091 60.4923 28.1571C60.2517 27.9924 59.992 27.7391 59.7133 27.3971L53.6903 19.8541H54.2223V26.7321C54.2223 27.2768 54.083 27.6884 53.8043 27.9671C53.5383 28.2458 53.1393 28.3851 52.6073 28.3851ZM67.1958 28.2141C66.6004 28.2141 66.1444 28.0621 65.8278 27.7581C65.5238 27.4414 65.3718 26.9918 65.3718 26.4091V16.6241C65.3718 16.0414 65.5238 15.5981 65.8278 15.2941C66.1444 14.9774 66.6004 14.8191 67.1958 14.8191H73.6368C74.0928 14.8191 74.4348 14.9331 74.6628 15.1611C74.8908 15.3891 75.0048 15.7184 75.0048 16.1491C75.0048 16.5924 74.8908 16.9344 74.6628 17.1751C74.4348 17.4031 74.0928 17.5171 73.6368 17.5171H68.7158V20.0631H73.2188C73.6621 20.0631 73.9978 20.1771 74.2258 20.4051C74.4664 20.6331 74.5868 20.9688 74.5868 21.4121C74.5868 21.8554 74.4664 22.1911 74.2258 22.4191C73.9978 22.6471 73.6621 22.7611 73.2188 22.7611H68.7158V25.5161H73.6368C74.0928 25.5161 74.4348 25.6364 74.6628 25.8771C74.8908 26.1051 75.0048 26.4344 75.0048 26.8651C75.0048 27.3084 74.8908 27.6441 74.6628 27.8721C74.4348 28.1001 74.0928 28.2141 73.6368 28.2141H67.1958ZM78.2406 28.3851C77.7972 28.3851 77.4299 28.2648 77.1386 28.0241C76.8472 27.7834 76.6762 27.4794 76.6256 27.1121C76.5876 26.7448 76.7142 26.3711 77.0056 25.9911L81.0336 20.6711V22.2481L77.1196 17.0611C76.8282 16.6684 76.7016 16.2884 76.7396 15.9211C76.7902 15.5538 76.9612 15.2498 77.2526 15.0091C77.5439 14.7684 77.9112 14.6481 78.3546 14.6481C78.7219 14.6481 79.0449 14.7368 79.3236 14.9141C79.6022 15.0914 79.8809 15.3764 80.1596 15.7691L82.9906 19.7021H81.8506L84.7006 15.7691C84.9792 15.3638 85.2579 15.0788 85.5366 14.9141C85.8152 14.7368 86.1382 14.6481 86.5056 14.6481C86.9616 14.6481 87.3352 14.7684 87.6266 15.0091C87.9179 15.2371 88.0826 15.5348 88.1206 15.9021C88.1712 16.2694 88.0446 16.6558 87.7406 17.0611L83.8076 22.2481V20.6711L87.8356 25.9911C88.1396 26.3711 88.2662 26.7448 88.2156 27.1121C88.1776 27.4794 88.0129 27.7834 87.7216 28.0241C87.4302 28.2648 87.0566 28.3851 86.6006 28.3851C86.2459 28.3851 85.9292 28.3028 85.6506 28.1381C85.3719 27.9608 85.0869 27.6694 84.7956 27.2641L81.8696 23.2171H82.9716L80.0646 27.2641C79.7732 27.6694 79.4882 27.9608 79.2096 28.1381C78.9309 28.3028 78.6079 28.3851 78.2406 28.3851ZM95.1742 28.3851C94.6168 28.3851 94.1862 28.2331 93.8822 27.9291C93.5782 27.6124 93.4262 27.1754 93.4262 26.6181V17.6691H90.4432C89.9745 17.6691 89.6135 17.5488 89.3602 17.3081C89.1195 17.0548 88.9992 16.7001 88.9992 16.2441C88.9992 15.7754 89.1195 15.4208 89.3602 15.1801C89.6135 14.9394 89.9745 14.8191 90.4432 14.8191H99.9052C100.374 14.8191 100.728 14.9394 100.969 15.1801C101.222 15.4208 101.349 15.7754 101.349 16.2441C101.349 16.7001 101.222 17.0548 100.969 17.3081C100.728 17.5488 100.374 17.6691 99.9052 17.6691H96.9222V26.6181C96.9222 27.1754 96.7765 27.6124 96.4852 27.9291C96.1938 28.2331 95.7568 28.3851 95.1742 28.3851Z" fill="white"/>
<circle cx="27.7573" cy="20.2141" r="14" fill="#FF867A"/>
<g filter="url(#filter1_i_40_28)">
<path d="M31.2573 25.2141L36.2573 20.2141L31.2573 15.2141" stroke="white" stroke-width="3" stroke-linecap="round" stroke-linejoin="round"/>
</g>
<g filter="url(#filter2_i_40_28)">
<path d="M21.2573 25.2141L26.2573 20.2141L21.2573 15.2141" stroke="white" stroke-width="3" stroke-linecap="round" stroke-linejoin="round"/>
</g>
<defs>
<filter id="filter0_d_40_28" x="0.725952" y="0.214111" width="115.274" height="51.9178" filterUnits="userSpaceOnUse" color-interpolation-filters="sRGB">
<feFlood flood-opacity="0" result="BackgroundImageFix"/>
<feColorMatrix in="SourceAlpha" type="matrix" values="0 0 0 0 0 0 0 0 0 0 0 0 0 0 0 0 0 0 127 0" result="hardAlpha"/>
<feOffset dy="5"/>
<feGaussianBlur stdDeviation="2.5"/>
<feColorMatrix type="matrix" values="0 0 0 0 0.180392 0 0 0 0 0.835294 0 0 0 0 0.45098 0 0 0 0.15 0"/>
<feBlend mode="normal" in2="BackgroundImageFix" result="effect1_dropShadow_40_28"/>
<feBlend mode="normal" in="SourceGraphic" in2="effect1_dropShadow_40_28" result="shape"/>
</filter>
<filter id="filter1_i_40_28" x="29.7573" y="13.7141" width="8" height="14" filterUnits="userSpaceOnUse" color-interpolation-filters="sRGB">
<feFlood flood-opacity="0" result="BackgroundImageFix"/>
<feBlend mode="normal" in="SourceGraphic" in2="BackgroundImageFix" result="shape"/>
<feColorMatrix in="SourceAlpha" type="matrix" values="0 0 0 0 0 0 0 0 0 0 0 0 0 0 0 0 0 0 127 0" result="hardAlpha"/>
<feOffset dy="1"/>
<feGaussianBlur stdDeviation="1"/>
<feComposite in2="hardAlpha" operator="arithmetic" k2="-1" k3="1"/>
<feColorMatrix type="matrix" values="0 0 0 0 0.783333 0 0 0 0 0.783333 0 0 0 0 0.783333 0 0 0 1 0"/>
<feBlend mode="normal" in2="shape" result="effect1_innerShadow_40_28"/>
</filter>
<filter id="filter2_i_40_28" x="19.7573" y="13.7141" width="8" height="14" filterUnits="userSpaceOnUse" color-interpolation-filters="sRGB">
<feFlood flood-opacity="0" result="BackgroundImageFix"/>
<feBlend mode="normal" in="SourceGraphic" in2="BackgroundImageFix" result="shape"/>
<feColorMatrix in="SourceAlpha" type="matrix" values="0 0 0 0 0 0 0 0 0 0 0 0 0 0 0 0 0 0 127 0" result="hardAlpha"/>
<feOffset dy="1"/>
<feGaussianBlur stdDeviation="1"/>
<feComposite in2="hardAlpha" operator="arithmetic" k2="-1" k3="1"/>
<feColorMatrix type="matrix" values="0 0 0 0 0.783333 0 0 0 0 0.783333 0 0 0 0 0.783333 0 0 0 1 0"/>
<feBlend mode="normal" in2="shape" result="effect1_innerShadow_40_28"/>
</filter>
<linearGradient id="paint0_linear_40_28" x1="59.6263" y1="42.132" x2="0.564843" y2="27.1744" gradientUnits="userSpaceOnUse">
<stop stop-color="#2ADBA4"/>
<stop offset="1" stop-color="#76FFD4"/>
</linearGradient>
</defs>
</svg>
