<svg width="25" height="28" viewBox="0 0 25 28" fill="none" xmlns="http://www.w3.org/2000/svg">
<path d="M7.61714 6.14579H17.1708C17.4012 6.14579 17.6221 6.05365 17.785 5.88963C17.9479 5.72562 18.0394 5.50316 18.0394 5.27121V3.52205C18.0394 2.82619 17.7648 2.15884 17.2762 1.66679C16.7876 1.17474 16.1248 0.898315 15.4338 0.898315H9.35418C8.66314 0.898315 8.00041 1.17474 7.51177 1.66679C7.02314 2.15884 6.74863 2.82619 6.74863 3.52205V5.27121C6.74863 5.50316 6.84013 5.72562 7.00301 5.88963C7.16589 6.05365 7.3868 6.14579 7.61714 6.14579ZM21.9477 3.08476H21.0792C21.0212 3.0809 20.963 3.08956 20.9086 3.11017C20.8541 3.13078 20.8047 3.16286 20.7636 3.20426C20.7225 3.24567 20.6906 3.29544 20.6701 3.35024C20.6497 3.40505 20.6411 3.46363 20.6449 3.52205V5.27121C20.6449 6.19902 20.2789 7.08883 19.6274 7.7449C18.9759 8.40096 18.0922 8.76953 17.1708 8.76953H7.61714C6.69576 8.76953 5.81212 8.40096 5.1606 7.7449C4.50909 7.08883 4.14307 6.19902 4.14307 5.27121V3.52205C4.14691 3.46363 4.13831 3.40505 4.11784 3.35024C4.09738 3.29544 4.06552 3.24567 4.0244 3.20426C3.98329 3.16286 3.93386 3.13078 3.87943 3.11017C3.825 3.08956 3.76683 3.0809 3.70881 3.08476H2.8403C2.14926 3.08476 1.48653 3.36119 0.99789 3.85324C0.509254 4.34528 0.234741 5.01264 0.234741 5.7085V24.512C0.234741 25.2078 0.509254 25.8752 0.99789 26.3672C1.48653 26.8593 2.14926 27.1357 2.8403 27.1357H21.9477C22.6387 27.1357 23.3015 26.8593 23.7901 26.3672C24.2787 25.8752 24.5532 25.2078 24.5532 24.512V5.7085C24.5532 5.01264 24.2787 4.34528 23.7901 3.85324C23.3015 3.36119 22.6387 3.08476 21.9477 3.08476ZM7.61714 21.8882C7.61714 22.1202 7.52564 22.3426 7.36276 22.5066C7.19988 22.6707 6.97897 22.7628 6.74863 22.7628H5.88011C5.64976 22.7628 5.42885 22.6707 5.26597 22.5066C5.10309 22.3426 5.01159 22.1202 5.01159 21.8882V21.0136C5.01159 20.7817 5.10309 20.5592 5.26597 20.3952C5.42885 20.2312 5.64976 20.1391 5.88011 20.1391H6.74863C6.97897 20.1391 7.19988 20.2312 7.36276 20.3952C7.52564 20.5592 7.61714 20.7817 7.61714 21.0136V21.8882ZM7.61714 17.5153C7.61714 17.7473 7.52564 17.9697 7.36276 18.1337C7.19988 18.2978 6.97897 18.3899 6.74863 18.3899H5.88011C5.64976 18.3899 5.42885 18.2978 5.26597 18.1337C5.10309 17.9697 5.01159 17.7473 5.01159 17.5153V16.6407C5.01159 16.4088 5.10309 16.1863 5.26597 16.0223C5.42885 15.8583 5.64976 15.7662 5.88011 15.7662H6.74863C6.97897 15.7662 7.19988 15.8583 7.36276 16.0223C7.52564 16.1863 7.61714 16.4088 7.61714 16.6407V17.5153ZM7.61714 13.1424C7.61714 13.3744 7.52564 13.5968 7.36276 13.7608C7.19988 13.9249 6.97897 14.017 6.74863 14.017H5.88011C5.64976 14.017 5.42885 13.9249 5.26597 13.7608C5.10309 13.5968 5.01159 13.3744 5.01159 13.1424V12.2678C5.01159 12.0359 5.10309 11.8134 5.26597 11.6494C5.42885 11.4854 5.64976 11.3933 5.88011 11.3933H6.74863C6.97897 11.3933 7.19988 11.4854 7.36276 11.6494C7.52564 11.8134 7.61714 12.0359 7.61714 12.2678V13.1424ZM19.7764 21.8882C19.7764 22.1202 19.6849 22.3426 19.522 22.5066C19.3591 22.6707 19.1382 22.7628 18.9079 22.7628H10.2227C9.99235 22.7628 9.77144 22.6707 9.60856 22.5066C9.44568 22.3426 9.35418 22.1202 9.35418 21.8882V21.0136C9.35418 20.7817 9.44568 20.5592 9.60856 20.3952C9.77144 20.2312 9.99235 20.1391 10.2227 20.1391H18.9079C19.1382 20.1391 19.3591 20.2312 19.522 20.3952C19.6849 20.5592 19.7764 20.7817 19.7764 21.0136V21.8882ZM19.7764 17.5153C19.7764 17.7473 19.6849 17.9697 19.522 18.1337C19.3591 18.2978 19.1382 18.3899 18.9079 18.3899H10.2227C9.99235 18.3899 9.77144 18.2978 9.60856 18.1337C9.44568 17.9697 9.35418 17.7473 9.35418 17.5153V16.6407C9.35418 16.4088 9.44568 16.1863 9.60856 16.0223C9.77144 15.8583 9.99235 15.7662 10.2227 15.7662H18.9079C19.1382 15.7662 19.3591 15.8583 19.522 16.0223C19.6849 16.1863 19.7764 16.4088 19.7764 16.6407V17.5153ZM19.7764 13.1424C19.7764 13.3744 19.6849 13.5968 19.522 13.7608C19.3591 13.9249 19.1382 14.017 18.9079 14.017H10.2227C9.99235 14.017 9.77144 13.9249 9.60856 13.7608C9.44568 13.5968 9.35418 13.3744 9.35418 13.1424V12.2678C9.35418 12.0359 9.44568 11.8134 9.60856 11.6494C9.77144 11.4854 9.99235 11.3933 10.2227 11.3933H18.9079C19.1382 11.3933 19.3591 11.4854 19.522 11.6494C19.6849 11.8134 19.7764 12.0359 19.7764 12.2678V13.1424Z" fill="url(#paint0_linear_16_930)"/>
<defs>
<linearGradient id="paint0_linear_16_930" x1="12.394" y1="0.898315" x2="12.394" y2="27.1357" gradientUnits="userSpaceOnUse">
<stop stop-color="#4EEBFF"/>
<stop offset="0.685" stop-color="#AA62F9"/>
<stop offset="1" stop-color="#F857FF"/>
</linearGradient>
</defs>
</svg>
     