<svg width="27" height="28" viewBox="0 0 27 28" fill="none" xmlns="http://www.w3.org/2000/svg">
<path d="M26.7744 9.57985C26.6861 9.46831 26.5739 9.37805 26.446 9.31579C26.318 9.25352 26.1777 9.22085 26.0354 9.22019H23.1933V5.43429C23.1933 5.18327 23.0935 4.94253 22.9159 4.76503C22.7382 4.58753 22.4972 4.48781 22.246 4.48781H9.57032L7.93139 1.22247C7.85267 1.06638 7.73221 0.935119 7.58339 0.843235C7.43457 0.751352 7.26319 0.702434 7.08824 0.701904H1.40409C1.15283 0.701904 0.911865 0.801622 0.734201 0.979121C0.556537 1.15662 0.456726 1.39736 0.456726 1.64838V26.3703C0.477914 26.5078 0.526216 26.6397 0.59883 26.7584C0.59883 26.7584 0.59883 26.8152 0.646198 26.8436C0.706533 26.9134 0.776748 26.9739 0.854617 27.0234L0.958826 27.0897C1.09659 27.1611 1.24892 27.1999 1.40409 27.2032H22.246C22.3628 27.2024 22.4784 27.1799 22.587 27.137L22.6912 27.0802L22.8712 26.9572C22.9077 26.9272 22.9396 26.8921 22.966 26.853C23.0082 26.7993 23.0462 26.7423 23.0797 26.6827L23.1365 26.5596C23.1405 26.5314 23.1405 26.5027 23.1365 26.4745L26.9259 10.3844C26.9626 10.2475 26.968 10.1041 26.9417 9.96489C26.9155 9.82565 26.8583 9.69407 26.7744 9.57985ZM6.50088 2.59486L8.13981 5.8602C8.21853 6.01629 8.33899 6.14755 8.48781 6.23943C8.63663 6.33132 8.80801 6.38023 8.98296 6.38076H21.2986V9.22019H5.19352C4.97583 9.21438 4.76277 9.28367 4.59023 9.41641C4.41768 9.54915 4.29617 9.73723 4.24616 9.94898L2.35144 18.0981V2.59486H6.50088Z" fill="#5D6271"/>
</svg>

