<svg width="19" height="21" viewBox="0 0 19 21" fill="none" xmlns="http://www.w3.org/2000/svg">
<path d="M13.5379 5.4C13.5379 3 11.5379 1 9.03792 1C6.53792 1 4.53792 3 4.53792 5.4C4.53792 7.8 6.53792 9.8 9.03792 9.8C11.5379 9.8 13.5379 7.8 13.5379 5.4ZM6.53792 5.4C6.53792 4.1 7.63792 3 9.03792 3C10.4379 3 11.5379 4.1 11.5379 5.4C11.5379 6.7 10.4379 7.8 9.03792 7.8C7.63792 7.8 6.53792 6.7 6.53792 5.4ZM3.63792 15.6C4.03792 13.9 5.43792 12.8 7.03792 12.8H11.0379C11.8379 12.8 12.6379 13.1 13.3379 13.6C13.7379 14 14.4379 13.9 14.7379 13.5C15.1379 13.1 15.0379 12.4 14.6379 12.1C13.6379 11.3 12.3379 10.8 11.0379 10.8H7.03792C4.53792 10.8 2.33792 12.5 1.63792 15.1L1.13792 17C0.837921 17.9 1.03792 18.9 1.63792 19.7C2.23792 20.4 3.03792 20.8 4.03792 20.8H10.9379C11.5379 20.8 11.9379 20.4 11.9379 19.8C11.9379 19.2 11.5379 18.8 10.9379 18.8H4.03792C3.63792 18.8 3.43792 18.6 3.33792 18.4C3.03792 18.2 2.93792 17.8 3.03792 17.5L3.63792 15.6Z" fill="url(#paint0_linear_54_6858)"/>
<path d="M15.0377 20.8C15.6377 20.8 16.0377 20.4 16.0377 19.8V18.8H17.0377C17.6377 18.8 18.0377 18.4 18.0377 17.8C18.0377 17.2 17.6377 16.8 17.0377 16.8H16.0377V15.8C16.0377 15.2 15.6377 14.8 15.0377 14.8C14.4377 14.8 14.0377 15.2 14.0377 15.8V16.8H13.0377C12.4377 16.8 12.0377 17.2 12.0377 17.8C12.0377 18.4 12.4377 18.8 13.0377 18.8H14.0377V19.8C14.0377 20.4 14.4377 20.8 15.0377 20.8Z" fill="url(#paint1_linear_54_6858)"/>
<defs>
<linearGradient id="paint0_linear_54_6858" x1="7.99633" y1="1" x2="0.914927" y2="21.9646" gradientUnits="userSpaceOnUse">
<stop stop-color="#5D6271"/>
<stop offset="0.91191" stop-color="#DCDCDD"/>
</linearGradient>
<linearGradient id="paint1_linear_54_6858" x1="15.0377" y1="14.8" x2="13.7297" y2="22.4491" gradientUnits="userSpaceOnUse">
<stop stop-color="#5D6271"/>
<stop offset="1" stop-color="#DCDCDD"/>
</linearGradient>
</defs>
</svg>
