<svg width="21" height="21" viewBox="0 0 21 21" fill="none" xmlns="http://www.w3.org/2000/svg">
<path d="M18.165 12.5952C18.7534 12.1001 19.1752 11.4361 19.3734 10.6933C19.5715 9.9504 19.5364 9.16459 19.2728 8.44235C19.0092 7.7201 18.5299 7.09635 17.8997 6.65562C17.2695 6.21489 16.5191 5.97851 15.75 5.97851C14.9809 5.97851 14.2305 6.21489 13.6003 6.65562C12.9701 7.09635 12.4908 7.7201 12.2272 8.44235C11.9636 9.16459 11.9285 9.9504 12.1266 10.6933C12.3248 11.4361 12.7466 12.1001 13.335 12.5952C13.1675 12.6814 13.0048 12.7765 12.8475 12.8801C12.1769 11.4587 11.031 10.3158 9.6075 9.64867C10.5566 9.03193 11.2809 8.12505 11.6723 7.06324C12.0638 6.00143 12.1015 4.84158 11.7797 3.75662C11.458 2.67166 10.7941 1.71972 9.887 1.04274C8.97992 0.36576 7.87824 0 6.74625 0C5.61426 0 4.51258 0.36576 3.6055 1.04274C2.69841 1.71972 2.0345 2.67166 1.71277 3.75662C1.39103 4.84158 1.4287 6.00143 1.82016 7.06324C2.21162 8.12505 2.9359 9.03193 3.885 9.64867C2.72473 10.1924 1.74325 11.055 1.05528 12.1358C0.367316 13.2165 0.00129395 14.4707 0 15.7517V20.2502C0 20.4491 0.0790176 20.6398 0.21967 20.7804C0.360322 20.921 0.551088 21 0.75 21H20.25C20.4489 21 20.6397 20.921 20.7803 20.7804C20.921 20.6398 21 20.4491 21 20.2502V17.2512C20.9993 16.29 20.7345 15.3475 20.2345 14.5264C19.7346 13.7054 19.0187 13.0374 18.165 12.5952ZM13.5 9.75364C13.5 9.30877 13.632 8.8739 13.8792 8.50401C14.1264 8.13412 14.4778 7.84582 14.889 7.67558C15.3001 7.50534 15.7525 7.46079 16.189 7.54758C16.6254 7.63437 17.0263 7.84859 17.341 8.16316C17.6557 8.47773 17.87 8.87851 17.9568 9.31482C18.0436 9.75114 17.999 10.2034 17.8287 10.6144C17.6584 11.0254 17.37 11.3767 17 11.6238C16.63 11.871 16.195 12.0029 15.75 12.0029C15.1533 12.0029 14.581 11.7659 14.159 11.3441C13.7371 10.9223 13.5 10.3502 13.5 9.75364ZM3 5.25509C3 4.51365 3.21993 3.78886 3.63199 3.17238C4.04404 2.55589 4.62971 2.0754 5.31494 1.79166C6.00016 1.50792 6.75416 1.43369 7.48159 1.57833C8.20902 1.72298 8.8772 2.08002 9.40165 2.6043C9.9261 3.12857 10.2833 3.79654 10.4279 4.52374C10.5726 5.25093 10.4984 6.00469 10.2145 6.68969C9.93072 7.37469 9.45007 7.96017 8.83339 8.37209C8.2167 8.78402 7.49168 9.00388 6.75 9.00388C5.75544 9.00388 4.80161 8.60892 4.09835 7.90588C3.39509 7.20285 3 6.24933 3 5.25509ZM11.25 19.5005H1.5V15.7517C1.5 14.3598 2.05312 13.0248 3.03769 12.0406C4.02225 11.0563 5.35761 10.5034 6.75 10.5034C8.14239 10.5034 9.47775 11.0563 10.4623 12.0406C11.4469 13.0248 12 14.3598 12 15.7517V19.5005H11.25ZM19.5 19.5005H13.5V15.7517C13.5015 15.2934 13.4562 14.8362 13.365 14.3871C14.0289 13.8172 14.8749 13.5034 15.75 13.5024C16.7446 13.5024 17.6984 13.8974 18.4016 14.6004C19.1049 15.3035 19.5 16.257 19.5 17.2512V19.5005Z" fill="url(#paint0_linear_30_6648)"/>
<defs>
<linearGradient id="paint0_linear_30_6648" x1="4.5" y1="2.92701e-08" x2="21" y2="27.5" gradientUnits="userSpaceOnUse">
<stop stop-color="#5D6271"/>
<stop offset="1" stop-color="#DCDCDD" stop-opacity="0.94"/>
</linearGradient>
</defs>
</svg>
