<svg width="26" height="27" viewBox="0 0 26 27" fill="none" xmlns="http://www.w3.org/2000/svg">
<path d="M15.6412 0C15.8429 6.43336e-06 16.0395 0.0648074 16.2025 0.185071C16.3655 0.305334 16.4866 0.474853 16.5483 0.669214L17.5964 3.96514C18.0366 4.18307 18.4577 4.428 18.8598 4.70379L22.2061 3.97479C22.4034 3.93215 22.609 3.954 22.7932 4.03718C22.9775 4.12036 23.1309 4.26058 23.2313 4.43764L25.8725 9.06429C25.9734 9.24124 26.0161 9.44605 25.9945 9.64916C25.973 9.85228 25.8882 10.0432 25.7525 10.1944L23.4562 12.7594C23.4896 13.2513 23.4896 13.7449 23.4562 14.2367L25.7525 16.8056C25.8882 16.9568 25.973 17.1477 25.9945 17.3508C26.0161 17.554 25.9734 17.7588 25.8725 17.9357L23.2313 22.5643C23.1306 22.741 22.9771 22.8808 22.7929 22.9636C22.6086 23.0465 22.4032 23.068 22.2061 23.0252L18.8598 22.2962C18.4596 22.5701 18.0366 22.8169 17.5983 23.0349L16.5483 26.3308C16.4866 26.5251 16.3655 26.6947 16.2025 26.8149C16.0395 26.9352 15.8429 27 15.6412 27H10.3588C10.1571 27 9.96055 26.9352 9.79754 26.8149C9.63453 26.6947 9.51344 26.5251 9.45171 26.3308L8.40552 23.0368C7.9665 22.8195 7.54305 22.5714 7.13828 22.2943L3.79389 23.0252C3.59659 23.0678 3.39102 23.046 3.20677 22.9628C3.02253 22.8796 2.86913 22.7394 2.76866 22.5624L0.127459 17.9357C0.0266029 17.7588 -0.0161168 17.554 0.0054601 17.3508C0.027037 17.1477 0.111795 16.9568 0.247514 16.8056L2.5438 14.2367C2.51054 13.7461 2.51054 13.2539 2.5438 12.7633L0.247514 10.1944C0.111795 10.0432 0.027037 9.85228 0.0054601 9.64916C-0.0161168 9.44605 0.0266029 9.24124 0.127459 9.06429L2.76866 4.43571C2.8694 4.25901 3.02292 4.11919 3.20715 4.03636C3.39137 3.95354 3.5968 3.93198 3.79389 3.97479L7.13828 4.70571C7.54227 4.42993 7.96532 4.18114 8.40552 3.96321L9.45362 0.669214C9.51515 0.475479 9.63566 0.306409 9.7979 0.186204C9.96015 0.0659984 10.1558 0.00082093 10.3569 0H15.6393H15.6412ZM14.9437 1.92857H11.0563L9.97386 5.33636L9.244 5.697C8.8852 5.87469 8.53884 6.07702 8.20734 6.30257L7.53274 6.76543L4.07212 6.00943L2.12837 9.41914L4.50088 12.0767L4.44371 12.8944C4.41633 13.2977 4.41633 13.7023 4.44371 14.1056L4.50088 14.9233L2.12456 17.5809L4.07021 20.9906L7.53084 20.2365L8.20543 20.6974C8.53693 20.923 8.8833 21.1253 9.24209 21.303L9.97195 21.6636L11.0563 25.0714H14.9476L16.0338 21.6617L16.7617 21.303C17.1201 21.1257 17.4659 20.9234 17.7965 20.6974L18.4692 20.2365L21.9317 20.9906L23.8754 17.5809L21.501 14.9233L21.5582 14.1056C21.5857 13.7017 21.5857 13.2964 21.5582 12.8925L21.501 12.0748L23.8773 9.41914L21.9317 6.00943L18.4692 6.76157L17.7965 6.30257C17.4659 6.07657 17.1202 5.87422 16.7617 5.697L16.0338 5.33829L14.9457 1.92857H14.9437ZM13 7.71429C14.5162 7.71429 15.9703 8.32385 17.0425 9.40888C18.1146 10.4939 18.7169 11.9655 18.7169 13.5C18.7169 15.0345 18.1146 16.5061 17.0425 17.5911C15.9703 18.6762 14.5162 19.2857 13 19.2857C11.4838 19.2857 10.0297 18.6762 8.95755 17.5911C7.88542 16.5061 7.28311 15.0345 7.28311 13.5C7.28311 11.9655 7.88542 10.4939 8.95755 9.40888C10.0297 8.32385 11.4838 7.71429 13 7.71429ZM13 9.64286C11.9892 9.64286 11.0198 10.0492 10.305 10.7726C9.59028 11.4959 9.18874 12.477 9.18874 13.5C9.18874 14.523 9.59028 15.5041 10.305 16.2274C11.0198 16.9508 11.9892 17.3571 13 17.3571C14.0108 17.3571 14.9802 16.9508 15.695 16.2274C16.4097 15.5041 16.8113 14.523 16.8113 13.5C16.8113 12.477 16.4097 11.4959 15.695 10.7726C14.9802 10.0492 14.0108 9.64286 13 9.64286Z" fill="url(#paint0_linear_54_6881)"/>
<defs>
<linearGradient id="paint0_linear_54_6881" x1="13" y1="-7.17463e-08" x2="15.5" y2="27" gradientUnits="userSpaceOnUse">
<stop stop-color="#5D6271"/>
<stop offset="1" stop-color="#DCDCDD"/>
</linearGradient>
</defs>
</svg>
