<svg width="30" height="22" viewBox="0 0 30 22" fill="none" xmlns="http://www.w3.org/2000/svg">
<path d="M26.6202 0H3.38018C2.48456 0.00263807 1.62637 0.359591 0.993071 0.992893C0.359769 1.6262 0.00281526 2.48438 0.000177182 3.38V7.58C0.000177182 7.84522 0.105534 8.09957 0.29307 8.28711C0.480607 8.47464 0.734961 8.58 1.00018 8.58C1.26539 8.58 1.51975 8.47464 1.70728 8.28711C1.89482 8.09957 2.00018 7.84522 2.00018 7.58V3.37C2.00018 3.00665 2.14452 2.65819 2.40144 2.40126C2.65837 2.14434 3.00683 2 3.37018 2H26.6202C26.9862 2 27.3372 2.14539 27.596 2.40419C27.8548 2.66299 28.0002 3.014 28.0002 3.38V16.83L23.7602 11.83C23.5168 11.5355 23.2112 11.2985 22.8655 11.136C22.5197 10.9735 22.1422 10.8895 21.7602 10.89C21.3789 10.8883 21.002 10.9707 20.6562 11.1315C20.3105 11.2922 20.0045 11.5273 19.7602 11.82L16.5002 15.66C16.4579 15.7087 16.4057 15.7478 16.3471 15.7746C16.2884 15.8014 16.2247 15.8152 16.1602 15.8152C16.0957 15.8152 16.032 15.8014 15.9733 15.7746C15.9146 15.7478 15.8624 15.7087 15.8202 15.66L12.5702 11.83C12.3249 11.5384 12.0188 11.304 11.6732 11.1434C11.3277 10.9827 10.9512 10.8996 10.5702 10.9C10.1876 10.9021 9.81007 10.9882 9.46445 11.1524C9.11883 11.3166 8.81353 11.5547 8.57018 11.85L2.30018 19.46C2.10859 19.2217 2.0029 18.9258 2.00018 18.62V13.5C2.00018 13.2348 1.89482 12.9804 1.70728 12.7929C1.51975 12.6054 1.26539 12.5 1.00018 12.5C0.734961 12.5 0.480607 12.6054 0.29307 12.7929C0.105534 12.9804 0.000177182 13.2348 0.000177182 13.5V18.62C-0.00626269 19.2425 0.162965 19.8542 0.488431 20.3848C0.813897 20.9155 1.28241 21.3436 1.84018 21.62C2.31469 21.8708 2.84349 22.0012 3.38018 22H26.6202C26.7833 22.0117 26.9471 22.0117 27.1102 22H27.3002L27.5802 21.94L27.8002 21.86L28.0202 21.77L28.2402 21.65L28.4302 21.54L28.6402 21.39L28.8202 21.25L29.0002 21L29.1702 20.82L29.3202 20.64L29.4702 20.42L29.5802 20.23V20.16L29.7302 19.87V19.82C29.8937 19.4402 29.9852 19.0333 30.0002 18.62V3.38C30.0002 2.93613 29.9128 2.49661 29.7429 2.08653C29.573 1.67645 29.3241 1.30384 29.0102 0.989979C28.6963 0.676117 28.3237 0.427148 27.9136 0.257287C27.5036 0.0874261 27.064 0 26.6202 0ZM4.45018 20L10.1002 13.13C10.1599 13.0613 10.2337 13.0061 10.3164 12.9682C10.3992 12.9303 10.4891 12.9104 10.5802 12.91C10.6699 12.9099 10.7585 12.9295 10.8397 12.9675C10.921 13.0056 10.9928 13.061 11.0502 13.13L14.2902 17C14.5202 17.2666 14.8049 17.4805 15.125 17.6271C15.4451 17.7737 15.7931 17.8495 16.1452 17.8495C16.4973 17.8495 16.8452 17.7737 17.1653 17.6271C17.4854 17.4805 17.7702 17.2666 18.0002 17L21.3002 13.1C21.3555 13.0313 21.4256 12.9758 21.5052 12.9377C21.5848 12.8997 21.6719 12.8799 21.7602 12.88C21.85 12.8792 21.9388 12.8985 22.0202 12.9366C22.1015 12.9746 22.1733 13.0305 22.2302 13.1L27.6602 19.51C27.5891 19.5925 27.5085 19.6663 27.4202 19.73H27.3502C27.2684 19.7824 27.1812 19.826 27.0902 19.86H26.9902C26.8701 19.8966 26.7457 19.9168 26.6202 19.92L4.45018 20Z" fill="#ABABAB"/>
</svg>
