<svg width="41" height="42" viewBox="0 0 41 42" fill="none" xmlns="http://www.w3.org/2000/svg">
<path d="M20.5 5C15.808 5 12 8.81311 12 13.5113C12 18.1188 15.604 21.8638 20.3867 22C20.4547 22 20.5453 22 20.5907 22C20.636 22 20.704 22 20.7493 22C20.772 22 20.7947 22 20.7947 22C25.3733 21.8411 28.9773 18.1188 29 13.5113C29 8.81311 25.192 5 20.5 5Z" fill="url(#paint0_linear_206_6638)"/>
<path d="M36 32.7842C31.9307 36.631 26.4897 39 20.5 39C14.5103 39 9.06932 36.631 5 32.7842C5.54867 30.6497 7.03466 28.7029 9.20649 27.2017C15.4476 22.9328 25.5981 22.9328 31.7935 27.2017C33.9882 28.7029 35.4513 30.6497 36 32.7842Z" fill="url(#paint1_linear_206_6638)"/>
<defs>
<linearGradient id="paint0_linear_206_6638" x1="20.5" y1="5" x2="19.3409" y2="32.625" gradientUnits="userSpaceOnUse">
<stop stop-color="#5D6271"/>
<stop offset="1" stop-color="white" stop-opacity="0"/>
</linearGradient>
<linearGradient id="paint1_linear_206_6638" x1="20.5" y1="24" x2="26.3129" y2="43.2836" gradientUnits="userSpaceOnUse">
<stop stop-color="#5D6271"/>
<stop offset="1" stop-color="white" stop-opacity="0"/>
</linearGradient>
</defs>
</svg>
