<svg width="22" height="15" viewBox="0 0 22 15" fill="none" xmlns="http://www.w3.org/2000/svg">
<path d="M11.9171 0C13.4359 0 14.6672 1.25919 14.6672 2.8125V12.1875C14.6672 13.7408 13.4359 15 11.9171 15H2.75009C1.23125 15 0 13.7408 0 12.1875V2.8125C0 1.25919 1.23125 0 2.75009 0H11.9171ZM20.6228 0.333338C21.1868 0.00341856 21.8782 0.362271 21.9815 0.985613L21.9947 1.14671L22 13.8525C22.0003 14.5171 21.3522 14.9529 20.7717 14.7351L20.6284 14.6668L16.5011 12.2548V2.74449L20.6228 0.333338Z" fill="url(#paint0_linear_54_6867)"/>
<defs>
<linearGradient id="paint0_linear_54_6867" x1="11" y1="0" x2="16.7292" y2="17.7387" gradientUnits="userSpaceOnUse">
<stop stop-color="#5D6271"/>
<stop offset="0.785" stop-color="#DCDCDD"/>
</linearGradient>
</defs>
</svg>
