<svg width="30" height="19" viewBox="0 0 41 19" fill="none" xmlns="http://www.w3.org/2000/svg">
<path d="M31.7738 8.42484L30.9526 8.09644C27.0932 16.7804 11.7399 11.501 10.816 14.0843C10.662 15.8293 19.2005 14.4161 25.3046 14.7119C27.166 14.802 28.0995 16.2072 27.3091 18.4976L28.8659 18.5023C30.6618 12.9038 36.3932 15.761 36.6327 13.9133C36.2392 12.6985 30.0458 13.9133 31.7738 8.42484Z" fill="white"/>
<path d="M27.7499 17.5403C27.9962 16.7191 27.9141 15.8979 27.5036 15.4051C27.0929 14.9124 26.518 14.584 25.779 14.5019L11.49 14.3375C11.4079 14.3375 11.3258 14.2554 11.2437 14.2554C11.1616 14.1733 11.1616 14.0912 11.2437 14.0091C11.3258 13.8449 11.4079 13.7626 11.5721 13.7626L25.9432 13.5984C27.6678 13.5163 29.4745 12.1203 30.1313 10.4779L30.9526 8.34283C30.9526 8.26057 31.0347 8.17847 30.9526 8.09637C30.0492 3.90824 26.2717 0.787598 21.8371 0.787598C17.7311 0.787598 14.2 3.41548 12.9681 7.11099C12.1469 6.53612 11.1616 6.20756 10.0118 6.28982C8.04092 6.45402 6.48067 8.09637 6.23421 10.0673C6.15211 10.56 6.23421 11.0528 6.31647 11.5454C3.11372 11.6275 0.48584 14.2554 0.48584 17.5403C0.48584 17.8687 0.48584 18.1151 0.567942 18.4435C0.567942 18.6079 0.732146 18.69 0.814402 18.69H27.175C27.3392 18.69 27.5036 18.6079 27.5036 18.4435L27.7499 17.5403Z" fill="#F4811F"/>
<path d="M32.2666 8.34277H31.8559C31.7738 8.34277 31.6917 8.42488 31.6096 8.50698L31.0348 10.4779C30.7885 11.2991 30.8706 12.1204 31.2812 12.613C31.6917 13.1058 32.2666 13.4342 33.0057 13.5164L36.0442 13.6806C36.1263 13.6806 36.2084 13.7627 36.2905 13.7627C36.3726 13.8448 36.3726 13.9269 36.2905 14.009C36.2084 14.1734 36.1263 14.2555 35.962 14.2555L32.8415 14.4197C31.1169 14.5018 29.3103 15.8978 28.6534 17.5402L28.489 18.2794C28.4069 18.3615 28.489 18.5257 28.6534 18.5257H39.4933C39.6575 18.5257 39.7396 18.4436 39.7396 18.2794C39.9038 17.6225 40.068 16.8834 40.068 16.1442C40.068 11.8739 36.5368 8.34277 32.2666 8.34277Z" fill="#FAAD3F"/>
</svg>
